<?xml version="1.0" encoding="utf-8" standalone="no"?>
<!DOCTYPE svg PUBLIC "-//W3C//DTD SVG 1.1//EN"
  "http://www.w3.org/Graphics/SVG/1.1/DTD/svg11.dtd">
<svg xmlns:xlink="http://www.w3.org/1999/xlink" width="170.07874pt" height="141.732283pt" viewBox="0 0 170.07874 141.732283" xmlns="http://www.w3.org/2000/svg" version="1.1">
 <metadata>
  <rdf:RDF xmlns:dc="http://purl.org/dc/elements/1.1/" xmlns:cc="http://creativecommons.org/ns#" xmlns:rdf="http://www.w3.org/1999/02/22-rdf-syntax-ns#">
   <cc:Work>
    <dc:type rdf:resource="http://purl.org/dc/dcmitype/StillImage"/>
    <dc:date>2025-01-06T16:44:27.131586</dc:date>
    <dc:format>image/svg+xml</dc:format>
    <dc:creator>
     <cc:Agent>
      <dc:title>Matplotlib v3.5.2, https://matplotlib.org/</dc:title>
     </cc:Agent>
    </dc:creator>
   </cc:Work>
  </rdf:RDF>
 </metadata>
 <defs>
  <style type="text/css">*{stroke-linejoin: round; stroke-linecap: butt}</style>
 </defs>
 <g id="figure_1">
  <g id="patch_1">
   <path d="M 0 141.732283 
L 170.07874 141.732283 
L 170.07874 0 
L 0 0 
z
" style="fill: #ffffff"/>
  </g>
  <g id="axes_1">
   <g id="patch_2">
    <path d="M 30.91 114.692283 
L 159.23374 114.692283 
L 159.23374 11.52 
L 30.91 11.52 
z
" style="fill: #ffffff"/>
   </g>
   <g id="PolyCollection_1">
    <defs>
     <path id="m2aff38244a" d="M 31.337746 -28.022257 
L 31.337746 -27.0514 
L 32.629625 -29.513458 
L 33.921503 -37.262943 
L 35.213382 -47.532678 
L 36.505261 -58.049875 
L 37.797139 -67.782306 
L 39.089018 -76.381617 
L 40.380897 -83.811012 
L 41.672776 -90.160447 
L 42.964654 -95.561521 
L 44.256533 -100.150112 
L 45.548412 -104.051257 
L 46.840291 -107.374182 
L 48.132169 -110.211816 
L 49.424048 -112.64214 
L 50.715927 -114.73013 
L 52.007805 -116.529761 
L 53.299684 -118.085845 
L 54.591563 -119.435616 
L 55.883442 -120.610065 
L 57.17532 -121.635053 
L 58.467199 -122.532217 
L 59.759078 -123.319716 
L 61.050957 -124.012836 
L 62.342835 -124.624487 
L 63.634714 -125.165603 
L 64.926593 -125.645478 
L 66.218472 -126.072034 
L 67.51035 -126.452044 
L 68.802229 -126.791315 
L 70.094108 -127.094843 
L 71.385986 -127.366932 
L 72.677865 -127.611308 
L 73.969744 -127.831199 
L 75.261623 -128.029409 
L 76.553501 -128.208383 
L 77.84538 -128.370256 
L 79.137259 -128.516895 
L 80.429138 -128.649939 
L 81.721016 -128.770828 
L 83.012895 -128.880831 
L 84.304774 -128.981068 
L 85.596652 -129.072529 
L 86.888531 -129.156092 
L 88.18041 -129.232535 
L 89.472289 -129.30255 
L 90.764167 -129.366755 
L 92.056046 -129.4257 
L 93.347925 -129.479876 
L 94.639804 -129.529723 
L 95.931682 -129.575636 
L 97.223561 -129.617968 
L 98.51544 -129.657039 
L 99.807319 -129.693133 
L 101.099197 -129.72651 
L 102.391076 -129.757402 
L 103.682955 -129.786021 
L 104.974833 -129.812556 
L 106.266712 -129.837181 
L 107.558591 -129.860051 
L 108.85047 -129.881309 
L 110.142348 -129.901085 
L 111.434227 -129.919495 
L 112.726106 -129.936648 
L 114.017985 -129.95264 
L 115.309863 -129.967561 
L 116.601742 -129.981493 
L 117.893621 -129.994509 
L 119.1855 -130.006679 
L 120.477378 -130.018065 
L 121.769257 -130.028724 
L 123.061136 -130.038708 
L 124.353014 -130.048067 
L 125.644893 -130.056845 
L 126.936772 -130.065082 
L 128.228651 -130.072817 
L 129.520529 -130.080084 
L 130.812408 -130.086915 
L 132.104287 -130.093341 
L 133.396166 -130.099387 
L 134.688044 -130.10508 
L 135.979923 -130.110443 
L 137.271802 -130.115498 
L 138.56368 -130.120264 
L 139.855559 -130.124761 
L 141.147438 -130.129005 
L 142.439317 -130.133013 
L 143.731195 -130.136799 
L 145.023074 -130.140378 
L 146.314953 -130.143762 
L 147.606832 -130.146964 
L 148.89871 -130.149994 
L 150.190589 -130.152862 
L 151.482468 -130.155579 
L 152.774347 -130.158154 
L 154.066225 -130.160595 
L 155.358104 -130.16291 
L 156.649983 -130.165105 
L 157.941861 -130.167189 
L 159.23374 -130.169168 
L 159.23374 -130.212201 
L 159.23374 -130.212201 
L 157.941861 -130.212195 
L 156.649983 -130.212189 
L 155.358104 -130.212183 
L 154.066225 -130.212177 
L 152.774347 -130.212169 
L 151.482468 -130.212162 
L 150.190589 -130.212153 
L 148.89871 -130.212144 
L 147.606832 -130.212135 
L 146.314953 -130.212124 
L 145.023074 -130.212113 
L 143.731195 -130.212101 
L 142.439317 -130.212087 
L 141.147438 -130.212073 
L 139.855559 -130.212058 
L 138.56368 -130.212041 
L 137.271802 -130.212023 
L 135.979923 -130.212003 
L 134.688044 -130.211982 
L 133.396166 -130.211958 
L 132.104287 -130.211933 
L 130.812408 -130.211906 
L 129.520529 -130.211876 
L 128.228651 -130.211843 
L 126.936772 -130.211807 
L 125.644893 -130.211769 
L 124.353014 -130.211726 
L 123.061136 -130.211679 
L 121.769257 -130.211629 
L 120.477378 -130.211573 
L 119.1855 -130.211511 
L 117.893621 -130.211444 
L 116.601742 -130.21137 
L 115.309863 -130.211288 
L 114.017985 -130.211198 
L 112.726106 -130.211099 
L 111.434227 -130.21099 
L 110.142348 -130.210868 
L 108.85047 -130.210734 
L 107.558591 -130.210586 
L 106.266712 -130.21042 
L 104.974833 -130.210237 
L 103.682955 -130.210032 
L 102.391076 -130.209805 
L 101.099197 -130.20955 
L 99.807319 -130.209266 
L 98.51544 -130.208947 
L 97.223561 -130.20859 
L 95.931682 -130.208189 
L 94.639804 -130.207738 
L 93.347925 -130.207229 
L 92.056046 -130.206654 
L 90.764167 -130.206004 
L 89.472289 -130.205266 
L 88.18041 -130.204429 
L 86.888531 -130.203475 
L 85.596652 -130.202388 
L 84.304774 -130.201144 
L 83.012895 -130.199719 
L 81.721016 -130.198082 
L 80.429138 -130.196196 
L 79.137259 -130.194018 
L 77.84538 -130.191497 
L 76.553501 -130.188569 
L 75.261623 -130.185158 
L 73.969744 -130.181173 
L 72.677865 -130.176501 
L 71.385986 -130.171006 
L 70.094108 -130.164519 
L 68.802229 -130.156831 
L 67.51035 -130.147685 
L 66.218472 -130.136756 
L 64.926593 -130.12364 
L 63.634714 -130.107824 
L 62.342835 -130.088657 
L 61.050957 -130.065306 
L 59.759078 -130.036695 
L 58.467199 -130.001429 
L 57.17532 -129.957678 
L 55.883442 -129.903023 
L 54.591563 -129.83424 
L 53.299684 -129.746978 
L 52.007805 -129.635311 
L 50.715927 -129.491059 
L 49.424048 -129.302795 
L 48.132169 -129.054317 
L 46.840291 -128.722294 
L 45.548412 -128.272551 
L 44.256533 -127.654073 
L 42.964654 -126.789092 
L 41.672776 -125.556293 
L 40.380897 -123.761547 
L 39.089018 -121.085473 
L 37.797139 -116.987148 
L 36.505261 -110.525111 
L 35.213382 -100.036531 
L 33.921503 -82.701107 
L 32.629625 -55.249845 
L 31.337746 -28.022257 
z
" style="stroke: #808080; stroke-opacity: 0.6"/>
    </defs>
    <g clip-path="url(#p52ec88fdd6)">
     <use xlink:href="#m2aff38244a" x="0" y="141.732283" style="fill: #808080; fill-opacity: 0.6; stroke: #808080; stroke-opacity: 0.6"/>
    </g>
   </g>
   <g id="PolyCollection_2">
    <defs>
     <path id="m6475abb0ae" d="M 31.337746 -27.040006 
L 31.337746 -27.04 
L 32.629625 -27.041435 
L 33.921503 -27.06404 
L 35.213382 -27.154437 
L 36.505261 -27.361246 
L 37.797139 -27.718959 
L 39.089018 -28.245531 
L 40.380897 -28.945344 
L 41.672776 -29.81318 
L 42.964654 -30.837692 
L 44.256533 -32.004035 
L 45.548412 -33.295723 
L 46.840291 -34.695876 
L 48.132169 -36.188023 
L 49.424048 -37.756585 
L 50.715927 -39.387144 
L 52.007805 -41.066571 
L 53.299684 -42.783055 
L 54.591563 -44.526076 
L 55.883442 -46.286336 
L 57.17532 -48.055682 
L 58.467199 -49.827003 
L 59.759078 -51.594142 
L 61.050957 -53.351796 
L 62.342835 -55.095426 
L 63.634714 -56.821177 
L 64.926593 -58.525795 
L 66.218472 -60.20656 
L 67.51035 -61.861224 
L 68.802229 -63.487947 
L 70.094108 -65.085252 
L 71.385986 -66.651978 
L 72.677865 -68.187237 
L 73.969744 -69.690381 
L 75.261623 -71.160969 
L 76.553501 -72.598739 
L 77.84538 -74.003583 
L 79.137259 -75.375526 
L 80.429138 -76.714707 
L 81.721016 -78.02136 
L 83.012895 -79.295802 
L 84.304774 -80.53842 
L 85.596652 -81.749657 
L 86.888531 -82.930004 
L 88.18041 -84.079993 
L 89.472289 -85.200184 
L 90.764167 -86.291166 
L 92.056046 -87.353545 
L 93.347925 -88.387941 
L 94.639804 -89.394984 
L 95.931682 -90.375312 
L 97.223561 -91.329564 
L 98.51544 -92.258379 
L 99.807319 -93.162396 
L 101.099197 -94.042248 
L 102.391076 -94.898563 
L 103.682955 -95.73196 
L 104.974833 -96.543052 
L 106.266712 -97.33244 
L 107.558591 -98.100716 
L 108.85047 -98.848461 
L 110.142348 -99.576242 
L 111.434227 -100.284617 
L 112.726106 -100.974131 
L 114.017985 -101.645313 
L 115.309863 -102.298685 
L 116.601742 -102.934751 
L 117.893621 -103.554005 
L 119.1855 -104.156928 
L 120.477378 -104.743986 
L 121.769257 -105.315636 
L 123.061136 -105.872319 
L 124.353014 -106.414466 
L 125.644893 -106.942495 
L 126.936772 -107.456812 
L 128.228651 -107.957812 
L 129.520529 -108.445878 
L 130.812408 -108.921381 
L 132.104287 -109.384684 
L 133.396166 -109.836135 
L 134.688044 -110.276075 
L 135.979923 -110.704833 
L 137.271802 -111.12273 
L 138.56368 -111.530075 
L 139.855559 -111.927169 
L 141.147438 -112.314304 
L 142.439317 -112.691763 
L 143.731195 -113.05982 
L 145.023074 -113.41874 
L 146.314953 -113.768782 
L 147.606832 -114.110195 
L 148.89871 -114.443222 
L 150.190589 -114.768098 
L 151.482468 -115.08505 
L 152.774347 -115.394299 
L 154.066225 -115.696059 
L 155.358104 -115.990538 
L 156.649983 -116.277937 
L 157.941861 -116.55845 
L 159.23374 -116.832268 
L 159.23374 -126.727972 
L 159.23374 -126.727972 
L 157.941861 -126.628743 
L 156.649983 -126.526155 
L 155.358104 -126.420075 
L 154.066225 -126.310366 
L 152.774347 -126.196883 
L 151.482468 -126.079473 
L 150.190589 -125.957979 
L 148.89871 -125.832236 
L 147.606832 -125.702069 
L 146.314953 -125.567297 
L 145.023074 -125.427731 
L 143.731195 -125.283172 
L 142.439317 -125.13341 
L 141.147438 -124.978229 
L 139.855559 -124.817399 
L 138.56368 -124.650681 
L 137.271802 -124.477822 
L 135.979923 -124.29856 
L 134.688044 -124.112618 
L 133.396166 -123.919705 
L 132.104287 -123.719518 
L 130.812408 -123.511736 
L 129.520529 -123.296024 
L 128.228651 -123.072028 
L 126.936772 -122.839379 
L 125.644893 -122.597686 
L 124.353014 -122.346541 
L 123.061136 -122.085513 
L 121.769257 -121.814149 
L 120.477378 -121.531974 
L 119.1855 -121.238485 
L 117.893621 -120.933156 
L 116.601742 -120.615432 
L 115.309863 -120.284727 
L 114.017985 -119.940426 
L 112.726106 -119.581881 
L 111.434227 -119.208407 
L 110.142348 -118.819284 
L 108.85047 -118.413754 
L 107.558591 -117.991015 
L 106.266712 -117.550223 
L 104.974833 -117.090488 
L 103.682955 -116.61087 
L 102.391076 -116.110379 
L 101.099197 -115.587969 
L 99.807319 -115.042536 
L 98.51544 -114.472918 
L 97.223561 -113.877886 
L 95.931682 -113.256143 
L 94.639804 -112.606322 
L 93.347925 -111.926981 
L 92.056046 -111.216596 
L 90.764167 -110.473564 
L 89.472289 -109.696191 
L 88.18041 -108.882694 
L 86.888531 -108.031193 
L 85.596652 -107.139711 
L 84.304774 -106.206164 
L 83.012895 -105.228366 
L 81.721016 -104.204018 
L 80.429138 -103.130708 
L 79.137259 -102.005913 
L 77.84538 -100.826991 
L 76.553501 -99.591189 
L 75.261623 -98.29564 
L 73.969744 -96.937369 
L 72.677865 -95.5133 
L 71.385986 -94.020268 
L 70.094108 -92.455034 
L 68.802229 -90.814304 
L 67.51035 -89.094759 
L 66.218472 -87.293089 
L 64.926593 -85.406045 
L 63.634714 -83.430496 
L 62.342835 -81.363509 
L 61.050957 -79.202448 
L 59.759078 -76.9451 
L 58.467199 -74.589831 
L 57.17532 -72.135784 
L 55.883442 -69.583128 
L 54.591563 -66.933361 
L 53.299684 -64.189695 
L 52.007805 -61.357527 
L 50.715927 -58.445012 
L 49.424048 -55.463774 
L 48.132169 -52.429755 
L 46.840291 -49.364221 
L 45.548412 -46.294935 
L 44.256533 -43.257455 
L 42.964654 -40.296479 
L 41.672776 -37.467028 
L 40.380897 -34.835053 
L 39.089018 -32.476635 
L 37.797139 -30.474261 
L 36.505261 -28.907426 
L 35.213382 -27.833187 
L 33.921503 -27.251485 
L 32.629625 -27.058272 
L 31.337746 -27.040006 
z
" style="stroke: #808080; stroke-opacity: 0.5"/>
    </defs>
    <g clip-path="url(#p52ec88fdd6)">
     <use xlink:href="#m6475abb0ae" x="0" y="141.732283" style="fill: #808080; fill-opacity: 0.5; stroke: #808080; stroke-opacity: 0.5"/>
    </g>
   </g>
   <g id="matplotlib.axis_1">
    <g id="xtick_1">
     <g id="line2d_1">
      <defs>
       <path id="m5739b6c3b1" d="M 0 0 
L 0 -5 
" style="stroke: #000000; stroke-width: 0.5"/>
      </defs>
      <g>
       <use xlink:href="#m5739b6c3b1" x="30.91" y="114.692283" style="fill-opacity: 0; stroke: #000000; stroke-width: 0.5"/>
      </g>
     </g>
     <g id="text_1">
      <!-- 0 -->
      <g transform="translate(28.685625 122.418533)scale(0.08 -0.08)">
       <defs>
        <path id="ArialMT-30" d="M 266 2259 
Q 266 3072 433 3567 
Q 600 4063 929 4331 
Q 1259 4600 1759 4600 
Q 2128 4600 2406 4451 
Q 2684 4303 2865 4023 
Q 3047 3744 3150 3342 
Q 3253 2941 3253 2259 
Q 3253 1453 3087 958 
Q 2922 463 2592 192 
Q 2263 -78 1759 -78 
Q 1097 -78 719 397 
Q 266 969 266 2259 
z
M 844 2259 
Q 844 1131 1108 757 
Q 1372 384 1759 384 
Q 2147 384 2411 759 
Q 2675 1134 2675 2259 
Q 2675 3391 2411 3762 
Q 2147 4134 1753 4134 
Q 1366 4134 1134 3806 
Q 844 3388 844 2259 
z
" transform="scale(0.015625)"/>
       </defs>
       <use xlink:href="#ArialMT-30"/>
      </g>
     </g>
    </g>
    <g id="xtick_2">
     <g id="line2d_2">
      <g>
       <use xlink:href="#m5739b6c3b1" x="73.68458" y="114.692283" style="fill-opacity: 0; stroke: #000000; stroke-width: 0.5"/>
      </g>
     </g>
     <g id="text_2">
      <!-- 1 -->
      <g transform="translate(71.460205 122.418533)scale(0.08 -0.08)">
       <defs>
        <path id="ArialMT-31" d="M 2384 0 
L 1822 0 
L 1822 3584 
Q 1619 3391 1289 3197 
Q 959 3003 697 2906 
L 697 3450 
Q 1169 3672 1522 3987 
Q 1875 4303 2022 4600 
L 2384 4600 
L 2384 0 
z
" transform="scale(0.015625)"/>
       </defs>
       <use xlink:href="#ArialMT-31"/>
      </g>
     </g>
    </g>
    <g id="xtick_3">
     <g id="line2d_3">
      <g>
       <use xlink:href="#m5739b6c3b1" x="116.45916" y="114.692283" style="fill-opacity: 0; stroke: #000000; stroke-width: 0.5"/>
      </g>
     </g>
     <g id="text_3">
      <!-- 2 -->
      <g transform="translate(114.234785 122.418533)scale(0.08 -0.08)">
       <defs>
        <path id="ArialMT-32" d="M 3222 541 
L 3222 0 
L 194 0 
Q 188 203 259 391 
Q 375 700 629 1000 
Q 884 1300 1366 1694 
Q 2113 2306 2375 2664 
Q 2638 3022 2638 3341 
Q 2638 3675 2398 3904 
Q 2159 4134 1775 4134 
Q 1369 4134 1125 3890 
Q 881 3647 878 3216 
L 300 3275 
Q 359 3922 746 4261 
Q 1134 4600 1788 4600 
Q 2447 4600 2831 4234 
Q 3216 3869 3216 3328 
Q 3216 3053 3103 2787 
Q 2991 2522 2730 2228 
Q 2469 1934 1863 1422 
Q 1356 997 1212 845 
Q 1069 694 975 541 
L 3222 541 
z
" transform="scale(0.015625)"/>
       </defs>
       <use xlink:href="#ArialMT-32"/>
      </g>
     </g>
    </g>
    <g id="xtick_4">
     <g id="line2d_4">
      <g>
       <use xlink:href="#m5739b6c3b1" x="159.23374" y="114.692283" style="fill-opacity: 0; stroke: #000000; stroke-width: 0.5"/>
      </g>
     </g>
     <g id="text_4">
      <!-- 3 -->
      <g transform="translate(157.009365 122.418533)scale(0.08 -0.08)">
       <defs>
        <path id="ArialMT-33" d="M 269 1209 
L 831 1284 
Q 928 806 1161 595 
Q 1394 384 1728 384 
Q 2125 384 2398 659 
Q 2672 934 2672 1341 
Q 2672 1728 2419 1979 
Q 2166 2231 1775 2231 
Q 1616 2231 1378 2169 
L 1441 2663 
Q 1497 2656 1531 2656 
Q 1891 2656 2178 2843 
Q 2466 3031 2466 3422 
Q 2466 3731 2256 3934 
Q 2047 4138 1716 4138 
Q 1388 4138 1169 3931 
Q 950 3725 888 3313 
L 325 3413 
Q 428 3978 793 4289 
Q 1159 4600 1703 4600 
Q 2078 4600 2393 4439 
Q 2709 4278 2876 4000 
Q 3044 3722 3044 3409 
Q 3044 3113 2884 2869 
Q 2725 2625 2413 2481 
Q 2819 2388 3044 2092 
Q 3269 1797 3269 1353 
Q 3269 753 2831 336 
Q 2394 -81 1725 -81 
Q 1122 -81 723 278 
Q 325 638 269 1209 
z
" transform="scale(0.015625)"/>
       </defs>
       <use xlink:href="#ArialMT-33"/>
      </g>
     </g>
    </g>
    <g id="xtick_5">
     <g id="line2d_5">
      <defs>
       <path id="m833fcf3783" d="M 0 0 
L 0 -3 
" style="stroke: #000000; stroke-width: 0.5"/>
      </defs>
      <g>
       <use xlink:href="#m833fcf3783" x="39.464916" y="114.692283" style="fill-opacity: 0; stroke: #000000; stroke-width: 0.5"/>
      </g>
     </g>
    </g>
    <g id="xtick_6">
     <g id="line2d_6">
      <g>
       <use xlink:href="#m833fcf3783" x="48.019832" y="114.692283" style="fill-opacity: 0; stroke: #000000; stroke-width: 0.5"/>
      </g>
     </g>
    </g>
    <g id="xtick_7">
     <g id="line2d_7">
      <g>
       <use xlink:href="#m833fcf3783" x="56.574748" y="114.692283" style="fill-opacity: 0; stroke: #000000; stroke-width: 0.5"/>
      </g>
     </g>
    </g>
    <g id="xtick_8">
     <g id="line2d_8">
      <g>
       <use xlink:href="#m833fcf3783" x="65.129664" y="114.692283" style="fill-opacity: 0; stroke: #000000; stroke-width: 0.5"/>
      </g>
     </g>
    </g>
    <g id="xtick_9">
     <g id="line2d_9">
      <g>
       <use xlink:href="#m833fcf3783" x="82.239496" y="114.692283" style="fill-opacity: 0; stroke: #000000; stroke-width: 0.5"/>
      </g>
     </g>
    </g>
    <g id="xtick_10">
     <g id="line2d_10">
      <g>
       <use xlink:href="#m833fcf3783" x="90.794412" y="114.692283" style="fill-opacity: 0; stroke: #000000; stroke-width: 0.5"/>
      </g>
     </g>
    </g>
    <g id="xtick_11">
     <g id="line2d_11">
      <g>
       <use xlink:href="#m833fcf3783" x="99.349328" y="114.692283" style="fill-opacity: 0; stroke: #000000; stroke-width: 0.5"/>
      </g>
     </g>
    </g>
    <g id="xtick_12">
     <g id="line2d_12">
      <g>
       <use xlink:href="#m833fcf3783" x="107.904244" y="114.692283" style="fill-opacity: 0; stroke: #000000; stroke-width: 0.5"/>
      </g>
     </g>
    </g>
    <g id="xtick_13">
     <g id="line2d_13">
      <g>
       <use xlink:href="#m833fcf3783" x="125.014076" y="114.692283" style="fill-opacity: 0; stroke: #000000; stroke-width: 0.5"/>
      </g>
     </g>
    </g>
    <g id="xtick_14">
     <g id="line2d_14">
      <g>
       <use xlink:href="#m833fcf3783" x="133.568992" y="114.692283" style="fill-opacity: 0; stroke: #000000; stroke-width: 0.5"/>
      </g>
     </g>
    </g>
    <g id="xtick_15">
     <g id="line2d_15">
      <g>
       <use xlink:href="#m833fcf3783" x="142.123908" y="114.692283" style="fill-opacity: 0; stroke: #000000; stroke-width: 0.5"/>
      </g>
     </g>
    </g>
    <g id="xtick_16">
     <g id="line2d_16">
      <g>
       <use xlink:href="#m833fcf3783" x="150.678824" y="114.692283" style="fill-opacity: 0; stroke: #000000; stroke-width: 0.5"/>
      </g>
     </g>
    </g>
    <g id="text_5">
     <!-- PGA [g] -->
     <g transform="translate(81.286245 131.832283)scale(0.08 -0.08)">
      <defs>
       <path id="ArialMT-50" d="M 494 0 
L 494 4581 
L 2222 4581 
Q 2678 4581 2919 4538 
Q 3256 4481 3484 4323 
Q 3713 4166 3852 3881 
Q 3991 3597 3991 3256 
Q 3991 2672 3619 2267 
Q 3247 1863 2275 1863 
L 1100 1863 
L 1100 0 
L 494 0 
z
M 1100 2403 
L 2284 2403 
Q 2872 2403 3119 2622 
Q 3366 2841 3366 3238 
Q 3366 3525 3220 3729 
Q 3075 3934 2838 4000 
Q 2684 4041 2272 4041 
L 1100 4041 
L 1100 2403 
z
" transform="scale(0.015625)"/>
       <path id="ArialMT-47" d="M 2638 1797 
L 2638 2334 
L 4578 2338 
L 4578 638 
Q 4131 281 3656 101 
Q 3181 -78 2681 -78 
Q 2006 -78 1454 211 
Q 903 500 622 1047 
Q 341 1594 341 2269 
Q 341 2938 620 3517 
Q 900 4097 1425 4378 
Q 1950 4659 2634 4659 
Q 3131 4659 3532 4498 
Q 3934 4338 4162 4050 
Q 4391 3763 4509 3300 
L 3963 3150 
Q 3859 3500 3706 3700 
Q 3553 3900 3268 4020 
Q 2984 4141 2638 4141 
Q 2222 4141 1919 4014 
Q 1616 3888 1430 3681 
Q 1244 3475 1141 3228 
Q 966 2803 966 2306 
Q 966 1694 1177 1281 
Q 1388 869 1791 669 
Q 2194 469 2647 469 
Q 3041 469 3416 620 
Q 3791 772 3984 944 
L 3984 1797 
L 2638 1797 
z
" transform="scale(0.015625)"/>
       <path id="ArialMT-41" d="M -9 0 
L 1750 4581 
L 2403 4581 
L 4278 0 
L 3588 0 
L 3053 1388 
L 1138 1388 
L 634 0 
L -9 0 
z
M 1313 1881 
L 2866 1881 
L 2388 3150 
Q 2169 3728 2063 4100 
Q 1975 3659 1816 3225 
L 1313 1881 
z
" transform="scale(0.015625)"/>
       <path id="ArialMT-20" transform="scale(0.015625)"/>
       <path id="ArialMT-5b" d="M 434 -1272 
L 434 4581 
L 1675 4581 
L 1675 4116 
L 997 4116 
L 997 -806 
L 1675 -806 
L 1675 -1272 
L 434 -1272 
z
" transform="scale(0.015625)"/>
       <path id="ArialMT-67" d="M 319 -275 
L 866 -356 
Q 900 -609 1056 -725 
Q 1266 -881 1628 -881 
Q 2019 -881 2231 -725 
Q 2444 -569 2519 -288 
Q 2563 -116 2559 434 
Q 2191 0 1641 0 
Q 956 0 581 494 
Q 206 988 206 1678 
Q 206 2153 378 2554 
Q 550 2956 876 3175 
Q 1203 3394 1644 3394 
Q 2231 3394 2613 2919 
L 2613 3319 
L 3131 3319 
L 3131 450 
Q 3131 -325 2973 -648 
Q 2816 -972 2473 -1159 
Q 2131 -1347 1631 -1347 
Q 1038 -1347 672 -1080 
Q 306 -813 319 -275 
z
M 784 1719 
Q 784 1066 1043 766 
Q 1303 466 1694 466 
Q 2081 466 2343 764 
Q 2606 1063 2606 1700 
Q 2606 2309 2336 2618 
Q 2066 2928 1684 2928 
Q 1309 2928 1046 2623 
Q 784 2319 784 1719 
z
" transform="scale(0.015625)"/>
       <path id="ArialMT-5d" d="M 1363 -1272 
L 122 -1272 
L 122 -806 
L 800 -806 
L 800 4116 
L 122 4116 
L 122 4581 
L 1363 4581 
L 1363 -1272 
z
" transform="scale(0.015625)"/>
      </defs>
      <use xlink:href="#ArialMT-50"/>
      <use xlink:href="#ArialMT-47" x="66.699219"/>
      <use xlink:href="#ArialMT-41" x="144.482422"/>
      <use xlink:href="#ArialMT-20" x="205.681641"/>
      <use xlink:href="#ArialMT-5b" x="233.464844"/>
      <use xlink:href="#ArialMT-67" x="261.248047"/>
      <use xlink:href="#ArialMT-5d" x="316.863281"/>
     </g>
    </g>
   </g>
   <g id="matplotlib.axis_2">
    <g id="ytick_1">
     <g id="line2d_17">
      <defs>
       <path id="m926e3c5d5b" d="M 0 0 
L 5 0 
" style="stroke: #000000; stroke-width: 0.5"/>
      </defs>
      <g>
       <use xlink:href="#m926e3c5d5b" x="30.91" y="114.692283" style="fill-opacity: 0; stroke: #000000; stroke-width: 0.5"/>
      </g>
     </g>
     <g id="text_6">
      <!-- 0.0 -->
      <g transform="translate(17.79 117.555408)scale(0.08 -0.08)">
       <defs>
        <path id="ArialMT-2e" d="M 581 0 
L 581 641 
L 1222 641 
L 1222 0 
L 581 0 
z
" transform="scale(0.015625)"/>
       </defs>
       <use xlink:href="#ArialMT-30"/>
       <use xlink:href="#ArialMT-2e" x="55.615234"/>
       <use xlink:href="#ArialMT-30" x="83.398438"/>
      </g>
     </g>
    </g>
    <g id="ytick_2">
     <g id="line2d_18">
      <g>
       <use xlink:href="#m926e3c5d5b" x="30.91" y="94.057827" style="fill-opacity: 0; stroke: #000000; stroke-width: 0.5"/>
      </g>
     </g>
     <g id="text_7">
      <!-- 0.2 -->
      <g transform="translate(17.79 96.920952)scale(0.08 -0.08)">
       <use xlink:href="#ArialMT-30"/>
       <use xlink:href="#ArialMT-2e" x="55.615234"/>
       <use xlink:href="#ArialMT-32" x="83.398438"/>
      </g>
     </g>
    </g>
    <g id="ytick_3">
     <g id="line2d_19">
      <g>
       <use xlink:href="#m926e3c5d5b" x="30.91" y="73.42337" style="fill-opacity: 0; stroke: #000000; stroke-width: 0.5"/>
      </g>
     </g>
     <g id="text_8">
      <!-- 0.4 -->
      <g transform="translate(17.79 76.286495)scale(0.08 -0.08)">
       <defs>
        <path id="ArialMT-34" d="M 2069 0 
L 2069 1097 
L 81 1097 
L 81 1613 
L 2172 4581 
L 2631 4581 
L 2631 1613 
L 3250 1613 
L 3250 1097 
L 2631 1097 
L 2631 0 
L 2069 0 
z
M 2069 1613 
L 2069 3678 
L 634 1613 
L 2069 1613 
z
" transform="scale(0.015625)"/>
       </defs>
       <use xlink:href="#ArialMT-30"/>
       <use xlink:href="#ArialMT-2e" x="55.615234"/>
       <use xlink:href="#ArialMT-34" x="83.398438"/>
      </g>
     </g>
    </g>
    <g id="ytick_4">
     <g id="line2d_20">
      <g>
       <use xlink:href="#m926e3c5d5b" x="30.91" y="52.788913" style="fill-opacity: 0; stroke: #000000; stroke-width: 0.5"/>
      </g>
     </g>
     <g id="text_9">
      <!-- 0.6 -->
      <g transform="translate(17.79 55.652038)scale(0.08 -0.08)">
       <defs>
        <path id="ArialMT-36" d="M 3184 3459 
L 2625 3416 
Q 2550 3747 2413 3897 
Q 2184 4138 1850 4138 
Q 1581 4138 1378 3988 
Q 1113 3794 959 3422 
Q 806 3050 800 2363 
Q 1003 2672 1297 2822 
Q 1591 2972 1913 2972 
Q 2475 2972 2870 2558 
Q 3266 2144 3266 1488 
Q 3266 1056 3080 686 
Q 2894 316 2569 119 
Q 2244 -78 1831 -78 
Q 1128 -78 684 439 
Q 241 956 241 2144 
Q 241 3472 731 4075 
Q 1159 4600 1884 4600 
Q 2425 4600 2770 4297 
Q 3116 3994 3184 3459 
z
M 888 1484 
Q 888 1194 1011 928 
Q 1134 663 1356 523 
Q 1578 384 1822 384 
Q 2178 384 2434 671 
Q 2691 959 2691 1453 
Q 2691 1928 2437 2201 
Q 2184 2475 1800 2475 
Q 1419 2475 1153 2201 
Q 888 1928 888 1484 
z
" transform="scale(0.015625)"/>
       </defs>
       <use xlink:href="#ArialMT-30"/>
       <use xlink:href="#ArialMT-2e" x="55.615234"/>
       <use xlink:href="#ArialMT-36" x="83.398438"/>
      </g>
     </g>
    </g>
    <g id="ytick_5">
     <g id="line2d_21">
      <g>
       <use xlink:href="#m926e3c5d5b" x="30.91" y="32.154457" style="fill-opacity: 0; stroke: #000000; stroke-width: 0.5"/>
      </g>
     </g>
     <g id="text_10">
      <!-- 0.8 -->
      <g transform="translate(17.79 35.017582)scale(0.08 -0.08)">
       <defs>
        <path id="ArialMT-38" d="M 1131 2484 
Q 781 2613 612 2850 
Q 444 3088 444 3419 
Q 444 3919 803 4259 
Q 1163 4600 1759 4600 
Q 2359 4600 2725 4251 
Q 3091 3903 3091 3403 
Q 3091 3084 2923 2848 
Q 2756 2613 2416 2484 
Q 2838 2347 3058 2040 
Q 3278 1734 3278 1309 
Q 3278 722 2862 322 
Q 2447 -78 1769 -78 
Q 1091 -78 675 323 
Q 259 725 259 1325 
Q 259 1772 486 2073 
Q 713 2375 1131 2484 
z
M 1019 3438 
Q 1019 3113 1228 2906 
Q 1438 2700 1772 2700 
Q 2097 2700 2305 2904 
Q 2513 3109 2513 3406 
Q 2513 3716 2298 3927 
Q 2084 4138 1766 4138 
Q 1444 4138 1231 3931 
Q 1019 3725 1019 3438 
z
M 838 1322 
Q 838 1081 952 856 
Q 1066 631 1291 507 
Q 1516 384 1775 384 
Q 2178 384 2440 643 
Q 2703 903 2703 1303 
Q 2703 1709 2433 1975 
Q 2163 2241 1756 2241 
Q 1359 2241 1098 1978 
Q 838 1716 838 1322 
z
" transform="scale(0.015625)"/>
       </defs>
       <use xlink:href="#ArialMT-30"/>
       <use xlink:href="#ArialMT-2e" x="55.615234"/>
       <use xlink:href="#ArialMT-38" x="83.398438"/>
      </g>
     </g>
    </g>
    <g id="ytick_6">
     <g id="line2d_22">
      <g>
       <use xlink:href="#m926e3c5d5b" x="30.91" y="11.52" style="fill-opacity: 0; stroke: #000000; stroke-width: 0.5"/>
      </g>
     </g>
     <g id="text_11">
      <!-- 1.0 -->
      <g transform="translate(17.79 14.383125)scale(0.08 -0.08)">
       <use xlink:href="#ArialMT-31"/>
       <use xlink:href="#ArialMT-2e" x="55.615234"/>
       <use xlink:href="#ArialMT-30" x="83.398438"/>
      </g>
     </g>
    </g>
    <g id="ytick_7">
     <g id="line2d_23">
      <defs>
       <path id="m1b31daa85f" d="M 0 0 
L 3 0 
" style="stroke: #000000; stroke-width: 0.5"/>
      </defs>
      <g>
       <use xlink:href="#m1b31daa85f" x="30.91" y="109.533669" style="fill-opacity: 0; stroke: #000000; stroke-width: 0.5"/>
      </g>
     </g>
    </g>
    <g id="ytick_8">
     <g id="line2d_24">
      <g>
       <use xlink:href="#m1b31daa85f" x="30.91" y="104.375055" style="fill-opacity: 0; stroke: #000000; stroke-width: 0.5"/>
      </g>
     </g>
    </g>
    <g id="ytick_9">
     <g id="line2d_25">
      <g>
       <use xlink:href="#m1b31daa85f" x="30.91" y="99.216441" style="fill-opacity: 0; stroke: #000000; stroke-width: 0.5"/>
      </g>
     </g>
    </g>
    <g id="ytick_10">
     <g id="line2d_26">
      <g>
       <use xlink:href="#m1b31daa85f" x="30.91" y="88.899213" style="fill-opacity: 0; stroke: #000000; stroke-width: 0.5"/>
      </g>
     </g>
    </g>
    <g id="ytick_11">
     <g id="line2d_27">
      <g>
       <use xlink:href="#m1b31daa85f" x="30.91" y="83.740598" style="fill-opacity: 0; stroke: #000000; stroke-width: 0.5"/>
      </g>
     </g>
    </g>
    <g id="ytick_12">
     <g id="line2d_28">
      <g>
       <use xlink:href="#m1b31daa85f" x="30.91" y="78.581984" style="fill-opacity: 0; stroke: #000000; stroke-width: 0.5"/>
      </g>
     </g>
    </g>
    <g id="ytick_13">
     <g id="line2d_29">
      <g>
       <use xlink:href="#m1b31daa85f" x="30.91" y="68.264756" style="fill-opacity: 0; stroke: #000000; stroke-width: 0.5"/>
      </g>
     </g>
    </g>
    <g id="ytick_14">
     <g id="line2d_30">
      <g>
       <use xlink:href="#m1b31daa85f" x="30.91" y="63.106142" style="fill-opacity: 0; stroke: #000000; stroke-width: 0.5"/>
      </g>
     </g>
    </g>
    <g id="ytick_15">
     <g id="line2d_31">
      <g>
       <use xlink:href="#m1b31daa85f" x="30.91" y="57.947528" style="fill-opacity: 0; stroke: #000000; stroke-width: 0.5"/>
      </g>
     </g>
    </g>
    <g id="ytick_16">
     <g id="line2d_32">
      <g>
       <use xlink:href="#m1b31daa85f" x="30.91" y="47.630299" style="fill-opacity: 0; stroke: #000000; stroke-width: 0.5"/>
      </g>
     </g>
    </g>
    <g id="ytick_17">
     <g id="line2d_33">
      <g>
       <use xlink:href="#m1b31daa85f" x="30.91" y="42.471685" style="fill-opacity: 0; stroke: #000000; stroke-width: 0.5"/>
      </g>
     </g>
    </g>
    <g id="ytick_18">
     <g id="line2d_34">
      <g>
       <use xlink:href="#m1b31daa85f" x="30.91" y="37.313071" style="fill-opacity: 0; stroke: #000000; stroke-width: 0.5"/>
      </g>
     </g>
    </g>
    <g id="ytick_19">
     <g id="line2d_35">
      <g>
       <use xlink:href="#m1b31daa85f" x="30.91" y="26.995843" style="fill-opacity: 0; stroke: #000000; stroke-width: 0.5"/>
      </g>
     </g>
    </g>
    <g id="ytick_20">
     <g id="line2d_36">
      <g>
       <use xlink:href="#m1b31daa85f" x="30.91" y="21.837228" style="fill-opacity: 0; stroke: #000000; stroke-width: 0.5"/>
      </g>
     </g>
    </g>
    <g id="ytick_21">
     <g id="line2d_37">
      <g>
       <use xlink:href="#m1b31daa85f" x="30.91" y="16.678614" style="fill-opacity: 0; stroke: #000000; stroke-width: 0.5"/>
      </g>
     </g>
    </g>
    <g id="text_12">
     <!-- P(D&gt;C|IM) -->
     <g transform="translate(14.10625 82.034267)rotate(-90)scale(0.08 -0.08)">
      <defs>
       <path id="ArialMT-28" d="M 1497 -1347 
Q 1031 -759 709 28 
Q 388 816 388 1659 
Q 388 2403 628 3084 
Q 909 3875 1497 4659 
L 1900 4659 
Q 1522 4009 1400 3731 
Q 1209 3300 1100 2831 
Q 966 2247 966 1656 
Q 966 153 1900 -1347 
L 1497 -1347 
z
" transform="scale(0.015625)"/>
       <path id="ArialMT-44" d="M 494 0 
L 494 4581 
L 2072 4581 
Q 2606 4581 2888 4516 
Q 3281 4425 3559 4188 
Q 3922 3881 4101 3404 
Q 4281 2928 4281 2316 
Q 4281 1794 4159 1391 
Q 4038 988 3847 723 
Q 3656 459 3429 307 
Q 3203 156 2883 78 
Q 2563 0 2147 0 
L 494 0 
z
M 1100 541 
L 2078 541 
Q 2531 541 2789 625 
Q 3047 709 3200 863 
Q 3416 1078 3536 1442 
Q 3656 1806 3656 2325 
Q 3656 3044 3420 3430 
Q 3184 3816 2847 3947 
Q 2603 4041 2063 4041 
L 1100 4041 
L 1100 541 
z
" transform="scale(0.015625)"/>
       <path id="ArialMT-3e" d="M 3384 2003 
L 350 706 
L 350 1266 
L 2753 2263 
L 350 3250 
L 350 3809 
L 3384 2528 
L 3384 2003 
z
" transform="scale(0.015625)"/>
       <path id="ArialMT-43" d="M 3763 1606 
L 4369 1453 
Q 4178 706 3683 314 
Q 3188 -78 2472 -78 
Q 1731 -78 1267 223 
Q 803 525 561 1097 
Q 319 1669 319 2325 
Q 319 3041 592 3573 
Q 866 4106 1370 4382 
Q 1875 4659 2481 4659 
Q 3169 4659 3637 4309 
Q 4106 3959 4291 3325 
L 3694 3184 
Q 3534 3684 3231 3912 
Q 2928 4141 2469 4141 
Q 1941 4141 1586 3887 
Q 1231 3634 1087 3207 
Q 944 2781 944 2328 
Q 944 1744 1114 1308 
Q 1284 872 1643 656 
Q 2003 441 2422 441 
Q 2931 441 3284 734 
Q 3638 1028 3763 1606 
z
" transform="scale(0.015625)"/>
       <path id="ArialMT-7c" d="M 588 -1347 
L 588 4659 
L 1078 4659 
L 1078 -1347 
L 588 -1347 
z
" transform="scale(0.015625)"/>
       <path id="ArialMT-49" d="M 597 0 
L 597 4581 
L 1203 4581 
L 1203 0 
L 597 0 
z
" transform="scale(0.015625)"/>
       <path id="ArialMT-4d" d="M 475 0 
L 475 4581 
L 1388 4581 
L 2472 1338 
Q 2622 884 2691 659 
Q 2769 909 2934 1394 
L 4031 4581 
L 4847 4581 
L 4847 0 
L 4263 0 
L 4263 3834 
L 2931 0 
L 2384 0 
L 1059 3900 
L 1059 0 
L 475 0 
z
" transform="scale(0.015625)"/>
       <path id="ArialMT-29" d="M 791 -1347 
L 388 -1347 
Q 1322 153 1322 1656 
Q 1322 2244 1188 2822 
Q 1081 3291 891 3722 
Q 769 4003 388 4659 
L 791 4659 
Q 1378 3875 1659 3084 
Q 1900 2403 1900 1659 
Q 1900 816 1576 28 
Q 1253 -759 791 -1347 
z
" transform="scale(0.015625)"/>
      </defs>
      <use xlink:href="#ArialMT-50"/>
      <use xlink:href="#ArialMT-28" x="66.699219"/>
      <use xlink:href="#ArialMT-44" x="100"/>
      <use xlink:href="#ArialMT-3e" x="172.216797"/>
      <use xlink:href="#ArialMT-43" x="230.615234"/>
      <use xlink:href="#ArialMT-7c" x="302.832031"/>
      <use xlink:href="#ArialMT-49" x="328.808594"/>
      <use xlink:href="#ArialMT-4d" x="356.591797"/>
      <use xlink:href="#ArialMT-29" x="439.892578"/>
     </g>
    </g>
   </g>
   <g id="line2d_38">
    <path d="M 31.337746 114.495066 
L 32.629625 103.922583 
L 33.921503 86.338605 
L 35.213382 70.422837 
L 36.505261 57.775721 
L 37.797139 48.061758 
L 39.089018 40.641623 
L 40.380897 34.947753 
L 41.672776 30.542235 
L 42.964654 27.101052 
L 44.256533 24.387066 
L 45.548412 22.22651 
L 46.840291 20.491236 
L 48.132169 19.085917 
L 49.424048 17.938969 
L 50.715927 16.99612 
L 52.007805 16.215834 
L 53.299684 15.566037 
L 54.591563 15.021745 
L 55.883442 14.56334 
L 57.17532 14.175299 
L 58.467199 13.845249 
L 59.759078 13.563264 
L 61.050957 13.321325 
L 62.342835 13.112919 
L 63.634714 12.932724 
L 64.926593 12.776367 
L 66.218472 12.640238 
L 67.51035 12.521342 
L 68.802229 12.417183 
L 70.094108 12.32567 
L 71.385986 12.245049 
L 72.677865 12.173835 
L 73.969744 12.110775 
L 75.261623 12.054802 
L 76.553501 12.005005 
L 77.84538 11.960605 
L 79.137259 11.920936 
L 80.429138 11.885421 
L 81.721016 11.853564 
L 83.012895 11.824934 
L 84.304774 11.79916 
L 85.596652 11.775915 
L 86.888531 11.754918 
L 88.18041 11.735919 
L 89.472289 11.718703 
L 90.764167 11.703079 
L 92.056046 11.688878 
L 93.347925 11.675954 
L 94.639804 11.664176 
L 95.931682 11.653428 
L 97.223561 11.643607 
L 98.51544 11.634623 
L 99.807319 11.626394 
L 101.099197 11.618849 
L 102.391076 11.611922 
L 103.682955 11.605556 
L 104.974833 11.599699 
L 106.266712 11.594306 
L 107.558591 11.589333 
L 108.85047 11.584745 
L 110.142348 11.580508 
L 111.434227 11.57659 
L 112.726106 11.572965 
L 114.017985 11.569608 
L 115.309863 11.566496 
L 116.601742 11.563609 
L 117.893621 11.560928 
L 119.1855 11.558437 
L 120.477378 11.556121 
L 121.769257 11.553966 
L 123.061136 11.551958 
L 124.353014 11.550087 
L 125.644893 11.548342 
L 126.936772 11.546714 
L 128.228651 11.545193 
L 129.520529 11.543771 
L 130.812408 11.542442 
L 132.104287 11.541198 
L 133.396166 11.540034 
L 134.688044 11.538943 
L 135.979923 11.53792 
L 137.271802 11.53696 
L 138.56368 11.53606 
L 139.855559 11.535214 
L 141.147438 11.534419 
L 142.439317 11.533672 
L 143.731195 11.53297 
L 145.023074 11.532309 
L 146.314953 11.531686 
L 147.606832 11.5311 
L 148.89871 11.530547 
L 150.190589 11.530026 
L 151.482468 11.529534 
L 152.774347 11.52907 
L 154.066225 11.528632 
L 155.358104 11.528218 
L 156.649983 11.527827 
L 157.941861 11.527457 
L 159.23374 11.527107 
" clip-path="url(#p52ec88fdd6)" style="fill: none; stroke: #000000; stroke-linecap: square"/>
    <defs>
     <path id="m7fd53274b7" d="M 0 1 
C 0.265203 1 0.51958 0.894634 0.707107 0.707107 
C 0.894634 0.51958 1 0.265203 1 0 
C 1 -0.265203 0.894634 -0.51958 0.707107 -0.707107 
C 0.51958 -0.894634 0.265203 -1 0 -1 
C -0.265203 -1 -0.51958 -0.894634 -0.707107 -0.707107 
C -0.894634 -0.51958 -1 -0.265203 -1 0 
C -1 0.265203 -0.894634 0.51958 -0.707107 0.707107 
C -0.51958 0.894634 -0.265203 1 0 1 
z
" style="stroke: #000000; stroke-width: 0.8"/>
    </defs>
    <g clip-path="url(#p52ec88fdd6)">
     <use xlink:href="#m7fd53274b7" x="31.337746" y="114.495066" style="fill-opacity: 0; stroke: #000000; stroke-width: 0.8"/>
     <use xlink:href="#m7fd53274b7" x="44.256533" y="24.387066" style="fill-opacity: 0; stroke: #000000; stroke-width: 0.8"/>
     <use xlink:href="#m7fd53274b7" x="57.17532" y="14.175299" style="fill-opacity: 0; stroke: #000000; stroke-width: 0.8"/>
     <use xlink:href="#m7fd53274b7" x="70.094108" y="12.32567" style="fill-opacity: 0; stroke: #000000; stroke-width: 0.8"/>
     <use xlink:href="#m7fd53274b7" x="83.012895" y="11.824934" style="fill-opacity: 0; stroke: #000000; stroke-width: 0.8"/>
     <use xlink:href="#m7fd53274b7" x="95.931682" y="11.653428" style="fill-opacity: 0; stroke: #000000; stroke-width: 0.8"/>
     <use xlink:href="#m7fd53274b7" x="108.85047" y="11.584745" style="fill-opacity: 0; stroke: #000000; stroke-width: 0.8"/>
     <use xlink:href="#m7fd53274b7" x="121.769257" y="11.553966" style="fill-opacity: 0; stroke: #000000; stroke-width: 0.8"/>
     <use xlink:href="#m7fd53274b7" x="134.688044" y="11.538943" style="fill-opacity: 0; stroke: #000000; stroke-width: 0.8"/>
     <use xlink:href="#m7fd53274b7" x="147.606832" y="11.5311" style="fill-opacity: 0; stroke: #000000; stroke-width: 0.8"/>
    </g>
   </g>
   <g id="line2d_39">
    <path d="M 31.337746 114.620041 
L 32.629625 106.737626 
L 33.921503 90.117346 
L 35.213382 73.612153 
L 36.505261 59.988124 
L 37.797139 49.374579 
L 39.089018 41.251532 
L 40.380897 35.049108 
L 41.672776 30.293589 
L 42.964654 26.622186 
L 44.256533 23.764999 
L 45.548412 21.522953 
L 46.840291 19.749154 
L 48.132169 18.334688 
L 49.424048 17.198256 
L 50.715927 16.278695 
L 52.007805 15.52962 
L 53.299684 14.915567 
L 54.591563 14.409207 
L 55.883442 13.98932 
L 57.17532 13.639308 
L 58.467199 13.346097 
L 59.759078 13.099321 
L 61.050957 12.890709 
L 62.342835 12.713624 
L 63.634714 12.562706 
L 64.926593 12.433607 
L 66.218472 12.322779 
L 67.51035 12.227314 
L 68.802229 12.144818 
L 70.094108 12.073309 
L 71.385986 12.011144 
L 72.677865 11.956949 
L 73.969744 11.909577 
L 75.261623 11.868062 
L 76.553501 11.83159 
L 77.84538 11.799475 
L 79.137259 11.771131 
L 80.429138 11.746061 
L 81.721016 11.72384 
L 83.012895 11.704106 
L 84.304774 11.686546 
L 85.596652 11.670891 
L 86.888531 11.65691 
L 88.18041 11.644401 
L 89.472289 11.633192 
L 90.764167 11.62313 
L 92.056046 11.614084 
L 93.347925 11.605939 
L 94.639804 11.598594 
L 95.931682 11.591962 
L 97.223561 11.585965 
L 98.51544 11.580535 
L 99.807319 11.575612 
L 101.099197 11.571142 
L 102.391076 11.56708 
L 103.682955 11.563384 
L 104.974833 11.560016 
L 106.266712 11.556944 
L 107.558591 11.554139 
L 108.85047 11.551576 
L 110.142348 11.54923 
L 111.434227 11.547082 
L 112.726106 11.545112 
L 114.017985 11.543304 
L 115.309863 11.541643 
L 116.601742 11.540116 
L 117.893621 11.538711 
L 119.1855 11.537417 
L 120.477378 11.536224 
L 121.769257 11.535123 
L 123.061136 11.534107 
L 124.353014 11.533167 
L 125.644893 11.532299 
L 126.936772 11.531494 
L 128.228651 11.53075 
L 129.520529 11.53006 
L 130.812408 11.529419 
L 132.104287 11.528825 
L 133.396166 11.528273 
L 134.688044 11.52776 
L 135.979923 11.527283 
L 137.271802 11.526838 
L 138.56368 11.526425 
L 139.855559 11.526039 
L 141.147438 11.52568 
L 142.439317 11.525345 
L 143.731195 11.525032 
L 145.023074 11.524739 
L 146.314953 11.524466 
L 147.606832 11.52421 
L 148.89871 11.523971 
L 150.190589 11.523747 
L 151.482468 11.523538 
L 152.774347 11.523341 
L 154.066225 11.523157 
L 155.358104 11.522984 
L 156.649983 11.522822 
L 157.941861 11.52267 
L 159.23374 11.522527 
" clip-path="url(#p52ec88fdd6)" style="fill: none; stroke-dasharray: 2.96,1.28; stroke-dashoffset: 0; stroke: #dc0000; stroke-width: 0.8"/>
    <defs>
     <path id="ma4fabf06bb" d="M 0 1 
C 0.265203 1 0.51958 0.894634 0.707107 0.707107 
C 0.894634 0.51958 1 0.265203 1 0 
C 1 -0.265203 0.894634 -0.51958 0.707107 -0.707107 
C 0.51958 -0.894634 0.265203 -1 0 -1 
C -0.265203 -1 -0.51958 -0.894634 -0.707107 -0.707107 
C -0.894634 -0.51958 -1 -0.265203 -1 0 
C -1 0.265203 -0.894634 0.51958 -0.707107 0.707107 
C -0.51958 0.894634 -0.265203 1 0 1 
z
" style="stroke: #dc0000; stroke-width: 0.8"/>
    </defs>
    <g clip-path="url(#p52ec88fdd6)">
     <use xlink:href="#ma4fabf06bb" x="31.337746" y="114.620041" style="fill-opacity: 0; stroke: #dc0000; stroke-width: 0.8"/>
     <use xlink:href="#ma4fabf06bb" x="44.256533" y="23.764999" style="fill-opacity: 0; stroke: #dc0000; stroke-width: 0.8"/>
     <use xlink:href="#ma4fabf06bb" x="57.17532" y="13.639308" style="fill-opacity: 0; stroke: #dc0000; stroke-width: 0.8"/>
     <use xlink:href="#ma4fabf06bb" x="70.094108" y="12.073309" style="fill-opacity: 0; stroke: #dc0000; stroke-width: 0.8"/>
     <use xlink:href="#ma4fabf06bb" x="83.012895" y="11.704106" style="fill-opacity: 0; stroke: #dc0000; stroke-width: 0.8"/>
     <use xlink:href="#ma4fabf06bb" x="95.931682" y="11.591962" style="fill-opacity: 0; stroke: #dc0000; stroke-width: 0.8"/>
     <use xlink:href="#ma4fabf06bb" x="108.85047" y="11.551576" style="fill-opacity: 0; stroke: #dc0000; stroke-width: 0.8"/>
     <use xlink:href="#ma4fabf06bb" x="121.769257" y="11.535123" style="fill-opacity: 0; stroke: #dc0000; stroke-width: 0.8"/>
     <use xlink:href="#ma4fabf06bb" x="134.688044" y="11.52776" style="fill-opacity: 0; stroke: #dc0000; stroke-width: 0.8"/>
     <use xlink:href="#ma4fabf06bb" x="147.606832" y="11.52421" style="fill-opacity: 0; stroke: #dc0000; stroke-width: 0.8"/>
    </g>
   </g>
   <g id="line2d_40">
    <path d="M 31.337746 114.624035 
L 32.629625 106.8882 
L 33.921503 90.361566 
L 35.213382 73.853734 
L 36.505261 60.189292 
L 37.797139 49.529026 
L 39.089018 41.3645 
L 40.380897 35.128707 
L 41.672776 30.347594 
L 42.964654 26.657081 
L 44.256533 23.785875 
L 45.548412 21.533688 
L 46.840291 19.752652 
L 48.132169 18.333104 
L 49.424048 17.193176 
L 50.715927 16.27128 
L 52.007805 15.520718 
L 53.299684 14.905792 
L 54.591563 14.399 
L 55.883442 13.978996 
L 57.17532 13.629088 
L 58.467199 13.336131 
L 59.759078 13.089711 
L 61.050957 12.88152 
L 62.342835 12.704891 
L 63.634714 12.554448 
L 64.926593 12.425826 
L 66.218472 12.31547 
L 67.51035 12.220463 
L 68.802229 12.138408 
L 70.094108 12.06732 
L 71.385986 12.005553 
L 72.677865 11.951734 
L 73.969744 11.904715 
L 75.261623 11.863531 
L 76.553501 11.82737 
L 77.84538 11.795543 
L 79.137259 11.767468 
L 80.429138 11.742648 
L 81.721016 11.72066 
L 83.012895 11.701142 
L 84.304774 11.683783 
L 85.596652 11.668314 
L 86.888531 11.654506 
L 88.18041 11.642158 
L 89.472289 11.631097 
L 90.764167 11.621174 
L 92.056046 11.612256 
L 93.347925 11.60423 
L 94.639804 11.596997 
L 95.931682 11.590467 
L 97.223561 11.584566 
L 98.51544 11.579225 
L 99.807319 11.574384 
L 101.099197 11.569992 
L 102.391076 11.566001 
L 103.682955 11.562371 
L 104.974833 11.559065 
L 106.266712 11.556052 
L 107.558591 11.553301 
L 108.85047 11.550787 
L 110.142348 11.548489 
L 111.434227 11.546384 
L 112.726106 11.544455 
L 114.017985 11.542685 
L 115.309863 11.541061 
L 116.601742 11.539567 
L 117.893621 11.538193 
L 119.1855 11.536928 
L 120.477378 11.535763 
L 121.769257 11.534688 
L 123.061136 11.533695 
L 124.353014 11.532779 
L 125.644893 11.531931 
L 126.936772 11.531147 
L 128.228651 11.530421 
L 129.520529 11.529749 
L 130.812408 11.529125 
L 132.104287 11.528546 
L 133.396166 11.528009 
L 134.688044 11.527509 
L 135.979923 11.527045 
L 137.271802 11.526613 
L 138.56368 11.526211 
L 139.855559 11.525836 
L 141.147438 11.525487 
L 142.439317 11.525162 
L 143.731195 11.524858 
L 145.023074 11.524574 
L 146.314953 11.524309 
L 147.606832 11.524061 
L 148.89871 11.523829 
L 150.190589 11.523612 
L 151.482468 11.523409 
L 152.774347 11.523219 
L 154.066225 11.52304 
L 155.358104 11.522873 
L 156.649983 11.522716 
L 157.941861 11.522569 
L 159.23374 11.52243 
" clip-path="url(#p52ec88fdd6)" style="fill: none; stroke-dasharray: 5.12,1.28,0.8,1.28; stroke-dashoffset: 0; stroke: #3c5488; stroke-width: 0.8"/>
    <defs>
     <path id="m3d32da17a6" d="M 0 1 
C 0.265203 1 0.51958 0.894634 0.707107 0.707107 
C 0.894634 0.51958 1 0.265203 1 0 
C 1 -0.265203 0.894634 -0.51958 0.707107 -0.707107 
C 0.51958 -0.894634 0.265203 -1 0 -1 
C -0.265203 -1 -0.51958 -0.894634 -0.707107 -0.707107 
C -0.894634 -0.51958 -1 -0.265203 -1 0 
C -1 0.265203 -0.894634 0.51958 -0.707107 0.707107 
C -0.51958 0.894634 -0.265203 1 0 1 
z
" style="stroke: #3c5488; stroke-width: 0.8"/>
    </defs>
    <g clip-path="url(#p52ec88fdd6)">
     <use xlink:href="#m3d32da17a6" x="31.337746" y="114.624035" style="fill-opacity: 0; stroke: #3c5488; stroke-width: 0.8"/>
     <use xlink:href="#m3d32da17a6" x="44.256533" y="23.785875" style="fill-opacity: 0; stroke: #3c5488; stroke-width: 0.8"/>
     <use xlink:href="#m3d32da17a6" x="57.17532" y="13.629088" style="fill-opacity: 0; stroke: #3c5488; stroke-width: 0.8"/>
     <use xlink:href="#m3d32da17a6" x="70.094108" y="12.06732" style="fill-opacity: 0; stroke: #3c5488; stroke-width: 0.8"/>
     <use xlink:href="#m3d32da17a6" x="83.012895" y="11.701142" style="fill-opacity: 0; stroke: #3c5488; stroke-width: 0.8"/>
     <use xlink:href="#m3d32da17a6" x="95.931682" y="11.590467" style="fill-opacity: 0; stroke: #3c5488; stroke-width: 0.8"/>
     <use xlink:href="#m3d32da17a6" x="108.85047" y="11.550787" style="fill-opacity: 0; stroke: #3c5488; stroke-width: 0.8"/>
     <use xlink:href="#m3d32da17a6" x="121.769257" y="11.534688" style="fill-opacity: 0; stroke: #3c5488; stroke-width: 0.8"/>
     <use xlink:href="#m3d32da17a6" x="134.688044" y="11.527509" style="fill-opacity: 0; stroke: #3c5488; stroke-width: 0.8"/>
     <use xlink:href="#m3d32da17a6" x="147.606832" y="11.524061" style="fill-opacity: 0; stroke: #3c5488; stroke-width: 0.8"/>
    </g>
   </g>
   <g id="line2d_41">
    <path d="M 31.337746 114.692279 
L 32.629625 114.682565 
L 33.921503 114.583853 
L 35.213382 114.284186 
L 36.505261 113.716699 
L 37.797139 112.863107 
L 39.089018 111.736299 
L 40.380897 110.36537 
L 41.672776 108.78599 
L 42.964654 107.034868 
L 44.256533 105.146817 
L 45.548412 103.153364 
L 46.840291 101.082254 
L 48.132169 98.957424 
L 49.424048 96.799232 
L 50.715927 94.624797 
L 52.007805 92.448371 
L 53.299684 90.281713 
L 54.591563 88.13444 
L 55.883442 86.014332 
L 57.17532 83.927618 
L 58.467199 81.87921 
L 59.759078 79.872916 
L 61.050957 77.911615 
L 62.342835 75.997411 
L 63.634714 74.131762 
L 64.926593 72.31559 
L 66.218472 70.549371 
L 67.51035 68.833217 
L 68.802229 67.166941 
L 70.094108 65.550111 
L 71.385986 63.9821 
L 72.677865 62.462121 
L 73.969744 60.989264 
L 75.261623 59.562523 
L 76.553501 58.180818 
L 77.84538 56.843017 
L 79.137259 55.547948 
L 80.429138 54.294416 
L 81.721016 53.081215 
L 83.012895 51.907132 
L 84.304774 50.77096 
L 85.596652 49.671503 
L 86.888531 48.60758 
L 88.18041 47.578027 
L 89.472289 46.581706 
L 90.764167 45.617501 
L 92.056046 44.684324 
L 93.347925 43.781116 
L 94.639804 42.906847 
L 95.931682 42.060517 
L 97.223561 41.241154 
L 98.51544 40.447821 
L 99.807319 39.679606 
L 101.099197 38.935632 
L 102.391076 38.215048 
L 103.682955 37.517034 
L 104.974833 36.840798 
L 106.266712 36.185577 
L 107.558591 35.550633 
L 108.85047 34.935257 
L 110.142348 34.338765 
L 111.434227 33.760497 
L 112.726106 33.199818 
L 114.017985 32.656118 
L 115.309863 32.128807 
L 116.601742 31.617319 
L 117.893621 31.121107 
L 119.1855 30.639648 
L 120.477378 30.172434 
L 121.769257 29.71898 
L 123.061136 29.278817 
L 124.353014 28.851494 
L 125.644893 28.436577 
L 126.936772 28.033648 
L 128.228651 27.642306 
L 129.520529 27.262162 
L 130.812408 26.892844 
L 132.104287 26.533993 
L 133.396166 26.185264 
L 134.688044 25.846323 
L 135.979923 25.516851 
L 137.271802 25.196538 
L 138.56368 24.885086 
L 139.855559 24.582211 
L 141.147438 24.287635 
L 142.439317 24.001092 
L 143.731195 23.722326 
L 145.023074 23.45109 
L 146.314953 23.187146 
L 147.606832 22.930263 
L 148.89871 22.680222 
L 150.190589 22.436807 
L 151.482468 22.199813 
L 152.774347 21.969042 
L 154.066225 21.744302 
L 155.358104 21.525407 
L 156.649983 21.31218 
L 157.941861 21.104447 
L 159.23374 20.902044 
" clip-path="url(#p52ec88fdd6)" style="fill: none; stroke: #000000; stroke-linecap: square"/>
    <defs>
     <path id="m2300ba1891" d="M -1 1 
L 1 -1 
M -1 -1 
L 1 1 
" style="stroke: #000000; stroke-width: 0.8"/>
    </defs>
    <g clip-path="url(#p52ec88fdd6)">
     <use xlink:href="#m2300ba1891" x="31.337746" y="114.692279" style="fill-opacity: 0; stroke: #000000; stroke-width: 0.8"/>
     <use xlink:href="#m2300ba1891" x="44.256533" y="105.146817" style="fill-opacity: 0; stroke: #000000; stroke-width: 0.8"/>
     <use xlink:href="#m2300ba1891" x="57.17532" y="83.927618" style="fill-opacity: 0; stroke: #000000; stroke-width: 0.8"/>
     <use xlink:href="#m2300ba1891" x="70.094108" y="65.550111" style="fill-opacity: 0; stroke: #000000; stroke-width: 0.8"/>
     <use xlink:href="#m2300ba1891" x="83.012895" y="51.907132" style="fill-opacity: 0; stroke: #000000; stroke-width: 0.8"/>
     <use xlink:href="#m2300ba1891" x="95.931682" y="42.060517" style="fill-opacity: 0; stroke: #000000; stroke-width: 0.8"/>
     <use xlink:href="#m2300ba1891" x="108.85047" y="34.935257" style="fill-opacity: 0; stroke: #000000; stroke-width: 0.8"/>
     <use xlink:href="#m2300ba1891" x="121.769257" y="29.71898" style="fill-opacity: 0; stroke: #000000; stroke-width: 0.8"/>
     <use xlink:href="#m2300ba1891" x="134.688044" y="25.846323" style="fill-opacity: 0; stroke: #000000; stroke-width: 0.8"/>
     <use xlink:href="#m2300ba1891" x="147.606832" y="22.930263" style="fill-opacity: 0; stroke: #000000; stroke-width: 0.8"/>
    </g>
   </g>
   <g id="line2d_42">
    <path d="M 31.337746 114.692283 
L 32.629625 114.689322 
L 33.921503 114.644248 
L 35.213382 114.471316 
L 36.505261 114.091323 
L 37.797139 113.458149 
L 39.089018 112.557541 
L 40.380897 111.397924 
L 41.672776 110.001451 
L 42.964654 108.397314 
L 44.256533 106.617266 
L 45.548412 104.692845 
L 46.840291 102.653779 
L 48.132169 100.527154 
L 49.424048 98.337074 
L 50.715927 96.104621 
L 52.007805 93.847973 
L 53.299684 91.582628 
L 54.591563 89.321659 
L 55.883442 87.075985 
L 57.17532 84.854632 
L 58.467199 82.664978 
L 59.759078 80.512976 
L 61.050957 78.403358 
L 62.342835 76.33981 
L 63.634714 74.32513 
L 64.926593 72.361361 
L 66.218472 70.449912 
L 67.51035 68.591658 
L 68.802229 66.787027 
L 70.094108 65.036078 
L 71.385986 63.338561 
L 72.677865 61.693976 
L 73.969744 60.101617 
L 75.261623 58.560614 
L 76.553501 57.069965 
L 77.84538 55.628564 
L 79.137259 54.23523 
L 80.429138 52.88872 
L 81.721016 51.587754 
L 83.012895 50.331024 
L 84.304774 49.117206 
L 85.596652 47.944974 
L 86.888531 46.813007 
L 88.18041 45.719992 
L 89.472289 44.664635 
L 90.764167 43.645661 
L 92.056046 42.661822 
L 93.347925 41.711893 
L 94.639804 40.794685 
L 95.931682 39.909034 
L 97.223561 39.053812 
L 98.51544 38.227924 
L 99.807319 37.430306 
L 101.099197 36.659932 
L 102.391076 35.915805 
L 103.682955 35.196965 
L 104.974833 34.502483 
L 106.266712 33.831464 
L 107.558591 33.183044 
L 108.85047 32.556391 
L 110.142348 31.950702 
L 111.434227 31.365206 
L 112.726106 30.799159 
L 114.017985 30.251846 
L 115.309863 29.722577 
L 116.601742 29.210692 
L 117.893621 28.715553 
L 119.1855 28.236548 
L 120.477378 27.773089 
L 121.769257 27.324609 
L 123.061136 26.890565 
L 124.353014 26.470434 
L 125.644893 26.063714 
L 126.936772 25.66992 
L 128.228651 25.28859 
L 129.520529 24.919278 
L 130.812408 24.561553 
L 132.104287 24.215005 
L 133.396166 23.879237 
L 134.688044 23.553868 
L 135.979923 23.238533 
L 137.271802 22.932879 
L 138.56368 22.636568 
L 139.855559 22.349275 
L 141.147438 22.070688 
L 142.439317 21.800504 
L 143.731195 21.538435 
L 145.023074 21.284204 
L 146.314953 21.037541 
L 147.606832 20.798189 
L 148.89871 20.565902 
L 150.190589 20.34044 
L 151.482468 20.121573 
L 152.774347 19.909082 
L 154.066225 19.702752 
L 155.358104 19.502381 
L 156.649983 19.307769 
L 157.941861 19.118729 
L 159.23374 18.935076 
" clip-path="url(#p52ec88fdd6)" style="fill: none; stroke-dasharray: 2.96,1.28; stroke-dashoffset: 0; stroke: #dc0000; stroke-width: 0.8"/>
    <defs>
     <path id="mb9d98997dc" d="M -1 1 
L 1 -1 
M -1 -1 
L 1 1 
" style="stroke: #dc0000; stroke-width: 0.8"/>
    </defs>
    <g clip-path="url(#p52ec88fdd6)">
     <use xlink:href="#mb9d98997dc" x="31.337746" y="114.692283" style="fill-opacity: 0; stroke: #dc0000; stroke-width: 0.8"/>
     <use xlink:href="#mb9d98997dc" x="44.256533" y="106.617266" style="fill-opacity: 0; stroke: #dc0000; stroke-width: 0.8"/>
     <use xlink:href="#mb9d98997dc" x="57.17532" y="84.854632" style="fill-opacity: 0; stroke: #dc0000; stroke-width: 0.8"/>
     <use xlink:href="#mb9d98997dc" x="70.094108" y="65.036078" style="fill-opacity: 0; stroke: #dc0000; stroke-width: 0.8"/>
     <use xlink:href="#mb9d98997dc" x="83.012895" y="50.331024" style="fill-opacity: 0; stroke: #dc0000; stroke-width: 0.8"/>
     <use xlink:href="#mb9d98997dc" x="95.931682" y="39.909034" style="fill-opacity: 0; stroke: #dc0000; stroke-width: 0.8"/>
     <use xlink:href="#mb9d98997dc" x="108.85047" y="32.556391" style="fill-opacity: 0; stroke: #dc0000; stroke-width: 0.8"/>
     <use xlink:href="#mb9d98997dc" x="121.769257" y="27.324609" style="fill-opacity: 0; stroke: #dc0000; stroke-width: 0.8"/>
     <use xlink:href="#mb9d98997dc" x="134.688044" y="23.553868" style="fill-opacity: 0; stroke: #dc0000; stroke-width: 0.8"/>
     <use xlink:href="#mb9d98997dc" x="147.606832" y="20.798189" style="fill-opacity: 0; stroke: #dc0000; stroke-width: 0.8"/>
    </g>
   </g>
   <g id="line2d_43">
    <path d="M 31.337746 114.692283 
L 32.629625 114.691849 
L 33.921503 114.682751 
L 35.213382 114.639362 
L 36.505261 114.527423 
L 37.797139 114.315983 
L 39.089018 113.982815 
L 40.380897 113.515163 
L 41.672776 112.908437 
L 42.964654 112.164323 
L 44.256533 111.288967 
L 45.548412 110.291452 
L 46.840291 109.182616 
L 48.132169 107.974168 
L 49.424048 106.678065 
L 50.715927 105.306072 
L 52.007805 103.86948 
L 53.299684 102.37892 
L 54.591563 100.844263 
L 55.883442 99.274572 
L 57.17532 97.678094 
L 58.467199 96.062274 
L 59.759078 94.433792 
L 61.050957 92.798601 
L 62.342835 91.161984 
L 63.634714 89.528599 
L 64.926593 87.902533 
L 66.218472 86.287356 
L 67.51035 84.686164 
L 68.802229 83.101629 
L 70.094108 81.53604 
L 71.385986 79.991343 
L 72.677865 78.469178 
L 73.969744 76.970908 
L 75.261623 75.497656 
L 76.553501 74.050325 
L 77.84538 72.629627 
L 79.137259 71.236107 
L 80.429138 69.870156 
L 81.721016 68.532036 
L 83.012895 67.221894 
L 84.304774 65.939772 
L 85.596652 64.685628 
L 86.888531 63.45934 
L 88.18041 62.260721 
L 89.472289 61.089526 
L 90.764167 59.945462 
L 92.056046 58.828192 
L 93.347925 57.737344 
L 94.639804 56.672517 
L 95.931682 55.633285 
L 97.223561 54.619201 
L 98.51544 53.629802 
L 99.807319 52.664614 
L 101.099197 51.72315 
L 102.391076 50.804919 
L 103.682955 49.909424 
L 104.974833 49.036166 
L 106.266712 48.184644 
L 107.558591 47.354361 
L 108.85047 46.54482 
L 110.142348 45.755527 
L 111.434227 44.985996 
L 112.726106 44.235742 
L 114.017985 43.50429 
L 115.309863 42.79117 
L 116.601742 42.09592 
L 117.893621 41.418086 
L 119.1855 40.757221 
L 120.477378 40.112889 
L 121.769257 39.484661 
L 123.061136 38.872117 
L 124.353014 38.274846 
L 125.644893 37.692448 
L 126.936772 37.124529 
L 128.228651 36.570706 
L 129.520529 36.030606 
L 130.812408 35.503864 
L 132.104287 34.990123 
L 133.396166 34.489037 
L 134.688044 34.000269 
L 135.979923 33.523487 
L 137.271802 33.058373 
L 138.56368 32.604613 
L 139.855559 32.161903 
L 141.147438 31.729948 
L 142.439317 31.30846 
L 143.731195 30.897159 
L 145.023074 30.495772 
L 146.314953 30.104035 
L 147.606832 29.721689 
L 148.89871 29.348485 
L 150.190589 28.984179 
L 151.482468 28.628533 
L 152.774347 28.281319 
L 154.066225 27.942312 
L 155.358104 27.611294 
L 156.649983 27.288056 
L 157.941861 26.97239 
L 159.23374 26.664098 
" clip-path="url(#p52ec88fdd6)" style="fill: none; stroke-dasharray: 5.12,1.28,0.8,1.28; stroke-dashoffset: 0; stroke: #3c5488; stroke-width: 0.8"/>
    <defs>
     <path id="m914065f316" d="M -1 1 
L 1 -1 
M -1 -1 
L 1 1 
" style="stroke: #3c5488; stroke-width: 0.8"/>
    </defs>
    <g clip-path="url(#p52ec88fdd6)">
     <use xlink:href="#m914065f316" x="31.337746" y="114.692283" style="fill-opacity: 0; stroke: #3c5488; stroke-width: 0.8"/>
     <use xlink:href="#m914065f316" x="44.256533" y="111.288967" style="fill-opacity: 0; stroke: #3c5488; stroke-width: 0.8"/>
     <use xlink:href="#m914065f316" x="57.17532" y="97.678094" style="fill-opacity: 0; stroke: #3c5488; stroke-width: 0.8"/>
     <use xlink:href="#m914065f316" x="70.094108" y="81.53604" style="fill-opacity: 0; stroke: #3c5488; stroke-width: 0.8"/>
     <use xlink:href="#m914065f316" x="83.012895" y="67.221894" style="fill-opacity: 0; stroke: #3c5488; stroke-width: 0.8"/>
     <use xlink:href="#m914065f316" x="95.931682" y="55.633285" style="fill-opacity: 0; stroke: #3c5488; stroke-width: 0.8"/>
     <use xlink:href="#m914065f316" x="108.85047" y="46.54482" style="fill-opacity: 0; stroke: #3c5488; stroke-width: 0.8"/>
     <use xlink:href="#m914065f316" x="121.769257" y="39.484661" style="fill-opacity: 0; stroke: #3c5488; stroke-width: 0.8"/>
     <use xlink:href="#m914065f316" x="134.688044" y="34.000269" style="fill-opacity: 0; stroke: #3c5488; stroke-width: 0.8"/>
     <use xlink:href="#m914065f316" x="147.606832" y="29.721689" style="fill-opacity: 0; stroke: #3c5488; stroke-width: 0.8"/>
    </g>
   </g>
   <g id="patch_3">
    <path d="M 30.91 114.692283 
L 30.91 11.52 
" style="fill: none; stroke: #000000; stroke-width: 0.5; stroke-linejoin: miter; stroke-linecap: square"/>
   </g>
   <g id="patch_4">
    <path d="M 159.23374 114.692283 
L 159.23374 11.52 
" style="fill: none; stroke: #000000; stroke-width: 0.5; stroke-linejoin: miter; stroke-linecap: square"/>
   </g>
   <g id="patch_5">
    <path d="M 30.91 114.692283 
L 159.23374 114.692283 
" style="fill: none; stroke: #000000; stroke-width: 0.5; stroke-linejoin: miter; stroke-linecap: square"/>
   </g>
   <g id="patch_6">
    <path d="M 30.91 11.52 
L 159.23374 11.52 
" style="fill: none; stroke: #000000; stroke-width: 0.5; stroke-linejoin: miter; stroke-linecap: square"/>
   </g>
  </g>
 </g>
 <defs>
  <clipPath id="p52ec88fdd6">
   <rect x="30.91" y="11.52" width="128.32374" height="103.172283"/>
  </clipPath>
 </defs>
</svg>
