<?xml version="1.0" encoding="utf-8" standalone="no"?>
<!DOCTYPE svg PUBLIC "-//W3C//DTD SVG 1.1//EN"
  "http://www.w3.org/Graphics/SVG/1.1/DTD/svg11.dtd">
<svg xmlns:xlink="http://www.w3.org/1999/xlink" width="170.07874pt" height="141.732283pt" viewBox="0 0 170.07874 141.732283" xmlns="http://www.w3.org/2000/svg" version="1.1">
 <metadata>
  <rdf:RDF xmlns:dc="http://purl.org/dc/elements/1.1/" xmlns:cc="http://creativecommons.org/ns#" xmlns:rdf="http://www.w3.org/1999/02/22-rdf-syntax-ns#">
   <cc:Work>
    <dc:type rdf:resource="http://purl.org/dc/dcmitype/StillImage"/>
    <dc:date>2025-01-06T16:43:59.816854</dc:date>
    <dc:format>image/svg+xml</dc:format>
    <dc:creator>
     <cc:Agent>
      <dc:title>Matplotlib v3.5.2, https://matplotlib.org/</dc:title>
     </cc:Agent>
    </dc:creator>
   </cc:Work>
  </rdf:RDF>
 </metadata>
 <defs>
  <style type="text/css">*{stroke-linejoin: round; stroke-linecap: butt}</style>
 </defs>
 <g id="figure_1">
  <g id="patch_1">
   <path d="M 0 141.732283 
L 170.07874 141.732283 
L 170.07874 0 
L 0 0 
z
" style="fill: #ffffff"/>
  </g>
  <g id="axes_1">
   <g id="patch_2">
    <path d="M 30.91 114.692283 
L 159.23374 114.692283 
L 159.23374 11.52 
L 30.91 11.52 
z
" style="fill: #ffffff"/>
   </g>
   <g id="PolyCollection_1">
    <defs>
     <path id="mce379093e4" d="M 31.337746 -27.049164 
L 31.337746 -27.040144 
L 32.629625 -27.239344 
L 33.921503 -28.605228 
L 35.213382 -31.592213 
L 36.505261 -35.912967 
L 37.797139 -41.091168 
L 39.089018 -46.706132 
L 40.380897 -52.447573 
L 41.672776 -58.106429 
L 42.964654 -63.551196 
L 44.256533 -68.705451 
L 45.548412 -73.530271 
L 46.840291 -78.011488 
L 48.132169 -82.150795 
L 49.424048 -85.959664 
L 50.715927 -89.455261 
L 52.007805 -92.657731 
L 53.299684 -95.58843 
L 54.591563 -98.268787 
L 55.883442 -100.719603 
L 57.17532 -102.960638 
L 58.467199 -105.010382 
L 59.759078 -106.885966 
L 61.050957 -108.603137 
L 62.342835 -110.176298 
L 63.634714 -111.618567 
L 64.926593 -112.941864 
L 66.218472 -114.156995 
L 67.51035 -115.273746 
L 68.802229 -116.30097 
L 70.094108 -117.246674 
L 71.385986 -118.118095 
L 72.677865 -118.92178 
L 73.969744 -119.663648 
L 75.261623 -120.349055 
L 76.553501 -120.98285 
L 77.84538 -121.569424 
L 79.137259 -122.112756 
L 80.429138 -122.616457 
L 81.721016 -123.083804 
L 83.012895 -123.517774 
L 84.304774 -123.921071 
L 85.596652 -124.29616 
L 86.888531 -124.645281 
L 88.18041 -124.970479 
L 89.472289 -125.273619 
L 90.764167 -125.556403 
L 92.056046 -125.820387 
L 93.347925 -126.066993 
L 94.639804 -126.297524 
L 95.931682 -126.513173 
L 97.223561 -126.715035 
L 98.51544 -126.904112 
L 99.807319 -127.081329 
L 101.099197 -127.247531 
L 102.391076 -127.4035 
L 103.682955 -127.549952 
L 104.974833 -127.68755 
L 106.266712 -127.816903 
L 107.558591 -127.938574 
L 108.85047 -128.053082 
L 110.142348 -128.160909 
L 111.434227 -128.262497 
L 112.726106 -128.358259 
L 114.017985 -128.448574 
L 115.309863 -128.533795 
L 116.601742 -128.61425 
L 117.893621 -128.690242 
L 119.1855 -128.762053 
L 120.477378 -128.829945 
L 121.769257 -128.89416 
L 123.061136 -128.954926 
L 124.353014 -129.012454 
L 125.644893 -129.06694 
L 126.936772 -129.118566 
L 128.228651 -129.167504 
L 129.520529 -129.213912 
L 130.812408 -129.25794 
L 132.104287 -129.299727 
L 133.396166 -129.339401 
L 134.688044 -129.377084 
L 135.979923 -129.41289 
L 137.271802 -129.446926 
L 138.56368 -129.47929 
L 139.855559 -129.510076 
L 141.147438 -129.539371 
L 142.439317 -129.567257 
L 143.731195 -129.593812 
L 145.023074 -129.619107 
L 146.314953 -129.64321 
L 147.606832 -129.666186 
L 148.89871 -129.688093 
L 150.190589 -129.708988 
L 151.482468 -129.728925 
L 152.774347 -129.747952 
L 154.066225 -129.766118 
L 155.358104 -129.783466 
L 156.649983 -129.800039 
L 157.941861 -129.815875 
L 159.23374 -129.831011 
L 159.23374 -130.200357 
L 159.23374 -130.200357 
L 157.941861 -130.199724 
L 156.649983 -130.199054 
L 155.358104 -130.198343 
L 154.066225 -130.197588 
L 152.774347 -130.196786 
L 151.482468 -130.195934 
L 150.190589 -130.195029 
L 148.89871 -130.194066 
L 147.606832 -130.193042 
L 146.314953 -130.191952 
L 145.023074 -130.190791 
L 143.731195 -130.189554 
L 142.439317 -130.188236 
L 141.147438 -130.18683 
L 139.855559 -130.185329 
L 138.56368 -130.183727 
L 137.271802 -130.182016 
L 135.979923 -130.180187 
L 134.688044 -130.178231 
L 133.396166 -130.176138 
L 132.104287 -130.173898 
L 130.812408 -130.171497 
L 129.520529 -130.168924 
L 128.228651 -130.166164 
L 126.936772 -130.163201 
L 125.644893 -130.16002 
L 124.353014 -130.1566 
L 123.061136 -130.152923 
L 121.769257 -130.148966 
L 120.477378 -130.144704 
L 119.1855 -130.140112 
L 117.893621 -130.135159 
L 116.601742 -130.129813 
L 115.309863 -130.124039 
L 114.017985 -130.117797 
L 112.726106 -130.111045 
L 111.434227 -130.103733 
L 110.142348 -130.095811 
L 108.85047 -130.087218 
L 107.558591 -130.077891 
L 106.266712 -130.067756 
L 104.974833 -130.056734 
L 103.682955 -130.044736 
L 102.391076 -130.031663 
L 101.099197 -130.017404 
L 99.807319 -130.001836 
L 98.51544 -129.984819 
L 97.223561 -129.9662 
L 95.931682 -129.945805 
L 94.639804 -129.923439 
L 93.347925 -129.898881 
L 92.056046 -129.871885 
L 90.764167 -129.842172 
L 89.472289 -129.809425 
L 88.18041 -129.773288 
L 86.888531 -129.733354 
L 85.596652 -129.689162 
L 84.304774 -129.640187 
L 83.012895 -129.58583 
L 81.721016 -129.525404 
L 80.429138 -129.458126 
L 79.137259 -129.383092 
L 77.84538 -129.299264 
L 76.553501 -129.205445 
L 75.261623 -129.100251 
L 73.969744 -128.982075 
L 72.677865 -128.849051 
L 71.385986 -128.699006 
L 70.094108 -128.529397 
L 68.802229 -128.337248 
L 67.51035 -128.119058 
L 66.218472 -127.870701 
L 64.926593 -127.587296 
L 63.634714 -127.26305 
L 62.342835 -126.891069 
L 61.050957 -126.463112 
L 59.759078 -125.9693 
L 58.467199 -125.39774 
L 57.17532 -124.734064 
L 55.883442 -123.960847 
L 54.591563 -123.056876 
L 53.299684 -121.996223 
L 52.007805 -120.747085 
L 50.715927 -119.270312 
L 49.424048 -117.517568 
L 48.132169 -115.429033 
L 46.840291 -112.930587 
L 45.548412 -109.930464 
L 44.256533 -106.315488 
L 42.964654 -101.947377 
L 41.672776 -96.66037 
L 40.380897 -90.263227 
L 39.089018 -82.552676 
L 37.797139 -73.354231 
L 36.505261 -62.62581 
L 35.213382 -50.699069 
L 33.921503 -38.78897 
L 32.629625 -29.766064 
L 31.337746 -27.049164 
z
" style="stroke: #808080; stroke-opacity: 0.6"/>
    </defs>
    <g clip-path="url(#p8f249e6915)">
     <use xlink:href="#mce379093e4" x="0" y="141.732283" style="fill: #808080; fill-opacity: 0.6; stroke: #808080; stroke-opacity: 0.6"/>
    </g>
   </g>
   <g id="PolyCollection_2">
    <defs>
     <path id="mc72f3f2527" d="M 31.337746 -27.040017 
L 31.337746 -27.040001 
L 32.629625 -27.044955 
L 33.921503 -27.116793 
L 35.213382 -27.380835 
L 36.505261 -27.940167 
L 37.797139 -28.84316 
L 39.089018 -30.092347 
L 40.380897 -31.661356 
L 41.672776 -33.508866 
L 42.964654 -35.587951 
L 44.256533 -37.85171 
L 45.548412 -40.256343 
L 46.840291 -42.762622 
L 48.132169 -45.336397 
L 49.424048 -47.948552 
L 50.715927 -50.574677 
L 52.007805 -53.194597 
L 53.299684 -55.791864 
L 54.591563 -58.353253 
L 55.883442 -60.868293 
L 57.17532 -63.328842 
L 58.467199 -65.728717 
L 59.759078 -68.063367 
L 61.050957 -70.329598 
L 62.342835 -72.52533 
L 63.634714 -74.649399 
L 64.926593 -76.701386 
L 66.218472 -78.681475 
L 67.51035 -80.590333 
L 68.802229 -82.429008 
L 70.094108 -84.198851 
L 71.385986 -85.901439 
L 72.677865 -87.538527 
L 73.969744 -89.111993 
L 75.261623 -90.623803 
L 76.553501 -92.075978 
L 77.84538 -93.47057 
L 79.137259 -94.809638 
L 80.429138 -96.095232 
L 81.721016 -97.329381 
L 83.012895 -98.51408 
L 84.304774 -99.651283 
L 85.596652 -100.742896 
L 86.888531 -101.790772 
L 88.18041 -102.796711 
L 89.472289 -103.762451 
L 90.764167 -104.689672 
L 92.056046 -105.579994 
L 93.347925 -106.434975 
L 94.639804 -107.256114 
L 95.931682 -108.044851 
L 97.223561 -108.802567 
L 98.51544 -109.530585 
L 99.807319 -110.230174 
L 101.099197 -110.902548 
L 102.391076 -111.54887 
L 103.682955 -112.170252 
L 104.974833 -112.767756 
L 106.266712 -113.342399 
L 107.558591 -113.895152 
L 108.85047 -114.426943 
L 110.142348 -114.938659 
L 111.434227 -115.431146 
L 112.726106 -115.905213 
L 114.017985 -116.361632 
L 115.309863 -116.801142 
L 116.601742 -117.224446 
L 117.893621 -117.632218 
L 119.1855 -118.0251 
L 120.477378 -118.403706 
L 121.769257 -118.768621 
L 123.061136 -119.120406 
L 124.353014 -119.459596 
L 125.644893 -119.7867 
L 126.936772 -120.102208 
L 128.228651 -120.406587 
L 129.520529 -120.70028 
L 130.812408 -120.983716 
L 132.104287 -121.257301 
L 133.396166 -121.521424 
L 134.688044 -121.776459 
L 135.979923 -122.02276 
L 137.271802 -122.260669 
L 138.56368 -122.490512 
L 139.855559 -122.7126 
L 141.147438 -122.927232 
L 142.439317 -123.134693 
L 143.731195 -123.335257 
L 145.023074 -123.529185 
L 146.314953 -123.716728 
L 147.606832 -123.898126 
L 148.89871 -124.07361 
L 150.190589 -124.243399 
L 151.482468 -124.407705 
L 152.774347 -124.566731 
L 154.066225 -124.720669 
L 155.358104 -124.869707 
L 156.649983 -125.014022 
L 157.941861 -125.153786 
L 159.23374 -125.289163 
L 159.23374 -129.169088 
L 159.23374 -129.169088 
L 157.941861 -129.131922 
L 156.649983 -129.093211 
L 155.358104 -129.052879 
L 154.066225 -129.010848 
L 152.774347 -128.967037 
L 151.482468 -128.921358 
L 150.190589 -128.87372 
L 148.89871 -128.824026 
L 147.606832 -128.772173 
L 146.314953 -128.718055 
L 145.023074 -128.661555 
L 143.731195 -128.602554 
L 142.439317 -128.540925 
L 141.147438 -128.476531 
L 139.855559 -128.409231 
L 138.56368 -128.338872 
L 137.271802 -128.265295 
L 135.979923 -128.188329 
L 134.688044 -128.107794 
L 133.396166 -128.0235 
L 132.104287 -127.935244 
L 130.812408 -127.84281 
L 129.520529 -127.745971 
L 128.228651 -127.644484 
L 126.936772 -127.538091 
L 125.644893 -127.426518 
L 124.353014 -127.309474 
L 123.061136 -127.18665 
L 121.769257 -127.057714 
L 120.477378 -126.922316 
L 119.1855 -126.780081 
L 117.893621 -126.63061 
L 116.601742 -126.473479 
L 115.309863 -126.308232 
L 114.017985 -126.134385 
L 112.726106 -125.951422 
L 111.434227 -125.758789 
L 110.142348 -125.555895 
L 108.85047 -125.342109 
L 107.558591 -125.116756 
L 106.266712 -124.879111 
L 104.974833 -124.6284 
L 103.682955 -124.363794 
L 102.391076 -124.084402 
L 101.099197 -123.789271 
L 99.807319 -123.477377 
L 98.51544 -123.147622 
L 97.223561 -122.798825 
L 95.931682 -122.429719 
L 94.639804 -122.038942 
L 93.347925 -121.625028 
L 92.056046 -121.1864 
L 90.764167 -120.721363 
L 89.472289 -120.228089 
L 88.18041 -119.704611 
L 86.888531 -119.14881 
L 85.596652 -118.558401 
L 84.304774 -117.930921 
L 83.012895 -117.263715 
L 81.721016 -116.553919 
L 80.429138 -115.798445 
L 79.137259 -114.993961 
L 77.84538 -114.136877 
L 76.553501 -113.22332 
L 75.261623 -112.249115 
L 73.969744 -111.209767 
L 72.677865 -110.100436 
L 71.385986 -108.915917 
L 70.094108 -107.65062 
L 68.802229 -106.298553 
L 67.51035 -104.8533 
L 66.218472 -103.308018 
L 64.926593 -101.655427 
L 63.634714 -99.887818 
L 62.342835 -97.997074 
L 61.050957 -95.974705 
L 59.759078 -93.811919 
L 58.467199 -91.499723 
L 57.17532 -89.029075 
L 55.883442 -86.391105 
L 54.591563 -83.577422 
L 53.299684 -80.580546 
L 52.007805 -77.394494 
L 50.715927 -74.015583 
L 49.424048 -70.44351 
L 48.132169 -66.6828 
L 46.840291 -62.744722 
L 45.548412 -58.649815 
L 44.256533 -54.43114 
L 42.964654 -50.138385 
L 41.672776 -45.842838 
L 40.380897 -41.642946 
L 39.089018 -37.669514 
L 37.797139 -34.088056 
L 36.505261 -31.092494 
L 35.213382 -28.877969 
L 33.921503 -27.57041 
L 32.629625 -27.090552 
L 31.337746 -27.040017 
z
" style="stroke: #808080; stroke-opacity: 0.5"/>
    </defs>
    <g clip-path="url(#p8f249e6915)">
     <use xlink:href="#mc72f3f2527" x="0" y="141.732283" style="fill: #808080; fill-opacity: 0.5; stroke: #808080; stroke-opacity: 0.5"/>
    </g>
   </g>
   <g id="PolyCollection_3">
    <defs>
     <path id="mb849f746e6" d="M 31.337746 -27.040168 
L 31.337746 -27.040003 
L 32.629625 -27.04529 
L 33.921503 -27.097699 
L 35.213382 -27.258307 
L 36.505261 -27.568824 
L 37.797139 -28.047364 
L 39.089018 -28.695124 
L 40.380897 -29.503058 
L 41.672776 -30.456649 
L 42.964654 -31.538971 
L 44.256533 -32.732543 
L 45.548412 -34.020409 
L 46.840291 -35.386713 
L 48.132169 -36.816976 
L 49.424048 -38.29819 
L 50.715927 -39.818806 
L 52.007805 -41.368656 
L 53.299684 -42.938854 
L 54.591563 -44.521676 
L 55.883442 -46.110445 
L 57.17532 -47.699411 
L 58.467199 -49.283653 
L 59.759078 -50.858972 
L 61.050957 -52.421808 
L 62.342835 -53.969158 
L 63.634714 -55.498509 
L 64.926593 -57.00777 
L 66.218472 -58.495222 
L 67.51035 -59.959468 
L 68.802229 -61.39939 
L 70.094108 -62.814113 
L 71.385986 -64.20297 
L 72.677865 -65.565477 
L 73.969744 -66.901306 
L 75.261623 -68.210263 
L 76.553501 -69.492273 
L 77.84538 -70.747355 
L 79.137259 -71.975616 
L 80.429138 -73.177235 
L 81.721016 -74.352452 
L 83.012895 -75.501557 
L 84.304774 -76.624884 
L 85.596652 -77.722803 
L 86.888531 -78.795713 
L 88.18041 -79.844036 
L 89.472289 -80.868215 
L 90.764167 -81.868706 
L 92.056046 -82.845976 
L 93.347925 -83.800501 
L 94.639804 -84.732761 
L 95.931682 -85.643242 
L 97.223561 -86.532426 
L 98.51544 -87.400797 
L 99.807319 -88.248837 
L 101.099197 -89.077023 
L 102.391076 -89.885828 
L 103.682955 -90.675719 
L 104.974833 -91.447156 
L 106.266712 -92.200592 
L 107.558591 -92.936474 
L 108.85047 -93.65524 
L 110.142348 -94.357318 
L 111.434227 -95.043131 
L 112.726106 -95.71309 
L 114.017985 -96.367597 
L 115.309863 -97.007048 
L 116.601742 -97.631828 
L 117.893621 -98.242311 
L 119.1855 -98.838866 
L 120.477378 -99.42185 
L 121.769257 -99.991612 
L 123.061136 -100.548492 
L 124.353014 -101.092821 
L 125.644893 -101.624924 
L 126.936772 -102.145113 
L 128.228651 -102.653695 
L 129.520529 -103.150968 
L 130.812408 -103.637223 
L 132.104287 -104.11274 
L 133.396166 -104.577795 
L 134.688044 -105.032655 
L 135.979923 -105.47758 
L 137.271802 -105.912822 
L 138.56368 -106.338626 
L 139.855559 -106.755233 
L 141.147438 -107.162874 
L 142.439317 -107.561775 
L 143.731195 -107.952157 
L 145.023074 -108.334232 
L 146.314953 -108.708208 
L 147.606832 -109.074287 
L 148.89871 -109.432666 
L 150.190589 -109.783536 
L 151.482468 -110.127082 
L 152.774347 -110.463484 
L 154.066225 -110.792919 
L 155.358104 -111.115556 
L 156.649983 -111.431562 
L 157.941861 -111.741099 
L 159.23374 -112.044322 
L 159.23374 -118.404601 
L 159.23374 -118.404601 
L 157.941861 -118.195949 
L 156.649983 -117.982522 
L 155.358104 -117.764185 
L 154.066225 -117.540796 
L 152.774347 -117.31221 
L 151.482468 -117.078278 
L 150.190589 -116.838844 
L 148.89871 -116.593746 
L 147.606832 -116.342818 
L 146.314953 -116.085887 
L 145.023074 -115.822776 
L 143.731195 -115.553298 
L 142.439317 -115.277262 
L 141.147438 -114.99447 
L 139.855559 -114.704716 
L 138.56368 -114.407786 
L 137.271802 -114.10346 
L 135.979923 -113.791508 
L 134.688044 -113.471692 
L 133.396166 -113.143767 
L 132.104287 -112.807475 
L 130.812408 -112.462552 
L 129.520529 -112.108723 
L 128.228651 -111.7457 
L 126.936772 -111.373187 
L 125.644893 -110.990877 
L 124.353014 -110.598448 
L 123.061136 -110.195568 
L 121.769257 -109.781892 
L 120.477378 -109.357059 
L 119.1855 -108.920698 
L 117.893621 -108.47242 
L 116.601742 -108.011821 
L 115.309863 -107.538482 
L 114.017985 -107.051967 
L 112.726106 -106.551822 
L 111.434227 -106.037575 
L 110.142348 -105.508735 
L 108.85047 -104.96479 
L 107.558591 -104.405209 
L 106.266712 -103.829439 
L 104.974833 -103.236903 
L 103.682955 -102.627002 
L 102.391076 -101.999111 
L 101.099197 -101.352582 
L 99.807319 -100.686738 
L 98.51544 -100.000875 
L 97.223561 -99.294262 
L 95.931682 -98.566136 
L 94.639804 -97.815704 
L 93.347925 -97.042142 
L 92.056046 -96.244592 
L 90.764167 -95.422163 
L 89.472289 -94.573929 
L 88.18041 -93.698927 
L 86.888531 -92.79616 
L 85.596652 -91.864592 
L 84.304774 -90.903151 
L 83.012895 -89.910725 
L 81.721016 -88.886167 
L 80.429138 -87.828291 
L 79.137259 -86.735876 
L 77.84538 -85.607666 
L 76.553501 -84.442373 
L 75.261623 -83.238679 
L 73.969744 -81.99524 
L 72.677865 -80.710694 
L 71.385986 -79.383666 
L 70.094108 -78.012778 
L 68.802229 -76.596658 
L 67.51035 -75.133961 
L 66.218472 -73.623379 
L 64.926593 -72.06367 
L 63.634714 -70.453685 
L 62.342835 -68.792401 
L 61.050957 -67.078968 
L 59.759078 -65.312763 
L 58.467199 -63.493456 
L 57.17532 -61.621097 
L 55.883442 -59.696216 
L 54.591563 -57.719959 
L 53.299684 -55.694244 
L 52.007805 -53.621967 
L 50.715927 -51.507252 
L 49.424048 -49.355767 
L 48.132169 -47.175113 
L 46.840291 -44.975323 
L 45.548412 -42.769463 
L 44.256533 -40.574394 
L 42.964654 -38.411692 
L 41.672776 -36.308745 
L 40.380897 -34.300005 
L 39.089018 -32.428263 
L 37.797139 -30.745596 
L 36.505261 -29.313076 
L 35.213382 -28.196951 
L 33.921503 -27.455732 
L 32.629625 -27.104994 
L 31.337746 -27.040168 
z
" style="stroke: #808080; stroke-opacity: 0.4"/>
    </defs>
    <g clip-path="url(#p8f249e6915)">
     <use xlink:href="#mb849f746e6" x="0" y="141.732283" style="fill: #808080; fill-opacity: 0.4; stroke: #808080; stroke-opacity: 0.4"/>
    </g>
   </g>
   <g id="PolyCollection_4">
    <defs>
     <path id="mcb34eda47d" d="M 31.337746 -27.040018 
L 31.337746 -27.04 
L 32.629625 -27.041115 
L 33.921503 -27.055089 
L 35.213382 -27.105369 
L 36.505261 -27.214742 
L 37.797139 -27.399561 
L 39.089018 -27.669319 
L 40.380897 -28.027903 
L 41.672776 -28.475107 
L 42.964654 -29.007928 
L 44.256533 -29.62156 
L 45.548412 -30.310131 
L 46.840291 -31.067223 
L 48.132169 -31.886222 
L 49.424048 -32.76057 
L 50.715927 -33.683917 
L 52.007805 -34.650222 
L 53.299684 -35.65381 
L 54.591563 -36.689402 
L 55.883442 -37.752121 
L 57.17532 -38.837492 
L 58.467199 -39.941424 
L 59.759078 -41.060195 
L 61.050957 -42.190429 
L 62.342835 -43.329074 
L 63.634714 -44.473377 
L 64.926593 -45.620862 
L 66.218472 -46.76931 
L 67.51035 -47.91673 
L 68.802229 -49.061348 
L 70.094108 -50.201582 
L 71.385986 -51.336028 
L 72.677865 -52.463441 
L 73.969744 -53.582723 
L 75.261623 -54.692908 
L 76.553501 -55.79315 
L 77.84538 -56.88271 
L 79.137259 -57.960949 
L 80.429138 -59.027314 
L 81.721016 -60.081335 
L 83.012895 -61.122612 
L 84.304774 -62.150812 
L 85.596652 -63.165657 
L 86.888531 -64.166927 
L 88.18041 -65.154446 
L 89.472289 -66.128082 
L 90.764167 -67.08774 
L 92.056046 -68.033362 
L 93.347925 -68.964918 
L 94.639804 -69.882407 
L 95.931682 -70.785853 
L 97.223561 -71.6753 
L 98.51544 -72.550815 
L 99.807319 -73.412478 
L 101.099197 -74.260388 
L 102.391076 -75.094655 
L 103.682955 -75.915402 
L 104.974833 -76.722762 
L 106.266712 -77.516878 
L 107.558591 -78.2979 
L 108.85047 -79.065984 
L 110.142348 -79.821293 
L 111.434227 -80.563994 
L 112.726106 -81.294259 
L 114.017985 -82.012263 
L 115.309863 -82.718182 
L 116.601742 -83.412197 
L 117.893621 -84.094487 
L 119.1855 -84.765236 
L 120.477378 -85.424626 
L 121.769257 -86.072838 
L 123.061136 -86.710057 
L 124.353014 -87.336464 
L 125.644893 -87.95224 
L 126.936772 -88.557566 
L 128.228651 -89.152621 
L 129.520529 -89.737583 
L 130.812408 -90.312627 
L 132.104287 -90.87793 
L 133.396166 -91.433662 
L 134.688044 -91.979995 
L 135.979923 -92.517098 
L 137.271802 -93.045137 
L 138.56368 -93.564276 
L 139.855559 -94.074677 
L 141.147438 -94.576499 
L 142.439317 -95.0699 
L 143.731195 -95.555035 
L 145.023074 -96.032057 
L 146.314953 -96.501113 
L 147.606832 -96.962354 
L 148.89871 -97.415922 
L 150.190589 -97.861962 
L 151.482468 -98.300612 
L 152.774347 -98.732011 
L 154.066225 -99.156293 
L 155.358104 -99.573591 
L 156.649983 -99.984036 
L 157.941861 -100.387754 
L 159.23374 -100.784873 
L 159.23374 -107.088657 
L 159.23374 -107.088657 
L 157.941861 -106.766614 
L 156.649983 -106.438728 
L 155.358104 -106.104869 
L 154.066225 -105.764902 
L 152.774347 -105.418689 
L 151.482468 -105.066091 
L 150.190589 -104.70696 
L 148.89871 -104.34115 
L 147.606832 -103.968507 
L 146.314953 -103.588875 
L 145.023074 -103.202093 
L 143.731195 -102.807996 
L 142.439317 -102.406415 
L 141.147438 -101.997176 
L 139.855559 -101.5801 
L 138.56368 -101.155005 
L 137.271802 -100.721703 
L 135.979923 -100.280001 
L 134.688044 -99.829702 
L 133.396166 -99.370602 
L 132.104287 -98.902493 
L 130.812408 -98.425161 
L 129.520529 -97.938388 
L 128.228651 -97.441948 
L 126.936772 -96.93561 
L 125.644893 -96.419139 
L 124.353014 -95.892291 
L 123.061136 -95.354818 
L 121.769257 -94.806464 
L 120.477378 -94.24697 
L 119.1855 -93.676066 
L 117.893621 -93.093479 
L 116.601742 -92.498927 
L 115.309863 -91.892125 
L 114.017985 -91.272778 
L 112.726106 -90.640584 
L 111.434227 -89.995238 
L 110.142348 -89.336425 
L 108.85047 -88.663824 
L 107.558591 -87.977109 
L 106.266712 -87.275945 
L 104.974833 -86.559995 
L 103.682955 -85.828912 
L 102.391076 -85.082345 
L 101.099197 -84.319937 
L 99.807319 -83.541328 
L 98.51544 -82.746151 
L 97.223561 -81.934038 
L 95.931682 -81.104615 
L 94.639804 -80.257507 
L 93.347925 -79.39234 
L 92.056046 -78.508736 
L 90.764167 -77.606322 
L 89.472289 -76.684726 
L 88.18041 -75.743582 
L 86.888531 -74.782529 
L 85.596652 -73.801218 
L 84.304774 -72.79931 
L 83.012895 -71.776483 
L 81.721016 -70.732435 
L 80.429138 -69.666886 
L 79.137259 -68.579585 
L 77.84538 -67.470316 
L 76.553501 -66.338905 
L 75.261623 -65.185226 
L 73.969744 -64.009211 
L 72.677865 -62.810858 
L 71.385986 -61.590246 
L 70.094108 -60.347547 
L 68.802229 -59.08304 
L 67.51035 -57.79713 
L 66.218472 -56.490371 
L 64.926593 -55.163483 
L 63.634714 -53.817387 
L 62.342835 -52.453232 
L 61.050957 -51.072433 
L 59.759078 -49.676712 
L 58.467199 -48.268148 
L 57.17532 -46.849234 
L 55.883442 -45.42294 
L 54.591563 -43.992787 
L 53.299684 -42.562937 
L 52.007805 -41.138286 
L 50.715927 -39.724578 
L 49.424048 -38.328527 
L 48.132169 -36.957959 
L 46.840291 -35.621954 
L 45.548412 -34.331 
L 44.256533 -33.097135 
L 42.964654 -31.934054 
L 41.672776 -30.857141 
L 40.380897 -29.88334 
L 39.089018 -29.030722 
L 37.797139 -28.317496 
L 36.505261 -27.759985 
L 35.213382 -27.368771 
L 33.921503 -27.141708 
L 32.629625 -27.05252 
L 31.337746 -27.040018 
z
" style="stroke: #808080; stroke-opacity: 0.3"/>
    </defs>
    <g clip-path="url(#p8f249e6915)">
     <use xlink:href="#mcb34eda47d" x="0" y="141.732283" style="fill: #808080; fill-opacity: 0.3; stroke: #808080; stroke-opacity: 0.3"/>
    </g>
   </g>
   <g id="matplotlib.axis_1">
    <g id="xtick_1">
     <g id="line2d_1">
      <defs>
       <path id="m632b466a06" d="M 0 0 
L 0 -5 
" style="stroke: #000000; stroke-width: 0.5"/>
      </defs>
      <g>
       <use xlink:href="#m632b466a06" x="30.91" y="114.692283" style="fill-opacity: 0; stroke: #000000; stroke-width: 0.5"/>
      </g>
     </g>
     <g id="text_1">
      <!-- 0 -->
      <g transform="translate(28.685625 122.418533)scale(0.08 -0.08)">
       <defs>
        <path id="ArialMT-30" d="M 266 2259 
Q 266 3072 433 3567 
Q 600 4063 929 4331 
Q 1259 4600 1759 4600 
Q 2128 4600 2406 4451 
Q 2684 4303 2865 4023 
Q 3047 3744 3150 3342 
Q 3253 2941 3253 2259 
Q 3253 1453 3087 958 
Q 2922 463 2592 192 
Q 2263 -78 1759 -78 
Q 1097 -78 719 397 
Q 266 969 266 2259 
z
M 844 2259 
Q 844 1131 1108 757 
Q 1372 384 1759 384 
Q 2147 384 2411 759 
Q 2675 1134 2675 2259 
Q 2675 3391 2411 3762 
Q 2147 4134 1753 4134 
Q 1366 4134 1134 3806 
Q 844 3388 844 2259 
z
" transform="scale(0.015625)"/>
       </defs>
       <use xlink:href="#ArialMT-30"/>
      </g>
     </g>
    </g>
    <g id="xtick_2">
     <g id="line2d_2">
      <g>
       <use xlink:href="#m632b466a06" x="73.68458" y="114.692283" style="fill-opacity: 0; stroke: #000000; stroke-width: 0.5"/>
      </g>
     </g>
     <g id="text_2">
      <!-- 1 -->
      <g transform="translate(71.460205 122.418533)scale(0.08 -0.08)">
       <defs>
        <path id="ArialMT-31" d="M 2384 0 
L 1822 0 
L 1822 3584 
Q 1619 3391 1289 3197 
Q 959 3003 697 2906 
L 697 3450 
Q 1169 3672 1522 3987 
Q 1875 4303 2022 4600 
L 2384 4600 
L 2384 0 
z
" transform="scale(0.015625)"/>
       </defs>
       <use xlink:href="#ArialMT-31"/>
      </g>
     </g>
    </g>
    <g id="xtick_3">
     <g id="line2d_3">
      <g>
       <use xlink:href="#m632b466a06" x="116.45916" y="114.692283" style="fill-opacity: 0; stroke: #000000; stroke-width: 0.5"/>
      </g>
     </g>
     <g id="text_3">
      <!-- 2 -->
      <g transform="translate(114.234785 122.418533)scale(0.08 -0.08)">
       <defs>
        <path id="ArialMT-32" d="M 3222 541 
L 3222 0 
L 194 0 
Q 188 203 259 391 
Q 375 700 629 1000 
Q 884 1300 1366 1694 
Q 2113 2306 2375 2664 
Q 2638 3022 2638 3341 
Q 2638 3675 2398 3904 
Q 2159 4134 1775 4134 
Q 1369 4134 1125 3890 
Q 881 3647 878 3216 
L 300 3275 
Q 359 3922 746 4261 
Q 1134 4600 1788 4600 
Q 2447 4600 2831 4234 
Q 3216 3869 3216 3328 
Q 3216 3053 3103 2787 
Q 2991 2522 2730 2228 
Q 2469 1934 1863 1422 
Q 1356 997 1212 845 
Q 1069 694 975 541 
L 3222 541 
z
" transform="scale(0.015625)"/>
       </defs>
       <use xlink:href="#ArialMT-32"/>
      </g>
     </g>
    </g>
    <g id="xtick_4">
     <g id="line2d_4">
      <g>
       <use xlink:href="#m632b466a06" x="159.23374" y="114.692283" style="fill-opacity: 0; stroke: #000000; stroke-width: 0.5"/>
      </g>
     </g>
     <g id="text_4">
      <!-- 3 -->
      <g transform="translate(157.009365 122.418533)scale(0.08 -0.08)">
       <defs>
        <path id="ArialMT-33" d="M 269 1209 
L 831 1284 
Q 928 806 1161 595 
Q 1394 384 1728 384 
Q 2125 384 2398 659 
Q 2672 934 2672 1341 
Q 2672 1728 2419 1979 
Q 2166 2231 1775 2231 
Q 1616 2231 1378 2169 
L 1441 2663 
Q 1497 2656 1531 2656 
Q 1891 2656 2178 2843 
Q 2466 3031 2466 3422 
Q 2466 3731 2256 3934 
Q 2047 4138 1716 4138 
Q 1388 4138 1169 3931 
Q 950 3725 888 3313 
L 325 3413 
Q 428 3978 793 4289 
Q 1159 4600 1703 4600 
Q 2078 4600 2393 4439 
Q 2709 4278 2876 4000 
Q 3044 3722 3044 3409 
Q 3044 3113 2884 2869 
Q 2725 2625 2413 2481 
Q 2819 2388 3044 2092 
Q 3269 1797 3269 1353 
Q 3269 753 2831 336 
Q 2394 -81 1725 -81 
Q 1122 -81 723 278 
Q 325 638 269 1209 
z
" transform="scale(0.015625)"/>
       </defs>
       <use xlink:href="#ArialMT-33"/>
      </g>
     </g>
    </g>
    <g id="xtick_5">
     <g id="line2d_5">
      <defs>
       <path id="m0361ff42da" d="M 0 0 
L 0 -3 
" style="stroke: #000000; stroke-width: 0.5"/>
      </defs>
      <g>
       <use xlink:href="#m0361ff42da" x="39.464916" y="114.692283" style="fill-opacity: 0; stroke: #000000; stroke-width: 0.5"/>
      </g>
     </g>
    </g>
    <g id="xtick_6">
     <g id="line2d_6">
      <g>
       <use xlink:href="#m0361ff42da" x="48.019832" y="114.692283" style="fill-opacity: 0; stroke: #000000; stroke-width: 0.5"/>
      </g>
     </g>
    </g>
    <g id="xtick_7">
     <g id="line2d_7">
      <g>
       <use xlink:href="#m0361ff42da" x="56.574748" y="114.692283" style="fill-opacity: 0; stroke: #000000; stroke-width: 0.5"/>
      </g>
     </g>
    </g>
    <g id="xtick_8">
     <g id="line2d_8">
      <g>
       <use xlink:href="#m0361ff42da" x="65.129664" y="114.692283" style="fill-opacity: 0; stroke: #000000; stroke-width: 0.5"/>
      </g>
     </g>
    </g>
    <g id="xtick_9">
     <g id="line2d_9">
      <g>
       <use xlink:href="#m0361ff42da" x="82.239496" y="114.692283" style="fill-opacity: 0; stroke: #000000; stroke-width: 0.5"/>
      </g>
     </g>
    </g>
    <g id="xtick_10">
     <g id="line2d_10">
      <g>
       <use xlink:href="#m0361ff42da" x="90.794412" y="114.692283" style="fill-opacity: 0; stroke: #000000; stroke-width: 0.5"/>
      </g>
     </g>
    </g>
    <g id="xtick_11">
     <g id="line2d_11">
      <g>
       <use xlink:href="#m0361ff42da" x="99.349328" y="114.692283" style="fill-opacity: 0; stroke: #000000; stroke-width: 0.5"/>
      </g>
     </g>
    </g>
    <g id="xtick_12">
     <g id="line2d_12">
      <g>
       <use xlink:href="#m0361ff42da" x="107.904244" y="114.692283" style="fill-opacity: 0; stroke: #000000; stroke-width: 0.5"/>
      </g>
     </g>
    </g>
    <g id="xtick_13">
     <g id="line2d_13">
      <g>
       <use xlink:href="#m0361ff42da" x="125.014076" y="114.692283" style="fill-opacity: 0; stroke: #000000; stroke-width: 0.5"/>
      </g>
     </g>
    </g>
    <g id="xtick_14">
     <g id="line2d_14">
      <g>
       <use xlink:href="#m0361ff42da" x="133.568992" y="114.692283" style="fill-opacity: 0; stroke: #000000; stroke-width: 0.5"/>
      </g>
     </g>
    </g>
    <g id="xtick_15">
     <g id="line2d_15">
      <g>
       <use xlink:href="#m0361ff42da" x="142.123908" y="114.692283" style="fill-opacity: 0; stroke: #000000; stroke-width: 0.5"/>
      </g>
     </g>
    </g>
    <g id="xtick_16">
     <g id="line2d_16">
      <g>
       <use xlink:href="#m0361ff42da" x="150.678824" y="114.692283" style="fill-opacity: 0; stroke: #000000; stroke-width: 0.5"/>
      </g>
     </g>
    </g>
    <g id="text_5">
     <!-- PGA [g] -->
     <g transform="translate(81.286245 131.832283)scale(0.08 -0.08)">
      <defs>
       <path id="ArialMT-50" d="M 494 0 
L 494 4581 
L 2222 4581 
Q 2678 4581 2919 4538 
Q 3256 4481 3484 4323 
Q 3713 4166 3852 3881 
Q 3991 3597 3991 3256 
Q 3991 2672 3619 2267 
Q 3247 1863 2275 1863 
L 1100 1863 
L 1100 0 
L 494 0 
z
M 1100 2403 
L 2284 2403 
Q 2872 2403 3119 2622 
Q 3366 2841 3366 3238 
Q 3366 3525 3220 3729 
Q 3075 3934 2838 4000 
Q 2684 4041 2272 4041 
L 1100 4041 
L 1100 2403 
z
" transform="scale(0.015625)"/>
       <path id="ArialMT-47" d="M 2638 1797 
L 2638 2334 
L 4578 2338 
L 4578 638 
Q 4131 281 3656 101 
Q 3181 -78 2681 -78 
Q 2006 -78 1454 211 
Q 903 500 622 1047 
Q 341 1594 341 2269 
Q 341 2938 620 3517 
Q 900 4097 1425 4378 
Q 1950 4659 2634 4659 
Q 3131 4659 3532 4498 
Q 3934 4338 4162 4050 
Q 4391 3763 4509 3300 
L 3963 3150 
Q 3859 3500 3706 3700 
Q 3553 3900 3268 4020 
Q 2984 4141 2638 4141 
Q 2222 4141 1919 4014 
Q 1616 3888 1430 3681 
Q 1244 3475 1141 3228 
Q 966 2803 966 2306 
Q 966 1694 1177 1281 
Q 1388 869 1791 669 
Q 2194 469 2647 469 
Q 3041 469 3416 620 
Q 3791 772 3984 944 
L 3984 1797 
L 2638 1797 
z
" transform="scale(0.015625)"/>
       <path id="ArialMT-41" d="M -9 0 
L 1750 4581 
L 2403 4581 
L 4278 0 
L 3588 0 
L 3053 1388 
L 1138 1388 
L 634 0 
L -9 0 
z
M 1313 1881 
L 2866 1881 
L 2388 3150 
Q 2169 3728 2063 4100 
Q 1975 3659 1816 3225 
L 1313 1881 
z
" transform="scale(0.015625)"/>
       <path id="ArialMT-20" transform="scale(0.015625)"/>
       <path id="ArialMT-5b" d="M 434 -1272 
L 434 4581 
L 1675 4581 
L 1675 4116 
L 997 4116 
L 997 -806 
L 1675 -806 
L 1675 -1272 
L 434 -1272 
z
" transform="scale(0.015625)"/>
       <path id="ArialMT-67" d="M 319 -275 
L 866 -356 
Q 900 -609 1056 -725 
Q 1266 -881 1628 -881 
Q 2019 -881 2231 -725 
Q 2444 -569 2519 -288 
Q 2563 -116 2559 434 
Q 2191 0 1641 0 
Q 956 0 581 494 
Q 206 988 206 1678 
Q 206 2153 378 2554 
Q 550 2956 876 3175 
Q 1203 3394 1644 3394 
Q 2231 3394 2613 2919 
L 2613 3319 
L 3131 3319 
L 3131 450 
Q 3131 -325 2973 -648 
Q 2816 -972 2473 -1159 
Q 2131 -1347 1631 -1347 
Q 1038 -1347 672 -1080 
Q 306 -813 319 -275 
z
M 784 1719 
Q 784 1066 1043 766 
Q 1303 466 1694 466 
Q 2081 466 2343 764 
Q 2606 1063 2606 1700 
Q 2606 2309 2336 2618 
Q 2066 2928 1684 2928 
Q 1309 2928 1046 2623 
Q 784 2319 784 1719 
z
" transform="scale(0.015625)"/>
       <path id="ArialMT-5d" d="M 1363 -1272 
L 122 -1272 
L 122 -806 
L 800 -806 
L 800 4116 
L 122 4116 
L 122 4581 
L 1363 4581 
L 1363 -1272 
z
" transform="scale(0.015625)"/>
      </defs>
      <use xlink:href="#ArialMT-50"/>
      <use xlink:href="#ArialMT-47" x="66.699219"/>
      <use xlink:href="#ArialMT-41" x="144.482422"/>
      <use xlink:href="#ArialMT-20" x="205.681641"/>
      <use xlink:href="#ArialMT-5b" x="233.464844"/>
      <use xlink:href="#ArialMT-67" x="261.248047"/>
      <use xlink:href="#ArialMT-5d" x="316.863281"/>
     </g>
    </g>
   </g>
   <g id="matplotlib.axis_2">
    <g id="ytick_1">
     <g id="line2d_17">
      <defs>
       <path id="m02e736b7e6" d="M 0 0 
L 5 0 
" style="stroke: #000000; stroke-width: 0.5"/>
      </defs>
      <g>
       <use xlink:href="#m02e736b7e6" x="30.91" y="114.692283" style="fill-opacity: 0; stroke: #000000; stroke-width: 0.5"/>
      </g>
     </g>
     <g id="text_6">
      <!-- 0.0 -->
      <g transform="translate(17.79 117.555408)scale(0.08 -0.08)">
       <defs>
        <path id="ArialMT-2e" d="M 581 0 
L 581 641 
L 1222 641 
L 1222 0 
L 581 0 
z
" transform="scale(0.015625)"/>
       </defs>
       <use xlink:href="#ArialMT-30"/>
       <use xlink:href="#ArialMT-2e" x="55.615234"/>
       <use xlink:href="#ArialMT-30" x="83.398438"/>
      </g>
     </g>
    </g>
    <g id="ytick_2">
     <g id="line2d_18">
      <g>
       <use xlink:href="#m02e736b7e6" x="30.91" y="94.057827" style="fill-opacity: 0; stroke: #000000; stroke-width: 0.5"/>
      </g>
     </g>
     <g id="text_7">
      <!-- 0.2 -->
      <g transform="translate(17.79 96.920952)scale(0.08 -0.08)">
       <use xlink:href="#ArialMT-30"/>
       <use xlink:href="#ArialMT-2e" x="55.615234"/>
       <use xlink:href="#ArialMT-32" x="83.398438"/>
      </g>
     </g>
    </g>
    <g id="ytick_3">
     <g id="line2d_19">
      <g>
       <use xlink:href="#m02e736b7e6" x="30.91" y="73.42337" style="fill-opacity: 0; stroke: #000000; stroke-width: 0.5"/>
      </g>
     </g>
     <g id="text_8">
      <!-- 0.4 -->
      <g transform="translate(17.79 76.286495)scale(0.08 -0.08)">
       <defs>
        <path id="ArialMT-34" d="M 2069 0 
L 2069 1097 
L 81 1097 
L 81 1613 
L 2172 4581 
L 2631 4581 
L 2631 1613 
L 3250 1613 
L 3250 1097 
L 2631 1097 
L 2631 0 
L 2069 0 
z
M 2069 1613 
L 2069 3678 
L 634 1613 
L 2069 1613 
z
" transform="scale(0.015625)"/>
       </defs>
       <use xlink:href="#ArialMT-30"/>
       <use xlink:href="#ArialMT-2e" x="55.615234"/>
       <use xlink:href="#ArialMT-34" x="83.398438"/>
      </g>
     </g>
    </g>
    <g id="ytick_4">
     <g id="line2d_20">
      <g>
       <use xlink:href="#m02e736b7e6" x="30.91" y="52.788913" style="fill-opacity: 0; stroke: #000000; stroke-width: 0.5"/>
      </g>
     </g>
     <g id="text_9">
      <!-- 0.6 -->
      <g transform="translate(17.79 55.652038)scale(0.08 -0.08)">
       <defs>
        <path id="ArialMT-36" d="M 3184 3459 
L 2625 3416 
Q 2550 3747 2413 3897 
Q 2184 4138 1850 4138 
Q 1581 4138 1378 3988 
Q 1113 3794 959 3422 
Q 806 3050 800 2363 
Q 1003 2672 1297 2822 
Q 1591 2972 1913 2972 
Q 2475 2972 2870 2558 
Q 3266 2144 3266 1488 
Q 3266 1056 3080 686 
Q 2894 316 2569 119 
Q 2244 -78 1831 -78 
Q 1128 -78 684 439 
Q 241 956 241 2144 
Q 241 3472 731 4075 
Q 1159 4600 1884 4600 
Q 2425 4600 2770 4297 
Q 3116 3994 3184 3459 
z
M 888 1484 
Q 888 1194 1011 928 
Q 1134 663 1356 523 
Q 1578 384 1822 384 
Q 2178 384 2434 671 
Q 2691 959 2691 1453 
Q 2691 1928 2437 2201 
Q 2184 2475 1800 2475 
Q 1419 2475 1153 2201 
Q 888 1928 888 1484 
z
" transform="scale(0.015625)"/>
       </defs>
       <use xlink:href="#ArialMT-30"/>
       <use xlink:href="#ArialMT-2e" x="55.615234"/>
       <use xlink:href="#ArialMT-36" x="83.398438"/>
      </g>
     </g>
    </g>
    <g id="ytick_5">
     <g id="line2d_21">
      <g>
       <use xlink:href="#m02e736b7e6" x="30.91" y="32.154457" style="fill-opacity: 0; stroke: #000000; stroke-width: 0.5"/>
      </g>
     </g>
     <g id="text_10">
      <!-- 0.8 -->
      <g transform="translate(17.79 35.017582)scale(0.08 -0.08)">
       <defs>
        <path id="ArialMT-38" d="M 1131 2484 
Q 781 2613 612 2850 
Q 444 3088 444 3419 
Q 444 3919 803 4259 
Q 1163 4600 1759 4600 
Q 2359 4600 2725 4251 
Q 3091 3903 3091 3403 
Q 3091 3084 2923 2848 
Q 2756 2613 2416 2484 
Q 2838 2347 3058 2040 
Q 3278 1734 3278 1309 
Q 3278 722 2862 322 
Q 2447 -78 1769 -78 
Q 1091 -78 675 323 
Q 259 725 259 1325 
Q 259 1772 486 2073 
Q 713 2375 1131 2484 
z
M 1019 3438 
Q 1019 3113 1228 2906 
Q 1438 2700 1772 2700 
Q 2097 2700 2305 2904 
Q 2513 3109 2513 3406 
Q 2513 3716 2298 3927 
Q 2084 4138 1766 4138 
Q 1444 4138 1231 3931 
Q 1019 3725 1019 3438 
z
M 838 1322 
Q 838 1081 952 856 
Q 1066 631 1291 507 
Q 1516 384 1775 384 
Q 2178 384 2440 643 
Q 2703 903 2703 1303 
Q 2703 1709 2433 1975 
Q 2163 2241 1756 2241 
Q 1359 2241 1098 1978 
Q 838 1716 838 1322 
z
" transform="scale(0.015625)"/>
       </defs>
       <use xlink:href="#ArialMT-30"/>
       <use xlink:href="#ArialMT-2e" x="55.615234"/>
       <use xlink:href="#ArialMT-38" x="83.398438"/>
      </g>
     </g>
    </g>
    <g id="ytick_6">
     <g id="line2d_22">
      <g>
       <use xlink:href="#m02e736b7e6" x="30.91" y="11.52" style="fill-opacity: 0; stroke: #000000; stroke-width: 0.5"/>
      </g>
     </g>
     <g id="text_11">
      <!-- 1.0 -->
      <g transform="translate(17.79 14.383125)scale(0.08 -0.08)">
       <use xlink:href="#ArialMT-31"/>
       <use xlink:href="#ArialMT-2e" x="55.615234"/>
       <use xlink:href="#ArialMT-30" x="83.398438"/>
      </g>
     </g>
    </g>
    <g id="ytick_7">
     <g id="line2d_23">
      <defs>
       <path id="mda716680fd" d="M 0 0 
L 3 0 
" style="stroke: #000000; stroke-width: 0.5"/>
      </defs>
      <g>
       <use xlink:href="#mda716680fd" x="30.91" y="109.533669" style="fill-opacity: 0; stroke: #000000; stroke-width: 0.5"/>
      </g>
     </g>
    </g>
    <g id="ytick_8">
     <g id="line2d_24">
      <g>
       <use xlink:href="#mda716680fd" x="30.91" y="104.375055" style="fill-opacity: 0; stroke: #000000; stroke-width: 0.5"/>
      </g>
     </g>
    </g>
    <g id="ytick_9">
     <g id="line2d_25">
      <g>
       <use xlink:href="#mda716680fd" x="30.91" y="99.216441" style="fill-opacity: 0; stroke: #000000; stroke-width: 0.5"/>
      </g>
     </g>
    </g>
    <g id="ytick_10">
     <g id="line2d_26">
      <g>
       <use xlink:href="#mda716680fd" x="30.91" y="88.899213" style="fill-opacity: 0; stroke: #000000; stroke-width: 0.5"/>
      </g>
     </g>
    </g>
    <g id="ytick_11">
     <g id="line2d_27">
      <g>
       <use xlink:href="#mda716680fd" x="30.91" y="83.740598" style="fill-opacity: 0; stroke: #000000; stroke-width: 0.5"/>
      </g>
     </g>
    </g>
    <g id="ytick_12">
     <g id="line2d_28">
      <g>
       <use xlink:href="#mda716680fd" x="30.91" y="78.581984" style="fill-opacity: 0; stroke: #000000; stroke-width: 0.5"/>
      </g>
     </g>
    </g>
    <g id="ytick_13">
     <g id="line2d_29">
      <g>
       <use xlink:href="#mda716680fd" x="30.91" y="68.264756" style="fill-opacity: 0; stroke: #000000; stroke-width: 0.5"/>
      </g>
     </g>
    </g>
    <g id="ytick_14">
     <g id="line2d_30">
      <g>
       <use xlink:href="#mda716680fd" x="30.91" y="63.106142" style="fill-opacity: 0; stroke: #000000; stroke-width: 0.5"/>
      </g>
     </g>
    </g>
    <g id="ytick_15">
     <g id="line2d_31">
      <g>
       <use xlink:href="#mda716680fd" x="30.91" y="57.947528" style="fill-opacity: 0; stroke: #000000; stroke-width: 0.5"/>
      </g>
     </g>
    </g>
    <g id="ytick_16">
     <g id="line2d_32">
      <g>
       <use xlink:href="#mda716680fd" x="30.91" y="47.630299" style="fill-opacity: 0; stroke: #000000; stroke-width: 0.5"/>
      </g>
     </g>
    </g>
    <g id="ytick_17">
     <g id="line2d_33">
      <g>
       <use xlink:href="#mda716680fd" x="30.91" y="42.471685" style="fill-opacity: 0; stroke: #000000; stroke-width: 0.5"/>
      </g>
     </g>
    </g>
    <g id="ytick_18">
     <g id="line2d_34">
      <g>
       <use xlink:href="#mda716680fd" x="30.91" y="37.313071" style="fill-opacity: 0; stroke: #000000; stroke-width: 0.5"/>
      </g>
     </g>
    </g>
    <g id="ytick_19">
     <g id="line2d_35">
      <g>
       <use xlink:href="#mda716680fd" x="30.91" y="26.995843" style="fill-opacity: 0; stroke: #000000; stroke-width: 0.5"/>
      </g>
     </g>
    </g>
    <g id="ytick_20">
     <g id="line2d_36">
      <g>
       <use xlink:href="#mda716680fd" x="30.91" y="21.837228" style="fill-opacity: 0; stroke: #000000; stroke-width: 0.5"/>
      </g>
     </g>
    </g>
    <g id="ytick_21">
     <g id="line2d_37">
      <g>
       <use xlink:href="#mda716680fd" x="30.91" y="16.678614" style="fill-opacity: 0; stroke: #000000; stroke-width: 0.5"/>
      </g>
     </g>
    </g>
    <g id="text_12">
     <!-- P(D&gt;C|IM) -->
     <g transform="translate(14.10625 82.034267)rotate(-90)scale(0.08 -0.08)">
      <defs>
       <path id="ArialMT-28" d="M 1497 -1347 
Q 1031 -759 709 28 
Q 388 816 388 1659 
Q 388 2403 628 3084 
Q 909 3875 1497 4659 
L 1900 4659 
Q 1522 4009 1400 3731 
Q 1209 3300 1100 2831 
Q 966 2247 966 1656 
Q 966 153 1900 -1347 
L 1497 -1347 
z
" transform="scale(0.015625)"/>
       <path id="ArialMT-44" d="M 494 0 
L 494 4581 
L 2072 4581 
Q 2606 4581 2888 4516 
Q 3281 4425 3559 4188 
Q 3922 3881 4101 3404 
Q 4281 2928 4281 2316 
Q 4281 1794 4159 1391 
Q 4038 988 3847 723 
Q 3656 459 3429 307 
Q 3203 156 2883 78 
Q 2563 0 2147 0 
L 494 0 
z
M 1100 541 
L 2078 541 
Q 2531 541 2789 625 
Q 3047 709 3200 863 
Q 3416 1078 3536 1442 
Q 3656 1806 3656 2325 
Q 3656 3044 3420 3430 
Q 3184 3816 2847 3947 
Q 2603 4041 2063 4041 
L 1100 4041 
L 1100 541 
z
" transform="scale(0.015625)"/>
       <path id="ArialMT-3e" d="M 3384 2003 
L 350 706 
L 350 1266 
L 2753 2263 
L 350 3250 
L 350 3809 
L 3384 2528 
L 3384 2003 
z
" transform="scale(0.015625)"/>
       <path id="ArialMT-43" d="M 3763 1606 
L 4369 1453 
Q 4178 706 3683 314 
Q 3188 -78 2472 -78 
Q 1731 -78 1267 223 
Q 803 525 561 1097 
Q 319 1669 319 2325 
Q 319 3041 592 3573 
Q 866 4106 1370 4382 
Q 1875 4659 2481 4659 
Q 3169 4659 3637 4309 
Q 4106 3959 4291 3325 
L 3694 3184 
Q 3534 3684 3231 3912 
Q 2928 4141 2469 4141 
Q 1941 4141 1586 3887 
Q 1231 3634 1087 3207 
Q 944 2781 944 2328 
Q 944 1744 1114 1308 
Q 1284 872 1643 656 
Q 2003 441 2422 441 
Q 2931 441 3284 734 
Q 3638 1028 3763 1606 
z
" transform="scale(0.015625)"/>
       <path id="ArialMT-7c" d="M 588 -1347 
L 588 4659 
L 1078 4659 
L 1078 -1347 
L 588 -1347 
z
" transform="scale(0.015625)"/>
       <path id="ArialMT-49" d="M 597 0 
L 597 4581 
L 1203 4581 
L 1203 0 
L 597 0 
z
" transform="scale(0.015625)"/>
       <path id="ArialMT-4d" d="M 475 0 
L 475 4581 
L 1388 4581 
L 2472 1338 
Q 2622 884 2691 659 
Q 2769 909 2934 1394 
L 4031 4581 
L 4847 4581 
L 4847 0 
L 4263 0 
L 4263 3834 
L 2931 0 
L 2384 0 
L 1059 3900 
L 1059 0 
L 475 0 
z
" transform="scale(0.015625)"/>
       <path id="ArialMT-29" d="M 791 -1347 
L 388 -1347 
Q 1322 153 1322 1656 
Q 1322 2244 1188 2822 
Q 1081 3291 891 3722 
Q 769 4003 388 4659 
L 791 4659 
Q 1378 3875 1659 3084 
Q 1900 2403 1900 1659 
Q 1900 816 1576 28 
Q 1253 -759 791 -1347 
z
" transform="scale(0.015625)"/>
      </defs>
      <use xlink:href="#ArialMT-50"/>
      <use xlink:href="#ArialMT-28" x="66.699219"/>
      <use xlink:href="#ArialMT-44" x="100"/>
      <use xlink:href="#ArialMT-3e" x="172.216797"/>
      <use xlink:href="#ArialMT-43" x="230.615234"/>
      <use xlink:href="#ArialMT-7c" x="302.832031"/>
      <use xlink:href="#ArialMT-49" x="328.808594"/>
      <use xlink:href="#ArialMT-4d" x="356.591797"/>
      <use xlink:href="#ArialMT-29" x="439.892578"/>
     </g>
    </g>
   </g>
   <g id="line2d_38">
    <path d="M 31.337746 114.689593 
L 32.629625 113.669513 
L 33.921503 109.465514 
L 35.213382 102.784046 
L 36.505261 94.99134 
L 37.797139 87.018059 
L 39.089018 79.373533 
L 40.380897 72.298907 
L 41.672776 65.882907 
L 42.964654 60.132698 
L 44.256533 55.014482 
L 45.548412 50.476098 
L 46.840291 46.459285 
L 48.132169 42.906128 
L 49.424048 39.762236 
L 50.715927 36.978121 
L 52.007805 34.509597 
L 53.299684 32.317666 
L 54.591563 30.368156 
L 55.883442 28.631245 
L 57.17532 27.080979 
L 58.467199 25.694785 
L 59.759078 24.453045 
L 61.050957 23.338695 
L 62.342835 22.336883 
L 63.634714 21.434664 
L 64.926593 20.620744 
L 66.218472 19.885252 
L 67.51035 19.219543 
L 68.802229 18.61604 
L 70.094108 18.068083 
L 71.385986 17.569812 
L 72.677865 17.11606 
L 73.969744 16.702264 
L 75.261623 16.324386 
L 76.553501 15.978848 
L 77.84538 15.662471 
L 79.137259 15.372431 
L 80.429138 15.106209 
L 81.721016 14.86156 
L 83.012895 14.636476 
L 84.304774 14.429161 
L 85.596652 14.238004 
L 86.888531 14.061558 
L 88.18041 13.898525 
L 89.472289 13.747734 
L 90.764167 13.608129 
L 92.056046 13.478759 
L 93.347925 13.358763 
L 94.639804 13.24736 
L 95.931682 13.143846 
L 97.223561 13.04758 
L 98.51544 12.957979 
L 99.807319 12.874515 
L 101.099197 12.796706 
L 102.391076 12.724113 
L 103.682955 12.656334 
L 104.974833 12.593005 
L 106.266712 12.533791 
L 107.558591 12.478385 
L 108.85047 12.426507 
L 110.142348 12.3779 
L 111.434227 12.332328 
L 112.726106 12.289574 
L 114.017985 12.249438 
L 115.309863 12.211738 
L 116.601742 12.176304 
L 117.893621 12.142981 
L 119.1855 12.111624 
L 120.477378 12.082101 
L 121.769257 12.05429 
L 123.061136 12.028077 
L 124.353014 12.003358 
L 125.644893 11.980034 
L 126.936772 11.958017 
L 128.228651 11.937222 
L 129.520529 11.917572 
L 130.812408 11.898996 
L 132.104287 11.881426 
L 133.396166 11.864799 
L 134.688044 11.849059 
L 135.979923 11.834152 
L 137.271802 11.820026 
L 138.56368 11.806636 
L 139.855559 11.793938 
L 141.147438 11.781891 
L 142.439317 11.770457 
L 143.731195 11.7596 
L 145.023074 11.749288 
L 146.314953 11.739489 
L 147.606832 11.730174 
L 148.89871 11.721315 
L 150.190589 11.712889 
L 151.482468 11.704869 
L 152.774347 11.697235 
L 154.066225 11.689965 
L 155.358104 11.683039 
L 156.649983 11.676439 
L 157.941861 11.670147 
L 159.23374 11.664147 
" clip-path="url(#p8f249e6915)" style="fill: none; stroke: #000000; stroke-linecap: square"/>
    <defs>
     <path id="m1451fa9f57" d="M 0 1 
C 0.265203 1 0.51958 0.894634 0.707107 0.707107 
C 0.894634 0.51958 1 0.265203 1 0 
C 1 -0.265203 0.894634 -0.51958 0.707107 -0.707107 
C 0.51958 -0.894634 0.265203 -1 0 -1 
C -0.265203 -1 -0.51958 -0.894634 -0.707107 -0.707107 
C -0.894634 -0.51958 -1 -0.265203 -1 0 
C -1 0.265203 -0.894634 0.51958 -0.707107 0.707107 
C -0.51958 0.894634 -0.265203 1 0 1 
z
" style="stroke: #000000; stroke-width: 0.8"/>
    </defs>
    <g clip-path="url(#p8f249e6915)">
     <use xlink:href="#m1451fa9f57" x="31.337746" y="114.689593" style="fill-opacity: 0; stroke: #000000; stroke-width: 0.8"/>
     <use xlink:href="#m1451fa9f57" x="44.256533" y="55.014482" style="fill-opacity: 0; stroke: #000000; stroke-width: 0.8"/>
     <use xlink:href="#m1451fa9f57" x="57.17532" y="27.080979" style="fill-opacity: 0; stroke: #000000; stroke-width: 0.8"/>
     <use xlink:href="#m1451fa9f57" x="70.094108" y="18.068083" style="fill-opacity: 0; stroke: #000000; stroke-width: 0.8"/>
     <use xlink:href="#m1451fa9f57" x="83.012895" y="14.636476" style="fill-opacity: 0; stroke: #000000; stroke-width: 0.8"/>
     <use xlink:href="#m1451fa9f57" x="95.931682" y="13.143846" style="fill-opacity: 0; stroke: #000000; stroke-width: 0.8"/>
     <use xlink:href="#m1451fa9f57" x="108.85047" y="12.426507" style="fill-opacity: 0; stroke: #000000; stroke-width: 0.8"/>
     <use xlink:href="#m1451fa9f57" x="121.769257" y="12.05429" style="fill-opacity: 0; stroke: #000000; stroke-width: 0.8"/>
     <use xlink:href="#m1451fa9f57" x="134.688044" y="11.849059" style="fill-opacity: 0; stroke: #000000; stroke-width: 0.8"/>
     <use xlink:href="#m1451fa9f57" x="147.606832" y="11.730174" style="fill-opacity: 0; stroke: #000000; stroke-width: 0.8"/>
    </g>
   </g>
   <g id="line2d_39">
    <path d="M 31.337746 114.691623 
L 32.629625 114.099792 
L 33.921503 110.888063 
L 35.213382 105.005341 
L 36.505261 97.583007 
L 37.797139 89.620384 
L 39.089018 81.754775 
L 40.380897 74.335225 
L 41.672776 67.524918 
L 42.964654 61.377319 
L 44.256533 55.885012 
L 45.548412 51.009201 
L 46.840291 46.696912 
L 48.132169 42.890741 
L 49.424048 39.534142 
L 50.715927 36.57413 
L 52.007805 33.962478 
L 53.299684 31.65607 
L 54.591563 29.6168 
L 55.883442 27.811235 
L 57.17532 26.210181 
L 58.467199 24.788214 
L 59.759078 23.523231 
L 61.050957 22.396026 
L 62.342835 21.389913 
L 63.634714 20.490385 
L 64.926593 19.684821 
L 66.218472 18.96223 
L 67.51035 18.313027 
L 68.802229 17.72884 
L 70.094108 17.20235 
L 71.385986 16.727143 
L 72.677865 16.297595 
L 73.969744 15.908761 
L 75.261623 15.556292 
L 76.553501 15.23635 
L 77.84538 14.945549 
L 79.137259 14.680893 
L 80.429138 14.439728 
L 81.721016 14.219701 
L 83.012895 14.018719 
L 84.304774 13.834919 
L 85.596652 13.666644 
L 86.888531 13.512413 
L 88.18041 13.3709 
L 89.472289 13.240922 
L 90.764167 13.121417 
L 92.056046 13.011431 
L 93.347925 12.910109 
L 94.639804 12.816679 
L 95.931682 12.730448 
L 97.223561 12.650789 
L 98.51544 12.577137 
L 99.807319 12.50898 
L 101.099197 12.445857 
L 102.391076 12.387346 
L 103.682955 12.333068 
L 104.974833 12.282678 
L 106.266712 12.235861 
L 107.558591 12.192332 
L 108.85047 12.151829 
L 110.142348 12.114117 
L 111.434227 12.078978 
L 112.726106 12.046214 
L 114.017985 12.015644 
L 115.309863 11.987103 
L 116.601742 11.960439 
L 117.893621 11.935512 
L 119.1855 11.912196 
L 120.477378 11.890374 
L 121.769257 11.869937 
L 123.061136 11.850786 
L 124.353014 11.83283 
L 125.644893 11.815986 
L 126.936772 11.800176 
L 128.228651 11.785329 
L 129.520529 11.771378 
L 130.812408 11.758262 
L 132.104287 11.745927 
L 133.396166 11.734318 
L 134.688044 11.723389 
L 135.979923 11.713094 
L 137.271802 11.703392 
L 138.56368 11.694245 
L 139.855559 11.685616 
L 141.147438 11.677474 
L 142.439317 11.669787 
L 143.731195 11.662527 
L 145.023074 11.655666 
L 146.314953 11.649181 
L 147.606832 11.643048 
L 148.89871 11.637246 
L 150.190589 11.631755 
L 151.482468 11.626556 
L 152.774347 11.621631 
L 154.066225 11.616965 
L 155.358104 11.612542 
L 156.649983 11.608348 
L 157.941861 11.60437 
L 159.23374 11.600595 
" clip-path="url(#p8f249e6915)" style="fill: none; stroke-dasharray: 2.96,1.28; stroke-dashoffset: 0; stroke: #dc0000; stroke-width: 0.8"/>
    <defs>
     <path id="m934eb41955" d="M 0 1 
C 0.265203 1 0.51958 0.894634 0.707107 0.707107 
C 0.894634 0.51958 1 0.265203 1 0 
C 1 -0.265203 0.894634 -0.51958 0.707107 -0.707107 
C 0.51958 -0.894634 0.265203 -1 0 -1 
C -0.265203 -1 -0.51958 -0.894634 -0.707107 -0.707107 
C -0.894634 -0.51958 -1 -0.265203 -1 0 
C -1 0.265203 -0.894634 0.51958 -0.707107 0.707107 
C -0.51958 0.894634 -0.265203 1 0 1 
z
" style="stroke: #dc0000; stroke-width: 0.8"/>
    </defs>
    <g clip-path="url(#p8f249e6915)">
     <use xlink:href="#m934eb41955" x="31.337746" y="114.691623" style="fill-opacity: 0; stroke: #dc0000; stroke-width: 0.8"/>
     <use xlink:href="#m934eb41955" x="44.256533" y="55.885012" style="fill-opacity: 0; stroke: #dc0000; stroke-width: 0.8"/>
     <use xlink:href="#m934eb41955" x="57.17532" y="26.210181" style="fill-opacity: 0; stroke: #dc0000; stroke-width: 0.8"/>
     <use xlink:href="#m934eb41955" x="70.094108" y="17.20235" style="fill-opacity: 0; stroke: #dc0000; stroke-width: 0.8"/>
     <use xlink:href="#m934eb41955" x="83.012895" y="14.018719" style="fill-opacity: 0; stroke: #dc0000; stroke-width: 0.8"/>
     <use xlink:href="#m934eb41955" x="95.931682" y="12.730448" style="fill-opacity: 0; stroke: #dc0000; stroke-width: 0.8"/>
     <use xlink:href="#m934eb41955" x="108.85047" y="12.151829" style="fill-opacity: 0; stroke: #dc0000; stroke-width: 0.8"/>
     <use xlink:href="#m934eb41955" x="121.769257" y="11.869937" style="fill-opacity: 0; stroke: #dc0000; stroke-width: 0.8"/>
     <use xlink:href="#m934eb41955" x="134.688044" y="11.723389" style="fill-opacity: 0; stroke: #dc0000; stroke-width: 0.8"/>
     <use xlink:href="#m934eb41955" x="147.606832" y="11.643048" style="fill-opacity: 0; stroke: #dc0000; stroke-width: 0.8"/>
    </g>
   </g>
   <g id="line2d_40">
    <path d="M 31.337746 114.691401 
L 32.629625 114.156651 
L 33.921503 111.472174 
L 35.213382 106.6299 
L 36.505261 100.467878 
L 37.797139 93.738102 
L 39.089018 86.943893 
L 40.380897 80.383304 
L 41.672776 74.215748 
L 42.964654 68.51388 
L 44.256533 63.298424 
L 45.548412 58.560291 
L 46.840291 54.27425 
L 48.132169 50.40722 
L 49.424048 46.923212 
L 50.715927 43.786196 
L 52.007805 40.961693 
L 53.299684 38.417591 
L 54.591563 36.124493 
L 55.883442 34.05579 
L 57.17532 32.187582 
L 58.467199 30.498505 
L 59.759078 28.969526 
L 61.050957 27.583727 
L 62.342835 26.326081 
L 63.634714 25.183255 
L 64.926593 24.143414 
L 66.218472 23.196053 
L 67.51035 22.331839 
L 68.802229 21.542477 
L 70.094108 20.820585 
L 71.385986 20.159589 
L 72.677865 19.553625 
L 73.969744 18.997459 
L 75.261623 18.486412 
L 76.553501 18.016296 
L 77.84538 17.583358 
L 79.137259 17.184232 
L 80.429138 16.815893 
L 81.721016 16.475618 
L 83.012895 16.160956 
L 84.304774 15.869698 
L 85.596652 15.599847 
L 86.888531 15.349599 
L 88.18041 15.11732 
L 89.472289 14.901532 
L 90.764167 14.70089 
L 92.056046 14.514176 
L 93.347925 14.340282 
L 94.639804 14.178196 
L 95.931682 14.027001 
L 97.223561 13.885856 
L 98.51544 13.753997 
L 99.807319 13.630721 
L 101.099197 13.51539 
L 102.391076 13.407417 
L 103.682955 13.306262 
L 104.974833 13.211434 
L 106.266712 13.122478 
L 107.558591 13.038978 
L 108.85047 12.96055 
L 110.142348 12.886843 
L 111.434227 12.81753 
L 112.726106 12.752312 
L 114.017985 12.690911 
L 115.309863 12.633073 
L 116.601742 12.57856 
L 117.893621 12.527154 
L 119.1855 12.478652 
L 120.477378 12.432867 
L 121.769257 12.389624 
L 123.061136 12.348763 
L 124.353014 12.310133 
L 125.644893 12.273595 
L 126.936772 12.23902 
L 128.228651 12.206287 
L 129.520529 12.175284 
L 130.812408 12.145906 
L 132.104287 12.118057 
L 133.396166 12.091646 
L 134.688044 12.066587 
L 135.979923 12.042802 
L 137.271802 12.020217 
L 138.56368 11.998763 
L 139.855559 11.978375 
L 141.147438 11.958993 
L 142.439317 11.94056 
L 143.731195 11.923023 
L 145.023074 11.906333 
L 146.314953 11.890443 
L 147.606832 11.875309 
L 148.89871 11.86089 
L 150.190589 11.847149 
L 151.482468 11.834047 
L 152.774347 11.821553 
L 154.066225 11.809633 
L 155.358104 11.798257 
L 156.649983 11.787398 
L 157.941861 11.777028 
L 159.23374 11.767123 
" clip-path="url(#p8f249e6915)" style="fill: none; stroke-dasharray: 5.12,1.28,0.8,1.28; stroke-dashoffset: 0; stroke: #3c5488; stroke-width: 0.8"/>
    <defs>
     <path id="m3d23d004ea" d="M 0 1 
C 0.265203 1 0.51958 0.894634 0.707107 0.707107 
C 0.894634 0.51958 1 0.265203 1 0 
C 1 -0.265203 0.894634 -0.51958 0.707107 -0.707107 
C 0.51958 -0.894634 0.265203 -1 0 -1 
C -0.265203 -1 -0.51958 -0.894634 -0.707107 -0.707107 
C -0.894634 -0.51958 -1 -0.265203 -1 0 
C -1 0.265203 -0.894634 0.51958 -0.707107 0.707107 
C -0.51958 0.894634 -0.265203 1 0 1 
z
" style="stroke: #3c5488; stroke-width: 0.8"/>
    </defs>
    <g clip-path="url(#p8f249e6915)">
     <use xlink:href="#m3d23d004ea" x="31.337746" y="114.691401" style="fill-opacity: 0; stroke: #3c5488; stroke-width: 0.8"/>
     <use xlink:href="#m3d23d004ea" x="44.256533" y="63.298424" style="fill-opacity: 0; stroke: #3c5488; stroke-width: 0.8"/>
     <use xlink:href="#m3d23d004ea" x="57.17532" y="32.187582" style="fill-opacity: 0; stroke: #3c5488; stroke-width: 0.8"/>
     <use xlink:href="#m3d23d004ea" x="70.094108" y="20.820585" style="fill-opacity: 0; stroke: #3c5488; stroke-width: 0.8"/>
     <use xlink:href="#m3d23d004ea" x="83.012895" y="16.160956" style="fill-opacity: 0; stroke: #3c5488; stroke-width: 0.8"/>
     <use xlink:href="#m3d23d004ea" x="95.931682" y="14.027001" style="fill-opacity: 0; stroke: #3c5488; stroke-width: 0.8"/>
     <use xlink:href="#m3d23d004ea" x="108.85047" y="12.96055" style="fill-opacity: 0; stroke: #3c5488; stroke-width: 0.8"/>
     <use xlink:href="#m3d23d004ea" x="121.769257" y="12.389624" style="fill-opacity: 0; stroke: #3c5488; stroke-width: 0.8"/>
     <use xlink:href="#m3d23d004ea" x="134.688044" y="12.066587" style="fill-opacity: 0; stroke: #3c5488; stroke-width: 0.8"/>
     <use xlink:href="#m3d23d004ea" x="147.606832" y="11.875309" style="fill-opacity: 0; stroke: #3c5488; stroke-width: 0.8"/>
    </g>
   </g>
   <g id="line2d_41">
    <path d="M 31.337746 114.69227 
L 32.629625 114.661962 
L 33.921503 114.381131 
L 35.213382 113.602586 
L 36.505261 112.242807 
L 37.797139 110.338676 
L 39.089018 107.980679 
L 40.380897 105.272851 
L 41.672776 102.313634 
L 42.964654 99.188345 
L 44.256533 95.967383 
L 45.548412 92.707006 
L 46.840291 89.4511 
L 48.132169 86.233184 
L 49.424048 83.078308 
L 50.715927 80.004727 
L 52.007805 77.025304 
L 53.299684 74.14867 
L 54.591563 71.380156 
L 55.883442 68.722548 
L 57.17532 66.176684 
L 58.467199 63.741926 
L 59.759078 61.416536 
L 61.050957 59.19797 
L 62.342835 57.083105 
L 63.634714 55.068423 
L 64.926593 53.150147 
L 66.218472 51.324352 
L 67.51035 49.587045 
L 68.802229 47.934232 
L 70.094108 46.36196 
L 71.385986 44.866357 
L 72.677865 43.443658 
L 73.969744 42.090218 
L 75.261623 40.802529 
L 76.553501 39.577224 
L 77.84538 38.411085 
L 79.137259 37.30104 
L 80.429138 36.244165 
L 81.721016 35.237681 
L 83.012895 34.27895 
L 84.304774 33.365471 
L 85.596652 32.494874 
L 86.888531 31.664916 
L 88.18041 30.873477 
L 89.472289 30.118551 
L 90.764167 29.398243 
L 92.056046 28.71076 
L 93.347925 28.054411 
L 94.639804 27.427597 
L 95.931682 26.828809 
L 97.223561 26.256621 
L 98.51544 25.709685 
L 99.807319 25.186731 
L 101.099197 24.686555 
L 102.391076 24.208023 
L 103.682955 23.750061 
L 104.974833 23.311656 
L 106.266712 22.891848 
L 107.558591 22.489732 
L 108.85047 22.104449 
L 110.142348 21.735191 
L 111.434227 21.381188 
L 112.726106 21.041715 
L 114.017985 20.716085 
L 115.309863 20.403647 
L 116.601742 20.103783 
L 117.893621 19.815912 
L 119.1855 19.539477 
L 120.477378 19.273956 
L 121.769257 19.018849 
L 123.061136 18.773686 
L 124.353014 18.538018 
L 125.644893 18.311419 
L 126.936772 18.093487 
L 128.228651 17.883838 
L 129.520529 17.682109 
L 130.812408 17.487951 
L 132.104287 17.301038 
L 133.396166 17.121057 
L 134.688044 16.947709 
L 135.979923 16.780712 
L 137.271802 16.619796 
L 138.56368 16.464706 
L 139.855559 16.315197 
L 141.147438 16.171037 
L 142.439317 16.032004 
L 143.731195 15.897887 
L 145.023074 15.768485 
L 146.314953 15.643606 
L 147.606832 15.523068 
L 148.89871 15.406694 
L 150.190589 15.29432 
L 151.482468 15.185786 
L 152.774347 15.080939 
L 154.066225 14.979636 
L 155.358104 14.881737 
L 156.649983 14.78711 
L 157.941861 14.695628 
L 159.23374 14.607171 
" clip-path="url(#p8f249e6915)" style="fill: none; stroke: #000000; stroke-linecap: square"/>
    <defs>
     <path id="mfc366e8195" d="M -1 1 
L 1 -1 
M -1 -1 
L 1 1 
" style="stroke: #000000; stroke-width: 0.8"/>
    </defs>
    <g clip-path="url(#p8f249e6915)">
     <use xlink:href="#mfc366e8195" x="31.337746" y="114.69227" style="fill-opacity: 0; stroke: #000000; stroke-width: 0.8"/>
     <use xlink:href="#mfc366e8195" x="44.256533" y="95.967383" style="fill-opacity: 0; stroke: #000000; stroke-width: 0.8"/>
     <use xlink:href="#mfc366e8195" x="57.17532" y="66.176684" style="fill-opacity: 0; stroke: #000000; stroke-width: 0.8"/>
     <use xlink:href="#mfc366e8195" x="70.094108" y="46.36196" style="fill-opacity: 0; stroke: #000000; stroke-width: 0.8"/>
     <use xlink:href="#mfc366e8195" x="83.012895" y="34.27895" style="fill-opacity: 0; stroke: #000000; stroke-width: 0.8"/>
     <use xlink:href="#mfc366e8195" x="95.931682" y="26.828809" style="fill-opacity: 0; stroke: #000000; stroke-width: 0.8"/>
     <use xlink:href="#mfc366e8195" x="108.85047" y="22.104449" style="fill-opacity: 0; stroke: #000000; stroke-width: 0.8"/>
     <use xlink:href="#mfc366e8195" x="121.769257" y="19.018849" style="fill-opacity: 0; stroke: #000000; stroke-width: 0.8"/>
     <use xlink:href="#mfc366e8195" x="134.688044" y="16.947709" style="fill-opacity: 0; stroke: #000000; stroke-width: 0.8"/>
     <use xlink:href="#mfc366e8195" x="147.606832" y="15.523068" style="fill-opacity: 0; stroke: #000000; stroke-width: 0.8"/>
    </g>
   </g>
   <g id="line2d_42">
    <path d="M 31.337746 114.692282 
L 32.629625 114.681531 
L 33.921503 114.538255 
L 35.213382 114.048296 
L 36.505261 113.071661 
L 37.797139 111.574988 
L 39.089018 109.596653 
L 40.380897 107.210422 
L 41.672776 104.501417 
L 42.964654 101.552765 
L 44.256533 98.439198 
L 45.548412 95.224653 
L 46.840291 91.962036 
L 48.132169 88.694014 
L 49.424048 85.454257 
L 50.715927 82.26877 
L 52.007805 79.15718 
L 53.299684 76.133883 
L 54.591563 73.209044 
L 55.883442 70.38943 
L 57.17532 67.67912 
L 58.467199 65.08007 
L 59.759078 62.592593 
L 61.050957 60.215732 
L 62.342835 57.947572 
L 63.634714 55.785483 
L 64.926593 53.726317 
L 66.218472 51.766567 
L 67.51035 49.902489 
L 68.802229 48.130198 
L 70.094108 46.445745 
L 71.385986 44.845177 
L 72.677865 43.324579 
L 73.969744 41.880112 
L 75.261623 40.508034 
L 76.553501 39.20472 
L 77.84538 37.966675 
L 79.137259 36.79054 
L 80.429138 35.673099 
L 81.721016 34.611282 
L 83.012895 33.60216 
L 84.304774 32.642947 
L 85.596652 31.730996 
L 86.888531 30.863798 
L 88.18041 30.038972 
L 89.472289 29.254264 
L 90.764167 28.507542 
L 92.056046 27.796788 
L 93.347925 27.120097 
L 94.639804 26.475665 
L 95.931682 25.861792 
L 97.223561 25.27687 
L 98.51544 24.71938 
L 99.807319 24.18789 
L 101.099197 23.681047 
L 102.391076 23.197573 
L 103.682955 22.736261 
L 104.974833 22.295973 
L 106.266712 21.875633 
L 107.558591 21.474226 
L 108.85047 21.090793 
L 110.142348 20.724426 
L 111.434227 20.374271 
L 112.726106 20.039517 
L 114.017985 19.719401 
L 115.309863 19.413199 
L 116.601742 19.120227 
L 117.893621 18.839839 
L 119.1855 18.571424 
L 120.477378 18.314402 
L 121.769257 18.068226 
L 123.061136 17.832377 
L 124.353014 17.606364 
L 125.644893 17.389721 
L 126.936772 17.182009 
L 128.228651 16.982809 
L 129.520529 16.791726 
L 130.812408 16.608383 
L 132.104287 16.432426 
L 133.396166 16.263515 
L 134.688044 16.101331 
L 135.979923 15.945568 
L 137.271802 15.795939 
L 138.56368 15.652168 
L 139.855559 15.513995 
L 141.147438 15.381172 
L 142.439317 15.253464 
L 143.731195 15.130645 
L 145.023074 15.012505 
L 146.314953 14.898839 
L 147.606832 14.789456 
L 148.89871 14.684171 
L 150.190589 14.582811 
L 151.482468 14.485207 
L 152.774347 14.391204 
L 154.066225 14.300648 
L 155.358104 14.213397 
L 156.649983 14.129312 
L 157.941861 14.048265 
L 159.23374 13.970128 
" clip-path="url(#p8f249e6915)" style="fill: none; stroke-dasharray: 2.96,1.28; stroke-dashoffset: 0; stroke: #dc0000; stroke-width: 0.8"/>
    <defs>
     <path id="mb2dd4f105f" d="M -1 1 
L 1 -1 
M -1 -1 
L 1 1 
" style="stroke: #dc0000; stroke-width: 0.8"/>
    </defs>
    <g clip-path="url(#p8f249e6915)">
     <use xlink:href="#mb2dd4f105f" x="31.337746" y="114.692282" style="fill-opacity: 0; stroke: #dc0000; stroke-width: 0.8"/>
     <use xlink:href="#mb2dd4f105f" x="44.256533" y="98.439198" style="fill-opacity: 0; stroke: #dc0000; stroke-width: 0.8"/>
     <use xlink:href="#mb2dd4f105f" x="57.17532" y="67.67912" style="fill-opacity: 0; stroke: #dc0000; stroke-width: 0.8"/>
     <use xlink:href="#mb2dd4f105f" x="70.094108" y="46.445745" style="fill-opacity: 0; stroke: #dc0000; stroke-width: 0.8"/>
     <use xlink:href="#mb2dd4f105f" x="83.012895" y="33.60216" style="fill-opacity: 0; stroke: #dc0000; stroke-width: 0.8"/>
     <use xlink:href="#mb2dd4f105f" x="95.931682" y="25.861792" style="fill-opacity: 0; stroke: #dc0000; stroke-width: 0.8"/>
     <use xlink:href="#mb2dd4f105f" x="108.85047" y="21.090793" style="fill-opacity: 0; stroke: #dc0000; stroke-width: 0.8"/>
     <use xlink:href="#mb2dd4f105f" x="121.769257" y="18.068226" style="fill-opacity: 0; stroke: #dc0000; stroke-width: 0.8"/>
     <use xlink:href="#mb2dd4f105f" x="134.688044" y="16.101331" style="fill-opacity: 0; stroke: #dc0000; stroke-width: 0.8"/>
     <use xlink:href="#mb2dd4f105f" x="147.606832" y="14.789456" style="fill-opacity: 0; stroke: #dc0000; stroke-width: 0.8"/>
    </g>
   </g>
   <g id="line2d_43">
    <path d="M 31.337746 114.692282 
L 32.629625 114.684325 
L 33.921503 114.587124 
L 35.213382 114.263258 
L 36.505261 113.6182 
L 37.797139 112.619472 
L 39.089018 111.278752 
L 40.380897 109.632181 
L 41.672776 107.726539 
L 42.964654 105.610894 
L 44.256533 103.332039 
L 45.548412 100.93228 
L 46.840291 98.448595 
L 48.132169 95.912551 
L 49.424048 93.350627 
L 50.715927 90.784712 
L 52.007805 88.232662 
L 53.299684 85.708858 
L 54.591563 83.224722 
L 55.883442 80.78918 
L 57.17532 78.409071 
L 58.467199 76.089496 
L 59.759078 73.834119 
L 61.050957 71.645424 
L 62.342835 69.524925 
L 63.634714 67.473352 
L 64.926593 65.490796 
L 66.218472 63.576839 
L 67.51035 61.730656 
L 68.802229 59.951103 
L 70.094108 58.23679 
L 71.385986 56.586137 
L 72.677865 54.997426 
L 73.969744 53.46884 
L 75.261623 51.998499 
L 76.553501 50.58448 
L 77.84538 49.224846 
L 79.137259 47.917659 
L 80.429138 46.660998 
L 81.721016 45.452966 
L 83.012895 44.2917 
L 84.304774 43.175382 
L 85.596652 42.102238 
L 86.888531 41.070545 
L 88.18041 40.078633 
L 89.472289 39.124889 
L 90.764167 38.207751 
L 92.056046 37.325719 
L 93.347925 36.477346 
L 94.639804 35.661239 
L 95.931682 34.876064 
L 97.223561 34.120537 
L 98.51544 33.393428 
L 99.807319 32.693557 
L 101.099197 32.019794 
L 102.391076 31.371058 
L 103.682955 30.746312 
L 104.974833 30.144565 
L 106.266712 29.564868 
L 107.558591 29.006314 
L 108.85047 28.468035 
L 110.142348 27.949202 
L 111.434227 27.449019 
L 112.726106 26.96673 
L 114.017985 26.501608 
L 115.309863 26.052959 
L 116.601742 25.620122 
L 117.893621 25.202461 
L 119.1855 24.799371 
L 120.477378 24.410271 
L 121.769257 24.034608 
L 123.061136 23.671852 
L 124.353014 23.321495 
L 125.644893 22.983052 
L 126.936772 22.65606 
L 128.228651 22.340074 
L 129.520529 22.034669 
L 130.812408 21.739439 
L 132.104287 21.453996 
L 133.396166 21.177965 
L 134.688044 20.910991 
L 135.979923 20.652731 
L 137.271802 20.402859 
L 138.56368 20.161062 
L 139.855559 19.927038 
L 141.147438 19.7005 
L 142.439317 19.481173 
L 143.731195 19.268792 
L 145.023074 19.063103 
L 146.314953 18.863863 
L 147.606832 18.670839 
L 148.89871 18.483808 
L 150.190589 18.302555 
L 151.482468 18.126874 
L 152.774347 17.956568 
L 154.066225 17.791446 
L 155.358104 17.631327 
L 156.649983 17.476035 
L 157.941861 17.325403 
L 159.23374 17.179269 
" clip-path="url(#p8f249e6915)" style="fill: none; stroke-dasharray: 5.12,1.28,0.8,1.28; stroke-dashoffset: 0; stroke: #3c5488; stroke-width: 0.8"/>
    <defs>
     <path id="m198a46f869" d="M -1 1 
L 1 -1 
M -1 -1 
L 1 1 
" style="stroke: #3c5488; stroke-width: 0.8"/>
    </defs>
    <g clip-path="url(#p8f249e6915)">
     <use xlink:href="#m198a46f869" x="31.337746" y="114.692282" style="fill-opacity: 0; stroke: #3c5488; stroke-width: 0.8"/>
     <use xlink:href="#m198a46f869" x="44.256533" y="103.332039" style="fill-opacity: 0; stroke: #3c5488; stroke-width: 0.8"/>
     <use xlink:href="#m198a46f869" x="57.17532" y="78.409071" style="fill-opacity: 0; stroke: #3c5488; stroke-width: 0.8"/>
     <use xlink:href="#m198a46f869" x="70.094108" y="58.23679" style="fill-opacity: 0; stroke: #3c5488; stroke-width: 0.8"/>
     <use xlink:href="#m198a46f869" x="83.012895" y="44.2917" style="fill-opacity: 0; stroke: #3c5488; stroke-width: 0.8"/>
     <use xlink:href="#m198a46f869" x="95.931682" y="34.876064" style="fill-opacity: 0; stroke: #3c5488; stroke-width: 0.8"/>
     <use xlink:href="#m198a46f869" x="108.85047" y="28.468035" style="fill-opacity: 0; stroke: #3c5488; stroke-width: 0.8"/>
     <use xlink:href="#m198a46f869" x="121.769257" y="24.034608" style="fill-opacity: 0; stroke: #3c5488; stroke-width: 0.8"/>
     <use xlink:href="#m198a46f869" x="134.688044" y="20.910991" style="fill-opacity: 0; stroke: #3c5488; stroke-width: 0.8"/>
     <use xlink:href="#m198a46f869" x="147.606832" y="18.670839" style="fill-opacity: 0; stroke: #3c5488; stroke-width: 0.8"/>
    </g>
   </g>
   <g id="line2d_44">
    <path d="M 31.337746 114.692233 
L 32.629625 114.663049 
L 33.921503 114.476397 
L 35.213382 114.037646 
L 36.505261 113.326355 
L 37.797139 112.361257 
L 39.089018 111.17642 
L 40.380897 109.809475 
L 41.672776 108.29636 
L 42.964654 106.669246 
L 44.256533 104.95596 
L 45.548412 103.180092 
L 46.840291 101.361388 
L 48.132169 99.516227 
L 49.424048 97.658102 
L 50.715927 95.798064 
L 52.007805 93.945113 
L 53.299684 92.10653 
L 54.591563 90.288164 
L 55.883442 88.494675 
L 57.17532 86.72973 
L 58.467199 84.996177 
L 59.759078 83.296178 
L 61.050957 81.631333 
L 62.342835 80.002774 
L 63.634714 78.411246 
L 64.926593 76.857175 
L 66.218472 75.340725 
L 67.51035 73.861847 
L 68.802229 72.420315 
L 70.094108 71.015763 
L 71.385986 69.647707 
L 72.677865 68.315576 
L 73.969744 67.018724 
L 75.261623 65.756452 
L 76.553501 64.528015 
L 77.84538 63.332641 
L 79.137259 62.169534 
L 80.429138 61.037886 
L 81.721016 59.936881 
L 83.012895 58.865702 
L 84.304774 57.823534 
L 85.596652 56.809569 
L 86.888531 55.823008 
L 88.18041 54.863064 
L 89.472289 53.928962 
L 90.764167 53.019946 
L 92.056046 52.135273 
L 93.347925 51.274218 
L 94.639804 50.436074 
L 95.931682 49.620152 
L 97.223561 48.825783 
L 98.51544 48.052314 
L 99.807319 47.299113 
L 101.099197 46.565566 
L 102.391076 45.851077 
L 103.682955 45.155068 
L 104.974833 44.476979 
L 106.266712 43.816268 
L 107.558591 43.17241 
L 108.85047 42.544897 
L 110.142348 41.933236 
L 111.434227 41.336951 
L 112.726106 40.755582 
L 114.017985 40.188683 
L 115.309863 39.635823 
L 116.601742 39.096586 
L 117.893621 38.570569 
L 119.1855 38.057381 
L 120.477378 37.556647 
L 121.769257 37.068001 
L 123.061136 36.591091 
L 124.353014 36.125577 
L 125.644893 35.671129 
L 126.936772 35.227429 
L 128.228651 34.794168 
L 129.520529 34.371048 
L 130.812408 33.957781 
L 132.104287 33.554088 
L 133.396166 33.1597 
L 134.688044 32.774355 
L 135.979923 32.397801 
L 137.271802 32.029793 
L 138.56368 31.670096 
L 139.855559 31.31848 
L 141.147438 30.974725 
L 142.439317 30.638614 
L 143.731195 30.309941 
L 145.023074 29.988505 
L 146.314953 29.674111 
L 147.606832 29.366571 
L 148.89871 29.065701 
L 150.190589 28.771325 
L 151.482468 28.483272 
L 152.774347 28.201375 
L 154.066225 27.925474 
L 155.358104 27.655412 
L 156.649983 27.391037 
L 157.941861 27.132205 
L 159.23374 26.878771 
" clip-path="url(#p8f249e6915)" style="fill: none; stroke: #000000; stroke-linecap: square"/>
    <defs>
     <path id="m5ac54fd51c" d="M 0 -1 
L -1 1 
L 1 1 
z
" style="stroke: #000000; stroke-width: 0.8; stroke-linejoin: miter"/>
    </defs>
    <g clip-path="url(#p8f249e6915)">
     <use xlink:href="#m5ac54fd51c" x="31.337746" y="114.692233" style="fill-opacity: 0; stroke: #000000; stroke-width: 0.8; stroke-linejoin: miter"/>
     <use xlink:href="#m5ac54fd51c" x="44.256533" y="104.95596" style="fill-opacity: 0; stroke: #000000; stroke-width: 0.8; stroke-linejoin: miter"/>
     <use xlink:href="#m5ac54fd51c" x="57.17532" y="86.72973" style="fill-opacity: 0; stroke: #000000; stroke-width: 0.8; stroke-linejoin: miter"/>
     <use xlink:href="#m5ac54fd51c" x="70.094108" y="71.015763" style="fill-opacity: 0; stroke: #000000; stroke-width: 0.8; stroke-linejoin: miter"/>
     <use xlink:href="#m5ac54fd51c" x="83.012895" y="58.865702" style="fill-opacity: 0; stroke: #000000; stroke-width: 0.8; stroke-linejoin: miter"/>
     <use xlink:href="#m5ac54fd51c" x="95.931682" y="49.620152" style="fill-opacity: 0; stroke: #000000; stroke-width: 0.8; stroke-linejoin: miter"/>
     <use xlink:href="#m5ac54fd51c" x="108.85047" y="42.544897" style="fill-opacity: 0; stroke: #000000; stroke-width: 0.8; stroke-linejoin: miter"/>
     <use xlink:href="#m5ac54fd51c" x="121.769257" y="37.068001" style="fill-opacity: 0; stroke: #000000; stroke-width: 0.8; stroke-linejoin: miter"/>
     <use xlink:href="#m5ac54fd51c" x="134.688044" y="32.774355" style="fill-opacity: 0; stroke: #000000; stroke-width: 0.8; stroke-linejoin: miter"/>
     <use xlink:href="#m5ac54fd51c" x="147.606832" y="29.366571" style="fill-opacity: 0; stroke: #000000; stroke-width: 0.8; stroke-linejoin: miter"/>
    </g>
   </g>
   <g id="line2d_45">
    <path d="M 31.337746 114.692271 
L 32.629625 114.678283 
L 33.921503 114.565807 
L 35.213382 114.263832 
L 36.505261 113.73081 
L 37.797139 112.963196 
L 39.089018 111.978065 
L 40.380897 110.801685 
L 41.672776 109.463089 
L 42.964654 107.990732 
L 44.256533 106.410888 
L 45.548412 104.747004 
L 46.840291 103.019562 
L 48.132169 101.246199 
L 49.424048 99.441948 
L 50.715927 97.619515 
L 52.007805 95.789575 
L 53.299684 93.961036 
L 54.591563 92.14129 
L 55.883442 90.336428 
L 57.17532 88.551438 
L 58.467199 86.790365 
L 59.759078 85.056458 
L 61.050957 83.352288 
L 62.342835 81.679857 
L 63.634714 80.040683 
L 64.926593 78.435881 
L 66.218472 76.866223 
L 67.51035 75.332192 
L 68.802229 73.834036 
L 70.094108 72.371799 
L 71.385986 70.945362 
L 72.677865 69.554465 
L 73.969744 68.198737 
L 75.261623 66.877716 
L 76.553501 65.590862 
L 77.84538 64.337577 
L 79.137259 63.117217 
L 80.429138 61.929101 
L 81.721016 60.77252 
L 83.012895 59.646747 
L 84.304774 58.551041 
L 85.596652 57.484655 
L 86.888531 56.446839 
L 88.18041 55.436843 
L 89.472289 54.453923 
L 90.764167 53.49734 
L 92.056046 52.566368 
L 93.347925 51.660287 
L 94.639804 50.778394 
L 95.931682 49.919996 
L 97.223561 49.084417 
L 98.51544 48.270996 
L 99.807319 47.479086 
L 101.099197 46.708057 
L 102.391076 45.957296 
L 103.682955 45.226205 
L 104.974833 44.514204 
L 106.266712 43.820728 
L 107.558591 43.145228 
L 108.85047 42.487173 
L 110.142348 41.846045 
L 111.434227 41.221343 
L 112.726106 40.612582 
L 114.017985 40.01929 
L 115.309863 39.441011 
L 116.601742 38.877303 
L 117.893621 38.327737 
L 119.1855 37.791898 
L 120.477378 37.269385 
L 121.769257 36.759807 
L 123.061136 36.26279 
L 124.353014 35.777967 
L 125.644893 35.304986 
L 126.936772 34.843505 
L 128.228651 34.393193 
L 129.520529 33.95373 
L 130.812408 33.524806 
L 132.104287 33.10612 
L 133.396166 32.697383 
L 134.688044 32.298313 
L 135.979923 31.908638 
L 137.271802 31.528093 
L 138.56368 31.156425 
L 139.855559 30.793386 
L 141.147438 30.438736 
L 142.439317 30.092244 
L 143.731195 29.753685 
L 145.023074 29.422843 
L 146.314953 29.099506 
L 147.606832 28.78347 
L 148.89871 28.474539 
L 150.190589 28.17252 
L 151.482468 27.877229 
L 152.774347 27.588484 
L 154.066225 27.306113 
L 155.358104 27.029946 
L 156.649983 26.759819 
L 157.941861 26.495574 
L 159.23374 26.237056 
" clip-path="url(#p8f249e6915)" style="fill: none; stroke-dasharray: 2.96,1.28; stroke-dashoffset: 0; stroke: #dc0000; stroke-width: 0.8"/>
    <defs>
     <path id="m7d96596a08" d="M 0 -1 
L -1 1 
L 1 1 
z
" style="stroke: #dc0000; stroke-width: 0.8; stroke-linejoin: miter"/>
    </defs>
    <g clip-path="url(#p8f249e6915)">
     <use xlink:href="#m7d96596a08" x="31.337746" y="114.692271" style="fill-opacity: 0; stroke: #dc0000; stroke-width: 0.8; stroke-linejoin: miter"/>
     <use xlink:href="#m7d96596a08" x="44.256533" y="106.410888" style="fill-opacity: 0; stroke: #dc0000; stroke-width: 0.8; stroke-linejoin: miter"/>
     <use xlink:href="#m7d96596a08" x="57.17532" y="88.551438" style="fill-opacity: 0; stroke: #dc0000; stroke-width: 0.8; stroke-linejoin: miter"/>
     <use xlink:href="#m7d96596a08" x="70.094108" y="72.371799" style="fill-opacity: 0; stroke: #dc0000; stroke-width: 0.8; stroke-linejoin: miter"/>
     <use xlink:href="#m7d96596a08" x="83.012895" y="59.646747" style="fill-opacity: 0; stroke: #dc0000; stroke-width: 0.8; stroke-linejoin: miter"/>
     <use xlink:href="#m7d96596a08" x="95.931682" y="49.919996" style="fill-opacity: 0; stroke: #dc0000; stroke-width: 0.8; stroke-linejoin: miter"/>
     <use xlink:href="#m7d96596a08" x="108.85047" y="42.487173" style="fill-opacity: 0; stroke: #dc0000; stroke-width: 0.8; stroke-linejoin: miter"/>
     <use xlink:href="#m7d96596a08" x="121.769257" y="36.759807" style="fill-opacity: 0; stroke: #dc0000; stroke-width: 0.8; stroke-linejoin: miter"/>
     <use xlink:href="#m7d96596a08" x="134.688044" y="32.298313" style="fill-opacity: 0; stroke: #dc0000; stroke-width: 0.8; stroke-linejoin: miter"/>
     <use xlink:href="#m7d96596a08" x="147.606832" y="28.78347" style="fill-opacity: 0; stroke: #dc0000; stroke-width: 0.8; stroke-linejoin: miter"/>
    </g>
   </g>
   <g id="line2d_46">
    <path d="M 31.337746 114.692266 
L 32.629625 114.6804 
L 33.921503 114.595909 
L 35.213382 114.380665 
L 36.505261 114.009261 
L 37.797139 113.479054 
L 39.089018 112.799535 
L 40.380897 111.985763 
L 41.672776 111.054714 
L 42.964654 110.023351 
L 44.256533 108.907663 
L 45.548412 107.722232 
L 46.840291 106.480095 
L 48.132169 105.192755 
L 49.424048 103.870273 
L 50.715927 102.521392 
L 52.007805 101.153676 
L 53.299684 99.773641 
L 54.591563 98.386883 
L 55.883442 96.998195 
L 57.17532 95.611666 
L 58.467199 94.230776 
L 59.759078 92.858473 
L 61.050957 91.497249 
L 62.342835 90.149193 
L 63.634714 88.816053 
L 64.926593 87.499276 
L 66.218472 86.200048 
L 67.51035 84.919336 
L 68.802229 83.657908 
L 70.094108 82.416367 
L 71.385986 81.195172 
L 72.677865 79.994655 
L 73.969744 78.815042 
L 75.261623 77.656465 
L 76.553501 76.518976 
L 77.84538 75.402559 
L 79.137259 74.30714 
L 80.429138 73.232594 
L 81.721016 72.178754 
L 83.012895 71.145417 
L 84.304774 70.132349 
L 85.596652 69.139293 
L 86.888531 68.165968 
L 88.18041 67.212077 
L 89.472289 66.277311 
L 90.764167 65.361348 
L 92.056046 64.463857 
L 93.347925 63.584501 
L 94.639804 62.722941 
L 95.931682 61.878832 
L 97.223561 61.051829 
L 98.51544 60.241586 
L 99.807319 59.44776 
L 101.099197 58.670007 
L 102.391076 57.907988 
L 103.682955 57.161366 
L 104.974833 56.429806 
L 106.266712 55.712982 
L 107.558591 55.010567 
L 108.85047 54.322244 
L 110.142348 53.647698 
L 111.434227 52.98662 
L 112.726106 52.338708 
L 114.017985 51.703665 
L 115.309863 51.081199 
L 116.601742 50.471024 
L 117.893621 49.872862 
L 119.1855 49.286438 
L 120.477378 48.711486 
L 121.769257 48.147743 
L 123.061136 47.594955 
L 124.353014 47.05287 
L 125.644893 46.521246 
L 126.936772 45.999843 
L 128.228651 45.488429 
L 129.520529 44.986777 
L 130.812408 44.494665 
L 132.104287 44.011876 
L 133.396166 43.5382 
L 134.688044 43.07343 
L 135.979923 42.617366 
L 137.271802 42.169811 
L 138.56368 41.730575 
L 139.855559 41.29947 
L 141.147438 40.876316 
L 142.439317 40.460935 
L 143.731195 40.053154 
L 145.023074 39.652804 
L 146.314953 39.259721 
L 147.606832 38.873746 
L 148.89871 38.494721 
L 150.190589 38.122494 
L 151.482468 37.756918 
L 152.774347 37.397846 
L 154.066225 37.045137 
L 155.358104 36.698655 
L 156.649983 36.358264 
L 157.941861 36.023834 
L 159.23374 35.695237 
" clip-path="url(#p8f249e6915)" style="fill: none; stroke-dasharray: 5.12,1.28,0.8,1.28; stroke-dashoffset: 0; stroke: #3c5488; stroke-width: 0.8"/>
    <defs>
     <path id="m3feeb70fb5" d="M 0 -1 
L -1 1 
L 1 1 
z
" style="stroke: #3c5488; stroke-width: 0.8; stroke-linejoin: miter"/>
    </defs>
    <g clip-path="url(#p8f249e6915)">
     <use xlink:href="#m3feeb70fb5" x="31.337746" y="114.692266" style="fill-opacity: 0; stroke: #3c5488; stroke-width: 0.8; stroke-linejoin: miter"/>
     <use xlink:href="#m3feeb70fb5" x="44.256533" y="108.907663" style="fill-opacity: 0; stroke: #3c5488; stroke-width: 0.8; stroke-linejoin: miter"/>
     <use xlink:href="#m3feeb70fb5" x="57.17532" y="95.611666" style="fill-opacity: 0; stroke: #3c5488; stroke-width: 0.8; stroke-linejoin: miter"/>
     <use xlink:href="#m3feeb70fb5" x="70.094108" y="82.416367" style="fill-opacity: 0; stroke: #3c5488; stroke-width: 0.8; stroke-linejoin: miter"/>
     <use xlink:href="#m3feeb70fb5" x="83.012895" y="71.145417" style="fill-opacity: 0; stroke: #3c5488; stroke-width: 0.8; stroke-linejoin: miter"/>
     <use xlink:href="#m3feeb70fb5" x="95.931682" y="61.878832" style="fill-opacity: 0; stroke: #3c5488; stroke-width: 0.8; stroke-linejoin: miter"/>
     <use xlink:href="#m3feeb70fb5" x="108.85047" y="54.322244" style="fill-opacity: 0; stroke: #3c5488; stroke-width: 0.8; stroke-linejoin: miter"/>
     <use xlink:href="#m3feeb70fb5" x="121.769257" y="48.147743" style="fill-opacity: 0; stroke: #3c5488; stroke-width: 0.8; stroke-linejoin: miter"/>
     <use xlink:href="#m3feeb70fb5" x="134.688044" y="43.07343" style="fill-opacity: 0; stroke: #3c5488; stroke-width: 0.8; stroke-linejoin: miter"/>
     <use xlink:href="#m3feeb70fb5" x="147.606832" y="38.873746" style="fill-opacity: 0; stroke: #3c5488; stroke-width: 0.8; stroke-linejoin: miter"/>
    </g>
   </g>
   <g id="line2d_47">
    <path d="M 31.337746 114.692277 
L 32.629625 114.685805 
L 33.921503 114.633118 
L 35.213382 114.487292 
L 36.505261 114.221111 
L 37.797139 113.825029 
L 39.089018 113.30071 
L 40.380897 112.656089 
L 41.672776 111.902205 
L 42.964654 111.051306 
L 44.256533 110.115746 
L 45.548412 109.107376 
L 46.840291 108.037226 
L 48.132169 106.915371 
L 49.424048 105.750893 
L 50.715927 104.551905 
L 52.007805 103.325608 
L 53.299684 102.078357 
L 54.591563 100.815743 
L 55.883442 99.542664 
L 57.17532 98.263402 
L 58.467199 96.981686 
L 59.759078 95.700758 
L 61.050957 94.423428 
L 62.342835 93.152124 
L 63.634714 91.888936 
L 64.926593 90.635657 
L 66.218472 89.393819 
L 67.51035 88.164723 
L 68.802229 86.949468 
L 70.094108 85.748974 
L 71.385986 84.564004 
L 72.677865 83.395184 
L 73.969744 82.243018 
L 75.261623 81.107904 
L 76.553501 79.990149 
L 77.84538 78.889976 
L 79.137259 77.807538 
L 80.429138 76.742923 
L 81.721016 75.696168 
L 83.012895 74.66726 
L 84.304774 73.656146 
L 85.596652 72.662738 
L 86.888531 71.686914 
L 88.18041 70.728528 
L 89.472289 69.787411 
L 90.764167 68.863374 
L 92.056046 67.95621 
L 93.347925 67.065701 
L 94.639804 66.191615 
L 95.931682 65.333711 
L 97.223561 64.491742 
L 98.51544 63.665451 
L 99.807319 62.854581 
L 101.099197 62.058867 
L 102.391076 61.278046 
L 103.682955 60.51185 
L 104.974833 59.760011 
L 106.266712 59.022264 
L 107.558591 58.29834 
L 108.85047 57.587976 
L 110.142348 56.890908 
L 111.434227 56.206876 
L 112.726106 55.53562 
L 114.017985 54.876885 
L 115.309863 54.230419 
L 116.601742 53.595974 
L 117.893621 52.973304 
L 119.1855 52.362167 
L 120.477378 51.762327 
L 121.769257 51.173549 
L 123.061136 50.595604 
L 124.353014 50.028267 
L 125.644893 49.471316 
L 126.936772 48.924535 
L 128.228651 48.38771 
L 129.520529 47.860633 
L 130.812408 47.3431 
L 132.104287 46.834911 
L 133.396166 46.335868 
L 134.688044 45.845781 
L 135.979923 45.364462 
L 137.271802 44.891726 
L 138.56368 44.427394 
L 139.855559 43.971289 
L 141.147438 43.523241 
L 142.439317 43.083079 
L 143.731195 42.65064 
L 145.023074 42.225763 
L 146.314953 41.808291 
L 147.606832 41.398069 
L 148.89871 40.994947 
L 150.190589 40.598779 
L 151.482468 40.209421 
L 152.774347 39.826733 
L 154.066225 39.450577 
L 155.358104 39.08082 
L 156.649983 38.71733 
L 157.941861 38.35998 
L 159.23374 38.008645 
" clip-path="url(#p8f249e6915)" style="fill: none; stroke: #000000; stroke-linecap: square"/>
    <defs>
     <path id="mf0d0331c8a" d="M -1 1 
L 1 1 
L 1 -1 
L -1 -1 
z
" style="stroke: #000000; stroke-width: 0.8; stroke-linejoin: miter"/>
    </defs>
    <g clip-path="url(#p8f249e6915)">
     <use xlink:href="#mf0d0331c8a" x="31.337746" y="114.692277" style="fill-opacity: 0; stroke: #000000; stroke-width: 0.8; stroke-linejoin: miter"/>
     <use xlink:href="#mf0d0331c8a" x="44.256533" y="110.115746" style="fill-opacity: 0; stroke: #000000; stroke-width: 0.8; stroke-linejoin: miter"/>
     <use xlink:href="#mf0d0331c8a" x="57.17532" y="98.263402" style="fill-opacity: 0; stroke: #000000; stroke-width: 0.8; stroke-linejoin: miter"/>
     <use xlink:href="#mf0d0331c8a" x="70.094108" y="85.748974" style="fill-opacity: 0; stroke: #000000; stroke-width: 0.8; stroke-linejoin: miter"/>
     <use xlink:href="#mf0d0331c8a" x="83.012895" y="74.66726" style="fill-opacity: 0; stroke: #000000; stroke-width: 0.8; stroke-linejoin: miter"/>
     <use xlink:href="#mf0d0331c8a" x="95.931682" y="65.333711" style="fill-opacity: 0; stroke: #000000; stroke-width: 0.8; stroke-linejoin: miter"/>
     <use xlink:href="#mf0d0331c8a" x="108.85047" y="57.587976" style="fill-opacity: 0; stroke: #000000; stroke-width: 0.8; stroke-linejoin: miter"/>
     <use xlink:href="#mf0d0331c8a" x="121.769257" y="51.173549" style="fill-opacity: 0; stroke: #000000; stroke-width: 0.8; stroke-linejoin: miter"/>
     <use xlink:href="#mf0d0331c8a" x="134.688044" y="45.845781" style="fill-opacity: 0; stroke: #000000; stroke-width: 0.8; stroke-linejoin: miter"/>
     <use xlink:href="#mf0d0331c8a" x="147.606832" y="41.398069" style="fill-opacity: 0; stroke: #000000; stroke-width: 0.8; stroke-linejoin: miter"/>
    </g>
   </g>
   <g id="line2d_48">
    <path d="M 31.337746 114.692282 
L 32.629625 114.689606 
L 33.921503 114.661706 
L 35.213382 114.572281 
L 36.505261 114.392617 
L 37.797139 114.106387 
L 39.089018 113.707444 
L 40.380897 113.196662 
L 41.672776 112.579329 
L 42.964654 111.863276 
L 44.256533 111.057623 
L 45.548412 110.171955 
L 46.840291 109.215803 
L 48.132169 108.19833 
L 49.424048 107.128154 
L 50.715927 106.013254 
L 52.007805 104.860934 
L 53.299684 103.677827 
L 54.591563 102.469917 
L 55.883442 101.242574 
L 57.17532 100.000598 
L 58.467199 98.748264 
L 59.759078 97.489364 
L 61.050957 96.227257 
L 62.342835 94.964906 
L 63.634714 93.704918 
L 64.926593 92.449581 
L 66.218472 91.200895 
L 67.51035 89.960606 
L 68.802229 88.730226 
L 70.094108 87.511066 
L 71.385986 86.30425 
L 72.677865 85.110742 
L 73.969744 83.931359 
L 75.261623 82.766787 
L 76.553501 81.617598 
L 77.84538 80.484263 
L 79.137259 79.367159 
L 80.429138 78.266584 
L 81.721016 77.182764 
L 83.012895 76.115861 
L 84.304774 75.065981 
L 85.596652 74.033182 
L 86.888531 73.017476 
L 88.18041 72.018838 
L 89.472289 71.037208 
L 90.764167 70.072498 
L 92.056046 69.124592 
L 93.347925 68.193354 
L 94.639804 67.278627 
L 95.931682 66.380237 
L 97.223561 65.497997 
L 98.51544 64.631705 
L 99.807319 63.781151 
L 101.099197 62.946116 
L 102.391076 62.126374 
L 103.682955 61.321691 
L 104.974833 60.53183 
L 106.266712 59.756552 
L 107.558591 58.995612 
L 108.85047 58.248766 
L 110.142348 57.515768 
L 111.434227 56.796372 
L 112.726106 56.090331 
L 114.017985 55.397401 
L 115.309863 54.717337 
L 116.601742 54.049897 
L 117.893621 53.39484 
L 119.1855 52.751929 
L 120.477378 52.120928 
L 121.769257 51.501603 
L 123.061136 50.893725 
L 124.353014 50.297068 
L 125.644893 49.711407 
L 126.936772 49.136523 
L 128.228651 48.572199 
L 129.520529 48.018221 
L 130.812408 47.474381 
L 132.104287 46.940473 
L 133.396166 46.416294 
L 134.688044 45.901646 
L 135.979923 45.396334 
L 137.271802 44.900167 
L 138.56368 44.412959 
L 139.855559 43.934524 
L 141.147438 43.464684 
L 142.439317 43.003261 
L 143.731195 42.550084 
L 145.023074 42.104982 
L 146.314953 41.667791 
L 147.606832 41.238348 
L 148.89871 40.816493 
L 150.190589 40.402073 
L 151.482468 39.994934 
L 152.774347 39.594928 
L 154.066225 39.201908 
L 155.358104 38.815734 
L 156.649983 38.436265 
L 157.941861 38.063364 
L 159.23374 37.6969 
" clip-path="url(#p8f249e6915)" style="fill: none; stroke-dasharray: 2.96,1.28; stroke-dashoffset: 0; stroke: #dc0000; stroke-width: 0.8"/>
    <defs>
     <path id="mf8f309a961" d="M -1 1 
L 1 1 
L 1 -1 
L -1 -1 
z
" style="stroke: #dc0000; stroke-width: 0.8; stroke-linejoin: miter"/>
    </defs>
    <g clip-path="url(#p8f249e6915)">
     <use xlink:href="#mf8f309a961" x="31.337746" y="114.692282" style="fill-opacity: 0; stroke: #dc0000; stroke-width: 0.8; stroke-linejoin: miter"/>
     <use xlink:href="#mf8f309a961" x="44.256533" y="111.057623" style="fill-opacity: 0; stroke: #dc0000; stroke-width: 0.8; stroke-linejoin: miter"/>
     <use xlink:href="#mf8f309a961" x="57.17532" y="100.000598" style="fill-opacity: 0; stroke: #dc0000; stroke-width: 0.8; stroke-linejoin: miter"/>
     <use xlink:href="#mf8f309a961" x="70.094108" y="87.511066" style="fill-opacity: 0; stroke: #dc0000; stroke-width: 0.8; stroke-linejoin: miter"/>
     <use xlink:href="#mf8f309a961" x="83.012895" y="76.115861" style="fill-opacity: 0; stroke: #dc0000; stroke-width: 0.8; stroke-linejoin: miter"/>
     <use xlink:href="#mf8f309a961" x="95.931682" y="66.380237" style="fill-opacity: 0; stroke: #dc0000; stroke-width: 0.8; stroke-linejoin: miter"/>
     <use xlink:href="#mf8f309a961" x="108.85047" y="58.248766" style="fill-opacity: 0; stroke: #dc0000; stroke-width: 0.8; stroke-linejoin: miter"/>
     <use xlink:href="#mf8f309a961" x="121.769257" y="51.501603" style="fill-opacity: 0; stroke: #dc0000; stroke-width: 0.8; stroke-linejoin: miter"/>
     <use xlink:href="#mf8f309a961" x="134.688044" y="45.901646" style="fill-opacity: 0; stroke: #dc0000; stroke-width: 0.8; stroke-linejoin: miter"/>
     <use xlink:href="#mf8f309a961" x="147.606832" y="41.238348" style="fill-opacity: 0; stroke: #dc0000; stroke-width: 0.8; stroke-linejoin: miter"/>
    </g>
   </g>
   <g id="line2d_49">
    <path d="M 31.337746 114.692282 
L 32.629625 114.690135 
L 33.921503 114.670473 
L 35.213382 114.611055 
L 36.505261 114.494965 
L 37.797139 114.312394 
L 39.089018 114.05916 
L 40.380897 113.734958 
L 41.672776 113.34199 
L 42.964654 112.883979 
L 44.256533 112.365498 
L 45.548412 111.791531 
L 46.840291 111.167173 
L 48.132169 110.497452 
L 49.424048 109.787208 
L 50.715927 109.041023 
L 52.007805 108.263192 
L 53.299684 107.457701 
L 54.591563 106.628229 
L 55.883442 105.778155 
L 57.17532 104.91057 
L 58.467199 104.028293 
L 59.759078 103.133891 
L 61.050957 102.229693 
L 62.342835 101.31781 
L 63.634714 100.400155 
L 64.926593 99.478455 
L 66.218472 98.554268 
L 67.51035 97.628999 
L 68.802229 96.703914 
L 70.094108 95.780148 
L 71.385986 94.858721 
L 72.677865 93.940548 
L 73.969744 93.026446 
L 75.261623 92.117145 
L 76.553501 91.213294 
L 77.84538 90.315471 
L 79.137259 89.424187 
L 80.429138 88.539895 
L 81.721016 87.66299 
L 83.012895 86.793822 
L 84.304774 85.932692 
L 85.596652 85.079863 
L 86.888531 84.23556 
L 88.18041 83.399976 
L 89.472289 82.573269 
L 90.764167 81.755575 
L 92.056046 80.947002 
L 93.347925 80.147636 
L 94.639804 79.357541 
L 95.931682 78.576764 
L 97.223561 77.805334 
L 98.51544 77.043267 
L 99.807319 76.290564 
L 101.099197 75.547211 
L 102.391076 74.813187 
L 103.682955 74.088459 
L 104.974833 73.372985 
L 106.266712 72.666715 
L 107.558591 71.969591 
L 108.85047 71.28155 
L 110.142348 70.602523 
L 111.434227 69.932435 
L 112.726106 69.271207 
L 114.017985 68.618757 
L 115.309863 67.974997 
L 116.601742 67.339838 
L 117.893621 66.713189 
L 119.1855 66.094955 
L 120.477378 65.48504 
L 121.769257 64.883345 
L 123.061136 64.289773 
L 124.353014 63.704222 
L 125.644893 63.126593 
L 126.936772 62.556783 
L 128.228651 61.99469 
L 129.520529 61.440213 
L 130.812408 60.893249 
L 132.104287 60.353696 
L 133.396166 59.821453 
L 134.688044 59.296417 
L 135.979923 58.778487 
L 137.271802 58.267564 
L 138.56368 57.763546 
L 139.855559 57.266335 
L 141.147438 56.775833 
L 142.439317 56.29194 
L 143.731195 55.814562 
L 145.023074 55.343601 
L 146.314953 54.878963 
L 147.606832 54.420554 
L 148.89871 53.968281 
L 150.190589 53.522052 
L 151.482468 53.081777 
L 152.774347 52.647367 
L 154.066225 52.218731 
L 155.358104 51.795785 
L 156.649983 51.37844 
L 157.941861 50.966613 
L 159.23374 50.560219 
" clip-path="url(#p8f249e6915)" style="fill: none; stroke-dasharray: 5.12,1.28,0.8,1.28; stroke-dashoffset: 0; stroke: #3c5488; stroke-width: 0.8"/>
    <defs>
     <path id="mab3fd340f9" d="M -1 1 
L 1 1 
L 1 -1 
L -1 -1 
z
" style="stroke: #3c5488; stroke-width: 0.8; stroke-linejoin: miter"/>
    </defs>
    <g clip-path="url(#p8f249e6915)">
     <use xlink:href="#mab3fd340f9" x="31.337746" y="114.692282" style="fill-opacity: 0; stroke: #3c5488; stroke-width: 0.8; stroke-linejoin: miter"/>
     <use xlink:href="#mab3fd340f9" x="44.256533" y="112.365498" style="fill-opacity: 0; stroke: #3c5488; stroke-width: 0.8; stroke-linejoin: miter"/>
     <use xlink:href="#mab3fd340f9" x="57.17532" y="104.91057" style="fill-opacity: 0; stroke: #3c5488; stroke-width: 0.8; stroke-linejoin: miter"/>
     <use xlink:href="#mab3fd340f9" x="70.094108" y="95.780148" style="fill-opacity: 0; stroke: #3c5488; stroke-width: 0.8; stroke-linejoin: miter"/>
     <use xlink:href="#mab3fd340f9" x="83.012895" y="86.793822" style="fill-opacity: 0; stroke: #3c5488; stroke-width: 0.8; stroke-linejoin: miter"/>
     <use xlink:href="#mab3fd340f9" x="95.931682" y="78.576764" style="fill-opacity: 0; stroke: #3c5488; stroke-width: 0.8; stroke-linejoin: miter"/>
     <use xlink:href="#mab3fd340f9" x="108.85047" y="71.28155" style="fill-opacity: 0; stroke: #3c5488; stroke-width: 0.8; stroke-linejoin: miter"/>
     <use xlink:href="#mab3fd340f9" x="121.769257" y="64.883345" style="fill-opacity: 0; stroke: #3c5488; stroke-width: 0.8; stroke-linejoin: miter"/>
     <use xlink:href="#mab3fd340f9" x="134.688044" y="59.296417" style="fill-opacity: 0; stroke: #3c5488; stroke-width: 0.8; stroke-linejoin: miter"/>
     <use xlink:href="#mab3fd340f9" x="147.606832" y="54.420554" style="fill-opacity: 0; stroke: #3c5488; stroke-width: 0.8; stroke-linejoin: miter"/>
    </g>
   </g>
   <g id="patch_3">
    <path d="M 30.91 114.692283 
L 30.91 11.52 
" style="fill: none; stroke: #000000; stroke-width: 0.5; stroke-linejoin: miter; stroke-linecap: square"/>
   </g>
   <g id="patch_4">
    <path d="M 159.23374 114.692283 
L 159.23374 11.52 
" style="fill: none; stroke: #000000; stroke-width: 0.5; stroke-linejoin: miter; stroke-linecap: square"/>
   </g>
   <g id="patch_5">
    <path d="M 30.91 114.692283 
L 159.23374 114.692283 
" style="fill: none; stroke: #000000; stroke-width: 0.5; stroke-linejoin: miter; stroke-linecap: square"/>
   </g>
   <g id="patch_6">
    <path d="M 30.91 11.52 
L 159.23374 11.52 
" style="fill: none; stroke: #000000; stroke-width: 0.5; stroke-linejoin: miter; stroke-linecap: square"/>
   </g>
  </g>
 </g>
 <defs>
  <clipPath id="p8f249e6915">
   <rect x="30.91" y="11.52" width="128.32374" height="103.172283"/>
  </clipPath>
 </defs>
</svg>
