<?xml version="1.0" encoding="utf-8" standalone="no"?>
<!DOCTYPE svg PUBLIC "-//W3C//DTD SVG 1.1//EN"
  "http://www.w3.org/Graphics/SVG/1.1/DTD/svg11.dtd">
<svg xmlns:xlink="http://www.w3.org/1999/xlink" width="170.07874pt" height="104.88189pt" viewBox="0 0 170.07874 104.88189" xmlns="http://www.w3.org/2000/svg" version="1.1">
 <metadata>
  <rdf:RDF xmlns:dc="http://purl.org/dc/elements/1.1/" xmlns:cc="http://creativecommons.org/ns#" xmlns:rdf="http://www.w3.org/1999/02/22-rdf-syntax-ns#">
   <cc:Work>
    <dc:type rdf:resource="http://purl.org/dc/dcmitype/StillImage"/>
    <dc:date>2025-01-06T16:39:30.856107</dc:date>
    <dc:format>image/svg+xml</dc:format>
    <dc:creator>
     <cc:Agent>
      <dc:title>Matplotlib v3.5.2, https://matplotlib.org/</dc:title>
     </cc:Agent>
    </dc:creator>
   </cc:Work>
  </rdf:RDF>
 </metadata>
 <defs>
  <style type="text/css">*{stroke-linejoin: round; stroke-linecap: butt}</style>
 </defs>
 <g id="figure_1">
  <g id="patch_1">
   <path d="M 0 104.88189 
L 170.07874 104.88189 
L 170.07874 0 
L 0 0 
z
" style="fill: #ffffff"/>
  </g>
  <g id="axes_1">
   <g id="patch_2">
    <path d="M 35.32 69.96239 
L 161.43874 69.96239 
L 161.43874 11.52 
L 35.32 11.52 
z
" style="fill: #ffffff"/>
   </g>
   <g id="PolyCollection_1">
    <path d="M -62.912619 69.890239 
L 45.444002 69.890239 
L 50.180852 69.818088 
L 50.434068 69.745936 
L 51.632359 69.673785 
L 53.20284 69.601634 
L 54.500985 69.529483 
L 55.689825 69.457332 
L 56.475299 69.385181 
L 56.514815 69.31303 
L 56.92892 69.240879 
L 58.527205 69.168728 
L 64.801785 69.096577 
L 65.919892 69.024425 
L 67.487829 68.952274 
L 67.875304 68.880123 
L 70.212216 68.807972 
L 70.868773 68.735821 
L 73.354558 68.66367 
L 73.732612 68.591519 
L 74.633867 68.519368 
L 75.393015 68.447217 
L 76.097796 68.375066 
L 77.282042 68.302914 
L 77.910926 68.230763 
L 79.067972 68.158612 
L 80.873345 68.086461 
L 81.143896 68.01431 
L 81.694779 67.942159 
L 82.836562 67.870008 
L 83.08301 67.797857 
L 84.70695 67.725706 
L 84.870938 67.653555 
L 86.111753 67.581404 
L 88.273275 67.509252 
L 89.145174 67.437101 
L 89.312941 67.36495 
L 89.526085 67.292799 
L 89.978991 67.220648 
L 90.006209 67.148497 
L 90.095756 67.076346 
L 91.47891 67.004195 
L 92.005922 66.932044 
L 92.217969 66.859893 
L 92.804243 66.787741 
L 92.902923 66.71559 
L 93.043643 66.643439 
L 93.38325 66.571288 
L 93.661345 66.499137 
L 94.503141 66.426986 
L 94.682815 66.354835 
L 95.056785 66.282684 
L 95.768916 66.210533 
L 95.79311 66.138382 
L 96.266711 66.06623 
L 96.985434 65.994079 
L 97.094542 65.921928 
L 97.48132 65.849777 
L 97.537918 65.777626 
L 97.627224 65.705475 
L 97.687229 65.633324 
L 97.869272 65.561173 
L 98.141841 65.489022 
L 98.340652 65.416871 
L 99.078077 65.344719 
L 99.224824 65.272568 
L 99.432257 65.200417 
L 100.007798 65.128266 
L 100.135015 65.056115 
L 100.159762 64.983964 
L 100.159977 64.911813 
L 100.287745 64.839662 
L 100.573749 64.767511 
L 100.574135 64.69536 
L 100.58568 64.623208 
L 101.063278 64.551057 
L 101.650595 64.478906 
L 102.100994 64.406755 
L 102.127462 64.334604 
L 102.352558 64.262453 
L 102.358712 64.190302 
L 102.459695 64.118151 
L 102.472932 64.046 
L 102.567629 63.973849 
L 102.768861 63.901697 
L 103.099833 63.829546 
L 103.123379 63.757395 
L 103.500495 63.685244 
L 103.527046 63.613093 
L 103.564157 63.540942 
L 103.703371 63.468791 
L 103.719122 63.39664 
L 103.798864 63.324489 
L 103.811483 63.252338 
L 103.936574 63.180187 
L 103.967886 63.108035 
L 104.085696 63.035884 
L 104.425962 62.963733 
L 104.902109 62.891582 
L 104.99358 62.819431 
L 105.226216 62.74728 
L 105.510744 62.675129 
L 105.744265 62.602978 
L 105.912467 62.530827 
L 106.337771 62.458676 
L 106.463496 62.386524 
L 106.637098 62.314373 
L 106.733161 62.242222 
L 106.962272 62.170071 
L 107.079105 62.09792 
L 107.12528 62.025769 
L 107.158566 61.953618 
L 107.191365 61.881467 
L 107.254148 61.809316 
L 107.582977 61.737165 
L 107.68094 61.665013 
L 107.697704 61.592862 
L 108.00712 61.520711 
L 108.163323 61.44856 
L 108.203332 61.376409 
L 108.370588 61.304258 
L 108.757883 61.232107 
L 108.856835 61.159956 
L 109.015151 61.087805 
L 109.155822 61.015654 
L 109.172239 60.943502 
L 109.238118 60.871351 
L 109.242174 60.7992 
L 109.248105 60.727049 
L 109.251469 60.654898 
L 109.352072 60.582747 
L 109.36861 60.510596 
L 109.400066 60.438445 
L 109.450335 60.366294 
L 109.649226 60.294143 
L 109.983012 60.221991 
L 110.014944 60.14984 
L 110.109314 60.077689 
L 110.116927 60.005538 
L 110.208016 59.933387 
L 110.370964 59.861236 
L 110.394384 59.789085 
L 110.562839 59.716934 
L 110.945045 59.644783 
L 111.152063 59.572632 
L 111.276186 59.50048 
L 111.330239 59.428329 
L 111.371187 59.356178 
L 111.45541 59.284027 
L 111.493095 59.211876 
L 111.540589 59.139725 
L 111.581702 59.067574 
L 111.629507 58.995423 
L 111.638314 58.923272 
L 111.941229 58.851121 
L 112.053954 58.77897 
L 112.095216 58.706818 
L 112.262897 58.634667 
L 112.273482 58.562516 
L 112.290139 58.490365 
L 112.317643 58.418214 
L 112.394967 58.346063 
L 112.435223 58.273912 
L 112.568541 58.201761 
L 112.839598 58.12961 
L 112.939184 58.057459 
L 112.949382 57.985307 
L 112.967633 57.913156 
L 112.969619 57.841005 
L 113.051849 57.768854 
L 113.20377 57.696703 
L 113.234576 57.624552 
L 113.315265 57.552401 
L 113.379772 57.48025 
L 113.44686 57.408099 
L 113.730495 57.335948 
L 113.737202 57.263796 
L 113.745668 57.191645 
L 113.766055 57.119494 
L 113.821585 57.047343 
L 113.967356 56.975192 
L 114.023831 56.903041 
L 114.027028 56.83089 
L 114.292009 56.758739 
L 114.29328 56.686588 
L 114.329147 56.614437 
L 114.413033 56.542285 
L 114.424477 56.470134 
L 114.443442 56.397983 
L 114.454993 56.325832 
L 114.476045 56.253681 
L 114.593193 56.18153 
L 114.66974 56.109379 
L 114.835245 56.037228 
L 114.914717 55.965077 
L 114.933039 55.892926 
L 114.990198 55.820774 
L 115.062613 55.748623 
L 115.202476 55.676472 
L 115.23393 55.604321 
L 115.336301 55.53217 
L 115.382875 55.460019 
L 115.385749 55.387868 
L 115.396068 55.315717 
L 115.417797 55.243566 
L 115.465637 55.171415 
L 115.468872 55.099263 
L 115.497556 55.027112 
L 115.592722 54.954961 
L 115.848032 54.88281 
L 115.936602 54.810659 
L 116.011657 54.738508 
L 116.127146 54.666357 
L 116.157978 54.594206 
L 116.228758 54.522055 
L 116.285959 54.449904 
L 116.358579 54.377752 
L 116.390486 54.305601 
L 116.436783 54.23345 
L 116.541933 54.161299 
L 116.563754 54.089148 
L 116.604035 54.016997 
L 116.6851 53.944846 
L 116.717355 53.872695 
L 116.771508 53.800544 
L 116.82562 53.728393 
L 116.873255 53.656242 
L 117.004005 53.58409 
L 117.180218 53.511939 
L 117.186263 53.439788 
L 117.235725 53.367637 
L 117.280509 53.295486 
L 117.324732 53.223335 
L 117.332647 53.151184 
L 117.361287 53.079033 
L 117.434795 53.006882 
L 117.487478 52.934731 
L 117.518059 52.862579 
L 117.521335 52.790428 
L 117.604286 52.718277 
L 117.697776 52.646126 
L 117.780273 52.573975 
L 117.871075 52.501824 
L 118.020866 52.429673 
L 118.033192 52.357522 
L 118.130543 52.285371 
L 118.173097 52.21322 
L 118.340048 52.141068 
L 118.378621 52.068917 
L 118.414994 51.996766 
L 118.481424 51.924615 
L 118.497485 51.852464 
L 118.675446 51.780313 
L 118.682055 51.708162 
L 118.794506 51.636011 
L 118.849089 51.56386 
L 119.050399 51.491709 
L 119.107052 51.419557 
L 119.112673 51.347406 
L 119.182395 51.275255 
L 119.223374 51.203104 
L 119.282617 51.130953 
L 119.337168 51.058802 
L 119.408086 50.986651 
L 119.424815 50.9145 
L 119.476989 50.842349 
L 119.484092 50.770198 
L 119.526867 50.698046 
L 119.559612 50.625895 
L 119.592533 50.553744 
L 119.617799 50.481593 
L 119.650499 50.409442 
L 119.765232 50.337291 
L 119.815364 50.26514 
L 119.850613 50.192989 
L 119.890677 50.120838 
L 119.904064 50.048687 
L 119.932182 49.976535 
L 119.935965 49.904384 
L 119.970779 49.832233 
L 120.032543 49.760082 
L 120.106326 49.687931 
L 120.162941 49.61578 
L 120.208825 49.543629 
L 120.271907 49.471478 
L 120.29743 49.399327 
L 120.317697 49.327176 
L 120.327361 49.255025 
L 120.382338 49.182873 
L 120.4281 49.110722 
L 120.432708 49.038571 
L 120.519799 48.96642 
L 120.526611 48.894269 
L 120.547454 48.822118 
L 120.614652 48.749967 
L 120.654137 48.677816 
L 120.718465 48.605665 
L 120.731642 48.533514 
L 120.806587 48.461362 
L 120.811985 48.389211 
L 120.963377 48.31706 
L 121.000989 48.244909 
L 121.018994 48.172758 
L 121.158242 48.100607 
L 121.258894 48.028456 
L 121.301128 47.956305 
L 121.351921 47.884154 
L 121.366111 47.812003 
L 121.465404 47.739851 
L 121.472513 47.6677 
L 121.547 47.595549 
L 121.593906 47.523398 
L 121.650644 47.451247 
L 121.684957 47.379096 
L 121.707587 47.306945 
L 121.734594 47.234794 
L 121.746105 47.162643 
L 121.883221 47.090492 
L 121.919366 47.01834 
L 122.074159 46.946189 
L 122.091666 46.874038 
L 122.183886 46.801887 
L 122.18776 46.729736 
L 122.232929 46.657585 
L 122.26821 46.585434 
L 122.314811 46.513283 
L 122.36515 46.441132 
L 122.429565 46.368981 
L 122.516763 46.296829 
L 122.542725 46.224678 
L 122.55691 46.152527 
L 122.610441 46.080376 
L 122.762161 46.008225 
L 122.812011 45.936074 
L 122.841986 45.863923 
L 122.852921 45.791772 
L 122.860709 45.719621 
L 122.946964 45.64747 
L 123.03603 45.575318 
L 123.124873 45.503167 
L 123.205034 45.431016 
L 123.248251 45.358865 
L 123.255345 45.286714 
L 123.257303 45.214563 
L 123.280276 45.142412 
L 123.335367 45.070261 
L 123.338408 44.99811 
L 123.357347 44.925959 
L 123.371906 44.853807 
L 123.384428 44.781656 
L 123.43861 44.709505 
L 123.645742 44.637354 
L 123.665541 44.565203 
L 123.7369 44.493052 
L 123.772516 44.420901 
L 123.778254 44.34875 
L 123.868803 44.276599 
L 123.982529 44.204448 
L 124.007995 44.132297 
L 124.049343 44.060145 
L 124.057388 43.987994 
L 124.091665 43.915843 
L 124.100304 43.843692 
L 124.142941 43.771541 
L 124.197809 43.69939 
L 124.240085 43.627239 
L 124.254753 43.555088 
L 124.373341 43.482937 
L 124.390368 43.410786 
L 124.494027 43.338634 
L 124.594134 43.266483 
L 124.636898 43.194332 
L 124.649626 43.122181 
L 124.667488 43.05003 
L 124.758365 42.977879 
L 124.860304 42.905728 
L 124.971646 42.833577 
L 124.972126 42.761426 
L 125.098626 42.689275 
L 125.107428 42.617123 
L 125.131503 42.544972 
L 125.133209 42.472821 
L 125.140186 42.40067 
L 125.37768 42.328519 
L 125.385039 42.256368 
L 125.450679 42.184217 
L 125.488627 42.112066 
L 125.561392 42.039915 
L 125.564642 41.967764 
L 125.622375 41.895612 
L 125.632607 41.823461 
L 125.63898 41.75131 
L 125.649255 41.679159 
L 125.732028 41.607008 
L 125.772227 41.534857 
L 125.8071 41.462706 
L 125.832173 41.390555 
L 126.14885 41.318404 
L 126.179981 41.246253 
L 126.182596 41.174101 
L 126.184266 41.10195 
L 126.250847 41.029799 
L 126.291936 40.957648 
L 126.340434 40.885497 
L 126.341522 40.813346 
L 126.350732 40.741195 
L 126.368063 40.669044 
L 126.501374 40.596893 
L 126.622534 40.524742 
L 126.695223 40.45259 
L 126.70456 40.380439 
L 126.710529 40.308288 
L 126.81037 40.236137 
L 126.817286 40.163986 
L 126.837472 40.091835 
L 126.842153 40.019684 
L 126.870346 39.947533 
L 126.873221 39.875382 
L 126.879731 39.803231 
L 127.045234 39.73108 
L 127.079032 39.658928 
L 127.159361 39.586777 
L 127.187729 39.514626 
L 127.196667 39.442475 
L 127.334527 39.370324 
L 127.405876 39.298173 
L 127.453598 39.226022 
L 127.561801 39.153871 
L 127.564937 39.08172 
L 127.816976 39.009569 
L 128.044342 38.937417 
L 128.087401 38.865266 
L 128.350109 38.793115 
L 128.356324 38.720964 
L 128.45626 38.648813 
L 128.460486 38.576662 
L 128.557169 38.504511 
L 128.58171 38.43236 
L 128.60278 38.360209 
L 128.619449 38.288058 
L 128.632788 38.215906 
L 128.765059 38.143755 
L 128.929222 38.071604 
L 128.996328 37.999453 
L 129.00907 37.927302 
L 129.013345 37.855151 
L 129.022069 37.783 
L 129.055688 37.710849 
L 129.115289 37.638698 
L 129.412593 37.566547 
L 129.425285 37.494395 
L 129.512597 37.422244 
L 129.605272 37.350093 
L 129.723869 37.277942 
L 129.768733 37.205791 
L 129.779141 37.13364 
L 129.782421 37.061489 
L 129.842222 36.989338 
L 129.876326 36.917187 
L 129.948129 36.845036 
L 130.022298 36.772884 
L 130.125083 36.700733 
L 130.157456 36.628582 
L 130.188559 36.556431 
L 130.197537 36.48428 
L 130.306484 36.412129 
L 130.337175 36.339978 
L 130.35356 36.267827 
L 130.407107 36.195676 
L 130.423557 36.123525 
L 130.423941 36.051373 
L 130.444891 35.979222 
L 130.477117 35.907071 
L 130.612948 35.83492 
L 130.749951 35.762769 
L 130.761088 35.690618 
L 130.823472 35.618467 
L 130.886317 35.546316 
L 130.931699 35.474165 
L 131.040579 35.402014 
L 131.067691 35.329862 
L 131.079554 35.257711 
L 131.120431 35.18556 
L 131.188753 35.113409 
L 131.223681 35.041258 
L 131.266291 34.969107 
L 131.303429 34.896956 
L 131.543449 34.824805 
L 131.819765 34.752654 
L 131.843048 34.680503 
L 131.932264 34.608352 
L 132.08009 34.5362 
L 132.131252 34.464049 
L 132.137594 34.391898 
L 132.171405 34.319747 
L 132.186904 34.247596 
L 132.196346 34.175445 
L 132.245571 34.103294 
L 132.297494 34.031143 
L 132.311226 33.958992 
L 132.3413 33.886841 
L 132.345615 33.814689 
L 132.401041 33.742538 
L 132.402698 33.670387 
L 132.690512 33.598236 
L 132.798634 33.526085 
L 132.872796 33.453934 
L 132.88685 33.381783 
L 132.890122 33.309632 
L 133.072868 33.237481 
L 133.141806 33.16533 
L 133.198105 33.093178 
L 133.202109 33.021027 
L 133.234599 32.948876 
L 133.347041 32.876725 
L 133.408232 32.804574 
L 133.435993 32.732423 
L 133.452774 32.660272 
L 133.665073 32.588121 
L 133.671285 32.51597 
L 133.68809 32.443819 
L 133.775654 32.371667 
L 133.792178 32.299516 
L 133.850051 32.227365 
L 133.960468 32.155214 
L 133.973642 32.083063 
L 134.051453 32.010912 
L 134.103253 31.938761 
L 134.113546 31.86661 
L 134.139846 31.794459 
L 134.328519 31.722308 
L 134.403154 31.650156 
L 134.608167 31.578005 
L 134.629729 31.505854 
L 134.653372 31.433703 
L 134.693923 31.361552 
L 134.785828 31.289401 
L 134.8158 31.21725 
L 134.928227 31.145099 
L 134.942267 31.072948 
L 135.03197 31.000797 
L 135.104369 30.928645 
L 135.144463 30.856494 
L 135.16896 30.784343 
L 135.246572 30.712192 
L 135.320152 30.640041 
L 135.380016 30.56789 
L 135.434293 30.495739 
L 135.560871 30.423588 
L 135.584195 30.351437 
L 135.611345 30.279286 
L 135.758267 30.207135 
L 135.769902 30.134983 
L 135.786468 30.062832 
L 135.833405 29.990681 
L 135.901077 29.91853 
L 135.909756 29.846379 
L 135.97086 29.774228 
L 135.988279 29.702077 
L 136.03157 29.629926 
L 136.034362 29.557775 
L 136.040806 29.485624 
L 136.087699 29.413472 
L 136.141187 29.341321 
L 136.227741 29.26917 
L 136.28553 29.197019 
L 136.37329 29.124868 
L 136.494711 29.052717 
L 136.567784 28.980566 
L 136.638064 28.908415 
L 136.719286 28.836264 
L 136.725814 28.764113 
L 136.767353 28.691961 
L 136.94592 28.61981 
L 136.970501 28.547659 
L 137.015496 28.475508 
L 137.138355 28.403357 
L 137.16875 28.331206 
L 137.233093 28.259055 
L 137.258642 28.186904 
L 137.291864 28.114753 
L 137.397351 28.042602 
L 137.461179 27.97045 
L 137.519362 27.898299 
L 137.571886 27.826148 
L 137.591725 27.753997 
L 137.648111 27.681846 
L 137.693864 27.609695 
L 137.921523 27.537544 
L 138.017971 27.465393 
L 138.041716 27.393242 
L 138.102656 27.321091 
L 138.335916 27.248939 
L 138.350406 27.176788 
L 138.567859 27.104637 
L 138.577636 27.032486 
L 138.577766 26.960335 
L 138.589917 26.888184 
L 138.644158 26.816033 
L 138.665067 26.743882 
L 138.7898 26.671731 
L 138.975195 26.59958 
L 139.103698 26.527428 
L 139.178445 26.455277 
L 139.219802 26.383126 
L 139.238225 26.310975 
L 139.287169 26.238824 
L 139.370366 26.166673 
L 139.531666 26.094522 
L 139.600242 26.022371 
L 139.677151 25.95022 
L 139.783872 25.878069 
L 139.955002 25.805917 
L 140.01861 25.733766 
L 140.126378 25.661615 
L 140.27175 25.589464 
L 140.452522 25.517313 
L 140.458833 25.445162 
L 140.731229 25.373011 
L 140.761262 25.30086 
L 140.845803 25.228709 
L 140.895801 25.156558 
L 140.931076 25.084407 
L 140.945804 25.012255 
L 140.954004 24.940104 
L 140.977526 24.867953 
L 141.001092 24.795802 
L 141.106572 24.723651 
L 141.274437 24.6515 
L 141.305729 24.579349 
L 141.387618 24.507198 
L 141.480521 24.435047 
L 141.619857 24.362896 
L 141.652893 24.290744 
L 142.004666 24.218593 
L 142.099788 24.146442 
L 142.243303 24.074291 
L 142.438731 24.00214 
L 142.597934 23.929989 
L 142.685365 23.857838 
L 142.834251 23.785687 
L 142.907112 23.713536 
L 143.005537 23.641385 
L 143.027483 23.569233 
L 143.060393 23.497082 
L 143.435179 23.424931 
L 143.724547 23.35278 
L 143.753332 23.280629 
L 143.771748 23.208478 
L 144.01838 23.136327 
L 144.037155 23.064176 
L 144.054521 22.992025 
L 144.234502 22.919874 
L 144.296562 22.847722 
L 144.320209 22.775571 
L 144.387429 22.70342 
L 144.553331 22.631269 
L 144.592277 22.559118 
L 145.028078 22.486967 
L 145.294208 22.414816 
L 145.564543 22.342665 
L 145.620482 22.270514 
L 145.675093 22.198363 
L 145.733985 22.126211 
L 145.811185 22.05406 
L 145.825543 21.981909 
L 145.841472 21.909758 
L 145.861155 21.837607 
L 145.914733 21.765456 
L 146.124573 21.693305 
L 146.186376 21.621154 
L 146.235178 21.549003 
L 146.302598 21.476852 
L 146.701109 21.4047 
L 146.796937 21.332549 
L 147.034635 21.260398 
L 147.123674 21.188247 
L 147.283332 21.116096 
L 147.301077 21.043945 
L 147.399042 20.971794 
L 147.488323 20.899643 
L 147.522093 20.827492 
L 147.530572 20.755341 
L 148.034471 20.68319 
L 148.086225 20.611038 
L 148.092379 20.538887 
L 148.122516 20.466736 
L 148.468325 20.394585 
L 148.473609 20.322434 
L 148.816279 20.250283 
L 148.961174 20.178132 
L 149.026462 20.105981 
L 149.057468 20.03383 
L 149.108511 19.961679 
L 149.233938 19.889527 
L 149.2704 19.817376 
L 149.420877 19.745225 
L 149.703348 19.673074 
L 149.969593 19.600923 
L 150.038921 19.528772 
L 150.346009 19.456621 
L 151.018731 19.38447 
L 151.141258 19.312319 
L 151.252337 19.240168 
L 151.440618 19.168016 
L 151.552634 19.095865 
L 151.630331 19.023714 
L 151.730404 18.951563 
L 151.793704 18.879412 
L 151.864143 18.807261 
L 152.165532 18.73511 
L 152.318806 18.662959 
L 152.519136 18.590808 
L 153.366753 18.518657 
L 153.370199 18.446505 
L 153.401852 18.374354 
L 153.403436 18.302203 
L 153.441761 18.230052 
L 153.544001 18.157901 
L 153.696285 18.08575 
L 153.749472 18.013599 
L 153.948184 17.941448 
L 154.030517 17.869297 
L 154.170627 17.797146 
L 154.340363 17.724994 
L 154.388268 17.652843 
L 154.659365 17.580692 
L 155.020937 17.508541 
L 155.179741 17.43639 
L 155.22159 17.364239 
L 155.751052 17.292088 
L 156.129695 17.219937 
L 156.353832 17.147786 
L 156.505058 17.075635 
L 156.648021 17.003483 
L 156.845138 16.931332 
L 156.978101 16.859181 
L 157.518127 16.78703 
L 157.558038 16.714879 
L 157.975903 16.642728 
L 158.032416 16.570577 
L 158.447183 16.498426 
L 158.946764 16.426275 
L 159.223471 16.354124 
L 159.462839 16.281972 
L 159.558004 16.209821 
L 159.570963 16.13767 
L 160.165598 16.065519 
L 160.180177 15.993368 
L 160.315689 15.921217 
L 160.417426 15.849066 
L 160.490583 15.776915 
L 160.661933 15.704764 
L 160.715131 15.632613 
L 160.862599 15.560462 
L 160.961662 15.48831 
L 161.667346 15.416159 
L 161.928686 15.344008 
L 162.063844 15.271857 
L 162.475289 15.199706 
L 163.270548 15.127555 
L 163.533723 15.055404 
L 163.574291 14.983253 
L 163.74357 14.911102 
L 164.167948 14.838951 
L 165.521327 14.766799 
L 165.792331 14.694648 
L 165.854525 14.622497 
L 166.858858 14.550346 
L 167.051243 14.478195 
L 167.985567 14.406044 
L 168.012368 14.333893 
L 168.253509 14.261742 
L 168.277245 14.189591 
L 168.45324 14.11744 
L 168.473881 14.045288 
L 169.747513 13.973137 
L 171.078226 13.900986 
L 171.341063 13.828835 
L 171.97043 13.756684 
L 172.357301 13.684533 
L 172.856988 13.612382 
L 173.254541 13.540231 
L 173.69944 13.46808 
L 173.728941 13.395929 
L 174.010737 13.323777 
L 174.304868 13.251626 
L 174.433052 13.179475 
L 175.270678 13.107324 
L 175.679676 13.035173 
L 175.84329 12.963022 
L 175.944883 12.890871 
L 176.405514 12.81872 
L 176.489172 12.746569 
L 176.887198 12.674418 
L 176.948965 12.602266 
L 177.150727 12.530115 
L 177.848782 12.457964 
L 179.172231 12.385813 
L 180.034277 12.313662 
L 180.509972 12.241511 
L 181.298373 12.16936 
L 183.572307 12.097209 
L 183.655323 12.025058 
L 183.772607 11.952907 
L 184.572177 11.880755 
L 185.664796 11.808604 
L 186.075095 11.736453 
L 189.404694 11.664302 
L 189.749432 11.592151 
L 191.417186 11.52 
L 174.634916 11.52 
L 174.634916 11.52 
L 171.303942 11.592151 
L 170.263924 11.664302 
L 163.72367 11.736453 
L 162.800595 11.808604 
L 162.620377 11.880755 
L 159.227307 11.952907 
L 158.05271 12.025058 
L 156.067042 12.097209 
L 155.573994 12.16936 
L 155.358312 12.241511 
L 155.083373 12.313662 
L 154.825276 12.385813 
L 154.178355 12.457964 
L 153.968823 12.530115 
L 153.900326 12.602266 
L 153.883005 12.674418 
L 153.576667 12.746569 
L 153.372001 12.81872 
L 153.30844 12.890871 
L 153.286975 12.963022 
L 152.22846 13.035173 
L 151.968678 13.107324 
L 151.966989 13.179475 
L 151.291387 13.251626 
L 150.324439 13.323777 
L 149.545207 13.395929 
L 149.528034 13.46808 
L 149.454442 13.540231 
L 149.41086 13.612382 
L 148.994044 13.684533 
L 148.89635 13.756684 
L 148.895938 13.828835 
L 148.794958 13.900986 
L 148.687731 13.973137 
L 147.579426 14.045288 
L 146.69091 14.11744 
L 146.580531 14.189591 
L 146.385283 14.261742 
L 146.366916 14.333893 
L 146.327665 14.406044 
L 145.631572 14.478195 
L 145.429427 14.550346 
L 145.419257 14.622497 
L 145.042422 14.694648 
L 144.692508 14.766799 
L 144.646682 14.838951 
L 144.45848 14.911102 
L 144.238409 14.983253 
L 144.221653 15.055404 
L 144.176825 15.127555 
L 144.163402 15.199706 
L 143.587877 15.271857 
L 143.323283 15.344008 
L 142.911146 15.416159 
L 142.818973 15.48831 
L 142.802149 15.560462 
L 142.253081 15.632613 
L 142.120014 15.704764 
L 142.075406 15.776915 
L 141.462771 15.849066 
L 141.439132 15.921217 
L 141.423753 15.993368 
L 141.296218 16.065519 
L 141.147022 16.13767 
L 141.010425 16.209821 
L 140.952787 16.281972 
L 140.6935 16.354124 
L 140.417314 16.426275 
L 140.174207 16.498426 
L 140.039019 16.570577 
L 139.905635 16.642728 
L 139.441709 16.714879 
L 139.411227 16.78703 
L 138.701013 16.859181 
L 138.580562 16.931332 
L 138.492926 17.003483 
L 138.458057 17.075635 
L 138.11172 17.147786 
L 138.017337 17.219937 
L 137.921494 17.292088 
L 137.859557 17.364239 
L 137.756575 17.43639 
L 137.70248 17.508541 
L 137.308986 17.580692 
L 137.277414 17.652843 
L 137.263125 17.724994 
L 137.181039 17.797146 
L 136.909292 17.869297 
L 136.763922 17.941448 
L 136.686216 18.013599 
L 136.372125 18.08575 
L 136.180478 18.157901 
L 136.071493 18.230052 
L 135.853548 18.302203 
L 135.689389 18.374354 
L 135.689089 18.446505 
L 135.311134 18.518657 
L 135.247855 18.590808 
L 135.209941 18.662959 
L 135.101098 18.73511 
L 135.066384 18.807261 
L 135.048539 18.879412 
L 134.862605 18.951563 
L 134.782471 19.023714 
L 134.476136 19.095865 
L 133.789926 19.168016 
L 133.61416 19.240168 
L 133.570173 19.312319 
L 133.496891 19.38447 
L 133.486127 19.456621 
L 133.357338 19.528772 
L 133.243438 19.600923 
L 133.229868 19.673074 
L 133.227824 19.745225 
L 133.153124 19.817376 
L 132.742826 19.889527 
L 132.539772 19.961679 
L 132.333917 20.03383 
L 131.817479 20.105981 
L 131.64927 20.178132 
L 131.384155 20.250283 
L 131.377465 20.322434 
L 131.255869 20.394585 
L 131.171626 20.466736 
L 131.072682 20.538887 
L 131.025233 20.611038 
L 130.986068 20.68319 
L 130.959881 20.755341 
L 130.927159 20.827492 
L 130.776917 20.899643 
L 130.595267 20.971794 
L 130.559994 21.043945 
L 130.537655 21.116096 
L 130.469143 21.188247 
L 130.361531 21.260398 
L 130.170518 21.332549 
L 130.134647 21.4047 
L 130.082749 21.476852 
L 130.014885 21.549003 
L 129.970126 21.621154 
L 129.86484 21.693305 
L 129.650452 21.765456 
L 129.635815 21.837607 
L 129.580491 21.909758 
L 129.287782 21.981909 
L 129.253803 22.05406 
L 129.152421 22.126211 
L 129.114083 22.198363 
L 128.98731 22.270514 
L 128.942947 22.342665 
L 128.895978 22.414816 
L 128.87373 22.486967 
L 128.685719 22.559118 
L 128.645786 22.631269 
L 128.440782 22.70342 
L 128.402234 22.775571 
L 128.389742 22.847722 
L 128.324168 22.919874 
L 128.253925 22.992025 
L 128.237626 23.064176 
L 128.191831 23.136327 
L 128.093388 23.208478 
L 128.073642 23.280629 
L 128.028371 23.35278 
L 127.936317 23.424931 
L 127.849671 23.497082 
L 127.785161 23.569233 
L 127.723652 23.641385 
L 127.679264 23.713536 
L 127.636511 23.785687 
L 127.50539 23.857838 
L 127.502048 23.929989 
L 127.47686 24.00214 
L 127.454662 24.074291 
L 127.333758 24.146442 
L 127.253204 24.218593 
L 127.212002 24.290744 
L 127.192178 24.362896 
L 127.183246 24.435047 
L 127.006687 24.507198 
L 126.924827 24.579349 
L 126.826478 24.6515 
L 126.82427 24.723651 
L 126.722249 24.795802 
L 126.526304 24.867953 
L 126.521606 24.940104 
L 126.290569 25.012255 
L 126.210138 25.084407 
L 126.165446 25.156558 
L 126.007814 25.228709 
L 125.984227 25.30086 
L 125.726789 25.373011 
L 125.717834 25.445162 
L 125.532737 25.517313 
L 125.4807 25.589464 
L 125.471978 25.661615 
L 125.415762 25.733766 
L 125.387525 25.805917 
L 125.373254 25.878069 
L 125.268779 25.95022 
L 125.220743 26.022371 
L 124.819573 26.094522 
L 124.797973 26.166673 
L 124.583911 26.238824 
L 124.492097 26.310975 
L 124.345055 26.383126 
L 124.181056 26.455277 
L 124.010135 26.527428 
L 123.968759 26.59958 
L 123.935352 26.671731 
L 123.831092 26.743882 
L 123.754032 26.816033 
L 123.626684 26.888184 
L 123.458198 26.960335 
L 123.340265 27.032486 
L 123.235867 27.104637 
L 123.05466 27.176788 
L 123.054049 27.248939 
L 123.024393 27.321091 
L 122.983988 27.393242 
L 122.823524 27.465393 
L 122.81165 27.537544 
L 122.757929 27.609695 
L 122.754437 27.681846 
L 122.738448 27.753997 
L 122.72414 27.826148 
L 122.714817 27.898299 
L 122.635775 27.97045 
L 122.410613 28.042602 
L 122.292011 28.114753 
L 122.262397 28.186904 
L 122.256102 28.259055 
L 122.154937 28.331206 
L 122.118195 28.403357 
L 122.008504 28.475508 
L 121.860823 28.547659 
L 121.836675 28.61981 
L 121.694035 28.691961 
L 121.577492 28.764113 
L 121.575488 28.836264 
L 121.509004 28.908415 
L 121.496654 28.980566 
L 121.443906 29.052717 
L 121.347001 29.124868 
L 121.335515 29.197019 
L 121.298026 29.26917 
L 121.257524 29.341321 
L 121.230593 29.413472 
L 120.904199 29.485624 
L 120.87768 29.557775 
L 120.651115 29.629926 
L 120.637196 29.702077 
L 120.562282 29.774228 
L 120.478975 29.846379 
L 120.356232 29.91853 
L 120.346337 29.990681 
L 120.295879 30.062832 
L 120.273627 30.134983 
L 120.202826 30.207135 
L 120.0108 30.279286 
L 119.998297 30.351437 
L 119.826087 30.423588 
L 119.611519 30.495739 
L 119.532112 30.56789 
L 119.466949 30.640041 
L 119.443792 30.712192 
L 119.316579 30.784343 
L 119.297155 30.856494 
L 119.248589 30.928645 
L 119.232148 31.000797 
L 119.201726 31.072948 
L 119.035473 31.145099 
L 119.001481 31.21725 
L 118.746579 31.289401 
L 118.655825 31.361552 
L 118.491365 31.433703 
L 118.340464 31.505854 
L 118.339579 31.578005 
L 117.892053 31.650156 
L 117.884182 31.722308 
L 117.841339 31.794459 
L 117.798425 31.86661 
L 117.762104 31.938761 
L 117.7397 32.010912 
L 117.586322 32.083063 
L 117.568386 32.155214 
L 117.320524 32.227365 
L 117.255764 32.299516 
L 117.128753 32.371667 
L 117.118302 32.443819 
L 117.012641 32.51597 
L 116.950516 32.588121 
L 116.648346 32.660272 
L 116.543093 32.732423 
L 116.529046 32.804574 
L 116.371631 32.876725 
L 116.28577 32.948876 
L 116.236768 33.021027 
L 116.18964 33.093178 
L 116.08835 33.16533 
L 116.050826 33.237481 
L 116.007187 33.309632 
L 115.992511 33.381783 
L 115.985178 33.453934 
L 115.96285 33.526085 
L 115.851851 33.598236 
L 115.824249 33.670387 
L 115.816298 33.742538 
L 115.76966 33.814689 
L 115.749602 33.886841 
L 115.680294 33.958992 
L 115.677869 34.031143 
L 115.661983 34.103294 
L 115.638407 34.175445 
L 115.635444 34.247596 
L 115.482497 34.319747 
L 115.465653 34.391898 
L 115.322456 34.464049 
L 115.282213 34.5362 
L 115.249585 34.608352 
L 115.178241 34.680503 
L 115.159659 34.752654 
L 115.137861 34.824805 
L 115.099256 34.896956 
L 115.080313 34.969107 
L 114.985952 35.041258 
L 114.912814 35.113409 
L 114.911195 35.18556 
L 114.88888 35.257711 
L 114.883887 35.329862 
L 114.749589 35.402014 
L 114.736496 35.474165 
L 114.537577 35.546316 
L 114.516592 35.618467 
L 114.493298 35.690618 
L 114.46691 35.762769 
L 114.454658 35.83492 
L 114.444226 35.907071 
L 114.115872 35.979222 
L 113.992891 36.051373 
L 113.915612 36.123525 
L 113.868188 36.195676 
L 113.776815 36.267827 
L 113.725343 36.339978 
L 113.608835 36.412129 
L 113.581804 36.48428 
L 113.54622 36.556431 
L 113.332611 36.628582 
L 113.323918 36.700733 
L 113.316322 36.772884 
L 113.248965 36.845036 
L 113.186069 36.917187 
L 113.175529 36.989338 
L 113.151771 37.061489 
L 113.126226 37.13364 
L 113.116617 37.205791 
L 113.061064 37.277942 
L 112.868439 37.350093 
L 112.865535 37.422244 
L 112.85187 37.494395 
L 112.822061 37.566547 
L 112.781353 37.638698 
L 112.745003 37.710849 
L 112.721028 37.783 
L 112.691551 37.855151 
L 112.523825 37.927302 
L 112.494568 37.999453 
L 112.467484 38.071604 
L 112.424493 38.143755 
L 112.422525 38.215906 
L 112.354217 38.288058 
L 112.248055 38.360209 
L 112.091304 38.43236 
L 112.081225 38.504511 
L 112.077003 38.576662 
L 111.787159 38.648813 
L 111.59143 38.720964 
L 111.522921 38.793115 
L 111.434629 38.865266 
L 111.340752 38.937417 
L 111.30137 39.009569 
L 111.272436 39.08172 
L 110.99787 39.153871 
L 110.802649 39.226022 
L 110.65968 39.298173 
L 110.605634 39.370324 
L 110.53007 39.442475 
L 110.49352 39.514626 
L 110.370305 39.586777 
L 110.33847 39.658928 
L 110.281517 39.73108 
L 110.137334 39.803231 
L 110.134494 39.875382 
L 110.081139 39.947533 
L 110.064243 40.019684 
L 109.865905 40.091835 
L 109.836066 40.163986 
L 109.802033 40.236137 
L 109.747089 40.308288 
L 109.711136 40.380439 
L 109.634551 40.45259 
L 109.572692 40.524742 
L 109.428238 40.596893 
L 109.377485 40.669044 
L 109.372002 40.741195 
L 109.305985 40.813346 
L 109.187396 40.885497 
L 109.165107 40.957648 
L 109.070879 41.029799 
L 109.037268 41.10195 
L 108.911471 41.174101 
L 108.901504 41.246253 
L 108.784428 41.318404 
L 108.723358 41.390555 
L 108.719902 41.462706 
L 108.626443 41.534857 
L 108.608417 41.607008 
L 108.544164 41.679159 
L 108.493855 41.75131 
L 108.4876 41.823461 
L 108.455644 41.895612 
L 108.432561 41.967764 
L 108.319235 42.039915 
L 108.225102 42.112066 
L 108.153671 42.184217 
L 108.11096 42.256368 
L 108.045048 42.328519 
L 107.971344 42.40067 
L 107.860582 42.472821 
L 107.786444 42.544972 
L 107.764118 42.617123 
L 107.759773 42.689275 
L 107.715723 42.761426 
L 107.709941 42.833577 
L 107.680714 42.905728 
L 107.622977 42.977879 
L 107.553458 43.05003 
L 107.532186 43.122181 
L 107.526333 43.194332 
L 107.301147 43.266483 
L 107.209693 43.338634 
L 107.192244 43.410786 
L 107.177339 43.482937 
L 107.157064 43.555088 
L 106.938683 43.627239 
L 106.916879 43.69939 
L 106.895526 43.771541 
L 106.787823 43.843692 
L 106.70242 43.915843 
L 106.637275 43.987994 
L 106.626524 44.060145 
L 106.613925 44.132297 
L 106.544891 44.204448 
L 106.480569 44.276599 
L 106.3996 44.34875 
L 106.187271 44.420901 
L 106.16679 44.493052 
L 105.752577 44.565203 
L 105.739479 44.637354 
L 105.503803 44.709505 
L 105.50317 44.781656 
L 105.46852 44.853807 
L 105.452469 44.925959 
L 105.344946 44.99811 
L 105.335761 45.070261 
L 105.326819 45.142412 
L 105.31126 45.214563 
L 105.280797 45.286714 
L 105.240157 45.358865 
L 105.189873 45.431016 
L 105.086909 45.503167 
L 104.976666 45.575318 
L 104.91277 45.64747 
L 104.828873 45.719621 
L 104.780822 45.791772 
L 104.688488 45.863923 
L 104.645805 45.936074 
L 104.506493 46.008225 
L 104.470224 46.080376 
L 104.393124 46.152527 
L 104.372286 46.224678 
L 104.362805 46.296829 
L 104.302259 46.368981 
L 104.187853 46.441132 
L 104.171504 46.513283 
L 104.088054 46.585434 
L 104.083133 46.657585 
L 104.025611 46.729736 
L 103.936683 46.801887 
L 103.828827 46.874038 
L 103.768583 46.946189 
L 103.686914 47.01834 
L 103.628051 47.090492 
L 103.599673 47.162643 
L 103.534703 47.234794 
L 103.501163 47.306945 
L 103.395407 47.379096 
L 103.369919 47.451247 
L 103.323067 47.523398 
L 103.150529 47.595549 
L 103.115629 47.6677 
L 103.06163 47.739851 
L 103.057362 47.812003 
L 103.048601 47.884154 
L 103.038948 47.956305 
L 102.998695 48.028456 
L 102.819659 48.100607 
L 102.683264 48.172758 
L 102.659181 48.244909 
L 102.622751 48.31706 
L 102.423841 48.389211 
L 102.37238 48.461362 
L 102.366835 48.533514 
L 102.356639 48.605665 
L 101.779319 48.677816 
L 101.699109 48.749967 
L 101.641739 48.822118 
L 101.452089 48.894269 
L 101.392877 48.96642 
L 101.363818 49.038571 
L 101.256107 49.110722 
L 101.211636 49.182873 
L 101.192849 49.255025 
L 101.191127 49.327176 
L 100.823078 49.399327 
L 100.810363 49.471478 
L 100.613398 49.543629 
L 100.559016 49.61578 
L 100.553495 49.687931 
L 100.497174 49.760082 
L 100.41143 49.832233 
L 100.351453 49.904384 
L 100.176565 49.976535 
L 100.069669 50.048687 
L 99.988563 50.120838 
L 99.973473 50.192989 
L 99.759832 50.26514 
L 99.68268 50.337291 
L 99.655185 50.409442 
L 99.654321 50.481593 
L 99.604035 50.553744 
L 99.595799 50.625895 
L 99.423083 50.698046 
L 99.388548 50.770198 
L 99.378448 50.842349 
L 99.246434 50.9145 
L 99.190606 50.986651 
L 99.016736 51.058802 
L 98.979646 51.130953 
L 98.945701 51.203104 
L 98.920356 51.275255 
L 98.763021 51.347406 
L 98.751195 51.419557 
L 98.709158 51.491709 
L 98.692254 51.56386 
L 98.634253 51.636011 
L 98.432691 51.708162 
L 98.256699 51.780313 
L 98.026658 51.852464 
L 97.897181 51.924615 
L 97.892786 51.996766 
L 97.660428 52.068917 
L 97.63692 52.141068 
L 97.590086 52.21322 
L 97.534768 52.285371 
L 97.518617 52.357522 
L 97.282366 52.429673 
L 97.122519 52.501824 
L 97.102287 52.573975 
L 97.006763 52.646126 
L 96.954687 52.718277 
L 96.796251 52.790428 
L 96.625557 52.862579 
L 96.611525 52.934731 
L 96.584572 53.006882 
L 96.441026 53.079033 
L 96.413802 53.151184 
L 96.036368 53.223335 
L 96.002717 53.295486 
L 95.961772 53.367637 
L 95.876385 53.439788 
L 95.845214 53.511939 
L 95.798886 53.58409 
L 95.650407 53.656242 
L 95.421705 53.728393 
L 95.27154 53.800544 
L 95.23762 53.872695 
L 95.217448 53.944846 
L 95.117274 54.016997 
L 95.089789 54.089148 
L 95.042059 54.161299 
L 95.02226 54.23345 
L 94.950189 54.305601 
L 94.856199 54.377752 
L 94.647001 54.449904 
L 94.638088 54.522055 
L 94.565457 54.594206 
L 94.558872 54.666357 
L 94.458427 54.738508 
L 94.313476 54.810659 
L 94.280774 54.88281 
L 94.044773 54.954961 
L 94.028475 55.027112 
L 93.983567 55.099263 
L 93.840466 55.171415 
L 93.790393 55.243566 
L 93.777754 55.315717 
L 93.69804 55.387868 
L 93.567 55.460019 
L 93.499375 55.53217 
L 93.356595 55.604321 
L 92.701636 55.676472 
L 92.675232 55.748623 
L 92.672942 55.820774 
L 92.625492 55.892926 
L 92.579459 55.965077 
L 92.53427 56.037228 
L 92.518245 56.109379 
L 92.48248 56.18153 
L 92.397229 56.253681 
L 92.371632 56.325832 
L 92.283442 56.397983 
L 92.245417 56.470134 
L 92.110785 56.542285 
L 91.116115 56.614437 
L 90.983674 56.686588 
L 90.866857 56.758739 
L 90.714166 56.83089 
L 90.684325 56.903041 
L 90.554211 56.975192 
L 90.347291 57.047343 
L 90.309343 57.119494 
L 90.30693 57.191645 
L 90.03581 57.263796 
L 90.008344 57.335948 
L 89.546001 57.408099 
L 89.534262 57.48025 
L 89.275146 57.552401 
L 89.174342 57.624552 
L 89.086562 57.696703 
L 88.868506 57.768854 
L 88.8283 57.841005 
L 88.758066 57.913156 
L 88.756979 57.985307 
L 88.710398 58.057459 
L 88.471766 58.12961 
L 88.449475 58.201761 
L 88.33369 58.273912 
L 88.194306 58.346063 
L 87.920294 58.418214 
L 87.602255 58.490365 
L 87.420882 58.562516 
L 87.280346 58.634667 
L 87.274563 58.706818 
L 87.130388 58.77897 
L 87.08838 58.851121 
L 86.702143 58.923272 
L 86.538934 58.995423 
L 86.235268 59.067574 
L 86.034557 59.139725 
L 86.013965 59.211876 
L 85.920295 59.284027 
L 85.849944 59.356178 
L 85.842457 59.428329 
L 85.757138 59.50048 
L 85.558766 59.572632 
L 85.52039 59.644783 
L 85.283144 59.716934 
L 85.265272 59.789085 
L 85.225237 59.861236 
L 84.866913 59.933387 
L 84.830461 60.005538 
L 84.682656 60.077689 
L 84.306665 60.14984 
L 84.292089 60.221991 
L 84.210465 60.294143 
L 84.025447 60.366294 
L 83.977168 60.438445 
L 83.675723 60.510596 
L 83.65697 60.582747 
L 83.187728 60.654898 
L 83.096852 60.727049 
L 83.070058 60.7992 
L 83.04506 60.871351 
L 82.808137 60.943502 
L 82.515235 61.015654 
L 82.3134 61.087805 
L 81.975401 61.159956 
L 81.575991 61.232107 
L 81.006386 61.304258 
L 80.87115 61.376409 
L 80.600869 61.44856 
L 80.521805 61.520711 
L 80.173616 61.592862 
L 79.409749 61.665013 
L 79.402961 61.737165 
L 79.388763 61.809316 
L 79.069732 61.881467 
L 78.772358 61.953618 
L 78.586001 62.025769 
L 78.460564 62.09792 
L 78.271957 62.170071 
L 78.218551 62.242222 
L 78.065839 62.314373 
L 78.011206 62.386524 
L 77.712963 62.458676 
L 77.37432 62.530827 
L 77.109638 62.602978 
L 76.809636 62.675129 
L 76.502251 62.74728 
L 76.406221 62.819431 
L 76.305529 62.891582 
L 76.231475 62.963733 
L 75.962568 63.035884 
L 75.955749 63.108035 
L 75.626353 63.180187 
L 75.487438 63.252338 
L 75.401103 63.324489 
L 75.075491 63.39664 
L 74.641466 63.468791 
L 74.566378 63.540942 
L 74.334497 63.613093 
L 73.917646 63.685244 
L 73.134138 63.757395 
L 72.991811 63.829546 
L 72.862322 63.901697 
L 72.812578 63.973849 
L 72.338076 64.046 
L 71.90757 64.118151 
L 71.899549 64.190302 
L 71.664289 64.262453 
L 71.437003 64.334604 
L 71.035693 64.406755 
L 70.463787 64.478906 
L 70.076072 64.551057 
L 70.042912 64.623208 
L 69.948593 64.69536 
L 69.83846 64.767511 
L 69.612728 64.839662 
L 69.332645 64.911813 
L 69.243499 64.983964 
L 68.969838 65.056115 
L 68.87893 65.128266 
L 68.681664 65.200417 
L 68.587566 65.272568 
L 68.519014 65.344719 
L 67.890409 65.416871 
L 66.817047 65.489022 
L 64.735846 65.561173 
L 63.279734 65.633324 
L 61.113224 65.705475 
L 60.638485 65.777626 
L 59.979735 65.849777 
L 58.486096 65.921928 
L 58.46284 65.994079 
L 58.228709 66.06623 
L 57.3895 66.138382 
L 56.732416 66.210533 
L 56.60191 66.282684 
L 56.34558 66.354835 
L 55.977353 66.426986 
L 55.550672 66.499137 
L 55.026656 66.571288 
L 53.353397 66.643439 
L 53.269682 66.71559 
L 52.568468 66.787741 
L 52.203709 66.859893 
L 50.601965 66.932044 
L 49.681339 67.004195 
L 48.954882 67.076346 
L 47.872646 67.148497 
L 45.589045 67.220648 
L 44.111095 67.292799 
L 42.240086 67.36495 
L 39.567495 67.437101 
L 38.766239 67.509252 
L 33.325366 67.581404 
L 31.260803 67.653555 
L 31.051734 67.725706 
L 29.794368 67.797857 
L 26.495171 67.870008 
L 26.083473 67.942159 
L 23.665742 68.01431 
L 22.622665 68.086461 
L 21.604489 68.158612 
L 21.139381 68.230763 
L 20.885791 68.302914 
L 19.743473 68.375066 
L 18.574866 68.447217 
L 13.688746 68.519368 
L 12.589635 68.591519 
L 11.139901 68.66367 
L 7.29554 68.735821 
L 5.924494 68.807972 
L 2.268285 68.880123 
L 2.191256 68.952274 
L -0.842321 69.024425 
L -0.925945 69.096577 
L -8.337792 69.168728 
L -8.976056 69.240879 
L -10.058487 69.31303 
L -11.130583 69.385181 
L -13.504841 69.457332 
L -15.833373 69.529483 
L -16.056032 69.601634 
L -16.793236 69.673785 
L -18.277984 69.745936 
L -24.073235 69.818088 
L -62.912619 69.890239 
z
" clip-path="url(#pf42cb130e6)" style="fill: #808080; fill-opacity: 0.4"/>
   </g>
   <g id="matplotlib.axis_1">
    <g id="xtick_1">
     <g id="line2d_1">
      <defs>
       <path id="mececf0f078" d="M 0 0 
L 0 -5 
" style="stroke: #000000; stroke-width: 0.5"/>
      </defs>
      <g>
       <use xlink:href="#mececf0f078" x="61.022375" y="69.96239" style="fill-opacity: 0; stroke: #000000; stroke-width: 0.5"/>
      </g>
     </g>
     <g id="text_1">
      <!-- $\mathdefault{10^{1}}$ -->
      <g transform="translate(54.742375 80.21239)scale(0.08 -0.08)">
       <defs>
        <path id="ArialMT-31" d="M 2384 0 
L 1822 0 
L 1822 3584 
Q 1619 3391 1289 3197 
Q 959 3003 697 2906 
L 697 3450 
Q 1169 3672 1522 3987 
Q 1875 4303 2022 4600 
L 2384 4600 
L 2384 0 
z
" transform="scale(0.015625)"/>
        <path id="ArialMT-30" d="M 266 2259 
Q 266 3072 433 3567 
Q 600 4063 929 4331 
Q 1259 4600 1759 4600 
Q 2128 4600 2406 4451 
Q 2684 4303 2865 4023 
Q 3047 3744 3150 3342 
Q 3253 2941 3253 2259 
Q 3253 1453 3087 958 
Q 2922 463 2592 192 
Q 2263 -78 1759 -78 
Q 1097 -78 719 397 
Q 266 969 266 2259 
z
M 844 2259 
Q 844 1131 1108 757 
Q 1372 384 1759 384 
Q 2147 384 2411 759 
Q 2675 1134 2675 2259 
Q 2675 3391 2411 3762 
Q 2147 4134 1753 4134 
Q 1366 4134 1134 3806 
Q 844 3388 844 2259 
z
" transform="scale(0.015625)"/>
       </defs>
       <use xlink:href="#ArialMT-31" transform="translate(0 0.99375)"/>
       <use xlink:href="#ArialMT-30" transform="translate(55.615234 0.99375)"/>
       <use xlink:href="#ArialMT-31" transform="translate(112.972813 70.6875)scale(0.7)"/>
      </g>
     </g>
    </g>
    <g id="xtick_2">
     <g id="line2d_2">
      <g>
       <use xlink:href="#mececf0f078" x="146.403815" y="69.96239" style="fill-opacity: 0; stroke: #000000; stroke-width: 0.5"/>
      </g>
     </g>
     <g id="text_2">
      <!-- $\mathdefault{10^{2}}$ -->
      <g transform="translate(140.123815 80.21239)scale(0.08 -0.08)">
       <defs>
        <path id="ArialMT-32" d="M 3222 541 
L 3222 0 
L 194 0 
Q 188 203 259 391 
Q 375 700 629 1000 
Q 884 1300 1366 1694 
Q 2113 2306 2375 2664 
Q 2638 3022 2638 3341 
Q 2638 3675 2398 3904 
Q 2159 4134 1775 4134 
Q 1369 4134 1125 3890 
Q 881 3647 878 3216 
L 300 3275 
Q 359 3922 746 4261 
Q 1134 4600 1788 4600 
Q 2447 4600 2831 4234 
Q 3216 3869 3216 3328 
Q 3216 3053 3103 2787 
Q 2991 2522 2730 2228 
Q 2469 1934 1863 1422 
Q 1356 997 1212 845 
Q 1069 694 975 541 
L 3222 541 
z
" transform="scale(0.015625)"/>
       </defs>
       <use xlink:href="#ArialMT-31" transform="translate(0 0.99375)"/>
       <use xlink:href="#ArialMT-30" transform="translate(55.615234 0.99375)"/>
       <use xlink:href="#ArialMT-32" transform="translate(112.972813 70.6875)scale(0.7)"/>
      </g>
     </g>
    </g>
    <g id="xtick_3">
     <g id="line2d_3">
      <defs>
       <path id="m08e2b187c6" d="M 0 0 
L 0 -3 
" style="stroke: #000000; stroke-width: 0.5"/>
      </defs>
      <g>
       <use xlink:href="#m08e2b187c6" x="35.32" y="69.96239" style="fill-opacity: 0; stroke: #000000; stroke-width: 0.5"/>
      </g>
     </g>
    </g>
    <g id="xtick_4">
     <g id="line2d_4">
      <g>
       <use xlink:href="#m08e2b187c6" x="42.080609" y="69.96239" style="fill-opacity: 0; stroke: #000000; stroke-width: 0.5"/>
      </g>
     </g>
    </g>
    <g id="xtick_5">
     <g id="line2d_5">
      <g>
       <use xlink:href="#m08e2b187c6" x="47.796622" y="69.96239" style="fill-opacity: 0; stroke: #000000; stroke-width: 0.5"/>
      </g>
     </g>
    </g>
    <g id="xtick_6">
     <g id="line2d_6">
      <g>
       <use xlink:href="#m08e2b187c6" x="52.748058" y="69.96239" style="fill-opacity: 0; stroke: #000000; stroke-width: 0.5"/>
      </g>
     </g>
    </g>
    <g id="xtick_7">
     <g id="line2d_7">
      <g>
       <use xlink:href="#m08e2b187c6" x="57.115534" y="69.96239" style="fill-opacity: 0; stroke: #000000; stroke-width: 0.5"/>
      </g>
     </g>
    </g>
    <g id="xtick_8">
     <g id="line2d_8">
      <g>
       <use xlink:href="#m08e2b187c6" x="86.724749" y="69.96239" style="fill-opacity: 0; stroke: #000000; stroke-width: 0.5"/>
      </g>
     </g>
    </g>
    <g id="xtick_9">
     <g id="line2d_9">
      <g>
       <use xlink:href="#m08e2b187c6" x="101.759674" y="69.96239" style="fill-opacity: 0; stroke: #000000; stroke-width: 0.5"/>
      </g>
     </g>
    </g>
    <g id="xtick_10">
     <g id="line2d_10">
      <g>
       <use xlink:href="#m08e2b187c6" x="112.427124" y="69.96239" style="fill-opacity: 0; stroke: #000000; stroke-width: 0.5"/>
      </g>
     </g>
    </g>
    <g id="xtick_11">
     <g id="line2d_11">
      <g>
       <use xlink:href="#m08e2b187c6" x="120.70144" y="69.96239" style="fill-opacity: 0; stroke: #000000; stroke-width: 0.5"/>
      </g>
     </g>
    </g>
    <g id="xtick_12">
     <g id="line2d_12">
      <g>
       <use xlink:href="#m08e2b187c6" x="127.462049" y="69.96239" style="fill-opacity: 0; stroke: #000000; stroke-width: 0.5"/>
      </g>
     </g>
    </g>
    <g id="xtick_13">
     <g id="line2d_13">
      <g>
       <use xlink:href="#m08e2b187c6" x="133.178062" y="69.96239" style="fill-opacity: 0; stroke: #000000; stroke-width: 0.5"/>
      </g>
     </g>
    </g>
    <g id="xtick_14">
     <g id="line2d_14">
      <g>
       <use xlink:href="#m08e2b187c6" x="138.129498" y="69.96239" style="fill-opacity: 0; stroke: #000000; stroke-width: 0.5"/>
      </g>
     </g>
    </g>
    <g id="xtick_15">
     <g id="line2d_15">
      <g>
       <use xlink:href="#m08e2b187c6" x="142.496974" y="69.96239" style="fill-opacity: 0; stroke: #000000; stroke-width: 0.5"/>
      </g>
     </g>
    </g>
    <g id="text_3">
     <!-- $\Delta_b (mm)$ -->
     <g transform="translate(82.77937 89.73239)scale(0.08 -0.08)">
      <defs>
       <path id="DejaVuSans-394" d="M 2188 4044 
L 906 525 
L 3472 525 
L 2188 4044 
z
M 50 0 
L 1831 4666 
L 2547 4666 
L 4325 0 
L 50 0 
z
" transform="scale(0.015625)"/>
       <path id="DejaVuSans-Oblique-62" d="M 3169 2138 
Q 3169 2591 2961 2847 
Q 2753 3103 2388 3103 
Q 2122 3103 1889 2973 
Q 1656 2844 1484 2597 
Q 1303 2338 1198 1995 
Q 1094 1653 1094 1313 
Q 1094 881 1298 636 
Q 1503 391 1863 391 
Q 2134 391 2365 517 
Q 2597 644 2772 891 
Q 2950 1147 3059 1487 
Q 3169 1828 3169 2138 
z
M 1381 2969 
Q 1594 3256 1914 3420 
Q 2234 3584 2584 3584 
Q 3122 3584 3439 3221 
Q 3756 2859 3756 2241 
Q 3756 1734 3570 1259 
Q 3384 784 3041 416 
Q 2816 172 2522 40 
Q 2228 -91 1906 -91 
Q 1566 -91 1316 65 
Q 1066 222 909 531 
L 806 0 
L 231 0 
L 1178 4863 
L 1753 4863 
L 1381 2969 
z
" transform="scale(0.015625)"/>
       <path id="DejaVuSans-28" d="M 1984 4856 
Q 1566 4138 1362 3434 
Q 1159 2731 1159 2009 
Q 1159 1288 1364 580 
Q 1569 -128 1984 -844 
L 1484 -844 
Q 1016 -109 783 600 
Q 550 1309 550 2009 
Q 550 2706 781 3412 
Q 1013 4119 1484 4856 
L 1984 4856 
z
" transform="scale(0.015625)"/>
       <path id="DejaVuSans-Oblique-6d" d="M 5747 2113 
L 5338 0 
L 4763 0 
L 5166 2094 
Q 5191 2228 5203 2325 
Q 5216 2422 5216 2491 
Q 5216 2772 5059 2928 
Q 4903 3084 4622 3084 
Q 4203 3084 3875 2770 
Q 3547 2456 3450 1953 
L 3066 0 
L 2491 0 
L 2900 2094 
Q 2925 2209 2937 2307 
Q 2950 2406 2950 2484 
Q 2950 2769 2794 2926 
Q 2638 3084 2363 3084 
Q 1938 3084 1609 2770 
Q 1281 2456 1184 1953 
L 800 0 
L 225 0 
L 909 3500 
L 1484 3500 
L 1375 2956 
Q 1609 3263 1923 3423 
Q 2238 3584 2597 3584 
Q 2978 3584 3223 3384 
Q 3469 3184 3519 2828 
Q 3781 3197 4126 3390 
Q 4472 3584 4856 3584 
Q 5306 3584 5551 3325 
Q 5797 3066 5797 2591 
Q 5797 2488 5784 2364 
Q 5772 2241 5747 2113 
z
" transform="scale(0.015625)"/>
       <path id="DejaVuSans-29" d="M 513 4856 
L 1013 4856 
Q 1481 4119 1714 3412 
Q 1947 2706 1947 2009 
Q 1947 1309 1714 600 
Q 1481 -109 1013 -844 
L 513 -844 
Q 928 -128 1133 580 
Q 1338 1288 1338 2009 
Q 1338 2731 1133 3434 
Q 928 4138 513 4856 
z
" transform="scale(0.015625)"/>
      </defs>
      <use xlink:href="#DejaVuSans-394" transform="translate(0 0.125)"/>
      <use xlink:href="#DejaVuSans-Oblique-62" transform="translate(69.365234 -16.28125)scale(0.7)"/>
      <use xlink:href="#DejaVuSans-28" transform="translate(116.533203 0.125)"/>
      <use xlink:href="#DejaVuSans-Oblique-6d" transform="translate(155.546875 0.125)"/>
      <use xlink:href="#DejaVuSans-Oblique-6d" transform="translate(252.958984 0.125)"/>
      <use xlink:href="#DejaVuSans-29" transform="translate(350.371094 0.125)"/>
     </g>
    </g>
   </g>
   <g id="matplotlib.axis_2">
    <g id="ytick_1">
     <g id="line2d_16">
      <defs>
       <path id="m3f531051db" d="M 0 0 
L 5 0 
" style="stroke: #000000; stroke-width: 0.5"/>
      </defs>
      <g>
       <use xlink:href="#m3f531051db" x="35.32" y="69.96239" style="fill-opacity: 0; stroke: #000000; stroke-width: 0.5"/>
      </g>
     </g>
     <g id="text_4">
      <!-- 0.00 -->
      <g transform="translate(17.75125 72.825515)scale(0.08 -0.08)">
       <defs>
        <path id="ArialMT-2e" d="M 581 0 
L 581 641 
L 1222 641 
L 1222 0 
L 581 0 
z
" transform="scale(0.015625)"/>
       </defs>
       <use xlink:href="#ArialMT-30"/>
       <use xlink:href="#ArialMT-2e" x="55.615234"/>
       <use xlink:href="#ArialMT-30" x="83.398438"/>
       <use xlink:href="#ArialMT-30" x="139.013672"/>
      </g>
     </g>
    </g>
    <g id="ytick_2">
     <g id="line2d_17">
      <g>
       <use xlink:href="#m3f531051db" x="35.32" y="55.351792" style="fill-opacity: 0; stroke: #000000; stroke-width: 0.5"/>
      </g>
     </g>
     <g id="text_5">
      <!-- 0.25 -->
      <g transform="translate(17.75125 58.214917)scale(0.08 -0.08)">
       <defs>
        <path id="ArialMT-35" d="M 266 1200 
L 856 1250 
Q 922 819 1161 601 
Q 1400 384 1738 384 
Q 2144 384 2425 690 
Q 2706 997 2706 1503 
Q 2706 1984 2436 2262 
Q 2166 2541 1728 2541 
Q 1456 2541 1237 2417 
Q 1019 2294 894 2097 
L 366 2166 
L 809 4519 
L 3088 4519 
L 3088 3981 
L 1259 3981 
L 1013 2750 
Q 1425 3038 1878 3038 
Q 2478 3038 2890 2622 
Q 3303 2206 3303 1553 
Q 3303 931 2941 478 
Q 2500 -78 1738 -78 
Q 1113 -78 717 272 
Q 322 622 266 1200 
z
" transform="scale(0.015625)"/>
       </defs>
       <use xlink:href="#ArialMT-30"/>
       <use xlink:href="#ArialMT-2e" x="55.615234"/>
       <use xlink:href="#ArialMT-32" x="83.398438"/>
       <use xlink:href="#ArialMT-35" x="139.013672"/>
      </g>
     </g>
    </g>
    <g id="ytick_3">
     <g id="line2d_18">
      <g>
       <use xlink:href="#m3f531051db" x="35.32" y="40.741195" style="fill-opacity: 0; stroke: #000000; stroke-width: 0.5"/>
      </g>
     </g>
     <g id="text_6">
      <!-- 0.50 -->
      <g transform="translate(17.75125 43.60432)scale(0.08 -0.08)">
       <use xlink:href="#ArialMT-30"/>
       <use xlink:href="#ArialMT-2e" x="55.615234"/>
       <use xlink:href="#ArialMT-35" x="83.398438"/>
       <use xlink:href="#ArialMT-30" x="139.013672"/>
      </g>
     </g>
    </g>
    <g id="ytick_4">
     <g id="line2d_19">
      <g>
       <use xlink:href="#m3f531051db" x="35.32" y="26.130597" style="fill-opacity: 0; stroke: #000000; stroke-width: 0.5"/>
      </g>
     </g>
     <g id="text_7">
      <!-- 0.75 -->
      <g transform="translate(17.75125 28.993722)scale(0.08 -0.08)">
       <defs>
        <path id="ArialMT-37" d="M 303 3981 
L 303 4522 
L 3269 4522 
L 3269 4084 
Q 2831 3619 2401 2847 
Q 1972 2075 1738 1259 
Q 1569 684 1522 0 
L 944 0 
Q 953 541 1156 1306 
Q 1359 2072 1739 2783 
Q 2119 3494 2547 3981 
L 303 3981 
z
" transform="scale(0.015625)"/>
       </defs>
       <use xlink:href="#ArialMT-30"/>
       <use xlink:href="#ArialMT-2e" x="55.615234"/>
       <use xlink:href="#ArialMT-37" x="83.398438"/>
       <use xlink:href="#ArialMT-35" x="139.013672"/>
      </g>
     </g>
    </g>
    <g id="ytick_5">
     <g id="line2d_20">
      <g>
       <use xlink:href="#m3f531051db" x="35.32" y="11.52" style="fill-opacity: 0; stroke: #000000; stroke-width: 0.5"/>
      </g>
     </g>
     <g id="text_8">
      <!-- 1.00 -->
      <g transform="translate(17.75125 14.383125)scale(0.08 -0.08)">
       <use xlink:href="#ArialMT-31"/>
       <use xlink:href="#ArialMT-2e" x="55.615234"/>
       <use xlink:href="#ArialMT-30" x="83.398438"/>
       <use xlink:href="#ArialMT-30" x="139.013672"/>
      </g>
     </g>
    </g>
    <g id="ytick_6">
     <g id="line2d_21">
      <defs>
       <path id="mf8e9e6caa6" d="M 0 0 
L 3 0 
" style="stroke: #000000; stroke-width: 0.5"/>
      </defs>
      <g>
       <use xlink:href="#mf8e9e6caa6" x="35.32" y="67.04027" style="fill-opacity: 0; stroke: #000000; stroke-width: 0.5"/>
      </g>
     </g>
    </g>
    <g id="ytick_7">
     <g id="line2d_22">
      <g>
       <use xlink:href="#mf8e9e6caa6" x="35.32" y="64.118151" style="fill-opacity: 0; stroke: #000000; stroke-width: 0.5"/>
      </g>
     </g>
    </g>
    <g id="ytick_8">
     <g id="line2d_23">
      <g>
       <use xlink:href="#mf8e9e6caa6" x="35.32" y="61.196031" style="fill-opacity: 0; stroke: #000000; stroke-width: 0.5"/>
      </g>
     </g>
    </g>
    <g id="ytick_9">
     <g id="line2d_24">
      <g>
       <use xlink:href="#mf8e9e6caa6" x="35.32" y="58.273912" style="fill-opacity: 0; stroke: #000000; stroke-width: 0.5"/>
      </g>
     </g>
    </g>
    <g id="ytick_10">
     <g id="line2d_25">
      <g>
       <use xlink:href="#mf8e9e6caa6" x="35.32" y="52.429673" style="fill-opacity: 0; stroke: #000000; stroke-width: 0.5"/>
      </g>
     </g>
    </g>
    <g id="ytick_11">
     <g id="line2d_26">
      <g>
       <use xlink:href="#mf8e9e6caa6" x="35.32" y="49.507553" style="fill-opacity: 0; stroke: #000000; stroke-width: 0.5"/>
      </g>
     </g>
    </g>
    <g id="ytick_12">
     <g id="line2d_27">
      <g>
       <use xlink:href="#mf8e9e6caa6" x="35.32" y="46.585434" style="fill-opacity: 0; stroke: #000000; stroke-width: 0.5"/>
      </g>
     </g>
    </g>
    <g id="ytick_13">
     <g id="line2d_28">
      <g>
       <use xlink:href="#mf8e9e6caa6" x="35.32" y="43.663314" style="fill-opacity: 0; stroke: #000000; stroke-width: 0.5"/>
      </g>
     </g>
    </g>
    <g id="ytick_14">
     <g id="line2d_29">
      <g>
       <use xlink:href="#mf8e9e6caa6" x="35.32" y="37.819075" style="fill-opacity: 0; stroke: #000000; stroke-width: 0.5"/>
      </g>
     </g>
    </g>
    <g id="ytick_15">
     <g id="line2d_30">
      <g>
       <use xlink:href="#mf8e9e6caa6" x="35.32" y="34.896956" style="fill-opacity: 0; stroke: #000000; stroke-width: 0.5"/>
      </g>
     </g>
    </g>
    <g id="ytick_16">
     <g id="line2d_31">
      <g>
       <use xlink:href="#mf8e9e6caa6" x="35.32" y="31.974836" style="fill-opacity: 0; stroke: #000000; stroke-width: 0.5"/>
      </g>
     </g>
    </g>
    <g id="ytick_17">
     <g id="line2d_32">
      <g>
       <use xlink:href="#mf8e9e6caa6" x="35.32" y="29.052717" style="fill-opacity: 0; stroke: #000000; stroke-width: 0.5"/>
      </g>
     </g>
    </g>
    <g id="ytick_18">
     <g id="line2d_33">
      <g>
       <use xlink:href="#mf8e9e6caa6" x="35.32" y="23.208478" style="fill-opacity: 0; stroke: #000000; stroke-width: 0.5"/>
      </g>
     </g>
    </g>
    <g id="ytick_19">
     <g id="line2d_34">
      <g>
       <use xlink:href="#mf8e9e6caa6" x="35.32" y="20.286358" style="fill-opacity: 0; stroke: #000000; stroke-width: 0.5"/>
      </g>
     </g>
    </g>
    <g id="ytick_20">
     <g id="line2d_35">
      <g>
       <use xlink:href="#mf8e9e6caa6" x="35.32" y="17.364239" style="fill-opacity: 0; stroke: #000000; stroke-width: 0.5"/>
      </g>
     </g>
    </g>
    <g id="ytick_21">
     <g id="line2d_36">
      <g>
       <use xlink:href="#mf8e9e6caa6" x="35.32" y="14.442119" style="fill-opacity: 0; stroke: #000000; stroke-width: 0.5"/>
      </g>
     </g>
    </g>
    <g id="text_9">
     <!-- CDF -->
     <g transform="translate(14.16125 48.96182)rotate(-90)scale(0.08 -0.08)">
      <defs>
       <path id="ArialMT-43" d="M 3763 1606 
L 4369 1453 
Q 4178 706 3683 314 
Q 3188 -78 2472 -78 
Q 1731 -78 1267 223 
Q 803 525 561 1097 
Q 319 1669 319 2325 
Q 319 3041 592 3573 
Q 866 4106 1370 4382 
Q 1875 4659 2481 4659 
Q 3169 4659 3637 4309 
Q 4106 3959 4291 3325 
L 3694 3184 
Q 3534 3684 3231 3912 
Q 2928 4141 2469 4141 
Q 1941 4141 1586 3887 
Q 1231 3634 1087 3207 
Q 944 2781 944 2328 
Q 944 1744 1114 1308 
Q 1284 872 1643 656 
Q 2003 441 2422 441 
Q 2931 441 3284 734 
Q 3638 1028 3763 1606 
z
" transform="scale(0.015625)"/>
       <path id="ArialMT-44" d="M 494 0 
L 494 4581 
L 2072 4581 
Q 2606 4581 2888 4516 
Q 3281 4425 3559 4188 
Q 3922 3881 4101 3404 
Q 4281 2928 4281 2316 
Q 4281 1794 4159 1391 
Q 4038 988 3847 723 
Q 3656 459 3429 307 
Q 3203 156 2883 78 
Q 2563 0 2147 0 
L 494 0 
z
M 1100 541 
L 2078 541 
Q 2531 541 2789 625 
Q 3047 709 3200 863 
Q 3416 1078 3536 1442 
Q 3656 1806 3656 2325 
Q 3656 3044 3420 3430 
Q 3184 3816 2847 3947 
Q 2603 4041 2063 4041 
L 1100 4041 
L 1100 541 
z
" transform="scale(0.015625)"/>
       <path id="ArialMT-46" d="M 525 0 
L 525 4581 
L 3616 4581 
L 3616 4041 
L 1131 4041 
L 1131 2622 
L 3281 2622 
L 3281 2081 
L 1131 2081 
L 1131 0 
L 525 0 
z
" transform="scale(0.015625)"/>
      </defs>
      <use xlink:href="#ArialMT-43"/>
      <use xlink:href="#ArialMT-44" x="72.216797"/>
      <use xlink:href="#ArialMT-46" x="144.433594"/>
     </g>
    </g>
   </g>
   <g id="line2d_37">
    <path d="M -1 69.876298 
L 17.031174 69.673785 
L 17.634126 69.601634 
L 30.017041 69.168728 
L 32.055946 69.024425 
L 37.901123 68.807972 
L 38.298727 68.735821 
L 47.793192 68.519368 
L 48.438814 68.447217 
L 51.440407 68.302914 
L 51.466364 68.230763 
L 54.45567 67.942159 
L 66.120701 67.509252 
L 69.06563 67.004195 
L 69.156119 66.859893 
L 72.763528 66.643439 
L 73.509442 66.499137 
L 76.359958 66.210533 
L 76.70223 66.06623 
L 76.941987 65.994079 
L 78.700509 65.777626 
L 78.804116 65.705475 
L 83.278235 65.344719 
L 83.947557 65.056115 
L 88.168043 64.334604 
L 88.314912 64.190302 
L 89.236843 64.046 
L 89.601962 63.901697 
L 89.619016 63.829546 
L 90.162701 63.540942 
L 91.096054 63.324489 
L 91.301432 63.180187 
L 92.376309 62.891582 
L 92.408295 62.819431 
L 94.218297 61.881467 
L 94.239325 61.809316 
L 94.959704 61.665013 
L 95.029041 61.592862 
L 96.217008 61.232107 
L 96.442384 61.015654 
L 96.46783 60.871351 
L 97.431432 60.438445 
L 98.159417 60.14984 
L 98.808088 59.644783 
L 98.9418 59.428329 
L 99.183269 59.284027 
L 100.462556 58.77897 
L 100.555841 58.562516 
L 101.264592 58.273912 
L 101.296131 58.12961 
L 101.820176 57.841005 
L 102.010535 57.624552 
L 102.6688 57.047343 
L 102.696473 56.975192 
L 103.231271 56.758739 
L 103.360342 56.542285 
L 103.381671 56.470134 
L 103.839032 56.253681 
L 104.192627 55.892926 
L 104.565866 55.748623 
L 105.091348 55.099263 
L 105.235359 54.88281 
L 105.387249 54.666357 
L 105.50876 54.522055 
L 106.034238 54.305601 
L 106.226051 54.089148 
L 106.442959 53.944846 
L 106.502491 53.800544 
L 106.933344 53.439788 
L 107.033405 53.295486 
L 107.393385 53.151184 
L 107.990908 52.21322 
L 108.281275 52.068917 
L 108.342596 51.924615 
L 108.528388 51.708162 
L 108.985091 50.409442 
L 110.19991 49.038571 
L 110.661977 48.822118 
L 111.723981 47.956305 
L 112.142876 47.523398 
L 112.707644 47.379096 
L 112.862548 47.306945 
L 113.571302 47.162643 
L 113.735065 46.874038 
L 114.249756 46.080376 
L 114.574049 45.791772 
L 114.774462 45.431016 
L 115.133191 44.99811 
L 115.43771 44.493052 
L 115.60577 44.34875 
L 116.112778 43.69939 
L 116.370599 43.482937 
L 116.732205 42.905728 
L 116.827185 42.689275 
L 116.908908 42.472821 
L 117.772427 42.039915 
L 118.140328 41.75131 
L 118.773571 41.174101 
L 119.281935 40.163986 
L 119.591303 39.947533 
L 119.721335 39.73108 
L 120.222305 39.442475 
L 120.296994 39.153871 
L 120.568651 39.009569 
L 120.69184 38.793115 
L 120.939766 38.504511 
L 121.327408 38.288058 
L 121.329219 38.215906 
L 121.734021 38.071604 
L 121.812379 37.783 
L 122.364837 37.13364 
L 122.552607 36.989338 
L 122.629256 36.772884 
L 123.076703 36.412129 
L 123.200761 36.051373 
L 123.526231 35.83492 
L 124.233136 35.257711 
L 124.530015 34.969107 
L 125.096995 34.247596 
L 125.339539 33.958992 
L 125.509844 33.742538 
L 125.762355 33.453934 
L 126.469292 32.804574 
L 126.492088 32.660272 
L 126.886564 32.443819 
L 126.975858 32.227365 
L 127.25101 32.083063 
L 127.344368 31.86661 
L 127.662643 31.650156 
L 127.735705 31.505854 
L 128.001351 31.21725 
L 128.082461 31.000797 
L 128.407382 30.784343 
L 128.768555 30.279286 
L 129.399639 29.91853 
L 129.42419 29.846379 
L 129.766886 29.629926 
L 129.948921 29.413472 
L 130.102809 29.26917 
L 130.391589 28.547659 
L 130.893526 28.114753 
L 131.012917 27.826148 
L 131.283422 27.393242 
L 131.547379 27.104637 
L 131.678538 26.816033 
L 133.066102 25.878069 
L 133.327755 25.661615 
L 133.533166 25.30086 
L 133.926342 24.940104 
L 134.124534 24.6515 
L 134.509268 24.507198 
L 134.569415 24.362896 
L 134.8093 24.146442 
L 134.831551 24.074291 
L 135.595158 23.713536 
L 135.650562 23.424931 
L 135.873598 23.280629 
L 135.87647 23.208478 
L 136.113957 22.992025 
L 136.230887 22.631269 
L 136.765296 22.486967 
L 136.790075 22.414816 
L 137.070424 22.198363 
L 137.393783 21.981909 
L 137.699856 21.4047 
L 138.450242 20.68319 
L 138.867117 20.538887 
L 138.992394 20.250283 
L 139.687561 19.889527 
L 139.792074 19.745225 
L 140.000854 19.673074 
L 141.052181 19.456621 
L 141.196888 19.312319 
L 141.558956 19.095865 
L 141.599851 19.023714 
L 143.244621 18.590808 
L 143.307173 18.518657 
L 143.719715 18.374354 
L 143.758773 18.302203 
L 145.541321 17.43639 
L 146.471265 16.859181 
L 146.670764 16.714879 
L 147.36147 16.570577 
L 148.720713 16.281972 
L 148.78232 16.209821 
L 150.101576 15.849066 
L 156.551038 14.550346 
L 157.938916 14.11744 
L 157.985034 14.045288 
L 158.581129 13.900986 
L 158.677217 13.828835 
L 161.706248 13.323777 
L 161.753894 13.251626 
L 164.267671 13.035173 
L 165.291061 12.81872 
L 169.408869 12.602266 
L 171.07874 12.430647 
L 171.07874 12.430647 
" clip-path="url(#pf42cb130e6)" style="fill: none; stroke: #000000; stroke-width: 1.2; stroke-linecap: square"/>
   </g>
   <g id="line2d_38">
    <path d="M 69.155997 69.890239 
L 70.015264 69.745936 
L 71.336071 69.096577 
L 71.516124 68.230763 
L 71.79052 67.076346 
L 72.220387 66.859893 
L 72.706019 66.426986 
L 73.145758 66.210533 
L 75.330486 65.921928 
L 83.966765 64.406755 
L 84.515781 63.973849 
L 84.671052 63.829546 
L 85.549366 63.613093 
L 87.571208 62.891582 
L 87.918462 62.74728 
L 87.949896 62.675129 
L 88.317854 62.530827 
L 88.422588 62.386524 
L 88.766305 62.170071 
L 88.840866 62.025769 
L 90.049881 61.592862 
L 90.112673 61.520711 
L 90.449689 61.376409 
L 90.673796 61.159956 
L 90.774951 60.943502 
L 91.069388 60.727049 
L 92.193067 60.366294 
L 92.334555 60.14984 
L 92.544552 60.005538 
L 92.906952 59.861236 
L 92.988974 59.572632 
L 93.783827 59.211876 
L 93.848483 59.139725 
L 94.310843 58.923272 
L 94.48858 58.706818 
L 95.081072 58.273912 
L 95.429004 58.12961 
L 95.430158 58.057459 
L 95.840033 57.841005 
L 95.888958 57.696703 
L 96.484005 57.335948 
L 96.484583 57.263796 
L 96.717947 57.047343 
L 96.95052 56.614437 
L 97.28894 56.397983 
L 97.437523 56.18153 
L 97.815072 56.037228 
L 99.221951 54.738508 
L 99.275675 54.522055 
L 99.679609 54.305601 
L 100.986054 53.079033 
L 101.045232 53.006882 
L 101.540293 52.718277 
L 102.225502 52.357522 
L 102.228636 52.285371 
L 102.449928 52.141068 
L 102.498512 51.924615 
L 102.908588 51.347406 
L 103.284077 50.842349 
L 103.495145 50.698046 
L 103.530208 50.553744 
L 104.169813 50.26514 
L 104.42544 50.048687 
L 104.6549 49.832233 
L 104.756089 49.687931 
L 106.141728 48.605665 
L 106.312781 48.461362 
L 106.549828 48.31706 
L 106.659188 48.172758 
L 107.116124 48.028456 
L 107.209832 47.884154 
L 107.29764 47.6677 
L 107.470855 47.451247 
L 107.593026 47.162643 
L 108.335293 46.368981 
L 108.785704 46.080376 
L 108.904233 45.863923 
L 109.703766 44.781656 
L 109.838561 44.34875 
L 110.241651 43.987994 
L 110.382521 43.843692 
L 110.472547 43.69939 
L 110.880715 43.410786 
L 110.92938 43.266483 
L 111.383964 43.05003 
L 111.842991 42.472821 
L 112.216853 42.112066 
L 112.421559 41.823461 
L 112.568326 41.607008 
L 112.84806 41.246253 
L 113.004058 40.885497 
L 113.212128 40.669044 
L 113.656156 40.236137 
L 113.842484 40.091835 
L 114.079339 39.73108 
L 114.217377 39.586777 
L 114.718127 39.298173 
L 114.838194 38.865266 
L 114.982512 38.648813 
L 116.073096 37.205791 
L 116.373019 36.412129 
L 116.512982 36.123525 
L 116.593957 35.83492 
L 117.103853 35.618467 
L 117.549556 34.896956 
L 117.811269 34.752654 
L 117.878185 34.5362 
L 118.157518 34.319747 
L 118.201035 34.175445 
L 118.429737 33.886841 
L 118.517978 33.670387 
L 118.943592 33.381783 
L 119.040579 33.16533 
L 119.3964 32.948876 
L 119.566853 32.660272 
L 119.87141 32.443819 
L 120.04372 32.083063 
L 120.94111 31.505854 
L 120.954316 31.433703 
L 121.40116 31.289401 
L 122.67849 30.207135 
L 123.49497 29.774228 
L 124.222939 28.908415 
L 125.516779 27.97045 
L 126.138337 27.176788 
L 126.76616 26.960335 
L 127.740731 26.383126 
L 129.111692 25.445162 
L 129.146624 25.373011 
L 130.128866 25.156558 
L 130.47142 24.867953 
L 130.570506 24.6515 
L 130.670698 24.507198 
L 131.196561 24.290744 
L 131.413971 24.146442 
L 131.755697 23.857838 
L 131.945021 23.569233 
L 132.105601 23.35278 
L 133.297616 23.136327 
L 133.714425 22.70342 
L 134.168724 22.342665 
L 134.182576 22.270514 
L 136.08257 21.476852 
L 136.927389 21.188247 
L 137.31071 20.827492 
L 137.750535 20.178132 
L 137.912672 20.105981 
L 138.846994 19.889527 
L 139.868909 19.456621 
L 140.063405 19.312319 
L 140.963634 18.879412 
L 141.007864 18.662959 
L 145.086935 16.931332 
L 145.406764 16.78703 
L 145.831909 16.570577 
L 145.891274 16.498426 
L 148.448648 15.632613 
L 148.567906 15.48831 
L 149.035433 15.271857 
L 149.158284 15.127555 
L 151.209623 14.622497 
L 152.137432 14.261742 
L 152.922202 13.828835 
L 155.187109 13.540231 
L 155.519584 13.323777 
L 156.093805 13.107324 
L 156.118817 13.035173 
L 158.354717 12.530115 
L 159.056893 12.241511 
L 161.835713 11.808604 
L 161.862976 11.736453 
L 162.075 11.664302 
L 166.098288 11.52 
L 166.098288 11.52 
" clip-path="url(#pf42cb130e6)" style="fill: none; stroke-dasharray: 5.12,1.28,0.8,1.28; stroke-dashoffset: 0; stroke: #3c5488; stroke-width: 0.8"/>
   </g>
   <g id="line2d_39">
    <path d="M 12.680326 69.890239 
L 13.053809 69.818088 
L 21.036124 69.385181 
L 24.068753 69.240879 
L 24.234358 69.168728 
L 33.516493 68.952274 
L 34.055573 68.880123 
L 47.188667 68.447217 
L 49.083917 68.230763 
L 49.529381 68.086461 
L 70.135933 67.148497 
L 70.304088 67.076346 
L 76.09885 66.282684 
L 76.75981 66.06623 
L 79.524325 65.777626 
L 82.679895 65.633324 
L 85.63166 64.551057 
L 85.669312 64.478906 
L 86.563412 64.262453 
L 87.102697 64.046 
L 88.917495 63.829546 
L 89.606294 63.685244 
L 89.949572 63.540942 
L 89.954741 63.468791 
L 90.092949 63.39664 
L 90.905034 63.252338 
L 90.995541 63.035884 
L 91.987438 62.530827 
L 92.048372 62.458676 
L 92.56511 62.314373 
L 92.66034 62.170071 
L 93.869776 61.953618 
L 94.126724 61.809316 
L 94.377684 61.665013 
L 94.382098 61.592862 
L 94.700811 61.44856 
L 94.759152 61.159956 
L 95.4723 60.943502 
L 95.484753 60.871351 
L 96.122708 60.654898 
L 96.537892 60.438445 
L 96.551681 60.366294 
L 97.537465 60.005538 
L 98.416049 59.284027 
L 99.032522 59.067574 
L 99.211221 58.923272 
L 99.674914 58.706818 
L 100.452323 58.057459 
L 100.527647 57.985307 
L 101.198169 57.768854 
L 101.324706 57.408099 
L 101.600206 57.119494 
L 102.181721 56.903041 
L 102.598003 56.614437 
L 102.613543 56.542285 
L 103.7638 55.965077 
L 103.784827 55.892926 
L 104.397942 55.53217 
L 104.498464 55.243566 
L 104.848172 54.954961 
L 104.938347 54.666357 
L 105.422264 54.377752 
L 105.695539 54.23345 
L 106.323985 53.58409 
L 106.80182 53.295486 
L 107.384923 52.790428 
L 107.502315 52.501824 
L 107.766196 52.357522 
L 107.777815 52.21322 
L 108.181936 51.924615 
L 108.219204 51.780313 
L 108.635694 51.491709 
L 108.678603 51.419557 
L 109.298155 51.203104 
L 109.529914 50.770198 
L 110.186759 50.192989 
L 110.329908 49.904384 
L 110.430087 49.687931 
L 110.464942 49.61578 
L 110.920365 49.399327 
L 111.156879 49.038571 
L 111.166879 48.96642 
L 111.392887 48.749967 
L 111.832533 48.100607 
L 112.273541 47.6677 
L 112.776904 47.090492 
L 112.836033 46.946189 
L 113.306201 46.441132 
L 114.050455 45.142412 
L 114.33216 44.99811 
L 114.381676 44.781656 
L 114.644393 44.565203 
L 114.738535 44.34875 
L 115.071882 44.060145 
L 115.213671 43.771541 
L 115.418002 43.555088 
L 115.600275 43.410786 
L 115.786706 42.977879 
L 116.017583 42.761426 
L 116.036647 42.689275 
L 116.28775 42.472821 
L 116.570221 41.967764 
L 116.703488 41.823461 
L 116.846014 41.679159 
L 116.87267 41.534857 
L 117.581769 41.10195 
L 117.685831 40.957648 
L 118.620252 40.236137 
L 118.642396 40.091835 
L 118.73451 39.947533 
L 118.840592 39.803231 
L 119.230082 39.153871 
L 119.609967 38.937417 
L 120.265996 38.360209 
L 120.533395 38.215906 
L 120.924981 37.566547 
L 121.223949 37.350093 
L 121.486428 36.845036 
L 122.463259 36.339978 
L 122.615931 36.051373 
L 122.818603 35.690618 
L 122.974667 35.402014 
L 123.129467 35.18556 
L 123.287724 34.969107 
L 123.536544 34.608352 
L 123.777725 34.175445 
L 124.217609 34.031143 
L 125.287345 32.660272 
L 125.810873 32.443819 
L 125.824613 32.299516 
L 126.829867 31.505854 
L 126.935898 31.145099 
L 127.36024 30.640041 
L 127.469512 30.495739 
L 127.750343 30.279286 
L 127.862773 29.990681 
L 128.149709 29.702077 
L 128.691581 29.124868 
L 128.958011 28.980566 
L 129.160183 28.691961 
L 129.442773 28.475508 
L 129.458409 28.331206 
L 130.048478 27.898299 
L 130.179382 27.681846 
L 130.447875 27.465393 
L 130.930813 27.248939 
L 131.220492 26.888184 
L 131.619355 26.59958 
L 132.094937 25.95022 
L 132.39879 25.805917 
L 132.719903 25.517313 
L 133.330042 24.940104 
L 133.492327 24.723651 
L 133.966527 24.435047 
L 134.69582 23.929989 
L 135.298006 23.35278 
L 136.116296 23.208478 
L 136.131437 23.064176 
L 136.929592 22.414816 
L 137.01136 22.270514 
L 137.107645 22.05406 
L 137.121362 21.981909 
L 138.067055 21.549003 
L 138.155309 21.4047 
L 138.594324 21.188247 
L 139.087568 20.971794 
L 139.942714 20.322434 
L 140.542536 20.105981 
L 140.596266 19.961679 
L 140.989304 19.745225 
L 142.355715 19.600923 
L 142.558229 19.38447 
L 142.597015 19.312319 
L 143.165081 19.095865 
L 143.170141 19.023714 
L 143.470862 18.73511 
L 143.553403 18.590808 
L 143.880461 18.446505 
L 144.546258 18.230052 
L 146.071388 17.580692 
L 146.244288 17.43639 
L 147.359317 17.219937 
L 147.383973 17.147786 
L 147.733425 17.003483 
L 148.835804 16.78703 
L 149.452274 16.354124 
L 149.949774 16.209821 
L 149.986355 16.13767 
L 151.162069 15.776915 
L 151.194968 15.704764 
L 151.537856 15.48831 
L 151.646367 15.344008 
L 152.202005 15.199706 
L 155.556577 14.838951 
L 156.774884 14.478195 
L 158.687843 14.045288 
L 159.526584 13.756684 
L 159.98968 13.540231 
L 161.428047 13.323777 
L 162.225116 13.107324 
L 165.128705 12.746569 
L 165.33428 12.602266 
L 167.24899 12.457964 
L 169.327843 12.025058 
L 170.324687 11.880755 
L 171.07874 11.868863 
L 171.07874 11.868863 
" clip-path="url(#pf42cb130e6)" style="fill: none; stroke-dasharray: 2.96,1.28; stroke-dashoffset: 0; stroke: #dc0000; stroke-width: 0.8"/>
   </g>
   <g id="patch_3">
    <path d="M 35.32 69.96239 
L 35.32 11.52 
" style="fill: none; stroke: #000000; stroke-width: 0.5; stroke-linejoin: miter; stroke-linecap: square"/>
   </g>
   <g id="patch_4">
    <path d="M 161.43874 69.96239 
L 161.43874 11.52 
" style="fill: none; stroke: #000000; stroke-width: 0.5; stroke-linejoin: miter; stroke-linecap: square"/>
   </g>
   <g id="patch_5">
    <path d="M 35.32 69.96239 
L 161.43874 69.96239 
" style="fill: none; stroke: #000000; stroke-width: 0.5; stroke-linejoin: miter; stroke-linecap: square"/>
   </g>
   <g id="patch_6">
    <path d="M 35.32 11.52 
L 161.43874 11.52 
" style="fill: none; stroke: #000000; stroke-width: 0.5; stroke-linejoin: miter; stroke-linecap: square"/>
   </g>
  </g>
 </g>
 <defs>
  <clipPath id="pf42cb130e6">
   <rect x="35.32" y="11.52" width="126.11874" height="58.44239"/>
  </clipPath>
 </defs>
</svg>
