<?xml version="1.0" encoding="utf-8" standalone="no"?>
<!DOCTYPE svg PUBLIC "-//W3C//DTD SVG 1.1//EN"
  "http://www.w3.org/Graphics/SVG/1.1/DTD/svg11.dtd">
<svg xmlns:xlink="http://www.w3.org/1999/xlink" width="170.07874pt" height="104.88189pt" viewBox="0 0 170.07874 104.88189" xmlns="http://www.w3.org/2000/svg" version="1.1">
 <metadata>
  <rdf:RDF xmlns:dc="http://purl.org/dc/elements/1.1/" xmlns:cc="http://creativecommons.org/ns#" xmlns:rdf="http://www.w3.org/1999/02/22-rdf-syntax-ns#">
   <cc:Work>
    <dc:type rdf:resource="http://purl.org/dc/dcmitype/StillImage"/>
    <dc:date>2025-01-06T16:39:30.293151</dc:date>
    <dc:format>image/svg+xml</dc:format>
    <dc:creator>
     <cc:Agent>
      <dc:title>Matplotlib v3.5.2, https://matplotlib.org/</dc:title>
     </cc:Agent>
    </dc:creator>
   </cc:Work>
  </rdf:RDF>
 </metadata>
 <defs>
  <style type="text/css">*{stroke-linejoin: round; stroke-linecap: butt}</style>
 </defs>
 <g id="figure_1">
  <g id="patch_1">
   <path d="M 0 104.88189 
L 170.07874 104.88189 
L 170.07874 0 
L 0 0 
z
" style="fill: #ffffff"/>
  </g>
  <g id="axes_1">
   <g id="patch_2">
    <path d="M 35.32 69.67439 
L 161.43874 69.67439 
L 161.43874 11.52 
L 35.32 11.52 
z
" style="fill: #ffffff"/>
   </g>
   <g id="PolyCollection_1">
    <path d="M -46.786669 69.602594 
L 37.432634 69.602594 
L 54.666949 69.530799 
L 55.180751 69.459003 
L 56.460111 69.387208 
L 56.481929 69.315412 
L 57.890517 69.243617 
L 58.176597 69.171821 
L 58.530439 69.100025 
L 61.181403 69.02823 
L 61.27345 68.956434 
L 64.234887 68.884639 
L 64.647643 68.812843 
L 65.319661 68.741048 
L 65.761031 68.669252 
L 66.814126 68.597457 
L 68.347722 68.525661 
L 70.274571 68.453866 
L 71.47012 68.38207 
L 73.528934 68.310274 
L 73.853056 68.238479 
L 75.000859 68.166683 
L 75.948117 68.094888 
L 76.048985 68.023092 
L 78.112522 67.951297 
L 78.601994 67.879501 
L 79.034419 67.807706 
L 79.099306 67.73591 
L 79.420129 67.664115 
L 79.468817 67.592319 
L 79.766914 67.520523 
L 81.646873 67.448728 
L 83.06507 67.376932 
L 83.461538 67.305137 
L 86.266235 67.233341 
L 86.792745 67.161546 
L 87.018489 67.08975 
L 87.219465 67.017955 
L 87.772491 66.946159 
L 87.812465 66.874364 
L 88.236993 66.802568 
L 88.462867 66.730773 
L 89.444209 66.658977 
L 89.619444 66.587181 
L 89.935757 66.515386 
L 90.010826 66.44359 
L 90.788951 66.371795 
L 91.50223 66.299999 
L 91.65373 66.228204 
L 91.668154 66.156408 
L 91.698919 66.084613 
L 92.456719 66.012817 
L 92.507904 65.941022 
L 92.681952 65.869226 
L 92.683948 65.79743 
L 93.403242 65.725635 
L 93.492287 65.653839 
L 93.55849 65.582044 
L 93.702174 65.510248 
L 93.733246 65.438453 
L 94.068543 65.366657 
L 94.305738 65.294862 
L 94.443981 65.223066 
L 94.510415 65.151271 
L 94.56719 65.079475 
L 94.973285 65.007679 
L 95.562514 64.935884 
L 95.586499 64.864088 
L 95.858355 64.792293 
L 96.033407 64.720497 
L 96.036418 64.648702 
L 96.039955 64.576906 
L 96.050022 64.505111 
L 96.081732 64.433315 
L 96.170599 64.36152 
L 96.465392 64.289724 
L 96.504122 64.217929 
L 97.139489 64.146133 
L 97.144464 64.074337 
L 97.229151 64.002542 
L 97.23834 63.930746 
L 97.38442 63.858951 
L 97.630276 63.787155 
L 97.770906 63.71536 
L 98.074899 63.643564 
L 98.230422 63.571769 
L 98.478509 63.499973 
L 98.567834 63.428178 
L 98.624261 63.356382 
L 98.83279 63.284586 
L 98.854526 63.212791 
L 98.895399 63.140995 
L 99.12562 63.0692 
L 99.15182 62.997404 
L 99.172372 62.925609 
L 99.410212 62.853813 
L 99.604804 62.782018 
L 99.607114 62.710222 
L 99.705196 62.638427 
L 99.861123 62.566631 
L 99.887683 62.494835 
L 100.204428 62.42304 
L 100.330495 62.351244 
L 100.357438 62.279449 
L 100.376156 62.207653 
L 100.422845 62.135858 
L 100.569903 62.064062 
L 100.584373 61.992267 
L 100.597916 61.920471 
L 100.721706 61.848676 
L 101.071829 61.77688 
L 101.139359 61.705084 
L 101.170638 61.633289 
L 101.242585 61.561493 
L 101.285257 61.489698 
L 101.456617 61.417902 
L 101.49326 61.346107 
L 101.494934 61.274311 
L 101.503833 61.202516 
L 101.577742 61.13072 
L 101.584184 61.058925 
L 101.939016 60.987129 
L 101.963474 60.915334 
L 102.013663 60.843538 
L 102.023904 60.771742 
L 102.066356 60.699947 
L 102.069779 60.628151 
L 102.161008 60.556356 
L 102.391512 60.48456 
L 102.436957 60.412765 
L 102.501235 60.340969 
L 102.745561 60.269174 
L 102.858365 60.197378 
L 103.080844 60.125583 
L 103.165859 60.053787 
L 103.336308 59.981991 
L 103.58046 59.910196 
L 103.583669 59.8384 
L 103.640347 59.766605 
L 103.681225 59.694809 
L 103.729793 59.623014 
L 103.771585 59.551218 
L 103.858549 59.479423 
L 103.978189 59.407627 
L 103.991989 59.335832 
L 104.05801 59.264036 
L 104.062088 59.19224 
L 104.110963 59.120445 
L 104.155957 59.048649 
L 104.179162 58.976854 
L 104.199321 58.905058 
L 104.208064 58.833263 
L 104.228866 58.761467 
L 104.320955 58.689672 
L 104.476279 58.617876 
L 104.477686 58.546081 
L 104.604295 58.474285 
L 104.631976 58.40249 
L 104.68045 58.330694 
L 104.685249 58.258898 
L 104.815236 58.187103 
L 104.841884 58.115307 
L 104.845646 58.043512 
L 104.850641 57.971716 
L 104.870309 57.899921 
L 104.925379 57.828125 
L 104.957431 57.75633 
L 105.107449 57.684534 
L 105.153553 57.612739 
L 105.201446 57.540943 
L 105.240967 57.469147 
L 105.332749 57.397352 
L 105.438505 57.325556 
L 105.512396 57.253761 
L 105.538016 57.181965 
L 105.556288 57.11017 
L 105.574135 57.038374 
L 105.699646 56.966579 
L 105.981361 56.894783 
L 105.996051 56.822988 
L 106.046924 56.751192 
L 106.126316 56.679396 
L 106.127197 56.607601 
L 106.137598 56.535805 
L 106.395512 56.46401 
L 106.644008 56.392214 
L 106.71512 56.320419 
L 106.780506 56.248623 
L 106.861074 56.176828 
L 106.864581 56.105032 
L 106.903916 56.033237 
L 106.988445 55.961441 
L 107.083312 55.889646 
L 107.107224 55.81785 
L 107.127449 55.746054 
L 107.173919 55.674259 
L 107.212016 55.602463 
L 107.25671 55.530668 
L 107.378407 55.458872 
L 107.426066 55.387077 
L 107.434067 55.315281 
L 107.574098 55.243486 
L 107.6779 55.17169 
L 107.798043 55.099895 
L 107.803245 55.028099 
L 107.89987 54.956303 
L 107.925827 54.884508 
L 107.997166 54.812712 
L 108.025495 54.740917 
L 108.032594 54.669121 
L 108.070828 54.597326 
L 108.144857 54.52553 
L 108.171832 54.453735 
L 108.374125 54.381939 
L 108.426297 54.310144 
L 108.587305 54.238348 
L 108.763033 54.166552 
L 108.810676 54.094757 
L 108.864494 54.022961 
L 108.907131 53.951166 
L 108.958632 53.87937 
L 108.973217 53.807575 
L 108.990408 53.735779 
L 108.991062 53.663984 
L 109.026275 53.592188 
L 109.054438 53.520393 
L 109.21998 53.448597 
L 109.263939 53.376802 
L 109.283028 53.305006 
L 109.292548 53.23321 
L 109.391928 53.161415 
L 109.394 53.089619 
L 109.528982 53.017824 
L 109.581373 52.946028 
L 109.593159 52.874233 
L 109.604493 52.802437 
L 109.693009 52.730642 
L 109.748013 52.658846 
L 109.773142 52.587051 
L 109.790624 52.515255 
L 109.852521 52.443459 
L 109.88775 52.371664 
L 109.921856 52.299868 
L 109.988089 52.228073 
L 110.034771 52.156277 
L 110.045977 52.084482 
L 110.190617 52.012686 
L 110.193714 51.940891 
L 110.326535 51.869095 
L 110.347948 51.7973 
L 110.396099 51.725504 
L 110.431226 51.653708 
L 110.634985 51.581913 
L 110.643351 51.510117 
L 110.72129 51.438322 
L 110.95554 51.366526 
L 111.062601 51.294731 
L 111.063031 51.222935 
L 111.131333 51.15114 
L 111.285164 51.079344 
L 111.362025 51.007549 
L 111.363823 50.935753 
L 111.443577 50.863958 
L 111.482143 50.792162 
L 111.639202 50.720366 
L 111.687516 50.648571 
L 111.728715 50.576775 
L 111.740624 50.50498 
L 111.784314 50.433184 
L 111.802083 50.361389 
L 111.861467 50.289593 
L 112.016121 50.217798 
L 112.089818 50.146002 
L 112.103866 50.074207 
L 112.125084 50.002411 
L 112.135251 49.930615 
L 112.182223 49.85882 
L 112.240473 49.787024 
L 112.431339 49.715229 
L 112.432118 49.643433 
L 112.505497 49.571638 
L 112.551181 49.499842 
L 112.758497 49.428047 
L 112.799202 49.356251 
L 112.895902 49.284456 
L 112.897434 49.21266 
L 112.998071 49.140864 
L 113.118451 49.069069 
L 113.215786 48.997273 
L 113.230277 48.925478 
L 113.243233 48.853682 
L 113.305219 48.781887 
L 113.39841 48.710091 
L 113.403704 48.638296 
L 113.500114 48.5665 
L 113.524698 48.494705 
L 113.53747 48.422909 
L 113.588218 48.351114 
L 113.594223 48.279318 
L 113.658543 48.207522 
L 113.761522 48.135727 
L 113.791189 48.063931 
L 113.806772 47.992136 
L 113.888431 47.92034 
L 113.983059 47.848545 
L 113.985906 47.776749 
L 114.072148 47.704954 
L 114.235779 47.633158 
L 114.246102 47.561363 
L 114.257354 47.489567 
L 114.268261 47.417771 
L 114.27545 47.345976 
L 114.360097 47.27418 
L 114.40086 47.202385 
L 114.529322 47.130589 
L 114.532479 47.058794 
L 114.58511 46.986998 
L 114.650294 46.915203 
L 114.698267 46.843407 
L 114.776499 46.771612 
L 114.78371 46.699816 
L 114.925341 46.62802 
L 114.937459 46.556225 
L 115.007869 46.484429 
L 115.083786 46.412634 
L 115.149031 46.340838 
L 115.185289 46.269043 
L 115.223148 46.197247 
L 115.332222 46.125452 
L 115.339093 46.053656 
L 115.349741 45.981861 
L 115.37558 45.910065 
L 115.41663 45.83827 
L 115.474566 45.766474 
L 115.581147 45.694678 
L 115.625224 45.622883 
L 115.850421 45.551087 
L 115.98148 45.479292 
L 115.988854 45.407496 
L 115.989519 45.335701 
L 116.017213 45.263905 
L 116.046297 45.19211 
L 116.0618 45.120314 
L 116.130097 45.048519 
L 116.157707 44.976723 
L 116.226673 44.904927 
L 116.236527 44.833132 
L 116.280656 44.761336 
L 116.282648 44.689541 
L 116.304515 44.617745 
L 116.32519 44.54595 
L 116.457498 44.474154 
L 116.501028 44.402359 
L 116.513115 44.330563 
L 116.513644 44.258768 
L 116.573901 44.186972 
L 116.716651 44.115176 
L 116.743291 44.043381 
L 116.771647 43.971585 
L 116.80879 43.89979 
L 116.899295 43.827994 
L 116.921193 43.756199 
L 116.947588 43.684403 
L 116.950075 43.612608 
L 116.97634 43.540812 
L 116.993946 43.469017 
L 117.010638 43.397221 
L 117.015017 43.325426 
L 117.019339 43.25363 
L 117.061028 43.181834 
L 117.082616 43.110039 
L 117.085354 43.038243 
L 117.220582 42.966448 
L 117.269222 42.894652 
L 117.392988 42.822857 
L 117.510926 42.751061 
L 117.544683 42.679266 
L 117.638346 42.60747 
L 117.729775 42.535675 
L 117.762661 42.463879 
L 117.797907 42.392083 
L 117.948153 42.320288 
L 117.970534 42.248492 
L 118.003783 42.176697 
L 118.011244 42.104901 
L 118.099425 42.033106 
L 118.104807 41.96131 
L 118.122204 41.889515 
L 118.156408 41.817719 
L 118.179764 41.745924 
L 118.210753 41.674128 
L 118.222966 41.602332 
L 118.290477 41.530537 
L 118.417499 41.458741 
L 118.430647 41.386946 
L 118.433478 41.31515 
L 118.56938 41.243355 
L 118.571991 41.171559 
L 118.681255 41.099764 
L 118.691002 41.027968 
L 118.739604 40.956173 
L 118.82304 40.884377 
L 118.833636 40.812582 
L 118.860292 40.740786 
L 119.09589 40.66899 
L 119.171443 40.597195 
L 119.173308 40.525399 
L 119.20907 40.453604 
L 119.302444 40.381808 
L 119.381034 40.310013 
L 119.389823 40.238217 
L 119.418545 40.166422 
L 119.479726 40.094626 
L 119.572092 40.022831 
L 119.589386 39.951035 
L 119.618725 39.879239 
L 119.706093 39.807444 
L 119.909185 39.735648 
L 119.941394 39.663853 
L 119.952561 39.592057 
L 119.981485 39.520262 
L 119.983785 39.448466 
L 119.987959 39.376671 
L 119.998239 39.304875 
L 120.006044 39.23308 
L 120.008481 39.161284 
L 120.021746 39.089488 
L 120.117475 39.017693 
L 120.221533 38.945897 
L 120.271567 38.874102 
L 120.32714 38.802306 
L 120.33869 38.730511 
L 120.510378 38.658715 
L 120.623964 38.58692 
L 120.926977 38.515124 
L 120.931875 38.443329 
L 120.945692 38.371533 
L 120.986587 38.299738 
L 121.042029 38.227942 
L 121.149626 38.156146 
L 121.15353 38.084351 
L 121.256041 38.012555 
L 121.282102 37.94076 
L 121.297206 37.868964 
L 121.45426 37.797169 
L 121.540555 37.725373 
L 121.606194 37.653578 
L 121.626935 37.581782 
L 121.651237 37.509987 
L 121.722005 37.438191 
L 121.792944 37.366395 
L 121.883884 37.2946 
L 121.974987 37.222804 
L 121.990526 37.151009 
L 122.070082 37.079213 
L 122.117135 37.007418 
L 122.177009 36.935622 
L 122.178053 36.863827 
L 122.422052 36.792031 
L 122.456584 36.720236 
L 122.691408 36.64844 
L 122.874461 36.576644 
L 122.955181 36.504849 
L 123.093113 36.433053 
L 123.102373 36.361258 
L 123.328604 36.289462 
L 123.405699 36.217667 
L 123.414711 36.145871 
L 123.53617 36.074076 
L 123.612938 36.00228 
L 123.616212 35.930485 
L 123.647723 35.858689 
L 123.696274 35.786894 
L 123.778325 35.715098 
L 123.802872 35.643302 
L 123.946217 35.571507 
L 123.950848 35.499711 
L 123.982463 35.427916 
L 124.037802 35.35612 
L 124.214037 35.284325 
L 124.233902 35.212529 
L 124.271982 35.140734 
L 124.295034 35.068938 
L 124.35944 34.997143 
L 124.501886 34.925347 
L 124.523518 34.853551 
L 124.559412 34.781756 
L 124.564854 34.70996 
L 124.602452 34.638165 
L 124.603596 34.566369 
L 124.727013 34.494574 
L 124.770788 34.422778 
L 124.861861 34.350983 
L 124.869419 34.279187 
L 124.885476 34.207392 
L 124.935029 34.135596 
L 125.094624 34.0638 
L 125.103967 33.992005 
L 125.105746 33.920209 
L 125.370021 33.848414 
L 125.447138 33.776618 
L 125.45758 33.704823 
L 125.597815 33.633027 
L 125.642718 33.561232 
L 125.690007 33.489436 
L 125.77188 33.417641 
L 125.775688 33.345845 
L 125.815138 33.27405 
L 125.825164 33.202254 
L 125.852036 33.130458 
L 125.887341 33.058663 
L 125.957399 32.986867 
L 126.105766 32.915072 
L 126.126262 32.843276 
L 126.143557 32.771481 
L 126.229688 32.699685 
L 126.247713 32.62789 
L 126.337606 32.556094 
L 126.350783 32.484299 
L 126.386494 32.412503 
L 126.444564 32.340707 
L 126.586619 32.268912 
L 126.661714 32.197116 
L 126.857524 32.125321 
L 126.944265 32.053525 
L 126.961836 31.98173 
L 126.969382 31.909934 
L 126.989736 31.838139 
L 127.067099 31.766343 
L 127.115012 31.694548 
L 127.234564 31.622752 
L 127.364865 31.550956 
L 127.384211 31.479161 
L 127.40981 31.407365 
L 127.418565 31.33557 
L 127.472218 31.263774 
L 127.687954 31.191979 
L 127.741303 31.120183 
L 127.769508 31.048388 
L 127.816726 30.976592 
L 128.02789 30.904797 
L 128.06764 30.833001 
L 128.107294 30.761206 
L 128.389166 30.68941 
L 128.420876 30.617614 
L 128.429316 30.545819 
L 128.488419 30.474023 
L 128.662162 30.402228 
L 128.739419 30.330432 
L 128.841483 30.258637 
L 128.873207 30.186841 
L 128.899894 30.115046 
L 128.917677 30.04325 
L 129.104242 29.971455 
L 129.152444 29.899659 
L 129.182307 29.827863 
L 129.222455 29.756068 
L 129.22661 29.684272 
L 129.318105 29.612477 
L 129.455789 29.540681 
L 129.492752 29.468886 
L 129.629447 29.39709 
L 129.676883 29.325295 
L 129.734806 29.253499 
L 129.751979 29.181704 
L 130.102742 29.109908 
L 130.166768 29.038112 
L 130.339753 28.966317 
L 130.564923 28.894521 
L 130.670955 28.822726 
L 130.67432 28.75093 
L 130.693647 28.679135 
L 130.816654 28.607339 
L 130.932114 28.535544 
L 130.938534 28.463748 
L 131.047368 28.391953 
L 131.067639 28.320157 
L 131.128191 28.248361 
L 131.129557 28.176566 
L 131.216075 28.10477 
L 131.657824 28.032975 
L 131.706645 27.961179 
L 131.714959 27.889384 
L 131.802461 27.817588 
L 131.852783 27.745793 
L 131.866527 27.673997 
L 131.919076 27.602202 
L 132.01798 27.530406 
L 132.140007 27.458611 
L 132.19795 27.386815 
L 132.19967 27.315019 
L 132.343505 27.243224 
L 132.395912 27.171428 
L 132.43091 27.099633 
L 132.43757 27.027837 
L 132.482751 26.956042 
L 132.510937 26.884246 
L 132.525701 26.812451 
L 132.537573 26.740655 
L 132.683097 26.66886 
L 132.961657 26.597064 
L 133.032645 26.525268 
L 133.053024 26.453473 
L 133.184217 26.381677 
L 133.195581 26.309882 
L 133.222124 26.238086 
L 133.271682 26.166291 
L 133.353931 26.094495 
L 133.361127 26.0227 
L 133.438562 25.950904 
L 133.486958 25.879109 
L 133.921761 25.807313 
L 133.956451 25.735517 
L 133.999527 25.663722 
L 134.075687 25.591926 
L 134.419398 25.520131 
L 134.544597 25.448335 
L 134.576557 25.37654 
L 134.604909 25.304744 
L 134.651399 25.232949 
L 134.668185 25.161153 
L 134.669918 25.089358 
L 134.846869 25.017562 
L 135.019925 24.945767 
L 135.086026 24.873971 
L 135.109821 24.802175 
L 135.191049 24.73038 
L 135.367006 24.658584 
L 135.406572 24.586789 
L 135.552855 24.514993 
L 135.698212 24.443198 
L 135.735792 24.371402 
L 135.880727 24.299607 
L 135.932561 24.227811 
L 135.955143 24.156016 
L 135.965433 24.08422 
L 136.07942 24.012424 
L 136.095673 23.940629 
L 136.273555 23.868833 
L 136.364417 23.797038 
L 136.477849 23.725242 
L 136.487621 23.653447 
L 136.519412 23.581651 
L 136.649617 23.509856 
L 136.653072 23.43806 
L 136.670732 23.366265 
L 136.688615 23.294469 
L 136.724829 23.222673 
L 136.742222 23.150878 
L 137.090678 23.079082 
L 137.151634 23.007287 
L 137.283558 22.935491 
L 137.343358 22.863696 
L 137.34991 22.7919 
L 137.379112 22.720105 
L 137.481217 22.648309 
L 137.579324 22.576514 
L 137.845603 22.504718 
L 137.957249 22.432923 
L 137.957898 22.361127 
L 137.967222 22.289331 
L 138.271161 22.217536 
L 138.287272 22.14574 
L 138.37966 22.073945 
L 138.400128 22.002149 
L 138.483069 21.930354 
L 138.529758 21.858558 
L 138.777531 21.786763 
L 138.821104 21.714967 
L 138.931815 21.643172 
L 138.997301 21.571376 
L 139.111765 21.49958 
L 139.161207 21.427785 
L 139.272257 21.355989 
L 139.529525 21.284194 
L 139.557606 21.212398 
L 139.559935 21.140603 
L 139.855089 21.068807 
L 139.913313 20.997012 
L 140.031687 20.925216 
L 140.07248 20.853421 
L 140.206282 20.781625 
L 140.221367 20.709829 
L 140.412224 20.638034 
L 140.423548 20.566238 
L 140.545852 20.494443 
L 140.54985 20.422647 
L 140.570036 20.350852 
L 140.639523 20.279056 
L 140.864915 20.207261 
L 141.00119 20.135465 
L 141.032458 20.06367 
L 141.465247 19.991874 
L 141.471559 19.920079 
L 141.920345 19.848283 
L 142.034035 19.776487 
L 142.096746 19.704692 
L 142.776463 19.632896 
L 142.865809 19.561101 
L 143.058111 19.489305 
L 143.105039 19.41751 
L 143.497993 19.345714 
L 143.652077 19.273919 
L 143.791769 19.202123 
L 144.22474 19.130328 
L 144.460591 19.058532 
L 144.654035 18.986736 
L 144.66734 18.914941 
L 144.845558 18.843145 
L 145.032463 18.77135 
L 145.630447 18.699554 
L 145.760281 18.627759 
L 145.790342 18.555963 
L 145.955613 18.484168 
L 146.048281 18.412372 
L 146.074769 18.340577 
L 146.243602 18.268781 
L 146.470231 18.196985 
L 146.482768 18.12519 
L 146.69669 18.053394 
L 146.708428 17.981599 
L 147.26728 17.909803 
L 147.281674 17.838008 
L 147.369485 17.766212 
L 147.521782 17.694417 
L 147.811407 17.622621 
L 148.117111 17.550826 
L 148.240448 17.47903 
L 148.414811 17.407235 
L 148.755135 17.335439 
L 148.756622 17.263643 
L 149.063891 17.191848 
L 149.236997 17.120052 
L 149.471052 17.048257 
L 149.563835 16.976461 
L 149.647253 16.904666 
L 149.672749 16.83287 
L 149.832678 16.761075 
L 149.86216 16.689279 
L 149.890022 16.617484 
L 150.048717 16.545688 
L 150.382421 16.473892 
L 150.54437 16.402097 
L 150.723335 16.330301 
L 150.738238 16.258506 
L 150.788258 16.18671 
L 150.991954 16.114915 
L 151.109154 16.043119 
L 151.177145 15.971324 
L 151.688022 15.899528 
L 152.050899 15.827733 
L 152.302854 15.755937 
L 152.841036 15.684141 
L 153.124009 15.612346 
L 153.312081 15.54055 
L 153.387453 15.468755 
L 153.616743 15.396959 
L 153.848273 15.325164 
L 154.00442 15.253368 
L 154.137061 15.181573 
L 154.296102 15.109777 
L 154.445292 15.037982 
L 155.812398 14.966186 
L 155.981415 14.894391 
L 156.217492 14.822595 
L 156.253146 14.750799 
L 156.264872 14.679004 
L 156.410453 14.607208 
L 156.598146 14.535413 
L 156.670566 14.463617 
L 156.777222 14.391822 
L 157.396751 14.320026 
L 157.427325 14.248231 
L 157.512033 14.176435 
L 157.527658 14.10464 
L 157.531606 14.032844 
L 158.200325 13.961048 
L 158.568907 13.889253 
L 158.793825 13.817457 
L 159.223299 13.745662 
L 159.740363 13.673866 
L 159.833038 13.602071 
L 160.067604 13.530275 
L 160.164975 13.45848 
L 160.272693 13.386684 
L 160.784884 13.314889 
L 161.304848 13.243093 
L 162.074418 13.171297 
L 162.192063 13.099502 
L 162.518871 13.027706 
L 162.769986 12.955911 
L 162.880385 12.884115 
L 163.011383 12.81232 
L 164.054377 12.740524 
L 164.142552 12.668729 
L 164.38564 12.596933 
L 164.487518 12.525138 
L 164.862391 12.453342 
L 164.906163 12.381547 
L 165.052238 12.309751 
L 165.139668 12.237955 
L 165.986128 12.16616 
L 166.215326 12.094364 
L 166.559832 12.022569 
L 166.707558 11.950773 
L 166.7218 11.878978 
L 166.878597 11.807182 
L 167.423821 11.735387 
L 167.477572 11.663591 
L 167.720584 11.591796 
L 170.642808 11.52 
L 153.889897 11.52 
L 153.889897 11.52 
L 153.472448 11.591796 
L 153.350521 11.663591 
L 153.001574 11.735387 
L 151.27848 11.807182 
L 151.134885 11.878978 
L 151.131855 11.950773 
L 151.125991 12.022569 
L 150.750825 12.094364 
L 150.531156 12.16616 
L 150.303558 12.237955 
L 149.842835 12.309751 
L 148.820379 12.381547 
L 148.739732 12.453342 
L 148.494859 12.525138 
L 147.884268 12.596933 
L 147.691558 12.668729 
L 147.669954 12.740524 
L 147.359186 12.81232 
L 147.207016 12.884115 
L 146.914574 12.955911 
L 146.778467 13.027706 
L 146.701291 13.099502 
L 146.183054 13.171297 
L 146.17296 13.243093 
L 145.156674 13.314889 
L 145.040779 13.386684 
L 145.038427 13.45848 
L 144.752633 13.530275 
L 144.729655 13.602071 
L 144.424608 13.673866 
L 144.256404 13.745662 
L 143.715134 13.817457 
L 143.546789 13.889253 
L 143.543244 13.961048 
L 143.026682 14.032844 
L 143.010722 14.10464 
L 142.875657 14.176435 
L 142.759626 14.248231 
L 142.391173 14.320026 
L 142.222899 14.391822 
L 142.093843 14.463617 
L 141.872796 14.535413 
L 141.628675 14.607208 
L 141.565725 14.679004 
L 141.553195 14.750799 
L 141.537884 14.822595 
L 141.4905 14.894391 
L 141.359305 14.966186 
L 141.1237 15.037982 
L 141.120105 15.109777 
L 141.005022 15.181573 
L 140.942958 15.253368 
L 140.887226 15.325164 
L 140.54373 15.396959 
L 140.459165 15.468755 
L 140.37495 15.54055 
L 140.350519 15.612346 
L 140.311294 15.684141 
L 139.845088 15.755937 
L 139.779419 15.827733 
L 139.2188 15.899528 
L 139.044174 15.971324 
L 138.439991 16.043119 
L 138.434942 16.114915 
L 138.337427 16.18671 
L 138.294143 16.258506 
L 137.505836 16.330301 
L 137.006293 16.402097 
L 136.901916 16.473892 
L 136.72986 16.545688 
L 136.32243 16.617484 
L 136.24909 16.689279 
L 136.235177 16.761075 
L 136.208189 16.83287 
L 136.13025 16.904666 
L 136.062896 16.976461 
L 135.861978 17.048257 
L 135.426828 17.120052 
L 134.950952 17.191848 
L 134.76849 17.263643 
L 134.681299 17.335439 
L 134.648825 17.407235 
L 134.458795 17.47903 
L 134.292382 17.550826 
L 134.291459 17.622621 
L 134.186381 17.694417 
L 134.147121 17.766212 
L 133.631644 17.838008 
L 133.502245 17.909803 
L 133.317975 17.981599 
L 133.274462 18.053394 
L 133.242633 18.12519 
L 133.145968 18.196985 
L 133.091455 18.268781 
L 132.947541 18.340577 
L 132.814331 18.412372 
L 132.781035 18.484168 
L 132.531989 18.555963 
L 132.270524 18.627759 
L 132.182299 18.699554 
L 131.920624 18.77135 
L 131.773318 18.843145 
L 131.75604 18.914941 
L 131.715744 18.986736 
L 131.289534 19.058532 
L 131.275944 19.130328 
L 130.774739 19.202123 
L 130.674392 19.273919 
L 130.55243 19.345714 
L 130.396725 19.41751 
L 130.374419 19.489305 
L 129.996867 19.561101 
L 129.783838 19.632896 
L 129.728194 19.704692 
L 129.644763 19.776487 
L 129.526963 19.848283 
L 129.430539 19.920079 
L 129.427298 19.991874 
L 129.41662 20.06367 
L 129.176298 20.135465 
L 128.829867 20.207261 
L 128.771063 20.279056 
L 128.751992 20.350852 
L 128.539218 20.422647 
L 128.487981 20.494443 
L 128.207789 20.566238 
L 127.853105 20.638034 
L 127.802158 20.709829 
L 127.774132 20.781625 
L 127.73387 20.853421 
L 127.688615 20.925216 
L 127.611874 20.997012 
L 127.506207 21.068807 
L 127.354171 21.140603 
L 126.953155 21.212398 
L 126.903437 21.284194 
L 126.847945 21.355989 
L 126.827191 21.427785 
L 126.781141 21.49958 
L 126.732124 21.571376 
L 126.657298 21.643172 
L 126.636212 21.714967 
L 126.61779 21.786763 
L 126.460857 21.858558 
L 126.364546 21.930354 
L 126.118435 22.002149 
L 126.106718 22.073945 
L 126.101147 22.14574 
L 126.040795 22.217536 
L 126.037645 22.289331 
L 126.000427 22.361127 
L 125.845997 22.432923 
L 125.830591 22.504718 
L 125.803332 22.576514 
L 125.730006 22.648309 
L 125.719326 22.720105 
L 125.673393 22.7919 
L 125.63665 22.863696 
L 125.634228 22.935491 
L 125.45833 23.007287 
L 125.159657 23.079082 
L 125.135189 23.150878 
L 125.061526 23.222673 
L 124.98443 23.294469 
L 124.962529 23.366265 
L 124.941409 23.43806 
L 124.833326 23.509856 
L 124.699091 23.581651 
L 124.650337 23.653447 
L 124.603172 23.725242 
L 124.597196 23.797038 
L 124.587654 23.868833 
L 124.501971 23.940629 
L 124.449848 24.012424 
L 124.449597 24.08422 
L 124.385618 24.156016 
L 124.072963 24.227811 
L 123.935085 24.299607 
L 123.761829 24.371402 
L 123.736094 24.443198 
L 123.724701 24.514993 
L 123.717234 24.586789 
L 123.657753 24.658584 
L 123.618742 24.73038 
L 123.535336 24.802175 
L 123.492391 24.873971 
L 123.364235 24.945767 
L 123.244219 25.017562 
L 123.23004 25.089358 
L 123.129432 25.161153 
L 122.866936 25.232949 
L 122.730895 25.304744 
L 122.725949 25.37654 
L 122.713358 25.448335 
L 122.696081 25.520131 
L 122.682495 25.591926 
L 122.651588 25.663722 
L 122.543327 25.735517 
L 122.391636 25.807313 
L 122.318758 25.879109 
L 122.244441 25.950904 
L 122.128273 26.0227 
L 121.85391 26.094495 
L 121.799005 26.166291 
L 121.713165 26.238086 
L 121.573462 26.309882 
L 121.422537 26.381677 
L 121.31105 26.453473 
L 121.204895 26.525268 
L 121.176844 26.597064 
L 121.104339 26.66886 
L 121.017771 26.740655 
L 120.973727 26.812451 
L 120.970156 26.884246 
L 120.846474 26.956042 
L 120.789294 27.027837 
L 120.63573 27.099633 
L 120.336086 27.171428 
L 120.325578 27.243224 
L 120.279518 27.315019 
L 120.227751 27.386815 
L 120.172173 27.458611 
L 119.962529 27.530406 
L 119.854001 27.602202 
L 119.808498 27.673997 
L 119.800501 27.745793 
L 119.78874 27.817588 
L 119.73902 27.889384 
L 119.589245 27.961179 
L 119.336764 28.032975 
L 119.151108 28.10477 
L 119.140292 28.176566 
L 119.13808 28.248361 
L 119.035098 28.320157 
L 118.987437 28.391953 
L 118.886064 28.463748 
L 118.77332 28.535544 
L 118.624552 28.607339 
L 118.539872 28.679135 
L 118.390499 28.75093 
L 118.346083 28.822726 
L 118.215089 28.894521 
L 118.211012 28.966317 
L 118.134512 29.038112 
L 118.01895 29.109908 
L 118.003072 29.181704 
L 117.94385 29.253499 
L 117.878437 29.325295 
L 117.761903 29.39709 
L 117.675176 29.468886 
L 117.670787 29.540681 
L 117.632622 29.612477 
L 117.629926 29.684272 
L 117.526692 29.756068 
L 117.439342 29.827863 
L 117.413513 29.899659 
L 117.285424 29.971455 
L 117.261213 30.04325 
L 116.955985 30.115046 
L 116.854689 30.186841 
L 116.783097 30.258637 
L 116.645791 30.330432 
L 116.600546 30.402228 
L 116.514548 30.474023 
L 116.328489 30.545819 
L 116.139145 30.617614 
L 116.113302 30.68941 
L 116.094506 30.761206 
L 116.078788 30.833001 
L 115.903219 30.904797 
L 115.66859 30.976592 
L 115.562871 31.048388 
L 115.517209 31.120183 
L 115.403622 31.191979 
L 115.339778 31.263774 
L 115.298164 31.33557 
L 115.272133 31.407365 
L 115.226447 31.479161 
L 114.980628 31.550956 
L 114.91635 31.622752 
L 114.913685 31.694548 
L 114.885821 31.766343 
L 114.871293 31.838139 
L 114.85367 31.909934 
L 114.794589 31.98173 
L 114.764209 32.053525 
L 114.642125 32.125321 
L 114.403491 32.197116 
L 114.115685 32.268912 
L 114.105735 32.340707 
L 114.073986 32.412503 
L 113.939136 32.484299 
L 113.85719 32.556094 
L 113.730499 32.62789 
L 113.696334 32.699685 
L 113.605284 32.771481 
L 113.587382 32.843276 
L 113.4994 32.915072 
L 113.495684 32.986867 
L 113.451326 33.058663 
L 113.374292 33.130458 
L 113.338973 33.202254 
L 113.317711 33.27405 
L 113.230713 33.345845 
L 113.031663 33.417641 
L 113.026245 33.489436 
L 112.983876 33.561232 
L 112.933963 33.633027 
L 112.875796 33.704823 
L 112.717646 33.776618 
L 112.593868 33.848414 
L 112.590242 33.920209 
L 112.585358 33.992005 
L 112.573439 34.0638 
L 112.420848 34.135596 
L 112.415861 34.207392 
L 112.372393 34.279187 
L 112.363327 34.350983 
L 112.321489 34.422778 
L 112.02045 34.494574 
L 111.967463 34.566369 
L 111.881959 34.638165 
L 111.835684 34.70996 
L 111.812365 34.781756 
L 111.79603 34.853551 
L 111.718652 34.925347 
L 111.399677 34.997143 
L 111.29438 35.068938 
L 111.248823 35.140734 
L 111.218115 35.212529 
L 111.178723 35.284325 
L 111.076243 35.35612 
L 111.049234 35.427916 
L 110.988313 35.499711 
L 110.974668 35.571507 
L 110.853274 35.643302 
L 110.817145 35.715098 
L 110.815515 35.786894 
L 110.793532 35.858689 
L 110.718313 35.930485 
L 110.630293 36.00228 
L 110.578932 36.074076 
L 110.470632 36.145871 
L 110.468201 36.217667 
L 110.323733 36.289462 
L 110.309108 36.361258 
L 110.2536 36.433053 
L 110.145692 36.504849 
L 110.089331 36.576644 
L 110.050688 36.64844 
L 109.989372 36.720236 
L 109.882845 36.792031 
L 109.752995 36.863827 
L 109.709868 36.935622 
L 109.690467 37.007418 
L 109.666667 37.079213 
L 109.636692 37.151009 
L 109.519695 37.222804 
L 109.519511 37.2946 
L 109.420419 37.366395 
L 109.294162 37.438191 
L 109.242098 37.509987 
L 109.215586 37.581782 
L 109.112422 37.653578 
L 108.944004 37.725373 
L 108.912212 37.797169 
L 108.861532 37.868964 
L 108.592125 37.94076 
L 108.457278 38.012555 
L 108.378111 38.084351 
L 108.375453 38.156146 
L 108.356637 38.227942 
L 108.317809 38.299738 
L 108.228318 38.371533 
L 108.157906 38.443329 
L 108.094824 38.515124 
L 108.027166 38.58692 
L 108.00399 38.658715 
L 107.926055 38.730511 
L 107.859708 38.802306 
L 107.810463 38.874102 
L 107.804851 38.945897 
L 107.781699 39.017693 
L 107.680457 39.089488 
L 107.664516 39.161284 
L 107.600309 39.23308 
L 107.539039 39.304875 
L 107.459903 39.376671 
L 107.449962 39.448466 
L 107.184579 39.520262 
L 107.181443 39.592057 
L 107.134886 39.663853 
L 106.84795 39.735648 
L 106.813541 39.807444 
L 106.765869 39.879239 
L 106.729656 39.951035 
L 106.662031 40.022831 
L 106.63287 40.094626 
L 106.598274 40.166422 
L 106.55718 40.238217 
L 106.345561 40.310013 
L 106.258705 40.381808 
L 106.166935 40.453604 
L 106.020452 40.525399 
L 105.834153 40.597195 
L 105.815875 40.66899 
L 105.736252 40.740786 
L 105.715679 40.812582 
L 105.598315 40.884377 
L 105.55754 40.956173 
L 105.507013 41.027968 
L 105.452558 41.099764 
L 105.408504 41.171559 
L 105.373114 41.243355 
L 105.360705 41.31515 
L 105.352182 41.386946 
L 105.239283 41.458741 
L 105.212707 41.530537 
L 105.087152 41.602332 
L 104.803324 41.674128 
L 104.79455 41.745924 
L 104.728533 41.817719 
L 104.711048 41.889515 
L 104.492743 41.96131 
L 104.374113 42.033106 
L 104.299424 42.104901 
L 104.294091 42.176697 
L 104.211892 42.248492 
L 104.152429 42.320288 
L 104.068283 42.392083 
L 104.042587 42.463879 
L 104.042449 42.535675 
L 104.000245 42.60747 
L 103.980045 42.679266 
L 103.945367 42.751061 
L 103.93556 42.822857 
L 103.902705 42.894652 
L 103.890243 42.966448 
L 103.714161 43.038243 
L 103.677527 43.110039 
L 103.663017 43.181834 
L 103.609529 43.25363 
L 103.565917 43.325426 
L 103.549275 43.397221 
L 103.407976 43.469017 
L 103.400592 43.540812 
L 103.392382 43.612608 
L 103.332436 43.684403 
L 103.270993 43.756199 
L 103.262347 43.827994 
L 103.25323 43.89979 
L 103.214986 43.971585 
L 103.079716 44.043381 
L 103.028771 44.115176 
L 102.924311 44.186972 
L 102.801285 44.258768 
L 102.747936 44.330563 
L 102.655631 44.402359 
L 102.602716 44.474154 
L 102.585339 44.54595 
L 102.325766 44.617745 
L 102.296024 44.689541 
L 102.278593 44.761336 
L 102.053052 44.833132 
L 101.806118 44.904927 
L 101.725039 44.976723 
L 101.689778 45.048519 
L 101.677515 45.120314 
L 101.659272 45.19211 
L 101.605527 45.263905 
L 101.46724 45.335701 
L 101.45642 45.407496 
L 101.450416 45.479292 
L 101.444462 45.551087 
L 101.237739 45.622883 
L 101.127509 45.694678 
L 101.100543 45.766474 
L 101.098491 45.83827 
L 100.994753 45.910065 
L 100.973854 45.981861 
L 100.74644 46.053656 
L 100.642591 46.125452 
L 100.540621 46.197247 
L 100.474249 46.269043 
L 100.427177 46.340838 
L 100.385041 46.412634 
L 100.384579 46.484429 
L 100.37683 46.556225 
L 100.305543 46.62802 
L 100.304374 46.699816 
L 100.136946 46.771612 
L 100.093643 46.843407 
L 99.955101 46.915203 
L 99.90113 46.986998 
L 99.882512 47.058794 
L 99.838221 47.130589 
L 99.636162 47.202385 
L 99.569356 47.27418 
L 99.554334 47.345976 
L 99.530307 47.417771 
L 99.431132 47.489567 
L 99.385266 47.561363 
L 99.348373 47.633158 
L 99.343754 47.704954 
L 99.324581 47.776749 
L 99.285917 47.848545 
L 99.253715 47.92034 
L 99.164715 47.992136 
L 99.122641 48.063931 
L 99.112567 48.135727 
L 98.993566 48.207522 
L 98.90609 48.279318 
L 98.87055 48.351114 
L 98.818514 48.422909 
L 98.711679 48.494705 
L 98.665807 48.5665 
L 98.574621 48.638296 
L 98.552745 48.710091 
L 98.529456 48.781887 
L 98.509195 48.853682 
L 98.50294 48.925478 
L 98.446018 48.997273 
L 98.408387 49.069069 
L 98.346866 49.140864 
L 98.139149 49.21266 
L 98.115819 49.284456 
L 98.108006 49.356251 
L 97.869598 49.428047 
L 97.804896 49.499842 
L 97.765172 49.571638 
L 97.748487 49.643433 
L 97.743084 49.715229 
L 97.659852 49.787024 
L 97.446426 49.85882 
L 97.280549 49.930615 
L 96.977268 50.002411 
L 96.966542 50.074207 
L 96.948681 50.146002 
L 96.932926 50.217798 
L 96.899022 50.289593 
L 96.8442 50.361389 
L 96.743453 50.433184 
L 96.613085 50.50498 
L 96.551884 50.576775 
L 96.260589 50.648571 
L 96.148969 50.720366 
L 96.122557 50.792162 
L 96.107595 50.863958 
L 96.093404 50.935753 
L 96.080208 51.007549 
L 96.031658 51.079344 
L 95.847724 51.15114 
L 95.8414 51.222935 
L 95.824947 51.294731 
L 95.816297 51.366526 
L 95.5934 51.438322 
L 95.343194 51.510117 
L 95.335426 51.581913 
L 95.202736 51.653708 
L 95.130573 51.725504 
L 95.085362 51.7973 
L 95.037463 51.869095 
L 94.869418 51.940891 
L 94.779829 52.012686 
L 94.670927 52.084482 
L 94.474036 52.156277 
L 94.403841 52.228073 
L 94.371699 52.299868 
L 94.368613 52.371664 
L 94.341545 52.443459 
L 94.221114 52.515255 
L 94.066215 52.587051 
L 94.038716 52.658846 
L 93.97815 52.730642 
L 93.920288 52.802437 
L 93.740418 52.874233 
L 93.617524 52.946028 
L 93.602209 53.017824 
L 93.59919 53.089619 
L 93.578733 53.161415 
L 93.518736 53.23321 
L 93.511424 53.305006 
L 93.37905 53.376802 
L 93.308259 53.448597 
L 93.14838 53.520393 
L 93.057729 53.592188 
L 93.040191 53.663984 
L 92.861489 53.735779 
L 92.847757 53.807575 
L 92.694863 53.87937 
L 92.619982 53.951166 
L 92.19197 54.022961 
L 92.133206 54.094757 
L 92.132344 54.166552 
L 92.099405 54.238348 
L 91.855795 54.310144 
L 91.793643 54.381939 
L 91.672261 54.453735 
L 91.60714 54.52553 
L 91.380268 54.597326 
L 91.365101 54.669121 
L 91.336198 54.740917 
L 91.278289 54.812712 
L 90.872056 54.884508 
L 90.853438 54.956303 
L 90.682521 55.028099 
L 90.677995 55.099895 
L 90.553349 55.17169 
L 90.461765 55.243486 
L 90.460242 55.315281 
L 90.448547 55.387077 
L 90.37918 55.458872 
L 90.346997 55.530668 
L 90.223213 55.602463 
L 90.186741 55.674259 
L 89.988682 55.746054 
L 89.970661 55.81785 
L 89.96488 55.889646 
L 89.941699 55.961441 
L 89.898781 56.033237 
L 89.879002 56.105032 
L 89.539538 56.176828 
L 89.519405 56.248623 
L 89.415442 56.320419 
L 89.316671 56.392214 
L 89.072024 56.46401 
L 89.018269 56.535805 
L 88.857663 56.607601 
L 88.840404 56.679396 
L 88.576223 56.751192 
L 88.394986 56.822988 
L 88.312554 56.894783 
L 88.192786 56.966579 
L 88.120565 57.038374 
L 88.029744 57.11017 
L 87.888321 57.181965 
L 87.695545 57.253761 
L 87.660171 57.325556 
L 87.509138 57.397352 
L 87.181471 57.469147 
L 87.024891 57.540943 
L 86.871496 57.612739 
L 86.859052 57.684534 
L 86.802209 57.75633 
L 86.584915 57.828125 
L 86.531628 57.899921 
L 86.513257 57.971716 
L 86.503138 58.043512 
L 86.312597 58.115307 
L 86.10871 58.187103 
L 85.906773 58.258898 
L 85.815631 58.330694 
L 85.281525 58.40249 
L 85.143714 58.474285 
L 84.969972 58.546081 
L 84.541884 58.617876 
L 84.496615 58.689672 
L 84.257642 58.761467 
L 84.073768 58.833263 
L 84.005954 58.905058 
L 83.962685 58.976854 
L 83.93923 59.048649 
L 83.845706 59.120445 
L 83.833391 59.19224 
L 83.684662 59.264036 
L 83.593186 59.335832 
L 83.588101 59.407627 
L 83.55301 59.479423 
L 83.416823 59.551218 
L 83.076981 59.623014 
L 82.993528 59.694809 
L 82.785394 59.766605 
L 82.737486 59.8384 
L 82.719597 59.910196 
L 82.509979 59.981991 
L 82.484844 60.053787 
L 82.413175 60.125583 
L 82.405923 60.197378 
L 82.23514 60.269174 
L 82.204597 60.340969 
L 82.202838 60.412765 
L 82.04373 60.48456 
L 81.962315 60.556356 
L 81.640439 60.628151 
L 81.327613 60.699947 
L 81.284326 60.771742 
L 81.271818 60.843538 
L 81.128406 60.915334 
L 81.048328 60.987129 
L 80.943809 61.058925 
L 80.916038 61.13072 
L 80.912291 61.202516 
L 80.870021 61.274311 
L 80.742766 61.346107 
L 80.739539 61.417902 
L 80.693287 61.489698 
L 80.449107 61.561493 
L 80.022506 61.633289 
L 79.992105 61.705084 
L 79.942674 61.77688 
L 79.358163 61.848676 
L 79.180736 61.920471 
L 79.132956 61.992267 
L 78.688558 62.064062 
L 78.562192 62.135858 
L 78.457612 62.207653 
L 78.105306 62.279449 
L 77.910516 62.351244 
L 77.614779 62.42304 
L 77.511835 62.494835 
L 77.112757 62.566631 
L 76.984362 62.638427 
L 76.810101 62.710222 
L 76.175746 62.782018 
L 75.952313 62.853813 
L 75.762791 62.925609 
L 75.754669 62.997404 
L 75.684975 63.0692 
L 75.24627 63.140995 
L 75.064236 63.212791 
L 74.95295 63.284586 
L 74.864581 63.356382 
L 74.790549 63.428178 
L 74.524415 63.499973 
L 74.415561 63.571769 
L 74.324765 63.643564 
L 73.298 63.71536 
L 72.838902 63.787155 
L 72.836394 63.858951 
L 72.513099 63.930746 
L 72.406225 64.002542 
L 72.10903 64.074337 
L 71.626678 64.146133 
L 71.033511 64.217929 
L 70.965732 64.289724 
L 70.900436 64.36152 
L 70.766315 64.433315 
L 70.709753 64.505111 
L 70.47862 64.576906 
L 68.712556 64.648702 
L 68.478973 64.720497 
L 68.325903 64.792293 
L 67.925514 64.864088 
L 67.409391 64.935884 
L 67.306781 65.007679 
L 66.19819 65.079475 
L 66.112226 65.151271 
L 65.705582 65.223066 
L 65.660927 65.294862 
L 65.569765 65.366657 
L 64.881982 65.438453 
L 63.480547 65.510248 
L 62.868575 65.582044 
L 61.030055 65.653839 
L 60.559439 65.725635 
L 60.320106 65.79743 
L 58.630688 65.869226 
L 58.601514 65.941022 
L 58.53806 66.012817 
L 58.430552 66.084613 
L 57.231427 66.156408 
L 57.167215 66.228204 
L 55.437501 66.299999 
L 54.92946 66.371795 
L 54.781186 66.44359 
L 54.02571 66.515386 
L 53.743747 66.587181 
L 51.593031 66.658977 
L 50.80838 66.730773 
L 50.596476 66.802568 
L 50.251898 66.874364 
L 48.620156 66.946159 
L 48.169042 67.017955 
L 47.068085 67.08975 
L 45.59001 67.161546 
L 45.082709 67.233341 
L 39.169189 67.305137 
L 37.672119 67.376932 
L 29.297116 67.448728 
L 26.949326 67.520523 
L 25.922996 67.592319 
L 25.417668 67.664115 
L 25.1933 67.73591 
L 24.673682 67.807706 
L 22.617772 67.879501 
L 22.094621 67.951297 
L 21.33623 68.023092 
L 19.10456 68.094888 
L 18.203098 68.166683 
L 16.605835 68.238479 
L 15.126148 68.310274 
L 14.66338 68.38207 
L 12.01486 68.453866 
L 11.965222 68.525661 
L 11.897331 68.597457 
L 8.062998 68.669252 
L 7.5674 68.741048 
L 7.067595 68.812843 
L 2.462668 68.884639 
L 2.218498 68.956434 
L 1.197242 69.02823 
L 0.899602 69.100025 
L -0.358615 69.171821 
L -2.963357 69.243617 
L -3.962551 69.315412 
L -4.143691 69.387208 
L -4.722279 69.459003 
L -9.288943 69.530799 
L -46.786669 69.602594 
z
" clip-path="url(#p0c40ba212f)" style="fill: #808080; fill-opacity: 0.4"/>
   </g>
   <g id="matplotlib.axis_1">
    <g id="xtick_1">
     <g id="line2d_1">
      <defs>
       <path id="mb3b4fe5716" d="M 0 0 
L 0 -5 
" style="stroke: #000000; stroke-width: 0.5"/>
      </defs>
      <g>
       <use xlink:href="#mb3b4fe5716" x="56.671122" y="69.67439" style="fill-opacity: 0; stroke: #000000; stroke-width: 0.5"/>
      </g>
     </g>
     <g id="text_1">
      <!-- $\mathdefault{10^{-1}}$ -->
      <g transform="translate(48.751122 79.92439)scale(0.08 -0.08)">
       <defs>
        <path id="ArialMT-31" d="M 2384 0 
L 1822 0 
L 1822 3584 
Q 1619 3391 1289 3197 
Q 959 3003 697 2906 
L 697 3450 
Q 1169 3672 1522 3987 
Q 1875 4303 2022 4600 
L 2384 4600 
L 2384 0 
z
" transform="scale(0.015625)"/>
        <path id="ArialMT-30" d="M 266 2259 
Q 266 3072 433 3567 
Q 600 4063 929 4331 
Q 1259 4600 1759 4600 
Q 2128 4600 2406 4451 
Q 2684 4303 2865 4023 
Q 3047 3744 3150 3342 
Q 3253 2941 3253 2259 
Q 3253 1453 3087 958 
Q 2922 463 2592 192 
Q 2263 -78 1759 -78 
Q 1097 -78 719 397 
Q 266 969 266 2259 
z
M 844 2259 
Q 844 1131 1108 757 
Q 1372 384 1759 384 
Q 2147 384 2411 759 
Q 2675 1134 2675 2259 
Q 2675 3391 2411 3762 
Q 2147 4134 1753 4134 
Q 1366 4134 1134 3806 
Q 844 3388 844 2259 
z
" transform="scale(0.015625)"/>
        <path id="ArialMT-2212" d="M 3381 1997 
L 356 1997 
L 356 2522 
L 3381 2522 
L 3381 1997 
z
" transform="scale(0.015625)"/>
       </defs>
       <use xlink:href="#ArialMT-31" transform="translate(0 0.99375)"/>
       <use xlink:href="#ArialMT-30" transform="translate(55.615234 0.99375)"/>
       <use xlink:href="#ArialMT-2212" transform="translate(112.972813 70.6875)scale(0.7)"/>
       <use xlink:href="#ArialMT-31" transform="translate(153.851719 70.6875)scale(0.7)"/>
      </g>
     </g>
    </g>
    <g id="xtick_2">
     <g id="line2d_2">
      <g>
       <use xlink:href="#mb3b4fe5716" x="127.598013" y="69.67439" style="fill-opacity: 0; stroke: #000000; stroke-width: 0.5"/>
      </g>
     </g>
     <g id="text_2">
      <!-- $\mathdefault{10^{0}}$ -->
      <g transform="translate(121.318013 79.92439)scale(0.08 -0.08)">
       <use xlink:href="#ArialMT-31" transform="translate(0 0.99375)"/>
       <use xlink:href="#ArialMT-30" transform="translate(55.615234 0.99375)"/>
       <use xlink:href="#ArialMT-30" transform="translate(112.972813 70.6875)scale(0.7)"/>
      </g>
     </g>
    </g>
    <g id="xtick_3">
     <g id="line2d_3">
      <defs>
       <path id="m9deb1824ef" d="M 0 0 
L 0 -3 
" style="stroke: #000000; stroke-width: 0.5"/>
      </defs>
      <g>
       <use xlink:href="#m9deb1824ef" x="35.32" y="69.67439" style="fill-opacity: 0; stroke: #000000; stroke-width: 0.5"/>
      </g>
     </g>
    </g>
    <g id="xtick_4">
     <g id="line2d_4">
      <g>
       <use xlink:href="#m9deb1824ef" x="40.93608" y="69.67439" style="fill-opacity: 0; stroke: #000000; stroke-width: 0.5"/>
      </g>
     </g>
    </g>
    <g id="xtick_5">
     <g id="line2d_5">
      <g>
       <use xlink:href="#m9deb1824ef" x="45.684407" y="69.67439" style="fill-opacity: 0; stroke: #000000; stroke-width: 0.5"/>
      </g>
     </g>
    </g>
    <g id="xtick_6">
     <g id="line2d_6">
      <g>
       <use xlink:href="#m9deb1824ef" x="49.797596" y="69.67439" style="fill-opacity: 0; stroke: #000000; stroke-width: 0.5"/>
      </g>
     </g>
    </g>
    <g id="xtick_7">
     <g id="line2d_7">
      <g>
       <use xlink:href="#m9deb1824ef" x="53.425685" y="69.67439" style="fill-opacity: 0; stroke: #000000; stroke-width: 0.5"/>
      </g>
     </g>
    </g>
    <g id="xtick_8">
     <g id="line2d_8">
      <g>
       <use xlink:href="#m9deb1824ef" x="78.022243" y="69.67439" style="fill-opacity: 0; stroke: #000000; stroke-width: 0.5"/>
      </g>
     </g>
    </g>
    <g id="xtick_9">
     <g id="line2d_9">
      <g>
       <use xlink:href="#m9deb1824ef" x="90.511849" y="69.67439" style="fill-opacity: 0; stroke: #000000; stroke-width: 0.5"/>
      </g>
     </g>
    </g>
    <g id="xtick_10">
     <g id="line2d_10">
      <g>
       <use xlink:href="#m9deb1824ef" x="99.373365" y="69.67439" style="fill-opacity: 0; stroke: #000000; stroke-width: 0.5"/>
      </g>
     </g>
    </g>
    <g id="xtick_11">
     <g id="line2d_11">
      <g>
       <use xlink:href="#m9deb1824ef" x="106.246891" y="69.67439" style="fill-opacity: 0; stroke: #000000; stroke-width: 0.5"/>
      </g>
     </g>
    </g>
    <g id="xtick_12">
     <g id="line2d_12">
      <g>
       <use xlink:href="#m9deb1824ef" x="111.862971" y="69.67439" style="fill-opacity: 0; stroke: #000000; stroke-width: 0.5"/>
      </g>
     </g>
    </g>
    <g id="xtick_13">
     <g id="line2d_13">
      <g>
       <use xlink:href="#m9deb1824ef" x="116.611298" y="69.67439" style="fill-opacity: 0; stroke: #000000; stroke-width: 0.5"/>
      </g>
     </g>
    </g>
    <g id="xtick_14">
     <g id="line2d_14">
      <g>
       <use xlink:href="#m9deb1824ef" x="120.724487" y="69.67439" style="fill-opacity: 0; stroke: #000000; stroke-width: 0.5"/>
      </g>
     </g>
    </g>
    <g id="xtick_15">
     <g id="line2d_15">
      <g>
       <use xlink:href="#m9deb1824ef" x="124.352576" y="69.67439" style="fill-opacity: 0; stroke: #000000; stroke-width: 0.5"/>
      </g>
     </g>
    </g>
    <g id="xtick_16">
     <g id="line2d_16">
      <g>
       <use xlink:href="#m9deb1824ef" x="148.949135" y="69.67439" style="fill-opacity: 0; stroke: #000000; stroke-width: 0.5"/>
      </g>
     </g>
    </g>
    <g id="xtick_17">
     <g id="line2d_17">
      <g>
       <use xlink:href="#m9deb1824ef" x="161.43874" y="69.67439" style="fill-opacity: 0; stroke: #000000; stroke-width: 0.5"/>
      </g>
     </g>
    </g>
    <g id="text_3">
     <!-- $\Delta_c$ (%) -->
     <g transform="translate(86.61937 89.35439)scale(0.08 -0.08)">
      <defs>
       <path id="DejaVuSans-394" d="M 2188 4044 
L 906 525 
L 3472 525 
L 2188 4044 
z
M 50 0 
L 1831 4666 
L 2547 4666 
L 4325 0 
L 50 0 
z
" transform="scale(0.015625)"/>
       <path id="DejaVuSans-Oblique-63" d="M 3431 3366 
L 3316 2797 
Q 3109 2947 2876 3022 
Q 2644 3097 2394 3097 
Q 2119 3097 1870 3000 
Q 1622 2903 1453 2725 
Q 1184 2453 1037 2087 
Q 891 1722 891 1331 
Q 891 859 1127 628 
Q 1363 397 1844 397 
Q 2081 397 2348 469 
Q 2616 541 2906 684 
L 2797 116 
Q 2547 13 2283 -39 
Q 2019 -91 1741 -91 
Q 1044 -91 669 257 
Q 294 606 294 1253 
Q 294 1797 489 2255 
Q 684 2713 1069 3078 
Q 1331 3328 1684 3456 
Q 2038 3584 2456 3584 
Q 2700 3584 2940 3529 
Q 3181 3475 3431 3366 
z
" transform="scale(0.015625)"/>
       <path id="ArialMT-20" transform="scale(0.015625)"/>
       <path id="ArialMT-28" d="M 1497 -1347 
Q 1031 -759 709 28 
Q 388 816 388 1659 
Q 388 2403 628 3084 
Q 909 3875 1497 4659 
L 1900 4659 
Q 1522 4009 1400 3731 
Q 1209 3300 1100 2831 
Q 966 2247 966 1656 
Q 966 153 1900 -1347 
L 1497 -1347 
z
" transform="scale(0.015625)"/>
       <path id="ArialMT-25" d="M 372 3481 
Q 372 3972 619 4315 
Q 866 4659 1334 4659 
Q 1766 4659 2048 4351 
Q 2331 4044 2331 3447 
Q 2331 2866 2045 2552 
Q 1759 2238 1341 2238 
Q 925 2238 648 2547 
Q 372 2856 372 3481 
z
M 1350 4272 
Q 1141 4272 1002 4090 
Q 863 3909 863 3425 
Q 863 2984 1003 2804 
Q 1144 2625 1350 2625 
Q 1563 2625 1702 2806 
Q 1841 2988 1841 3469 
Q 1841 3913 1700 4092 
Q 1559 4272 1350 4272 
z
M 1353 -169 
L 3859 4659 
L 4316 4659 
L 1819 -169 
L 1353 -169 
z
M 3334 1075 
Q 3334 1569 3581 1911 
Q 3828 2253 4300 2253 
Q 4731 2253 5014 1945 
Q 5297 1638 5297 1041 
Q 5297 459 5011 145 
Q 4725 -169 4303 -169 
Q 3888 -169 3611 142 
Q 3334 453 3334 1075 
z
M 4316 1866 
Q 4103 1866 3964 1684 
Q 3825 1503 3825 1019 
Q 3825 581 3965 400 
Q 4106 219 4313 219 
Q 4528 219 4667 400 
Q 4806 581 4806 1063 
Q 4806 1506 4665 1686 
Q 4525 1866 4316 1866 
z
" transform="scale(0.015625)"/>
       <path id="ArialMT-29" d="M 791 -1347 
L 388 -1347 
Q 1322 153 1322 1656 
Q 1322 2244 1188 2822 
Q 1081 3291 891 3722 
Q 769 4003 388 4659 
L 791 4659 
Q 1378 3875 1659 3084 
Q 1900 2403 1900 1659 
Q 1900 816 1576 28 
Q 1253 -759 791 -1347 
z
" transform="scale(0.015625)"/>
      </defs>
      <use xlink:href="#DejaVuSans-394" transform="translate(0 0.09375)"/>
      <use xlink:href="#DejaVuSans-Oblique-63" transform="translate(69.365234 -16.3125)scale(0.7)"/>
      <use xlink:href="#ArialMT-20" transform="translate(110.585938 0.09375)"/>
      <use xlink:href="#ArialMT-28" transform="translate(138.369141 0.09375)"/>
      <use xlink:href="#ArialMT-25" transform="translate(171.669922 0.09375)"/>
      <use xlink:href="#ArialMT-29" transform="translate(260.585938 0.09375)"/>
     </g>
    </g>
   </g>
   <g id="matplotlib.axis_2">
    <g id="ytick_1">
     <g id="line2d_18">
      <defs>
       <path id="m79a7bf4dac" d="M 0 0 
L 5 0 
" style="stroke: #000000; stroke-width: 0.5"/>
      </defs>
      <g>
       <use xlink:href="#m79a7bf4dac" x="35.32" y="69.67439" style="fill-opacity: 0; stroke: #000000; stroke-width: 0.5"/>
      </g>
     </g>
     <g id="text_4">
      <!-- 0.00 -->
      <g transform="translate(17.75125 72.537515)scale(0.08 -0.08)">
       <defs>
        <path id="ArialMT-2e" d="M 581 0 
L 581 641 
L 1222 641 
L 1222 0 
L 581 0 
z
" transform="scale(0.015625)"/>
       </defs>
       <use xlink:href="#ArialMT-30"/>
       <use xlink:href="#ArialMT-2e" x="55.615234"/>
       <use xlink:href="#ArialMT-30" x="83.398438"/>
       <use xlink:href="#ArialMT-30" x="139.013672"/>
      </g>
     </g>
    </g>
    <g id="ytick_2">
     <g id="line2d_19">
      <g>
       <use xlink:href="#m79a7bf4dac" x="35.32" y="55.135792" style="fill-opacity: 0; stroke: #000000; stroke-width: 0.5"/>
      </g>
     </g>
     <g id="text_5">
      <!-- 0.25 -->
      <g transform="translate(17.75125 57.998917)scale(0.08 -0.08)">
       <defs>
        <path id="ArialMT-32" d="M 3222 541 
L 3222 0 
L 194 0 
Q 188 203 259 391 
Q 375 700 629 1000 
Q 884 1300 1366 1694 
Q 2113 2306 2375 2664 
Q 2638 3022 2638 3341 
Q 2638 3675 2398 3904 
Q 2159 4134 1775 4134 
Q 1369 4134 1125 3890 
Q 881 3647 878 3216 
L 300 3275 
Q 359 3922 746 4261 
Q 1134 4600 1788 4600 
Q 2447 4600 2831 4234 
Q 3216 3869 3216 3328 
Q 3216 3053 3103 2787 
Q 2991 2522 2730 2228 
Q 2469 1934 1863 1422 
Q 1356 997 1212 845 
Q 1069 694 975 541 
L 3222 541 
z
" transform="scale(0.015625)"/>
        <path id="ArialMT-35" d="M 266 1200 
L 856 1250 
Q 922 819 1161 601 
Q 1400 384 1738 384 
Q 2144 384 2425 690 
Q 2706 997 2706 1503 
Q 2706 1984 2436 2262 
Q 2166 2541 1728 2541 
Q 1456 2541 1237 2417 
Q 1019 2294 894 2097 
L 366 2166 
L 809 4519 
L 3088 4519 
L 3088 3981 
L 1259 3981 
L 1013 2750 
Q 1425 3038 1878 3038 
Q 2478 3038 2890 2622 
Q 3303 2206 3303 1553 
Q 3303 931 2941 478 
Q 2500 -78 1738 -78 
Q 1113 -78 717 272 
Q 322 622 266 1200 
z
" transform="scale(0.015625)"/>
       </defs>
       <use xlink:href="#ArialMT-30"/>
       <use xlink:href="#ArialMT-2e" x="55.615234"/>
       <use xlink:href="#ArialMT-32" x="83.398438"/>
       <use xlink:href="#ArialMT-35" x="139.013672"/>
      </g>
     </g>
    </g>
    <g id="ytick_3">
     <g id="line2d_20">
      <g>
       <use xlink:href="#m79a7bf4dac" x="35.32" y="40.597195" style="fill-opacity: 0; stroke: #000000; stroke-width: 0.5"/>
      </g>
     </g>
     <g id="text_6">
      <!-- 0.50 -->
      <g transform="translate(17.75125 43.46032)scale(0.08 -0.08)">
       <use xlink:href="#ArialMT-30"/>
       <use xlink:href="#ArialMT-2e" x="55.615234"/>
       <use xlink:href="#ArialMT-35" x="83.398438"/>
       <use xlink:href="#ArialMT-30" x="139.013672"/>
      </g>
     </g>
    </g>
    <g id="ytick_4">
     <g id="line2d_21">
      <g>
       <use xlink:href="#m79a7bf4dac" x="35.32" y="26.058597" style="fill-opacity: 0; stroke: #000000; stroke-width: 0.5"/>
      </g>
     </g>
     <g id="text_7">
      <!-- 0.75 -->
      <g transform="translate(17.75125 28.921722)scale(0.08 -0.08)">
       <defs>
        <path id="ArialMT-37" d="M 303 3981 
L 303 4522 
L 3269 4522 
L 3269 4084 
Q 2831 3619 2401 2847 
Q 1972 2075 1738 1259 
Q 1569 684 1522 0 
L 944 0 
Q 953 541 1156 1306 
Q 1359 2072 1739 2783 
Q 2119 3494 2547 3981 
L 303 3981 
z
" transform="scale(0.015625)"/>
       </defs>
       <use xlink:href="#ArialMT-30"/>
       <use xlink:href="#ArialMT-2e" x="55.615234"/>
       <use xlink:href="#ArialMT-37" x="83.398438"/>
       <use xlink:href="#ArialMT-35" x="139.013672"/>
      </g>
     </g>
    </g>
    <g id="ytick_5">
     <g id="line2d_22">
      <g>
       <use xlink:href="#m79a7bf4dac" x="35.32" y="11.52" style="fill-opacity: 0; stroke: #000000; stroke-width: 0.5"/>
      </g>
     </g>
     <g id="text_8">
      <!-- 1.00 -->
      <g transform="translate(17.75125 14.383125)scale(0.08 -0.08)">
       <use xlink:href="#ArialMT-31"/>
       <use xlink:href="#ArialMT-2e" x="55.615234"/>
       <use xlink:href="#ArialMT-30" x="83.398438"/>
       <use xlink:href="#ArialMT-30" x="139.013672"/>
      </g>
     </g>
    </g>
    <g id="ytick_6">
     <g id="line2d_23">
      <defs>
       <path id="m9c74b3f2e7" d="M 0 0 
L 3 0 
" style="stroke: #000000; stroke-width: 0.5"/>
      </defs>
      <g>
       <use xlink:href="#m9c74b3f2e7" x="35.32" y="66.76667" style="fill-opacity: 0; stroke: #000000; stroke-width: 0.5"/>
      </g>
     </g>
    </g>
    <g id="ytick_7">
     <g id="line2d_24">
      <g>
       <use xlink:href="#m9c74b3f2e7" x="35.32" y="63.858951" style="fill-opacity: 0; stroke: #000000; stroke-width: 0.5"/>
      </g>
     </g>
    </g>
    <g id="ytick_8">
     <g id="line2d_25">
      <g>
       <use xlink:href="#m9c74b3f2e7" x="35.32" y="60.951231" style="fill-opacity: 0; stroke: #000000; stroke-width: 0.5"/>
      </g>
     </g>
    </g>
    <g id="ytick_9">
     <g id="line2d_26">
      <g>
       <use xlink:href="#m9c74b3f2e7" x="35.32" y="58.043512" style="fill-opacity: 0; stroke: #000000; stroke-width: 0.5"/>
      </g>
     </g>
    </g>
    <g id="ytick_10">
     <g id="line2d_27">
      <g>
       <use xlink:href="#m9c74b3f2e7" x="35.32" y="52.228073" style="fill-opacity: 0; stroke: #000000; stroke-width: 0.5"/>
      </g>
     </g>
    </g>
    <g id="ytick_11">
     <g id="line2d_28">
      <g>
       <use xlink:href="#m9c74b3f2e7" x="35.32" y="49.320353" style="fill-opacity: 0; stroke: #000000; stroke-width: 0.5"/>
      </g>
     </g>
    </g>
    <g id="ytick_12">
     <g id="line2d_29">
      <g>
       <use xlink:href="#m9c74b3f2e7" x="35.32" y="46.412634" style="fill-opacity: 0; stroke: #000000; stroke-width: 0.5"/>
      </g>
     </g>
    </g>
    <g id="ytick_13">
     <g id="line2d_30">
      <g>
       <use xlink:href="#m9c74b3f2e7" x="35.32" y="43.504914" style="fill-opacity: 0; stroke: #000000; stroke-width: 0.5"/>
      </g>
     </g>
    </g>
    <g id="ytick_14">
     <g id="line2d_31">
      <g>
       <use xlink:href="#m9c74b3f2e7" x="35.32" y="37.689475" style="fill-opacity: 0; stroke: #000000; stroke-width: 0.5"/>
      </g>
     </g>
    </g>
    <g id="ytick_15">
     <g id="line2d_32">
      <g>
       <use xlink:href="#m9c74b3f2e7" x="35.32" y="34.781756" style="fill-opacity: 0; stroke: #000000; stroke-width: 0.5"/>
      </g>
     </g>
    </g>
    <g id="ytick_16">
     <g id="line2d_33">
      <g>
       <use xlink:href="#m9c74b3f2e7" x="35.32" y="31.874036" style="fill-opacity: 0; stroke: #000000; stroke-width: 0.5"/>
      </g>
     </g>
    </g>
    <g id="ytick_17">
     <g id="line2d_34">
      <g>
       <use xlink:href="#m9c74b3f2e7" x="35.32" y="28.966317" style="fill-opacity: 0; stroke: #000000; stroke-width: 0.5"/>
      </g>
     </g>
    </g>
    <g id="ytick_18">
     <g id="line2d_35">
      <g>
       <use xlink:href="#m9c74b3f2e7" x="35.32" y="23.150878" style="fill-opacity: 0; stroke: #000000; stroke-width: 0.5"/>
      </g>
     </g>
    </g>
    <g id="ytick_19">
     <g id="line2d_36">
      <g>
       <use xlink:href="#m9c74b3f2e7" x="35.32" y="20.243158" style="fill-opacity: 0; stroke: #000000; stroke-width: 0.5"/>
      </g>
     </g>
    </g>
    <g id="ytick_20">
     <g id="line2d_37">
      <g>
       <use xlink:href="#m9c74b3f2e7" x="35.32" y="17.335439" style="fill-opacity: 0; stroke: #000000; stroke-width: 0.5"/>
      </g>
     </g>
    </g>
    <g id="ytick_21">
     <g id="line2d_38">
      <g>
       <use xlink:href="#m9c74b3f2e7" x="35.32" y="14.427719" style="fill-opacity: 0; stroke: #000000; stroke-width: 0.5"/>
      </g>
     </g>
    </g>
    <g id="text_9">
     <!-- CDF -->
     <g transform="translate(14.16125 48.81782)rotate(-90)scale(0.08 -0.08)">
      <defs>
       <path id="ArialMT-43" d="M 3763 1606 
L 4369 1453 
Q 4178 706 3683 314 
Q 3188 -78 2472 -78 
Q 1731 -78 1267 223 
Q 803 525 561 1097 
Q 319 1669 319 2325 
Q 319 3041 592 3573 
Q 866 4106 1370 4382 
Q 1875 4659 2481 4659 
Q 3169 4659 3637 4309 
Q 4106 3959 4291 3325 
L 3694 3184 
Q 3534 3684 3231 3912 
Q 2928 4141 2469 4141 
Q 1941 4141 1586 3887 
Q 1231 3634 1087 3207 
Q 944 2781 944 2328 
Q 944 1744 1114 1308 
Q 1284 872 1643 656 
Q 2003 441 2422 441 
Q 2931 441 3284 734 
Q 3638 1028 3763 1606 
z
" transform="scale(0.015625)"/>
       <path id="ArialMT-44" d="M 494 0 
L 494 4581 
L 2072 4581 
Q 2606 4581 2888 4516 
Q 3281 4425 3559 4188 
Q 3922 3881 4101 3404 
Q 4281 2928 4281 2316 
Q 4281 1794 4159 1391 
Q 4038 988 3847 723 
Q 3656 459 3429 307 
Q 3203 156 2883 78 
Q 2563 0 2147 0 
L 494 0 
z
M 1100 541 
L 2078 541 
Q 2531 541 2789 625 
Q 3047 709 3200 863 
Q 3416 1078 3536 1442 
Q 3656 1806 3656 2325 
Q 3656 3044 3420 3430 
Q 3184 3816 2847 3947 
Q 2603 4041 2063 4041 
L 1100 4041 
L 1100 541 
z
" transform="scale(0.015625)"/>
       <path id="ArialMT-46" d="M 525 0 
L 525 4581 
L 3616 4581 
L 3616 4041 
L 1131 4041 
L 1131 2622 
L 3281 2622 
L 3281 2081 
L 1131 2081 
L 1131 0 
L 525 0 
z
" transform="scale(0.015625)"/>
      </defs>
      <use xlink:href="#ArialMT-43"/>
      <use xlink:href="#ArialMT-44" x="72.216797"/>
      <use xlink:href="#ArialMT-46" x="144.433594"/>
     </g>
    </g>
   </g>
   <g id="line2d_39">
    <path d="M 11.075995 69.602594 
L 22.036907 69.387208 
L 22.240895 69.315412 
L 37.654044 68.597457 
L 46.016934 68.38207 
L 46.861785 68.310274 
L 50.51361 68.166683 
L 50.516306 68.094888 
L 50.73542 68.023092 
L 52.223767 67.879501 
L 56.285455 67.73591 
L 56.577495 67.664115 
L 59.19236 67.448728 
L 63.273628 67.233341 
L 69.255086 66.802568 
L 69.256688 66.730773 
L 71.144964 66.587181 
L 71.225152 66.515386 
L 75.060235 66.084613 
L 75.142214 66.012817 
L 76.602147 65.725635 
L 77.18943 65.510248 
L 81.179481 64.720497 
L 82.397433 64.576906 
L 83.081552 64.289724 
L 84.005665 63.930746 
L 85.073054 63.643564 
L 85.644096 63.428178 
L 87.017896 63.140995 
L 87.179683 62.997404 
L 87.406979 62.638427 
L 87.714485 62.494835 
L 88.192399 62.135858 
L 89.185122 61.848676 
L 89.379137 61.705084 
L 91.24549 60.915334 
L 91.28881 60.771742 
L 91.896855 60.556356 
L 91.937215 60.48456 
L 92.683556 60.269174 
L 93.054173 60.053787 
L 93.9897 59.694809 
L 94.123653 59.479423 
L 94.870998 59.264036 
L 95.283351 58.905058 
L 95.724899 58.689672 
L 96.019345 58.330694 
L 96.381682 58.115307 
L 96.541613 57.971716 
L 96.712538 57.75633 
L 96.736743 57.684534 
L 97.115774 57.540943 
L 97.463717 57.253761 
L 97.487937 57.181965 
L 97.880922 56.966579 
L 98.126572 56.46401 
L 98.278488 56.320419 
L 100.060259 55.17169 
L 100.149159 55.028099 
L 100.310676 54.884508 
L 100.418635 54.740917 
L 101.581635 53.448597 
L 101.79603 53.161415 
L 102.887734 52.228073 
L 103.235403 51.725504 
L 103.678635 51.438322 
L 103.697332 51.294731 
L 103.996084 51.15114 
L 105.436054 48.997273 
L 105.504301 48.853682 
L 106.412753 48.063931 
L 106.42948 47.992136 
L 106.691583 47.848545 
L 107.200748 47.058794 
L 107.64654 46.771612 
L 107.782584 46.556225 
L 107.997226 46.412634 
L 108.003675 46.340838 
L 108.335402 46.125452 
L 108.724057 45.694678 
L 109.090969 45.551087 
L 109.110152 45.479292 
L 109.537004 45.19211 
L 109.541099 45.120314 
L 110.143542 44.833132 
L 110.267574 44.617745 
L 110.410321 44.330563 
L 110.475805 44.115176 
L 110.680768 43.89979 
L 111.076698 43.540812 
L 111.633832 43.25363 
L 111.922661 42.679266 
L 112.189329 42.535675 
L 112.261765 42.392083 
L 112.618664 42.176697 
L 112.634826 42.104901 
L 113.003614 41.817719 
L 113.674592 41.027968 
L 113.813922 40.66899 
L 113.980885 40.453604 
L 114.09419 40.166422 
L 114.527468 39.951035 
L 114.733481 39.735648 
L 115.075477 39.520262 
L 115.254539 39.017693 
L 115.608965 38.371533 
L 115.965786 38.156146 
L 116.138916 37.94076 
L 116.283614 37.581782 
L 116.552623 37.438191 
L 118.229042 35.715098 
L 118.34416 35.499711 
L 118.76716 35.212529 
L 118.774136 35.140734 
L 119.207884 34.853551 
L 119.435442 34.494574 
L 119.719986 34.350983 
L 119.941614 34.0638 
L 120.11155 33.848414 
L 120.512624 33.561232 
L 120.725894 32.843276 
L 120.939357 32.699685 
L 121.206019 32.412503 
L 121.431114 32.197116 
L 121.59123 31.909934 
L 121.882831 31.766343 
L 122.147367 31.622752 
L 122.411543 31.263774 
L 122.582829 31.048388 
L 122.887771 30.761206 
L 122.966027 30.617614 
L 123.442048 30.330432 
L 123.47787 30.186841 
L 123.704945 29.971455 
L 124.012974 29.468886 
L 124.867205 29.109908 
L 124.924874 28.966317 
L 126.363796 28.032975 
L 126.607384 27.602202 
L 126.894594 27.386815 
L 127.021574 26.956042 
L 127.260767 26.740655 
L 127.65885 26.525268 
L 128.095452 26.238086 
L 128.280771 25.807313 
L 129.180838 25.304744 
L 129.356531 25.161153 
L 129.689416 25.017562 
L 129.725407 24.873971 
L 129.98133 24.658584 
L 130.086352 24.443198 
L 130.327619 24.227811 
L 130.331544 24.156016 
L 131.330758 23.509856 
L 131.365347 23.43806 
L 131.598377 23.294469 
L 132.097459 22.7919 
L 132.30954 22.648309 
L 132.511205 22.14574 
L 132.627816 22.002149 
L 132.683533 21.930354 
L 132.990771 21.786763 
L 133.185806 21.643172 
L 133.624991 21.427785 
L 133.808813 21.212398 
L 133.939363 20.997012 
L 134.517672 20.709829 
L 134.899811 20.350852 
L 135.409183 19.991874 
L 135.417531 19.920079 
L 135.79411 19.704692 
L 136.325294 19.130328 
L 137.15789 18.699554 
L 137.186089 18.627759 
L 138.652653 18.196985 
L 138.996144 17.981599 
L 139.513612 17.838008 
L 139.855398 17.622621 
L 140.97176 17.407235 
L 141.589004 17.120052 
L 141.598413 17.048257 
L 142.095764 16.83287 
L 142.182152 16.617484 
L 142.969966 16.330301 
L 143.4784 15.971324 
L 145.436977 15.755937 
L 147.196545 15.109777 
L 148.358371 14.822595 
L 148.475599 14.679004 
L 150.776691 14.176435 
L 151.738264 13.961048 
L 153.295929 13.673866 
L 158.061742 13.45848 
L 158.283523 13.386684 
L 160.774702 13.099502 
L 160.845786 13.027706 
L 161.845807 12.81232 
L 164.753899 12.309751 
L 166.51339 12.16616 
L 166.629218 12.094364 
L 171.07874 11.88269 
L 171.07874 11.88269 
" clip-path="url(#p0c40ba212f)" style="fill: none; stroke: #000000; stroke-width: 1.2; stroke-linecap: square"/>
   </g>
   <g id="line2d_40">
    <path d="M 32.39185 69.602594 
L 32.786471 69.315412 
L 33.251372 69.171821 
L 33.343824 69.100025 
L 37.061922 68.669252 
L 41.93325 68.453866 
L 41.958676 68.38207 
L 43.54243 68.166683 
L 55.992871 67.376932 
L 59.671788 67.233341 
L 61.359121 66.946159 
L 63.28506 66.802568 
L 63.489135 66.730773 
L 68.640288 66.515386 
L 69.153835 66.44359 
L 71.626439 66.299999 
L 71.670543 66.228204 
L 75.482548 66.012817 
L 75.745937 65.941022 
L 77.856801 65.79743 
L 79.472775 65.438453 
L 79.563749 65.366657 
L 80.554506 65.079475 
L 80.746115 64.935884 
L 81.613819 64.720497 
L 81.659319 64.648702 
L 82.074764 64.433315 
L 82.093813 64.36152 
L 82.406744 64.146133 
L 83.482963 63.930746 
L 83.866551 63.71536 
L 83.937292 63.643564 
L 84.836506 63.284586 
L 85.050973 63.0692 
L 85.90204 62.782018 
L 86.102283 62.494835 
L 86.164985 62.42304 
L 87.619816 61.920471 
L 87.937658 61.489698 
L 88.751169 61.274311 
L 90.552 60.125583 
L 91.09388 59.910196 
L 91.439561 59.694809 
L 92.457964 59.407627 
L 93.132867 58.976854 
L 93.256387 58.833263 
L 93.752096 58.474285 
L 93.856819 58.330694 
L 94.456801 58.187103 
L 95.658267 57.181965 
L 96.073479 57.038374 
L 96.190682 56.751192 
L 96.379675 56.392214 
L 96.700722 56.248623 
L 97.010139 56.033237 
L 97.947101 55.099895 
L 98.0231 54.884508 
L 98.461984 54.597326 
L 98.699161 54.381939 
L 99.120114 54.166552 
L 99.34113 53.951166 
L 99.565675 53.735779 
L 99.830813 53.592188 
L 99.952454 53.376802 
L 100.103104 53.089619 
L 100.398589 52.874233 
L 100.894948 52.443459 
L 102.735312 50.648571 
L 103.186382 49.715229 
L 103.36501 49.428047 
L 103.476219 49.284456 
L 103.899356 48.781887 
L 104.195583 48.279318 
L 104.482222 47.92034 
L 104.876812 47.776749 
L 104.949895 47.633158 
L 105.415419 47.202385 
L 105.433094 47.130589 
L 105.701447 46.915203 
L 105.806817 46.556225 
L 106.161607 45.981861 
L 107.169844 45.120314 
L 107.781923 44.258768 
L 107.830823 44.115176 
L 108.218915 43.756199 
L 108.24757 43.612608 
L 109.012476 42.966448 
L 109.327621 42.392083 
L 109.331886 42.320288 
L 110.038089 41.817719 
L 110.43552 41.243355 
L 110.439697 41.171559 
L 110.702482 40.956173 
L 110.81061 40.453604 
L 111.01008 40.094626 
L 111.321058 39.448466 
L 111.429062 39.161284 
L 111.570114 38.945897 
L 111.88865 38.58692 
L 112.093764 38.371533 
L 112.280124 38.227942 
L 112.526103 38.012555 
L 112.666889 37.797169 
L 113.01239 37.509987 
L 113.134958 37.222804 
L 113.336226 37.079213 
L 113.50115 36.433053 
L 113.86203 35.786894 
L 114.042094 35.571507 
L 114.841774 34.566369 
L 115.137883 34.350983 
L 115.208416 34.207392 
L 115.468287 33.920209 
L 115.481911 33.848414 
L 115.827054 33.561232 
L 116.35927 33.058663 
L 116.369043 32.915072 
L 116.657366 32.699685 
L 117.022835 32.412503 
L 117.356393 32.197116 
L 117.621568 31.909934 
L 117.782847 31.694548 
L 119.489134 30.474023 
L 120.276076 29.756068 
L 120.416154 29.540681 
L 120.604829 29.39709 
L 120.703862 29.181704 
L 120.929809 28.894521 
L 121.235412 28.320157 
L 121.447662 28.176566 
L 121.553372 27.961179 
L 121.89823 27.745793 
L 122.091841 27.458611 
L 122.520488 27.243224 
L 122.735968 27.099633 
L 123.064304 26.884246 
L 123.334024 26.597064 
L 123.683403 26.238086 
L 123.70789 26.094495 
L 123.860804 25.950904 
L 123.865254 25.879109 
L 124.186424 25.663722 
L 124.346078 25.448335 
L 124.879579 24.945767 
L 124.969312 24.73038 
L 125.548566 24.371402 
L 125.649094 24.227811 
L 125.765204 23.940629 
L 125.878417 23.797038 
L 126.088272 23.509856 
L 126.613226 23.294469 
L 126.953237 23.150878 
L 127.314065 23.007287 
L 127.552471 22.720105 
L 128.789569 21.49958 
L 128.932495 21.212398 
L 129.118221 20.997012 
L 129.413659 20.781625 
L 129.464007 20.566238 
L 129.929545 20.422647 
L 130.195947 20.135465 
L 131.055869 19.920079 
L 131.198645 19.561101 
L 131.694735 18.986736 
L 132.424247 18.196985 
L 132.768325 17.981599 
L 132.961601 17.766212 
L 133.95463 17.191848 
L 133.99156 17.048257 
L 137.570563 14.894391 
L 137.58142 14.822595 
L 138.351746 14.320026 
L 139.033417 14.176435 
L 139.070266 14.10464 
L 140.336948 13.889253 
L 140.79368 13.530275 
L 141.839837 12.81232 
L 141.846456 12.740524 
L 142.304688 12.525138 
L 142.320075 12.381547 
L 142.704854 12.237955 
L 144.459824 11.878978 
L 145.864035 11.735387 
L 146.716319 11.591796 
L 147.186592 11.52 
L 147.186592 11.52 
" clip-path="url(#p0c40ba212f)" style="fill: none; stroke-dasharray: 5.12,1.28,0.8,1.28; stroke-dashoffset: 0; stroke: #3c5488; stroke-width: 0.8"/>
   </g>
   <g id="line2d_41">
    <path d="M -1 69.593584 
L 25.518532 69.459003 
L 26.584119 69.243617 
L 31.745974 68.956434 
L 31.938132 68.884639 
L 36.355322 68.741048 
L 44.327544 68.310274 
L 44.689564 68.238479 
L 50.461924 67.879501 
L 50.609887 67.807706 
L 52.220299 67.664115 
L 52.418898 67.592319 
L 60.408031 67.305137 
L 66.659853 67.161546 
L 69.478995 66.874364 
L 69.702749 66.802568 
L 71.604994 66.587181 
L 71.746162 66.44359 
L 77.549299 65.653839 
L 77.574349 65.582044 
L 82.093565 65.007679 
L 82.397144 64.792293 
L 82.704858 64.648702 
L 83.048403 64.505111 
L 83.096935 64.433315 
L 85.487028 63.787155 
L 86.022916 63.499973 
L 86.948513 63.356382 
L 87.114806 63.0692 
L 87.890273 62.782018 
L 89.438229 62.064062 
L 89.49901 61.992267 
L 90.17701 61.77688 
L 91.316152 61.274311 
L 91.394665 61.058925 
L 91.41675 60.987129 
L 91.702038 60.771742 
L 91.790903 60.699947 
L 92.663862 60.48456 
L 93.067858 60.340969 
L 93.332003 59.8384 
L 93.423742 59.623014 
L 93.432856 59.551218 
L 94.080473 59.120445 
L 94.63599 58.40249 
L 96.157301 57.469147 
L 96.653486 57.325556 
L 96.860063 57.11017 
L 97.169776 56.751192 
L 98.220802 55.889646 
L 98.671083 55.746054 
L 98.691562 55.674259 
L 99.238015 55.530668 
L 99.349105 55.243486 
L 99.516947 55.028099 
L 99.60206 54.812712 
L 100.299099 54.381939 
L 100.919809 54.166552 
L 101.127746 53.663984 
L 101.411094 53.520393 
L 102.359821 52.299868 
L 102.42693 52.156277 
L 102.75898 51.725504 
L 102.807652 51.510117 
L 103.323157 51.15114 
L 103.928824 50.648571 
L 104.915867 49.787024 
L 104.956872 49.715229 
L 105.290633 49.499842 
L 105.382749 49.21266 
L 106.095253 48.5665 
L 106.284145 48.279318 
L 106.316039 48.207522 
L 106.548699 48.063931 
L 106.630159 47.704954 
L 107.020369 47.345976 
L 107.264524 46.843407 
L 107.623741 46.412634 
L 107.746468 46.269043 
L 108.271493 45.766474 
L 108.344778 45.622883 
L 108.749772 45.407496 
L 108.922658 45.19211 
L 109.02095 44.976723 
L 109.381879 44.833132 
L 109.92275 43.684403 
L 110.006922 43.540812 
L 110.425688 43.25363 
L 110.492967 42.894652 
L 110.538334 42.679266 
L 111.152739 42.176697 
L 111.253776 41.817719 
L 111.709769 41.530537 
L 111.816074 41.243355 
L 111.994241 41.027968 
L 112.12331 40.884377 
L 112.518254 40.740786 
L 112.847084 40.381808 
L 112.8633 40.310013 
L 113.087956 40.166422 
L 113.150876 40.022831 
L 114.012701 39.304875 
L 114.202832 38.874102 
L 114.871799 37.653578 
L 115.548839 37.222804 
L 116.906712 36.217667 
L 117.003421 35.930485 
L 117.462757 35.715098 
L 117.779997 35.499711 
L 117.795344 35.427916 
L 118.001066 35.284325 
L 118.103228 35.068938 
L 118.210041 34.853551 
L 118.286039 34.638165 
L 118.866867 34.279187 
L 119.027545 33.848414 
L 119.410653 33.417641 
L 119.490846 33.27405 
L 120.04985 32.843276 
L 120.341794 32.62789 
L 120.458983 32.340707 
L 120.723323 31.98173 
L 120.885607 31.766343 
L 121.883369 31.048388 
L 121.972859 30.904797 
L 122.363962 30.617614 
L 122.425449 30.186841 
L 122.953133 29.899659 
L 123.276627 29.612477 
L 123.453797 29.468886 
L 123.719391 29.038112 
L 124.347739 28.894521 
L 124.640748 28.679135 
L 124.768659 28.320157 
L 125.278264 28.032975 
L 125.370394 27.889384 
L 125.453259 27.673997 
L 126.051264 27.530406 
L 126.463598 27.243224 
L 126.666392 27.027837 
L 127.945833 26.238086 
L 127.981224 26.094495 
L 128.424675 25.807313 
L 128.937426 25.161153 
L 129.390976 24.586789 
L 129.408444 24.514993 
L 129.849082 24.299607 
L 130.035225 24.08422 
L 130.587214 23.653447 
L 130.597548 23.581651 
L 131.119369 23.294469 
L 131.242549 23.150878 
L 131.308013 23.079082 
L 131.784669 22.863696 
L 131.891817 22.720105 
L 132.108761 22.504718 
L 133.221424 20.925216 
L 136.709123 19.130328 
L 139.258096 18.843145 
L 139.501109 18.627759 
L 139.719158 18.412372 
L 140.024156 18.053394 
L 140.334575 17.909803 
L 140.465723 17.766212 
L 140.542937 17.694417 
L 141.969815 17.263643 
L 142.481664 17.048257 
L 143.206833 16.83287 
L 143.448159 16.689279 
L 143.467359 16.617484 
L 143.669254 16.473892 
L 144.709915 16.330301 
L 144.715975 16.258506 
L 144.989261 16.114915 
L 146.337441 15.899528 
L 146.40586 15.755937 
L 146.831081 15.468755 
L 146.833871 15.396959 
L 147.335528 15.181573 
L 147.378293 15.037982 
L 148.169593 14.822595 
L 148.434324 14.607208 
L 149.806229 14.320026 
L 150.581544 13.961048 
L 151.464988 13.817457 
L 152.912831 13.386684 
L 153.71596 13.099502 
L 154.123689 12.884115 
L 154.546536 12.740524 
L 157.458399 12.381547 
L 157.730768 12.16616 
L 158.029082 12.022569 
L 159.493851 11.807182 
L 159.568835 11.735387 
L 160.805241 11.52 
L 160.805241 11.52 
" clip-path="url(#p0c40ba212f)" style="fill: none; stroke-dasharray: 2.96,1.28; stroke-dashoffset: 0; stroke: #dc0000; stroke-width: 0.8"/>
   </g>
   <g id="patch_3">
    <path d="M 35.32 69.67439 
L 35.32 11.52 
" style="fill: none; stroke: #000000; stroke-width: 0.5; stroke-linejoin: miter; stroke-linecap: square"/>
   </g>
   <g id="patch_4">
    <path d="M 161.43874 69.67439 
L 161.43874 11.52 
" style="fill: none; stroke: #000000; stroke-width: 0.5; stroke-linejoin: miter; stroke-linecap: square"/>
   </g>
   <g id="patch_5">
    <path d="M 35.32 69.67439 
L 161.43874 69.67439 
" style="fill: none; stroke: #000000; stroke-width: 0.5; stroke-linejoin: miter; stroke-linecap: square"/>
   </g>
   <g id="patch_6">
    <path d="M 35.32 11.52 
L 161.43874 11.52 
" style="fill: none; stroke: #000000; stroke-width: 0.5; stroke-linejoin: miter; stroke-linecap: square"/>
   </g>
  </g>
 </g>
 <defs>
  <clipPath id="p0c40ba212f">
   <rect x="35.32" y="11.52" width="126.11874" height="58.15439"/>
  </clipPath>
 </defs>
</svg>
