<?xml version="1.0" encoding="utf-8" standalone="no"?>
<!DOCTYPE svg PUBLIC "-//W3C//DTD SVG 1.1//EN"
  "http://www.w3.org/Graphics/SVG/1.1/DTD/svg11.dtd">
<svg xmlns:xlink="http://www.w3.org/1999/xlink" width="170.07874pt" height="104.88189pt" viewBox="0 0 170.07874 104.88189" xmlns="http://www.w3.org/2000/svg" version="1.1">
 <metadata>
  <rdf:RDF xmlns:dc="http://purl.org/dc/elements/1.1/" xmlns:cc="http://creativecommons.org/ns#" xmlns:rdf="http://www.w3.org/1999/02/22-rdf-syntax-ns#">
   <cc:Work>
    <dc:type rdf:resource="http://purl.org/dc/dcmitype/StillImage"/>
    <dc:date>2025-01-06T16:39:31.170294</dc:date>
    <dc:format>image/svg+xml</dc:format>
    <dc:creator>
     <cc:Agent>
      <dc:title>Matplotlib v3.5.2, https://matplotlib.org/</dc:title>
     </cc:Agent>
    </dc:creator>
   </cc:Work>
  </rdf:RDF>
 </metadata>
 <defs>
  <style type="text/css">*{stroke-linejoin: round; stroke-linecap: butt}</style>
 </defs>
 <g id="figure_1">
  <g id="patch_1">
   <path d="M 0 104.88189 
L 170.07874 104.88189 
L 170.07874 0 
L 0 0 
z
" style="fill: #ffffff"/>
  </g>
  <g id="axes_1">
   <g id="patch_2">
    <path d="M 35.32 69.96239 
L 161.43874 69.96239 
L 161.43874 11.52 
L 35.32 11.52 
z
" style="fill: #ffffff"/>
   </g>
   <g id="PolyCollection_1">
    <path d="M -21.860574 69.890239 
L 52.415252 69.890239 
L 55.961575 69.818088 
L 58.693719 69.745936 
L 64.799964 69.673785 
L 67.404675 69.601634 
L 69.537725 69.529483 
L 72.335123 69.457332 
L 75.803691 69.385181 
L 76.855634 69.31303 
L 77.826469 69.240879 
L 79.85789 69.168728 
L 80.429878 69.096577 
L 80.555109 69.024425 
L 80.758117 68.952274 
L 81.949138 68.880123 
L 82.314827 68.807972 
L 82.598357 68.735821 
L 85.538949 68.66367 
L 88.198279 68.591519 
L 89.03487 68.519368 
L 89.13617 68.447217 
L 89.59419 68.375066 
L 90.596328 68.302914 
L 94.393026 68.230763 
L 95.092012 68.158612 
L 95.312237 68.086461 
L 95.904469 68.01431 
L 97.174623 67.942159 
L 98.862913 67.870008 
L 99.205726 67.797857 
L 99.82456 67.725706 
L 99.901116 67.653555 
L 101.525528 67.581404 
L 101.717341 67.509252 
L 102.867233 67.437101 
L 103.438602 67.36495 
L 104.63391 67.292799 
L 104.66773 67.220648 
L 105.519972 67.148497 
L 107.490595 67.076346 
L 107.590967 67.004195 
L 107.718713 66.932044 
L 108.441397 66.859893 
L 108.729845 66.787741 
L 108.965403 66.71559 
L 109.170983 66.643439 
L 109.217573 66.571288 
L 109.233311 66.499137 
L 109.277627 66.426986 
L 109.3578 66.354835 
L 109.530247 66.282684 
L 110.032231 66.210533 
L 110.933683 66.138382 
L 110.954841 66.06623 
L 111.218607 65.994079 
L 111.608677 65.921928 
L 111.616195 65.849777 
L 111.888971 65.777626 
L 112.065293 65.705475 
L 112.176105 65.633324 
L 112.278175 65.561173 
L 112.407842 65.489022 
L 112.572977 65.416871 
L 112.687798 65.344719 
L 114.767369 65.272568 
L 115.12891 65.200417 
L 115.216006 65.128266 
L 115.415452 65.056115 
L 116.004827 64.983964 
L 116.017023 64.911813 
L 116.087418 64.839662 
L 116.113276 64.767511 
L 116.243758 64.69536 
L 116.331237 64.623208 
L 117.062481 64.551057 
L 117.074255 64.478906 
L 117.424839 64.406755 
L 117.589053 64.334604 
L 117.632368 64.262453 
L 117.713094 64.190302 
L 118.066276 64.118151 
L 118.135285 64.046 
L 118.179353 63.973849 
L 118.23297 63.901697 
L 118.361764 63.829546 
L 118.376431 63.757395 
L 118.403558 63.685244 
L 118.406889 63.613093 
L 118.440061 63.540942 
L 118.586897 63.468791 
L 118.639906 63.39664 
L 118.709765 63.324489 
L 118.734749 63.252338 
L 119.053621 63.180187 
L 119.099424 63.108035 
L 119.145729 63.035884 
L 119.189679 62.963733 
L 119.305542 62.891582 
L 119.434441 62.819431 
L 119.616296 62.74728 
L 119.682596 62.675129 
L 119.760225 62.602978 
L 119.89385 62.530827 
L 119.904328 62.458676 
L 119.949884 62.386524 
L 119.974583 62.314373 
L 119.99921 62.242222 
L 120.120808 62.170071 
L 120.142812 62.09792 
L 120.162218 62.025769 
L 120.233797 61.953618 
L 120.264093 61.881467 
L 120.278139 61.809316 
L 120.315193 61.737165 
L 120.503776 61.665013 
L 120.630644 61.592862 
L 120.647556 61.520711 
L 120.652453 61.44856 
L 120.793567 61.376409 
L 120.812272 61.304258 
L 120.935582 61.232107 
L 121.200797 61.159956 
L 121.253097 61.087805 
L 121.35044 61.015654 
L 121.392308 60.943502 
L 121.41025 60.871351 
L 121.461111 60.7992 
L 121.66257 60.727049 
L 121.849318 60.654898 
L 121.900841 60.582747 
L 122.061809 60.510596 
L 122.439971 60.438445 
L 122.543498 60.366294 
L 122.544233 60.294143 
L 122.553334 60.221991 
L 122.571607 60.14984 
L 122.58915 60.077689 
L 122.600772 60.005538 
L 122.755614 59.933387 
L 122.787658 59.861236 
L 122.869051 59.789085 
L 122.961209 59.716934 
L 123.017955 59.644783 
L 123.168854 59.572632 
L 123.223529 59.50048 
L 123.247138 59.428329 
L 123.333718 59.356178 
L 123.350541 59.284027 
L 123.358277 59.211876 
L 123.394357 59.139725 
L 123.434781 59.067574 
L 123.464043 58.995423 
L 123.467951 58.923272 
L 123.568272 58.851121 
L 123.719919 58.77897 
L 123.834058 58.706818 
L 123.837932 58.634667 
L 123.990754 58.562516 
L 124.07804 58.490365 
L 124.088384 58.418214 
L 124.143572 58.346063 
L 124.178527 58.273912 
L 124.239514 58.201761 
L 124.515028 58.12961 
L 124.623249 58.057459 
L 124.658437 57.985307 
L 124.679689 57.913156 
L 124.692298 57.841005 
L 124.756267 57.768854 
L 124.781756 57.696703 
L 124.860702 57.624552 
L 124.877717 57.552401 
L 125.02092 57.48025 
L 125.076347 57.408099 
L 125.107888 57.335948 
L 125.207819 57.263796 
L 125.319107 57.191645 
L 125.337913 57.119494 
L 125.34284 57.047343 
L 125.466472 56.975192 
L 125.489032 56.903041 
L 125.518929 56.83089 
L 125.519562 56.758739 
L 125.545923 56.686588 
L 125.558521 56.614437 
L 125.605952 56.542285 
L 125.634199 56.470134 
L 125.648283 56.397983 
L 125.722171 56.325832 
L 125.79856 56.253681 
L 125.902069 56.18153 
L 125.942063 56.109379 
L 126.016456 56.037228 
L 126.169663 55.965077 
L 126.200776 55.892926 
L 126.247777 55.820774 
L 126.325426 55.748623 
L 126.380166 55.676472 
L 126.385551 55.604321 
L 126.412264 55.53217 
L 126.421066 55.460019 
L 126.734076 55.387868 
L 126.734763 55.315717 
L 126.741437 55.243566 
L 126.811397 55.171415 
L 126.82618 55.099263 
L 126.92773 55.027112 
L 126.931036 54.954961 
L 126.952493 54.88281 
L 126.962784 54.810659 
L 126.964585 54.738508 
L 126.992145 54.666357 
L 127.00043 54.594206 
L 127.048697 54.522055 
L 127.148415 54.449904 
L 127.207668 54.377752 
L 127.243648 54.305601 
L 127.332103 54.23345 
L 127.385483 54.161299 
L 127.394467 54.089148 
L 127.529385 54.016997 
L 127.590884 53.944846 
L 127.710529 53.872695 
L 127.762487 53.800544 
L 127.790156 53.728393 
L 127.798214 53.656242 
L 127.810782 53.58409 
L 127.863633 53.511939 
L 127.889069 53.439788 
L 127.994034 53.367637 
L 128.037649 53.295486 
L 128.06792 53.223335 
L 128.069571 53.151184 
L 128.118239 53.079033 
L 128.131153 53.006882 
L 128.134092 52.934731 
L 128.262652 52.862579 
L 128.281901 52.790428 
L 128.305905 52.718277 
L 128.311949 52.646126 
L 128.31644 52.573975 
L 128.320706 52.501824 
L 128.336955 52.429673 
L 128.478691 52.357522 
L 128.577078 52.285371 
L 128.577615 52.21322 
L 128.608549 52.141068 
L 128.715585 52.068917 
L 128.740189 51.996766 
L 128.747998 51.924615 
L 128.771667 51.852464 
L 128.846139 51.780313 
L 129.004317 51.708162 
L 129.040042 51.636011 
L 129.055075 51.56386 
L 129.085654 51.491709 
L 129.102186 51.419557 
L 129.124741 51.347406 
L 129.16628 51.275255 
L 129.173602 51.203104 
L 129.179679 51.130953 
L 129.203786 51.058802 
L 129.271209 50.986651 
L 129.324551 50.9145 
L 129.357024 50.842349 
L 129.36435 50.770198 
L 129.389753 50.698046 
L 129.529747 50.625895 
L 129.592524 50.553744 
L 129.672999 50.481593 
L 129.691451 50.409442 
L 129.770224 50.337291 
L 129.774408 50.26514 
L 129.829683 50.192989 
L 129.846637 50.120838 
L 129.863484 50.048687 
L 129.907171 49.976535 
L 129.928877 49.904384 
L 129.943849 49.832233 
L 129.974096 49.760082 
L 130.014248 49.687931 
L 130.059762 49.61578 
L 130.216985 49.543629 
L 130.235488 49.471478 
L 130.243985 49.399327 
L 130.29582 49.327176 
L 130.306606 49.255025 
L 130.31362 49.182873 
L 130.322309 49.110722 
L 130.343588 49.038571 
L 130.350459 48.96642 
L 130.393598 48.894269 
L 130.460099 48.822118 
L 130.511608 48.749967 
L 130.514278 48.677816 
L 130.599242 48.605665 
L 130.731044 48.533514 
L 130.750609 48.461362 
L 130.761711 48.389211 
L 130.763545 48.31706 
L 130.790541 48.244909 
L 130.809666 48.172758 
L 130.864735 48.100607 
L 130.884893 48.028456 
L 130.905099 47.956305 
L 130.919992 47.884154 
L 130.957656 47.812003 
L 130.966675 47.739851 
L 130.993058 47.6677 
L 131.053956 47.595549 
L 131.096308 47.523398 
L 131.177094 47.451247 
L 131.197399 47.379096 
L 131.21365 47.306945 
L 131.233572 47.234794 
L 131.29261 47.162643 
L 131.352133 47.090492 
L 131.389252 47.01834 
L 131.449767 46.946189 
L 131.518963 46.874038 
L 131.579221 46.801887 
L 131.606008 46.729736 
L 131.6172 46.657585 
L 131.620715 46.585434 
L 131.64385 46.513283 
L 131.690734 46.441132 
L 131.706328 46.368981 
L 131.778638 46.296829 
L 131.781067 46.224678 
L 131.782371 46.152527 
L 131.79333 46.080376 
L 131.810819 46.008225 
L 131.841587 45.936074 
L 131.865684 45.863923 
L 131.940066 45.791772 
L 132.034822 45.719621 
L 132.076251 45.64747 
L 132.123806 45.575318 
L 132.179814 45.503167 
L 132.307188 45.431016 
L 132.426192 45.358865 
L 132.436695 45.286714 
L 132.457883 45.214563 
L 132.498268 45.142412 
L 132.524988 45.070261 
L 132.527947 44.99811 
L 132.558186 44.925959 
L 132.588795 44.853807 
L 132.656635 44.781656 
L 132.670041 44.709505 
L 132.67148 44.637354 
L 132.815098 44.565203 
L 132.895291 44.493052 
L 132.928009 44.420901 
L 132.963152 44.34875 
L 133.001997 44.276599 
L 133.08068 44.204448 
L 133.083876 44.132297 
L 133.206298 44.060145 
L 133.291044 43.987994 
L 133.29132 43.915843 
L 133.310439 43.843692 
L 133.330616 43.771541 
L 133.382766 43.69939 
L 133.423071 43.627239 
L 133.513859 43.555088 
L 133.534321 43.482937 
L 133.564843 43.410786 
L 133.600957 43.338634 
L 133.726909 43.266483 
L 133.750779 43.194332 
L 133.782989 43.122181 
L 133.790645 43.05003 
L 133.850705 42.977879 
L 133.89118 42.905728 
L 133.928017 42.833577 
L 133.940968 42.761426 
L 133.955111 42.689275 
L 133.96976 42.617123 
L 133.974802 42.544972 
L 134.003314 42.472821 
L 134.007619 42.40067 
L 134.031215 42.328519 
L 134.149905 42.256368 
L 134.213834 42.184217 
L 134.24415 42.112066 
L 134.245806 42.039915 
L 134.334495 41.967764 
L 134.447948 41.895612 
L 134.476502 41.823461 
L 134.577631 41.75131 
L 134.597448 41.679159 
L 134.607466 41.607008 
L 134.62913 41.534857 
L 134.668773 41.462706 
L 134.671948 41.390555 
L 134.741511 41.318404 
L 134.744694 41.246253 
L 134.749393 41.174101 
L 134.788114 41.10195 
L 134.874223 41.029799 
L 134.914757 40.957648 
L 134.95365 40.885497 
L 134.999684 40.813346 
L 135.099459 40.741195 
L 135.165709 40.669044 
L 135.218104 40.596893 
L 135.237308 40.524742 
L 135.284564 40.45259 
L 135.350342 40.380439 
L 135.390017 40.308288 
L 135.395249 40.236137 
L 135.405132 40.163986 
L 135.446555 40.091835 
L 135.458257 40.019684 
L 135.499258 39.947533 
L 135.502586 39.875382 
L 135.508593 39.803231 
L 135.609358 39.73108 
L 135.63319 39.658928 
L 135.689318 39.586777 
L 135.696746 39.514626 
L 135.908438 39.442475 
L 135.936153 39.370324 
L 135.959629 39.298173 
L 136.039069 39.226022 
L 136.108408 39.153871 
L 136.13853 39.08172 
L 136.164835 39.009569 
L 136.194205 38.937417 
L 136.248059 38.865266 
L 136.251784 38.793115 
L 136.358863 38.720964 
L 136.365788 38.648813 
L 136.389674 38.576662 
L 136.391285 38.504511 
L 136.392342 38.43236 
L 136.413657 38.360209 
L 136.431418 38.288058 
L 136.446018 38.215906 
L 136.458808 38.143755 
L 136.489907 38.071604 
L 136.597459 37.999453 
L 136.605645 37.927302 
L 136.629942 37.855151 
L 136.643751 37.783 
L 136.648158 37.710849 
L 136.667895 37.638698 
L 136.762561 37.566547 
L 136.791507 37.494395 
L 136.831474 37.422244 
L 136.900434 37.350093 
L 136.953477 37.277942 
L 136.97753 37.205791 
L 137.050729 37.13364 
L 137.090102 37.061489 
L 137.092574 36.989338 
L 137.12831 36.917187 
L 137.198367 36.845036 
L 137.200379 36.772884 
L 137.27563 36.700733 
L 137.318877 36.628582 
L 137.32341 36.556431 
L 137.38457 36.48428 
L 137.388176 36.412129 
L 137.423977 36.339978 
L 137.425136 36.267827 
L 137.477974 36.195676 
L 137.534847 36.123525 
L 137.58666 36.051373 
L 137.673183 35.979222 
L 137.681468 35.907071 
L 137.722124 35.83492 
L 137.726103 35.762769 
L 137.743594 35.690618 
L 137.743735 35.618467 
L 137.784784 35.546316 
L 137.865585 35.474165 
L 137.902295 35.402014 
L 137.950382 35.329862 
L 138.090277 35.257711 
L 138.100539 35.18556 
L 138.271557 35.113409 
L 138.287007 35.041258 
L 138.312861 34.969107 
L 138.329801 34.896956 
L 138.363776 34.824805 
L 138.411808 34.752654 
L 138.415951 34.680503 
L 138.417685 34.608352 
L 138.459382 34.5362 
L 138.464115 34.464049 
L 138.464938 34.391898 
L 138.489647 34.319747 
L 138.51433 34.247596 
L 138.518997 34.175445 
L 138.522696 34.103294 
L 138.523032 34.031143 
L 138.568877 33.958992 
L 138.653043 33.886841 
L 138.658938 33.814689 
L 138.749959 33.742538 
L 138.777423 33.670387 
L 138.811982 33.598236 
L 138.858339 33.526085 
L 138.880714 33.453934 
L 139.054942 33.381783 
L 139.062799 33.309632 
L 139.090989 33.237481 
L 139.168233 33.16533 
L 139.279946 33.093178 
L 139.30882 33.021027 
L 139.332016 32.948876 
L 139.38352 32.876725 
L 139.406105 32.804574 
L 139.406109 32.732423 
L 139.431077 32.660272 
L 139.480742 32.588121 
L 139.552253 32.51597 
L 139.589235 32.443819 
L 139.616458 32.371667 
L 139.649276 32.299516 
L 139.660973 32.227365 
L 139.869301 32.155214 
L 139.89306 32.083063 
L 139.954295 32.010912 
L 139.960456 31.938761 
L 139.974238 31.86661 
L 140.022331 31.794459 
L 140.047736 31.722308 
L 140.086144 31.650156 
L 140.099761 31.578005 
L 140.104396 31.505854 
L 140.11152 31.433703 
L 140.148063 31.361552 
L 140.157953 31.289401 
L 140.168259 31.21725 
L 140.205492 31.145099 
L 140.214946 31.072948 
L 140.272944 31.000797 
L 140.330803 30.928645 
L 140.384238 30.856494 
L 140.402866 30.784343 
L 140.469868 30.712192 
L 140.487523 30.640041 
L 140.52116 30.56789 
L 140.530114 30.495739 
L 140.557535 30.423588 
L 140.598632 30.351437 
L 140.611315 30.279286 
L 140.626489 30.207135 
L 140.676626 30.134983 
L 140.679792 30.062832 
L 140.714744 29.990681 
L 140.717495 29.91853 
L 140.761092 29.846379 
L 140.77342 29.774228 
L 140.819066 29.702077 
L 140.994556 29.629926 
L 141.031046 29.557775 
L 141.045317 29.485624 
L 141.104168 29.413472 
L 141.209627 29.341321 
L 141.25275 29.26917 
L 141.402343 29.197019 
L 141.483915 29.124868 
L 141.496009 29.052717 
L 141.601511 28.980566 
L 141.60441 28.908415 
L 141.672054 28.836264 
L 141.849755 28.764113 
L 141.973207 28.691961 
L 141.994831 28.61981 
L 142.006213 28.547659 
L 142.014386 28.475508 
L 142.020963 28.403357 
L 142.03635 28.331206 
L 142.06093 28.259055 
L 142.095612 28.186904 
L 142.468452 28.114753 
L 142.599667 28.042602 
L 142.669235 27.97045 
L 142.809935 27.898299 
L 142.853444 27.826148 
L 142.883072 27.753997 
L 142.94131 27.681846 
L 143.008078 27.609695 
L 143.10146 27.537544 
L 143.101868 27.465393 
L 143.156266 27.393242 
L 143.233526 27.321091 
L 143.313156 27.248939 
L 143.315839 27.176788 
L 143.34056 27.104637 
L 143.345584 27.032486 
L 143.445236 26.960335 
L 143.479304 26.888184 
L 143.48606 26.816033 
L 143.522931 26.743882 
L 143.605541 26.671731 
L 143.629318 26.59958 
L 143.667165 26.527428 
L 143.713276 26.455277 
L 143.758064 26.383126 
L 143.779432 26.310975 
L 143.779905 26.238824 
L 143.809773 26.166673 
L 143.89086 26.094522 
L 143.891694 26.022371 
L 143.913994 25.95022 
L 143.952521 25.878069 
L 143.958685 25.805917 
L 143.961831 25.733766 
L 144.007891 25.661615 
L 144.074882 25.589464 
L 144.076622 25.517313 
L 144.124547 25.445162 
L 144.128231 25.373011 
L 144.143829 25.30086 
L 144.153829 25.228709 
L 144.230254 25.156558 
L 144.254858 25.084407 
L 144.302002 25.012255 
L 144.314558 24.940104 
L 144.371101 24.867953 
L 144.393076 24.795802 
L 144.396258 24.723651 
L 144.407716 24.6515 
L 144.454674 24.579349 
L 144.509799 24.507198 
L 144.587778 24.435047 
L 144.639862 24.362896 
L 144.64033 24.290744 
L 144.688154 24.218593 
L 144.712793 24.146442 
L 144.721721 24.074291 
L 144.734177 24.00214 
L 144.833996 23.929989 
L 144.857938 23.857838 
L 144.880188 23.785687 
L 145.087494 23.713536 
L 145.187165 23.641385 
L 145.244181 23.569233 
L 145.438491 23.497082 
L 145.530727 23.424931 
L 145.703747 23.35278 
L 145.779626 23.280629 
L 145.94436 23.208478 
L 145.975849 23.136327 
L 145.999761 23.064176 
L 146.037268 22.992025 
L 146.079969 22.919874 
L 146.166202 22.847722 
L 146.1896 22.775571 
L 146.211244 22.70342 
L 146.295087 22.631269 
L 146.392917 22.559118 
L 146.445135 22.486967 
L 146.451886 22.414816 
L 146.585391 22.342665 
L 146.67299 22.270514 
L 146.684697 22.198363 
L 146.754013 22.126211 
L 146.79064 22.05406 
L 146.816834 21.981909 
L 146.889406 21.909758 
L 146.948332 21.837607 
L 146.986055 21.765456 
L 147.294819 21.693305 
L 147.306801 21.621154 
L 147.315704 21.549003 
L 147.321407 21.476852 
L 147.443957 21.4047 
L 147.520147 21.332549 
L 147.72597 21.260398 
L 147.73061 21.188247 
L 147.739922 21.116096 
L 147.79783 21.043945 
L 147.827267 20.971794 
L 147.899137 20.899643 
L 147.947241 20.827492 
L 148.006803 20.755341 
L 148.011024 20.68319 
L 148.185849 20.611038 
L 148.334042 20.538887 
L 148.398918 20.466736 
L 148.418985 20.394585 
L 148.426183 20.322434 
L 148.537 20.250283 
L 148.570258 20.178132 
L 148.570774 20.105981 
L 148.805951 20.03383 
L 148.857933 19.961679 
L 149.000637 19.889527 
L 149.018725 19.817376 
L 149.076315 19.745225 
L 149.091068 19.673074 
L 149.210841 19.600923 
L 149.313988 19.528772 
L 149.357575 19.456621 
L 149.429112 19.38447 
L 149.441872 19.312319 
L 149.442133 19.240168 
L 149.714004 19.168016 
L 149.779798 19.095865 
L 149.921966 19.023714 
L 150.069562 18.951563 
L 150.11619 18.879412 
L 150.224954 18.807261 
L 150.227091 18.73511 
L 150.246158 18.662959 
L 150.368819 18.590808 
L 150.440947 18.518657 
L 150.525851 18.446505 
L 150.630775 18.374354 
L 150.795977 18.302203 
L 150.811227 18.230052 
L 151.085252 18.157901 
L 151.146448 18.08575 
L 151.152675 18.013599 
L 151.165614 17.941448 
L 151.334556 17.869297 
L 151.885251 17.797146 
L 152.014897 17.724994 
L 152.182091 17.652843 
L 152.334163 17.580692 
L 152.422741 17.508541 
L 152.506674 17.43639 
L 152.548272 17.364239 
L 152.745859 17.292088 
L 152.751944 17.219937 
L 152.854933 17.147786 
L 152.887915 17.075635 
L 153.048207 17.003483 
L 153.080993 16.931332 
L 153.102366 16.859181 
L 153.215682 16.78703 
L 153.329802 16.714879 
L 153.355505 16.642728 
L 153.367244 16.570577 
L 153.378012 16.498426 
L 153.491507 16.426275 
L 153.942375 16.354124 
L 154.023639 16.281972 
L 154.206073 16.209821 
L 154.225283 16.13767 
L 154.250022 16.065519 
L 154.373 15.993368 
L 154.448137 15.921217 
L 154.693973 15.849066 
L 154.94177 15.776915 
L 155.313774 15.704764 
L 155.656966 15.632613 
L 155.801705 15.560462 
L 156.141487 15.48831 
L 156.235647 15.416159 
L 156.2559 15.344008 
L 156.312494 15.271857 
L 156.579716 15.199706 
L 156.619975 15.127555 
L 156.82475 15.055404 
L 157.01912 14.983253 
L 157.090819 14.911102 
L 157.15576 14.838951 
L 157.211376 14.766799 
L 157.3296 14.694648 
L 157.33436 14.622497 
L 157.491913 14.550346 
L 157.57993 14.478195 
L 157.688029 14.406044 
L 157.944398 14.333893 
L 158.0109 14.261742 
L 158.120671 14.189591 
L 158.367461 14.11744 
L 158.656368 14.045288 
L 158.782746 13.973137 
L 159.015649 13.900986 
L 159.053266 13.828835 
L 159.424991 13.756684 
L 160.031118 13.684533 
L 160.279046 13.612382 
L 160.504932 13.540231 
L 160.915247 13.46808 
L 161.504456 13.395929 
L 162.277944 13.323777 
L 162.893111 13.251626 
L 162.922119 13.179475 
L 163.059781 13.107324 
L 163.587141 13.035173 
L 163.738384 12.963022 
L 163.745131 12.890871 
L 164.489423 12.81872 
L 165.601471 12.746569 
L 166.322815 12.674418 
L 166.549629 12.602266 
L 167.073936 12.530115 
L 167.129181 12.457964 
L 168.358152 12.385813 
L 169.04231 12.313662 
L 169.835822 12.241511 
L 170.030363 12.16936 
L 170.228246 12.097209 
L 171.587907 12.025058 
L 171.613045 11.952907 
L 172.595175 11.880755 
L 174.042229 11.808604 
L 174.291282 11.736453 
L 176.582913 11.664302 
L 177.072311 11.592151 
L 178.461254 11.52 
L 155.668663 11.52 
L 155.668663 11.52 
L 155.534878 11.592151 
L 154.175704 11.664302 
L 153.722965 11.736453 
L 152.320488 11.808604 
L 151.842953 11.880755 
L 148.087936 11.952907 
L 147.597525 12.025058 
L 147.064608 12.097209 
L 146.892543 12.16936 
L 146.528449 12.241511 
L 146.260881 12.313662 
L 146.08972 12.385813 
L 146.089382 12.457964 
L 144.088501 12.530115 
L 143.944578 12.602266 
L 143.191621 12.674418 
L 142.927173 12.746569 
L 142.584484 12.81872 
L 142.549951 12.890871 
L 142.172616 12.963022 
L 141.647336 13.035173 
L 141.607715 13.107324 
L 141.264487 13.179475 
L 141.17201 13.251626 
L 141.154154 13.323777 
L 141.000354 13.395929 
L 140.904802 13.46808 
L 140.657049 13.540231 
L 140.520187 13.612382 
L 140.349818 13.684533 
L 140.264583 13.756684 
L 140.139176 13.828835 
L 140.034534 13.900986 
L 139.868782 13.973137 
L 139.67506 14.045288 
L 139.378933 14.11744 
L 139.156004 14.189591 
L 138.916634 14.261742 
L 138.695948 14.333893 
L 138.649596 14.406044 
L 138.530724 14.478195 
L 138.0303 14.550346 
L 138.020837 14.622497 
L 137.635508 14.694648 
L 137.620565 14.766799 
L 137.104082 14.838951 
L 136.908578 14.911102 
L 136.549873 14.983253 
L 136.471229 15.055404 
L 136.470343 15.127555 
L 136.198566 15.199706 
L 136.192778 15.271857 
L 136.105312 15.344008 
L 136.045546 15.416159 
L 136.010749 15.48831 
L 136.008127 15.560462 
L 135.955059 15.632613 
L 135.772162 15.704764 
L 135.60995 15.776915 
L 135.364327 15.849066 
L 135.353124 15.921217 
L 135.221926 15.993368 
L 135.178257 16.065519 
L 134.973929 16.13767 
L 134.837306 16.209821 
L 134.654122 16.281972 
L 134.614401 16.354124 
L 134.544918 16.426275 
L 134.535237 16.498426 
L 134.505311 16.570577 
L 134.467331 16.642728 
L 134.448853 16.714879 
L 134.429212 16.78703 
L 134.397998 16.859181 
L 134.026402 16.931332 
L 134.01359 17.003483 
L 133.868813 17.075635 
L 133.786706 17.147786 
L 133.605246 17.219937 
L 133.57971 17.292088 
L 133.330454 17.364239 
L 133.323625 17.43639 
L 133.28623 17.508541 
L 133.218673 17.580692 
L 133.140118 17.652843 
L 132.982445 17.724994 
L 132.770914 17.797146 
L 132.664422 17.869297 
L 132.528939 17.941448 
L 132.339418 18.013599 
L 132.281876 18.08575 
L 132.226034 18.157901 
L 132.115051 18.230052 
L 132.077739 18.302203 
L 132.065521 18.374354 
L 131.936618 18.446505 
L 131.861472 18.518657 
L 131.858175 18.590808 
L 131.855316 18.662959 
L 131.751489 18.73511 
L 131.689391 18.807261 
L 131.642604 18.879412 
L 131.241397 18.951563 
L 131.182358 19.023714 
L 131.174132 19.095865 
L 131.051895 19.168016 
L 130.820989 19.240168 
L 130.807547 19.312319 
L 130.665707 19.38447 
L 130.646227 19.456621 
L 130.637664 19.528772 
L 130.543013 19.600923 
L 130.490049 19.673074 
L 130.470259 19.745225 
L 130.383913 19.817376 
L 130.381961 19.889527 
L 130.316536 19.961679 
L 130.246018 20.03383 
L 130.078254 20.105981 
L 129.807286 20.178132 
L 129.446981 20.250283 
L 129.371022 20.322434 
L 129.327341 20.394585 
L 129.23625 20.466736 
L 129.194704 20.538887 
L 129.125171 20.611038 
L 129.100283 20.68319 
L 129.00794 20.755341 
L 128.960526 20.827492 
L 128.766085 20.899643 
L 128.634981 20.971794 
L 128.613468 21.043945 
L 128.589179 21.116096 
L 128.389841 21.188247 
L 128.371411 21.260398 
L 128.284866 21.332549 
L 128.261323 21.4047 
L 128.251711 21.476852 
L 128.122393 21.549003 
L 128.057772 21.621154 
L 128.04072 21.693305 
L 127.916413 21.765456 
L 127.902079 21.837607 
L 127.786229 21.909758 
L 127.766265 21.981909 
L 127.655033 22.05406 
L 127.601039 22.126211 
L 127.561829 22.198363 
L 127.161527 22.270514 
L 127.123999 22.342665 
L 127.110088 22.414816 
L 127.00342 22.486967 
L 126.939953 22.559118 
L 126.906151 22.631269 
L 126.848462 22.70342 
L 126.744877 22.775571 
L 126.681819 22.847722 
L 126.566652 22.919874 
L 126.477644 22.992025 
L 126.475593 23.064176 
L 126.435339 23.136327 
L 126.339046 23.208478 
L 126.13106 23.280629 
L 126.033045 23.35278 
L 126.024583 23.424931 
L 125.967574 23.497082 
L 125.967002 23.569233 
L 125.755787 23.641385 
L 125.702657 23.713536 
L 125.680281 23.785687 
L 125.583859 23.857838 
L 125.523662 23.929989 
L 125.454749 24.00214 
L 125.441586 24.074291 
L 125.354885 24.146442 
L 125.26972 24.218593 
L 125.247355 24.290744 
L 125.226717 24.362896 
L 124.95151 24.435047 
L 124.947801 24.507198 
L 124.93705 24.579349 
L 124.880607 24.6515 
L 124.788 24.723651 
L 124.638165 24.795802 
L 124.60956 24.867953 
L 124.594795 24.940104 
L 124.590208 25.012255 
L 124.44557 25.084407 
L 124.379945 25.156558 
L 124.336806 25.228709 
L 124.312697 25.30086 
L 124.226358 25.373011 
L 124.047404 25.445162 
L 124.012967 25.517313 
L 123.867069 25.589464 
L 123.684392 25.661615 
L 123.640831 25.733766 
L 123.61742 25.805917 
L 123.564848 25.878069 
L 123.490534 25.95022 
L 123.488627 26.022371 
L 123.410789 26.094522 
L 123.354363 26.166673 
L 123.343894 26.238824 
L 123.31327 26.310975 
L 123.202101 26.383126 
L 123.192722 26.455277 
L 123.18725 26.527428 
L 123.183871 26.59958 
L 123.175271 26.671731 
L 123.173113 26.743882 
L 123.126547 26.816033 
L 123.109524 26.888184 
L 123.090094 26.960335 
L 123.001736 27.032486 
L 122.969505 27.104637 
L 122.942921 27.176788 
L 122.937696 27.248939 
L 122.934651 27.321091 
L 122.908697 27.393242 
L 122.801794 27.465393 
L 122.635394 27.537544 
L 122.602553 27.609695 
L 122.534843 27.681846 
L 122.518708 27.753997 
L 122.377968 27.826148 
L 122.089774 27.898299 
L 122.051661 27.97045 
L 122.006706 28.042602 
L 121.866485 28.114753 
L 121.852575 28.186904 
L 121.798692 28.259055 
L 121.782304 28.331206 
L 121.767286 28.403357 
L 121.741135 28.475508 
L 121.736427 28.547659 
L 121.635781 28.61981 
L 121.614096 28.691961 
L 121.606219 28.764113 
L 121.434041 28.836264 
L 121.406175 28.908415 
L 121.349249 28.980566 
L 121.316168 29.052717 
L 121.272209 29.124868 
L 121.247743 29.197019 
L 121.231 29.26917 
L 121.189537 29.341321 
L 121.136332 29.413472 
L 121.001716 29.485624 
L 120.875031 29.557775 
L 120.701352 29.629926 
L 120.684476 29.702077 
L 120.575464 29.774228 
L 120.477063 29.846379 
L 120.434114 29.91853 
L 120.380859 29.990681 
L 120.297827 30.062832 
L 120.179774 30.134983 
L 120.155829 30.207135 
L 120.090541 30.279286 
L 120.029758 30.351437 
L 119.916091 30.423588 
L 119.875241 30.495739 
L 119.848989 30.56789 
L 119.769464 30.640041 
L 119.695987 30.712192 
L 119.692764 30.784343 
L 119.664093 30.856494 
L 119.589057 30.928645 
L 119.542318 31.000797 
L 119.507537 31.072948 
L 119.456882 31.145099 
L 119.281608 31.21725 
L 119.216376 31.289401 
L 119.077001 31.361552 
L 119.049035 31.433703 
L 118.928523 31.505854 
L 118.904199 31.578005 
L 118.87954 31.650156 
L 118.718373 31.722308 
L 118.712688 31.794459 
L 118.690843 31.86661 
L 118.67942 31.938761 
L 118.674371 32.010912 
L 118.669459 32.083063 
L 118.623852 32.155214 
L 118.544513 32.227365 
L 118.511153 32.299516 
L 118.483624 32.371667 
L 118.220152 32.443819 
L 118.092114 32.51597 
L 118.018566 32.588121 
L 118.014386 32.660272 
L 117.883036 32.732423 
L 117.861063 32.804574 
L 117.608021 32.876725 
L 117.521606 32.948876 
L 117.512605 33.021027 
L 117.343566 33.093178 
L 117.337211 33.16533 
L 117.152592 33.237481 
L 117.132842 33.309632 
L 117.120791 33.381783 
L 117.104027 33.453934 
L 117.100305 33.526085 
L 117.086098 33.598236 
L 116.982129 33.670387 
L 116.937002 33.742538 
L 116.865344 33.814689 
L 116.81042 33.886841 
L 116.802035 33.958992 
L 116.666343 34.031143 
L 116.643871 34.103294 
L 116.587335 34.175445 
L 116.567048 34.247596 
L 116.566614 34.319747 
L 116.533238 34.391898 
L 116.519965 34.464049 
L 116.458718 34.5362 
L 116.353035 34.608352 
L 116.23098 34.680503 
L 116.087385 34.752654 
L 115.954861 34.824805 
L 115.911719 34.896956 
L 115.908613 34.969107 
L 115.879417 35.041258 
L 115.783193 35.113409 
L 115.587463 35.18556 
L 115.580512 35.257711 
L 115.576467 35.329862 
L 115.545819 35.402014 
L 115.520019 35.474165 
L 115.518264 35.546316 
L 115.408622 35.618467 
L 115.394847 35.690618 
L 115.379029 35.762769 
L 115.367905 35.83492 
L 115.249597 35.907071 
L 115.063549 35.979222 
L 115.031775 36.051373 
L 114.930039 36.123525 
L 114.929249 36.195676 
L 114.762136 36.267827 
L 114.688888 36.339978 
L 114.624093 36.412129 
L 114.545482 36.48428 
L 114.501391 36.556431 
L 114.486705 36.628582 
L 114.47606 36.700733 
L 114.460986 36.772884 
L 114.378541 36.845036 
L 114.371728 36.917187 
L 114.152821 36.989338 
L 114.140258 37.061489 
L 114.096269 37.13364 
L 113.994828 37.205791 
L 113.876982 37.277942 
L 113.855061 37.350093 
L 113.852826 37.422244 
L 113.852218 37.494395 
L 113.845046 37.566547 
L 113.83315 37.638698 
L 113.777895 37.710849 
L 113.732738 37.783 
L 113.729495 37.855151 
L 113.699057 37.927302 
L 113.665904 37.999453 
L 113.659285 38.071604 
L 113.622562 38.143755 
L 113.607301 38.215906 
L 113.58731 38.288058 
L 113.580359 38.360209 
L 113.550372 38.43236 
L 113.379483 38.504511 
L 113.351183 38.576662 
L 113.330914 38.648813 
L 113.305712 38.720964 
L 113.235482 38.793115 
L 113.018112 38.865266 
L 113.017807 38.937417 
L 112.97078 39.009569 
L 112.916764 39.08172 
L 112.881997 39.153871 
L 112.821355 39.226022 
L 112.596083 39.298173 
L 112.587685 39.370324 
L 112.505914 39.442475 
L 112.418542 39.514626 
L 112.255615 39.586777 
L 112.070616 39.658928 
L 112.059393 39.73108 
L 111.925865 39.803231 
L 111.804898 39.875382 
L 111.726722 39.947533 
L 111.723689 40.019684 
L 111.438594 40.091835 
L 111.357209 40.163986 
L 111.199729 40.236137 
L 111.11736 40.308288 
L 111.114837 40.380439 
L 111.071447 40.45259 
L 111.008074 40.524742 
L 111.006506 40.596893 
L 110.921958 40.669044 
L 110.884461 40.741195 
L 110.774724 40.813346 
L 110.722866 40.885497 
L 110.713203 40.957648 
L 110.633579 41.029799 
L 110.569899 41.10195 
L 110.543225 41.174101 
L 110.441807 41.246253 
L 110.440381 41.318404 
L 110.416377 41.390555 
L 110.413549 41.462706 
L 110.395537 41.534857 
L 110.391734 41.607008 
L 110.360074 41.679159 
L 110.298339 41.75131 
L 110.272161 41.823461 
L 110.24607 41.895612 
L 110.24585 41.967764 
L 110.18124 42.039915 
L 110.149112 42.112066 
L 110.088802 42.184217 
L 110.085738 42.256368 
L 109.949811 42.328519 
L 109.896437 42.40067 
L 109.864357 42.472821 
L 109.80212 42.544972 
L 109.736309 42.617123 
L 109.716208 42.689275 
L 109.7146 42.761426 
L 109.703598 42.833577 
L 109.697246 42.905728 
L 109.500554 42.977879 
L 109.409806 43.05003 
L 109.30692 43.122181 
L 109.184107 43.194332 
L 109.111451 43.266483 
L 109.10248 43.338634 
L 108.953597 43.410786 
L 108.940875 43.482937 
L 108.699579 43.555088 
L 108.695627 43.627239 
L 108.611927 43.69939 
L 108.599756 43.771541 
L 108.560749 43.843692 
L 108.560427 43.915843 
L 108.327591 43.987994 
L 108.323704 44.060145 
L 108.14402 44.132297 
L 108.017387 44.204448 
L 107.956731 44.276599 
L 107.914681 44.34875 
L 107.857262 44.420901 
L 107.840295 44.493052 
L 107.720091 44.565203 
L 107.592799 44.637354 
L 107.575398 44.709505 
L 107.551578 44.781656 
L 107.544747 44.853807 
L 107.503544 44.925959 
L 107.454881 44.99811 
L 107.409505 45.070261 
L 107.388388 45.142412 
L 107.314048 45.214563 
L 107.276168 45.286714 
L 107.252872 45.358865 
L 107.213161 45.431016 
L 107.182229 45.503167 
L 107.166266 45.575318 
L 107.106762 45.64747 
L 107.060572 45.719621 
L 107.015588 45.791772 
L 107.012057 45.863923 
L 106.930593 45.936074 
L 106.916011 46.008225 
L 106.911256 46.080376 
L 106.897066 46.152527 
L 106.889188 46.224678 
L 106.844345 46.296829 
L 106.839868 46.368981 
L 106.754238 46.441132 
L 106.673279 46.513283 
L 106.466743 46.585434 
L 106.446896 46.657585 
L 106.419279 46.729736 
L 106.384482 46.801887 
L 106.272903 46.874038 
L 106.195619 46.946189 
L 106.150416 47.01834 
L 106.059483 47.090492 
L 106.025101 47.162643 
L 105.911155 47.234794 
L 105.909005 47.306945 
L 105.728742 47.379096 
L 105.670159 47.451247 
L 105.525721 47.523398 
L 105.42894 47.595549 
L 105.425745 47.6677 
L 105.272962 47.739851 
L 105.105437 47.812003 
L 105.049157 47.884154 
L 105.002736 47.956305 
L 104.934569 48.028456 
L 104.799267 48.100607 
L 104.787579 48.172758 
L 104.757655 48.244909 
L 104.601742 48.31706 
L 104.568051 48.389211 
L 104.543141 48.461362 
L 104.519026 48.533514 
L 104.419874 48.605665 
L 104.398809 48.677816 
L 104.1328 48.749967 
L 104.004179 48.822118 
L 103.969731 48.894269 
L 103.887025 48.96642 
L 103.828013 49.038571 
L 103.780015 49.110722 
L 103.728888 49.182873 
L 103.689512 49.255025 
L 103.662531 49.327176 
L 103.636579 49.399327 
L 103.621667 49.471478 
L 103.595083 49.543629 
L 103.528809 49.61578 
L 103.488946 49.687931 
L 103.420532 49.760082 
L 103.410897 49.832233 
L 103.378216 49.904384 
L 103.331723 49.976535 
L 103.273885 50.048687 
L 103.181411 50.120838 
L 103.169551 50.192989 
L 103.153625 50.26514 
L 103.059463 50.337291 
L 103.013512 50.409442 
L 102.942002 50.481593 
L 102.81464 50.553744 
L 102.691047 50.625895 
L 102.675278 50.698046 
L 102.531918 50.770198 
L 102.526371 50.842349 
L 102.482637 50.9145 
L 102.407592 50.986651 
L 102.36759 51.058802 
L 102.274512 51.130953 
L 102.187366 51.203104 
L 102.178411 51.275255 
L 102.062165 51.347406 
L 102.05313 51.419557 
L 101.913231 51.491709 
L 101.831611 51.56386 
L 101.821309 51.636011 
L 101.651709 51.708162 
L 101.544268 51.780313 
L 101.510179 51.852464 
L 101.380771 51.924615 
L 101.335337 51.996766 
L 101.269466 52.068917 
L 101.164038 52.141068 
L 101.157491 52.21322 
L 101.1522 52.285371 
L 101.140954 52.357522 
L 101.104235 52.429673 
L 101.050393 52.501824 
L 101.004719 52.573975 
L 100.995918 52.646126 
L 100.785118 52.718277 
L 100.752394 52.790428 
L 100.680303 52.862579 
L 100.657609 52.934731 
L 100.565855 53.006882 
L 100.528927 53.079033 
L 100.499872 53.151184 
L 100.425031 53.223335 
L 100.388047 53.295486 
L 100.381301 53.367637 
L 100.354983 53.439788 
L 100.276917 53.511939 
L 100.171425 53.58409 
L 99.968183 53.656242 
L 99.80191 53.728393 
L 99.745323 53.800544 
L 99.740184 53.872695 
L 99.737737 53.944846 
L 99.408137 54.016997 
L 99.406889 54.089148 
L 99.39962 54.161299 
L 99.365004 54.23345 
L 99.195126 54.305601 
L 99.037805 54.377752 
L 99.024667 54.449904 
L 98.926944 54.522055 
L 98.887507 54.594206 
L 98.843226 54.666357 
L 98.82474 54.738508 
L 98.701844 54.810659 
L 98.602415 54.88281 
L 98.601347 54.954961 
L 98.559415 55.027112 
L 98.442348 55.099263 
L 98.402256 55.171415 
L 98.341688 55.243566 
L 98.246409 55.315717 
L 98.147707 55.387868 
L 98.103402 55.460019 
L 97.940427 55.53217 
L 97.732377 55.604321 
L 97.727901 55.676472 
L 97.59149 55.748623 
L 97.356473 55.820774 
L 97.270664 55.892926 
L 97.153314 55.965077 
L 97.151018 56.037228 
L 97.132593 56.109379 
L 97.004621 56.18153 
L 96.835719 56.253681 
L 96.75154 56.325832 
L 96.731621 56.397983 
L 96.623021 56.470134 
L 96.62015 56.542285 
L 96.611031 56.614437 
L 96.503315 56.686588 
L 96.471571 56.758739 
L 96.446592 56.83089 
L 96.416276 56.903041 
L 96.039734 56.975192 
L 96.030343 57.047343 
L 95.88192 57.119494 
L 95.845505 57.191645 
L 95.706364 57.263796 
L 95.658011 57.335948 
L 95.56084 57.408099 
L 95.531454 57.48025 
L 95.341188 57.552401 
L 95.224654 57.624552 
L 95.189817 57.696703 
L 95.156177 57.768854 
L 95.080854 57.841005 
L 95.070381 57.913156 
L 95.017871 57.985307 
L 94.948999 58.057459 
L 94.775292 58.12961 
L 94.701925 58.201761 
L 94.60509 58.273912 
L 94.590406 58.346063 
L 94.441418 58.418214 
L 94.431937 58.490365 
L 94.328446 58.562516 
L 94.321415 58.634667 
L 94.201316 58.706818 
L 94.124845 58.77897 
L 94.002879 58.851121 
L 93.90164 58.923272 
L 93.787514 58.995423 
L 93.737642 59.067574 
L 93.613771 59.139725 
L 93.5833 59.211876 
L 93.222792 59.284027 
L 92.98319 59.356178 
L 92.774811 59.428329 
L 92.732491 59.50048 
L 92.594724 59.572632 
L 92.352874 59.644783 
L 92.327135 59.716934 
L 92.257153 59.789085 
L 91.728993 59.861236 
L 91.725315 59.933387 
L 91.678788 60.005538 
L 91.644481 60.077689 
L 91.504486 60.14984 
L 91.288124 60.221991 
L 91.252147 60.294143 
L 91.142573 60.366294 
L 90.890077 60.438445 
L 90.784169 60.510596 
L 90.747836 60.582747 
L 90.692916 60.654898 
L 90.445401 60.727049 
L 90.148291 60.7992 
L 90.099082 60.871351 
L 90.062075 60.943502 
L 89.909548 61.015654 
L 89.9006 61.087805 
L 89.8336 61.159956 
L 89.79077 61.232107 
L 89.743873 61.304258 
L 89.459433 61.376409 
L 89.367081 61.44856 
L 88.573443 61.520711 
L 88.540951 61.592862 
L 88.42361 61.665013 
L 88.39999 61.737165 
L 88.290137 61.809316 
L 88.09847 61.881467 
L 87.978151 61.953618 
L 87.586735 62.025769 
L 87.47591 62.09792 
L 87.470586 62.170071 
L 87.254491 62.242222 
L 87.246909 62.314373 
L 87.055781 62.386524 
L 86.904479 62.458676 
L 86.859833 62.530827 
L 86.854635 62.602978 
L 86.839263 62.675129 
L 86.733662 62.74728 
L 86.615434 62.819431 
L 86.482945 62.891582 
L 86.256094 62.963733 
L 86.183889 63.035884 
L 86.09471 63.108035 
L 86.093309 63.180187 
L 85.521112 63.252338 
L 85.479546 63.324489 
L 85.458549 63.39664 
L 85.382844 63.468791 
L 84.778308 63.540942 
L 84.628346 63.613093 
L 84.606426 63.685244 
L 84.447841 63.757395 
L 84.421074 63.829546 
L 84.071876 63.901697 
L 83.747297 63.973849 
L 83.177553 64.046 
L 82.105434 64.118151 
L 82.072763 64.190302 
L 81.906622 64.262453 
L 81.576238 64.334604 
L 80.697205 64.406755 
L 80.603234 64.478906 
L 80.580823 64.551057 
L 80.359279 64.623208 
L 80.302938 64.69536 
L 80.243193 64.767511 
L 79.750402 64.839662 
L 79.279938 64.911813 
L 78.774886 64.983964 
L 78.702088 65.056115 
L 78.678493 65.128266 
L 78.063995 65.200417 
L 77.108891 65.272568 
L 76.770896 65.344719 
L 76.123008 65.416871 
L 76.069317 65.489022 
L 75.955026 65.561173 
L 75.135966 65.633324 
L 74.20502 65.705475 
L 73.720355 65.777626 
L 72.806284 65.849777 
L 71.617104 65.921928 
L 70.246489 65.994079 
L 69.625937 66.06623 
L 68.952494 66.138382 
L 68.600778 66.210533 
L 68.539095 66.282684 
L 68.009386 66.354835 
L 67.86739 66.426986 
L 67.28039 66.499137 
L 67.087593 66.571288 
L 66.75377 66.643439 
L 66.390165 66.71559 
L 65.735103 66.787741 
L 65.530048 66.859893 
L 64.405805 66.932044 
L 64.274942 67.004195 
L 63.65288 67.076346 
L 57.97509 67.148497 
L 57.402658 67.220648 
L 54.372032 67.292799 
L 53.955245 67.36495 
L 53.547541 67.437101 
L 53.385104 67.509252 
L 48.348851 67.581404 
L 47.416548 67.653555 
L 47.353082 67.725706 
L 47.251735 67.797857 
L 45.318536 67.870008 
L 43.461107 67.942159 
L 42.793663 68.01431 
L 40.138785 68.086461 
L 37.59481 68.158612 
L 35.304108 68.230763 
L 32.971909 68.302914 
L 32.702029 68.375066 
L 30.205666 68.447217 
L 28.077506 68.519368 
L 24.249914 68.591519 
L 23.970809 68.66367 
L 22.789325 68.735821 
L 22.35736 68.807972 
L 20.225221 68.880123 
L 20.189178 68.952274 
L 17.606991 69.024425 
L 15.637615 69.096577 
L 13.926299 69.168728 
L 12.465522 69.240879 
L 10.135312 69.31303 
L 9.27593 69.385181 
L 4.03569 69.457332 
L 4.015076 69.529483 
L 0.906222 69.601634 
L -1.717956 69.673785 
L -4.475573 69.745936 
L -9.981816 69.818088 
L -21.860574 69.890239 
z
" clip-path="url(#p8d4b23d5c0)" style="fill: #808080; fill-opacity: 0.4"/>
   </g>
   <g id="matplotlib.axis_1">
    <g id="xtick_1">
     <g id="line2d_1">
      <defs>
       <path id="mafc9710bce" d="M 0 0 
L 0 -5 
" style="stroke: #000000; stroke-width: 0.5"/>
      </defs>
      <g>
       <use xlink:href="#mafc9710bce" x="35.32" y="69.96239" style="fill-opacity: 0; stroke: #000000; stroke-width: 0.5"/>
      </g>
     </g>
     <g id="text_1">
      <!-- $\mathdefault{10^{1}}$ -->
      <g transform="translate(29.04 80.21239)scale(0.08 -0.08)">
       <defs>
        <path id="ArialMT-31" d="M 2384 0 
L 1822 0 
L 1822 3584 
Q 1619 3391 1289 3197 
Q 959 3003 697 2906 
L 697 3450 
Q 1169 3672 1522 3987 
Q 1875 4303 2022 4600 
L 2384 4600 
L 2384 0 
z
" transform="scale(0.015625)"/>
        <path id="ArialMT-30" d="M 266 2259 
Q 266 3072 433 3567 
Q 600 4063 929 4331 
Q 1259 4600 1759 4600 
Q 2128 4600 2406 4451 
Q 2684 4303 2865 4023 
Q 3047 3744 3150 3342 
Q 3253 2941 3253 2259 
Q 3253 1453 3087 958 
Q 2922 463 2592 192 
Q 2263 -78 1759 -78 
Q 1097 -78 719 397 
Q 266 969 266 2259 
z
M 844 2259 
Q 844 1131 1108 757 
Q 1372 384 1759 384 
Q 2147 384 2411 759 
Q 2675 1134 2675 2259 
Q 2675 3391 2411 3762 
Q 2147 4134 1753 4134 
Q 1366 4134 1134 3806 
Q 844 3388 844 2259 
z
" transform="scale(0.015625)"/>
       </defs>
       <use xlink:href="#ArialMT-31" transform="translate(0 0.99375)"/>
       <use xlink:href="#ArialMT-30" transform="translate(55.615234 0.99375)"/>
       <use xlink:href="#ArialMT-31" transform="translate(112.972813 70.6875)scale(0.7)"/>
      </g>
     </g>
    </g>
    <g id="xtick_2">
     <g id="line2d_2">
      <g>
       <use xlink:href="#mafc9710bce" x="109.55247" y="69.96239" style="fill-opacity: 0; stroke: #000000; stroke-width: 0.5"/>
      </g>
     </g>
     <g id="text_2">
      <!-- $\mathdefault{10^{2}}$ -->
      <g transform="translate(103.27247 80.21239)scale(0.08 -0.08)">
       <defs>
        <path id="ArialMT-32" d="M 3222 541 
L 3222 0 
L 194 0 
Q 188 203 259 391 
Q 375 700 629 1000 
Q 884 1300 1366 1694 
Q 2113 2306 2375 2664 
Q 2638 3022 2638 3341 
Q 2638 3675 2398 3904 
Q 2159 4134 1775 4134 
Q 1369 4134 1125 3890 
Q 881 3647 878 3216 
L 300 3275 
Q 359 3922 746 4261 
Q 1134 4600 1788 4600 
Q 2447 4600 2831 4234 
Q 3216 3869 3216 3328 
Q 3216 3053 3103 2787 
Q 2991 2522 2730 2228 
Q 2469 1934 1863 1422 
Q 1356 997 1212 845 
Q 1069 694 975 541 
L 3222 541 
z
" transform="scale(0.015625)"/>
       </defs>
       <use xlink:href="#ArialMT-31" transform="translate(0 0.99375)"/>
       <use xlink:href="#ArialMT-30" transform="translate(55.615234 0.99375)"/>
       <use xlink:href="#ArialMT-32" transform="translate(112.972813 70.6875)scale(0.7)"/>
      </g>
     </g>
    </g>
    <g id="xtick_3">
     <g id="line2d_3">
      <defs>
       <path id="m09aaa08256" d="M 0 0 
L 0 -3 
" style="stroke: #000000; stroke-width: 0.5"/>
      </defs>
      <g>
       <use xlink:href="#m09aaa08256" x="57.6662" y="69.96239" style="fill-opacity: 0; stroke: #000000; stroke-width: 0.5"/>
      </g>
     </g>
    </g>
    <g id="xtick_4">
     <g id="line2d_4">
      <g>
       <use xlink:href="#m09aaa08256" x="70.737889" y="69.96239" style="fill-opacity: 0; stroke: #000000; stroke-width: 0.5"/>
      </g>
     </g>
    </g>
    <g id="xtick_5">
     <g id="line2d_5">
      <g>
       <use xlink:href="#m09aaa08256" x="80.0124" y="69.96239" style="fill-opacity: 0; stroke: #000000; stroke-width: 0.5"/>
      </g>
     </g>
    </g>
    <g id="xtick_6">
     <g id="line2d_6">
      <g>
       <use xlink:href="#m09aaa08256" x="87.20627" y="69.96239" style="fill-opacity: 0; stroke: #000000; stroke-width: 0.5"/>
      </g>
     </g>
    </g>
    <g id="xtick_7">
     <g id="line2d_7">
      <g>
       <use xlink:href="#m09aaa08256" x="93.084089" y="69.96239" style="fill-opacity: 0; stroke: #000000; stroke-width: 0.5"/>
      </g>
     </g>
    </g>
    <g id="xtick_8">
     <g id="line2d_8">
      <g>
       <use xlink:href="#m09aaa08256" x="98.053715" y="69.96239" style="fill-opacity: 0; stroke: #000000; stroke-width: 0.5"/>
      </g>
     </g>
    </g>
    <g id="xtick_9">
     <g id="line2d_9">
      <g>
       <use xlink:href="#m09aaa08256" x="102.358601" y="69.96239" style="fill-opacity: 0; stroke: #000000; stroke-width: 0.5"/>
      </g>
     </g>
    </g>
    <g id="xtick_10">
     <g id="line2d_10">
      <g>
       <use xlink:href="#m09aaa08256" x="106.155779" y="69.96239" style="fill-opacity: 0; stroke: #000000; stroke-width: 0.5"/>
      </g>
     </g>
    </g>
    <g id="xtick_11">
     <g id="line2d_11">
      <g>
       <use xlink:href="#m09aaa08256" x="131.89867" y="69.96239" style="fill-opacity: 0; stroke: #000000; stroke-width: 0.5"/>
      </g>
     </g>
    </g>
    <g id="xtick_12">
     <g id="line2d_12">
      <g>
       <use xlink:href="#m09aaa08256" x="144.970359" y="69.96239" style="fill-opacity: 0; stroke: #000000; stroke-width: 0.5"/>
      </g>
     </g>
    </g>
    <g id="xtick_13">
     <g id="line2d_13">
      <g>
       <use xlink:href="#m09aaa08256" x="154.244871" y="69.96239" style="fill-opacity: 0; stroke: #000000; stroke-width: 0.5"/>
      </g>
     </g>
    </g>
    <g id="xtick_14">
     <g id="line2d_14">
      <g>
       <use xlink:href="#m09aaa08256" x="161.43874" y="69.96239" style="fill-opacity: 0; stroke: #000000; stroke-width: 0.5"/>
      </g>
     </g>
    </g>
    <g id="text_3">
     <!-- $F_b (kN)$ -->
     <g transform="translate(85.73937 89.73239)scale(0.08 -0.08)">
      <defs>
       <path id="DejaVuSans-Oblique-46" d="M 1081 4666 
L 3756 4666 
L 3653 4134 
L 1606 4134 
L 1338 2759 
L 3188 2759 
L 3084 2228 
L 1234 2228 
L 800 0 
L 172 0 
L 1081 4666 
z
" transform="scale(0.015625)"/>
       <path id="DejaVuSans-Oblique-62" d="M 3169 2138 
Q 3169 2591 2961 2847 
Q 2753 3103 2388 3103 
Q 2122 3103 1889 2973 
Q 1656 2844 1484 2597 
Q 1303 2338 1198 1995 
Q 1094 1653 1094 1313 
Q 1094 881 1298 636 
Q 1503 391 1863 391 
Q 2134 391 2365 517 
Q 2597 644 2772 891 
Q 2950 1147 3059 1487 
Q 3169 1828 3169 2138 
z
M 1381 2969 
Q 1594 3256 1914 3420 
Q 2234 3584 2584 3584 
Q 3122 3584 3439 3221 
Q 3756 2859 3756 2241 
Q 3756 1734 3570 1259 
Q 3384 784 3041 416 
Q 2816 172 2522 40 
Q 2228 -91 1906 -91 
Q 1566 -91 1316 65 
Q 1066 222 909 531 
L 806 0 
L 231 0 
L 1178 4863 
L 1753 4863 
L 1381 2969 
z
" transform="scale(0.015625)"/>
       <path id="DejaVuSans-28" d="M 1984 4856 
Q 1566 4138 1362 3434 
Q 1159 2731 1159 2009 
Q 1159 1288 1364 580 
Q 1569 -128 1984 -844 
L 1484 -844 
Q 1016 -109 783 600 
Q 550 1309 550 2009 
Q 550 2706 781 3412 
Q 1013 4119 1484 4856 
L 1984 4856 
z
" transform="scale(0.015625)"/>
       <path id="DejaVuSans-Oblique-6b" d="M 1172 4863 
L 1747 4863 
L 1197 2028 
L 3169 3500 
L 3916 3500 
L 1716 1825 
L 3322 0 
L 2625 0 
L 1131 1709 
L 800 0 
L 225 0 
L 1172 4863 
z
" transform="scale(0.015625)"/>
       <path id="DejaVuSans-Oblique-4e" d="M 1081 4666 
L 1931 4666 
L 3219 666 
L 4000 4666 
L 4616 4666 
L 3706 0 
L 2853 0 
L 1569 4025 
L 788 0 
L 172 0 
L 1081 4666 
z
" transform="scale(0.015625)"/>
       <path id="DejaVuSans-29" d="M 513 4856 
L 1013 4856 
Q 1481 4119 1714 3412 
Q 1947 2706 1947 2009 
Q 1947 1309 1714 600 
Q 1481 -109 1013 -844 
L 513 -844 
Q 928 -128 1133 580 
Q 1338 1288 1338 2009 
Q 1338 2731 1133 3434 
Q 928 4138 513 4856 
z
" transform="scale(0.015625)"/>
      </defs>
      <use xlink:href="#DejaVuSans-Oblique-46" transform="translate(0 0.015625)"/>
      <use xlink:href="#DejaVuSans-Oblique-62" transform="translate(57.519531 -16.390625)scale(0.7)"/>
      <use xlink:href="#DejaVuSans-28" transform="translate(104.6875 0.015625)"/>
      <use xlink:href="#DejaVuSans-Oblique-6b" transform="translate(143.701172 0.015625)"/>
      <use xlink:href="#DejaVuSans-Oblique-4e" transform="translate(201.611328 0.015625)"/>
      <use xlink:href="#DejaVuSans-29" transform="translate(276.416016 0.015625)"/>
     </g>
    </g>
   </g>
   <g id="matplotlib.axis_2">
    <g id="ytick_1">
     <g id="line2d_15">
      <defs>
       <path id="mbcad798a58" d="M 0 0 
L 5 0 
" style="stroke: #000000; stroke-width: 0.5"/>
      </defs>
      <g>
       <use xlink:href="#mbcad798a58" x="35.32" y="69.96239" style="fill-opacity: 0; stroke: #000000; stroke-width: 0.5"/>
      </g>
     </g>
     <g id="text_4">
      <!-- 0.00 -->
      <g transform="translate(17.75125 72.825515)scale(0.08 -0.08)">
       <defs>
        <path id="ArialMT-2e" d="M 581 0 
L 581 641 
L 1222 641 
L 1222 0 
L 581 0 
z
" transform="scale(0.015625)"/>
       </defs>
       <use xlink:href="#ArialMT-30"/>
       <use xlink:href="#ArialMT-2e" x="55.615234"/>
       <use xlink:href="#ArialMT-30" x="83.398438"/>
       <use xlink:href="#ArialMT-30" x="139.013672"/>
      </g>
     </g>
    </g>
    <g id="ytick_2">
     <g id="line2d_16">
      <g>
       <use xlink:href="#mbcad798a58" x="35.32" y="55.351792" style="fill-opacity: 0; stroke: #000000; stroke-width: 0.5"/>
      </g>
     </g>
     <g id="text_5">
      <!-- 0.25 -->
      <g transform="translate(17.75125 58.214917)scale(0.08 -0.08)">
       <defs>
        <path id="ArialMT-35" d="M 266 1200 
L 856 1250 
Q 922 819 1161 601 
Q 1400 384 1738 384 
Q 2144 384 2425 690 
Q 2706 997 2706 1503 
Q 2706 1984 2436 2262 
Q 2166 2541 1728 2541 
Q 1456 2541 1237 2417 
Q 1019 2294 894 2097 
L 366 2166 
L 809 4519 
L 3088 4519 
L 3088 3981 
L 1259 3981 
L 1013 2750 
Q 1425 3038 1878 3038 
Q 2478 3038 2890 2622 
Q 3303 2206 3303 1553 
Q 3303 931 2941 478 
Q 2500 -78 1738 -78 
Q 1113 -78 717 272 
Q 322 622 266 1200 
z
" transform="scale(0.015625)"/>
       </defs>
       <use xlink:href="#ArialMT-30"/>
       <use xlink:href="#ArialMT-2e" x="55.615234"/>
       <use xlink:href="#ArialMT-32" x="83.398438"/>
       <use xlink:href="#ArialMT-35" x="139.013672"/>
      </g>
     </g>
    </g>
    <g id="ytick_3">
     <g id="line2d_17">
      <g>
       <use xlink:href="#mbcad798a58" x="35.32" y="40.741195" style="fill-opacity: 0; stroke: #000000; stroke-width: 0.5"/>
      </g>
     </g>
     <g id="text_6">
      <!-- 0.50 -->
      <g transform="translate(17.75125 43.60432)scale(0.08 -0.08)">
       <use xlink:href="#ArialMT-30"/>
       <use xlink:href="#ArialMT-2e" x="55.615234"/>
       <use xlink:href="#ArialMT-35" x="83.398438"/>
       <use xlink:href="#ArialMT-30" x="139.013672"/>
      </g>
     </g>
    </g>
    <g id="ytick_4">
     <g id="line2d_18">
      <g>
       <use xlink:href="#mbcad798a58" x="35.32" y="26.130597" style="fill-opacity: 0; stroke: #000000; stroke-width: 0.5"/>
      </g>
     </g>
     <g id="text_7">
      <!-- 0.75 -->
      <g transform="translate(17.75125 28.993722)scale(0.08 -0.08)">
       <defs>
        <path id="ArialMT-37" d="M 303 3981 
L 303 4522 
L 3269 4522 
L 3269 4084 
Q 2831 3619 2401 2847 
Q 1972 2075 1738 1259 
Q 1569 684 1522 0 
L 944 0 
Q 953 541 1156 1306 
Q 1359 2072 1739 2783 
Q 2119 3494 2547 3981 
L 303 3981 
z
" transform="scale(0.015625)"/>
       </defs>
       <use xlink:href="#ArialMT-30"/>
       <use xlink:href="#ArialMT-2e" x="55.615234"/>
       <use xlink:href="#ArialMT-37" x="83.398438"/>
       <use xlink:href="#ArialMT-35" x="139.013672"/>
      </g>
     </g>
    </g>
    <g id="ytick_5">
     <g id="line2d_19">
      <g>
       <use xlink:href="#mbcad798a58" x="35.32" y="11.52" style="fill-opacity: 0; stroke: #000000; stroke-width: 0.5"/>
      </g>
     </g>
     <g id="text_8">
      <!-- 1.00 -->
      <g transform="translate(17.75125 14.383125)scale(0.08 -0.08)">
       <use xlink:href="#ArialMT-31"/>
       <use xlink:href="#ArialMT-2e" x="55.615234"/>
       <use xlink:href="#ArialMT-30" x="83.398438"/>
       <use xlink:href="#ArialMT-30" x="139.013672"/>
      </g>
     </g>
    </g>
    <g id="ytick_6">
     <g id="line2d_20">
      <defs>
       <path id="m4e0d0eca5f" d="M 0 0 
L 3 0 
" style="stroke: #000000; stroke-width: 0.5"/>
      </defs>
      <g>
       <use xlink:href="#m4e0d0eca5f" x="35.32" y="67.04027" style="fill-opacity: 0; stroke: #000000; stroke-width: 0.5"/>
      </g>
     </g>
    </g>
    <g id="ytick_7">
     <g id="line2d_21">
      <g>
       <use xlink:href="#m4e0d0eca5f" x="35.32" y="64.118151" style="fill-opacity: 0; stroke: #000000; stroke-width: 0.5"/>
      </g>
     </g>
    </g>
    <g id="ytick_8">
     <g id="line2d_22">
      <g>
       <use xlink:href="#m4e0d0eca5f" x="35.32" y="61.196031" style="fill-opacity: 0; stroke: #000000; stroke-width: 0.5"/>
      </g>
     </g>
    </g>
    <g id="ytick_9">
     <g id="line2d_23">
      <g>
       <use xlink:href="#m4e0d0eca5f" x="35.32" y="58.273912" style="fill-opacity: 0; stroke: #000000; stroke-width: 0.5"/>
      </g>
     </g>
    </g>
    <g id="ytick_10">
     <g id="line2d_24">
      <g>
       <use xlink:href="#m4e0d0eca5f" x="35.32" y="52.429673" style="fill-opacity: 0; stroke: #000000; stroke-width: 0.5"/>
      </g>
     </g>
    </g>
    <g id="ytick_11">
     <g id="line2d_25">
      <g>
       <use xlink:href="#m4e0d0eca5f" x="35.32" y="49.507553" style="fill-opacity: 0; stroke: #000000; stroke-width: 0.5"/>
      </g>
     </g>
    </g>
    <g id="ytick_12">
     <g id="line2d_26">
      <g>
       <use xlink:href="#m4e0d0eca5f" x="35.32" y="46.585434" style="fill-opacity: 0; stroke: #000000; stroke-width: 0.5"/>
      </g>
     </g>
    </g>
    <g id="ytick_13">
     <g id="line2d_27">
      <g>
       <use xlink:href="#m4e0d0eca5f" x="35.32" y="43.663314" style="fill-opacity: 0; stroke: #000000; stroke-width: 0.5"/>
      </g>
     </g>
    </g>
    <g id="ytick_14">
     <g id="line2d_28">
      <g>
       <use xlink:href="#m4e0d0eca5f" x="35.32" y="37.819075" style="fill-opacity: 0; stroke: #000000; stroke-width: 0.5"/>
      </g>
     </g>
    </g>
    <g id="ytick_15">
     <g id="line2d_29">
      <g>
       <use xlink:href="#m4e0d0eca5f" x="35.32" y="34.896956" style="fill-opacity: 0; stroke: #000000; stroke-width: 0.5"/>
      </g>
     </g>
    </g>
    <g id="ytick_16">
     <g id="line2d_30">
      <g>
       <use xlink:href="#m4e0d0eca5f" x="35.32" y="31.974836" style="fill-opacity: 0; stroke: #000000; stroke-width: 0.5"/>
      </g>
     </g>
    </g>
    <g id="ytick_17">
     <g id="line2d_31">
      <g>
       <use xlink:href="#m4e0d0eca5f" x="35.32" y="29.052717" style="fill-opacity: 0; stroke: #000000; stroke-width: 0.5"/>
      </g>
     </g>
    </g>
    <g id="ytick_18">
     <g id="line2d_32">
      <g>
       <use xlink:href="#m4e0d0eca5f" x="35.32" y="23.208478" style="fill-opacity: 0; stroke: #000000; stroke-width: 0.5"/>
      </g>
     </g>
    </g>
    <g id="ytick_19">
     <g id="line2d_33">
      <g>
       <use xlink:href="#m4e0d0eca5f" x="35.32" y="20.286358" style="fill-opacity: 0; stroke: #000000; stroke-width: 0.5"/>
      </g>
     </g>
    </g>
    <g id="ytick_20">
     <g id="line2d_34">
      <g>
       <use xlink:href="#m4e0d0eca5f" x="35.32" y="17.364239" style="fill-opacity: 0; stroke: #000000; stroke-width: 0.5"/>
      </g>
     </g>
    </g>
    <g id="ytick_21">
     <g id="line2d_35">
      <g>
       <use xlink:href="#m4e0d0eca5f" x="35.32" y="14.442119" style="fill-opacity: 0; stroke: #000000; stroke-width: 0.5"/>
      </g>
     </g>
    </g>
    <g id="text_9">
     <!-- CDF -->
     <g transform="translate(14.16125 48.96182)rotate(-90)scale(0.08 -0.08)">
      <defs>
       <path id="ArialMT-43" d="M 3763 1606 
L 4369 1453 
Q 4178 706 3683 314 
Q 3188 -78 2472 -78 
Q 1731 -78 1267 223 
Q 803 525 561 1097 
Q 319 1669 319 2325 
Q 319 3041 592 3573 
Q 866 4106 1370 4382 
Q 1875 4659 2481 4659 
Q 3169 4659 3637 4309 
Q 4106 3959 4291 3325 
L 3694 3184 
Q 3534 3684 3231 3912 
Q 2928 4141 2469 4141 
Q 1941 4141 1586 3887 
Q 1231 3634 1087 3207 
Q 944 2781 944 2328 
Q 944 1744 1114 1308 
Q 1284 872 1643 656 
Q 2003 441 2422 441 
Q 2931 441 3284 734 
Q 3638 1028 3763 1606 
z
" transform="scale(0.015625)"/>
       <path id="ArialMT-44" d="M 494 0 
L 494 4581 
L 2072 4581 
Q 2606 4581 2888 4516 
Q 3281 4425 3559 4188 
Q 3922 3881 4101 3404 
Q 4281 2928 4281 2316 
Q 4281 1794 4159 1391 
Q 4038 988 3847 723 
Q 3656 459 3429 307 
Q 3203 156 2883 78 
Q 2563 0 2147 0 
L 494 0 
z
M 1100 541 
L 2078 541 
Q 2531 541 2789 625 
Q 3047 709 3200 863 
Q 3416 1078 3536 1442 
Q 3656 1806 3656 2325 
Q 3656 3044 3420 3430 
Q 3184 3816 2847 3947 
Q 2603 4041 2063 4041 
L 1100 4041 
L 1100 541 
z
" transform="scale(0.015625)"/>
       <path id="ArialMT-46" d="M 525 0 
L 525 4581 
L 3616 4581 
L 3616 4041 
L 1131 4041 
L 1131 2622 
L 3281 2622 
L 3281 2081 
L 1131 2081 
L 1131 0 
L 525 0 
z
" transform="scale(0.015625)"/>
      </defs>
      <use xlink:href="#ArialMT-43"/>
      <use xlink:href="#ArialMT-44" x="72.216797"/>
      <use xlink:href="#ArialMT-46" x="144.433594"/>
     </g>
    </g>
   </g>
   <g id="line2d_36">
    <path d="M 12.197677 69.890239 
L 25.35149 69.745936 
L 28.936145 69.673785 
L 41.922641 69.529483 
L 42.846236 69.457332 
L 49.859716 69.240879 
L 51.158309 69.024425 
L 51.161988 68.952274 
L 58.139803 68.735821 
L 58.273891 68.66367 
L 62.886595 68.375066 
L 63.1461 68.302914 
L 71.020825 68.086461 
L 71.317829 67.942159 
L 79.16856 66.571288 
L 83.296693 66.354835 
L 83.488466 66.210533 
L 86.223892 65.994079 
L 86.497016 65.921928 
L 87.573033 65.777626 
L 87.613774 65.633324 
L 88.128176 65.489022 
L 88.58769 65.344719 
L 89.787838 65.056115 
L 90.110068 64.839662 
L 91.275945 64.69536 
L 92.006489 64.478906 
L 94.495624 63.468791 
L 95.560345 63.324489 
L 95.622138 63.252338 
L 96.065079 63.035884 
L 96.161831 62.963733 
L 97.311629 62.675129 
L 97.337898 62.602978 
L 97.532648 62.458676 
L 97.534519 62.386524 
L 97.950125 62.09792 
L 98.081634 61.953618 
L 98.543675 61.592862 
L 99.554228 61.44856 
L 99.746149 61.232107 
L 99.875732 61.087805 
L 101.030671 60.943502 
L 101.576279 60.727049 
L 101.653043 60.654898 
L 102.347343 60.510596 
L 102.540119 60.14984 
L 102.764565 60.005538 
L 102.979105 59.861236 
L 103.513114 59.644783 
L 103.906935 59.356178 
L 103.932659 59.284027 
L 104.408038 59.067574 
L 104.538057 58.923272 
L 105.10485 58.706818 
L 105.783699 58.057459 
L 106.38765 57.768854 
L 106.920206 56.975192 
L 108.20686 56.109379 
L 108.226152 56.037228 
L 108.701583 55.748623 
L 108.90367 55.53217 
L 109.147143 55.315717 
L 109.459461 55.099263 
L 109.520925 54.88281 
L 110.429482 54.666357 
L 110.590388 54.305601 
L 110.615277 54.23345 
L 110.782569 54.089148 
L 110.815627 53.944846 
L 111.434103 53.58409 
L 112.062888 53.151184 
L 112.29954 52.862579 
L 112.352137 52.718277 
L 113.098037 52.501824 
L 114.572849 50.9145 
L 114.662915 50.625895 
L 114.819437 50.481593 
L 114.835568 50.337291 
L 114.984359 50.192989 
L 115.019636 50.048687 
L 115.307071 49.832233 
L 115.534127 49.543629 
L 116.136772 48.749967 
L 116.13905 48.677816 
L 116.30447 48.461362 
L 116.304683 48.389211 
L 116.492113 48.172758 
L 116.757507 47.739851 
L 117.192788 47.090492 
L 117.202589 47.01834 
L 117.382821 46.874038 
L 117.551389 46.513283 
L 118.177543 46.080376 
L 118.190242 45.936074 
L 118.61723 45.64747 
L 119.242921 45.142412 
L 119.273541 44.99811 
L 119.792933 44.637354 
L 120.188518 43.987994 
L 120.539288 43.627239 
L 120.688859 43.410786 
L 120.876611 43.194332 
L 121.126564 42.761426 
L 121.248706 42.544972 
L 121.426132 42.256368 
L 121.501136 41.895612 
L 121.680303 41.75131 
L 121.769473 41.534857 
L 122.52492 40.885497 
L 122.684917 40.669044 
L 122.995692 40.524742 
L 123.229634 40.236137 
L 124.204042 39.658928 
L 124.366432 39.442475 
L 126.633398 36.412129 
L 126.654578 36.339978 
L 126.894055 36.123525 
L 127.401817 35.113409 
L 127.85557 34.608352 
L 128.876419 32.732423 
L 129.038441 32.51597 
L 129.179925 32.299516 
L 129.559061 31.86661 
L 129.575615 31.794459 
L 129.777162 31.578005 
L 130.153958 31.072948 
L 130.234787 30.856494 
L 130.321713 30.712192 
L 130.422558 30.56789 
L 130.5099 30.351437 
L 130.88038 29.846379 
L 130.902724 29.774228 
L 131.311062 29.557775 
L 131.769797 28.764113 
L 131.877998 28.547659 
L 132.081895 27.826148 
L 132.231295 27.465393 
L 132.359196 27.321091 
L 132.516823 26.888184 
L 132.781218 26.671731 
L 132.953651 26.310975 
L 133.567455 25.733766 
L 133.602635 25.589464 
L 133.80247 25.373011 
L 133.996746 25.012255 
L 135.051842 23.857838 
L 135.412986 23.569233 
L 135.490094 23.424931 
L 135.594486 23.208478 
L 135.664326 22.992025 
L 136.161669 22.775571 
L 136.587958 22.270514 
L 136.655749 22.126211 
L 137.116668 21.837607 
L 137.268637 21.621154 
L 137.269542 21.549003 
L 137.63398 21.332549 
L 137.957389 20.971794 
L 138.071494 20.68319 
L 138.847463 19.961679 
L 139.447435 19.528772 
L 139.701774 19.312319 
L 140.152261 19.168016 
L 140.174774 19.095865 
L 140.455168 18.879412 
L 140.688606 18.662959 
L 141.07222 18.302203 
L 141.324813 18.157901 
L 141.470403 17.869297 
L 142.263431 17.508541 
L 142.325882 17.364239 
L 142.543729 17.219937 
L 142.554883 17.147786 
L 143.687572 17.003483 
L 145.399042 16.065519 
L 145.417383 15.993368 
L 146.382586 15.704764 
L 146.457701 15.48831 
L 147.040835 15.199706 
L 147.050866 15.127555 
L 147.182307 14.983253 
L 147.210576 14.838951 
L 148.75868 14.045288 
L 148.83901 13.900986 
L 149.337352 13.684533 
L 149.533003 13.540231 
L 150.648606 13.179475 
L 151.280991 12.81872 
L 153.700557 12.530115 
L 155.237876 12.313662 
L 156.782752 12.025058 
L 159.555535 11.808604 
L 160.565529 11.664302 
L 160.716775 11.592151 
L 161.309009 11.52 
L 161.309009 11.52 
" clip-path="url(#p8d4b23d5c0)" style="fill: none; stroke: #000000; stroke-width: 1.2; stroke-linecap: square"/>
   </g>
   <g id="line2d_37">
    <path d="M 38.128415 69.890239 
L 39.797988 69.601634 
L 40.531833 69.529483 
L 48.033032 69.168728 
L 52.279278 68.807972 
L 55.151963 68.591519 
L 56.715594 68.447217 
L 56.752767 68.375066 
L 60.127127 68.086461 
L 60.181133 68.01431 
L 63.841918 67.725706 
L 68.377815 67.509252 
L 72.150929 67.148497 
L 80.26144 66.859893 
L 80.386988 66.787741 
L 83.393294 66.643439 
L 85.722896 66.354835 
L 85.983343 66.282684 
L 87.792076 66.06623 
L 87.958648 65.921928 
L 92.998896 65.200417 
L 93.165949 64.983964 
L 93.362375 64.839662 
L 94.527856 64.69536 
L 95.709951 64.262453 
L 96.074488 63.973849 
L 96.762146 63.757395 
L 97.033119 63.613093 
L 97.486209 63.39664 
L 97.95344 62.819431 
L 98.648225 62.530827 
L 99.455357 61.953618 
L 100.587786 61.592862 
L 100.793226 61.44856 
L 100.825457 61.376409 
L 101.36659 61.159956 
L 101.39671 61.087805 
L 101.819706 60.7992 
L 101.94442 60.582747 
L 102.613855 60.077689 
L 103.473365 59.572632 
L 103.848782 59.428329 
L 103.864258 59.211876 
L 104.168533 59.067574 
L 104.253238 58.923272 
L 104.54146 58.77897 
L 104.639791 58.634667 
L 105.04638 58.057459 
L 105.187726 57.841005 
L 105.517325 57.624552 
L 106.000171 57.335948 
L 106.062525 57.263796 
L 106.312107 57.119494 
L 106.422429 56.83089 
L 106.612911 56.686588 
L 106.844128 56.325832 
L 107.484215 55.53217 
L 108.1064 54.954961 
L 108.264086 54.738508 
L 108.601032 54.522055 
L 108.747536 54.377752 
L 108.790959 54.161299 
L 108.98615 53.944846 
L 109.001047 53.872695 
L 109.262278 53.656242 
L 109.289329 53.58409 
L 109.804774 53.295486 
L 110.464939 51.852464 
L 110.792626 51.636011 
L 110.965259 51.419557 
L 111.12591 51.203104 
L 111.223788 50.9145 
L 111.825069 49.904384 
L 111.998199 49.543629 
L 112.508808 49.327176 
L 112.658693 49.182873 
L 112.951356 48.894269 
L 113.03649 48.749967 
L 113.342673 48.533514 
L 113.580902 48.244909 
L 113.590761 48.172758 
L 113.817168 47.956305 
L 115.051554 46.152527 
L 115.178745 45.936074 
L 115.279163 45.575318 
L 115.729508 45.358865 
L 115.858833 44.925959 
L 116.161488 44.420901 
L 116.258631 44.060145 
L 116.4363 43.69939 
L 116.816359 43.05003 
L 117.196623 42.761426 
L 117.39599 42.544972 
L 117.626369 42.328519 
L 118.957088 39.875382 
L 119.090548 39.658928 
L 119.672195 38.360209 
L 119.84516 38.143755 
L 119.962794 37.855151 
L 120.368797 37.422244 
L 120.583061 37.205791 
L 120.74529 36.556431 
L 120.849538 36.195676 
L 120.933161 35.979222 
L 121.045348 35.690618 
L 121.201529 35.18556 
L 121.557728 34.319747 
L 122.002921 33.958992 
L 122.203316 33.526085 
L 122.293765 33.16533 
L 122.509483 33.021027 
L 122.780077 32.371667 
L 123.193714 31.86661 
L 123.36903 31.433703 
L 123.531363 31.072948 
L 123.546881 31.000797 
L 123.790083 30.856494 
L 123.7911 30.784343 
L 123.979305 30.56789 
L 124.265705 29.702077 
L 124.742054 29.341321 
L 124.948493 28.908415 
L 125.496199 27.753997 
L 125.741061 27.465393 
L 126.042411 26.888184 
L 126.614035 26.527428 
L 126.744858 26.310975 
L 126.90594 26.166673 
L 126.980556 25.95022 
L 127.10031 25.589464 
L 127.813238 24.723651 
L 127.913829 24.507198 
L 128.009849 24.362896 
L 128.25545 24.074291 
L 128.295407 24.00214 
L 128.739217 23.785687 
L 128.924181 23.569233 
L 129.155337 23.136327 
L 129.368676 22.992025 
L 129.602203 22.342665 
L 129.707743 22.126211 
L 130.310925 21.621154 
L 130.491871 21.260398 
L 130.740194 20.899643 
L 130.898035 20.68319 
L 131.942196 19.095865 
L 132.391805 18.879412 
L 132.61711 18.230052 
L 132.75952 18.013599 
L 133.166134 17.147786 
L 133.207999 17.075635 
L 133.676711 16.859181 
L 133.756444 16.570577 
L 134.026443 16.209821 
L 134.239458 16.065519 
L 134.342246 15.776915 
L 134.697875 15.416159 
L 134.853651 14.983253 
L 135.152981 14.838951 
L 135.307727 14.550346 
L 135.426091 14.11744 
L 135.46543 13.900986 
L 135.79537 13.540231 
L 136.131376 12.81872 
L 136.236463 12.530115 
L 136.417851 12.313662 
L 136.650721 11.952907 
L 137.092502 11.664302 
L 137.677657 11.52 
L 137.677657 11.52 
" clip-path="url(#p8d4b23d5c0)" style="fill: none; stroke-dasharray: 5.12,1.28,0.8,1.28; stroke-dashoffset: 0; stroke: #3c5488; stroke-width: 0.8"/>
   </g>
   <g id="line2d_38">
    <path d="M 15.277337 69.890239 
L 28.48788 69.745936 
L 28.711431 69.673785 
L 39.406829 69.457332 
L 45.876382 69.168728 
L 52.369231 68.880123 
L 52.477859 68.807972 
L 54.894433 68.591519 
L 60.450154 68.447217 
L 61.78412 68.302914 
L 62.220141 68.230763 
L 68.94284 68.01431 
L 78.126167 67.437101 
L 78.159241 67.36495 
L 78.493072 67.292799 
L 85.860749 67.076346 
L 85.998384 67.004195 
L 86.634255 66.859893 
L 86.693681 66.787741 
L 91.653234 65.921928 
L 92.711813 65.777626 
L 95.611691 65.272568 
L 98.124011 64.983964 
L 98.208107 64.839662 
L 98.418687 64.69536 
L 98.495845 64.551057 
L 100.376153 64.118151 
L 101.860939 63.468791 
L 102.056568 63.252338 
L 102.480004 63.035884 
L 102.54792 62.891582 
L 103.343082 62.74728 
L 103.454276 62.602978 
L 103.877026 62.458676 
L 103.886986 62.386524 
L 104.086333 62.242222 
L 104.097387 62.170071 
L 104.569571 61.953618 
L 104.871541 61.809316 
L 105.036665 61.520711 
L 105.961992 60.7992 
L 106.386488 60.366294 
L 106.558814 60.221991 
L 107.793784 60.005538 
L 108.054266 59.789085 
L 108.491196 59.356178 
L 108.492824 59.284027 
L 108.839538 59.067574 
L 108.970289 58.923272 
L 109.51037 58.634667 
L 109.594169 58.418214 
L 110.188344 58.201761 
L 110.242172 58.057459 
L 110.501654 57.841005 
L 110.645355 57.696703 
L 110.797995 57.408099 
L 111.153048 56.903041 
L 111.360783 56.686588 
L 111.433964 56.542285 
L 111.857575 56.109379 
L 112.032663 55.676472 
L 112.249334 55.460019 
L 112.310777 55.315717 
L 112.648917 55.099263 
L 112.795769 54.88281 
L 113.57332 54.305601 
L 113.688043 54.016997 
L 114.020895 53.872695 
L 114.931437 52.21322 
L 115.556174 51.996766 
L 115.7204 51.56386 
L 115.873581 51.275255 
L 116.010894 51.058802 
L 116.194261 50.770198 
L 116.693053 50.048687 
L 117.069177 49.904384 
L 117.167981 49.61578 
L 117.614552 49.399327 
L 118.219803 48.677816 
L 118.366521 48.389211 
L 118.710934 47.6677 
L 118.935148 47.451247 
L 119.67518 46.296829 
L 120.017387 45.936074 
L 120.139155 45.719621 
L 120.574291 45.142412 
L 120.910526 44.853807 
L 120.945684 44.781656 
L 121.162855 44.565203 
L 121.339679 44.132297 
L 121.541952 43.771541 
L 122.111368 43.338634 
L 122.242851 43.05003 
L 122.34728 42.833577 
L 122.466243 42.617123 
L 122.651179 42.40067 
L 122.829186 42.184217 
L 122.939931 42.039915 
L 123.052417 41.534857 
L 123.073397 41.462706 
L 123.286787 41.246253 
L 123.654514 40.669044 
L 123.667294 40.596893 
L 123.966249 40.308288 
L 124.050433 40.091835 
L 124.450519 39.586777 
L 124.664404 39.226022 
L 124.905633 39.009569 
L 125.380145 38.360209 
L 126.615298 36.195676 
L 127.077379 35.979222 
L 127.123034 35.83492 
L 127.328662 35.546316 
L 127.43717 34.969107 
L 128.328627 33.814689 
L 128.339576 33.742538 
L 128.58877 33.526085 
L 128.642958 33.309632 
L 128.797529 33.093178 
L 128.899915 32.876725 
L 129.89348 31.21725 
L 130.091048 31.072948 
L 130.192635 30.928645 
L 130.974197 30.062832 
L 131.238542 29.557775 
L 131.504228 29.26917 
L 131.53132 29.197019 
L 131.927711 29.052717 
L 131.936993 28.980566 
L 132.369605 28.691961 
L 132.570518 28.259055 
L 132.759233 28.042602 
L 132.963726 27.609695 
L 133.322958 26.960335 
L 133.393401 26.743882 
L 133.578804 26.455277 
L 133.664114 26.166673 
L 133.759194 25.95022 
L 133.907991 25.589464 
L 134.402726 25.012255 
L 134.662194 24.795802 
L 135.868166 23.569233 
L 136.358705 23.280629 
L 136.468981 22.631269 
L 136.543501 22.486967 
L 136.94274 22.270514 
L 136.957774 22.198363 
L 137.182419 21.981909 
L 137.32194 21.621154 
L 138.648333 20.322434 
L 139.533002 19.889527 
L 139.615719 19.600923 
L 140.842576 18.590808 
L 140.88278 18.446505 
L 141.210758 18.230052 
L 141.791411 17.652843 
L 142.087123 17.364239 
L 142.434346 16.859181 
L 142.707436 16.642728 
L 142.855267 16.426275 
L 143.640786 16.065519 
L 143.69999 15.993368 
L 144.307757 15.776915 
L 144.317639 15.704764 
L 144.707124 15.560462 
L 144.826176 15.416159 
L 145.361468 15.199706 
L 145.815568 15.055404 
L 145.948425 14.838951 
L 146.194818 14.694648 
L 146.593451 14.406044 
L 146.763024 14.045288 
L 147.603172 13.684533 
L 148.368197 13.395929 
L 150.834217 12.674418 
L 151.201106 12.530115 
L 152.108239 12.313662 
L 152.11345 12.241511 
L 154.501589 11.952907 
L 157.621305 11.808604 
L 158.617746 11.664302 
L 161.042254 11.52 
L 161.042254 11.52 
" clip-path="url(#p8d4b23d5c0)" style="fill: none; stroke-dasharray: 2.96,1.28; stroke-dashoffset: 0; stroke: #dc0000; stroke-width: 0.8"/>
   </g>
   <g id="patch_3">
    <path d="M 35.32 69.96239 
L 35.32 11.52 
" style="fill: none; stroke: #000000; stroke-width: 0.5; stroke-linejoin: miter; stroke-linecap: square"/>
   </g>
   <g id="patch_4">
    <path d="M 161.43874 69.96239 
L 161.43874 11.52 
" style="fill: none; stroke: #000000; stroke-width: 0.5; stroke-linejoin: miter; stroke-linecap: square"/>
   </g>
   <g id="patch_5">
    <path d="M 35.32 69.96239 
L 161.43874 69.96239 
" style="fill: none; stroke: #000000; stroke-width: 0.5; stroke-linejoin: miter; stroke-linecap: square"/>
   </g>
   <g id="patch_6">
    <path d="M 35.32 11.52 
L 161.43874 11.52 
" style="fill: none; stroke: #000000; stroke-width: 0.5; stroke-linejoin: miter; stroke-linecap: square"/>
   </g>
  </g>
 </g>
 <defs>
  <clipPath id="p8d4b23d5c0">
   <rect x="35.32" y="11.52" width="126.11874" height="58.44239"/>
  </clipPath>
 </defs>
</svg>
