<?xml version="1.0" encoding="utf-8" standalone="no"?>
<!DOCTYPE svg PUBLIC "-//W3C//DTD SVG 1.1//EN"
  "http://www.w3.org/Graphics/SVG/1.1/DTD/svg11.dtd">
<svg xmlns:xlink="http://www.w3.org/1999/xlink" width="170.07874pt" height="104.88189pt" viewBox="0 0 170.07874 104.88189" xmlns="http://www.w3.org/2000/svg" version="1.1">
 <metadata>
  <rdf:RDF xmlns:dc="http://purl.org/dc/elements/1.1/" xmlns:cc="http://creativecommons.org/ns#" xmlns:rdf="http://www.w3.org/1999/02/22-rdf-syntax-ns#">
   <cc:Work>
    <dc:type rdf:resource="http://purl.org/dc/dcmitype/StillImage"/>
    <dc:date>2025-01-06T16:39:30.570391</dc:date>
    <dc:format>image/svg+xml</dc:format>
    <dc:creator>
     <cc:Agent>
      <dc:title>Matplotlib v3.5.2, https://matplotlib.org/</dc:title>
     </cc:Agent>
    </dc:creator>
   </cc:Work>
  </rdf:RDF>
 </metadata>
 <defs>
  <style type="text/css">*{stroke-linejoin: round; stroke-linecap: butt}</style>
 </defs>
 <g id="figure_1">
  <g id="patch_1">
   <path d="M 0 104.88189 
L 170.07874 104.88189 
L 170.07874 0 
L 0 0 
z
" style="fill: #ffffff"/>
  </g>
  <g id="axes_1">
   <g id="patch_2">
    <path d="M 35.32 69.96239 
L 155.136623 69.96239 
L 155.136623 11.52 
L 35.32 11.52 
z
" style="fill: #ffffff"/>
   </g>
   <g id="PolyCollection_1">
    <path d="M -93.909905 69.890239 
L -5.507365 69.890239 
L 1.83183 69.818088 
L 11.918899 69.745936 
L 20.790382 69.673785 
L 22.109368 69.601634 
L 23.305065 69.529483 
L 28.092438 69.457332 
L 30.126343 69.385181 
L 31.065477 69.31303 
L 33.107935 69.240879 
L 38.563375 69.168728 
L 39.435411 69.096577 
L 40.627012 69.024425 
L 41.69251 68.952274 
L 44.224979 68.880123 
L 44.229659 68.807972 
L 45.182095 68.735821 
L 45.333028 68.66367 
L 46.763641 68.591519 
L 46.866943 68.519368 
L 48.615125 68.447217 
L 49.135284 68.375066 
L 50.543321 68.302914 
L 51.419969 68.230763 
L 53.735257 68.158612 
L 56.293518 68.086461 
L 56.71821 68.01431 
L 57.622973 67.942159 
L 60.099699 67.870008 
L 60.103602 67.797857 
L 60.662703 67.725706 
L 61.633507 67.653555 
L 62.004794 67.581404 
L 63.603911 67.509252 
L 64.387302 67.437101 
L 64.914527 67.36495 
L 66.639863 67.292799 
L 68.38761 67.220648 
L 68.392427 67.148497 
L 68.880612 67.076346 
L 69.667625 67.004195 
L 70.030194 66.932044 
L 71.67177 66.859893 
L 72.003935 66.787741 
L 72.255498 66.71559 
L 72.451479 66.643439 
L 72.739439 66.571288 
L 73.160113 66.499137 
L 73.227933 66.426986 
L 73.621379 66.354835 
L 74.035845 66.282684 
L 74.209119 66.210533 
L 74.595057 66.138382 
L 74.637361 66.06623 
L 74.858322 65.994079 
L 75.129967 65.921928 
L 75.461175 65.849777 
L 75.557308 65.777626 
L 75.682139 65.705475 
L 75.908175 65.633324 
L 76.342652 65.561173 
L 76.615242 65.489022 
L 76.676709 65.416871 
L 76.705508 65.344719 
L 76.78625 65.272568 
L 76.837546 65.200417 
L 77.019794 65.128266 
L 77.040191 65.056115 
L 77.05343 64.983964 
L 77.176625 64.911813 
L 77.329771 64.839662 
L 77.456727 64.767511 
L 77.468641 64.69536 
L 77.554627 64.623208 
L 77.672486 64.551057 
L 77.695501 64.478906 
L 77.702719 64.406755 
L 77.707227 64.334604 
L 77.896197 64.262453 
L 78.008078 64.190302 
L 78.319331 64.118151 
L 78.404079 64.046 
L 78.546246 63.973849 
L 78.618086 63.901697 
L 78.809294 63.829546 
L 78.900802 63.757395 
L 78.969438 63.685244 
L 79.290828 63.613093 
L 79.461921 63.540942 
L 79.482241 63.468791 
L 79.579668 63.39664 
L 79.953355 63.324489 
L 79.959406 63.252338 
L 80.315131 63.180187 
L 80.322801 63.108035 
L 80.532135 63.035884 
L 80.556302 62.963733 
L 80.591348 62.891582 
L 80.643652 62.819431 
L 80.773306 62.74728 
L 81.082126 62.675129 
L 81.178821 62.602978 
L 81.380604 62.530827 
L 81.427434 62.458676 
L 81.565414 62.386524 
L 81.607281 62.314373 
L 81.768466 62.242222 
L 81.76884 62.170071 
L 82.080184 62.09792 
L 82.162975 62.025769 
L 82.200236 61.953618 
L 82.227184 61.881467 
L 82.318176 61.809316 
L 82.42507 61.737165 
L 82.513421 61.665013 
L 82.537858 61.592862 
L 82.541446 61.520711 
L 82.744625 61.44856 
L 82.973176 61.376409 
L 83.028289 61.304258 
L 83.090599 61.232107 
L 83.100694 61.159956 
L 83.144657 61.087805 
L 83.348321 61.015654 
L 83.483493 60.943502 
L 83.483988 60.871351 
L 83.602316 60.7992 
L 83.625473 60.727049 
L 83.73729 60.654898 
L 83.833264 60.582747 
L 83.925149 60.510596 
L 83.935175 60.438445 
L 83.940967 60.366294 
L 84.145973 60.294143 
L 84.158704 60.221991 
L 84.272545 60.14984 
L 84.312707 60.077689 
L 84.318193 60.005538 
L 84.444361 59.933387 
L 84.619371 59.861236 
L 84.673307 59.789085 
L 84.728612 59.716934 
L 84.755862 59.644783 
L 84.957695 59.572632 
L 84.969834 59.50048 
L 84.9877 59.428329 
L 85.014185 59.356178 
L 85.048702 59.284027 
L 85.185295 59.211876 
L 85.226225 59.139725 
L 85.284991 59.067574 
L 85.288434 58.995423 
L 85.30084 58.923272 
L 85.354527 58.851121 
L 85.372098 58.77897 
L 85.473932 58.706818 
L 85.61117 58.634667 
L 85.695728 58.562516 
L 85.720948 58.490365 
L 85.730761 58.418214 
L 85.754122 58.346063 
L 85.924238 58.273912 
L 85.96205 58.201761 
L 85.996137 58.12961 
L 86.020909 58.057459 
L 86.119756 57.985307 
L 86.179166 57.913156 
L 86.230501 57.841005 
L 86.253758 57.768854 
L 86.281461 57.696703 
L 86.296038 57.624552 
L 86.350006 57.552401 
L 86.405122 57.48025 
L 86.508204 57.408099 
L 86.53636 57.335948 
L 86.580455 57.263796 
L 86.594736 57.191645 
L 86.717374 57.119494 
L 86.889665 57.047343 
L 86.930281 56.975192 
L 87.153843 56.903041 
L 87.277345 56.83089 
L 87.413547 56.758739 
L 87.461239 56.686588 
L 87.888078 56.614437 
L 87.933106 56.542285 
L 87.952079 56.470134 
L 88.043477 56.397983 
L 88.073503 56.325832 
L 88.572431 56.253681 
L 88.599646 56.18153 
L 88.779918 56.109379 
L 88.902609 56.037228 
L 88.922714 55.965077 
L 88.94571 55.892926 
L 89.061209 55.820774 
L 89.076565 55.748623 
L 89.1967 55.676472 
L 89.241239 55.604321 
L 89.384817 55.53217 
L 89.538071 55.460019 
L 89.664216 55.387868 
L 89.95486 55.315717 
L 90.016841 55.243566 
L 90.041124 55.171415 
L 90.106411 55.099263 
L 90.144749 55.027112 
L 90.161365 54.954961 
L 90.170332 54.88281 
L 90.253257 54.810659 
L 90.260471 54.738508 
L 90.275492 54.666357 
L 90.28756 54.594206 
L 90.376046 54.522055 
L 90.384819 54.449904 
L 90.428305 54.377752 
L 90.468866 54.305601 
L 90.513437 54.23345 
L 90.516079 54.161299 
L 90.532631 54.089148 
L 90.565708 54.016997 
L 90.668338 53.944846 
L 90.818017 53.872695 
L 90.868486 53.800544 
L 90.892953 53.728393 
L 91.06629 53.656242 
L 91.156121 53.58409 
L 91.200019 53.511939 
L 91.227386 53.439788 
L 91.329799 53.367637 
L 91.388011 53.295486 
L 91.515846 53.223335 
L 91.523766 53.151184 
L 91.524576 53.079033 
L 91.605367 53.006882 
L 91.619442 52.934731 
L 91.624278 52.862579 
L 91.677947 52.790428 
L 91.730947 52.718277 
L 91.747571 52.646126 
L 91.759393 52.573975 
L 91.898299 52.501824 
L 91.913644 52.429673 
L 91.951775 52.357522 
L 92.042567 52.285371 
L 92.154156 52.21322 
L 92.182308 52.141068 
L 92.197471 52.068917 
L 92.354537 51.996766 
L 92.393825 51.924615 
L 92.548256 51.852464 
L 92.597137 51.780313 
L 92.750152 51.708162 
L 92.813977 51.636011 
L 93.103314 51.56386 
L 93.277407 51.491709 
L 93.298561 51.419557 
L 93.30721 51.347406 
L 93.418414 51.275255 
L 93.51744 51.203104 
L 93.619565 51.130953 
L 93.722839 51.058802 
L 93.83698 50.986651 
L 93.867447 50.9145 
L 93.869151 50.842349 
L 93.885834 50.770198 
L 93.938233 50.698046 
L 93.949092 50.625895 
L 93.981859 50.553744 
L 93.985751 50.481593 
L 94.037145 50.409442 
L 94.141496 50.337291 
L 94.209475 50.26514 
L 94.305612 50.192989 
L 94.36348 50.120838 
L 94.506652 50.048687 
L 94.648262 49.976535 
L 94.811209 49.904384 
L 94.932115 49.832233 
L 94.957839 49.760082 
L 95.020268 49.687931 
L 95.058095 49.61578 
L 95.172569 49.543629 
L 95.186216 49.471478 
L 95.280184 49.399327 
L 95.361679 49.327176 
L 95.395292 49.255025 
L 95.399898 49.182873 
L 95.410239 49.110722 
L 95.423581 49.038571 
L 95.490963 48.96642 
L 95.574111 48.894269 
L 95.624235 48.822118 
L 95.766796 48.749967 
L 95.818582 48.677816 
L 95.949806 48.605665 
L 95.966711 48.533514 
L 96.017753 48.461362 
L 96.039186 48.389211 
L 96.238365 48.31706 
L 96.325411 48.244909 
L 96.342926 48.172758 
L 96.434461 48.100607 
L 96.528617 48.028456 
L 96.656991 47.956305 
L 96.790629 47.884154 
L 96.838812 47.812003 
L 96.891479 47.739851 
L 96.920955 47.6677 
L 96.952255 47.595549 
L 96.981876 47.523398 
L 96.993489 47.451247 
L 97.055756 47.379096 
L 97.255419 47.306945 
L 97.315229 47.234794 
L 97.338793 47.162643 
L 97.507751 47.090492 
L 97.58921 47.01834 
L 97.604931 46.946189 
L 97.694352 46.874038 
L 97.94433 46.801887 
L 97.990051 46.729736 
L 97.996101 46.657585 
L 98.007722 46.585434 
L 98.101053 46.513283 
L 98.197367 46.441132 
L 98.20883 46.368981 
L 98.251491 46.296829 
L 98.334237 46.224678 
L 98.342337 46.152527 
L 98.346995 46.080376 
L 98.491572 46.008225 
L 98.587559 45.936074 
L 98.75418 45.863923 
L 98.766832 45.791772 
L 98.855327 45.719621 
L 98.950083 45.64747 
L 99.157745 45.575318 
L 99.20459 45.503167 
L 99.379531 45.431016 
L 99.401621 45.358865 
L 99.470487 45.286714 
L 99.535825 45.214563 
L 99.543044 45.142412 
L 99.545472 45.070261 
L 99.566373 44.99811 
L 99.614596 44.925959 
L 99.625151 44.853807 
L 99.835726 44.781656 
L 99.87989 44.709505 
L 100.00718 44.637354 
L 100.00849 44.565203 
L 100.009761 44.493052 
L 100.283049 44.420901 
L 100.305078 44.34875 
L 100.329197 44.276599 
L 100.451394 44.204448 
L 100.524003 44.132297 
L 100.530136 44.060145 
L 100.551349 43.987994 
L 100.566135 43.915843 
L 100.690026 43.843692 
L 100.743323 43.771541 
L 100.74642 43.69939 
L 100.874405 43.627239 
L 100.968994 43.555088 
L 101.118489 43.482937 
L 101.189505 43.410786 
L 101.276136 43.338634 
L 101.315849 43.266483 
L 101.348598 43.194332 
L 101.377231 43.122181 
L 101.445196 43.05003 
L 101.617439 42.977879 
L 101.866625 42.905728 
L 101.876705 42.833577 
L 101.911492 42.761426 
L 101.92251 42.689275 
L 101.982251 42.617123 
L 102.075111 42.544972 
L 102.088955 42.472821 
L 102.212355 42.40067 
L 102.221008 42.328519 
L 102.276641 42.256368 
L 102.403125 42.184217 
L 102.427887 42.112066 
L 102.483026 42.039915 
L 102.55835 41.967764 
L 102.891058 41.895612 
L 102.932088 41.823461 
L 103.146757 41.75131 
L 103.173411 41.679159 
L 103.38029 41.607008 
L 103.398386 41.534857 
L 103.485858 41.462706 
L 103.546695 41.390555 
L 103.551518 41.318404 
L 103.55791 41.246253 
L 103.663109 41.174101 
L 103.750095 41.10195 
L 103.839879 41.029799 
L 103.851087 40.957648 
L 103.86464 40.885497 
L 103.944532 40.813346 
L 103.9807 40.741195 
L 104.040084 40.669044 
L 104.161579 40.596893 
L 104.352944 40.524742 
L 104.520732 40.45259 
L 104.700226 40.380439 
L 104.709475 40.308288 
L 104.869494 40.236137 
L 104.935422 40.163986 
L 104.989374 40.091835 
L 105.100877 40.019684 
L 105.140589 39.947533 
L 105.167315 39.875382 
L 105.179043 39.803231 
L 105.191128 39.73108 
L 105.42849 39.658928 
L 105.430255 39.586777 
L 105.439521 39.514626 
L 105.490942 39.442475 
L 105.513252 39.370324 
L 105.5408 39.298173 
L 105.570833 39.226022 
L 105.580078 39.153871 
L 105.59688 39.08172 
L 105.619786 39.009569 
L 105.620984 38.937417 
L 105.625916 38.865266 
L 105.746335 38.793115 
L 105.792464 38.720964 
L 105.833761 38.648813 
L 105.883993 38.576662 
L 105.933891 38.504511 
L 105.95268 38.43236 
L 105.979941 38.360209 
L 106.101869 38.288058 
L 106.156011 38.215906 
L 106.160493 38.143755 
L 106.262463 38.071604 
L 106.43887 37.999453 
L 106.440943 37.927302 
L 106.465326 37.855151 
L 106.515877 37.783 
L 106.550936 37.710849 
L 106.57124 37.638698 
L 106.641646 37.566547 
L 106.960096 37.494395 
L 107.012048 37.422244 
L 107.052557 37.350093 
L 107.140256 37.277942 
L 107.165452 37.205791 
L 107.363779 37.13364 
L 107.374855 37.061489 
L 107.436132 36.989338 
L 107.477369 36.917187 
L 107.667905 36.845036 
L 107.817397 36.772884 
L 107.859807 36.700733 
L 107.872503 36.628582 
L 107.909749 36.556431 
L 108.012853 36.48428 
L 108.014462 36.412129 
L 108.086582 36.339978 
L 108.167962 36.267827 
L 108.194204 36.195676 
L 108.252767 36.123525 
L 108.262384 36.051373 
L 108.351333 35.979222 
L 108.372101 35.907071 
L 108.392165 35.83492 
L 108.436009 35.762769 
L 108.480245 35.690618 
L 108.530278 35.618467 
L 108.628793 35.546316 
L 108.642622 35.474165 
L 108.648889 35.402014 
L 108.715844 35.329862 
L 108.837683 35.257711 
L 109.057215 35.18556 
L 109.164064 35.113409 
L 109.169938 35.041258 
L 109.291189 34.969107 
L 109.300129 34.896956 
L 109.393844 34.824805 
L 109.424726 34.752654 
L 109.430531 34.680503 
L 109.559803 34.608352 
L 109.753128 34.5362 
L 109.760834 34.464049 
L 109.812964 34.391898 
L 109.993499 34.319747 
L 110.014833 34.247596 
L 110.050573 34.175445 
L 110.07444 34.103294 
L 110.08174 34.031143 
L 110.115034 33.958992 
L 110.196001 33.886841 
L 110.362474 33.814689 
L 110.565497 33.742538 
L 110.650218 33.670387 
L 110.698181 33.598236 
L 110.738156 33.526085 
L 110.798423 33.453934 
L 110.801319 33.381783 
L 110.827517 33.309632 
L 110.880942 33.237481 
L 110.991947 33.16533 
L 110.999457 33.093178 
L 111.173214 33.021027 
L 111.219178 32.948876 
L 111.230366 32.876725 
L 111.255543 32.804574 
L 111.378393 32.732423 
L 111.391304 32.660272 
L 111.398704 32.588121 
L 111.432329 32.51597 
L 111.7077 32.443819 
L 111.735564 32.371667 
L 111.799752 32.299516 
L 111.799954 32.227365 
L 111.823047 32.155214 
L 111.851568 32.083063 
L 112.00657 32.010912 
L 112.376873 31.938761 
L 112.392905 31.86661 
L 112.696232 31.794459 
L 112.790237 31.722308 
L 113.135145 31.650156 
L 113.181931 31.578005 
L 113.262081 31.505854 
L 113.370116 31.433703 
L 113.430485 31.361552 
L 113.446177 31.289401 
L 113.458584 31.21725 
L 113.501929 31.145099 
L 113.511796 31.072948 
L 113.7046 31.000797 
L 113.838403 30.928645 
L 113.867297 30.856494 
L 113.881774 30.784343 
L 113.92501 30.712192 
L 113.94296 30.640041 
L 113.965718 30.56789 
L 114.025729 30.495739 
L 114.064364 30.423588 
L 114.136091 30.351437 
L 114.142313 30.279286 
L 114.516144 30.207135 
L 114.584091 30.134983 
L 114.601551 30.062832 
L 114.646741 29.990681 
L 114.704101 29.91853 
L 114.725267 29.846379 
L 114.764028 29.774228 
L 114.867908 29.702077 
L 114.937616 29.629926 
L 114.939242 29.557775 
L 114.996208 29.485624 
L 115.053718 29.413472 
L 115.063306 29.341321 
L 115.08394 29.26917 
L 115.130576 29.197019 
L 115.131922 29.124868 
L 115.203273 29.052717 
L 115.301254 28.980566 
L 115.442363 28.908415 
L 115.464492 28.836264 
L 115.482028 28.764113 
L 115.609782 28.691961 
L 115.61818 28.61981 
L 115.619172 28.547659 
L 115.635302 28.475508 
L 115.69519 28.403357 
L 115.719748 28.331206 
L 115.732061 28.259055 
L 115.979398 28.186904 
L 116.241931 28.114753 
L 116.429431 28.042602 
L 116.450578 27.97045 
L 116.528184 27.898299 
L 116.564968 27.826148 
L 116.625014 27.753997 
L 116.929601 27.681846 
L 117.120868 27.609695 
L 117.18408 27.537544 
L 117.527844 27.465393 
L 117.715257 27.393242 
L 117.817156 27.321091 
L 117.821062 27.248939 
L 117.856306 27.176788 
L 117.931315 27.104637 
L 118.174753 27.032486 
L 118.248895 26.960335 
L 118.300991 26.888184 
L 118.30578 26.816033 
L 118.364267 26.743882 
L 118.506683 26.671731 
L 118.538848 26.59958 
L 118.555301 26.527428 
L 118.683047 26.455277 
L 118.885232 26.383126 
L 118.891271 26.310975 
L 118.976878 26.238824 
L 118.99145 26.166673 
L 119.027788 26.094522 
L 119.117042 26.022371 
L 119.123196 25.95022 
L 119.361056 25.878069 
L 119.380512 25.805917 
L 119.415955 25.733766 
L 119.462798 25.661615 
L 119.581464 25.589464 
L 119.626902 25.517313 
L 119.650986 25.445162 
L 119.685219 25.373011 
L 119.716889 25.30086 
L 119.88375 25.228709 
L 119.981712 25.156558 
L 120.468156 25.084407 
L 120.611185 25.012255 
L 120.655325 24.940104 
L 120.717205 24.867953 
L 120.74089 24.795802 
L 120.811509 24.723651 
L 121.095071 24.6515 
L 121.207239 24.579349 
L 121.421509 24.507198 
L 121.577324 24.435047 
L 121.645035 24.362896 
L 121.901775 24.290744 
L 121.974379 24.218593 
L 122.211332 24.146442 
L 122.223796 24.074291 
L 122.255573 24.00214 
L 122.47683 23.929989 
L 122.479699 23.857838 
L 122.636725 23.785687 
L 122.7046 23.713536 
L 122.71153 23.641385 
L 122.756262 23.569233 
L 122.971523 23.497082 
L 123.055245 23.424931 
L 123.095059 23.35278 
L 123.106111 23.280629 
L 123.199186 23.208478 
L 123.206979 23.136327 
L 123.291453 23.064176 
L 123.315426 22.992025 
L 123.336865 22.919874 
L 123.403664 22.847722 
L 123.423546 22.775571 
L 123.497379 22.70342 
L 123.632328 22.631269 
L 123.972305 22.559118 
L 124.282134 22.486967 
L 124.327134 22.414816 
L 124.358828 22.342665 
L 124.460107 22.270514 
L 124.531976 22.198363 
L 124.576197 22.126211 
L 124.643026 22.05406 
L 125.015516 21.981909 
L 125.058119 21.909758 
L 125.087891 21.837607 
L 125.143897 21.765456 
L 125.329173 21.693305 
L 125.439573 21.621154 
L 125.45783 21.549003 
L 125.525075 21.476852 
L 125.672263 21.4047 
L 125.815276 21.332549 
L 126.064287 21.260398 
L 126.19107 21.188247 
L 126.435485 21.116096 
L 126.459926 21.043945 
L 126.465285 20.971794 
L 126.465952 20.899643 
L 126.873667 20.827492 
L 126.930021 20.755341 
L 127.013263 20.68319 
L 127.244019 20.611038 
L 127.294335 20.538887 
L 127.33676 20.466736 
L 127.362831 20.394585 
L 127.442991 20.322434 
L 127.451574 20.250283 
L 127.883533 20.178132 
L 128.003288 20.105981 
L 128.045925 20.03383 
L 128.058043 19.961679 
L 128.175935 19.889527 
L 128.315165 19.817376 
L 128.329758 19.745225 
L 128.336608 19.673074 
L 128.430071 19.600923 
L 128.571944 19.528772 
L 128.661874 19.456621 
L 128.715308 19.38447 
L 128.812991 19.312319 
L 129.238856 19.240168 
L 129.487758 19.168016 
L 129.509653 19.095865 
L 129.763111 19.023714 
L 130.048334 18.951563 
L 130.245256 18.879412 
L 130.290336 18.807261 
L 130.340146 18.73511 
L 130.621282 18.662959 
L 130.654043 18.590808 
L 130.742637 18.518657 
L 130.953217 18.446505 
L 131.020572 18.374354 
L 131.156761 18.302203 
L 131.442848 18.230052 
L 131.450143 18.157901 
L 131.550344 18.08575 
L 131.640088 18.013599 
L 131.746811 17.941448 
L 131.764244 17.869297 
L 131.879082 17.797146 
L 132.076217 17.724994 
L 132.214204 17.652843 
L 132.218842 17.580692 
L 132.391176 17.508541 
L 132.526462 17.43639 
L 132.536035 17.364239 
L 132.594655 17.292088 
L 132.698853 17.219937 
L 133.080183 17.147786 
L 133.262296 17.075635 
L 133.315388 17.003483 
L 133.320042 16.931332 
L 133.889907 16.859181 
L 134.073064 16.78703 
L 134.579783 16.714879 
L 135.150105 16.642728 
L 135.535493 16.570577 
L 135.617319 16.498426 
L 136.107731 16.426275 
L 136.156955 16.354124 
L 136.405659 16.281972 
L 136.774278 16.209821 
L 136.837046 16.13767 
L 136.924 16.065519 
L 137.002152 15.993368 
L 137.331661 15.921217 
L 137.362249 15.849066 
L 137.395173 15.776915 
L 137.402779 15.704764 
L 137.586488 15.632613 
L 137.716781 15.560462 
L 137.750339 15.48831 
L 137.860524 15.416159 
L 137.903349 15.344008 
L 138.029382 15.271857 
L 138.333583 15.199706 
L 138.791472 15.127555 
L 138.842237 15.055404 
L 139.087027 14.983253 
L 139.155848 14.911102 
L 139.169674 14.838951 
L 139.450999 14.766799 
L 139.54667 14.694648 
L 139.558399 14.622497 
L 139.615822 14.550346 
L 139.684817 14.478195 
L 139.898692 14.406044 
L 139.936183 14.333893 
L 140.017146 14.261742 
L 140.022191 14.189591 
L 140.275067 14.11744 
L 140.307201 14.045288 
L 140.371491 13.973137 
L 140.586059 13.900986 
L 140.755294 13.828835 
L 141.833549 13.756684 
L 141.898048 13.684533 
L 142.211386 13.612382 
L 142.431163 13.540231 
L 142.694816 13.46808 
L 142.772518 13.395929 
L 142.82148 13.323777 
L 143.615991 13.251626 
L 143.669429 13.179475 
L 144.154625 13.107324 
L 144.275785 13.035173 
L 144.453141 12.963022 
L 144.681863 12.890871 
L 144.725643 12.81872 
L 144.888704 12.746569 
L 145.56333 12.674418 
L 146.042739 12.602266 
L 146.749994 12.530115 
L 146.887192 12.457964 
L 147.255519 12.385813 
L 147.941339 12.313662 
L 148.233172 12.241511 
L 148.700129 12.16936 
L 148.875726 12.097209 
L 150.903339 12.025058 
L 151.61794 11.952907 
L 151.721642 11.880755 
L 152.666174 11.808604 
L 152.745154 11.736453 
L 155.264056 11.664302 
L 156.901582 11.592151 
L 157.767179 11.52 
L 132.934171 11.52 
L 132.934171 11.52 
L 132.379259 11.592151 
L 132.055428 11.664302 
L 129.741534 11.736453 
L 129.59448 11.808604 
L 129.220756 11.880755 
L 128.676635 11.952907 
L 128.016523 12.025058 
L 127.283277 12.097209 
L 126.784204 12.16936 
L 125.926468 12.241511 
L 125.626871 12.313662 
L 125.198072 12.385813 
L 124.944096 12.457964 
L 124.821795 12.530115 
L 123.703618 12.602266 
L 122.40105 12.674418 
L 122.337874 12.746569 
L 122.04813 12.81872 
L 121.786297 12.890871 
L 121.754583 12.963022 
L 121.56696 13.035173 
L 121.380132 13.107324 
L 121.258736 13.179475 
L 121.141815 13.251626 
L 121.085059 13.323777 
L 120.558914 13.395929 
L 120.438031 13.46808 
L 120.416 13.540231 
L 120.142838 13.612382 
L 119.821527 13.684533 
L 119.626372 13.756684 
L 119.565248 13.828835 
L 119.12128 13.900986 
L 119.120364 13.973137 
L 119.046004 14.045288 
L 118.898199 14.11744 
L 118.743798 14.189591 
L 118.510503 14.261742 
L 117.996778 14.333893 
L 117.961536 14.406044 
L 117.833727 14.478195 
L 117.495537 14.550346 
L 117.309268 14.622497 
L 116.727385 14.694648 
L 116.372763 14.766799 
L 116.301925 14.838951 
L 116.110056 14.911102 
L 115.887392 14.983253 
L 115.577797 15.055404 
L 115.520473 15.127555 
L 115.414413 15.199706 
L 115.278826 15.271857 
L 115.228502 15.344008 
L 115.009178 15.416159 
L 114.747375 15.48831 
L 114.399308 15.560462 
L 114.129777 15.632613 
L 114.051139 15.704764 
L 113.101853 15.776915 
L 112.669639 15.849066 
L 112.232645 15.921217 
L 112.152098 15.993368 
L 112.024509 16.065519 
L 111.632426 16.13767 
L 111.533183 16.209821 
L 111.499604 16.281972 
L 111.406469 16.354124 
L 111.310044 16.426275 
L 111.238856 16.498426 
L 111.198629 16.570577 
L 110.762443 16.642728 
L 110.525431 16.714879 
L 110.469346 16.78703 
L 110.387458 16.859181 
L 110.334754 16.931332 
L 110.317509 17.003483 
L 110.270153 17.075635 
L 110.103697 17.147786 
L 110.058132 17.219937 
L 109.974061 17.292088 
L 109.660909 17.364239 
L 109.598526 17.43639 
L 109.399211 17.508541 
L 109.153132 17.580692 
L 109.094618 17.652843 
L 109.012991 17.724994 
L 108.843899 17.797146 
L 108.569178 17.869297 
L 108.494348 17.941448 
L 108.223338 18.013599 
L 108.008793 18.08575 
L 107.946148 18.157901 
L 107.941862 18.230052 
L 107.918706 18.302203 
L 107.234996 18.374354 
L 107.225032 18.446505 
L 107.205039 18.518657 
L 107.115257 18.590808 
L 106.569799 18.662959 
L 106.323366 18.73511 
L 106.225919 18.807261 
L 106.124414 18.879412 
L 106.034868 18.951563 
L 105.969775 19.023714 
L 105.725951 19.095865 
L 105.631637 19.168016 
L 105.612052 19.240168 
L 105.252878 19.312319 
L 105.100387 19.38447 
L 105.054505 19.456621 
L 105.011878 19.528772 
L 104.910569 19.600923 
L 104.786215 19.673074 
L 104.734098 19.745225 
L 104.634937 19.817376 
L 104.578271 19.889527 
L 104.572997 19.961679 
L 104.418559 20.03383 
L 104.376508 20.105981 
L 104.093832 20.178132 
L 103.842166 20.250283 
L 103.70759 20.322434 
L 103.614622 20.394585 
L 103.583098 20.466736 
L 103.561061 20.538887 
L 103.51625 20.611038 
L 103.430261 20.68319 
L 103.42566 20.755341 
L 103.118112 20.827492 
L 103.018682 20.899643 
L 102.982613 20.971794 
L 102.898314 21.043945 
L 102.897484 21.116096 
L 102.677849 21.188247 
L 102.641661 21.260398 
L 102.490697 21.332549 
L 102.353333 21.4047 
L 102.147966 21.476852 
L 102.141243 21.549003 
L 102.086198 21.621154 
L 102.066529 21.693305 
L 101.83801 21.765456 
L 101.613051 21.837607 
L 101.575886 21.909758 
L 101.558199 21.981909 
L 101.552851 22.05406 
L 101.548879 22.126211 
L 101.422189 22.198363 
L 101.390391 22.270514 
L 101.382844 22.342665 
L 101.382248 22.414816 
L 101.264901 22.486967 
L 101.172328 22.559118 
L 101.171612 22.631269 
L 101.161001 22.70342 
L 101.115694 22.775571 
L 101.052914 22.847722 
L 101.03784 22.919874 
L 100.821464 22.992025 
L 100.649529 23.064176 
L 100.576744 23.136327 
L 100.307597 23.208478 
L 100.243509 23.280629 
L 100.211484 23.35278 
L 100.178511 23.424931 
L 100.152489 23.497082 
L 100.151175 23.569233 
L 100.148989 23.641385 
L 100.098544 23.713536 
L 100.085326 23.785687 
L 99.94241 23.857838 
L 99.902514 23.929989 
L 99.890523 24.00214 
L 99.842766 24.074291 
L 99.83779 24.146442 
L 99.738233 24.218593 
L 99.598605 24.290744 
L 99.585717 24.362896 
L 99.551239 24.435047 
L 99.522323 24.507198 
L 99.389772 24.579349 
L 99.181432 24.6515 
L 99.178045 24.723651 
L 99.093136 24.795802 
L 99.075938 24.867953 
L 99.039662 24.940104 
L 98.936254 25.012255 
L 98.670326 25.084407 
L 98.567405 25.156558 
L 98.398809 25.228709 
L 98.396135 25.30086 
L 98.363503 25.373011 
L 98.324755 25.445162 
L 98.213085 25.517313 
L 98.092465 25.589464 
L 97.910945 25.661615 
L 97.881854 25.733766 
L 97.636519 25.805917 
L 97.634023 25.878069 
L 97.519804 25.95022 
L 97.469377 26.022371 
L 97.272914 26.094522 
L 97.206376 26.166673 
L 97.177638 26.238824 
L 97.100331 26.310975 
L 97.075194 26.383126 
L 97.046333 26.455277 
L 96.81883 26.527428 
L 96.789564 26.59958 
L 96.721127 26.671731 
L 96.632558 26.743882 
L 96.567002 26.816033 
L 96.396796 26.888184 
L 96.248028 26.960335 
L 96.17419 27.032486 
L 96.111293 27.104637 
L 96.081049 27.176788 
L 96.064546 27.248939 
L 95.988438 27.321091 
L 95.813345 27.393242 
L 95.726791 27.465393 
L 95.693134 27.537544 
L 95.560879 27.609695 
L 95.457516 27.681846 
L 95.241586 27.753997 
L 95.11523 27.826148 
L 94.961185 27.898299 
L 94.929794 27.97045 
L 94.795865 28.042602 
L 94.651223 28.114753 
L 94.552201 28.186904 
L 94.390682 28.259055 
L 94.316227 28.331206 
L 94.120549 28.403357 
L 93.802947 28.475508 
L 93.756615 28.547659 
L 93.744928 28.61981 
L 93.668432 28.691961 
L 93.576547 28.764113 
L 93.529959 28.836264 
L 93.190193 28.908415 
L 93.131871 28.980566 
L 92.892872 29.052717 
L 92.892744 29.124868 
L 92.818936 29.197019 
L 92.74668 29.26917 
L 92.718418 29.341321 
L 92.5837 29.413472 
L 92.581176 29.485624 
L 92.558539 29.557775 
L 92.479204 29.629926 
L 92.468397 29.702077 
L 92.453131 29.774228 
L 92.442639 29.846379 
L 92.227262 29.91853 
L 92.144721 29.990681 
L 92.113366 30.062832 
L 92.053932 30.134983 
L 91.90093 30.207135 
L 91.896508 30.279286 
L 91.755233 30.351437 
L 91.726389 30.423588 
L 91.679865 30.495739 
L 91.575949 30.56789 
L 91.575422 30.640041 
L 91.489337 30.712192 
L 91.463931 30.784343 
L 91.355753 30.856494 
L 91.20311 30.928645 
L 91.18039 31.000797 
L 91.156199 31.072948 
L 91.03974 31.145099 
L 90.901208 31.21725 
L 90.753139 31.289401 
L 90.484749 31.361552 
L 90.482682 31.433703 
L 90.279914 31.505854 
L 90.250485 31.578005 
L 89.889103 31.650156 
L 89.854548 31.722308 
L 89.727326 31.794459 
L 89.68093 31.86661 
L 89.656221 31.938761 
L 89.460274 32.010912 
L 89.35405 32.083063 
L 89.253166 32.155214 
L 89.192561 32.227365 
L 89.10659 32.299516 
L 88.928586 32.371667 
L 88.80636 32.443819 
L 88.738492 32.51597 
L 88.719797 32.588121 
L 88.658186 32.660272 
L 88.61168 32.732423 
L 88.582122 32.804574 
L 88.470901 32.876725 
L 88.443425 32.948876 
L 88.315448 33.021027 
L 88.285965 33.093178 
L 88.260098 33.16533 
L 88.085618 33.237481 
L 88.044869 33.309632 
L 88.030414 33.381783 
L 87.979627 33.453934 
L 87.970994 33.526085 
L 87.965987 33.598236 
L 87.964112 33.670387 
L 87.935831 33.742538 
L 87.908486 33.814689 
L 87.811893 33.886841 
L 87.685414 33.958992 
L 87.685341 34.031143 
L 87.508055 34.103294 
L 87.465322 34.175445 
L 87.450777 34.247596 
L 87.447353 34.319747 
L 87.403273 34.391898 
L 87.293837 34.464049 
L 87.258859 34.5362 
L 87.123936 34.608352 
L 87.09512 34.680503 
L 86.988115 34.752654 
L 86.939826 34.824805 
L 86.760361 34.896956 
L 86.753831 34.969107 
L 86.713823 35.041258 
L 86.680793 35.113409 
L 86.583529 35.18556 
L 86.534438 35.257711 
L 86.455567 35.329862 
L 86.439156 35.402014 
L 86.374302 35.474165 
L 86.361524 35.546316 
L 86.33148 35.618467 
L 86.298165 35.690618 
L 86.081726 35.762769 
L 86.067246 35.83492 
L 86.003232 35.907071 
L 85.976464 35.979222 
L 85.85273 36.051373 
L 85.707039 36.123525 
L 85.406611 36.195676 
L 85.264008 36.267827 
L 85.251213 36.339978 
L 85.23656 36.412129 
L 85.094905 36.48428 
L 85.050844 36.556431 
L 84.997084 36.628582 
L 84.57458 36.700733 
L 84.565845 36.772884 
L 84.513986 36.845036 
L 84.298854 36.917187 
L 84.186899 36.989338 
L 84.175409 37.061489 
L 84.154374 37.13364 
L 84.149106 37.205791 
L 83.978404 37.277942 
L 83.966613 37.350093 
L 83.928763 37.422244 
L 83.919396 37.494395 
L 83.823865 37.566547 
L 83.82071 37.638698 
L 83.633692 37.710849 
L 83.618048 37.783 
L 83.536139 37.855151 
L 83.502895 37.927302 
L 83.490967 37.999453 
L 83.285326 38.071604 
L 83.238297 38.143755 
L 83.178245 38.215906 
L 83.099043 38.288058 
L 83.049029 38.360209 
L 83.024692 38.43236 
L 82.912953 38.504511 
L 82.867637 38.576662 
L 82.821554 38.648813 
L 82.778531 38.720964 
L 82.655599 38.793115 
L 82.650505 38.865266 
L 82.447392 38.937417 
L 82.402558 39.009569 
L 82.349524 39.08172 
L 82.333687 39.153871 
L 82.328713 39.226022 
L 82.319085 39.298173 
L 82.133387 39.370324 
L 82.031006 39.442475 
L 82.03081 39.514626 
L 81.981592 39.586777 
L 81.936111 39.658928 
L 81.90711 39.73108 
L 81.845005 39.803231 
L 81.813771 39.875382 
L 81.775496 39.947533 
L 81.772182 40.019684 
L 81.7112 40.091835 
L 81.673409 40.163986 
L 81.667391 40.236137 
L 81.556677 40.308288 
L 81.547503 40.380439 
L 81.487431 40.45259 
L 81.264748 40.524742 
L 81.169237 40.596893 
L 81.102656 40.669044 
L 81.057295 40.741195 
L 81.032796 40.813346 
L 81.012223 40.885497 
L 81.008922 40.957648 
L 80.955983 41.029799 
L 80.78147 41.10195 
L 80.722441 41.174101 
L 80.51465 41.246253 
L 80.497056 41.318404 
L 80.297149 41.390555 
L 80.249492 41.462706 
L 80.178227 41.534857 
L 80.089485 41.607008 
L 80.064026 41.679159 
L 80.012887 41.75131 
L 79.993034 41.823461 
L 79.814873 41.895612 
L 79.706476 41.967764 
L 79.565404 42.039915 
L 79.547401 42.112066 
L 79.387405 42.184217 
L 79.213292 42.256368 
L 78.952332 42.328519 
L 78.825755 42.40067 
L 78.727341 42.472821 
L 78.617295 42.544972 
L 78.616078 42.617123 
L 78.461334 42.689275 
L 78.299138 42.761426 
L 78.280868 42.833577 
L 78.105939 42.905728 
L 78.073135 42.977879 
L 78.061091 43.05003 
L 77.785737 43.122181 
L 77.675345 43.194332 
L 77.674614 43.266483 
L 77.517001 43.338634 
L 77.463587 43.410786 
L 77.445033 43.482937 
L 77.436465 43.555088 
L 77.371508 43.627239 
L 77.353268 43.69939 
L 77.017443 43.771541 
L 76.823696 43.843692 
L 76.785846 43.915843 
L 76.784648 43.987994 
L 76.651539 44.060145 
L 76.640338 44.132297 
L 76.444669 44.204448 
L 76.291778 44.276599 
L 76.279485 44.34875 
L 76.249335 44.420901 
L 76.181829 44.493052 
L 76.064922 44.565203 
L 76.021205 44.637354 
L 75.976305 44.709505 
L 75.960849 44.781656 
L 75.748086 44.853807 
L 75.714444 44.925959 
L 75.700247 44.99811 
L 75.561548 45.070261 
L 75.409784 45.142412 
L 75.372214 45.214563 
L 75.276242 45.286714 
L 75.243457 45.358865 
L 74.979288 45.431016 
L 74.840568 45.503167 
L 74.824092 45.575318 
L 74.7224 45.64747 
L 74.697901 45.719621 
L 74.618229 45.791772 
L 74.617404 45.863923 
L 74.616867 45.936074 
L 74.595667 46.008225 
L 74.427097 46.080376 
L 74.419394 46.152527 
L 74.223831 46.224678 
L 74.202922 46.296829 
L 74.147453 46.368981 
L 74.145877 46.441132 
L 74.121442 46.513283 
L 74.006708 46.585434 
L 73.998229 46.657585 
L 73.963925 46.729736 
L 73.918701 46.801887 
L 73.819513 46.874038 
L 73.777114 46.946189 
L 73.5576 47.01834 
L 73.498774 47.090492 
L 73.389112 47.162643 
L 73.384568 47.234794 
L 73.380807 47.306945 
L 73.377776 47.379096 
L 73.357557 47.451247 
L 73.189638 47.523398 
L 73.070517 47.595549 
L 72.886095 47.6677 
L 72.731689 47.739851 
L 72.713669 47.812003 
L 72.686244 47.884154 
L 72.681641 47.956305 
L 72.505827 48.028456 
L 72.503397 48.100607 
L 72.477547 48.172758 
L 72.396429 48.244909 
L 72.381997 48.31706 
L 72.378395 48.389211 
L 72.367956 48.461362 
L 72.357333 48.533514 
L 72.243883 48.605665 
L 72.240618 48.677816 
L 72.207069 48.749967 
L 72.11129 48.822118 
L 72.101555 48.894269 
L 72.002898 48.96642 
L 71.988532 49.038571 
L 71.604934 49.110722 
L 71.436801 49.182873 
L 71.405592 49.255025 
L 71.108446 49.327176 
L 71.095322 49.399327 
L 71.014743 49.471478 
L 70.886738 49.543629 
L 70.866192 49.61578 
L 70.765707 49.687931 
L 70.720301 49.760082 
L 70.681971 49.832233 
L 70.57527 49.904384 
L 70.567637 49.976535 
L 70.550357 50.048687 
L 70.533973 50.120838 
L 70.384333 50.192989 
L 70.177739 50.26514 
L 70.150381 50.337291 
L 70.142099 50.409442 
L 69.950946 50.481593 
L 69.918505 50.553744 
L 69.890902 50.625895 
L 69.881682 50.698046 
L 69.879637 50.770198 
L 69.681373 50.842349 
L 69.619522 50.9145 
L 69.536727 50.986651 
L 69.344368 51.058802 
L 69.305722 51.130953 
L 69.04762 51.203104 
L 68.707259 51.275255 
L 68.666294 51.347406 
L 68.654164 51.419557 
L 68.650597 51.491709 
L 68.602048 51.56386 
L 68.526146 51.636011 
L 68.500364 51.708162 
L 68.455369 51.780313 
L 68.392731 51.852464 
L 68.375078 51.924615 
L 68.37418 51.996766 
L 68.364947 52.068917 
L 68.338603 52.141068 
L 68.182944 52.21322 
L 68.095007 52.285371 
L 67.959134 52.357522 
L 67.816432 52.429673 
L 67.789418 52.501824 
L 67.789298 52.573975 
L 67.781804 52.646126 
L 67.709003 52.718277 
L 67.589511 52.790428 
L 67.565486 52.862579 
L 67.487468 52.934731 
L 67.399025 53.006882 
L 67.35687 53.079033 
L 67.336282 53.151184 
L 67.287714 53.223335 
L 67.251949 53.295486 
L 67.227116 53.367637 
L 67.169129 53.439788 
L 67.112665 53.511939 
L 67.10201 53.58409 
L 66.923042 53.656242 
L 66.816439 53.728393 
L 66.745324 53.800544 
L 66.483067 53.872695 
L 66.459875 53.944846 
L 66.401202 54.016997 
L 66.325891 54.089148 
L 66.156228 54.161299 
L 66.123428 54.23345 
L 66.09106 54.305601 
L 66.081561 54.377752 
L 66.006185 54.449904 
L 65.925577 54.522055 
L 65.775952 54.594206 
L 65.633491 54.666357 
L 65.456973 54.738508 
L 65.424898 54.810659 
L 65.365112 54.88281 
L 65.334899 54.954961 
L 65.233062 55.027112 
L 65.156486 55.099263 
L 65.11612 55.171415 
L 65.081054 55.243566 
L 64.76659 55.315717 
L 64.760781 55.387868 
L 64.670048 55.460019 
L 64.197714 55.53217 
L 64.146707 55.604321 
L 63.913396 55.676472 
L 63.476545 55.748623 
L 63.43075 55.820774 
L 63.393636 55.892926 
L 63.392447 55.965077 
L 63.275897 56.037228 
L 63.141837 56.109379 
L 63.105074 56.18153 
L 62.976783 56.253681 
L 62.896897 56.325832 
L 62.837022 56.397983 
L 62.822214 56.470134 
L 62.79315 56.542285 
L 62.706293 56.614437 
L 62.62627 56.686588 
L 62.552613 56.758739 
L 62.510015 56.83089 
L 62.347659 56.903041 
L 62.215099 56.975192 
L 61.846697 57.047343 
L 61.801769 57.119494 
L 61.608768 57.191645 
L 61.578603 57.263796 
L 61.571712 57.335948 
L 61.527427 57.408099 
L 61.523417 57.48025 
L 61.334077 57.552401 
L 61.239316 57.624552 
L 61.158112 57.696703 
L 61.084866 57.768854 
L 61.079378 57.841005 
L 60.873034 57.913156 
L 60.701236 57.985307 
L 60.496241 58.057459 
L 60.429182 58.12961 
L 60.410411 58.201761 
L 60.285968 58.273912 
L 60.079352 58.346063 
L 59.862485 58.418214 
L 59.807901 58.490365 
L 59.372878 58.562516 
L 59.354533 58.634667 
L 59.324715 58.706818 
L 59.18818 58.77897 
L 59.162013 58.851121 
L 59.077222 58.923272 
L 58.822358 58.995423 
L 58.77987 59.067574 
L 58.759489 59.139725 
L 58.49848 59.211876 
L 58.380829 59.284027 
L 58.305908 59.356178 
L 58.091972 59.428329 
L 58.078154 59.50048 
L 58.054039 59.572632 
L 58.01897 59.644783 
L 57.971906 59.716934 
L 57.759155 59.789085 
L 57.754384 59.861236 
L 57.50475 59.933387 
L 57.310755 60.005538 
L 57.215236 60.077689 
L 56.865587 60.14984 
L 56.861614 60.221991 
L 56.672098 60.294143 
L 56.666014 60.366294 
L 56.4171 60.438445 
L 56.388084 60.510596 
L 56.141471 60.582747 
L 55.998914 60.654898 
L 55.91448 60.727049 
L 55.89315 60.7992 
L 55.677444 60.871351 
L 55.656638 60.943502 
L 55.531508 61.015654 
L 55.522778 61.087805 
L 55.521055 61.159956 
L 55.449369 61.232107 
L 55.431021 61.304258 
L 55.430436 61.376409 
L 55.064858 61.44856 
L 54.715628 61.520711 
L 54.694776 61.592862 
L 54.624447 61.665013 
L 54.401062 61.737165 
L 54.333519 61.809316 
L 54.256441 61.881467 
L 54.222605 61.953618 
L 54.068025 62.025769 
L 53.979293 62.09792 
L 53.366701 62.170071 
L 53.199817 62.242222 
L 52.842161 62.314373 
L 52.723781 62.386524 
L 52.721072 62.458676 
L 52.435453 62.530827 
L 52.349824 62.602978 
L 52.231242 62.675129 
L 52.190653 62.74728 
L 51.772658 62.819431 
L 51.753468 62.891582 
L 51.664986 62.963733 
L 51.096483 63.035884 
L 51.034868 63.108035 
L 50.631932 63.180187 
L 50.559951 63.252338 
L 50.015985 63.324489 
L 49.942713 63.39664 
L 49.846882 63.468791 
L 49.816964 63.540942 
L 49.483882 63.613093 
L 49.442595 63.685244 
L 48.927791 63.757395 
L 48.877938 63.829546 
L 48.759403 63.901697 
L 48.25912 63.973849 
L 47.949853 64.046 
L 47.731759 64.118151 
L 47.217762 64.190302 
L 47.068237 64.262453 
L 46.977314 64.334604 
L 45.636354 64.406755 
L 45.554321 64.478906 
L 45.008844 64.551057 
L 44.758377 64.623208 
L 44.559014 64.69536 
L 44.34862 64.767511 
L 43.88296 64.839662 
L 43.50548 64.911813 
L 43.438254 64.983964 
L 43.109572 65.056115 
L 42.887772 65.128266 
L 42.565511 65.200417 
L 41.482847 65.272568 
L 41.367933 65.344719 
L 40.817393 65.416871 
L 40.685895 65.489022 
L 39.83367 65.561173 
L 39.566896 65.633324 
L 39.164851 65.705475 
L 38.340879 65.777626 
L 38.088342 65.849777 
L 37.968369 65.921928 
L 36.732429 65.994079 
L 36.539562 66.06623 
L 35.963042 66.138382 
L 35.396494 66.210533 
L 35.161648 66.282684 
L 34.653011 66.354835 
L 34.62862 66.426986 
L 34.319747 66.499137 
L 32.776187 66.571288 
L 32.720516 66.643439 
L 31.065245 66.71559 
L 31.031777 66.787741 
L 30.630589 66.859893 
L 30.233546 66.932044 
L 29.341156 67.004195 
L 28.162806 67.076346 
L 27.301459 67.148497 
L 24.182178 67.220648 
L 21.203328 67.292799 
L 20.720689 67.36495 
L 16.654366 67.437101 
L 14.828982 67.509252 
L 13.690923 67.581404 
L 11.839263 67.653555 
L 9.511758 67.725706 
L 3.669291 67.797857 
L -0.385015 67.870008 
L -2.756178 67.942159 
L -2.844443 68.01431 
L -6.583253 68.086461 
L -8.444251 68.158612 
L -8.828971 68.230763 
L -12.409119 68.302914 
L -14.082717 68.375066 
L -14.806802 68.447217 
L -21.370194 68.519368 
L -21.476083 68.591519 
L -23.179484 68.66367 
L -24.027317 68.735821 
L -24.063482 68.807972 
L -24.819316 68.880123 
L -28.516331 68.952274 
L -30.360012 69.024425 
L -36.149187 69.096577 
L -38.616013 69.168728 
L -43.037149 69.240879 
L -47.991915 69.31303 
L -49.516936 69.385181 
L -50.035165 69.457332 
L -57.948748 69.529483 
L -58.376703 69.601634 
L -61.450317 69.673785 
L -62.68764 69.745936 
L -80.029957 69.818088 
L -93.909905 69.890239 
z
" clip-path="url(#p526c87eb09)" style="fill: #808080; fill-opacity: 0.4"/>
   </g>
   <g id="matplotlib.axis_1">
    <g id="xtick_1">
     <g id="line2d_1">
      <defs>
       <path id="m2fc2660e3e" d="M 0 0 
L 0 -5 
" style="stroke: #000000; stroke-width: 0.5"/>
      </defs>
      <g>
       <use xlink:href="#m2fc2660e3e" x="63.042956" y="69.96239" style="fill-opacity: 0; stroke: #000000; stroke-width: 0.5"/>
      </g>
     </g>
     <g id="text_1">
      <!-- $\mathdefault{10^{0}}$ -->
      <g transform="translate(56.762956 80.21239)scale(0.08 -0.08)">
       <defs>
        <path id="ArialMT-31" d="M 2384 0 
L 1822 0 
L 1822 3584 
Q 1619 3391 1289 3197 
Q 959 3003 697 2906 
L 697 3450 
Q 1169 3672 1522 3987 
Q 1875 4303 2022 4600 
L 2384 4600 
L 2384 0 
z
" transform="scale(0.015625)"/>
        <path id="ArialMT-30" d="M 266 2259 
Q 266 3072 433 3567 
Q 600 4063 929 4331 
Q 1259 4600 1759 4600 
Q 2128 4600 2406 4451 
Q 2684 4303 2865 4023 
Q 3047 3744 3150 3342 
Q 3253 2941 3253 2259 
Q 3253 1453 3087 958 
Q 2922 463 2592 192 
Q 2263 -78 1759 -78 
Q 1097 -78 719 397 
Q 266 969 266 2259 
z
M 844 2259 
Q 844 1131 1108 757 
Q 1372 384 1759 384 
Q 2147 384 2411 759 
Q 2675 1134 2675 2259 
Q 2675 3391 2411 3762 
Q 2147 4134 1753 4134 
Q 1366 4134 1134 3806 
Q 844 3388 844 2259 
z
" transform="scale(0.015625)"/>
       </defs>
       <use xlink:href="#ArialMT-31" transform="translate(0 0.99375)"/>
       <use xlink:href="#ArialMT-30" transform="translate(55.615234 0.99375)"/>
       <use xlink:href="#ArialMT-30" transform="translate(112.972813 70.6875)scale(0.7)"/>
      </g>
     </g>
    </g>
    <g id="xtick_2">
     <g id="line2d_2">
      <g>
       <use xlink:href="#m2fc2660e3e" x="155.136623" y="69.96239" style="fill-opacity: 0; stroke: #000000; stroke-width: 0.5"/>
      </g>
     </g>
     <g id="text_2">
      <!-- $\mathdefault{10^{1}}$ -->
      <g transform="translate(148.856623 80.21239)scale(0.08 -0.08)">
       <use xlink:href="#ArialMT-31" transform="translate(0 0.99375)"/>
       <use xlink:href="#ArialMT-30" transform="translate(55.615234 0.99375)"/>
       <use xlink:href="#ArialMT-31" transform="translate(112.972813 70.6875)scale(0.7)"/>
      </g>
     </g>
    </g>
    <g id="xtick_3">
     <g id="line2d_3">
      <defs>
       <path id="m634de86e93" d="M 0 0 
L 0 -3 
" style="stroke: #000000; stroke-width: 0.5"/>
      </defs>
      <g>
       <use xlink:href="#m634de86e93" x="35.32" y="69.96239" style="fill-opacity: 0; stroke: #000000; stroke-width: 0.5"/>
      </g>
     </g>
    </g>
    <g id="xtick_4">
     <g id="line2d_4">
      <g>
       <use xlink:href="#m634de86e93" x="42.612091" y="69.96239" style="fill-opacity: 0; stroke: #000000; stroke-width: 0.5"/>
      </g>
     </g>
    </g>
    <g id="xtick_5">
     <g id="line2d_5">
      <g>
       <use xlink:href="#m634de86e93" x="48.777467" y="69.96239" style="fill-opacity: 0; stroke: #000000; stroke-width: 0.5"/>
      </g>
     </g>
    </g>
    <g id="xtick_6">
     <g id="line2d_6">
      <g>
       <use xlink:href="#m634de86e93" x="54.118158" y="69.96239" style="fill-opacity: 0; stroke: #000000; stroke-width: 0.5"/>
      </g>
     </g>
    </g>
    <g id="xtick_7">
     <g id="line2d_7">
      <g>
       <use xlink:href="#m634de86e93" x="58.828981" y="69.96239" style="fill-opacity: 0; stroke: #000000; stroke-width: 0.5"/>
      </g>
     </g>
    </g>
    <g id="xtick_8">
     <g id="line2d_8">
      <g>
       <use xlink:href="#m634de86e93" x="90.765912" y="69.96239" style="fill-opacity: 0; stroke: #000000; stroke-width: 0.5"/>
      </g>
     </g>
    </g>
    <g id="xtick_9">
     <g id="line2d_9">
      <g>
       <use xlink:href="#m634de86e93" x="106.982802" y="69.96239" style="fill-opacity: 0; stroke: #000000; stroke-width: 0.5"/>
      </g>
     </g>
    </g>
    <g id="xtick_10">
     <g id="line2d_10">
      <g>
       <use xlink:href="#m634de86e93" x="118.488869" y="69.96239" style="fill-opacity: 0; stroke: #000000; stroke-width: 0.5"/>
      </g>
     </g>
    </g>
    <g id="xtick_11">
     <g id="line2d_11">
      <g>
       <use xlink:href="#m634de86e93" x="127.413667" y="69.96239" style="fill-opacity: 0; stroke: #000000; stroke-width: 0.5"/>
      </g>
     </g>
    </g>
    <g id="xtick_12">
     <g id="line2d_12">
      <g>
       <use xlink:href="#m634de86e93" x="134.705758" y="69.96239" style="fill-opacity: 0; stroke: #000000; stroke-width: 0.5"/>
      </g>
     </g>
    </g>
    <g id="xtick_13">
     <g id="line2d_13">
      <g>
       <use xlink:href="#m634de86e93" x="140.871134" y="69.96239" style="fill-opacity: 0; stroke: #000000; stroke-width: 0.5"/>
      </g>
     </g>
    </g>
    <g id="xtick_14">
     <g id="line2d_14">
      <g>
       <use xlink:href="#m634de86e93" x="146.211825" y="69.96239" style="fill-opacity: 0; stroke: #000000; stroke-width: 0.5"/>
      </g>
     </g>
    </g>
    <g id="xtick_15">
     <g id="line2d_15">
      <g>
       <use xlink:href="#m634de86e93" x="150.922648" y="69.96239" style="fill-opacity: 0; stroke: #000000; stroke-width: 0.5"/>
      </g>
     </g>
    </g>
    <g id="text_3">
     <!-- $F_c (MN)$ -->
     <g transform="translate(81.708312 89.73239)scale(0.08 -0.08)">
      <defs>
       <path id="DejaVuSans-Oblique-46" d="M 1081 4666 
L 3756 4666 
L 3653 4134 
L 1606 4134 
L 1338 2759 
L 3188 2759 
L 3084 2228 
L 1234 2228 
L 800 0 
L 172 0 
L 1081 4666 
z
" transform="scale(0.015625)"/>
       <path id="DejaVuSans-Oblique-63" d="M 3431 3366 
L 3316 2797 
Q 3109 2947 2876 3022 
Q 2644 3097 2394 3097 
Q 2119 3097 1870 3000 
Q 1622 2903 1453 2725 
Q 1184 2453 1037 2087 
Q 891 1722 891 1331 
Q 891 859 1127 628 
Q 1363 397 1844 397 
Q 2081 397 2348 469 
Q 2616 541 2906 684 
L 2797 116 
Q 2547 13 2283 -39 
Q 2019 -91 1741 -91 
Q 1044 -91 669 257 
Q 294 606 294 1253 
Q 294 1797 489 2255 
Q 684 2713 1069 3078 
Q 1331 3328 1684 3456 
Q 2038 3584 2456 3584 
Q 2700 3584 2940 3529 
Q 3181 3475 3431 3366 
z
" transform="scale(0.015625)"/>
       <path id="DejaVuSans-28" d="M 1984 4856 
Q 1566 4138 1362 3434 
Q 1159 2731 1159 2009 
Q 1159 1288 1364 580 
Q 1569 -128 1984 -844 
L 1484 -844 
Q 1016 -109 783 600 
Q 550 1309 550 2009 
Q 550 2706 781 3412 
Q 1013 4119 1484 4856 
L 1984 4856 
z
" transform="scale(0.015625)"/>
       <path id="DejaVuSans-Oblique-4d" d="M 1081 4666 
L 2028 4666 
L 2572 1522 
L 4378 4666 
L 5350 4666 
L 4441 0 
L 3828 0 
L 4622 4091 
L 2791 897 
L 2175 897 
L 1581 4103 
L 788 0 
L 172 0 
L 1081 4666 
z
" transform="scale(0.015625)"/>
       <path id="DejaVuSans-Oblique-4e" d="M 1081 4666 
L 1931 4666 
L 3219 666 
L 4000 4666 
L 4616 4666 
L 3706 0 
L 2853 0 
L 1569 4025 
L 788 0 
L 172 0 
L 1081 4666 
z
" transform="scale(0.015625)"/>
       <path id="DejaVuSans-29" d="M 513 4856 
L 1013 4856 
Q 1481 4119 1714 3412 
Q 1947 2706 1947 2009 
Q 1947 1309 1714 600 
Q 1481 -109 1013 -844 
L 513 -844 
Q 928 -128 1133 580 
Q 1338 1288 1338 2009 
Q 1338 2731 1133 3434 
Q 928 4138 513 4856 
z
" transform="scale(0.015625)"/>
      </defs>
      <use xlink:href="#DejaVuSans-Oblique-46" transform="translate(0 0.125)"/>
      <use xlink:href="#DejaVuSans-Oblique-63" transform="translate(57.519531 -16.28125)scale(0.7)"/>
      <use xlink:href="#DejaVuSans-28" transform="translate(98.740234 0.125)"/>
      <use xlink:href="#DejaVuSans-Oblique-4d" transform="translate(137.753906 0.125)"/>
      <use xlink:href="#DejaVuSans-Oblique-4e" transform="translate(224.033203 0.125)"/>
      <use xlink:href="#DejaVuSans-29" transform="translate(298.837891 0.125)"/>
     </g>
    </g>
   </g>
   <g id="matplotlib.axis_2">
    <g id="ytick_1">
     <g id="line2d_16">
      <defs>
       <path id="mc242a9960a" d="M 0 0 
L 5 0 
" style="stroke: #000000; stroke-width: 0.5"/>
      </defs>
      <g>
       <use xlink:href="#mc242a9960a" x="35.32" y="69.96239" style="fill-opacity: 0; stroke: #000000; stroke-width: 0.5"/>
      </g>
     </g>
     <g id="text_4">
      <!-- 0.00 -->
      <g transform="translate(17.75125 72.825515)scale(0.08 -0.08)">
       <defs>
        <path id="ArialMT-2e" d="M 581 0 
L 581 641 
L 1222 641 
L 1222 0 
L 581 0 
z
" transform="scale(0.015625)"/>
       </defs>
       <use xlink:href="#ArialMT-30"/>
       <use xlink:href="#ArialMT-2e" x="55.615234"/>
       <use xlink:href="#ArialMT-30" x="83.398438"/>
       <use xlink:href="#ArialMT-30" x="139.013672"/>
      </g>
     </g>
    </g>
    <g id="ytick_2">
     <g id="line2d_17">
      <g>
       <use xlink:href="#mc242a9960a" x="35.32" y="55.351792" style="fill-opacity: 0; stroke: #000000; stroke-width: 0.5"/>
      </g>
     </g>
     <g id="text_5">
      <!-- 0.25 -->
      <g transform="translate(17.75125 58.214917)scale(0.08 -0.08)">
       <defs>
        <path id="ArialMT-32" d="M 3222 541 
L 3222 0 
L 194 0 
Q 188 203 259 391 
Q 375 700 629 1000 
Q 884 1300 1366 1694 
Q 2113 2306 2375 2664 
Q 2638 3022 2638 3341 
Q 2638 3675 2398 3904 
Q 2159 4134 1775 4134 
Q 1369 4134 1125 3890 
Q 881 3647 878 3216 
L 300 3275 
Q 359 3922 746 4261 
Q 1134 4600 1788 4600 
Q 2447 4600 2831 4234 
Q 3216 3869 3216 3328 
Q 3216 3053 3103 2787 
Q 2991 2522 2730 2228 
Q 2469 1934 1863 1422 
Q 1356 997 1212 845 
Q 1069 694 975 541 
L 3222 541 
z
" transform="scale(0.015625)"/>
        <path id="ArialMT-35" d="M 266 1200 
L 856 1250 
Q 922 819 1161 601 
Q 1400 384 1738 384 
Q 2144 384 2425 690 
Q 2706 997 2706 1503 
Q 2706 1984 2436 2262 
Q 2166 2541 1728 2541 
Q 1456 2541 1237 2417 
Q 1019 2294 894 2097 
L 366 2166 
L 809 4519 
L 3088 4519 
L 3088 3981 
L 1259 3981 
L 1013 2750 
Q 1425 3038 1878 3038 
Q 2478 3038 2890 2622 
Q 3303 2206 3303 1553 
Q 3303 931 2941 478 
Q 2500 -78 1738 -78 
Q 1113 -78 717 272 
Q 322 622 266 1200 
z
" transform="scale(0.015625)"/>
       </defs>
       <use xlink:href="#ArialMT-30"/>
       <use xlink:href="#ArialMT-2e" x="55.615234"/>
       <use xlink:href="#ArialMT-32" x="83.398438"/>
       <use xlink:href="#ArialMT-35" x="139.013672"/>
      </g>
     </g>
    </g>
    <g id="ytick_3">
     <g id="line2d_18">
      <g>
       <use xlink:href="#mc242a9960a" x="35.32" y="40.741195" style="fill-opacity: 0; stroke: #000000; stroke-width: 0.5"/>
      </g>
     </g>
     <g id="text_6">
      <!-- 0.50 -->
      <g transform="translate(17.75125 43.60432)scale(0.08 -0.08)">
       <use xlink:href="#ArialMT-30"/>
       <use xlink:href="#ArialMT-2e" x="55.615234"/>
       <use xlink:href="#ArialMT-35" x="83.398438"/>
       <use xlink:href="#ArialMT-30" x="139.013672"/>
      </g>
     </g>
    </g>
    <g id="ytick_4">
     <g id="line2d_19">
      <g>
       <use xlink:href="#mc242a9960a" x="35.32" y="26.130597" style="fill-opacity: 0; stroke: #000000; stroke-width: 0.5"/>
      </g>
     </g>
     <g id="text_7">
      <!-- 0.75 -->
      <g transform="translate(17.75125 28.993722)scale(0.08 -0.08)">
       <defs>
        <path id="ArialMT-37" d="M 303 3981 
L 303 4522 
L 3269 4522 
L 3269 4084 
Q 2831 3619 2401 2847 
Q 1972 2075 1738 1259 
Q 1569 684 1522 0 
L 944 0 
Q 953 541 1156 1306 
Q 1359 2072 1739 2783 
Q 2119 3494 2547 3981 
L 303 3981 
z
" transform="scale(0.015625)"/>
       </defs>
       <use xlink:href="#ArialMT-30"/>
       <use xlink:href="#ArialMT-2e" x="55.615234"/>
       <use xlink:href="#ArialMT-37" x="83.398438"/>
       <use xlink:href="#ArialMT-35" x="139.013672"/>
      </g>
     </g>
    </g>
    <g id="ytick_5">
     <g id="line2d_20">
      <g>
       <use xlink:href="#mc242a9960a" x="35.32" y="11.52" style="fill-opacity: 0; stroke: #000000; stroke-width: 0.5"/>
      </g>
     </g>
     <g id="text_8">
      <!-- 1.00 -->
      <g transform="translate(17.75125 14.383125)scale(0.08 -0.08)">
       <use xlink:href="#ArialMT-31"/>
       <use xlink:href="#ArialMT-2e" x="55.615234"/>
       <use xlink:href="#ArialMT-30" x="83.398438"/>
       <use xlink:href="#ArialMT-30" x="139.013672"/>
      </g>
     </g>
    </g>
    <g id="ytick_6">
     <g id="line2d_21">
      <defs>
       <path id="mf2fec5d1ac" d="M 0 0 
L 3 0 
" style="stroke: #000000; stroke-width: 0.5"/>
      </defs>
      <g>
       <use xlink:href="#mf2fec5d1ac" x="35.32" y="67.04027" style="fill-opacity: 0; stroke: #000000; stroke-width: 0.5"/>
      </g>
     </g>
    </g>
    <g id="ytick_7">
     <g id="line2d_22">
      <g>
       <use xlink:href="#mf2fec5d1ac" x="35.32" y="64.118151" style="fill-opacity: 0; stroke: #000000; stroke-width: 0.5"/>
      </g>
     </g>
    </g>
    <g id="ytick_8">
     <g id="line2d_23">
      <g>
       <use xlink:href="#mf2fec5d1ac" x="35.32" y="61.196031" style="fill-opacity: 0; stroke: #000000; stroke-width: 0.5"/>
      </g>
     </g>
    </g>
    <g id="ytick_9">
     <g id="line2d_24">
      <g>
       <use xlink:href="#mf2fec5d1ac" x="35.32" y="58.273912" style="fill-opacity: 0; stroke: #000000; stroke-width: 0.5"/>
      </g>
     </g>
    </g>
    <g id="ytick_10">
     <g id="line2d_25">
      <g>
       <use xlink:href="#mf2fec5d1ac" x="35.32" y="52.429673" style="fill-opacity: 0; stroke: #000000; stroke-width: 0.5"/>
      </g>
     </g>
    </g>
    <g id="ytick_11">
     <g id="line2d_26">
      <g>
       <use xlink:href="#mf2fec5d1ac" x="35.32" y="49.507553" style="fill-opacity: 0; stroke: #000000; stroke-width: 0.5"/>
      </g>
     </g>
    </g>
    <g id="ytick_12">
     <g id="line2d_27">
      <g>
       <use xlink:href="#mf2fec5d1ac" x="35.32" y="46.585434" style="fill-opacity: 0; stroke: #000000; stroke-width: 0.5"/>
      </g>
     </g>
    </g>
    <g id="ytick_13">
     <g id="line2d_28">
      <g>
       <use xlink:href="#mf2fec5d1ac" x="35.32" y="43.663314" style="fill-opacity: 0; stroke: #000000; stroke-width: 0.5"/>
      </g>
     </g>
    </g>
    <g id="ytick_14">
     <g id="line2d_29">
      <g>
       <use xlink:href="#mf2fec5d1ac" x="35.32" y="37.819075" style="fill-opacity: 0; stroke: #000000; stroke-width: 0.5"/>
      </g>
     </g>
    </g>
    <g id="ytick_15">
     <g id="line2d_30">
      <g>
       <use xlink:href="#mf2fec5d1ac" x="35.32" y="34.896956" style="fill-opacity: 0; stroke: #000000; stroke-width: 0.5"/>
      </g>
     </g>
    </g>
    <g id="ytick_16">
     <g id="line2d_31">
      <g>
       <use xlink:href="#mf2fec5d1ac" x="35.32" y="31.974836" style="fill-opacity: 0; stroke: #000000; stroke-width: 0.5"/>
      </g>
     </g>
    </g>
    <g id="ytick_17">
     <g id="line2d_32">
      <g>
       <use xlink:href="#mf2fec5d1ac" x="35.32" y="29.052717" style="fill-opacity: 0; stroke: #000000; stroke-width: 0.5"/>
      </g>
     </g>
    </g>
    <g id="ytick_18">
     <g id="line2d_33">
      <g>
       <use xlink:href="#mf2fec5d1ac" x="35.32" y="23.208478" style="fill-opacity: 0; stroke: #000000; stroke-width: 0.5"/>
      </g>
     </g>
    </g>
    <g id="ytick_19">
     <g id="line2d_34">
      <g>
       <use xlink:href="#mf2fec5d1ac" x="35.32" y="20.286358" style="fill-opacity: 0; stroke: #000000; stroke-width: 0.5"/>
      </g>
     </g>
    </g>
    <g id="ytick_20">
     <g id="line2d_35">
      <g>
       <use xlink:href="#mf2fec5d1ac" x="35.32" y="17.364239" style="fill-opacity: 0; stroke: #000000; stroke-width: 0.5"/>
      </g>
     </g>
    </g>
    <g id="ytick_21">
     <g id="line2d_36">
      <g>
       <use xlink:href="#mf2fec5d1ac" x="35.32" y="14.442119" style="fill-opacity: 0; stroke: #000000; stroke-width: 0.5"/>
      </g>
     </g>
    </g>
    <g id="text_9">
     <!-- CDF -->
     <g transform="translate(14.16125 48.96182)rotate(-90)scale(0.08 -0.08)">
      <defs>
       <path id="ArialMT-43" d="M 3763 1606 
L 4369 1453 
Q 4178 706 3683 314 
Q 3188 -78 2472 -78 
Q 1731 -78 1267 223 
Q 803 525 561 1097 
Q 319 1669 319 2325 
Q 319 3041 592 3573 
Q 866 4106 1370 4382 
Q 1875 4659 2481 4659 
Q 3169 4659 3637 4309 
Q 4106 3959 4291 3325 
L 3694 3184 
Q 3534 3684 3231 3912 
Q 2928 4141 2469 4141 
Q 1941 4141 1586 3887 
Q 1231 3634 1087 3207 
Q 944 2781 944 2328 
Q 944 1744 1114 1308 
Q 1284 872 1643 656 
Q 2003 441 2422 441 
Q 2931 441 3284 734 
Q 3638 1028 3763 1606 
z
" transform="scale(0.015625)"/>
       <path id="ArialMT-44" d="M 494 0 
L 494 4581 
L 2072 4581 
Q 2606 4581 2888 4516 
Q 3281 4425 3559 4188 
Q 3922 3881 4101 3404 
Q 4281 2928 4281 2316 
Q 4281 1794 4159 1391 
Q 4038 988 3847 723 
Q 3656 459 3429 307 
Q 3203 156 2883 78 
Q 2563 0 2147 0 
L 494 0 
z
M 1100 541 
L 2078 541 
Q 2531 541 2789 625 
Q 3047 709 3200 863 
Q 3416 1078 3536 1442 
Q 3656 1806 3656 2325 
Q 3656 3044 3420 3430 
Q 3184 3816 2847 3947 
Q 2603 4041 2063 4041 
L 1100 4041 
L 1100 541 
z
" transform="scale(0.015625)"/>
       <path id="ArialMT-46" d="M 525 0 
L 525 4581 
L 3616 4581 
L 3616 4041 
L 1131 4041 
L 1131 2622 
L 3281 2622 
L 3281 2081 
L 1131 2081 
L 1131 0 
L 525 0 
z
" transform="scale(0.015625)"/>
      </defs>
      <use xlink:href="#ArialMT-43"/>
      <use xlink:href="#ArialMT-44" x="72.216797"/>
      <use xlink:href="#ArialMT-46" x="144.433594"/>
     </g>
    </g>
   </g>
   <g id="line2d_37">
    <path d="M -1 69.680897 
L 0.908552 69.601634 
L 1.128669 69.529483 
L 29.730468 68.66367 
L 29.979451 68.591519 
L 32.772645 68.375066 
L 33.156469 68.302914 
L 37.519736 68.158612 
L 39.437096 67.797857 
L 44.758362 67.653555 
L 46.652856 67.437101 
L 51.391007 67.220648 
L 51.543396 67.148497 
L 53.807253 66.932044 
L 54.537247 66.643439 
L 55.186657 66.426986 
L 59.147526 65.994079 
L 59.538919 65.777626 
L 60.834375 65.416871 
L 60.980915 65.344719 
L 62.093841 65.200417 
L 62.25157 64.983964 
L 63.085944 64.767511 
L 63.318522 64.623208 
L 64.145549 64.478906 
L 64.34764 64.334604 
L 64.980371 64.046 
L 65.09296 63.901697 
L 65.277303 63.757395 
L 65.321505 63.685244 
L 65.58131 63.540942 
L 65.615978 63.468791 
L 65.912648 63.324489 
L 66.498763 63.180187 
L 66.814075 62.963733 
L 68.03986 62.675129 
L 68.8879 62.09792 
L 69.720429 61.809316 
L 69.844097 61.665013 
L 70.846912 61.376409 
L 71.355243 61.087805 
L 71.740971 60.871351 
L 71.818475 60.727049 
L 72.047881 60.582747 
L 72.182972 60.294143 
L 72.520176 60.005538 
L 72.618352 59.861236 
L 73.04608 59.644783 
L 73.205766 59.428329 
L 73.677172 59.139725 
L 74.305441 58.923272 
L 74.58238 58.706818 
L 75.504727 58.273912 
L 75.567102 58.057459 
L 76.039169 57.768854 
L 76.106736 57.552401 
L 76.292809 57.408099 
L 76.533661 57.263796 
L 76.679317 57.047343 
L 77.139255 56.758739 
L 77.576596 56.470134 
L 77.592462 56.325832 
L 78.007842 56.037228 
L 78.333617 55.676472 
L 78.504524 55.460019 
L 78.632168 55.171415 
L 78.698501 55.099263 
L 79.035321 54.954961 
L 79.216161 54.666357 
L 79.380539 54.449904 
L 79.473052 54.23345 
L 79.702295 53.944846 
L 79.737962 53.872695 
L 80.030327 53.728393 
L 80.043361 53.58409 
L 80.351074 53.367637 
L 80.510442 53.151184 
L 80.684313 52.862579 
L 81.313186 52.573975 
L 81.382041 52.429673 
L 82.253579 51.852464 
L 82.491068 51.56386 
L 82.873971 51.419557 
L 83.13323 51.130953 
L 83.496931 50.986651 
L 83.89839 50.337291 
L 84.201912 50.120838 
L 84.289575 49.976535 
L 84.569979 49.760082 
L 84.638231 49.543629 
L 85.460662 49.255025 
L 85.5038 49.110722 
L 85.942741 48.677816 
L 86.069867 48.533514 
L 86.361577 48.244909 
L 86.414202 48.028456 
L 87.845001 46.946189 
L 87.863346 46.874038 
L 88.446761 46.585434 
L 88.606712 46.368981 
L 88.868801 46.080376 
L 88.912455 45.936074 
L 89.142923 45.791772 
L 89.26253 45.64747 
L 89.315764 45.503167 
L 89.762481 45.286714 
L 89.800311 45.214563 
L 90.374545 45.070261 
L 90.561886 44.853807 
L 90.566853 44.781656 
L 90.801293 44.565203 
L 90.946991 44.060145 
L 92.196282 42.905728 
L 92.230949 42.833577 
L 92.618312 42.689275 
L 92.77973 42.40067 
L 92.788176 42.328519 
L 93.464871 41.895612 
L 93.963952 41.174101 
L 94.085714 40.813346 
L 94.977589 39.298173 
L 95.471357 39.153871 
L 95.526888 39.009569 
L 95.844656 38.793115 
L 95.921388 38.576662 
L 96.005903 38.360209 
L 96.42878 38.071604 
L 96.472912 37.999453 
L 97.237171 37.638698 
L 97.531544 37.13364 
L 97.656593 36.772884 
L 97.852104 36.556431 
L 97.950608 36.412129 
L 98.586387 36.195676 
L 98.885402 35.83492 
L 99.068546 35.690618 
L 99.129346 35.402014 
L 100.067038 35.041258 
L 100.474062 34.5362 
L 100.790836 34.391898 
L 101.017236 34.031143 
L 101.033288 33.886841 
L 101.400936 33.526085 
L 101.748066 32.948876 
L 101.85743 32.804574 
L 102.250039 32.443819 
L 102.358452 32.155214 
L 102.612458 31.722308 
L 102.617751 31.650156 
L 102.966431 31.361552 
L 103.111332 30.928645 
L 103.225417 30.712192 
L 103.939671 30.423588 
L 104.028094 30.207135 
L 104.451892 30.062832 
L 104.842623 29.702077 
L 105.518702 29.124868 
L 106.148383 28.764113 
L 106.165104 28.61981 
L 107.50517 27.898299 
L 107.623064 27.753997 
L 107.951246 27.609695 
L 108.170237 27.321091 
L 108.38004 27.176788 
L 108.402288 27.104637 
L 108.615457 26.960335 
L 108.818163 26.743882 
L 109.358115 26.59958 
L 109.441295 26.383126 
L 109.877057 26.166673 
L 110.044649 25.878069 
L 110.209394 25.733766 
L 110.956732 25.517313 
L 111.228455 25.30086 
L 111.349037 25.084407 
L 111.470646 24.940104 
L 111.812179 24.795802 
L 111.847967 24.723651 
L 112.594102 24.579349 
L 112.671002 24.435047 
L 112.789777 24.290744 
L 113.654761 24.00214 
L 113.757974 23.857838 
L 114.004162 23.641385 
L 114.8826 22.70342 
L 114.883057 22.631269 
L 116.138865 21.765456 
L 116.376813 21.621154 
L 116.799751 21.4047 
L 117.007999 21.188247 
L 117.011354 21.116096 
L 117.687139 20.899643 
L 118.054124 20.68319 
L 118.349591 20.538887 
L 118.359103 20.466736 
L 118.778278 20.250283 
L 118.90191 20.105981 
L 119.159756 19.745225 
L 119.269276 19.600923 
L 119.854758 19.456621 
L 119.863572 19.38447 
L 120.385613 19.168016 
L 120.577039 18.879412 
L 120.644983 18.73511 
L 121.360212 18.302203 
L 121.387604 18.230052 
L 123.217497 17.292088 
L 123.246407 17.219937 
L 123.936074 17.003483 
L 124.117811 16.78703 
L 124.37379 16.714879 
L 125.138613 16.570577 
L 125.742407 16.281972 
L 126.81218 16.13767 
L 126.862757 16.065519 
L 127.548895 15.849066 
L 127.992015 15.632613 
L 131.376609 14.766799 
L 131.498663 14.694648 
L 133.855338 14.406044 
L 133.955052 14.189591 
L 134.140107 14.11744 
L 135.443095 13.900986 
L 136.304849 13.540231 
L 138.177083 13.179475 
L 138.270785 13.035173 
L 141.032493 12.457964 
L 145.281473 12.025058 
L 145.505659 11.952907 
L 147.416079 11.808604 
L 155.200759 11.592151 
L 167.630584 11.52 
L 167.630584 11.52 
" clip-path="url(#p526c87eb09)" style="fill: none; stroke: #000000; stroke-width: 1.2; stroke-linecap: square"/>
   </g>
   <g id="line2d_38">
    <path d="M -1 69.205688 
L -0.725227 69.168728 
L 3.805201 68.952274 
L 4.56373 68.880123 
L 8.892223 68.735821 
L 9.018997 68.66367 
L 14.377541 68.375066 
L 14.516539 68.302914 
L 18.444775 68.01431 
L 19.367709 67.870008 
L 20.081745 67.797857 
L 29.987811 67.581404 
L 32.839859 67.36495 
L 35.42823 67.076346 
L 42.125661 66.932044 
L 47.930805 66.571288 
L 51.720829 66.354835 
L 52.893786 66.138382 
L 57.526493 65.777626 
L 57.647644 65.633324 
L 59.114506 65.489022 
L 59.155836 65.416871 
L 59.622465 65.272568 
L 59.643741 65.200417 
L 60.83526 64.983964 
L 61.587339 64.69536 
L 61.709876 64.478906 
L 63.715366 63.757395 
L 64.026911 63.540942 
L 64.567053 63.324489 
L 64.567173 63.252338 
L 65.516279 62.819431 
L 65.52054 62.74728 
L 66.301267 62.602978 
L 66.953574 62.386524 
L 67.208415 62.170071 
L 68.011284 61.953618 
L 68.229789 61.881467 
L 68.963697 61.737165 
L 68.974277 61.665013 
L 69.457068 61.376409 
L 69.604872 61.159956 
L 69.839736 61.015654 
L 69.99544 60.871351 
L 70.749846 60.582747 
L 72.18691 59.716934 
L 72.545142 59.572632 
L 72.790066 59.211876 
L 74.828556 58.346063 
L 74.892651 58.12961 
L 75.709112 57.913156 
L 76.220361 57.408099 
L 76.429226 57.191645 
L 76.53136 57.047343 
L 76.634286 56.83089 
L 77.265714 56.325832 
L 77.625535 56.109379 
L 77.752805 55.820774 
L 78.46239 55.53217 
L 78.555575 55.315717 
L 79.0357 55.171415 
L 79.147023 55.027112 
L 79.594412 54.88281 
L 79.674215 54.666357 
L 80.447704 54.016997 
L 80.580374 53.800544 
L 81.059157 52.934731 
L 81.256575 52.573975 
L 81.393072 52.285371 
L 81.435339 52.21322 
L 81.673344 52.068917 
L 81.724158 51.924615 
L 81.976722 51.636011 
L 82.040782 51.419557 
L 82.417084 51.203104 
L 82.579969 50.842349 
L 83.433204 50.409442 
L 83.458741 50.192989 
L 83.699747 50.048687 
L 83.754389 49.904384 
L 85.070765 48.749967 
L 85.5922 47.812003 
L 85.934938 47.234794 
L 86.423249 47.01834 
L 86.599096 46.874038 
L 86.781443 46.657585 
L 86.854343 46.513283 
L 87.334973 46.152527 
L 87.443979 45.936074 
L 87.488555 45.791772 
L 87.734523 45.575318 
L 88.167448 45.431016 
L 89.510476 43.627239 
L 89.717343 43.338634 
L 89.854635 42.905728 
L 89.953971 42.761426 
L 90.13613 42.544972 
L 90.223518 42.328519 
L 90.709834 41.967764 
L 91.034887 41.679159 
L 91.137344 41.318404 
L 91.623242 39.947533 
L 92.05885 39.658928 
L 92.352909 39.153871 
L 92.550546 38.937417 
L 92.682436 38.793115 
L 93.387873 37.350093 
L 93.771376 36.772884 
L 93.862112 36.48428 
L 94.207625 36.267827 
L 94.263915 36.051373 
L 94.506996 35.907071 
L 94.667406 35.690618 
L 94.979022 35.474165 
L 94.998897 35.329862 
L 95.174883 35.18556 
L 95.285324 34.969107 
L 95.75682 34.464049 
L 95.839295 34.247596 
L 96.153802 34.103294 
L 96.320128 33.814689 
L 96.658987 33.598236 
L 96.660191 33.526085 
L 96.903114 33.309632 
L 97.071702 32.732423 
L 97.284913 32.443819 
L 97.785505 31.794459 
L 97.943409 31.578005 
L 98.013063 31.145099 
L 98.377437 30.640041 
L 98.491599 30.423588 
L 99.131719 30.207135 
L 99.881788 29.557775 
L 99.95413 29.341321 
L 100.577144 28.475508 
L 100.770025 28.186904 
L 100.937781 27.826148 
L 100.986617 27.681846 
L 101.513717 27.248939 
L 101.625 27.104637 
L 101.819236 26.743882 
L 101.976082 26.59958 
L 102.108654 26.383126 
L 102.33821 26.166673 
L 102.556623 25.805917 
L 103.158535 24.940104 
L 103.320782 24.723651 
L 103.384706 24.579349 
L 104.08263 24.074291 
L 104.123078 23.857838 
L 104.421315 23.569233 
L 104.524443 23.280629 
L 104.613967 22.992025 
L 104.767834 22.70342 
L 104.822723 22.559118 
L 105.395126 22.198363 
L 105.934196 21.4047 
L 106.147722 21.260398 
L 106.182156 20.899643 
L 106.546439 20.68319 
L 106.978576 20.03383 
L 107.261937 19.673074 
L 107.347395 19.528772 
L 108.052753 18.807261 
L 108.061893 18.73511 
L 108.640816 18.374354 
L 109.156972 17.797146 
L 109.409203 17.508541 
L 109.696868 17.292088 
L 110.030002 16.859181 
L 110.268073 16.642728 
L 110.536209 16.354124 
L 110.703042 15.776915 
L 111.05096 15.560462 
L 111.378993 15.199706 
L 111.466139 14.911102 
L 111.926203 14.550346 
L 112.733552 13.900986 
L 113.2971 13.612382 
L 113.657181 13.035173 
L 113.952989 12.890871 
L 114.824452 12.025058 
L 115.152222 11.808604 
L 115.839052 11.592151 
L 116.094531 11.52 
L 116.094531 11.52 
" clip-path="url(#p526c87eb09)" style="fill: none; stroke-dasharray: 5.12,1.28,0.8,1.28; stroke-dashoffset: 0; stroke: #3c5488; stroke-width: 0.8"/>
   </g>
   <g id="line2d_39">
    <path d="M -1 69.182954 
L 5.133498 69.024425 
L 11.076771 68.66367 
L 11.374446 68.591519 
L 12.696723 68.519368 
L 19.067099 68.302914 
L 28.166594 67.942159 
L 28.671757 67.870008 
L 37.662217 67.581404 
L 39.608139 67.437101 
L 48.635227 67.148497 
L 50.825409 66.859893 
L 54.197506 66.499137 
L 54.391513 66.354835 
L 55.785417 66.210533 
L 55.82259 66.06623 
L 56.042672 65.921928 
L 57.758755 65.705475 
L 57.788528 65.633324 
L 60.074692 65.056115 
L 60.912403 64.767511 
L 62.488048 64.334604 
L 63.133598 64.046 
L 63.160717 63.901697 
L 64.391589 63.39664 
L 64.492713 63.324489 
L 66.082527 63.035884 
L 66.522796 62.74728 
L 67.291927 62.458676 
L 67.881741 62.242222 
L 68.246143 62.09792 
L 68.258573 62.025769 
L 69.090796 61.737165 
L 69.420642 61.304258 
L 69.742367 60.943502 
L 70.171184 60.7992 
L 70.303488 60.582747 
L 70.397728 60.366294 
L 70.824606 60.221991 
L 70.935235 60.005538 
L 71.365493 59.716934 
L 71.629576 59.428329 
L 73.018053 58.490365 
L 73.313654 58.201761 
L 73.586399 57.985307 
L 74.035441 57.408099 
L 75.012543 57.047343 
L 75.01716 56.975192 
L 75.389905 56.83089 
L 76.027908 56.18153 
L 76.880076 55.892926 
L 77.118756 55.676472 
L 77.127587 55.604321 
L 77.460388 55.460019 
L 77.712551 55.027112 
L 78.259739 54.738508 
L 78.261631 54.666357 
L 78.740734 54.305601 
L 78.867419 54.089148 
L 79.270537 53.728393 
L 79.453087 53.367637 
L 79.667594 53.151184 
L 79.949424 52.790428 
L 80.115129 52.501824 
L 80.115915 52.429673 
L 80.503786 52.21322 
L 81.084018 51.347406 
L 81.295948 51.203104 
L 81.373261 51.058802 
L 81.749412 50.625895 
L 81.869609 50.192989 
L 82.061979 49.976535 
L 82.133579 49.760082 
L 82.350506 49.543629 
L 82.35465 49.471478 
L 82.980634 49.255025 
L 83.114334 49.038571 
L 83.594801 48.894269 
L 83.719536 48.677816 
L 83.776699 48.605665 
L 84.106936 48.389211 
L 84.18719 48.244909 
L 84.440037 48.028456 
L 84.738744 47.523398 
L 85.111994 47.379096 
L 85.11372 47.306945 
L 85.385727 47.162643 
L 85.512397 47.01834 
L 85.92288 46.801887 
L 86.350752 46.152527 
L 86.492074 46.008225 
L 86.516691 45.936074 
L 86.900652 45.719621 
L 88.762735 44.060145 
L 88.785056 43.915843 
L 89.136959 43.771541 
L 89.270213 43.555088 
L 89.543 43.194332 
L 89.978308 42.977879 
L 90.491821 42.761426 
L 90.618074 42.544972 
L 91.186572 42.256368 
L 91.326308 41.967764 
L 91.680786 41.75131 
L 91.735276 41.679159 
L 92.002396 41.534857 
L 92.134778 41.246253 
L 92.552184 40.885497 
L 92.721564 40.524742 
L 92.987655 40.091835 
L 93.32653 39.803231 
L 93.795937 39.514626 
L 93.802973 39.442475 
L 94.070899 39.226022 
L 94.816763 38.648813 
L 95.156088 38.288058 
L 95.388004 37.927302 
L 95.578785 37.494395 
L 95.682935 37.13364 
L 95.918462 36.917187 
L 96.778401 36.195676 
L 96.9799 35.979222 
L 97.815804 35.041258 
L 97.845152 34.896956 
L 98.078472 34.680503 
L 98.089282 34.608352 
L 98.419398 34.319747 
L 98.507466 34.031143 
L 98.91112 33.814689 
L 99.084511 33.453934 
L 99.549788 33.237481 
L 100.390925 32.51597 
L 100.425787 32.371667 
L 100.84735 32.227365 
L 100.930207 32.010912 
L 100.996837 31.938761 
L 101.330447 31.794459 
L 101.455404 31.578005 
L 101.965731 30.856494 
L 105.996416 27.681846 
L 106.022417 27.537544 
L 106.55571 27.321091 
L 106.771291 27.104637 
L 106.949404 26.816033 
L 107.582284 26.671731 
L 107.890725 26.383126 
L 108.000396 26.166673 
L 108.23593 25.95022 
L 108.584022 25.517313 
L 108.624367 25.445162 
L 109.153345 25.228709 
L 109.314752 25.084407 
L 109.603821 24.940104 
L 109.717053 24.723651 
L 109.962065 24.507198 
L 111.044895 23.641385 
L 111.138242 23.497082 
L 111.181567 23.424931 
L 111.605219 23.208478 
L 111.855628 22.775571 
L 112.043608 22.559118 
L 112.072262 22.486967 
L 112.554825 22.198363 
L 112.829024 21.765456 
L 113.307144 21.549003 
L 113.520283 21.332549 
L 113.685413 21.188247 
L 114.860074 20.971794 
L 114.932869 20.827492 
L 115.242292 20.611038 
L 115.291025 20.538887 
L 115.8008 20.322434 
L 115.924653 20.105981 
L 117.151853 19.095865 
L 118.140493 18.807261 
L 118.20323 18.73511 
L 118.781944 18.518657 
L 118.866604 18.374354 
L 119.33142 18.157901 
L 119.454428 18.08575 
L 120.078033 17.941448 
L 120.611684 17.364239 
L 121.160955 17.147786 
L 122.052334 16.931332 
L 122.739766 16.78703 
L 122.774018 16.714879 
L 123.288538 16.498426 
L 123.302145 16.426275 
L 124.017144 16.13767 
L 124.211711 15.921217 
L 124.777437 15.776915 
L 126.169207 15.344008 
L 126.303952 15.271857 
L 128.017057 14.911102 
L 130.907589 13.612382 
L 131.58699 13.46808 
L 132.28803 13.035173 
L 133.22937 12.81872 
L 133.250636 12.746569 
L 133.929122 12.602266 
L 136.441195 12.385813 
L 136.701141 12.241511 
L 139.471313 11.952907 
L 141.243343 11.736453 
L 145.07322 11.52 
L 145.07322 11.52 
" clip-path="url(#p526c87eb09)" style="fill: none; stroke-dasharray: 2.96,1.28; stroke-dashoffset: 0; stroke: #dc0000; stroke-width: 0.8"/>
   </g>
   <g id="patch_3">
    <path d="M 35.32 69.96239 
L 35.32 11.52 
" style="fill: none; stroke: #000000; stroke-width: 0.5; stroke-linejoin: miter; stroke-linecap: square"/>
   </g>
   <g id="patch_4">
    <path d="M 155.136623 69.96239 
L 155.136623 11.52 
" style="fill: none; stroke: #000000; stroke-width: 0.5; stroke-linejoin: miter; stroke-linecap: square"/>
   </g>
   <g id="patch_5">
    <path d="M 35.32 69.96239 
L 155.136623 69.96239 
" style="fill: none; stroke: #000000; stroke-width: 0.5; stroke-linejoin: miter; stroke-linecap: square"/>
   </g>
   <g id="patch_6">
    <path d="M 35.32 11.52 
L 155.136623 11.52 
" style="fill: none; stroke: #000000; stroke-width: 0.5; stroke-linejoin: miter; stroke-linecap: square"/>
   </g>
  </g>
 </g>
 <defs>
  <clipPath id="p526c87eb09">
   <rect x="35.32" y="11.52" width="119.816623" height="58.44239"/>
  </clipPath>
 </defs>
</svg>
