<?xml version="1.0" encoding="utf-8" standalone="no"?>
<!DOCTYPE svg PUBLIC "-//W3C//DTD SVG 1.1//EN"
  "http://www.w3.org/Graphics/SVG/1.1/DTD/svg11.dtd">
<svg xmlns:xlink="http://www.w3.org/1999/xlink" width="170.07874pt" height="141.732283pt" viewBox="0 0 170.07874 141.732283" xmlns="http://www.w3.org/2000/svg" version="1.1">
 <metadata>
  <rdf:RDF xmlns:dc="http://purl.org/dc/elements/1.1/" xmlns:cc="http://creativecommons.org/ns#" xmlns:rdf="http://www.w3.org/1999/02/22-rdf-syntax-ns#">
   <cc:Work>
    <dc:type rdf:resource="http://purl.org/dc/dcmitype/StillImage"/>
    <dc:date>2025-01-06T16:45:20.619787</dc:date>
    <dc:format>image/svg+xml</dc:format>
    <dc:creator>
     <cc:Agent>
      <dc:title>Matplotlib v3.5.2, https://matplotlib.org/</dc:title>
     </cc:Agent>
    </dc:creator>
   </cc:Work>
  </rdf:RDF>
 </metadata>
 <defs>
  <style type="text/css">*{stroke-linejoin: round; stroke-linecap: butt}</style>
 </defs>
 <g id="figure_1">
  <g id="patch_1">
   <path d="M 0 141.732283 
L 170.07874 141.732283 
L 170.07874 0 
L 0 0 
z
" style="fill: #ffffff"/>
  </g>
  <g id="axes_1">
   <g id="patch_2">
    <path d="M 30.91 114.692283 
L 159.23374 114.692283 
L 159.23374 11.52 
L 30.91 11.52 
z
" style="fill: #ffffff"/>
   </g>
   <g id="PolyCollection_1">
    <defs>
     <path id="mded381204f" d="M 31.337746 -27.068694 
L 31.337746 -27.040319 
L 32.629625 -27.461368 
L 33.921503 -30.071117 
L 35.213382 -35.233729 
L 36.505261 -42.067406 
L 37.797139 -49.641934 
L 39.089018 -57.303451 
L 40.380897 -64.66109 
L 41.672776 -71.509547 
L 42.964654 -77.760806 
L 44.256533 -83.396371 
L 45.548412 -88.436584 
L 46.840291 -92.921755 
L 48.132169 -96.900889 
L 49.424048 -100.425172 
L 50.715927 -103.544356 
L 52.007805 -106.30489 
L 53.299684 -108.74909 
L 54.591563 -110.914909 
L 55.883442 -112.836034 
L 57.17532 -114.54217 
L 58.467199 -116.059391 
L 59.759078 -117.410521 
L 61.050957 -118.615503 
L 62.342835 -119.691756 
L 63.634714 -120.654484 
L 64.926593 -121.516965 
L 66.218472 -122.290802 
L 67.51035 -122.986142 
L 68.802229 -123.611867 
L 70.094108 -124.175764 
L 71.385986 -124.684665 
L 72.677865 -125.144575 
L 73.969744 -125.560779 
L 75.261623 -125.937935 
L 76.553501 -126.280151 
L 77.84538 -126.591062 
L 79.137259 -126.873884 
L 80.429138 -127.131466 
L 81.721016 -127.36634 
L 83.012895 -127.580757 
L 84.304774 -127.776718 
L 85.596652 -127.956011 
L 86.888531 -128.120229 
L 88.18041 -128.270797 
L 89.472289 -128.408991 
L 90.764167 -128.535956 
L 92.056046 -128.652716 
L 93.347925 -128.760195 
L 94.639804 -128.859223 
L 95.931682 -128.950545 
L 97.223561 -129.034838 
L 98.51544 -129.112708 
L 99.807319 -129.184707 
L 101.099197 -129.251331 
L 102.391076 -129.313032 
L 103.682955 -129.370219 
L 104.974833 -129.423263 
L 106.266712 -129.472501 
L 107.558591 -129.518241 
L 108.85047 -129.56076 
L 110.142348 -129.600315 
L 111.434227 -129.637136 
L 112.726106 -129.671437 
L 114.017985 -129.703411 
L 115.309863 -129.733235 
L 116.601742 -129.761072 
L 117.893621 -129.78707 
L 119.1855 -129.811365 
L 120.477378 -129.834083 
L 121.769257 -129.855338 
L 123.061136 -129.875237 
L 124.353014 -129.893876 
L 125.644893 -129.911344 
L 126.936772 -129.927725 
L 128.228651 -129.943094 
L 129.520529 -129.957521 
L 130.812408 -129.97107 
L 132.104287 -129.983803 
L 133.396166 -129.995773 
L 134.688044 -130.007032 
L 135.979923 -130.017627 
L 137.271802 -130.027603 
L 138.56368 -130.036999 
L 139.855559 -130.045854 
L 141.147438 -130.054202 
L 142.439317 -130.062075 
L 143.731195 -130.069505 
L 145.023074 -130.076519 
L 146.314953 -130.083142 
L 147.606832 -130.0894 
L 148.89871 -130.095315 
L 150.190589 -130.100908 
L 151.482468 -130.106198 
L 152.774347 -130.111204 
L 154.066225 -130.115944 
L 155.358104 -130.120431 
L 156.649983 -130.124683 
L 157.941861 -130.128712 
L 159.23374 -130.132532 
L 159.23374 -130.210374 
L 159.23374 -130.210374 
L 157.941861 -130.21026 
L 156.649983 -130.210137 
L 155.358104 -130.210006 
L 154.066225 -130.209866 
L 152.774347 -130.209717 
L 151.482468 -130.209557 
L 150.190589 -130.209385 
L 148.89871 -130.209202 
L 147.606832 -130.209005 
L 146.314953 -130.208794 
L 145.023074 -130.208568 
L 143.731195 -130.208325 
L 142.439317 -130.208063 
L 141.147438 -130.207783 
L 139.855559 -130.207481 
L 138.56368 -130.207156 
L 137.271802 -130.206806 
L 135.979923 -130.206429 
L 134.688044 -130.206023 
L 133.396166 -130.205584 
L 132.104287 -130.20511 
L 130.812408 -130.204599 
L 129.520529 -130.204046 
L 128.228651 -130.203447 
L 126.936772 -130.202799 
L 125.644893 -130.202097 
L 124.353014 -130.201335 
L 123.061136 -130.200508 
L 121.769257 -130.19961 
L 120.477378 -130.198634 
L 119.1855 -130.197572 
L 117.893621 -130.196416 
L 116.601742 -130.195156 
L 115.309863 -130.193781 
L 114.017985 -130.19228 
L 112.726106 -130.190639 
L 111.434227 -130.188845 
L 110.142348 -130.186879 
L 108.85047 -130.184725 
L 107.558591 -130.182362 
L 106.266712 -130.179765 
L 104.974833 -130.17691 
L 103.682955 -130.173766 
L 102.391076 -130.170302 
L 101.099197 -130.166479 
L 99.807319 -130.162255 
L 98.51544 -130.157583 
L 97.223561 -130.152407 
L 95.931682 -130.146667 
L 94.639804 -130.140292 
L 93.347925 -130.133201 
L 92.056046 -130.125303 
L 90.764167 -130.116494 
L 89.472289 -130.106651 
L 88.18041 -130.095637 
L 86.888531 -130.083292 
L 85.596652 -130.069432 
L 84.304774 -130.053843 
L 83.012895 -130.036277 
L 81.721016 -130.016446 
L 80.429138 -129.994015 
L 79.137259 -129.968591 
L 77.84538 -129.939713 
L 76.553501 -129.906842 
L 75.261623 -129.869338 
L 73.969744 -129.826449 
L 72.677865 -129.77728 
L 71.385986 -129.720766 
L 70.094108 -129.655638 
L 68.802229 -129.580371 
L 67.51035 -129.493133 
L 66.218472 -129.391711 
L 64.926593 -129.273423 
L 63.634714 -129.135002 
L 62.342835 -128.972449 
L 61.050957 -128.780855 
L 59.759078 -128.554154 
L 58.467199 -128.284819 
L 57.17532 -127.963455 
L 55.883442 -127.578275 
L 54.591563 -127.1144 
L 53.299684 -126.552933 
L 52.007805 -125.86973 
L 50.715927 -125.033729 
L 49.424048 -124.004715 
L 48.132169 -122.730265 
L 46.840291 -121.141602 
L 45.548412 -119.147944 
L 44.256533 -116.628858 
L 42.964654 -113.424078 
L 41.672776 -109.320459 
L 40.380897 -104.036709 
L 39.089018 -97.209786 
L 37.797139 -88.396463 
L 36.505261 -77.131205 
L 35.213382 -63.159277 
L 33.921503 -47.167314 
L 32.629625 -32.651366 
L 31.337746 -27.068694 
z
" style="stroke: #808080; stroke-opacity: 0.6"/>
    </defs>
    <g clip-path="url(#pa54996d006)">
     <use xlink:href="#mded381204f" x="0" y="141.732283" style="fill: #808080; fill-opacity: 0.6; stroke: #808080; stroke-opacity: 0.6"/>
    </g>
   </g>
   <g id="PolyCollection_2">
    <defs>
     <path id="m8d4c967bd1" d="M 31.337746 -27.040186 
L 31.337746 -27.040003 
L 32.629625 -27.060589 
L 33.921503 -27.315591 
L 35.213382 -28.132965 
L 36.505261 -29.674491 
L 37.797139 -31.9266 
L 39.089018 -34.781022 
L 40.380897 -38.097176 
L 41.672776 -41.736189 
L 42.964654 -45.575976 
L 44.256533 -49.515971 
L 45.548412 -53.476845 
L 46.840291 -57.398102 
L 48.132169 -61.235036 
L 49.424048 -64.955727 
L 50.715927 -68.538369 
L 52.007805 -71.969013 
L 53.299684 -75.23973 
L 54.591563 -78.347128 
L 55.883442 -81.291188 
L 57.17532 -84.074357 
L 58.467199 -86.700836 
L 59.759078 -89.176037 
L 61.050957 -91.506174 
L 62.342835 -93.69794 
L 63.634714 -95.758278 
L 64.926593 -97.6942 
L 66.218472 -99.512662 
L 67.51035 -101.220469 
L 68.802229 -102.824214 
L 70.094108 -104.330229 
L 71.385986 -105.744562 
L 72.677865 -107.072958 
L 73.969744 -108.320857 
L 75.261623 -109.493387 
L 76.553501 -110.595379 
L 77.84538 -111.631364 
L 79.137259 -112.605594 
L 80.429138 -113.522048 
L 81.721016 -114.384448 
L 83.012895 -115.196271 
L 84.304774 -115.960765 
L 85.596652 -116.68096 
L 86.888531 -117.359684 
L 88.18041 -117.999576 
L 89.472289 -118.603094 
L 90.764167 -119.172532 
L 92.056046 -119.71003 
L 93.347925 -120.217582 
L 94.639804 -120.697049 
L 95.931682 -121.150166 
L 97.223561 -121.578551 
L 98.51544 -121.983717 
L 99.807319 -122.367072 
L 101.099197 -122.729935 
L 102.391076 -123.073533 
L 103.682955 -123.399016 
L 104.974833 -123.707458 
L 106.266712 -123.999862 
L 107.558591 -124.277166 
L 108.85047 -124.540249 
L 110.142348 -124.789932 
L 111.434227 -125.026985 
L 112.726106 -125.252126 
L 114.017985 -125.466033 
L 115.309863 -125.669336 
L 116.601742 -125.86263 
L 117.893621 -126.04647 
L 119.1855 -126.221379 
L 120.477378 -126.387847 
L 121.769257 -126.546333 
L 123.061136 -126.69727 
L 124.353014 -126.841064 
L 125.644893 -126.978098 
L 126.936772 -127.10873 
L 128.228651 -127.233299 
L 129.520529 -127.352122 
L 130.812408 -127.4655 
L 132.104287 -127.573713 
L 133.396166 -127.677029 
L 134.688044 -127.775698 
L 135.979923 -127.869956 
L 137.271802 -127.960027 
L 138.56368 -128.046119 
L 139.855559 -128.128433 
L 141.147438 -128.207156 
L 142.439317 -128.282464 
L 143.731195 -128.354526 
L 145.023074 -128.423499 
L 146.314953 -128.489534 
L 147.606832 -128.552771 
L 148.89871 -128.613345 
L 150.190589 -128.671382 
L 151.482468 -128.727003 
L 152.774347 -128.780321 
L 154.066225 -128.831444 
L 155.358104 -128.880475 
L 156.649983 -128.92751 
L 157.941861 -128.97264 
L 159.23374 -129.015953 
L 159.23374 -130.045528 
L 159.23374 -130.045528 
L 157.941861 -130.038139 
L 156.649983 -130.030372 
L 155.358104 -130.022207 
L 154.066225 -130.013619 
L 152.774347 -130.004584 
L 151.482468 -129.995076 
L 150.190589 -129.985065 
L 148.89871 -129.974522 
L 147.606832 -129.963414 
L 146.314953 -129.951707 
L 145.023074 -129.939365 
L 143.731195 -129.926347 
L 142.439317 -129.912612 
L 141.147438 -129.898114 
L 139.855559 -129.882805 
L 138.56368 -129.866634 
L 137.271802 -129.849544 
L 135.979923 -129.831476 
L 134.688044 -129.812367 
L 133.396166 -129.792147 
L 132.104287 -129.770743 
L 130.812408 -129.748076 
L 129.520529 -129.724059 
L 128.228651 -129.698601 
L 126.936772 -129.671604 
L 125.644893 -129.64296 
L 124.353014 -129.612554 
L 123.061136 -129.580262 
L 121.769257 -129.545951 
L 120.477378 -129.509475 
L 119.1855 -129.470677 
L 117.893621 -129.429388 
L 116.601742 -129.385425 
L 115.309863 -129.338588 
L 114.017985 -129.288663 
L 112.726106 -129.235414 
L 111.434227 -129.178587 
L 110.142348 -129.117907 
L 108.85047 -129.053072 
L 107.558591 -128.983757 
L 106.266712 -128.909603 
L 104.974833 -128.830223 
L 103.682955 -128.745192 
L 102.391076 -128.654048 
L 101.099197 -128.556283 
L 99.807319 -128.451344 
L 98.51544 -128.338624 
L 97.223561 -128.217458 
L 95.931682 -128.087116 
L 94.639804 -127.946796 
L 93.347925 -127.795616 
L 92.056046 -127.632609 
L 90.764167 -127.456703 
L 89.472289 -127.266723 
L 88.18041 -127.061367 
L 86.888531 -126.839199 
L 85.596652 -126.598628 
L 84.304774 -126.337894 
L 83.012895 -126.055045 
L 81.721016 -125.747916 
L 80.429138 -125.414098 
L 79.137259 -125.050914 
L 77.84538 -124.655381 
L 76.553501 -124.224176 
L 75.261623 -123.753586 
L 73.969744 -123.239466 
L 72.677865 -122.677176 
L 71.385986 -122.061522 
L 70.094108 -121.386681 
L 68.802229 -120.646122 
L 67.51035 -119.832507 
L 66.218472 -118.937595 
L 64.926593 -117.952115 
L 63.634714 -116.86564 
L 62.342835 -115.666439 
L 61.050957 -114.341313 
L 59.759078 -112.875423 
L 58.467199 -111.252103 
L 57.17532 -109.452666 
L 55.883442 -107.456222 
L 54.591563 -105.239506 
L 53.299684 -102.776767 
L 52.007805 -100.039734 
L 50.715927 -96.997761 
L 49.424048 -93.61822 
L 48.132169 -89.867342 
L 46.840291 -85.711741 
L 45.548412 -81.121025 
L 44.256533 -76.072093 
L 42.964654 -70.556026 
L 41.672776 -64.588903 
L 40.380897 -58.228409 
L 39.089018 -51.598542 
L 37.797139 -44.924334 
L 36.505261 -38.574693 
L 35.213382 -33.09638 
L 33.921503 -29.173145 
L 32.629625 -27.316642 
L 31.337746 -27.040186 
z
" style="stroke: #808080; stroke-opacity: 0.5"/>
    </defs>
    <g clip-path="url(#pa54996d006)">
     <use xlink:href="#m8d4c967bd1" x="0" y="141.732283" style="fill: #808080; fill-opacity: 0.5; stroke: #808080; stroke-opacity: 0.5"/>
    </g>
   </g>
   <g id="PolyCollection_3">
    <defs>
     <path id="me3dc68f23f" d="M 31.337746 -27.040005 
L 31.337746 -27.04 
L 32.629625 -27.042482 
L 33.921503 -27.088206 
L 35.213382 -27.281217 
L 36.505261 -27.727688 
L 37.797139 -28.493274 
L 39.089018 -29.599665 
L 40.380897 -31.035828 
L 41.672776 -32.770628 
L 42.964654 -34.762727 
L 44.256533 -36.9673 
L 45.548412 -39.340214 
L 46.840291 -41.840379 
L 48.132169 -44.430926 
L 49.424048 -47.079624 
L 50.715927 -49.758859 
L 52.007805 -52.445361 
L 53.299684 -55.119808 
L 54.591563 -57.766386 
L 55.883442 -60.372335 
L 57.17532 -62.927535 
L 58.467199 -65.424111 
L 59.759078 -67.856092 
L 61.050957 -70.219101 
L 62.342835 -72.510095 
L 63.634714 -74.727135 
L 64.926593 -76.86919 
L 66.218472 -78.935972 
L 67.51035 -80.927796 
L 68.802229 -82.84546 
L 70.094108 -84.690147 
L 71.385986 -86.463342 
L 72.677865 -88.166758 
L 73.969744 -89.802287 
L 75.261623 -91.371941 
L 76.553501 -92.877823 
L 77.84538 -94.322086 
L 79.137259 -95.706913 
L 80.429138 -97.034489 
L 81.721016 -98.306989 
L 83.012895 -99.526561 
L 84.304774 -100.695317 
L 85.596652 -101.815321 
L 86.888531 -102.888586 
L 88.18041 -103.917069 
L 89.472289 -104.902664 
L 90.764167 -105.847202 
L 92.056046 -106.752452 
L 93.347925 -107.620116 
L 94.639804 -108.45183 
L 95.931682 -109.249166 
L 97.223561 -110.013634 
L 98.51544 -110.746678 
L 99.807319 -111.449685 
L 101.099197 -112.123979 
L 102.391076 -112.770827 
L 103.682955 -113.391442 
L 104.974833 -113.986981 
L 106.266712 -114.55855 
L 107.558591 -115.107205 
L 108.85047 -115.633953 
L 110.142348 -116.139757 
L 111.434227 -116.625534 
L 112.726106 -117.09216 
L 114.017985 -117.540469 
L 115.309863 -117.971259 
L 116.601742 -118.385289 
L 117.893621 -118.783283 
L 119.1855 -119.165934 
L 120.477378 -119.5339 
L 121.769257 -119.887809 
L 123.061136 -120.228262 
L 124.353014 -120.55583 
L 125.644893 -120.871059 
L 126.936772 -121.174469 
L 128.228651 -121.466557 
L 129.520529 -121.747797 
L 130.812408 -122.018641 
L 132.104287 -122.27952 
L 133.396166 -122.530848 
L 134.688044 -122.773016 
L 135.979923 -123.006401 
L 137.271802 -123.231361 
L 138.56368 -123.448239 
L 139.855559 -123.657362 
L 141.147438 -123.859042 
L 142.439317 -124.053578 
L 143.731195 -124.241256 
L 145.023074 -124.422348 
L 146.314953 -124.597116 
L 147.606832 -124.765808 
L 148.89871 -124.928664 
L 150.190589 -125.085911 
L 151.482468 -125.237768 
L 152.774347 -125.384443 
L 154.066225 -125.526137 
L 155.358104 -125.663041 
L 156.649983 -125.795337 
L 157.941861 -125.923202 
L 159.23374 -126.046803 
L 159.23374 -128.964282 
L 159.23374 -128.964282 
L 157.941861 -128.919997 
L 156.649983 -128.873885 
L 155.358104 -128.825859 
L 154.066225 -128.775827 
L 152.774347 -128.723694 
L 151.482468 -128.669358 
L 150.190589 -128.612713 
L 148.89871 -128.553646 
L 147.606832 -128.492038 
L 146.314953 -128.427765 
L 145.023074 -128.360692 
L 143.731195 -128.290681 
L 142.439317 -128.217584 
L 141.147438 -128.141244 
L 139.855559 -128.061497 
L 138.56368 -127.978167 
L 137.271802 -127.89107 
L 135.979923 -127.80001 
L 134.688044 -127.704779 
L 133.396166 -127.60516 
L 132.104287 -127.500918 
L 130.812408 -127.391808 
L 129.520529 -127.277568 
L 128.228651 -127.157922 
L 126.936772 -127.032574 
L 125.644893 -126.901213 
L 124.353014 -126.763508 
L 123.061136 -126.619105 
L 121.769257 -126.467631 
L 120.477378 -126.308688 
L 119.1855 -126.141852 
L 117.893621 -125.966673 
L 116.601742 -125.782671 
L 115.309863 -125.589337 
L 114.017985 -125.386125 
L 112.726106 -125.172456 
L 111.434227 -124.947713 
L 110.142348 -124.711236 
L 108.85047 -124.462322 
L 107.558591 -124.200221 
L 106.266712 -123.924129 
L 104.974833 -123.633192 
L 103.682955 -123.326494 
L 102.391076 -123.003056 
L 101.099197 -122.661833 
L 99.807319 -122.301704 
L 98.51544 -121.921472 
L 97.223561 -121.519854 
L 95.931682 -121.095476 
L 94.639804 -120.646867 
L 93.347925 -120.17245 
L 92.056046 -119.670534 
L 90.764167 -119.139308 
L 89.472289 -118.576829 
L 88.18041 -117.981013 
L 86.888531 -117.349624 
L 85.596652 -116.680266 
L 84.304774 -115.970367 
L 83.012895 -115.217169 
L 81.721016 -114.417714 
L 80.429138 -113.568832 
L 79.137259 -112.667127 
L 77.84538 -111.708957 
L 76.553501 -110.690431 
L 75.261623 -109.607382 
L 73.969744 -108.455364 
L 72.677865 -107.229635 
L 71.385986 -105.925144 
L 70.094108 -104.53653 
L 68.802229 -103.058114 
L 67.51035 -101.483902 
L 66.218472 -99.807596 
L 64.926593 -98.022616 
L 63.634714 -96.122135 
L 62.342835 -94.099134 
L 61.050957 -91.94648 
L 59.759078 -89.657044 
L 58.467199 -87.223856 
L 57.17532 -84.640321 
L 55.883442 -81.900505 
L 54.591563 -78.999521 
L 53.299684 -75.934039 
L 52.007805 -72.702951 
L 50.715927 -69.308238 
L 49.424048 -65.756096 
L 48.132169 -62.058374 
L 46.840291 -58.234397 
L 45.548412 -54.31323 
L 44.256533 -50.33643 
L 42.964654 -46.361235 
L 41.672776 -42.46399 
L 40.380897 -38.743229 
L 39.089018 -35.321079 
L 37.797139 -32.340255 
L 36.505261 -29.951248 
L 35.213382 -28.280352 
L 33.921503 -27.366077 
L 32.629625 -27.066348 
L 31.337746 -27.040005 
z
" style="stroke: #808080; stroke-opacity: 0.4"/>
    </defs>
    <g clip-path="url(#pa54996d006)">
     <use xlink:href="#me3dc68f23f" x="0" y="141.732283" style="fill: #808080; fill-opacity: 0.4; stroke: #808080; stroke-opacity: 0.4"/>
    </g>
   </g>
   <g id="PolyCollection_4">
    <defs>
     <path id="m78ac2c3ab1" d="M 31.337746 -27.04 
L 31.337746 -27.04 
L 32.629625 -27.040472 
L 33.921503 -27.051972 
L 35.213382 -27.110828 
L 36.505261 -27.268005 
L 37.797139 -27.569783 
L 39.089018 -28.048294 
L 40.380897 -28.720163 
L 41.672776 -29.588842 
L 42.964654 -30.64797 
L 44.256533 -31.884559 
L 45.548412 -33.281597 
L 46.840291 -34.820014 
L 48.132169 -36.480083 
L 49.424048 -38.242375 
L 50.715927 -40.088373 
L 52.007805 -42.000843 
L 53.299684 -43.964027 
L 54.591563 -45.963719 
L 55.883442 -47.987261 
L 57.17532 -50.023484 
L 58.467199 -52.062619 
L 59.759078 -54.096196 
L 61.050957 -56.116929 
L 62.342835 -58.1186 
L 63.634714 -60.095954 
L 64.926593 -62.04459 
L 66.218472 -63.960865 
L 67.51035 -65.841805 
L 68.802229 -67.68502 
L 70.094108 -69.488636 
L 71.385986 -71.251224 
L 72.677865 -72.971745 
L 73.969744 -74.649492 
L 75.261623 -76.28405 
L 76.553501 -77.875249 
L 77.84538 -79.423132 
L 79.137259 -80.927921 
L 80.429138 -82.389989 
L 81.721016 -83.809838 
L 83.012895 -85.188075 
L 84.304774 -86.525391 
L 85.596652 -87.822553 
L 86.888531 -89.080382 
L 88.18041 -90.299743 
L 89.472289 -91.481536 
L 90.764167 -92.626686 
L 92.056046 -93.736133 
L 93.347925 -94.810831 
L 94.639804 -95.851734 
L 95.931682 -96.859798 
L 97.223561 -97.835974 
L 98.51544 -98.781206 
L 99.807319 -99.696423 
L 101.099197 -100.582546 
L 102.391076 -101.440474 
L 103.682955 -102.271095 
L 104.974833 -103.075275 
L 106.266712 -103.85386 
L 107.558591 -104.607678 
L 108.85047 -105.337534 
L 110.142348 -106.044213 
L 111.434227 -106.728477 
L 112.726106 -107.391069 
L 114.017985 -108.032708 
L 115.309863 -108.654092 
L 116.601742 -109.255898 
L 117.893621 -109.838781 
L 119.1855 -110.403377 
L 120.477378 -110.950301 
L 121.769257 -111.480146 
L 123.061136 -111.993489 
L 124.353014 -112.490884 
L 125.644893 -112.972869 
L 126.936772 -113.439964 
L 128.228651 -113.892669 
L 129.520529 -114.331469 
L 130.812408 -114.756831 
L 132.104287 -115.169206 
L 133.396166 -115.569031 
L 134.688044 -115.956726 
L 135.979923 -116.332696 
L 137.271802 -116.697333 
L 138.56368 -117.051015 
L 139.855559 -117.394106 
L 141.147438 -117.726958 
L 142.439317 -118.04991 
L 143.731195 -118.363289 
L 145.023074 -118.667412 
L 146.314953 -118.962582 
L 147.606832 -119.249093 
L 148.89871 -119.52723 
L 150.190589 -119.797264 
L 151.482468 -120.059461 
L 152.774347 -120.314074 
L 154.066225 -120.56135 
L 155.358104 -120.801524 
L 156.649983 -121.034826 
L 157.941861 -121.261476 
L 159.23374 -121.481687 
L 159.23374 -126.202653 
L 159.23374 -126.202653 
L 157.941861 -126.084519 
L 156.649983 -125.962322 
L 155.358104 -125.835901 
L 154.066225 -125.705088 
L 152.774347 -125.569709 
L 151.482468 -125.42958 
L 150.190589 -125.284512 
L 148.89871 -125.134304 
L 147.606832 -124.978747 
L 146.314953 -124.817624 
L 145.023074 -124.650707 
L 143.731195 -124.477756 
L 142.439317 -124.298522 
L 141.147438 -124.112744 
L 139.855559 -123.920147 
L 138.56368 -123.720447 
L 137.271802 -123.513343 
L 135.979923 -123.298521 
L 134.688044 -123.075653 
L 133.396166 -122.844394 
L 132.104287 -122.604383 
L 130.812408 -122.355242 
L 129.520529 -122.096575 
L 128.228651 -121.827967 
L 126.936772 -121.548981 
L 125.644893 -121.259162 
L 124.353014 -120.958029 
L 123.061136 -120.645082 
L 121.769257 -120.319792 
L 120.477378 -119.981607 
L 119.1855 -119.629946 
L 117.893621 -119.264201 
L 116.601742 -118.883733 
L 115.309863 -118.487872 
L 114.017985 -118.075912 
L 112.726106 -117.647117 
L 111.434227 -117.200709 
L 110.142348 -116.735876 
L 108.85047 -116.251762 
L 107.558591 -115.74747 
L 106.266712 -115.22206 
L 104.974833 -114.674544 
L 103.682955 -114.103884 
L 102.391076 -113.508994 
L 101.099197 -112.888733 
L 99.807319 -112.241906 
L 98.51544 -111.567257 
L 97.223561 -110.863475 
L 95.931682 -110.129182 
L 94.639804 -109.36294 
L 93.347925 -108.563241 
L 92.056046 -107.728512 
L 90.764167 -106.857107 
L 89.472289 -105.947312 
L 88.18041 -104.997339 
L 86.888531 -104.005328 
L 85.596652 -102.969345 
L 84.304774 -101.887388 
L 83.012895 -100.757382 
L 81.721016 -99.577187 
L 80.429138 -98.344602 
L 79.137259 -97.05737 
L 77.84538 -95.713185 
L 76.553501 -94.309709 
L 75.261623 -92.844578 
L 73.969744 -91.315428 
L 72.677865 -89.719913 
L 71.385986 -88.055735 
L 70.094108 -86.320677 
L 68.802229 -84.51265 
L 67.51035 -82.629741 
L 66.218472 -80.670281 
L 64.926593 -78.632917 
L 63.634714 -76.516712 
L 62.342835 -74.321253 
L 61.050957 -72.04679 
L 59.759078 -69.694393 
L 58.467199 -67.26615 
L 57.17532 -64.765392 
L 55.883442 -62.196967 
L 54.591563 -59.56755 
L 53.299684 -56.886015 
L 52.007805 -54.163853 
L 50.715927 -51.415646 
L 49.424048 -48.659584 
L 48.132169 -45.918017 
L 46.840291 -43.217996 
L 45.548412 -40.591742 
L 44.256533 -38.076931 
L 42.964654 -35.7166 
L 41.672776 -33.558378 
L 40.380897 -31.652553 
L 39.089018 -30.048255 
L 37.797139 -28.786804 
L 36.505261 -27.891109 
L 35.213382 -27.350778 
L 33.921503 -27.105973 
L 32.629625 -27.043785 
L 31.337746 -27.04 
z
" style="stroke: #808080; stroke-opacity: 0.3"/>
    </defs>
    <g clip-path="url(#pa54996d006)">
     <use xlink:href="#m78ac2c3ab1" x="0" y="141.732283" style="fill: #808080; fill-opacity: 0.3; stroke: #808080; stroke-opacity: 0.3"/>
    </g>
   </g>
   <g id="matplotlib.axis_1">
    <g id="xtick_1">
     <g id="line2d_1">
      <defs>
       <path id="m799678c84f" d="M 0 0 
L 0 -5 
" style="stroke: #000000; stroke-width: 0.5"/>
      </defs>
      <g>
       <use xlink:href="#m799678c84f" x="30.91" y="114.692283" style="fill-opacity: 0; stroke: #000000; stroke-width: 0.5"/>
      </g>
     </g>
     <g id="text_1">
      <!-- 0 -->
      <g transform="translate(28.685625 122.418533)scale(0.08 -0.08)">
       <defs>
        <path id="ArialMT-30" d="M 266 2259 
Q 266 3072 433 3567 
Q 600 4063 929 4331 
Q 1259 4600 1759 4600 
Q 2128 4600 2406 4451 
Q 2684 4303 2865 4023 
Q 3047 3744 3150 3342 
Q 3253 2941 3253 2259 
Q 3253 1453 3087 958 
Q 2922 463 2592 192 
Q 2263 -78 1759 -78 
Q 1097 -78 719 397 
Q 266 969 266 2259 
z
M 844 2259 
Q 844 1131 1108 757 
Q 1372 384 1759 384 
Q 2147 384 2411 759 
Q 2675 1134 2675 2259 
Q 2675 3391 2411 3762 
Q 2147 4134 1753 4134 
Q 1366 4134 1134 3806 
Q 844 3388 844 2259 
z
" transform="scale(0.015625)"/>
       </defs>
       <use xlink:href="#ArialMT-30"/>
      </g>
     </g>
    </g>
    <g id="xtick_2">
     <g id="line2d_2">
      <g>
       <use xlink:href="#m799678c84f" x="73.68458" y="114.692283" style="fill-opacity: 0; stroke: #000000; stroke-width: 0.5"/>
      </g>
     </g>
     <g id="text_2">
      <!-- 1 -->
      <g transform="translate(71.460205 122.418533)scale(0.08 -0.08)">
       <defs>
        <path id="ArialMT-31" d="M 2384 0 
L 1822 0 
L 1822 3584 
Q 1619 3391 1289 3197 
Q 959 3003 697 2906 
L 697 3450 
Q 1169 3672 1522 3987 
Q 1875 4303 2022 4600 
L 2384 4600 
L 2384 0 
z
" transform="scale(0.015625)"/>
       </defs>
       <use xlink:href="#ArialMT-31"/>
      </g>
     </g>
    </g>
    <g id="xtick_3">
     <g id="line2d_3">
      <g>
       <use xlink:href="#m799678c84f" x="116.45916" y="114.692283" style="fill-opacity: 0; stroke: #000000; stroke-width: 0.5"/>
      </g>
     </g>
     <g id="text_3">
      <!-- 2 -->
      <g transform="translate(114.234785 122.418533)scale(0.08 -0.08)">
       <defs>
        <path id="ArialMT-32" d="M 3222 541 
L 3222 0 
L 194 0 
Q 188 203 259 391 
Q 375 700 629 1000 
Q 884 1300 1366 1694 
Q 2113 2306 2375 2664 
Q 2638 3022 2638 3341 
Q 2638 3675 2398 3904 
Q 2159 4134 1775 4134 
Q 1369 4134 1125 3890 
Q 881 3647 878 3216 
L 300 3275 
Q 359 3922 746 4261 
Q 1134 4600 1788 4600 
Q 2447 4600 2831 4234 
Q 3216 3869 3216 3328 
Q 3216 3053 3103 2787 
Q 2991 2522 2730 2228 
Q 2469 1934 1863 1422 
Q 1356 997 1212 845 
Q 1069 694 975 541 
L 3222 541 
z
" transform="scale(0.015625)"/>
       </defs>
       <use xlink:href="#ArialMT-32"/>
      </g>
     </g>
    </g>
    <g id="xtick_4">
     <g id="line2d_4">
      <g>
       <use xlink:href="#m799678c84f" x="159.23374" y="114.692283" style="fill-opacity: 0; stroke: #000000; stroke-width: 0.5"/>
      </g>
     </g>
     <g id="text_4">
      <!-- 3 -->
      <g transform="translate(157.009365 122.418533)scale(0.08 -0.08)">
       <defs>
        <path id="ArialMT-33" d="M 269 1209 
L 831 1284 
Q 928 806 1161 595 
Q 1394 384 1728 384 
Q 2125 384 2398 659 
Q 2672 934 2672 1341 
Q 2672 1728 2419 1979 
Q 2166 2231 1775 2231 
Q 1616 2231 1378 2169 
L 1441 2663 
Q 1497 2656 1531 2656 
Q 1891 2656 2178 2843 
Q 2466 3031 2466 3422 
Q 2466 3731 2256 3934 
Q 2047 4138 1716 4138 
Q 1388 4138 1169 3931 
Q 950 3725 888 3313 
L 325 3413 
Q 428 3978 793 4289 
Q 1159 4600 1703 4600 
Q 2078 4600 2393 4439 
Q 2709 4278 2876 4000 
Q 3044 3722 3044 3409 
Q 3044 3113 2884 2869 
Q 2725 2625 2413 2481 
Q 2819 2388 3044 2092 
Q 3269 1797 3269 1353 
Q 3269 753 2831 336 
Q 2394 -81 1725 -81 
Q 1122 -81 723 278 
Q 325 638 269 1209 
z
" transform="scale(0.015625)"/>
       </defs>
       <use xlink:href="#ArialMT-33"/>
      </g>
     </g>
    </g>
    <g id="xtick_5">
     <g id="line2d_5">
      <defs>
       <path id="mc176801922" d="M 0 0 
L 0 -3 
" style="stroke: #000000; stroke-width: 0.5"/>
      </defs>
      <g>
       <use xlink:href="#mc176801922" x="39.464916" y="114.692283" style="fill-opacity: 0; stroke: #000000; stroke-width: 0.5"/>
      </g>
     </g>
    </g>
    <g id="xtick_6">
     <g id="line2d_6">
      <g>
       <use xlink:href="#mc176801922" x="48.019832" y="114.692283" style="fill-opacity: 0; stroke: #000000; stroke-width: 0.5"/>
      </g>
     </g>
    </g>
    <g id="xtick_7">
     <g id="line2d_7">
      <g>
       <use xlink:href="#mc176801922" x="56.574748" y="114.692283" style="fill-opacity: 0; stroke: #000000; stroke-width: 0.5"/>
      </g>
     </g>
    </g>
    <g id="xtick_8">
     <g id="line2d_8">
      <g>
       <use xlink:href="#mc176801922" x="65.129664" y="114.692283" style="fill-opacity: 0; stroke: #000000; stroke-width: 0.5"/>
      </g>
     </g>
    </g>
    <g id="xtick_9">
     <g id="line2d_9">
      <g>
       <use xlink:href="#mc176801922" x="82.239496" y="114.692283" style="fill-opacity: 0; stroke: #000000; stroke-width: 0.5"/>
      </g>
     </g>
    </g>
    <g id="xtick_10">
     <g id="line2d_10">
      <g>
       <use xlink:href="#mc176801922" x="90.794412" y="114.692283" style="fill-opacity: 0; stroke: #000000; stroke-width: 0.5"/>
      </g>
     </g>
    </g>
    <g id="xtick_11">
     <g id="line2d_11">
      <g>
       <use xlink:href="#mc176801922" x="99.349328" y="114.692283" style="fill-opacity: 0; stroke: #000000; stroke-width: 0.5"/>
      </g>
     </g>
    </g>
    <g id="xtick_12">
     <g id="line2d_12">
      <g>
       <use xlink:href="#mc176801922" x="107.904244" y="114.692283" style="fill-opacity: 0; stroke: #000000; stroke-width: 0.5"/>
      </g>
     </g>
    </g>
    <g id="xtick_13">
     <g id="line2d_13">
      <g>
       <use xlink:href="#mc176801922" x="125.014076" y="114.692283" style="fill-opacity: 0; stroke: #000000; stroke-width: 0.5"/>
      </g>
     </g>
    </g>
    <g id="xtick_14">
     <g id="line2d_14">
      <g>
       <use xlink:href="#mc176801922" x="133.568992" y="114.692283" style="fill-opacity: 0; stroke: #000000; stroke-width: 0.5"/>
      </g>
     </g>
    </g>
    <g id="xtick_15">
     <g id="line2d_15">
      <g>
       <use xlink:href="#mc176801922" x="142.123908" y="114.692283" style="fill-opacity: 0; stroke: #000000; stroke-width: 0.5"/>
      </g>
     </g>
    </g>
    <g id="xtick_16">
     <g id="line2d_16">
      <g>
       <use xlink:href="#mc176801922" x="150.678824" y="114.692283" style="fill-opacity: 0; stroke: #000000; stroke-width: 0.5"/>
      </g>
     </g>
    </g>
    <g id="text_5">
     <!-- PGA [g] -->
     <g transform="translate(81.286245 131.832283)scale(0.08 -0.08)">
      <defs>
       <path id="ArialMT-50" d="M 494 0 
L 494 4581 
L 2222 4581 
Q 2678 4581 2919 4538 
Q 3256 4481 3484 4323 
Q 3713 4166 3852 3881 
Q 3991 3597 3991 3256 
Q 3991 2672 3619 2267 
Q 3247 1863 2275 1863 
L 1100 1863 
L 1100 0 
L 494 0 
z
M 1100 2403 
L 2284 2403 
Q 2872 2403 3119 2622 
Q 3366 2841 3366 3238 
Q 3366 3525 3220 3729 
Q 3075 3934 2838 4000 
Q 2684 4041 2272 4041 
L 1100 4041 
L 1100 2403 
z
" transform="scale(0.015625)"/>
       <path id="ArialMT-47" d="M 2638 1797 
L 2638 2334 
L 4578 2338 
L 4578 638 
Q 4131 281 3656 101 
Q 3181 -78 2681 -78 
Q 2006 -78 1454 211 
Q 903 500 622 1047 
Q 341 1594 341 2269 
Q 341 2938 620 3517 
Q 900 4097 1425 4378 
Q 1950 4659 2634 4659 
Q 3131 4659 3532 4498 
Q 3934 4338 4162 4050 
Q 4391 3763 4509 3300 
L 3963 3150 
Q 3859 3500 3706 3700 
Q 3553 3900 3268 4020 
Q 2984 4141 2638 4141 
Q 2222 4141 1919 4014 
Q 1616 3888 1430 3681 
Q 1244 3475 1141 3228 
Q 966 2803 966 2306 
Q 966 1694 1177 1281 
Q 1388 869 1791 669 
Q 2194 469 2647 469 
Q 3041 469 3416 620 
Q 3791 772 3984 944 
L 3984 1797 
L 2638 1797 
z
" transform="scale(0.015625)"/>
       <path id="ArialMT-41" d="M -9 0 
L 1750 4581 
L 2403 4581 
L 4278 0 
L 3588 0 
L 3053 1388 
L 1138 1388 
L 634 0 
L -9 0 
z
M 1313 1881 
L 2866 1881 
L 2388 3150 
Q 2169 3728 2063 4100 
Q 1975 3659 1816 3225 
L 1313 1881 
z
" transform="scale(0.015625)"/>
       <path id="ArialMT-20" transform="scale(0.015625)"/>
       <path id="ArialMT-5b" d="M 434 -1272 
L 434 4581 
L 1675 4581 
L 1675 4116 
L 997 4116 
L 997 -806 
L 1675 -806 
L 1675 -1272 
L 434 -1272 
z
" transform="scale(0.015625)"/>
       <path id="ArialMT-67" d="M 319 -275 
L 866 -356 
Q 900 -609 1056 -725 
Q 1266 -881 1628 -881 
Q 2019 -881 2231 -725 
Q 2444 -569 2519 -288 
Q 2563 -116 2559 434 
Q 2191 0 1641 0 
Q 956 0 581 494 
Q 206 988 206 1678 
Q 206 2153 378 2554 
Q 550 2956 876 3175 
Q 1203 3394 1644 3394 
Q 2231 3394 2613 2919 
L 2613 3319 
L 3131 3319 
L 3131 450 
Q 3131 -325 2973 -648 
Q 2816 -972 2473 -1159 
Q 2131 -1347 1631 -1347 
Q 1038 -1347 672 -1080 
Q 306 -813 319 -275 
z
M 784 1719 
Q 784 1066 1043 766 
Q 1303 466 1694 466 
Q 2081 466 2343 764 
Q 2606 1063 2606 1700 
Q 2606 2309 2336 2618 
Q 2066 2928 1684 2928 
Q 1309 2928 1046 2623 
Q 784 2319 784 1719 
z
" transform="scale(0.015625)"/>
       <path id="ArialMT-5d" d="M 1363 -1272 
L 122 -1272 
L 122 -806 
L 800 -806 
L 800 4116 
L 122 4116 
L 122 4581 
L 1363 4581 
L 1363 -1272 
z
" transform="scale(0.015625)"/>
      </defs>
      <use xlink:href="#ArialMT-50"/>
      <use xlink:href="#ArialMT-47" x="66.699219"/>
      <use xlink:href="#ArialMT-41" x="144.482422"/>
      <use xlink:href="#ArialMT-20" x="205.681641"/>
      <use xlink:href="#ArialMT-5b" x="233.464844"/>
      <use xlink:href="#ArialMT-67" x="261.248047"/>
      <use xlink:href="#ArialMT-5d" x="316.863281"/>
     </g>
    </g>
   </g>
   <g id="matplotlib.axis_2">
    <g id="ytick_1">
     <g id="line2d_17">
      <defs>
       <path id="mb41994652e" d="M 0 0 
L 5 0 
" style="stroke: #000000; stroke-width: 0.5"/>
      </defs>
      <g>
       <use xlink:href="#mb41994652e" x="30.91" y="114.692283" style="fill-opacity: 0; stroke: #000000; stroke-width: 0.5"/>
      </g>
     </g>
     <g id="text_6">
      <!-- 0.0 -->
      <g transform="translate(17.79 117.555408)scale(0.08 -0.08)">
       <defs>
        <path id="ArialMT-2e" d="M 581 0 
L 581 641 
L 1222 641 
L 1222 0 
L 581 0 
z
" transform="scale(0.015625)"/>
       </defs>
       <use xlink:href="#ArialMT-30"/>
       <use xlink:href="#ArialMT-2e" x="55.615234"/>
       <use xlink:href="#ArialMT-30" x="83.398438"/>
      </g>
     </g>
    </g>
    <g id="ytick_2">
     <g id="line2d_18">
      <g>
       <use xlink:href="#mb41994652e" x="30.91" y="94.057827" style="fill-opacity: 0; stroke: #000000; stroke-width: 0.5"/>
      </g>
     </g>
     <g id="text_7">
      <!-- 0.2 -->
      <g transform="translate(17.79 96.920952)scale(0.08 -0.08)">
       <use xlink:href="#ArialMT-30"/>
       <use xlink:href="#ArialMT-2e" x="55.615234"/>
       <use xlink:href="#ArialMT-32" x="83.398438"/>
      </g>
     </g>
    </g>
    <g id="ytick_3">
     <g id="line2d_19">
      <g>
       <use xlink:href="#mb41994652e" x="30.91" y="73.42337" style="fill-opacity: 0; stroke: #000000; stroke-width: 0.5"/>
      </g>
     </g>
     <g id="text_8">
      <!-- 0.4 -->
      <g transform="translate(17.79 76.286495)scale(0.08 -0.08)">
       <defs>
        <path id="ArialMT-34" d="M 2069 0 
L 2069 1097 
L 81 1097 
L 81 1613 
L 2172 4581 
L 2631 4581 
L 2631 1613 
L 3250 1613 
L 3250 1097 
L 2631 1097 
L 2631 0 
L 2069 0 
z
M 2069 1613 
L 2069 3678 
L 634 1613 
L 2069 1613 
z
" transform="scale(0.015625)"/>
       </defs>
       <use xlink:href="#ArialMT-30"/>
       <use xlink:href="#ArialMT-2e" x="55.615234"/>
       <use xlink:href="#ArialMT-34" x="83.398438"/>
      </g>
     </g>
    </g>
    <g id="ytick_4">
     <g id="line2d_20">
      <g>
       <use xlink:href="#mb41994652e" x="30.91" y="52.788913" style="fill-opacity: 0; stroke: #000000; stroke-width: 0.5"/>
      </g>
     </g>
     <g id="text_9">
      <!-- 0.6 -->
      <g transform="translate(17.79 55.652038)scale(0.08 -0.08)">
       <defs>
        <path id="ArialMT-36" d="M 3184 3459 
L 2625 3416 
Q 2550 3747 2413 3897 
Q 2184 4138 1850 4138 
Q 1581 4138 1378 3988 
Q 1113 3794 959 3422 
Q 806 3050 800 2363 
Q 1003 2672 1297 2822 
Q 1591 2972 1913 2972 
Q 2475 2972 2870 2558 
Q 3266 2144 3266 1488 
Q 3266 1056 3080 686 
Q 2894 316 2569 119 
Q 2244 -78 1831 -78 
Q 1128 -78 684 439 
Q 241 956 241 2144 
Q 241 3472 731 4075 
Q 1159 4600 1884 4600 
Q 2425 4600 2770 4297 
Q 3116 3994 3184 3459 
z
M 888 1484 
Q 888 1194 1011 928 
Q 1134 663 1356 523 
Q 1578 384 1822 384 
Q 2178 384 2434 671 
Q 2691 959 2691 1453 
Q 2691 1928 2437 2201 
Q 2184 2475 1800 2475 
Q 1419 2475 1153 2201 
Q 888 1928 888 1484 
z
" transform="scale(0.015625)"/>
       </defs>
       <use xlink:href="#ArialMT-30"/>
       <use xlink:href="#ArialMT-2e" x="55.615234"/>
       <use xlink:href="#ArialMT-36" x="83.398438"/>
      </g>
     </g>
    </g>
    <g id="ytick_5">
     <g id="line2d_21">
      <g>
       <use xlink:href="#mb41994652e" x="30.91" y="32.154457" style="fill-opacity: 0; stroke: #000000; stroke-width: 0.5"/>
      </g>
     </g>
     <g id="text_10">
      <!-- 0.8 -->
      <g transform="translate(17.79 35.017582)scale(0.08 -0.08)">
       <defs>
        <path id="ArialMT-38" d="M 1131 2484 
Q 781 2613 612 2850 
Q 444 3088 444 3419 
Q 444 3919 803 4259 
Q 1163 4600 1759 4600 
Q 2359 4600 2725 4251 
Q 3091 3903 3091 3403 
Q 3091 3084 2923 2848 
Q 2756 2613 2416 2484 
Q 2838 2347 3058 2040 
Q 3278 1734 3278 1309 
Q 3278 722 2862 322 
Q 2447 -78 1769 -78 
Q 1091 -78 675 323 
Q 259 725 259 1325 
Q 259 1772 486 2073 
Q 713 2375 1131 2484 
z
M 1019 3438 
Q 1019 3113 1228 2906 
Q 1438 2700 1772 2700 
Q 2097 2700 2305 2904 
Q 2513 3109 2513 3406 
Q 2513 3716 2298 3927 
Q 2084 4138 1766 4138 
Q 1444 4138 1231 3931 
Q 1019 3725 1019 3438 
z
M 838 1322 
Q 838 1081 952 856 
Q 1066 631 1291 507 
Q 1516 384 1775 384 
Q 2178 384 2440 643 
Q 2703 903 2703 1303 
Q 2703 1709 2433 1975 
Q 2163 2241 1756 2241 
Q 1359 2241 1098 1978 
Q 838 1716 838 1322 
z
" transform="scale(0.015625)"/>
       </defs>
       <use xlink:href="#ArialMT-30"/>
       <use xlink:href="#ArialMT-2e" x="55.615234"/>
       <use xlink:href="#ArialMT-38" x="83.398438"/>
      </g>
     </g>
    </g>
    <g id="ytick_6">
     <g id="line2d_22">
      <g>
       <use xlink:href="#mb41994652e" x="30.91" y="11.52" style="fill-opacity: 0; stroke: #000000; stroke-width: 0.5"/>
      </g>
     </g>
     <g id="text_11">
      <!-- 1.0 -->
      <g transform="translate(17.79 14.383125)scale(0.08 -0.08)">
       <use xlink:href="#ArialMT-31"/>
       <use xlink:href="#ArialMT-2e" x="55.615234"/>
       <use xlink:href="#ArialMT-30" x="83.398438"/>
      </g>
     </g>
    </g>
    <g id="ytick_7">
     <g id="line2d_23">
      <defs>
       <path id="m5b16290751" d="M 0 0 
L 3 0 
" style="stroke: #000000; stroke-width: 0.5"/>
      </defs>
      <g>
       <use xlink:href="#m5b16290751" x="30.91" y="109.533669" style="fill-opacity: 0; stroke: #000000; stroke-width: 0.5"/>
      </g>
     </g>
    </g>
    <g id="ytick_8">
     <g id="line2d_24">
      <g>
       <use xlink:href="#m5b16290751" x="30.91" y="104.375055" style="fill-opacity: 0; stroke: #000000; stroke-width: 0.5"/>
      </g>
     </g>
    </g>
    <g id="ytick_9">
     <g id="line2d_25">
      <g>
       <use xlink:href="#m5b16290751" x="30.91" y="99.216441" style="fill-opacity: 0; stroke: #000000; stroke-width: 0.5"/>
      </g>
     </g>
    </g>
    <g id="ytick_10">
     <g id="line2d_26">
      <g>
       <use xlink:href="#m5b16290751" x="30.91" y="88.899213" style="fill-opacity: 0; stroke: #000000; stroke-width: 0.5"/>
      </g>
     </g>
    </g>
    <g id="ytick_11">
     <g id="line2d_27">
      <g>
       <use xlink:href="#m5b16290751" x="30.91" y="83.740598" style="fill-opacity: 0; stroke: #000000; stroke-width: 0.5"/>
      </g>
     </g>
    </g>
    <g id="ytick_12">
     <g id="line2d_28">
      <g>
       <use xlink:href="#m5b16290751" x="30.91" y="78.581984" style="fill-opacity: 0; stroke: #000000; stroke-width: 0.5"/>
      </g>
     </g>
    </g>
    <g id="ytick_13">
     <g id="line2d_29">
      <g>
       <use xlink:href="#m5b16290751" x="30.91" y="68.264756" style="fill-opacity: 0; stroke: #000000; stroke-width: 0.5"/>
      </g>
     </g>
    </g>
    <g id="ytick_14">
     <g id="line2d_30">
      <g>
       <use xlink:href="#m5b16290751" x="30.91" y="63.106142" style="fill-opacity: 0; stroke: #000000; stroke-width: 0.5"/>
      </g>
     </g>
    </g>
    <g id="ytick_15">
     <g id="line2d_31">
      <g>
       <use xlink:href="#m5b16290751" x="30.91" y="57.947528" style="fill-opacity: 0; stroke: #000000; stroke-width: 0.5"/>
      </g>
     </g>
    </g>
    <g id="ytick_16">
     <g id="line2d_32">
      <g>
       <use xlink:href="#m5b16290751" x="30.91" y="47.630299" style="fill-opacity: 0; stroke: #000000; stroke-width: 0.5"/>
      </g>
     </g>
    </g>
    <g id="ytick_17">
     <g id="line2d_33">
      <g>
       <use xlink:href="#m5b16290751" x="30.91" y="42.471685" style="fill-opacity: 0; stroke: #000000; stroke-width: 0.5"/>
      </g>
     </g>
    </g>
    <g id="ytick_18">
     <g id="line2d_34">
      <g>
       <use xlink:href="#m5b16290751" x="30.91" y="37.313071" style="fill-opacity: 0; stroke: #000000; stroke-width: 0.5"/>
      </g>
     </g>
    </g>
    <g id="ytick_19">
     <g id="line2d_35">
      <g>
       <use xlink:href="#m5b16290751" x="30.91" y="26.995843" style="fill-opacity: 0; stroke: #000000; stroke-width: 0.5"/>
      </g>
     </g>
    </g>
    <g id="ytick_20">
     <g id="line2d_36">
      <g>
       <use xlink:href="#m5b16290751" x="30.91" y="21.837228" style="fill-opacity: 0; stroke: #000000; stroke-width: 0.5"/>
      </g>
     </g>
    </g>
    <g id="ytick_21">
     <g id="line2d_37">
      <g>
       <use xlink:href="#m5b16290751" x="30.91" y="16.678614" style="fill-opacity: 0; stroke: #000000; stroke-width: 0.5"/>
      </g>
     </g>
    </g>
    <g id="text_12">
     <!-- P(D&gt;C|IM) -->
     <g transform="translate(14.10625 82.034267)rotate(-90)scale(0.08 -0.08)">
      <defs>
       <path id="ArialMT-28" d="M 1497 -1347 
Q 1031 -759 709 28 
Q 388 816 388 1659 
Q 388 2403 628 3084 
Q 909 3875 1497 4659 
L 1900 4659 
Q 1522 4009 1400 3731 
Q 1209 3300 1100 2831 
Q 966 2247 966 1656 
Q 966 153 1900 -1347 
L 1497 -1347 
z
" transform="scale(0.015625)"/>
       <path id="ArialMT-44" d="M 494 0 
L 494 4581 
L 2072 4581 
Q 2606 4581 2888 4516 
Q 3281 4425 3559 4188 
Q 3922 3881 4101 3404 
Q 4281 2928 4281 2316 
Q 4281 1794 4159 1391 
Q 4038 988 3847 723 
Q 3656 459 3429 307 
Q 3203 156 2883 78 
Q 2563 0 2147 0 
L 494 0 
z
M 1100 541 
L 2078 541 
Q 2531 541 2789 625 
Q 3047 709 3200 863 
Q 3416 1078 3536 1442 
Q 3656 1806 3656 2325 
Q 3656 3044 3420 3430 
Q 3184 3816 2847 3947 
Q 2603 4041 2063 4041 
L 1100 4041 
L 1100 541 
z
" transform="scale(0.015625)"/>
       <path id="ArialMT-3e" d="M 3384 2003 
L 350 706 
L 350 1266 
L 2753 2263 
L 350 3250 
L 350 3809 
L 3384 2528 
L 3384 2003 
z
" transform="scale(0.015625)"/>
       <path id="ArialMT-43" d="M 3763 1606 
L 4369 1453 
Q 4178 706 3683 314 
Q 3188 -78 2472 -78 
Q 1731 -78 1267 223 
Q 803 525 561 1097 
Q 319 1669 319 2325 
Q 319 3041 592 3573 
Q 866 4106 1370 4382 
Q 1875 4659 2481 4659 
Q 3169 4659 3637 4309 
Q 4106 3959 4291 3325 
L 3694 3184 
Q 3534 3684 3231 3912 
Q 2928 4141 2469 4141 
Q 1941 4141 1586 3887 
Q 1231 3634 1087 3207 
Q 944 2781 944 2328 
Q 944 1744 1114 1308 
Q 1284 872 1643 656 
Q 2003 441 2422 441 
Q 2931 441 3284 734 
Q 3638 1028 3763 1606 
z
" transform="scale(0.015625)"/>
       <path id="ArialMT-7c" d="M 588 -1347 
L 588 4659 
L 1078 4659 
L 1078 -1347 
L 588 -1347 
z
" transform="scale(0.015625)"/>
       <path id="ArialMT-49" d="M 597 0 
L 597 4581 
L 1203 4581 
L 1203 0 
L 597 0 
z
" transform="scale(0.015625)"/>
       <path id="ArialMT-4d" d="M 475 0 
L 475 4581 
L 1388 4581 
L 2472 1338 
Q 2622 884 2691 659 
Q 2769 909 2934 1394 
L 4031 4581 
L 4847 4581 
L 4847 0 
L 4263 0 
L 4263 3834 
L 2931 0 
L 2384 0 
L 1059 3900 
L 1059 0 
L 475 0 
z
" transform="scale(0.015625)"/>
       <path id="ArialMT-29" d="M 791 -1347 
L 388 -1347 
Q 1322 153 1322 1656 
Q 1322 2244 1188 2822 
Q 1081 3291 891 3722 
Q 769 4003 388 4659 
L 791 4659 
Q 1378 3875 1659 3084 
Q 1900 2403 1900 1659 
Q 1900 816 1576 28 
Q 1253 -759 791 -1347 
z
" transform="scale(0.015625)"/>
      </defs>
      <use xlink:href="#ArialMT-50"/>
      <use xlink:href="#ArialMT-28" x="66.699219"/>
      <use xlink:href="#ArialMT-44" x="100"/>
      <use xlink:href="#ArialMT-3e" x="172.216797"/>
      <use xlink:href="#ArialMT-43" x="230.615234"/>
      <use xlink:href="#ArialMT-7c" x="302.832031"/>
      <use xlink:href="#ArialMT-49" x="328.808594"/>
      <use xlink:href="#ArialMT-4d" x="356.591797"/>
      <use xlink:href="#ArialMT-29" x="439.892578"/>
     </g>
    </g>
   </g>
   <g id="line2d_38">
    <path d="M 31.337746 114.684762 
L 32.629625 112.593677 
L 33.921503 105.418257 
L 35.213382 95.485133 
L 36.505261 85.06421 
L 37.797139 75.278455 
L 39.089018 66.550529 
L 40.380897 58.963576 
L 41.672776 52.453429 
L 42.964654 46.901563 
L 44.256533 42.177842 
L 45.548412 38.158953 
L 46.840291 34.735301 
L 48.132169 31.81259 
L 49.424048 29.311081 
L 50.715927 27.163967 
L 52.007805 25.31553 
L 53.299684 23.719387 
L 54.591563 22.336918 
L 55.883442 21.135935 
L 57.17532 20.089557 
L 58.467199 19.175283 
L 59.759078 18.374227 
L 61.050957 17.670493 
L 62.342835 17.050663 
L 63.634714 16.503373 
L 64.926593 16.018976 
L 66.218472 15.589255 
L 67.51035 15.20719 
L 68.802229 14.866768 
L 70.094108 14.562825 
L 71.385986 14.290912 
L 72.677865 14.047188 
L 73.969744 13.828327 
L 75.261623 13.631442 
L 76.553501 13.454021 
L 77.84538 13.293876 
L 79.137259 13.149092 
L 80.429138 13.017993 
L 81.721016 12.899107 
L 83.012895 12.79114 
L 84.304774 12.692952 
L 85.596652 12.603536 
L 86.888531 12.522 
L 88.18041 12.447556 
L 89.472289 12.379502 
L 90.764167 12.317215 
L 92.056046 12.260141 
L 93.347925 12.207782 
L 94.639804 12.159698 
L 95.931682 12.115491 
L 97.223561 12.074808 
L 98.51544 12.037329 
L 99.807319 12.002767 
L 101.099197 11.970866 
L 102.391076 11.941393 
L 103.682955 11.914138 
L 104.974833 11.888913 
L 106.266712 11.865545 
L 107.558591 11.84388 
L 108.85047 11.823777 
L 110.142348 11.805109 
L 111.434227 11.78776 
L 112.726106 11.771624 
L 114.017985 11.756605 
L 115.309863 11.742616 
L 116.601742 11.729576 
L 117.893621 11.717413 
L 119.1855 11.70606 
L 120.477378 11.695456 
L 121.769257 11.685546 
L 123.061136 11.676277 
L 124.353014 11.667604 
L 125.644893 11.659482 
L 126.936772 11.651872 
L 128.228651 11.644738 
L 129.520529 11.638046 
L 130.812408 11.631765 
L 132.104287 11.625866 
L 133.396166 11.620324 
L 134.688044 11.615114 
L 135.979923 11.610213 
L 137.271802 11.605602 
L 138.56368 11.601259 
L 139.855559 11.597169 
L 141.147438 11.593314 
L 142.439317 11.589679 
L 143.731195 11.58625 
L 145.023074 11.583014 
L 146.314953 11.579958 
L 147.606832 11.577072 
L 148.89871 11.574344 
L 150.190589 11.571765 
L 151.482468 11.569326 
L 152.774347 11.567017 
L 154.066225 11.564832 
L 155.358104 11.562763 
L 156.649983 11.560803 
L 157.941861 11.558945 
L 159.23374 11.557184 
" clip-path="url(#pa54996d006)" style="fill: none; stroke: #000000; stroke-linecap: square"/>
    <defs>
     <path id="m5e796bf990" d="M 0 1 
C 0.265203 1 0.51958 0.894634 0.707107 0.707107 
C 0.894634 0.51958 1 0.265203 1 0 
C 1 -0.265203 0.894634 -0.51958 0.707107 -0.707107 
C 0.51958 -0.894634 0.265203 -1 0 -1 
C -0.265203 -1 -0.51958 -0.894634 -0.707107 -0.707107 
C -0.894634 -0.51958 -1 -0.265203 -1 0 
C -1 0.265203 -0.894634 0.51958 -0.707107 0.707107 
C -0.51958 0.894634 -0.265203 1 0 1 
z
" style="stroke: #000000; stroke-width: 0.8"/>
    </defs>
    <g clip-path="url(#pa54996d006)">
     <use xlink:href="#m5e796bf990" x="31.337746" y="114.684762" style="fill-opacity: 0; stroke: #000000; stroke-width: 0.8"/>
     <use xlink:href="#m5e796bf990" x="44.256533" y="42.177842" style="fill-opacity: 0; stroke: #000000; stroke-width: 0.8"/>
     <use xlink:href="#m5e796bf990" x="57.17532" y="20.089557" style="fill-opacity: 0; stroke: #000000; stroke-width: 0.8"/>
     <use xlink:href="#m5e796bf990" x="70.094108" y="14.562825" style="fill-opacity: 0; stroke: #000000; stroke-width: 0.8"/>
     <use xlink:href="#m5e796bf990" x="83.012895" y="12.79114" style="fill-opacity: 0; stroke: #000000; stroke-width: 0.8"/>
     <use xlink:href="#m5e796bf990" x="95.931682" y="12.115491" style="fill-opacity: 0; stroke: #000000; stroke-width: 0.8"/>
     <use xlink:href="#m5e796bf990" x="108.85047" y="11.823777" style="fill-opacity: 0; stroke: #000000; stroke-width: 0.8"/>
     <use xlink:href="#m5e796bf990" x="121.769257" y="11.685546" style="fill-opacity: 0; stroke: #000000; stroke-width: 0.8"/>
     <use xlink:href="#m5e796bf990" x="134.688044" y="11.615114" style="fill-opacity: 0; stroke: #000000; stroke-width: 0.8"/>
     <use xlink:href="#m5e796bf990" x="147.606832" y="11.577072" style="fill-opacity: 0; stroke: #000000; stroke-width: 0.8"/>
    </g>
   </g>
   <g id="line2d_39">
    <path d="M 31.337746 114.689991 
L 32.629625 113.258772 
L 33.921503 106.990164 
L 35.213382 97.277105 
L 36.505261 86.523243 
L 37.797139 76.155938 
L 39.089018 66.802007 
L 40.380897 58.647352 
L 41.672776 51.667678 
L 42.964654 45.751319 
L 44.256533 40.759751 
L 45.548412 36.555532 
L 46.840291 33.01392 
L 48.132169 30.026579 
L 49.424048 27.501647 
L 50.715927 25.362265 
L 52.007805 23.544589 
L 53.299684 21.995783 
L 54.591563 20.672176 
L 55.883442 19.537666 
L 57.17532 18.562376 
L 58.467199 17.721531 
L 59.759078 16.994543 
L 61.050957 16.364258 
L 62.342835 15.816348 
L 63.634714 15.338808 
L 64.926593 14.921552 
L 66.218472 14.556081 
L 67.51035 14.235216 
L 68.802229 13.952871 
L 70.094108 13.703876 
L 71.385986 13.483826 
L 72.677865 13.288957 
L 73.969744 13.116046 
L 75.261623 12.962324 
L 76.553501 12.825409 
L 77.84538 12.703245 
L 79.137259 12.594053 
L 80.429138 12.496294 
L 81.721016 12.408627 
L 83.012895 12.329887 
L 84.304774 12.259057 
L 85.596652 12.195248 
L 86.888531 12.137682 
L 88.18041 12.085677 
L 89.472289 12.038631 
L 90.764167 11.996015 
L 92.056046 11.957364 
L 93.347925 11.922265 
L 94.639804 11.890353 
L 95.931682 11.861306 
L 97.223561 11.834835 
L 98.51544 11.810685 
L 99.807319 11.78863 
L 101.099197 11.768466 
L 102.391076 11.750012 
L 103.682955 11.733107 
L 104.974833 11.717604 
L 106.266712 11.703376 
L 107.558591 11.690303 
L 108.85047 11.678283 
L 110.142348 11.66722 
L 111.434227 11.657029 
L 112.726106 11.647634 
L 114.017985 11.638965 
L 115.309863 11.63096 
L 116.601742 11.623562 
L 117.893621 11.61672 
L 119.1855 11.610387 
L 120.477378 11.604522 
L 121.769257 11.599085 
L 123.061136 11.594041 
L 124.353014 11.58936 
L 125.644893 11.585012 
L 126.936772 11.580971 
L 128.228651 11.577212 
L 129.520529 11.573714 
L 130.812408 11.570457 
L 132.104287 11.567421 
L 133.396166 11.564591 
L 134.688044 11.561951 
L 135.979923 11.559486 
L 137.271802 11.557184 
L 138.56368 11.555033 
L 139.855559 11.553022 
L 141.147438 11.55114 
L 142.439317 11.549379 
L 143.731195 11.547729 
L 145.023074 11.546184 
L 146.314953 11.544735 
L 147.606832 11.543376 
L 148.89871 11.542101 
L 150.190589 11.540904 
L 151.482468 11.539779 
L 152.774347 11.538723 
L 154.066225 11.537729 
L 155.358104 11.536795 
L 156.649983 11.535916 
L 157.941861 11.535089 
L 159.23374 11.534309 
" clip-path="url(#pa54996d006)" style="fill: none; stroke-dasharray: 2.96,1.28; stroke-dashoffset: 0; stroke: #dc0000; stroke-width: 0.8"/>
    <defs>
     <path id="m7d10bea736" d="M 0 1 
C 0.265203 1 0.51958 0.894634 0.707107 0.707107 
C 0.894634 0.51958 1 0.265203 1 0 
C 1 -0.265203 0.894634 -0.51958 0.707107 -0.707107 
C 0.51958 -0.894634 0.265203 -1 0 -1 
C -0.265203 -1 -0.51958 -0.894634 -0.707107 -0.707107 
C -0.894634 -0.51958 -1 -0.265203 -1 0 
C -1 0.265203 -0.894634 0.51958 -0.707107 0.707107 
C -0.51958 0.894634 -0.265203 1 0 1 
z
" style="stroke: #dc0000; stroke-width: 0.8"/>
    </defs>
    <g clip-path="url(#pa54996d006)">
     <use xlink:href="#m7d10bea736" x="31.337746" y="114.689991" style="fill-opacity: 0; stroke: #dc0000; stroke-width: 0.8"/>
     <use xlink:href="#m7d10bea736" x="44.256533" y="40.759751" style="fill-opacity: 0; stroke: #dc0000; stroke-width: 0.8"/>
     <use xlink:href="#m7d10bea736" x="57.17532" y="18.562376" style="fill-opacity: 0; stroke: #dc0000; stroke-width: 0.8"/>
     <use xlink:href="#m7d10bea736" x="70.094108" y="13.703876" style="fill-opacity: 0; stroke: #dc0000; stroke-width: 0.8"/>
     <use xlink:href="#m7d10bea736" x="83.012895" y="12.329887" style="fill-opacity: 0; stroke: #dc0000; stroke-width: 0.8"/>
     <use xlink:href="#m7d10bea736" x="95.931682" y="11.861306" style="fill-opacity: 0; stroke: #dc0000; stroke-width: 0.8"/>
     <use xlink:href="#m7d10bea736" x="108.85047" y="11.678283" style="fill-opacity: 0; stroke: #dc0000; stroke-width: 0.8"/>
     <use xlink:href="#m7d10bea736" x="121.769257" y="11.599085" style="fill-opacity: 0; stroke: #dc0000; stroke-width: 0.8"/>
     <use xlink:href="#m7d10bea736" x="134.688044" y="11.561951" style="fill-opacity: 0; stroke: #dc0000; stroke-width: 0.8"/>
     <use xlink:href="#m7d10bea736" x="147.606832" y="11.543376" style="fill-opacity: 0; stroke: #dc0000; stroke-width: 0.8"/>
    </g>
   </g>
   <g id="line2d_40">
    <path d="M 31.337746 114.690453 
L 32.629625 113.519226 
L 33.921503 108.188977 
L 35.213382 99.618485 
L 36.505261 89.820424 
L 37.797139 80.107367 
L 39.089018 71.124878 
L 40.380897 63.118722 
L 41.672776 56.126873 
L 42.964654 50.08972 
L 44.256533 44.908442 
L 45.548412 40.474395 
L 46.840291 36.68303 
L 48.132169 33.439782 
L 49.424048 30.661905 
L 50.715927 28.278349 
L 52.007805 26.228774 
L 53.299684 24.462254 
L 54.591563 22.935951 
L 55.883442 21.613878 
L 57.17532 20.465804 
L 58.467199 19.466315 
L 59.759078 18.594018 
L 61.050957 17.830866 
L 62.342835 17.161611 
L 63.634714 16.573336 
L 64.926593 16.055072 
L 66.218472 15.597486 
L 67.51035 15.192614 
L 68.802229 14.833645 
L 70.094108 14.514738 
L 71.385986 14.230874 
L 72.677865 13.97773 
L 73.969744 13.751572 
L 75.261623 13.549169 
L 76.553501 13.367716 
L 77.84538 13.204779 
L 79.137259 13.058234 
L 80.429138 12.926228 
L 81.721016 12.807141 
L 83.012895 12.699553 
L 84.304774 12.602215 
L 85.596652 12.514032 
L 86.888531 12.434035 
L 88.18041 12.361372 
L 89.472289 12.295287 
L 90.764167 12.235112 
L 92.056046 12.180253 
L 93.347925 12.130183 
L 94.639804 12.084433 
L 95.931682 12.042584 
L 97.223561 12.004264 
L 98.51544 11.969138 
L 99.807319 11.936908 
L 101.099197 11.907306 
L 102.391076 11.880091 
L 103.682955 11.855048 
L 104.974833 11.831983 
L 106.266712 11.81072 
L 107.558591 11.791102 
L 108.85047 11.772986 
L 110.142348 11.756243 
L 111.434227 11.740757 
L 112.726106 11.726422 
L 114.017985 11.713142 
L 115.309863 11.70083 
L 116.601742 11.689408 
L 117.893621 11.678802 
L 119.1855 11.668949 
L 120.477378 11.659788 
L 121.769257 11.651265 
L 123.061136 11.64333 
L 124.353014 11.635938 
L 125.644893 11.629047 
L 126.936772 11.622619 
L 128.228651 11.61662 
L 129.520529 11.611017 
L 130.812408 11.605781 
L 132.104287 11.600886 
L 133.396166 11.596307 
L 134.688044 11.59202 
L 135.979923 11.588006 
L 137.271802 11.584244 
L 138.56368 11.580717 
L 139.855559 11.577408 
L 141.147438 11.574303 
L 142.439317 11.571388 
L 143.731195 11.568649 
L 145.023074 11.566075 
L 146.314953 11.563654 
L 147.606832 11.561377 
L 148.89871 11.559234 
L 150.190589 11.557216 
L 151.482468 11.555315 
L 152.774347 11.553523 
L 154.066225 11.551834 
L 155.358104 11.55024 
L 156.649983 11.548737 
L 157.941861 11.547318 
L 159.23374 11.545977 
" clip-path="url(#pa54996d006)" style="fill: none; stroke-dasharray: 5.12,1.28,0.8,1.28; stroke-dashoffset: 0; stroke: #3c5488; stroke-width: 0.8"/>
    <defs>
     <path id="md6fe86a35c" d="M 0 1 
C 0.265203 1 0.51958 0.894634 0.707107 0.707107 
C 0.894634 0.51958 1 0.265203 1 0 
C 1 -0.265203 0.894634 -0.51958 0.707107 -0.707107 
C 0.51958 -0.894634 0.265203 -1 0 -1 
C -0.265203 -1 -0.51958 -0.894634 -0.707107 -0.707107 
C -0.894634 -0.51958 -1 -0.265203 -1 0 
C -1 0.265203 -0.894634 0.51958 -0.707107 0.707107 
C -0.51958 0.894634 -0.265203 1 0 1 
z
" style="stroke: #3c5488; stroke-width: 0.8"/>
    </defs>
    <g clip-path="url(#pa54996d006)">
     <use xlink:href="#md6fe86a35c" x="31.337746" y="114.690453" style="fill-opacity: 0; stroke: #3c5488; stroke-width: 0.8"/>
     <use xlink:href="#md6fe86a35c" x="44.256533" y="44.908442" style="fill-opacity: 0; stroke: #3c5488; stroke-width: 0.8"/>
     <use xlink:href="#md6fe86a35c" x="57.17532" y="20.465804" style="fill-opacity: 0; stroke: #3c5488; stroke-width: 0.8"/>
     <use xlink:href="#md6fe86a35c" x="70.094108" y="14.514738" style="fill-opacity: 0; stroke: #3c5488; stroke-width: 0.8"/>
     <use xlink:href="#md6fe86a35c" x="83.012895" y="12.699553" style="fill-opacity: 0; stroke: #3c5488; stroke-width: 0.8"/>
     <use xlink:href="#md6fe86a35c" x="95.931682" y="12.042584" style="fill-opacity: 0; stroke: #3c5488; stroke-width: 0.8"/>
     <use xlink:href="#md6fe86a35c" x="108.85047" y="11.772986" style="fill-opacity: 0; stroke: #3c5488; stroke-width: 0.8"/>
     <use xlink:href="#md6fe86a35c" x="121.769257" y="11.651265" style="fill-opacity: 0; stroke: #3c5488; stroke-width: 0.8"/>
     <use xlink:href="#md6fe86a35c" x="134.688044" y="11.59202" style="fill-opacity: 0; stroke: #3c5488; stroke-width: 0.8"/>
     <use xlink:href="#md6fe86a35c" x="147.606832" y="11.561377" style="fill-opacity: 0; stroke: #3c5488; stroke-width: 0.8"/>
    </g>
   </g>
   <g id="line2d_41">
    <path d="M 31.337746 114.692195 
L 32.629625 114.567242 
L 33.921503 113.663337 
L 35.213382 111.577682 
L 36.505261 108.413127 
L 37.797139 104.457158 
L 39.089018 100.002891 
L 40.380897 95.290644 
L 41.672776 90.499597 
L 42.964654 85.755931 
L 44.256533 81.144445 
L 45.548412 76.719226 
L 46.840291 72.512244 
L 48.132169 68.539883 
L 49.424048 64.807746 
L 50.715927 61.314144 
L 52.007805 58.052587 
L 53.299684 55.013549 
L 54.591563 52.185715 
L 55.883442 49.556846 
L 57.17532 47.114375 
L 58.467199 44.845806 
L 59.759078 42.738985 
L 61.050957 40.782265 
L 62.342835 38.964605 
L 63.634714 37.275626 
L 64.926593 35.705625 
L 66.218472 34.245574 
L 67.51035 32.8871 
L 68.802229 31.622462 
L 70.094108 30.444512 
L 71.385986 29.346661 
L 72.677865 28.322841 
L 73.969744 27.367468 
L 75.261623 26.475408 
L 76.553501 25.641936 
L 77.84538 24.862712 
L 79.137259 24.13374 
L 80.429138 23.451349 
L 81.721016 22.812159 
L 83.012895 22.213062 
L 84.304774 21.651193 
L 85.596652 21.123917 
L 86.888531 20.628804 
L 88.18041 20.163613 
L 89.472289 19.726278 
L 90.764167 19.314892 
L 92.056046 18.927691 
L 93.347925 18.56305 
L 94.639804 18.219461 
L 95.931682 17.895532 
L 97.223561 17.589974 
L 98.51544 17.301591 
L 99.807319 17.029277 
L 101.099197 16.772005 
L 102.391076 16.52882 
L 103.682955 16.298838 
L 104.974833 16.081235 
L 106.266712 15.875248 
L 107.558591 15.680163 
L 108.85047 15.495319 
L 110.142348 15.320098 
L 111.434227 15.153925 
L 112.726106 14.996263 
L 114.017985 14.846613 
L 115.309863 14.704505 
L 116.601742 14.569505 
L 117.893621 14.441204 
L 119.1855 14.319219 
L 120.477378 14.203195 
L 121.769257 14.092796 
L 123.061136 13.98771 
L 124.353014 13.887643 
L 125.644893 13.79232 
L 126.936772 13.701483 
L 128.228651 13.61489 
L 129.520529 13.532312 
L 130.812408 13.453538 
L 132.104287 13.378364 
L 133.396166 13.306604 
L 134.688044 13.238078 
L 135.979923 13.17262 
L 137.271802 13.110073 
L 138.56368 13.050287 
L 139.855559 12.993124 
L 141.147438 12.93845 
L 142.439317 12.886143 
L 143.731195 12.836084 
L 145.023074 12.788163 
L 146.314953 12.742276 
L 147.606832 12.698323 
L 148.89871 12.65621 
L 150.190589 12.615851 
L 151.482468 12.577161 
L 152.774347 12.54006 
L 154.066225 12.504476 
L 155.358104 12.470335 
L 156.649983 12.437572 
L 157.941861 12.406123 
L 159.23374 12.375927 
" clip-path="url(#pa54996d006)" style="fill: none; stroke: #000000; stroke-linecap: square"/>
    <defs>
     <path id="mc5583c8684" d="M -1 1 
L 1 -1 
M -1 -1 
L 1 1 
" style="stroke: #000000; stroke-width: 0.8"/>
    </defs>
    <g clip-path="url(#pa54996d006)">
     <use xlink:href="#mc5583c8684" x="31.337746" y="114.692195" style="fill-opacity: 0; stroke: #000000; stroke-width: 0.8"/>
     <use xlink:href="#mc5583c8684" x="44.256533" y="81.144445" style="fill-opacity: 0; stroke: #000000; stroke-width: 0.8"/>
     <use xlink:href="#mc5583c8684" x="57.17532" y="47.114375" style="fill-opacity: 0; stroke: #000000; stroke-width: 0.8"/>
     <use xlink:href="#mc5583c8684" x="70.094108" y="30.444512" style="fill-opacity: 0; stroke: #000000; stroke-width: 0.8"/>
     <use xlink:href="#mc5583c8684" x="83.012895" y="22.213062" style="fill-opacity: 0; stroke: #000000; stroke-width: 0.8"/>
     <use xlink:href="#mc5583c8684" x="95.931682" y="17.895532" style="fill-opacity: 0; stroke: #000000; stroke-width: 0.8"/>
     <use xlink:href="#mc5583c8684" x="108.85047" y="15.495319" style="fill-opacity: 0; stroke: #000000; stroke-width: 0.8"/>
     <use xlink:href="#mc5583c8684" x="121.769257" y="14.092796" style="fill-opacity: 0; stroke: #000000; stroke-width: 0.8"/>
     <use xlink:href="#mc5583c8684" x="134.688044" y="13.238078" style="fill-opacity: 0; stroke: #000000; stroke-width: 0.8"/>
     <use xlink:href="#mc5583c8684" x="147.606832" y="12.698323" style="fill-opacity: 0; stroke: #000000; stroke-width: 0.8"/>
    </g>
   </g>
   <g id="line2d_42">
    <path d="M 31.337746 114.692268 
L 32.629625 114.631079 
L 33.921503 114.021814 
L 35.213382 112.349506 
L 36.505261 109.540958 
L 37.797139 105.797023 
L 39.089018 101.397056 
L 40.380897 96.603364 
L 41.672776 91.628802 
L 42.964654 86.633015 
L 44.256533 81.729273 
L 45.548412 76.993935 
L 46.840291 72.4754 
L 48.132169 68.201567 
L 49.424048 64.185665 
L 50.715927 60.430675 
L 52.007805 56.9326 
L 53.299684 53.682851 
L 54.591563 50.669961 
L 55.883442 47.880813 
L 57.17532 45.301496 
L 58.467199 42.917898 
L 59.759078 40.71611 
L 61.050957 38.682687 
L 62.342835 36.804815 
L 63.634714 35.070405 
L 64.926593 33.468139 
L 66.218472 31.987483 
L 67.51035 30.618674 
L 68.802229 29.352696 
L 70.094108 28.181243 
L 71.385986 27.096679 
L 72.677865 26.091994 
L 73.969744 25.160758 
L 75.261623 24.297082 
L 76.553501 23.49557 
L 77.84538 22.751281 
L 79.137259 22.059695 
L 80.429138 21.41667 
L 81.721016 20.818417 
L 83.012895 20.261464 
L 84.304774 19.742632 
L 85.596652 19.259006 
L 86.888531 18.807916 
L 88.18041 18.386912 
L 89.472289 17.993745 
L 90.764167 17.626352 
L 92.056046 17.282836 
L 93.347925 16.961456 
L 94.639804 16.660609 
L 95.931682 16.378819 
L 97.223561 16.114729 
L 98.51544 15.867089 
L 99.807319 15.634745 
L 101.099197 15.416633 
L 102.391076 15.211771 
L 103.682955 15.019254 
L 104.974833 14.838241 
L 106.266712 14.66796 
L 107.558591 14.507692 
L 108.85047 14.356774 
L 110.142348 14.214591 
L 111.434227 14.080573 
L 112.726106 13.954191 
L 114.017985 13.834954 
L 115.309863 13.722408 
L 116.601742 13.616127 
L 117.893621 13.51572 
L 119.1855 13.42082 
L 120.477378 13.331086 
L 121.769257 13.246201 
L 123.061136 13.16587 
L 124.353014 13.089817 
L 125.644893 13.017785 
L 126.936772 12.949535 
L 128.228651 12.884842 
L 129.520529 12.823497 
L 130.812408 12.765306 
L 132.104287 12.710085 
L 133.396166 12.657663 
L 134.688044 12.607881 
L 135.979923 12.560588 
L 137.271802 12.515644 
L 138.56368 12.472919 
L 139.855559 12.432287 
L 141.147438 12.393635 
L 142.439317 12.356852 
L 143.731195 12.321838 
L 145.023074 12.288496 
L 146.314953 12.256737 
L 147.606832 12.226476 
L 148.89871 12.197633 
L 150.190589 12.170133 
L 151.482468 12.143906 
L 152.774347 12.118886 
L 154.066225 12.09501 
L 155.358104 12.07222 
L 156.649983 12.050459 
L 157.941861 12.029675 
L 159.23374 12.00982 
" clip-path="url(#pa54996d006)" style="fill: none; stroke-dasharray: 2.96,1.28; stroke-dashoffset: 0; stroke: #dc0000; stroke-width: 0.8"/>
    <defs>
     <path id="m8897fcec3e" d="M -1 1 
L 1 -1 
M -1 -1 
L 1 1 
" style="stroke: #dc0000; stroke-width: 0.8"/>
    </defs>
    <g clip-path="url(#pa54996d006)">
     <use xlink:href="#m8897fcec3e" x="31.337746" y="114.692268" style="fill-opacity: 0; stroke: #dc0000; stroke-width: 0.8"/>
     <use xlink:href="#m8897fcec3e" x="44.256533" y="81.729273" style="fill-opacity: 0; stroke: #dc0000; stroke-width: 0.8"/>
     <use xlink:href="#m8897fcec3e" x="57.17532" y="45.301496" style="fill-opacity: 0; stroke: #dc0000; stroke-width: 0.8"/>
     <use xlink:href="#m8897fcec3e" x="70.094108" y="28.181243" style="fill-opacity: 0; stroke: #dc0000; stroke-width: 0.8"/>
     <use xlink:href="#m8897fcec3e" x="83.012895" y="20.261464" style="fill-opacity: 0; stroke: #dc0000; stroke-width: 0.8"/>
     <use xlink:href="#m8897fcec3e" x="95.931682" y="16.378819" style="fill-opacity: 0; stroke: #dc0000; stroke-width: 0.8"/>
     <use xlink:href="#m8897fcec3e" x="108.85047" y="14.356774" style="fill-opacity: 0; stroke: #dc0000; stroke-width: 0.8"/>
     <use xlink:href="#m8897fcec3e" x="121.769257" y="13.246201" style="fill-opacity: 0; stroke: #dc0000; stroke-width: 0.8"/>
     <use xlink:href="#m8897fcec3e" x="134.688044" y="12.607881" style="fill-opacity: 0; stroke: #dc0000; stroke-width: 0.8"/>
     <use xlink:href="#m8897fcec3e" x="147.606832" y="12.226476" style="fill-opacity: 0; stroke: #dc0000; stroke-width: 0.8"/>
    </g>
   </g>
   <g id="line2d_43">
    <path d="M 31.337746 114.692275 
L 32.629625 114.655727 
L 33.921503 114.262364 
L 35.213382 113.111721 
L 36.505261 111.076331 
L 37.797139 108.242356 
L 39.089018 104.784505 
L 40.380897 100.890761 
L 41.672776 96.728925 
L 42.964654 92.435875 
L 44.256533 88.117292 
L 45.548412 83.851501 
L 46.840291 79.694409 
L 48.132169 75.684265 
L 49.424048 71.845776 
L 50.715927 68.193456 
L 52.007805 64.734287 
L 53.299684 61.469771 
L 54.591563 58.397513 
L 55.883442 55.512404 
L 57.17532 52.807516 
L 58.467199 50.274771 
L 59.759078 47.905426 
L 61.050957 45.690431 
L 62.342835 43.620688 
L 63.634714 41.687229 
L 64.926593 39.881345 
L 66.218472 38.194669 
L 67.51035 36.619227 
L 68.802229 35.147467 
L 70.094108 33.772274 
L 71.385986 32.486968 
L 72.677865 31.2853 
L 73.969744 30.161434 
L 75.261623 29.109936 
L 76.553501 28.125747 
L 77.84538 27.204169 
L 79.137259 26.340839 
L 80.429138 25.531709 
L 81.721016 24.773025 
L 83.012895 24.061309 
L 84.304774 23.393335 
L 85.596652 22.766116 
L 86.888531 22.17688 
L 88.18041 21.623063 
L 89.472289 21.102283 
L 90.764167 20.612336 
L 92.056046 20.151175 
L 93.347925 19.716902 
L 94.639804 19.307758 
L 95.931682 18.922107 
L 97.223561 18.558431 
L 98.51544 18.215321 
L 99.807319 17.891466 
L 101.099197 17.585647 
L 102.391076 17.296732 
L 103.682955 17.023666 
L 104.974833 16.765468 
L 106.266712 16.521222 
L 107.558591 16.290077 
L 108.85047 16.071239 
L 110.142348 15.863967 
L 111.434227 15.667569 
L 112.726106 15.4814 
L 114.017985 15.304858 
L 115.309863 15.137378 
L 116.601742 14.978435 
L 117.893621 14.827536 
L 119.1855 14.68422 
L 120.477378 14.548055 
L 121.769257 14.418637 
L 123.061136 14.295589 
L 124.353014 14.178554 
L 125.644893 14.067201 
L 126.936772 13.961216 
L 128.228651 13.860307 
L 129.520529 13.764198 
L 130.812408 13.672631 
L 132.104287 13.585362 
L 133.396166 13.502163 
L 134.688044 13.42282 
L 135.979923 13.347129 
L 137.271802 13.2749 
L 138.56368 13.205955 
L 139.855559 13.140123 
L 141.147438 13.077247 
L 142.439317 13.017174 
L 143.731195 12.959765 
L 145.023074 12.904885 
L 146.314953 12.852408 
L 147.606832 12.802216 
L 148.89871 12.754194 
L 150.190589 12.708238 
L 151.482468 12.664247 
L 152.774347 12.622125 
L 154.066225 12.581784 
L 155.358104 12.543136 
L 156.649983 12.506103 
L 157.941861 12.470608 
L 159.23374 12.436578 
" clip-path="url(#pa54996d006)" style="fill: none; stroke-dasharray: 5.12,1.28,0.8,1.28; stroke-dashoffset: 0; stroke: #3c5488; stroke-width: 0.8"/>
    <defs>
     <path id="m367d89bc24" d="M -1 1 
L 1 -1 
M -1 -1 
L 1 1 
" style="stroke: #3c5488; stroke-width: 0.8"/>
    </defs>
    <g clip-path="url(#pa54996d006)">
     <use xlink:href="#m367d89bc24" x="31.337746" y="114.692275" style="fill-opacity: 0; stroke: #3c5488; stroke-width: 0.8"/>
     <use xlink:href="#m367d89bc24" x="44.256533" y="88.117292" style="fill-opacity: 0; stroke: #3c5488; stroke-width: 0.8"/>
     <use xlink:href="#m367d89bc24" x="57.17532" y="52.807516" style="fill-opacity: 0; stroke: #3c5488; stroke-width: 0.8"/>
     <use xlink:href="#m367d89bc24" x="70.094108" y="33.772274" style="fill-opacity: 0; stroke: #3c5488; stroke-width: 0.8"/>
     <use xlink:href="#m367d89bc24" x="83.012895" y="24.061309" style="fill-opacity: 0; stroke: #3c5488; stroke-width: 0.8"/>
     <use xlink:href="#m367d89bc24" x="95.931682" y="18.922107" style="fill-opacity: 0; stroke: #3c5488; stroke-width: 0.8"/>
     <use xlink:href="#m367d89bc24" x="108.85047" y="16.071239" style="fill-opacity: 0; stroke: #3c5488; stroke-width: 0.8"/>
     <use xlink:href="#m367d89bc24" x="121.769257" y="14.418637" style="fill-opacity: 0; stroke: #3c5488; stroke-width: 0.8"/>
     <use xlink:href="#m367d89bc24" x="134.688044" y="13.42282" style="fill-opacity: 0; stroke: #3c5488; stroke-width: 0.8"/>
     <use xlink:href="#m367d89bc24" x="147.606832" y="12.802216" style="fill-opacity: 0; stroke: #3c5488; stroke-width: 0.8"/>
    </g>
   </g>
   <g id="line2d_44">
    <path d="M 31.337746 114.692279 
L 32.629625 114.676452 
L 33.921503 114.502276 
L 35.213382 113.965024 
L 36.505261 112.956717 
L 37.797139 111.468821 
L 39.089018 109.550364 
L 40.380897 107.274782 
L 41.672776 104.72054 
L 42.964654 101.961349 
L 44.256533 99.061983 
L 45.548412 96.077103 
L 46.840291 93.05157 
L 48.132169 90.021427 
L 49.424048 87.015097 
L 50.715927 84.05459 
L 52.007805 81.15661 
L 53.299684 78.333525 
L 54.591563 75.594196 
L 55.883442 72.94467 
L 57.17532 70.388748 
L 58.467199 67.928463 
L 59.759078 65.564454 
L 61.050957 63.296285 
L 62.342835 61.122689 
L 63.634714 59.041774 
L 64.926593 57.051183 
L 66.218472 55.148227 
L 67.51035 53.329985 
L 68.802229 51.593386 
L 70.094108 49.935276 
L 71.385986 48.352469 
L 72.677865 46.841782 
L 73.969744 45.400071 
L 75.261623 44.02425 
L 76.553501 42.711311 
L 77.84538 41.458336 
L 79.137259 40.262502 
L 80.429138 39.121092 
L 81.721016 38.031497 
L 83.012895 36.991215 
L 84.304774 35.997854 
L 85.596652 35.049129 
L 86.888531 34.14286 
L 88.18041 33.276974 
L 89.472289 32.449494 
L 90.764167 31.658542 
L 92.056046 30.902333 
L 93.347925 30.179172 
L 94.639804 29.487449 
L 95.931682 28.825637 
L 97.223561 28.192286 
L 98.51544 27.586021 
L 99.807319 27.005539 
L 101.099197 26.449601 
L 102.391076 25.917037 
L 103.682955 25.406733 
L 104.974833 24.917634 
L 106.266712 24.448741 
L 107.558591 23.999105 
L 108.85047 23.567826 
L 110.142348 23.154049 
L 111.434227 22.756966 
L 112.726106 22.375808 
L 114.017985 22.009845 
L 115.309863 21.658385 
L 116.601742 21.32077 
L 117.893621 20.996377 
L 119.1855 20.684612 
L 120.477378 20.384912 
L 121.769257 20.096741 
L 123.061136 19.819592 
L 124.353014 19.55298 
L 125.644893 19.296445 
L 126.936772 19.049551 
L 128.228651 18.81188 
L 129.520529 18.583038 
L 130.812408 18.362647 
L 132.104287 18.150348 
L 133.396166 17.9458 
L 134.688044 17.748677 
L 135.979923 17.55867 
L 137.271802 17.375482 
L 138.56368 17.198832 
L 139.855559 17.028452 
L 141.147438 16.864086 
L 142.439317 16.705489 
L 143.731195 16.552427 
L 145.023074 16.40468 
L 146.314953 16.262033 
L 147.606832 16.124285 
L 148.89871 15.991242 
L 150.190589 15.862718 
L 151.482468 15.738537 
L 152.774347 15.61853 
L 154.066225 15.502535 
L 155.358104 15.390398 
L 156.649983 15.281971 
L 157.941861 15.177113 
L 159.23374 15.075688 
" clip-path="url(#pa54996d006)" style="fill: none; stroke: #000000; stroke-linecap: square"/>
    <defs>
     <path id="m1ebef48d34" d="M 0 -1 
L -1 1 
L 1 1 
z
" style="stroke: #000000; stroke-width: 0.8; stroke-linejoin: miter"/>
    </defs>
    <g clip-path="url(#pa54996d006)">
     <use xlink:href="#m1ebef48d34" x="31.337746" y="114.692279" style="fill-opacity: 0; stroke: #000000; stroke-width: 0.8; stroke-linejoin: miter"/>
     <use xlink:href="#m1ebef48d34" x="44.256533" y="99.061983" style="fill-opacity: 0; stroke: #000000; stroke-width: 0.8; stroke-linejoin: miter"/>
     <use xlink:href="#m1ebef48d34" x="57.17532" y="70.388748" style="fill-opacity: 0; stroke: #000000; stroke-width: 0.8; stroke-linejoin: miter"/>
     <use xlink:href="#m1ebef48d34" x="70.094108" y="49.935276" style="fill-opacity: 0; stroke: #000000; stroke-width: 0.8; stroke-linejoin: miter"/>
     <use xlink:href="#m1ebef48d34" x="83.012895" y="36.991215" style="fill-opacity: 0; stroke: #000000; stroke-width: 0.8; stroke-linejoin: miter"/>
     <use xlink:href="#m1ebef48d34" x="95.931682" y="28.825637" style="fill-opacity: 0; stroke: #000000; stroke-width: 0.8; stroke-linejoin: miter"/>
     <use xlink:href="#m1ebef48d34" x="108.85047" y="23.567826" style="fill-opacity: 0; stroke: #000000; stroke-width: 0.8; stroke-linejoin: miter"/>
     <use xlink:href="#m1ebef48d34" x="121.769257" y="20.096741" style="fill-opacity: 0; stroke: #000000; stroke-width: 0.8; stroke-linejoin: miter"/>
     <use xlink:href="#m1ebef48d34" x="134.688044" y="17.748677" style="fill-opacity: 0; stroke: #000000; stroke-width: 0.8; stroke-linejoin: miter"/>
     <use xlink:href="#m1ebef48d34" x="147.606832" y="16.124285" style="fill-opacity: 0; stroke: #000000; stroke-width: 0.8; stroke-linejoin: miter"/>
    </g>
   </g>
   <g id="line2d_45">
    <path d="M 31.337746 114.692283 
L 32.629625 114.686229 
L 33.921503 114.590172 
L 35.213382 114.225541 
L 36.505261 113.447303 
L 37.797139 112.1957 
L 39.089018 110.480586 
L 40.380897 108.353043 
L 41.672776 105.88287 
L 42.964654 103.144257 
L 44.256533 100.20777 
L 45.548412 97.136466 
L 46.840291 93.984455 
L 48.132169 90.79684 
L 49.424048 87.610356 
L 50.715927 84.454309 
L 52.007805 81.351614 
L 53.299684 78.319789 
L 54.591563 75.371869 
L 55.883442 72.517213 
L 57.17532 69.762189 
L 58.467199 67.11076 
L 59.759078 64.564972 
L 61.050957 62.125354 
L 62.342835 59.791256 
L 63.634714 57.561114 
L 64.926593 55.432674 
L 66.218472 53.403171 
L 67.51035 51.469472 
L 68.802229 49.628193 
L 70.094108 47.875788 
L 71.385986 46.208625 
L 72.677865 44.623043 
L 73.969744 43.115392 
L 75.261623 41.682077 
L 76.553501 40.319575 
L 77.84538 39.024458 
L 79.137259 37.793407 
L 80.429138 36.623222 
L 81.721016 35.510827 
L 83.012895 34.453275 
L 84.304774 33.447749 
L 85.596652 32.49156 
L 86.888531 31.582147 
L 88.18041 30.717074 
L 89.472289 29.894028 
L 90.764167 29.110812 
L 92.056046 28.365343 
L 93.347925 27.655649 
L 94.639804 26.979859 
L 95.931682 26.336206 
L 97.223561 25.723015 
L 98.51544 25.138703 
L 99.807319 24.581772 
L 101.099197 24.050806 
L 102.391076 23.544468 
L 103.682955 23.061492 
L 104.974833 22.600681 
L 106.266712 22.160907 
L 107.558591 21.741099 
L 108.85047 21.340248 
L 110.142348 20.957399 
L 111.434227 20.591648 
L 112.726106 20.242143 
L 114.017985 19.908076 
L 115.309863 19.588682 
L 116.601742 19.28324 
L 117.893621 18.991066 
L 119.1855 18.711513 
L 120.477378 18.443969 
L 121.769257 18.187853 
L 123.061136 17.942617 
L 124.353014 17.707741 
L 125.644893 17.482733 
L 126.936772 17.267125 
L 128.228651 17.060475 
L 129.520529 16.862363 
L 130.812408 16.672393 
L 132.104287 16.490186 
L 133.396166 16.315386 
L 134.688044 16.147651 
L 135.979923 15.98666 
L 137.271802 15.832107 
L 138.56368 15.683701 
L 139.855559 15.541166 
L 141.147438 15.40424 
L 142.439317 15.272673 
L 143.731195 15.146229 
L 145.023074 15.024681 
L 146.314953 14.907817 
L 147.606832 14.795431 
L 148.89871 14.68733 
L 150.190589 14.583329 
L 151.482468 14.483252 
L 152.774347 14.386932 
L 154.066225 14.29421 
L 155.358104 14.204933 
L 156.649983 14.118957 
L 157.941861 14.036144 
L 159.23374 13.956362 
" clip-path="url(#pa54996d006)" style="fill: none; stroke-dasharray: 2.96,1.28; stroke-dashoffset: 0; stroke: #dc0000; stroke-width: 0.8"/>
    <defs>
     <path id="m385f4fcb9d" d="M 0 -1 
L -1 1 
L 1 1 
z
" style="stroke: #dc0000; stroke-width: 0.8; stroke-linejoin: miter"/>
    </defs>
    <g clip-path="url(#pa54996d006)">
     <use xlink:href="#m385f4fcb9d" x="31.337746" y="114.692283" style="fill-opacity: 0; stroke: #dc0000; stroke-width: 0.8; stroke-linejoin: miter"/>
     <use xlink:href="#m385f4fcb9d" x="44.256533" y="100.20777" style="fill-opacity: 0; stroke: #dc0000; stroke-width: 0.8; stroke-linejoin: miter"/>
     <use xlink:href="#m385f4fcb9d" x="57.17532" y="69.762189" style="fill-opacity: 0; stroke: #dc0000; stroke-width: 0.8; stroke-linejoin: miter"/>
     <use xlink:href="#m385f4fcb9d" x="70.094108" y="47.875788" style="fill-opacity: 0; stroke: #dc0000; stroke-width: 0.8; stroke-linejoin: miter"/>
     <use xlink:href="#m385f4fcb9d" x="83.012895" y="34.453275" style="fill-opacity: 0; stroke: #dc0000; stroke-width: 0.8; stroke-linejoin: miter"/>
     <use xlink:href="#m385f4fcb9d" x="95.931682" y="26.336206" style="fill-opacity: 0; stroke: #dc0000; stroke-width: 0.8; stroke-linejoin: miter"/>
     <use xlink:href="#m385f4fcb9d" x="108.85047" y="21.340248" style="fill-opacity: 0; stroke: #dc0000; stroke-width: 0.8; stroke-linejoin: miter"/>
     <use xlink:href="#m385f4fcb9d" x="121.769257" y="18.187853" style="fill-opacity: 0; stroke: #dc0000; stroke-width: 0.8; stroke-linejoin: miter"/>
     <use xlink:href="#m385f4fcb9d" x="134.688044" y="16.147651" style="fill-opacity: 0; stroke: #dc0000; stroke-width: 0.8; stroke-linejoin: miter"/>
     <use xlink:href="#m385f4fcb9d" x="147.606832" y="14.795431" style="fill-opacity: 0; stroke: #dc0000; stroke-width: 0.8; stroke-linejoin: miter"/>
    </g>
   </g>
   <g id="line2d_46">
    <path d="M 31.337746 114.692283 
L 32.629625 114.689462 
L 33.921503 114.639977 
L 35.213382 114.436811 
L 36.505261 113.974932 
L 37.797139 113.192085 
L 39.089018 112.070039 
L 40.380897 110.622356 
L 41.672776 108.881617 
L 42.964654 106.889707 
L 44.256533 104.691346 
L 45.548412 102.330158 
L 46.840291 99.846494 
L 48.132169 97.276392 
L 49.424048 94.65124 
L 50.715927 91.997854 
L 52.007805 89.338779 
L 53.299684 86.692695 
L 54.591563 84.074872 
L 55.883442 81.497606 
L 57.17532 78.970642 
L 58.467199 76.501549 
L 59.759078 74.09606 
L 61.050957 71.758368 
L 62.342835 69.491384 
L 63.634714 67.296953 
L 64.926593 65.176047 
L 66.218472 63.128925 
L 67.51035 61.155262 
L 68.802229 59.254273 
L 70.094108 57.424799 
L 71.385986 55.665394 
L 72.677865 53.974389 
L 73.969744 52.349945 
L 75.261623 50.790107 
L 76.553501 49.292832 
L 77.84538 47.856029 
L 79.137259 46.477578 
L 80.429138 45.155356 
L 81.721016 43.88725 
L 83.012895 42.671173 
L 84.304774 41.505073 
L 85.596652 40.386941 
L 86.888531 39.31482 
L 88.18041 38.286807 
L 89.472289 37.301057 
L 90.764167 36.355786 
L 92.056046 35.449273 
L 93.347925 34.579859 
L 94.639804 33.745947 
L 95.931682 32.946003 
L 97.223561 32.178555 
L 98.51544 31.442191 
L 99.807319 30.735558 
L 101.099197 30.057361 
L 102.391076 29.40636 
L 103.682955 28.781368 
L 104.974833 28.181253 
L 106.266712 27.604932 
L 107.558591 27.051369 
L 108.85047 26.519576 
L 110.142348 26.00861 
L 111.434227 25.51757 
L 112.726106 25.045595 
L 114.017985 24.591865 
L 115.309863 24.155596 
L 116.601742 23.736042 
L 117.893621 23.332488 
L 119.1855 22.944255 
L 120.477378 22.570692 
L 121.769257 22.21118 
L 123.061136 21.865127 
L 124.353014 21.531968 
L 125.644893 21.211165 
L 126.936772 20.902204 
L 128.228651 20.604593 
L 129.520529 20.317863 
L 130.812408 20.041567 
L 132.104287 19.775278 
L 133.396166 19.518587 
L 134.688044 19.271104 
L 135.979923 19.032457 
L 137.271802 18.80229 
L 138.56368 18.580262 
L 139.855559 18.366049 
L 141.147438 18.15934 
L 142.439317 17.959837 
L 143.731195 17.767257 
L 145.023074 17.581327 
L 146.314953 17.401789 
L 147.606832 17.228393 
L 148.89871 17.060901 
L 150.190589 16.899087 
L 151.482468 16.742731 
L 152.774347 16.591625 
L 154.066225 16.445569 
L 155.358104 16.304373 
L 156.649983 16.167853 
L 157.941861 16.035833 
L 159.23374 15.908145 
" clip-path="url(#pa54996d006)" style="fill: none; stroke-dasharray: 5.12,1.28,0.8,1.28; stroke-dashoffset: 0; stroke: #3c5488; stroke-width: 0.8"/>
    <defs>
     <path id="meeefbaaefb" d="M 0 -1 
L -1 1 
L 1 1 
z
" style="stroke: #3c5488; stroke-width: 0.8; stroke-linejoin: miter"/>
    </defs>
    <g clip-path="url(#pa54996d006)">
     <use xlink:href="#meeefbaaefb" x="31.337746" y="114.692283" style="fill-opacity: 0; stroke: #3c5488; stroke-width: 0.8; stroke-linejoin: miter"/>
     <use xlink:href="#meeefbaaefb" x="44.256533" y="104.691346" style="fill-opacity: 0; stroke: #3c5488; stroke-width: 0.8; stroke-linejoin: miter"/>
     <use xlink:href="#meeefbaaefb" x="57.17532" y="78.970642" style="fill-opacity: 0; stroke: #3c5488; stroke-width: 0.8; stroke-linejoin: miter"/>
     <use xlink:href="#meeefbaaefb" x="70.094108" y="57.424799" style="fill-opacity: 0; stroke: #3c5488; stroke-width: 0.8; stroke-linejoin: miter"/>
     <use xlink:href="#meeefbaaefb" x="83.012895" y="42.671173" style="fill-opacity: 0; stroke: #3c5488; stroke-width: 0.8; stroke-linejoin: miter"/>
     <use xlink:href="#meeefbaaefb" x="95.931682" y="32.946003" style="fill-opacity: 0; stroke: #3c5488; stroke-width: 0.8; stroke-linejoin: miter"/>
     <use xlink:href="#meeefbaaefb" x="108.85047" y="26.519576" style="fill-opacity: 0; stroke: #3c5488; stroke-width: 0.8; stroke-linejoin: miter"/>
     <use xlink:href="#meeefbaaefb" x="121.769257" y="22.21118" style="fill-opacity: 0; stroke: #3c5488; stroke-width: 0.8; stroke-linejoin: miter"/>
     <use xlink:href="#meeefbaaefb" x="134.688044" y="19.271104" style="fill-opacity: 0; stroke: #3c5488; stroke-width: 0.8; stroke-linejoin: miter"/>
     <use xlink:href="#meeefbaaefb" x="147.606832" y="17.228393" style="fill-opacity: 0; stroke: #3c5488; stroke-width: 0.8; stroke-linejoin: miter"/>
    </g>
   </g>
   <g id="line2d_47">
    <path d="M 31.337746 114.692283 
L 32.629625 114.689263 
L 33.921503 114.644716 
L 35.213382 114.476451 
L 36.505261 114.109731 
L 37.797139 113.501394 
L 39.089018 112.638155 
L 40.380897 111.52787 
L 41.672776 110.19118 
L 42.964654 108.655308 
L 44.256533 106.949911 
L 45.548412 105.104514 
L 46.840291 103.147019 
L 48.132169 101.102923 
L 49.424048 98.994998 
L 50.715927 96.843228 
L 52.007805 94.664923 
L 53.299684 92.474904 
L 54.591563 90.285739 
L 55.883442 88.107984 
L 57.17532 85.950423 
L 58.467199 83.82029 
L 59.759078 81.723475 
L 61.050957 79.66471 
L 62.342835 77.647735 
L 63.634714 75.675438 
L 64.926593 73.749984 
L 66.218472 71.872926 
L 67.51035 70.045299 
L 68.802229 68.267704 
L 70.094108 66.540375 
L 71.385986 64.863245 
L 72.677865 63.235994 
L 73.969744 61.658097 
L 75.261623 60.128859 
L 76.553501 58.647451 
L 77.84538 57.212934 
L 79.137259 55.824285 
L 80.429138 54.480418 
L 81.721016 53.180198 
L 83.012895 51.922457 
L 84.304774 50.706005 
L 85.596652 49.529642 
L 86.888531 48.392165 
L 88.18041 47.292373 
L 89.472289 46.229078 
L 90.764167 45.201105 
L 92.056046 44.207297 
L 93.347925 43.246521 
L 94.639804 42.317664 
L 95.931682 41.419643 
L 97.223561 40.5514 
L 98.51544 39.711906 
L 99.807319 38.900162 
L 101.099197 38.115195 
L 102.391076 37.356067 
L 103.682955 36.621865 
L 104.974833 35.911708 
L 106.266712 35.224744 
L 107.558591 34.56015 
L 108.85047 33.917129 
L 110.142348 33.294915 
L 111.434227 32.692767 
L 112.726106 32.109971 
L 114.017985 31.545839 
L 115.309863 30.999707 
L 116.601742 30.470937 
L 117.893621 29.958913 
L 119.1855 29.463042 
L 120.477378 28.982754 
L 121.769257 28.517499 
L 123.061136 28.066749 
L 124.353014 27.629993 
L 125.644893 27.206742 
L 126.936772 26.796525 
L 128.228651 26.398888 
L 129.520529 26.013394 
L 130.812408 25.639622 
L 132.104287 25.277168 
L 133.396166 24.925642 
L 134.688044 24.584671 
L 135.979923 24.253893 
L 137.271802 23.932961 
L 138.56368 23.621541 
L 139.855559 23.319311 
L 141.147438 23.025962 
L 142.439317 22.741196 
L 143.731195 22.464725 
L 145.023074 22.196273 
L 146.314953 21.935574 
L 147.606832 21.682371 
L 148.89871 21.436418 
L 150.190589 21.197476 
L 151.482468 20.965316 
L 152.774347 20.739718 
L 154.066225 20.520469 
L 155.358104 20.307363 
L 156.649983 20.100203 
L 157.941861 19.898798 
L 159.23374 19.702965 
" clip-path="url(#pa54996d006)" style="fill: none; stroke: #000000; stroke-linecap: square"/>
    <defs>
     <path id="m75abfdd4ad" d="M -1 1 
L 1 1 
L 1 -1 
L -1 -1 
z
" style="stroke: #000000; stroke-width: 0.8; stroke-linejoin: miter"/>
    </defs>
    <g clip-path="url(#pa54996d006)">
     <use xlink:href="#m75abfdd4ad" x="31.337746" y="114.692283" style="fill-opacity: 0; stroke: #000000; stroke-width: 0.8; stroke-linejoin: miter"/>
     <use xlink:href="#m75abfdd4ad" x="44.256533" y="106.949911" style="fill-opacity: 0; stroke: #000000; stroke-width: 0.8; stroke-linejoin: miter"/>
     <use xlink:href="#m75abfdd4ad" x="57.17532" y="85.950423" style="fill-opacity: 0; stroke: #000000; stroke-width: 0.8; stroke-linejoin: miter"/>
     <use xlink:href="#m75abfdd4ad" x="70.094108" y="66.540375" style="fill-opacity: 0; stroke: #000000; stroke-width: 0.8; stroke-linejoin: miter"/>
     <use xlink:href="#m75abfdd4ad" x="83.012895" y="51.922457" style="fill-opacity: 0; stroke: #000000; stroke-width: 0.8; stroke-linejoin: miter"/>
     <use xlink:href="#m75abfdd4ad" x="95.931682" y="41.419643" style="fill-opacity: 0; stroke: #000000; stroke-width: 0.8; stroke-linejoin: miter"/>
     <use xlink:href="#m75abfdd4ad" x="108.85047" y="33.917129" style="fill-opacity: 0; stroke: #000000; stroke-width: 0.8; stroke-linejoin: miter"/>
     <use xlink:href="#m75abfdd4ad" x="121.769257" y="28.517499" style="fill-opacity: 0; stroke: #000000; stroke-width: 0.8; stroke-linejoin: miter"/>
     <use xlink:href="#m75abfdd4ad" x="134.688044" y="24.584671" style="fill-opacity: 0; stroke: #000000; stroke-width: 0.8; stroke-linejoin: miter"/>
     <use xlink:href="#m75abfdd4ad" x="147.606832" y="21.682371" style="fill-opacity: 0; stroke: #000000; stroke-width: 0.8; stroke-linejoin: miter"/>
    </g>
   </g>
   <g id="line2d_48">
    <path d="M 31.337746 114.692283 
L 32.629625 114.691336 
L 33.921503 114.670496 
L 35.213382 114.571313 
L 36.505261 114.320809 
L 37.797139 113.860933 
L 39.089018 113.158506 
L 40.380897 112.203382 
L 41.672776 111.002689 
L 42.964654 109.574913 
L 44.256533 107.945066 
L 45.548412 106.141159 
L 46.840291 104.191798 
L 48.132169 102.124652 
L 49.424048 99.965532 
L 50.715927 97.737918 
L 52.007805 95.462754 
L 53.299684 93.158447 
L 54.591563 90.840958 
L 55.883442 88.523982 
L 57.17532 86.219133 
L 58.467199 83.936167 
L 59.759078 81.683182 
L 61.050957 79.46682 
L 62.342835 77.292451 
L 63.634714 75.164341 
L 64.926593 73.085803 
L 66.218472 71.059334 
L 67.51035 69.086732 
L 68.802229 67.169199 
L 70.094108 65.307439 
L 71.385986 63.501729 
L 72.677865 61.751995 
L 73.969744 60.057869 
L 75.261623 58.418741 
L 76.553501 56.833803 
L 77.84538 55.302085 
L 79.137259 53.822493 
L 80.429138 52.393832 
L 81.721016 51.01483 
L 83.012895 49.684161 
L 84.304774 48.400458 
L 85.596652 47.162333 
L 86.888531 45.968383 
L 88.18041 44.817202 
L 89.472289 43.707391 
L 90.764167 42.637564 
L 92.056046 41.606355 
L 93.347925 40.612417 
L 94.639804 39.654433 
L 95.931682 38.731116 
L 97.223561 37.841208 
L 98.51544 36.983488 
L 99.807319 36.156768 
L 101.099197 35.359894 
L 102.391076 34.591751 
L 103.682955 33.851259 
L 104.974833 33.137373 
L 106.266712 32.449084 
L 107.558591 31.785421 
L 108.85047 31.145444 
L 110.142348 30.52825 
L 111.434227 29.932968 
L 112.726106 29.358761 
L 114.017985 28.80482 
L 115.309863 28.270372 
L 116.601742 27.754671 
L 117.893621 27.256999 
L 119.1855 26.776668 
L 120.477378 26.313016 
L 121.769257 25.865408 
L 123.061136 25.433234 
L 124.353014 25.015907 
L 125.644893 24.612864 
L 126.936772 24.223565 
L 128.228651 23.847492 
L 129.520529 23.484146 
L 130.812408 23.133049 
L 132.104287 22.793744 
L 133.396166 22.465788 
L 134.688044 22.148759 
L 135.979923 21.842252 
L 137.271802 21.545877 
L 138.56368 21.25926 
L 139.855559 20.982041 
L 141.147438 20.713877 
L 142.439317 20.454435 
L 143.731195 20.203399 
L 145.023074 19.960462 
L 146.314953 19.725332 
L 147.606832 19.497728 
L 148.89871 19.277378 
L 150.190589 19.064023 
L 151.482468 18.857413 
L 152.774347 18.657308 
L 154.066225 18.463479 
L 155.358104 18.275703 
L 156.649983 18.093768 
L 157.941861 17.917469 
L 159.23374 17.746609 
" clip-path="url(#pa54996d006)" style="fill: none; stroke-dasharray: 2.96,1.28; stroke-dashoffset: 0; stroke: #dc0000; stroke-width: 0.8"/>
    <defs>
     <path id="m71e9d01451" d="M -1 1 
L 1 1 
L 1 -1 
L -1 -1 
z
" style="stroke: #dc0000; stroke-width: 0.8; stroke-linejoin: miter"/>
    </defs>
    <g clip-path="url(#pa54996d006)">
     <use xlink:href="#m71e9d01451" x="31.337746" y="114.692283" style="fill-opacity: 0; stroke: #dc0000; stroke-width: 0.8; stroke-linejoin: miter"/>
     <use xlink:href="#m71e9d01451" x="44.256533" y="107.945066" style="fill-opacity: 0; stroke: #dc0000; stroke-width: 0.8; stroke-linejoin: miter"/>
     <use xlink:href="#m71e9d01451" x="57.17532" y="86.219133" style="fill-opacity: 0; stroke: #dc0000; stroke-width: 0.8; stroke-linejoin: miter"/>
     <use xlink:href="#m71e9d01451" x="70.094108" y="65.307439" style="fill-opacity: 0; stroke: #dc0000; stroke-width: 0.8; stroke-linejoin: miter"/>
     <use xlink:href="#m71e9d01451" x="83.012895" y="49.684161" style="fill-opacity: 0; stroke: #dc0000; stroke-width: 0.8; stroke-linejoin: miter"/>
     <use xlink:href="#m71e9d01451" x="95.931682" y="38.731116" style="fill-opacity: 0; stroke: #dc0000; stroke-width: 0.8; stroke-linejoin: miter"/>
     <use xlink:href="#m71e9d01451" x="108.85047" y="31.145444" style="fill-opacity: 0; stroke: #dc0000; stroke-width: 0.8; stroke-linejoin: miter"/>
     <use xlink:href="#m71e9d01451" x="121.769257" y="25.865408" style="fill-opacity: 0; stroke: #dc0000; stroke-width: 0.8; stroke-linejoin: miter"/>
     <use xlink:href="#m71e9d01451" x="134.688044" y="22.148759" style="fill-opacity: 0; stroke: #dc0000; stroke-width: 0.8; stroke-linejoin: miter"/>
     <use xlink:href="#m71e9d01451" x="147.606832" y="19.497728" style="fill-opacity: 0; stroke: #dc0000; stroke-width: 0.8; stroke-linejoin: miter"/>
    </g>
   </g>
   <g id="line2d_49">
    <path d="M 31.337746 114.692283 
L 32.629625 114.691924 
L 33.921503 114.683039 
L 35.213382 114.636835 
L 36.505261 114.511557 
L 37.797139 114.26765 
L 39.089018 113.875948 
L 40.380897 113.319501 
L 41.672776 112.592248 
L 42.964654 111.69661 
L 44.256533 110.641053 
L 45.548412 109.437984 
L 46.840291 108.102108 
L 48.132169 106.649202 
L 49.424048 105.095248 
L 50.715927 103.455834 
L 52.007805 101.74577 
L 53.299684 99.978859 
L 54.591563 98.167769 
L 55.883442 96.323991 
L 57.17532 94.457843 
L 58.467199 92.57851 
L 59.759078 90.694104 
L 61.050957 88.811743 
L 62.342835 86.937624 
L 63.634714 85.077106 
L 64.926593 83.234793 
L 66.218472 81.414603 
L 67.51035 79.619846 
L 68.802229 77.853289 
L 70.094108 76.117213 
L 71.385986 74.413474 
L 72.677865 72.743553 
L 73.969744 71.108597 
L 75.261623 69.509466 
L 76.553501 67.946765 
L 77.84538 66.420881 
L 79.137259 64.932009 
L 80.429138 63.480178 
L 81.721016 62.065278 
L 83.012895 60.687073 
L 84.304774 59.345228 
L 85.596652 58.039319 
L 86.888531 56.768847 
L 88.18041 55.533252 
L 89.472289 54.331926 
L 90.764167 53.164217 
L 92.056046 52.029442 
L 93.347925 50.926893 
L 94.639804 49.855841 
L 95.931682 48.815546 
L 97.223561 47.805257 
L 98.51544 46.82422 
L 99.807319 45.871678 
L 101.099197 44.946879 
L 102.391076 44.049072 
L 103.682955 43.177516 
L 104.974833 42.331475 
L 106.266712 41.510228 
L 107.558591 40.713063 
L 108.85047 39.939279 
L 110.142348 39.188191 
L 111.434227 38.459129 
L 112.726106 37.751435 
L 114.017985 37.064468 
L 115.309863 36.397603 
L 116.601742 35.750229 
L 117.893621 35.121752 
L 119.1855 34.511593 
L 120.477378 33.919191 
L 121.769257 33.343998 
L 123.061136 32.785482 
L 124.353014 32.243129 
L 125.644893 31.716436 
L 126.936772 31.204918 
L 128.228651 30.708104 
L 129.520529 30.225537 
L 130.812408 29.756773 
L 132.104287 29.301385 
L 133.396166 28.858955 
L 134.688044 28.429081 
L 135.979923 28.011373 
L 137.271802 27.605455 
L 138.56368 27.210959 
L 139.855559 26.827532 
L 141.147438 26.454833 
L 142.439317 26.092529 
L 143.731195 25.740299 
L 145.023074 25.397835 
L 146.314953 25.064834 
L 147.606832 24.741008 
L 148.89871 24.426074 
L 150.190589 24.119762 
L 151.482468 23.821808 
L 152.774347 23.531958 
L 154.066225 23.249965 
L 155.358104 22.975592 
L 156.649983 22.708609 
L 157.941861 22.448792 
L 159.23374 22.195927 
" clip-path="url(#pa54996d006)" style="fill: none; stroke-dasharray: 5.12,1.28,0.8,1.28; stroke-dashoffset: 0; stroke: #3c5488; stroke-width: 0.8"/>
    <defs>
     <path id="m7471a21f40" d="M -1 1 
L 1 1 
L 1 -1 
L -1 -1 
z
" style="stroke: #3c5488; stroke-width: 0.8; stroke-linejoin: miter"/>
    </defs>
    <g clip-path="url(#pa54996d006)">
     <use xlink:href="#m7471a21f40" x="31.337746" y="114.692283" style="fill-opacity: 0; stroke: #3c5488; stroke-width: 0.8; stroke-linejoin: miter"/>
     <use xlink:href="#m7471a21f40" x="44.256533" y="110.641053" style="fill-opacity: 0; stroke: #3c5488; stroke-width: 0.8; stroke-linejoin: miter"/>
     <use xlink:href="#m7471a21f40" x="57.17532" y="94.457843" style="fill-opacity: 0; stroke: #3c5488; stroke-width: 0.8; stroke-linejoin: miter"/>
     <use xlink:href="#m7471a21f40" x="70.094108" y="76.117213" style="fill-opacity: 0; stroke: #3c5488; stroke-width: 0.8; stroke-linejoin: miter"/>
     <use xlink:href="#m7471a21f40" x="83.012895" y="60.687073" style="fill-opacity: 0; stroke: #3c5488; stroke-width: 0.8; stroke-linejoin: miter"/>
     <use xlink:href="#m7471a21f40" x="95.931682" y="48.815546" style="fill-opacity: 0; stroke: #3c5488; stroke-width: 0.8; stroke-linejoin: miter"/>
     <use xlink:href="#m7471a21f40" x="108.85047" y="39.939279" style="fill-opacity: 0; stroke: #3c5488; stroke-width: 0.8; stroke-linejoin: miter"/>
     <use xlink:href="#m7471a21f40" x="121.769257" y="33.343998" style="fill-opacity: 0; stroke: #3c5488; stroke-width: 0.8; stroke-linejoin: miter"/>
     <use xlink:href="#m7471a21f40" x="134.688044" y="28.429081" style="fill-opacity: 0; stroke: #3c5488; stroke-width: 0.8; stroke-linejoin: miter"/>
     <use xlink:href="#m7471a21f40" x="147.606832" y="24.741008" style="fill-opacity: 0; stroke: #3c5488; stroke-width: 0.8; stroke-linejoin: miter"/>
    </g>
   </g>
   <g id="patch_3">
    <path d="M 30.91 114.692283 
L 30.91 11.52 
" style="fill: none; stroke: #000000; stroke-width: 0.5; stroke-linejoin: miter; stroke-linecap: square"/>
   </g>
   <g id="patch_4">
    <path d="M 159.23374 114.692283 
L 159.23374 11.52 
" style="fill: none; stroke: #000000; stroke-width: 0.5; stroke-linejoin: miter; stroke-linecap: square"/>
   </g>
   <g id="patch_5">
    <path d="M 30.91 114.692283 
L 159.23374 114.692283 
" style="fill: none; stroke: #000000; stroke-width: 0.5; stroke-linejoin: miter; stroke-linecap: square"/>
   </g>
   <g id="patch_6">
    <path d="M 30.91 11.52 
L 159.23374 11.52 
" style="fill: none; stroke: #000000; stroke-width: 0.5; stroke-linejoin: miter; stroke-linecap: square"/>
   </g>
  </g>
 </g>
 <defs>
  <clipPath id="pa54996d006">
   <rect x="30.91" y="11.52" width="128.32374" height="103.172283"/>
  </clipPath>
 </defs>
</svg>
