<?xml version="1.0" encoding="utf-8" standalone="no"?>
<!DOCTYPE svg PUBLIC "-//W3C//DTD SVG 1.1//EN"
  "http://www.w3.org/Graphics/SVG/1.1/DTD/svg11.dtd">
<svg xmlns:xlink="http://www.w3.org/1999/xlink" width="170.07874pt" height="104.88189pt" viewBox="0 0 170.07874 104.88189" xmlns="http://www.w3.org/2000/svg" version="1.1">
 <metadata>
  <rdf:RDF xmlns:dc="http://purl.org/dc/elements/1.1/" xmlns:cc="http://creativecommons.org/ns#" xmlns:rdf="http://www.w3.org/1999/02/22-rdf-syntax-ns#">
   <cc:Work>
    <dc:type rdf:resource="http://purl.org/dc/dcmitype/StillImage"/>
    <dc:date>2025-01-06T16:40:00.239129</dc:date>
    <dc:format>image/svg+xml</dc:format>
    <dc:creator>
     <cc:Agent>
      <dc:title>Matplotlib v3.5.2, https://matplotlib.org/</dc:title>
     </cc:Agent>
    </dc:creator>
   </cc:Work>
  </rdf:RDF>
 </metadata>
 <defs>
  <style type="text/css">*{stroke-linejoin: round; stroke-linecap: butt}</style>
 </defs>
 <g id="figure_1">
  <g id="patch_1">
   <path d="M 0 104.88189 
L 170.07874 104.88189 
L 170.07874 0 
L 0 0 
z
" style="fill: #ffffff"/>
  </g>
  <g id="axes_1">
   <g id="patch_2">
    <path d="M 35.32 69.67439 
L 154.776623 69.67439 
L 154.776623 11.52 
L 35.32 11.52 
z
" style="fill: #ffffff"/>
   </g>
   <g id="PolyCollection_1">
    <path d="M -29798.971672 69.419327 
L 85.862758 69.419327 
L 86.65775 69.164264 
L 87.179663 68.9092 
L 88.303946 68.654137 
L 90.51241 68.399074 
L 91.252223 68.144011 
L 91.265805 67.888948 
L 91.500486 67.633885 
L 91.60308 67.378822 
L 92.151384 67.123759 
L 93.30863 66.868696 
L 93.332985 66.613632 
L 93.759938 66.358569 
L 93.940539 66.103506 
L 94.044273 65.848443 
L 94.258518 65.59338 
L 94.815383 65.338317 
L 94.885643 65.083254 
L 95.628209 64.828191 
L 95.868177 64.573128 
L 96.17259 64.318064 
L 96.283172 64.063001 
L 96.592813 63.807938 
L 96.6271 63.552875 
L 96.8809 63.297812 
L 97.219425 63.042749 
L 97.283528 62.787686 
L 97.334759 62.532623 
L 97.464081 62.277559 
L 97.765223 62.022496 
L 98.133303 61.767433 
L 98.380153 61.51237 
L 98.497123 61.257307 
L 98.907285 61.002244 
L 99.139192 60.747181 
L 99.181328 60.492118 
L 99.512531 60.237055 
L 99.712296 59.981991 
L 100.151527 59.726928 
L 100.245637 59.471865 
L 100.255491 59.216802 
L 100.699948 58.961739 
L 101.023463 58.706676 
L 101.426905 58.451613 
L 101.564987 58.19655 
L 101.56807 57.941487 
L 101.591075 57.686423 
L 101.758757 57.43136 
L 101.78139 57.176297 
L 101.796936 56.921234 
L 102.066558 56.666171 
L 102.104253 56.411108 
L 102.206536 56.156045 
L 102.360872 55.900982 
L 102.395536 55.645919 
L 102.496781 55.390855 
L 102.525253 55.135792 
L 102.63035 54.880729 
L 103.087976 54.625666 
L 103.286473 54.370603 
L 103.309718 54.11554 
L 103.42259 53.860477 
L 103.512714 53.605414 
L 103.81771 53.350351 
L 103.888586 53.095287 
L 103.962676 52.840224 
L 103.97143 52.585161 
L 103.971624 52.330098 
L 104.07042 52.075035 
L 104.26325 51.819972 
L 104.308206 51.564909 
L 104.406225 51.309846 
L 104.461359 51.054783 
L 104.593179 50.799719 
L 104.656036 50.544656 
L 104.773895 50.289593 
L 104.775725 50.03453 
L 104.808876 49.779467 
L 104.812599 49.524404 
L 104.956686 49.269341 
L 105.125947 49.014278 
L 105.308095 48.759214 
L 105.399732 48.504151 
L 105.7055 48.249088 
L 105.878338 47.994025 
L 105.921225 47.738962 
L 105.97744 47.483899 
L 106.247178 47.228836 
L 106.718264 46.973773 
L 107.100917 46.71871 
L 107.120297 46.463646 
L 107.214921 46.208583 
L 107.259446 45.95352 
L 107.37039 45.698457 
L 107.534686 45.443394 
L 107.826509 45.188331 
L 107.848939 44.933268 
L 108.01459 44.678205 
L 108.056983 44.423142 
L 108.29261 44.168078 
L 108.42735 43.913015 
L 108.659972 43.657952 
L 108.678444 43.402889 
L 109.015955 43.147826 
L 109.521555 42.892763 
L 109.535221 42.6377 
L 109.597655 42.382637 
L 109.624794 42.127574 
L 109.815982 41.87251 
L 109.835143 41.617447 
L 109.990423 41.362384 
L 110.203131 41.107321 
L 110.286666 40.852258 
L 110.450155 40.597195 
L 110.489082 40.342132 
L 110.495868 40.087069 
L 110.772745 39.832006 
L 110.801104 39.576942 
L 110.815342 39.321879 
L 110.825661 39.066816 
L 110.946565 38.811753 
L 111.311125 38.55669 
L 111.378024 38.301627 
L 111.463686 38.046564 
L 111.48519 37.791501 
L 111.533702 37.536438 
L 111.661109 37.281374 
L 111.788449 37.026311 
L 112.017971 36.771248 
L 112.234391 36.516185 
L 112.262327 36.261122 
L 112.618118 36.006059 
L 112.929328 35.750996 
L 112.937737 35.495933 
L 112.941125 35.24087 
L 113.041261 34.985806 
L 113.161474 34.730743 
L 113.191748 34.47568 
L 113.21765 34.220617 
L 113.49308 33.965554 
L 113.580628 33.710491 
L 113.798261 33.455428 
L 113.811813 33.200365 
L 113.951614 32.945301 
L 114.046741 32.690238 
L 114.052402 32.435175 
L 114.596793 32.180112 
L 114.602768 31.925049 
L 114.81239 31.669986 
L 114.897058 31.414923 
L 114.978474 31.15986 
L 115.328677 30.904797 
L 115.36673 30.649733 
L 115.398125 30.39467 
L 115.436514 30.139607 
L 115.910868 29.884544 
L 115.971069 29.629481 
L 116.582284 29.374418 
L 116.890588 29.119355 
L 116.98655 28.864292 
L 117.241384 28.609229 
L 117.62694 28.354165 
L 117.790401 28.099102 
L 117.846919 27.844039 
L 118.358573 27.588976 
L 118.366326 27.333913 
L 118.382251 27.07885 
L 118.467983 26.823787 
L 118.473317 26.568724 
L 118.507993 26.313661 
L 118.686822 26.058597 
L 118.997906 25.803534 
L 119.053223 25.548471 
L 119.19742 25.293408 
L 119.36978 25.038345 
L 119.447929 24.783282 
L 119.571651 24.528219 
L 119.683373 24.273156 
L 120.115389 24.018093 
L 120.129716 23.763029 
L 120.168543 23.507966 
L 120.179487 23.252903 
L 120.246465 22.99784 
L 120.469222 22.742777 
L 120.474759 22.487714 
L 120.972216 22.232651 
L 121.262438 21.977588 
L 121.569343 21.722525 
L 122.216198 21.467461 
L 122.392293 21.212398 
L 122.510622 20.957335 
L 122.510941 20.702272 
L 122.517063 20.447209 
L 122.531038 20.192146 
L 122.928594 19.937083 
L 123.671386 19.68202 
L 123.773991 19.426957 
L 123.837582 19.171893 
L 124.230346 18.91683 
L 124.339994 18.661767 
L 124.591464 18.406704 
L 126.323604 18.151641 
L 126.415597 17.896578 
L 126.477434 17.641515 
L 127.37596 17.386452 
L 127.538135 17.131388 
L 127.642757 16.876325 
L 128.246994 16.621262 
L 128.377325 16.366199 
L 128.5218 16.111136 
L 128.585584 15.856073 
L 129.114275 15.60101 
L 129.200791 15.345947 
L 129.32584 15.090884 
L 129.469787 14.83582 
L 129.667012 14.580757 
L 129.786902 14.325694 
L 129.848731 14.070631 
L 130.060031 13.815568 
L 131.648406 13.560505 
L 131.940444 13.305442 
L 132.327819 13.050379 
L 133.245067 12.795316 
L 133.543756 12.540252 
L 135.202751 12.285189 
L 136.365625 12.030126 
L 138.18662 11.775063 
L 150.056278 11.52 
L 137.882574 11.52 
L 137.882574 11.52 
L 119.966871 11.775063 
L 119.010301 12.030126 
L 116.940457 12.285189 
L 114.099586 12.540252 
L 113.433663 12.795316 
L 111.781115 13.050379 
L 111.253414 13.305442 
L 107.138803 13.560505 
L 106.616591 13.815568 
L 106.394485 14.070631 
L 106.38854 14.325694 
L 105.584873 14.580757 
L 105.26586 14.83582 
L 105.019288 15.090884 
L 104.569485 15.345947 
L 103.342097 15.60101 
L 103.144374 15.856073 
L 101.552871 16.111136 
L 100.618427 16.366199 
L 100.579658 16.621262 
L 99.201174 16.876325 
L 98.988254 17.131388 
L 97.488439 17.386452 
L 96.65329 17.641515 
L 95.413284 17.896578 
L 95.285172 18.151641 
L 95.250823 18.406704 
L 94.503351 18.661767 
L 93.727305 18.91683 
L 93.406039 19.171893 
L 93.177294 19.426957 
L 93.026645 19.68202 
L 92.692979 19.937083 
L 92.218496 20.192146 
L 90.461173 20.447209 
L 89.249525 20.702272 
L 89.187343 20.957335 
L 89.076696 21.212398 
L 88.919515 21.467461 
L 88.834755 21.722525 
L 88.177446 21.977588 
L 88.087214 22.232651 
L 87.3055 22.487714 
L 86.703046 22.742777 
L 86.135975 22.99784 
L 84.576183 23.252903 
L 83.665851 23.507966 
L 82.102725 23.763029 
L 81.365795 24.018093 
L 81.320158 24.273156 
L 79.587088 24.528219 
L 79.287601 24.783282 
L 78.490846 25.038345 
L 77.626991 25.293408 
L 77.446964 25.548471 
L 76.063114 25.803534 
L 75.099435 26.058597 
L 73.469798 26.313661 
L 73.358307 26.568724 
L 71.754773 26.823787 
L 71.578388 27.07885 
L 69.908364 27.333913 
L 68.19932 27.588976 
L 67.935409 27.844039 
L 67.184713 28.099102 
L 65.885866 28.354165 
L 64.98348 28.609229 
L 64.961955 28.864292 
L 63.565393 29.119355 
L 61.078216 29.374418 
L 47.714349 29.629481 
L 37.642307 29.884544 
L 23.711104 30.139607 
L -29798.971672 30.39467 
L -29798.971672 30.649733 
L -29798.971672 30.904797 
L -29798.971672 31.15986 
L -29798.971672 31.414923 
L -29798.971672 31.669986 
L -29798.971672 31.925049 
L -29798.971672 32.180112 
L -29798.971672 32.435175 
L -29798.971672 32.690238 
L -29798.971672 32.945301 
L -29798.971672 33.200365 
L -29798.971672 33.455428 
L -29798.971672 33.710491 
L -29798.971672 33.965554 
L -29798.971672 34.220617 
L -29798.971672 34.47568 
L -29798.971672 34.730743 
L -29798.971672 34.985806 
L -29798.971672 35.24087 
L -29798.971672 35.495933 
L -29798.971672 35.750996 
L -29798.971672 36.006059 
L -29798.971672 36.261122 
L -29798.971672 36.516185 
L -29798.971672 36.771248 
L -29798.971672 37.026311 
L -29798.971672 37.281374 
L -29798.971672 37.536438 
L -29798.971672 37.791501 
L -29798.971672 38.046564 
L -29798.971672 38.301627 
L -29798.971672 38.55669 
L -29798.971672 38.811753 
L -29798.971672 39.066816 
L -29798.971672 39.321879 
L -29798.971672 39.576942 
L -29798.971672 39.832006 
L -29798.971672 40.087069 
L -29798.971672 40.342132 
L -29798.971672 40.597195 
L -29798.971672 40.852258 
L -29798.971672 41.107321 
L -29798.971672 41.362384 
L -29798.971672 41.617447 
L -29798.971672 41.87251 
L -29798.971672 42.127574 
L -29798.971672 42.382637 
L -29798.971672 42.6377 
L -29798.971672 42.892763 
L -29798.971672 43.147826 
L -29798.971672 43.402889 
L -29798.971672 43.657952 
L -29798.971672 43.913015 
L -29798.971672 44.168078 
L -29798.971672 44.423142 
L -29798.971672 44.678205 
L -29798.971672 44.933268 
L -29798.971672 45.188331 
L -29798.971672 45.443394 
L -29798.971672 45.698457 
L -29798.971672 45.95352 
L -29798.971672 46.208583 
L -29798.971672 46.463646 
L -29798.971672 46.71871 
L -29798.971672 46.973773 
L -29798.971672 47.228836 
L -29798.971672 47.483899 
L -29798.971672 47.738962 
L -29798.971672 47.994025 
L -29798.971672 48.249088 
L -29798.971672 48.504151 
L -29798.971672 48.759214 
L -29798.971672 49.014278 
L -29798.971672 49.269341 
L -29798.971672 49.524404 
L -29798.971672 49.779467 
L -29798.971672 50.03453 
L -29798.971672 50.289593 
L -29798.971672 50.544656 
L -29798.971672 50.799719 
L -29798.971672 51.054783 
L -29798.971672 51.309846 
L -29798.971672 51.564909 
L -29798.971672 51.819972 
L -29798.971672 52.075035 
L -29798.971672 52.330098 
L -29798.971672 52.585161 
L -29798.971672 52.840224 
L -29798.971672 53.095287 
L -29798.971672 53.350351 
L -29798.971672 53.605414 
L -29798.971672 53.860477 
L -29798.971672 54.11554 
L -29798.971672 54.370603 
L -29798.971672 54.625666 
L -29798.971672 54.880729 
L -29798.971672 55.135792 
L -29798.971672 55.390855 
L -29798.971672 55.645919 
L -29798.971672 55.900982 
L -29798.971672 56.156045 
L -29798.971672 56.411108 
L -29798.971672 56.666171 
L -29798.971672 56.921234 
L -29798.971672 57.176297 
L -29798.971672 57.43136 
L -29798.971672 57.686423 
L -29798.971672 57.941487 
L -29798.971672 58.19655 
L -29798.971672 58.451613 
L -29798.971672 58.706676 
L -29798.971672 58.961739 
L -29798.971672 59.216802 
L -29798.971672 59.471865 
L -29798.971672 59.726928 
L -29798.971672 59.981991 
L -29798.971672 60.237055 
L -29798.971672 60.492118 
L -29798.971672 60.747181 
L -29798.971672 61.002244 
L -29798.971672 61.257307 
L -29798.971672 61.51237 
L -29798.971672 61.767433 
L -29798.971672 62.022496 
L -29798.971672 62.277559 
L -29798.971672 62.532623 
L -29798.971672 62.787686 
L -29798.971672 63.042749 
L -29798.971672 63.297812 
L -29798.971672 63.552875 
L -29798.971672 63.807938 
L -29798.971672 64.063001 
L -29798.971672 64.318064 
L -29798.971672 64.573128 
L -29798.971672 64.828191 
L -29798.971672 65.083254 
L -29798.971672 65.338317 
L -29798.971672 65.59338 
L -29798.971672 65.848443 
L -29798.971672 66.103506 
L -29798.971672 66.358569 
L -29798.971672 66.613632 
L -29798.971672 66.868696 
L -29798.971672 67.123759 
L -29798.971672 67.378822 
L -29798.971672 67.633885 
L -29798.971672 67.888948 
L -29798.971672 68.144011 
L -29798.971672 68.399074 
L -29798.971672 68.654137 
L -29798.971672 68.9092 
L -29798.971672 69.164264 
L -29798.971672 69.419327 
z
" clip-path="url(#p3b149d19c3)" style="fill: #808080; fill-opacity: 0.4"/>
   </g>
   <g id="matplotlib.axis_1">
    <g id="xtick_1">
     <g id="line2d_1">
      <defs>
       <path id="m0aefff60d0" d="M 0 0 
L 0 -5 
" style="stroke: #000000; stroke-width: 0.5"/>
      </defs>
      <g>
       <use xlink:href="#m0aefff60d0" x="35.32" y="69.67439" style="fill-opacity: 0; stroke: #000000; stroke-width: 0.5"/>
      </g>
     </g>
     <g id="text_1">
      <!-- $\mathdefault{10^{-1}}$ -->
      <g transform="translate(27.4 79.92439)scale(0.08 -0.08)">
       <defs>
        <path id="ArialMT-31" d="M 2384 0 
L 1822 0 
L 1822 3584 
Q 1619 3391 1289 3197 
Q 959 3003 697 2906 
L 697 3450 
Q 1169 3672 1522 3987 
Q 1875 4303 2022 4600 
L 2384 4600 
L 2384 0 
z
" transform="scale(0.015625)"/>
        <path id="ArialMT-30" d="M 266 2259 
Q 266 3072 433 3567 
Q 600 4063 929 4331 
Q 1259 4600 1759 4600 
Q 2128 4600 2406 4451 
Q 2684 4303 2865 4023 
Q 3047 3744 3150 3342 
Q 3253 2941 3253 2259 
Q 3253 1453 3087 958 
Q 2922 463 2592 192 
Q 2263 -78 1759 -78 
Q 1097 -78 719 397 
Q 266 969 266 2259 
z
M 844 2259 
Q 844 1131 1108 757 
Q 1372 384 1759 384 
Q 2147 384 2411 759 
Q 2675 1134 2675 2259 
Q 2675 3391 2411 3762 
Q 2147 4134 1753 4134 
Q 1366 4134 1134 3806 
Q 844 3388 844 2259 
z
" transform="scale(0.015625)"/>
        <path id="ArialMT-2212" d="M 3381 1997 
L 356 1997 
L 356 2522 
L 3381 2522 
L 3381 1997 
z
" transform="scale(0.015625)"/>
       </defs>
       <use xlink:href="#ArialMT-31" transform="translate(0 0.99375)"/>
       <use xlink:href="#ArialMT-30" transform="translate(55.615234 0.99375)"/>
       <use xlink:href="#ArialMT-2212" transform="translate(112.972813 70.6875)scale(0.7)"/>
       <use xlink:href="#ArialMT-31" transform="translate(153.851719 70.6875)scale(0.7)"/>
      </g>
     </g>
    </g>
    <g id="xtick_2">
     <g id="line2d_2">
      <g>
       <use xlink:href="#m0aefff60d0" x="65.184156" y="69.67439" style="fill-opacity: 0; stroke: #000000; stroke-width: 0.5"/>
      </g>
     </g>
     <g id="text_2">
      <!-- $\mathdefault{10^{0}}$ -->
      <g transform="translate(58.904156 79.92439)scale(0.08 -0.08)">
       <use xlink:href="#ArialMT-31" transform="translate(0 0.99375)"/>
       <use xlink:href="#ArialMT-30" transform="translate(55.615234 0.99375)"/>
       <use xlink:href="#ArialMT-30" transform="translate(112.972813 70.6875)scale(0.7)"/>
      </g>
     </g>
    </g>
    <g id="xtick_3">
     <g id="line2d_3">
      <g>
       <use xlink:href="#m0aefff60d0" x="95.048312" y="69.67439" style="fill-opacity: 0; stroke: #000000; stroke-width: 0.5"/>
      </g>
     </g>
     <g id="text_3">
      <!-- $\mathdefault{10^{1}}$ -->
      <g transform="translate(88.768312 79.92439)scale(0.08 -0.08)">
       <use xlink:href="#ArialMT-31" transform="translate(0 0.99375)"/>
       <use xlink:href="#ArialMT-30" transform="translate(55.615234 0.99375)"/>
       <use xlink:href="#ArialMT-31" transform="translate(112.972813 70.6875)scale(0.7)"/>
      </g>
     </g>
    </g>
    <g id="xtick_4">
     <g id="line2d_4">
      <g>
       <use xlink:href="#m0aefff60d0" x="124.912467" y="69.67439" style="fill-opacity: 0; stroke: #000000; stroke-width: 0.5"/>
      </g>
     </g>
     <g id="text_4">
      <!-- $\mathdefault{10^{2}}$ -->
      <g transform="translate(118.632467 79.92439)scale(0.08 -0.08)">
       <defs>
        <path id="ArialMT-32" d="M 3222 541 
L 3222 0 
L 194 0 
Q 188 203 259 391 
Q 375 700 629 1000 
Q 884 1300 1366 1694 
Q 2113 2306 2375 2664 
Q 2638 3022 2638 3341 
Q 2638 3675 2398 3904 
Q 2159 4134 1775 4134 
Q 1369 4134 1125 3890 
Q 881 3647 878 3216 
L 300 3275 
Q 359 3922 746 4261 
Q 1134 4600 1788 4600 
Q 2447 4600 2831 4234 
Q 3216 3869 3216 3328 
Q 3216 3053 3103 2787 
Q 2991 2522 2730 2228 
Q 2469 1934 1863 1422 
Q 1356 997 1212 845 
Q 1069 694 975 541 
L 3222 541 
z
" transform="scale(0.015625)"/>
       </defs>
       <use xlink:href="#ArialMT-31" transform="translate(0 0.99375)"/>
       <use xlink:href="#ArialMT-30" transform="translate(55.615234 0.99375)"/>
       <use xlink:href="#ArialMT-32" transform="translate(112.972813 70.6875)scale(0.7)"/>
      </g>
     </g>
    </g>
    <g id="xtick_5">
     <g id="line2d_5">
      <g>
       <use xlink:href="#m0aefff60d0" x="154.776623" y="69.67439" style="fill-opacity: 0; stroke: #000000; stroke-width: 0.5"/>
      </g>
     </g>
     <g id="text_5">
      <!-- $\mathdefault{10^{3}}$ -->
      <g transform="translate(148.496623 79.92439)scale(0.08 -0.08)">
       <defs>
        <path id="ArialMT-33" d="M 269 1209 
L 831 1284 
Q 928 806 1161 595 
Q 1394 384 1728 384 
Q 2125 384 2398 659 
Q 2672 934 2672 1341 
Q 2672 1728 2419 1979 
Q 2166 2231 1775 2231 
Q 1616 2231 1378 2169 
L 1441 2663 
Q 1497 2656 1531 2656 
Q 1891 2656 2178 2843 
Q 2466 3031 2466 3422 
Q 2466 3731 2256 3934 
Q 2047 4138 1716 4138 
Q 1388 4138 1169 3931 
Q 950 3725 888 3313 
L 325 3413 
Q 428 3978 793 4289 
Q 1159 4600 1703 4600 
Q 2078 4600 2393 4439 
Q 2709 4278 2876 4000 
Q 3044 3722 3044 3409 
Q 3044 3113 2884 2869 
Q 2725 2625 2413 2481 
Q 2819 2388 3044 2092 
Q 3269 1797 3269 1353 
Q 3269 753 2831 336 
Q 2394 -81 1725 -81 
Q 1122 -81 723 278 
Q 325 638 269 1209 
z
" transform="scale(0.015625)"/>
       </defs>
       <use xlink:href="#ArialMT-31" transform="translate(0 0.99375)"/>
       <use xlink:href="#ArialMT-30" transform="translate(55.615234 0.99375)"/>
       <use xlink:href="#ArialMT-33" transform="translate(112.972813 70.6875)scale(0.7)"/>
      </g>
     </g>
    </g>
    <g id="text_6">
     <!-- $E_b$ (kJ) -->
     <g transform="translate(82.848312 89.35439)scale(0.08 -0.08)">
      <defs>
       <path id="DejaVuSans-Oblique-45" d="M 1081 4666 
L 4031 4666 
L 3928 4134 
L 1606 4134 
L 1338 2753 
L 3566 2753 
L 3463 2222 
L 1234 2222 
L 909 531 
L 3284 531 
L 3181 0 
L 172 0 
L 1081 4666 
z
" transform="scale(0.015625)"/>
       <path id="DejaVuSans-Oblique-62" d="M 3169 2138 
Q 3169 2591 2961 2847 
Q 2753 3103 2388 3103 
Q 2122 3103 1889 2973 
Q 1656 2844 1484 2597 
Q 1303 2338 1198 1995 
Q 1094 1653 1094 1313 
Q 1094 881 1298 636 
Q 1503 391 1863 391 
Q 2134 391 2365 517 
Q 2597 644 2772 891 
Q 2950 1147 3059 1487 
Q 3169 1828 3169 2138 
z
M 1381 2969 
Q 1594 3256 1914 3420 
Q 2234 3584 2584 3584 
Q 3122 3584 3439 3221 
Q 3756 2859 3756 2241 
Q 3756 1734 3570 1259 
Q 3384 784 3041 416 
Q 2816 172 2522 40 
Q 2228 -91 1906 -91 
Q 1566 -91 1316 65 
Q 1066 222 909 531 
L 806 0 
L 231 0 
L 1178 4863 
L 1753 4863 
L 1381 2969 
z
" transform="scale(0.015625)"/>
       <path id="ArialMT-20" transform="scale(0.015625)"/>
       <path id="ArialMT-28" d="M 1497 -1347 
Q 1031 -759 709 28 
Q 388 816 388 1659 
Q 388 2403 628 3084 
Q 909 3875 1497 4659 
L 1900 4659 
Q 1522 4009 1400 3731 
Q 1209 3300 1100 2831 
Q 966 2247 966 1656 
Q 966 153 1900 -1347 
L 1497 -1347 
z
" transform="scale(0.015625)"/>
       <path id="ArialMT-6b" d="M 425 0 
L 425 4581 
L 988 4581 
L 988 1969 
L 2319 3319 
L 3047 3319 
L 1778 2088 
L 3175 0 
L 2481 0 
L 1384 1697 
L 988 1316 
L 988 0 
L 425 0 
z
" transform="scale(0.015625)"/>
       <path id="ArialMT-4a" d="M 184 1300 
L 731 1375 
Q 753 850 928 656 
Q 1103 463 1413 463 
Q 1641 463 1806 567 
Q 1972 672 2034 851 
Q 2097 1031 2097 1425 
L 2097 4581 
L 2703 4581 
L 2703 1459 
Q 2703 884 2564 568 
Q 2425 253 2123 87 
Q 1822 -78 1416 -78 
Q 813 -78 492 269 
Q 172 616 184 1300 
z
" transform="scale(0.015625)"/>
       <path id="ArialMT-29" d="M 791 -1347 
L 388 -1347 
Q 1322 153 1322 1656 
Q 1322 2244 1188 2822 
Q 1081 3291 891 3722 
Q 769 4003 388 4659 
L 791 4659 
Q 1378 3875 1659 3084 
Q 1900 2403 1900 1659 
Q 1900 816 1576 28 
Q 1253 -759 791 -1347 
z
" transform="scale(0.015625)"/>
      </defs>
      <use xlink:href="#DejaVuSans-Oblique-45" transform="translate(0 0.09375)"/>
      <use xlink:href="#DejaVuSans-Oblique-62" transform="translate(63.183594 -16.3125)scale(0.7)"/>
      <use xlink:href="#ArialMT-20" transform="translate(110.351562 0.09375)"/>
      <use xlink:href="#ArialMT-28" transform="translate(138.134766 0.09375)"/>
      <use xlink:href="#ArialMT-6b" transform="translate(171.435547 0.09375)"/>
      <use xlink:href="#ArialMT-4a" transform="translate(221.435547 0.09375)"/>
      <use xlink:href="#ArialMT-29" transform="translate(271.435547 0.09375)"/>
     </g>
    </g>
   </g>
   <g id="matplotlib.axis_2">
    <g id="ytick_1">
     <g id="line2d_6">
      <defs>
       <path id="ma56381859c" d="M 0 0 
L 5 0 
" style="stroke: #000000; stroke-width: 0.5"/>
      </defs>
      <g>
       <use xlink:href="#ma56381859c" x="35.32" y="69.67439" style="fill-opacity: 0; stroke: #000000; stroke-width: 0.5"/>
      </g>
     </g>
     <g id="text_7">
      <!-- 0.00 -->
      <g transform="translate(17.75125 72.537515)scale(0.08 -0.08)">
       <defs>
        <path id="ArialMT-2e" d="M 581 0 
L 581 641 
L 1222 641 
L 1222 0 
L 581 0 
z
" transform="scale(0.015625)"/>
       </defs>
       <use xlink:href="#ArialMT-30"/>
       <use xlink:href="#ArialMT-2e" x="55.615234"/>
       <use xlink:href="#ArialMT-30" x="83.398438"/>
       <use xlink:href="#ArialMT-30" x="139.013672"/>
      </g>
     </g>
    </g>
    <g id="ytick_2">
     <g id="line2d_7">
      <g>
       <use xlink:href="#ma56381859c" x="35.32" y="55.135792" style="fill-opacity: 0; stroke: #000000; stroke-width: 0.5"/>
      </g>
     </g>
     <g id="text_8">
      <!-- 0.25 -->
      <g transform="translate(17.75125 57.998917)scale(0.08 -0.08)">
       <defs>
        <path id="ArialMT-35" d="M 266 1200 
L 856 1250 
Q 922 819 1161 601 
Q 1400 384 1738 384 
Q 2144 384 2425 690 
Q 2706 997 2706 1503 
Q 2706 1984 2436 2262 
Q 2166 2541 1728 2541 
Q 1456 2541 1237 2417 
Q 1019 2294 894 2097 
L 366 2166 
L 809 4519 
L 3088 4519 
L 3088 3981 
L 1259 3981 
L 1013 2750 
Q 1425 3038 1878 3038 
Q 2478 3038 2890 2622 
Q 3303 2206 3303 1553 
Q 3303 931 2941 478 
Q 2500 -78 1738 -78 
Q 1113 -78 717 272 
Q 322 622 266 1200 
z
" transform="scale(0.015625)"/>
       </defs>
       <use xlink:href="#ArialMT-30"/>
       <use xlink:href="#ArialMT-2e" x="55.615234"/>
       <use xlink:href="#ArialMT-32" x="83.398438"/>
       <use xlink:href="#ArialMT-35" x="139.013672"/>
      </g>
     </g>
    </g>
    <g id="ytick_3">
     <g id="line2d_8">
      <g>
       <use xlink:href="#ma56381859c" x="35.32" y="40.597195" style="fill-opacity: 0; stroke: #000000; stroke-width: 0.5"/>
      </g>
     </g>
     <g id="text_9">
      <!-- 0.50 -->
      <g transform="translate(17.75125 43.46032)scale(0.08 -0.08)">
       <use xlink:href="#ArialMT-30"/>
       <use xlink:href="#ArialMT-2e" x="55.615234"/>
       <use xlink:href="#ArialMT-35" x="83.398438"/>
       <use xlink:href="#ArialMT-30" x="139.013672"/>
      </g>
     </g>
    </g>
    <g id="ytick_4">
     <g id="line2d_9">
      <g>
       <use xlink:href="#ma56381859c" x="35.32" y="26.058597" style="fill-opacity: 0; stroke: #000000; stroke-width: 0.5"/>
      </g>
     </g>
     <g id="text_10">
      <!-- 0.75 -->
      <g transform="translate(17.75125 28.921722)scale(0.08 -0.08)">
       <defs>
        <path id="ArialMT-37" d="M 303 3981 
L 303 4522 
L 3269 4522 
L 3269 4084 
Q 2831 3619 2401 2847 
Q 1972 2075 1738 1259 
Q 1569 684 1522 0 
L 944 0 
Q 953 541 1156 1306 
Q 1359 2072 1739 2783 
Q 2119 3494 2547 3981 
L 303 3981 
z
" transform="scale(0.015625)"/>
       </defs>
       <use xlink:href="#ArialMT-30"/>
       <use xlink:href="#ArialMT-2e" x="55.615234"/>
       <use xlink:href="#ArialMT-37" x="83.398438"/>
       <use xlink:href="#ArialMT-35" x="139.013672"/>
      </g>
     </g>
    </g>
    <g id="ytick_5">
     <g id="line2d_10">
      <g>
       <use xlink:href="#ma56381859c" x="35.32" y="11.52" style="fill-opacity: 0; stroke: #000000; stroke-width: 0.5"/>
      </g>
     </g>
     <g id="text_11">
      <!-- 1.00 -->
      <g transform="translate(17.75125 14.383125)scale(0.08 -0.08)">
       <use xlink:href="#ArialMT-31"/>
       <use xlink:href="#ArialMT-2e" x="55.615234"/>
       <use xlink:href="#ArialMT-30" x="83.398438"/>
       <use xlink:href="#ArialMT-30" x="139.013672"/>
      </g>
     </g>
    </g>
    <g id="text_12">
     <!-- CDF -->
     <g transform="translate(14.16125 48.81782)rotate(-90)scale(0.08 -0.08)">
      <defs>
       <path id="ArialMT-43" d="M 3763 1606 
L 4369 1453 
Q 4178 706 3683 314 
Q 3188 -78 2472 -78 
Q 1731 -78 1267 223 
Q 803 525 561 1097 
Q 319 1669 319 2325 
Q 319 3041 592 3573 
Q 866 4106 1370 4382 
Q 1875 4659 2481 4659 
Q 3169 4659 3637 4309 
Q 4106 3959 4291 3325 
L 3694 3184 
Q 3534 3684 3231 3912 
Q 2928 4141 2469 4141 
Q 1941 4141 1586 3887 
Q 1231 3634 1087 3207 
Q 944 2781 944 2328 
Q 944 1744 1114 1308 
Q 1284 872 1643 656 
Q 2003 441 2422 441 
Q 2931 441 3284 734 
Q 3638 1028 3763 1606 
z
" transform="scale(0.015625)"/>
       <path id="ArialMT-44" d="M 494 0 
L 494 4581 
L 2072 4581 
Q 2606 4581 2888 4516 
Q 3281 4425 3559 4188 
Q 3922 3881 4101 3404 
Q 4281 2928 4281 2316 
Q 4281 1794 4159 1391 
Q 4038 988 3847 723 
Q 3656 459 3429 307 
Q 3203 156 2883 78 
Q 2563 0 2147 0 
L 494 0 
z
M 1100 541 
L 2078 541 
Q 2531 541 2789 625 
Q 3047 709 3200 863 
Q 3416 1078 3536 1442 
Q 3656 1806 3656 2325 
Q 3656 3044 3420 3430 
Q 3184 3816 2847 3947 
Q 2603 4041 2063 4041 
L 1100 4041 
L 1100 541 
z
" transform="scale(0.015625)"/>
       <path id="ArialMT-46" d="M 525 0 
L 525 4581 
L 3616 4581 
L 3616 4041 
L 1131 4041 
L 1131 2622 
L 3281 2622 
L 3281 2081 
L 1131 2081 
L 1131 0 
L 525 0 
z
" transform="scale(0.015625)"/>
      </defs>
      <use xlink:href="#ArialMT-43"/>
      <use xlink:href="#ArialMT-44" x="72.216797"/>
      <use xlink:href="#ArialMT-46" x="144.433594"/>
     </g>
    </g>
   </g>
   <g id="line2d_11">
    <path d="M 36.118743 69.419327 
L 36.220457 69.164264 
L 36.620745 68.9092 
L 36.663323 68.654137 
L 37.658586 68.399074 
L 37.724193 68.144011 
L 38.185737 67.888948 
L 39.812905 67.378822 
L 39.903251 67.123759 
L 41.652721 66.613632 
L 47.5248 65.848443 
L 47.600142 65.59338 
L 48.864392 65.338317 
L 49.073727 64.828191 
L 49.991363 64.318064 
L 54.194839 63.807938 
L 55.438663 63.297812 
L 57.672149 62.787686 
L 57.756991 62.532623 
L 58.072573 62.277559 
L 61.297063 61.51237 
L 61.406923 61.257307 
L 62.496845 61.002244 
L 62.636288 60.747181 
L 63.351752 60.492118 
L 63.476052 60.237055 
L 64.008216 59.981991 
L 64.91216 58.961739 
L 65.333235 58.706676 
L 66.27893 58.451613 
L 66.953803 57.941487 
L 68.494627 57.686423 
L 69.210549 57.176297 
L 70.16204 56.921234 
L 71.65554 56.666171 
L 71.771007 56.156045 
L 73.248049 55.900982 
L 75.025969 54.880729 
L 75.229704 54.625666 
L 76.522569 53.860477 
L 76.554864 53.605414 
L 78.029992 53.095287 
L 79.097636 52.330098 
L 81.550558 51.819972 
L 82.546734 51.054783 
L 82.819385 50.544656 
L 83.176556 50.289593 
L 83.294656 49.524404 
L 83.408057 49.014278 
L 83.988789 48.759214 
L 84.200442 47.994025 
L 84.719155 47.738962 
L 84.83982 47.228836 
L 85.795697 46.463646 
L 85.970038 45.95352 
L 86.031662 45.698457 
L 86.372487 45.188331 
L 86.473022 44.678205 
L 87.007936 44.168078 
L 87.073905 43.657952 
L 87.582771 43.402889 
L 87.816331 42.6377 
L 88.108822 42.382637 
L 88.978732 41.87251 
L 89.952677 41.617447 
L 90.143294 41.362384 
L 90.813321 40.852258 
L 91.693832 40.597195 
L 91.987637 39.832006 
L 92.620793 39.576942 
L 92.798757 39.066816 
L 93.016774 38.55669 
L 93.743667 37.536438 
L 94.266816 37.026311 
L 94.92322 35.24087 
L 95.078122 34.985806 
L 95.429531 34.730743 
L 96.736035 34.47568 
L 97.058578 33.965554 
L 97.474103 33.710491 
L 97.502262 33.455428 
L 97.646577 33.200365 
L 98.260861 32.945301 
L 98.735637 32.435175 
L 98.86008 31.925049 
L 99.302809 31.414923 
L 100.250805 31.15986 
L 100.577901 30.904797 
L 101.179928 30.649733 
L 101.248964 30.39467 
L 101.551853 30.139607 
L 101.590616 29.884544 
L 101.908631 29.629481 
L 101.91543 29.374418 
L 102.19336 29.119355 
L 102.235088 28.864292 
L 102.721158 28.609229 
L 103.300521 27.588976 
L 103.666139 27.333913 
L 103.833546 26.823787 
L 104.303128 26.313661 
L 104.776839 26.058597 
L 104.97616 25.293408 
L 105.202226 24.783282 
L 105.67353 24.528219 
L 106.818402 24.273156 
L 107.294417 24.018093 
L 107.498485 23.763029 
L 107.973358 23.507966 
L 109.210213 23.252903 
L 110.395983 22.232651 
L 111.63065 21.722525 
L 112.11045 21.212398 
L 112.648179 20.957335 
L 113.124563 19.937083 
L 115.384539 19.171893 
L 115.518847 18.91683 
L 116.560078 18.661767 
L 117.354823 18.151641 
L 118.12512 17.896578 
L 119.417256 17.641515 
L 119.656654 17.131388 
L 120.789553 16.876325 
L 120.795036 16.621262 
L 121.705037 16.366199 
L 122.020345 16.111136 
L 122.088655 15.856073 
L 123.047537 15.60101 
L 123.349844 15.345947 
L 123.837177 15.090884 
L 125.590534 14.83582 
L 125.948153 14.580757 
L 126.016303 14.325694 
L 128.121237 13.305442 
L 128.552948 13.050379 
L 128.636684 12.795316 
L 128.988186 12.540252 
L 130.174787 12.285189 
L 133.094414 12.030126 
L 137.990614 11.775063 
L 150.439105 11.52 
L 150.439105 11.52 
" clip-path="url(#p3b149d19c3)" style="fill: none; stroke: #000000; stroke-width: 1.2; stroke-linecap: square"/>
   </g>
   <g id="line2d_12">
    <path d="M -1 65.338698 
L 43.652366 65.338317 
L 43.922466 65.083254 
L 46.578922 64.573128 
L 49.202294 64.063001 
L 49.974435 63.807938 
L 54.346178 63.297812 
L 56.229638 63.042749 
L 57.160969 62.787686 
L 58.801686 62.532623 
L 59.322555 62.277559 
L 63.079573 62.022496 
L 63.672297 61.767433 
L 66.524028 61.51237 
L 67.143953 61.002244 
L 67.679536 60.747181 
L 69.713694 60.237055 
L 70.680826 59.726928 
L 72.037241 59.471865 
L 72.33498 59.216802 
L 73.141145 58.961739 
L 73.578685 58.451613 
L 74.141537 58.19655 
L 74.39849 57.941487 
L 74.869766 57.686423 
L 74.877607 57.43136 
L 75.800545 56.156045 
L 75.88724 55.900982 
L 76.343211 55.645919 
L 76.354453 55.390855 
L 77.057732 55.135792 
L 77.254678 54.625666 
L 77.812195 54.370603 
L 77.867493 54.11554 
L 79.225241 53.605414 
L 79.263277 53.350351 
L 79.479218 52.840224 
L 79.709227 52.075035 
L 80.530455 51.819972 
L 81.019519 51.309846 
L 81.080475 51.054783 
L 81.640268 50.289593 
L 82.626255 50.03453 
L 82.686225 49.524404 
L 83.055479 49.269341 
L 83.154565 49.014278 
L 83.669344 48.759214 
L 84.313416 47.483899 
L 84.417433 47.228836 
L 84.696529 46.973773 
L 85.348779 46.71871 
L 85.790144 46.208583 
L 86.596896 45.95352 
L 86.939014 45.443394 
L 86.961461 45.188331 
L 87.178976 44.933268 
L 87.200028 44.423142 
L 89.479613 42.6377 
L 89.483781 42.127574 
L 90.528363 41.362384 
L 90.86122 41.107321 
L 91.110571 39.321879 
L 91.645176 38.811753 
L 92.45018 38.046564 
L 92.51657 37.791501 
L 94.846258 37.281374 
L 95.092166 37.026311 
L 95.439496 36.006059 
L 96.217887 35.750996 
L 97.342756 34.47568 
L 97.852873 34.220617 
L 97.865803 33.965554 
L 98.228146 33.455428 
L 98.76332 33.200365 
L 99.080375 31.925049 
L 99.210969 31.414923 
L 99.331997 31.15986 
L 100.043233 30.904797 
L 100.504207 29.884544 
L 100.976462 29.629481 
L 101.398014 28.864292 
L 102.017155 28.354165 
L 102.128551 27.588976 
L 102.707281 27.07885 
L 103.112468 26.568724 
L 103.250756 26.313661 
L 104.111392 25.803534 
L 104.362897 25.548471 
L 104.925546 25.293408 
L 104.976393 25.038345 
L 105.628116 24.783282 
L 105.895345 24.528219 
L 105.928527 24.273156 
L 106.358827 24.018093 
L 106.418578 23.763029 
L 107.101778 23.252903 
L 107.456976 22.99784 
L 107.581275 22.487714 
L 108.073594 21.467461 
L 108.294666 20.702272 
L 109.059992 19.937083 
L 109.637055 19.68202 
L 109.795232 19.426957 
L 109.805837 19.171893 
L 110.166045 18.91683 
L 110.225307 18.661767 
L 111.490125 17.131388 
L 111.923052 16.876325 
L 111.965588 16.621262 
L 112.25104 16.366199 
L 112.475055 15.345947 
L 112.97538 15.090884 
L 113.057619 14.83582 
L 114.564293 14.325694 
L 114.618928 14.070631 
L 115.000726 13.815568 
L 115.078658 13.560505 
L 115.610643 13.305442 
L 117.173141 12.795316 
L 117.31263 12.285189 
L 118.356697 12.030126 
L 119.074301 11.52 
L 119.074301 11.52 
" clip-path="url(#p3b149d19c3)" style="fill: none; stroke-dasharray: 5.12,1.28,0.8,1.28; stroke-dashoffset: 0; stroke: #3c5488; stroke-width: 0.8"/>
   </g>
   <g id="line2d_13">
    <path d="M -1 67.124183 
L 48.658816 67.123759 
L 48.676952 66.868696 
L 51.682342 66.613632 
L 56.163001 66.358569 
L 57.023415 66.103506 
L 57.169736 65.848443 
L 60.783466 65.59338 
L 66.757853 65.338317 
L 69.250517 65.083254 
L 69.525958 64.573128 
L 70.072139 64.318064 
L 70.086741 64.063001 
L 72.009209 63.807938 
L 73.410877 63.297812 
L 74.783973 63.042749 
L 75.239574 62.277559 
L 76.902977 62.022496 
L 77.109867 61.767433 
L 78.269398 61.51237 
L 78.576837 61.257307 
L 78.585607 61.002244 
L 79.020076 60.492118 
L 79.688881 59.981991 
L 80.585767 58.961739 
L 81.064099 58.19655 
L 82.110493 57.941487 
L 83.132988 57.43136 
L 84.044932 57.176297 
L 84.068494 56.921234 
L 84.7864 56.156045 
L 86.473236 55.900982 
L 87.289749 55.135792 
L 87.603863 54.625666 
L 87.663603 54.370603 
L 88.537806 53.350351 
L 88.815013 53.095287 
L 89.292772 52.840224 
L 89.586607 51.309846 
L 90.140796 50.544656 
L 91.358578 50.289593 
L 91.38824 49.779467 
L 91.849999 49.524404 
L 91.855164 49.014278 
L 92.196404 48.504151 
L 92.23461 48.249088 
L 92.781927 47.483899 
L 93.143615 47.228836 
L 93.503121 46.463646 
L 93.520706 45.95352 
L 94.38064 45.698457 
L 94.693156 45.443394 
L 94.839222 44.933268 
L 95.328043 44.678205 
L 95.368495 44.423142 
L 96.307078 43.913015 
L 97.186594 43.402889 
L 97.248061 43.147826 
L 97.630057 42.6377 
L 98.070792 41.107321 
L 98.191521 40.342132 
L 98.409687 39.576942 
L 98.644118 39.066816 
L 98.821401 38.811753 
L 98.840723 38.55669 
L 99.836226 37.536438 
L 100.115504 37.281374 
L 100.628943 37.026311 
L 100.643395 36.771248 
L 101.237086 36.261122 
L 101.325674 36.006059 
L 102.093404 35.24087 
L 102.20149 34.730743 
L 102.45718 34.47568 
L 102.497199 34.220617 
L 102.889556 33.710491 
L 102.977459 33.455428 
L 103.241199 33.200365 
L 103.370725 32.180112 
L 103.78738 31.414923 
L 104.33827 31.15986 
L 104.810584 30.39467 
L 105.440737 30.139607 
L 106.262645 29.119355 
L 106.789263 28.354165 
L 106.980264 27.588976 
L 107.698644 27.333913 
L 107.797093 27.07885 
L 108.384655 26.823787 
L 108.562082 26.058597 
L 109.146383 25.803534 
L 109.166975 25.548471 
L 110.565019 25.038345 
L 110.628184 24.528219 
L 111.248938 23.763029 
L 111.306762 23.507966 
L 112.137577 22.742777 
L 112.175583 22.487714 
L 112.762633 22.232651 
L 112.833354 21.977588 
L 113.446355 21.722525 
L 113.591278 21.212398 
L 113.596704 20.957335 
L 113.779214 20.702272 
L 113.791741 20.447209 
L 114.453463 19.937083 
L 114.683947 19.68202 
L 115.421093 19.426957 
L 115.64605 19.171893 
L 115.703077 18.91683 
L 115.952822 18.661767 
L 116.497745 18.406704 
L 116.525022 18.151641 
L 117.113633 17.641515 
L 117.695923 17.131388 
L 117.733734 16.876325 
L 117.997725 16.621262 
L 118.005697 16.366199 
L 118.371518 16.111136 
L 120.778706 15.345947 
L 121.134782 15.090884 
L 121.326137 14.580757 
L 121.622064 14.325694 
L 122.676711 14.070631 
L 122.707394 13.815568 
L 123.607768 13.560505 
L 124.16765 12.795316 
L 127.81068 12.540252 
L 127.84721 12.285189 
L 128.920294 12.030126 
L 133.293626 11.775063 
L 144.391286 11.52 
L 144.391286 11.52 
" clip-path="url(#p3b149d19c3)" style="fill: none; stroke-dasharray: 2.96,1.28; stroke-dashoffset: 0; stroke: #dc0000; stroke-width: 0.8"/>
   </g>
   <g id="patch_3">
    <path d="M 35.32 69.67439 
L 35.32 11.52 
" style="fill: none; stroke: #000000; stroke-width: 0.5; stroke-linejoin: miter; stroke-linecap: square"/>
   </g>
   <g id="patch_4">
    <path d="M 154.776623 69.67439 
L 154.776623 11.52 
" style="fill: none; stroke: #000000; stroke-width: 0.5; stroke-linejoin: miter; stroke-linecap: square"/>
   </g>
   <g id="patch_5">
    <path d="M 35.32 69.67439 
L 154.776623 69.67439 
" style="fill: none; stroke: #000000; stroke-width: 0.5; stroke-linejoin: miter; stroke-linecap: square"/>
   </g>
   <g id="patch_6">
    <path d="M 35.32 11.52 
L 154.776623 11.52 
" style="fill: none; stroke: #000000; stroke-width: 0.5; stroke-linejoin: miter; stroke-linecap: square"/>
   </g>
  </g>
 </g>
 <defs>
  <clipPath id="p3b149d19c3">
   <rect x="35.32" y="11.52" width="119.456623" height="58.15439"/>
  </clipPath>
 </defs>
</svg>
