<?xml version="1.0" encoding="utf-8" standalone="no"?>
<!DOCTYPE svg PUBLIC "-//W3C//DTD SVG 1.1//EN"
  "http://www.w3.org/Graphics/SVG/1.1/DTD/svg11.dtd">
<svg xmlns:xlink="http://www.w3.org/1999/xlink" width="170.07874pt" height="104.88189pt" viewBox="0 0 170.07874 104.88189" xmlns="http://www.w3.org/2000/svg" version="1.1">
 <metadata>
  <rdf:RDF xmlns:dc="http://purl.org/dc/elements/1.1/" xmlns:cc="http://creativecommons.org/ns#" xmlns:rdf="http://www.w3.org/1999/02/22-rdf-syntax-ns#">
   <cc:Work>
    <dc:type rdf:resource="http://purl.org/dc/dcmitype/StillImage"/>
    <dc:date>2025-01-06T16:39:59.944238</dc:date>
    <dc:format>image/svg+xml</dc:format>
    <dc:creator>
     <cc:Agent>
      <dc:title>Matplotlib v3.5.2, https://matplotlib.org/</dc:title>
     </cc:Agent>
    </dc:creator>
   </cc:Work>
  </rdf:RDF>
 </metadata>
 <defs>
  <style type="text/css">*{stroke-linejoin: round; stroke-linecap: butt}</style>
 </defs>
 <g id="figure_1">
  <g id="patch_1">
   <path d="M 0 104.88189 
L 170.07874 104.88189 
L 170.07874 0 
L 0 0 
z
" style="fill: #ffffff"/>
  </g>
  <g id="axes_1">
   <g id="patch_2">
    <path d="M 35.32 69.67439 
L 154.776623 69.67439 
L 154.776623 11.52 
L 35.32 11.52 
z
" style="fill: #ffffff"/>
   </g>
   <g id="PolyCollection_1">
    <path d="M -29828.835828 69.602594 
L 46.917417 69.602594 
L 54.5519 69.530799 
L 55.322254 69.459003 
L 56.759941 69.387208 
L 59.304534 69.315412 
L 60.005929 69.243617 
L 63.056144 69.171821 
L 63.067429 69.100025 
L 63.085519 69.02823 
L 63.129772 68.956434 
L 66.751784 68.884639 
L 66.980104 68.812843 
L 68.925519 68.741048 
L 70.249585 68.669252 
L 71.175833 68.597457 
L 71.253743 68.525661 
L 71.531299 68.453866 
L 72.449314 68.38207 
L 73.558225 68.310274 
L 73.805123 68.238479 
L 74.064744 68.166683 
L 75.192384 68.094888 
L 75.313056 68.023092 
L 75.776799 67.951297 
L 76.083703 67.879501 
L 76.201896 67.807706 
L 76.853181 67.73591 
L 76.940364 67.664115 
L 79.468234 67.592319 
L 79.510667 67.520523 
L 80.081497 67.448728 
L 80.497523 67.376932 
L 81.792674 67.305137 
L 83.066574 67.233341 
L 83.457462 67.161546 
L 83.933007 67.08975 
L 84.131446 67.017955 
L 84.254131 66.946159 
L 84.525232 66.874364 
L 84.532567 66.802568 
L 84.768209 66.730773 
L 85.291579 66.658977 
L 86.068844 66.587181 
L 86.325888 66.515386 
L 87.420859 66.44359 
L 88.719059 66.371795 
L 88.764436 66.299999 
L 88.927267 66.228204 
L 88.950569 66.156408 
L 88.970065 66.084613 
L 89.126744 66.012817 
L 89.158658 65.941022 
L 89.261598 65.869226 
L 89.301222 65.79743 
L 89.382715 65.725635 
L 89.650119 65.653839 
L 89.777498 65.582044 
L 89.849581 65.510248 
L 90.23485 65.438453 
L 90.388129 65.366657 
L 90.669631 65.294862 
L 90.742239 65.223066 
L 90.759462 65.151271 
L 90.877904 65.079475 
L 91.116021 65.007679 
L 91.239173 64.935884 
L 91.514058 64.864088 
L 91.629491 64.792293 
L 91.710212 64.720497 
L 91.800777 64.648702 
L 92.071599 64.576906 
L 92.141718 64.505111 
L 92.323034 64.433315 
L 92.430211 64.36152 
L 92.440347 64.289724 
L 92.565199 64.217929 
L 92.576802 64.146133 
L 92.610295 64.074337 
L 92.619537 64.002542 
L 92.894979 63.930746 
L 92.991438 63.858951 
L 93.079651 63.787155 
L 93.384122 63.71536 
L 93.451756 63.643564 
L 93.573144 63.571769 
L 93.701455 63.499973 
L 93.905702 63.428178 
L 93.998422 63.356382 
L 94.096969 63.284586 
L 94.110945 63.212791 
L 94.24707 63.140995 
L 94.357074 63.0692 
L 94.529033 62.997404 
L 94.692729 62.925609 
L 94.75653 62.853813 
L 94.817942 62.782018 
L 94.848928 62.710222 
L 94.850237 62.638427 
L 94.899786 62.566631 
L 94.90712 62.494835 
L 95.575131 62.42304 
L 95.60849 62.351244 
L 95.896448 62.279449 
L 96.122072 62.207653 
L 96.286437 62.135858 
L 96.324178 62.064062 
L 96.345448 61.992267 
L 96.521153 61.920471 
L 96.527716 61.848676 
L 96.558321 61.77688 
L 96.736401 61.705084 
L 96.910808 61.633289 
L 97.011401 61.561493 
L 97.172155 61.489698 
L 97.307224 61.417902 
L 97.33374 61.346107 
L 97.396722 61.274311 
L 97.429093 61.202516 
L 97.657291 61.13072 
L 97.683566 61.058925 
L 97.735579 60.987129 
L 97.829643 60.915334 
L 98.020753 60.843538 
L 98.051756 60.771742 
L 98.120899 60.699947 
L 98.148553 60.628151 
L 98.215312 60.556356 
L 98.236377 60.48456 
L 98.270815 60.412765 
L 98.415184 60.340969 
L 98.416117 60.269174 
L 98.50404 60.197378 
L 98.516335 60.125583 
L 98.603744 60.053787 
L 98.76665 59.981991 
L 98.820494 59.910196 
L 98.884763 59.8384 
L 99.006084 59.766605 
L 99.025657 59.694809 
L 99.144697 59.623014 
L 99.219227 59.551218 
L 99.258832 59.479423 
L 99.343752 59.407627 
L 99.55572 59.335832 
L 99.628287 59.264036 
L 99.65886 59.19224 
L 99.677136 59.120445 
L 99.690685 59.048649 
L 99.786776 58.976854 
L 99.824498 58.905058 
L 99.867251 58.833263 
L 99.867955 58.761467 
L 99.902115 58.689672 
L 100.012131 58.617876 
L 100.109811 58.546081 
L 100.114218 58.474285 
L 100.201191 58.40249 
L 100.258773 58.330694 
L 100.279539 58.258898 
L 100.303767 58.187103 
L 100.357769 58.115307 
L 100.503051 58.043512 
L 100.565466 57.971716 
L 100.596724 57.899921 
L 100.666772 57.828125 
L 100.669635 57.75633 
L 100.820241 57.684534 
L 100.820989 57.612739 
L 100.854719 57.540943 
L 100.882717 57.469147 
L 100.987533 57.397352 
L 101.016867 57.325556 
L 101.047479 57.253761 
L 101.052342 57.181965 
L 101.088976 57.11017 
L 101.149298 57.038374 
L 101.164416 56.966579 
L 101.221297 56.894783 
L 101.232978 56.822988 
L 101.261528 56.751192 
L 101.317577 56.679396 
L 101.347744 56.607601 
L 101.350312 56.535805 
L 101.464756 56.46401 
L 101.534508 56.392214 
L 101.670571 56.320419 
L 101.70879 56.248623 
L 101.855063 56.176828 
L 101.870032 56.105032 
L 101.961122 56.033237 
L 101.979663 55.961441 
L 101.987059 55.889646 
L 102.107617 55.81785 
L 102.156041 55.746054 
L 102.32067 55.674259 
L 102.333657 55.602463 
L 102.40837 55.530668 
L 102.47218 55.458872 
L 102.498394 55.387077 
L 102.540456 55.315281 
L 102.912179 55.243486 
L 103.058704 55.17169 
L 103.066604 55.099895 
L 103.145736 55.028099 
L 103.275981 54.956303 
L 103.521768 54.884508 
L 103.785428 54.812712 
L 103.816674 54.740917 
L 103.890921 54.669121 
L 103.908076 54.597326 
L 103.925446 54.52553 
L 103.989876 54.453735 
L 103.990247 54.381939 
L 104.052467 54.310144 
L 104.135487 54.238348 
L 104.18663 54.166552 
L 104.353165 54.094757 
L 104.364748 54.022961 
L 104.482085 53.951166 
L 104.55066 53.87937 
L 104.587775 53.807575 
L 104.771001 53.735779 
L 104.850196 53.663984 
L 104.948385 53.592188 
L 105.029773 53.520393 
L 105.05151 53.448597 
L 105.063201 53.376802 
L 105.110872 53.305006 
L 105.229682 53.23321 
L 105.24571 53.161415 
L 105.327207 53.089619 
L 105.396479 53.017824 
L 105.413416 52.946028 
L 105.429402 52.874233 
L 105.465996 52.802437 
L 105.489935 52.730642 
L 105.685084 52.658846 
L 105.749041 52.587051 
L 105.78849 52.515255 
L 105.877802 52.443459 
L 105.902046 52.371664 
L 105.941724 52.299868 
L 105.952638 52.228073 
L 105.963028 52.156277 
L 106.037857 52.084482 
L 106.045022 52.012686 
L 106.102037 51.940891 
L 106.131781 51.869095 
L 106.132252 51.7973 
L 106.230343 51.725504 
L 106.375333 51.653708 
L 106.399517 51.581913 
L 106.444462 51.510117 
L 106.469878 51.438322 
L 106.480304 51.366526 
L 106.481582 51.294731 
L 106.501282 51.222935 
L 106.644836 51.15114 
L 106.688937 51.079344 
L 106.72487 51.007549 
L 106.893595 50.935753 
L 106.940258 50.863958 
L 107.038425 50.792162 
L 107.057144 50.720366 
L 107.176864 50.648571 
L 107.179105 50.576775 
L 107.228626 50.50498 
L 107.322597 50.433184 
L 107.342979 50.361389 
L 107.382997 50.289593 
L 107.415544 50.217798 
L 107.424041 50.146002 
L 107.462388 50.074207 
L 107.538711 50.002411 
L 107.58449 49.930615 
L 107.700861 49.85882 
L 107.741135 49.787024 
L 107.815152 49.715229 
L 107.91061 49.643433 
L 108.034247 49.571638 
L 108.055129 49.499842 
L 108.15161 49.428047 
L 108.235506 49.356251 
L 108.286294 49.284456 
L 108.323435 49.21266 
L 108.425386 49.140864 
L 108.431405 49.069069 
L 108.439214 48.997273 
L 108.449025 48.925478 
L 108.48384 48.853682 
L 108.515419 48.781887 
L 108.516148 48.710091 
L 108.54249 48.638296 
L 108.562177 48.5665 
L 108.586055 48.494705 
L 108.634926 48.422909 
L 108.721884 48.351114 
L 108.830634 48.279318 
L 108.860252 48.207522 
L 108.87477 48.135727 
L 108.879301 48.063931 
L 108.936398 47.992136 
L 108.961922 47.92034 
L 109.031987 47.848545 
L 109.058248 47.776749 
L 109.075347 47.704954 
L 109.093932 47.633158 
L 109.298965 47.561363 
L 109.311372 47.489567 
L 109.312276 47.417771 
L 109.39838 47.345976 
L 109.45242 47.27418 
L 109.487606 47.202385 
L 109.490306 47.130589 
L 109.57128 47.058794 
L 109.618657 46.986998 
L 109.640085 46.915203 
L 109.79355 46.843407 
L 109.806753 46.771612 
L 109.824098 46.699816 
L 109.85828 46.62802 
L 110.082205 46.556225 
L 110.164593 46.484429 
L 110.186243 46.412634 
L 110.231884 46.340838 
L 110.295103 46.269043 
L 110.331333 46.197247 
L 110.331523 46.125452 
L 110.449013 46.053656 
L 110.471565 45.981861 
L 110.537614 45.910065 
L 110.729463 45.83827 
L 110.763186 45.766474 
L 110.825529 45.694678 
L 110.917814 45.622883 
L 110.96826 45.551087 
L 110.995658 45.479292 
L 111.030894 45.407496 
L 111.05344 45.335701 
L 111.077245 45.263905 
L 111.100058 45.19211 
L 111.124758 45.120314 
L 111.135313 45.048519 
L 111.160955 44.976723 
L 111.2176 44.904927 
L 111.254347 44.833132 
L 111.350616 44.761336 
L 111.378374 44.689541 
L 111.432744 44.617745 
L 111.447719 44.54595 
L 111.521645 44.474154 
L 111.533462 44.402359 
L 111.581612 44.330563 
L 111.662698 44.258768 
L 111.676713 44.186972 
L 111.695592 44.115176 
L 111.772033 44.043381 
L 111.8475 43.971585 
L 111.857776 43.89979 
L 111.931711 43.827994 
L 111.939563 43.756199 
L 111.942801 43.684403 
L 112.014791 43.612608 
L 112.022985 43.540812 
L 112.098681 43.469017 
L 112.234724 43.397221 
L 112.356804 43.325426 
L 112.401411 43.25363 
L 112.403812 43.181834 
L 112.433655 43.110039 
L 112.527964 43.038243 
L 112.54297 42.966448 
L 112.579018 42.894652 
L 112.584159 42.822857 
L 112.623795 42.751061 
L 112.732202 42.679266 
L 112.737894 42.60747 
L 112.996439 42.535675 
L 113.020351 42.463879 
L 113.130741 42.392083 
L 113.157739 42.320288 
L 113.227325 42.248492 
L 113.309974 42.176697 
L 113.421506 42.104901 
L 113.649706 42.033106 
L 113.694637 41.96131 
L 113.699685 41.889515 
L 113.770782 41.817719 
L 113.822245 41.745924 
L 113.962859 41.674128 
L 114.025915 41.602332 
L 114.027138 41.530537 
L 114.048658 41.458741 
L 114.058674 41.386946 
L 114.060838 41.31515 
L 114.097756 41.243355 
L 114.16159 41.171559 
L 114.212291 41.099764 
L 114.234567 41.027968 
L 114.235273 40.956173 
L 114.237964 40.884377 
L 114.291593 40.812582 
L 114.340079 40.740786 
L 114.376197 40.66899 
L 114.416209 40.597195 
L 114.465667 40.525399 
L 114.530226 40.453604 
L 114.607714 40.381808 
L 114.623214 40.310013 
L 114.671902 40.238217 
L 114.673851 40.166422 
L 114.708606 40.094626 
L 114.723944 40.022831 
L 114.767575 39.951035 
L 114.896583 39.879239 
L 114.913649 39.807444 
L 114.982683 39.735648 
L 114.989806 39.663853 
L 115.023095 39.592057 
L 115.039614 39.520262 
L 115.091369 39.448466 
L 115.123581 39.376671 
L 115.165775 39.304875 
L 115.207721 39.23308 
L 115.348855 39.161284 
L 115.370058 39.089488 
L 115.379841 39.017693 
L 115.413993 38.945897 
L 115.470445 38.874102 
L 115.537676 38.802306 
L 115.622381 38.730511 
L 115.653005 38.658715 
L 115.697872 38.58692 
L 115.721375 38.515124 
L 115.892111 38.443329 
L 115.954131 38.371533 
L 115.956655 38.299738 
L 115.971578 38.227942 
L 115.979168 38.156146 
L 115.984795 38.084351 
L 116.006078 38.012555 
L 116.046848 37.94076 
L 116.050916 37.868964 
L 116.081707 37.797169 
L 116.20288 37.725373 
L 116.227381 37.653578 
L 116.266433 37.581782 
L 116.26871 37.509987 
L 116.296788 37.438191 
L 116.501505 37.366395 
L 116.503626 37.2946 
L 116.555641 37.222804 
L 116.561183 37.151009 
L 116.57322 37.079213 
L 116.593002 37.007418 
L 116.682663 36.935622 
L 116.7384 36.863827 
L 116.774513 36.792031 
L 116.822246 36.720236 
L 116.882998 36.64844 
L 116.884861 36.576644 
L 116.912708 36.504849 
L 116.914355 36.433053 
L 117.002925 36.361258 
L 117.038889 36.289462 
L 117.14874 36.217667 
L 117.16523 36.145871 
L 117.321947 36.074076 
L 117.323416 36.00228 
L 117.3855 35.930485 
L 117.407299 35.858689 
L 117.42764 35.786894 
L 117.449687 35.715098 
L 117.481208 35.643302 
L 117.608864 35.571507 
L 117.649363 35.499711 
L 117.685691 35.427916 
L 117.73298 35.35612 
L 117.781267 35.284325 
L 117.820674 35.212529 
L 117.85534 35.140734 
L 117.873017 35.068938 
L 117.934003 34.997143 
L 117.995046 34.925347 
L 118.017036 34.853551 
L 118.087195 34.781756 
L 118.11517 34.70996 
L 118.119981 34.638165 
L 118.237913 34.566369 
L 118.333842 34.494574 
L 118.449311 34.422778 
L 118.620894 34.350983 
L 118.705773 34.279187 
L 118.709029 34.207392 
L 118.730361 34.135596 
L 118.859866 34.0638 
L 118.909846 33.992005 
L 118.9118 33.920209 
L 118.982734 33.848414 
L 119.112938 33.776618 
L 119.132738 33.704823 
L 119.13843 33.633027 
L 119.157765 33.561232 
L 119.200158 33.489436 
L 119.211603 33.417641 
L 119.264133 33.345845 
L 119.313675 33.27405 
L 119.345739 33.202254 
L 119.550601 33.130458 
L 119.553403 33.058663 
L 119.639768 32.986867 
L 119.696635 32.915072 
L 119.696986 32.843276 
L 119.779394 32.771481 
L 119.829026 32.699685 
L 119.868972 32.62789 
L 119.874005 32.556094 
L 119.88337 32.484299 
L 119.905971 32.412503 
L 119.914184 32.340707 
L 120.04256 32.268912 
L 120.190057 32.197116 
L 120.236076 32.125321 
L 120.240453 32.053525 
L 120.358932 31.98173 
L 120.378185 31.909934 
L 120.392079 31.838139 
L 120.534333 31.766343 
L 120.545274 31.694548 
L 120.552811 31.622752 
L 120.576934 31.550956 
L 120.577521 31.479161 
L 120.57761 31.407365 
L 120.702647 31.33557 
L 120.741946 31.263774 
L 120.74465 31.191979 
L 120.806937 31.120183 
L 120.965373 31.048388 
L 121.022673 30.976592 
L 121.041376 30.904797 
L 121.412292 30.833001 
L 121.496316 30.761206 
L 121.508458 30.68941 
L 121.52234 30.617614 
L 121.568468 30.545819 
L 121.610634 30.474023 
L 121.614025 30.402228 
L 121.662729 30.330432 
L 121.67356 30.258637 
L 121.695216 30.186841 
L 121.711959 30.115046 
L 121.908171 30.04325 
L 121.963781 29.971455 
L 122.088521 29.899659 
L 122.165618 29.827863 
L 122.177352 29.756068 
L 122.443611 29.684272 
L 122.493355 29.612477 
L 122.534094 29.540681 
L 122.614197 29.468886 
L 122.623115 29.39709 
L 122.644234 29.325295 
L 122.675628 29.253499 
L 122.691928 29.181704 
L 122.788563 29.109908 
L 122.904332 29.038112 
L 122.929509 28.966317 
L 122.943109 28.894521 
L 122.979581 28.822726 
L 122.979727 28.75093 
L 123.052023 28.679135 
L 123.123557 28.607339 
L 123.13002 28.535544 
L 123.198467 28.463748 
L 123.232753 28.391953 
L 123.252834 28.320157 
L 123.289914 28.248361 
L 123.362069 28.176566 
L 123.390442 28.10477 
L 123.536665 28.032975 
L 123.614251 27.961179 
L 123.634435 27.889384 
L 123.636211 27.817588 
L 123.729922 27.745793 
L 123.803468 27.673997 
L 123.825623 27.602202 
L 123.891727 27.530406 
L 123.983166 27.458611 
L 124.105967 27.386815 
L 124.144585 27.315019 
L 124.155125 27.243224 
L 124.188318 27.171428 
L 124.263037 27.099633 
L 124.355886 27.027837 
L 124.546797 26.956042 
L 124.677595 26.884246 
L 124.732494 26.812451 
L 124.745261 26.740655 
L 124.78289 26.66886 
L 124.81654 26.597064 
L 124.83537 26.525268 
L 124.853619 26.453473 
L 125.002041 26.381677 
L 125.131423 26.309882 
L 125.168515 26.238086 
L 125.169798 26.166291 
L 125.259336 26.094495 
L 125.274257 26.0227 
L 125.283899 25.950904 
L 125.33827 25.879109 
L 125.362978 25.807313 
L 125.397397 25.735517 
L 125.44474 25.663722 
L 125.451752 25.591926 
L 125.459366 25.520131 
L 125.485408 25.448335 
L 125.647467 25.37654 
L 125.665753 25.304744 
L 125.713487 25.232949 
L 125.794974 25.161153 
L 125.820518 25.089358 
L 125.931394 25.017562 
L 125.972262 24.945767 
L 126.053698 24.873971 
L 126.063342 24.802175 
L 126.180373 24.73038 
L 126.240017 24.658584 
L 126.516002 24.586789 
L 126.614282 24.514993 
L 126.647987 24.443198 
L 126.806114 24.371402 
L 126.908799 24.299607 
L 126.916505 24.227811 
L 126.956078 24.156016 
L 127.03706 24.08422 
L 127.045681 24.012424 
L 127.095131 23.940629 
L 127.234323 23.868833 
L 127.29247 23.797038 
L 127.427269 23.725242 
L 127.472183 23.653447 
L 127.588622 23.581651 
L 127.618277 23.509856 
L 127.907718 23.43806 
L 127.926626 23.366265 
L 128.128197 23.294469 
L 128.348511 23.222673 
L 128.377886 23.150878 
L 128.400333 23.079082 
L 128.518084 23.007287 
L 128.600316 22.935491 
L 128.698869 22.863696 
L 128.724358 22.7919 
L 128.740687 22.720105 
L 128.805649 22.648309 
L 128.878846 22.576514 
L 128.910622 22.504718 
L 129.038159 22.432923 
L 129.202591 22.361127 
L 129.27455 22.289331 
L 129.303894 22.217536 
L 129.500184 22.14574 
L 129.513727 22.073945 
L 129.527691 22.002149 
L 129.600917 21.930354 
L 129.670289 21.858558 
L 129.797449 21.786763 
L 129.816723 21.714967 
L 129.998169 21.643172 
L 130.326224 21.571376 
L 130.408527 21.49958 
L 130.441614 21.427785 
L 130.483758 21.355989 
L 130.591944 21.284194 
L 130.618185 21.212398 
L 130.775 21.140603 
L 130.794449 21.068807 
L 130.8761 20.997012 
L 130.885606 20.925216 
L 130.91381 20.853421 
L 130.919714 20.781625 
L 130.927857 20.709829 
L 131.047167 20.638034 
L 131.17148 20.566238 
L 131.239311 20.494443 
L 131.303448 20.422647 
L 131.379528 20.350852 
L 131.463667 20.279056 
L 131.5433 20.207261 
L 131.623814 20.135465 
L 131.624331 20.06367 
L 131.942317 19.991874 
L 131.954566 19.920079 
L 132.0728 19.848283 
L 132.175415 19.776487 
L 132.278784 19.704692 
L 132.346683 19.632896 
L 132.392905 19.561101 
L 132.424314 19.489305 
L 132.44475 19.41751 
L 132.469146 19.345714 
L 132.49207 19.273919 
L 132.532813 19.202123 
L 132.83762 19.130328 
L 133.016424 19.058532 
L 133.100706 18.986736 
L 133.135048 18.914941 
L 133.183349 18.843145 
L 133.187674 18.77135 
L 133.226468 18.699554 
L 133.28245 18.627759 
L 133.351382 18.555963 
L 133.398201 18.484168 
L 133.663933 18.412372 
L 133.73252 18.340577 
L 133.870769 18.268781 
L 134.137393 18.196985 
L 134.151867 18.12519 
L 134.158667 18.053394 
L 134.170265 17.981599 
L 134.368749 17.909803 
L 134.466341 17.838008 
L 134.474952 17.766212 
L 134.586531 17.694417 
L 134.625404 17.622621 
L 134.838473 17.550826 
L 134.872827 17.47903 
L 134.925456 17.407235 
L 134.930724 17.335439 
L 134.942275 17.263643 
L 135.005048 17.191848 
L 135.032306 17.120052 
L 135.060648 17.048257 
L 135.075193 16.976461 
L 135.151017 16.904666 
L 135.248851 16.83287 
L 135.377849 16.761075 
L 135.720514 16.689279 
L 136.227684 16.617484 
L 136.451134 16.545688 
L 136.601519 16.473892 
L 136.628667 16.402097 
L 136.686219 16.330301 
L 136.837663 16.258506 
L 136.86834 16.18671 
L 136.987233 16.114915 
L 137.200141 16.043119 
L 137.276276 15.971324 
L 137.277663 15.899528 
L 137.548021 15.827733 
L 137.551953 15.755937 
L 137.87478 15.684141 
L 138.29181 15.612346 
L 138.307662 15.54055 
L 138.316079 15.468755 
L 138.41103 15.396959 
L 138.699044 15.325164 
L 138.816627 15.253368 
L 138.86743 15.181573 
L 139.167264 15.109777 
L 139.173643 15.037982 
L 139.263037 14.966186 
L 139.436678 14.894391 
L 139.963014 14.822595 
L 139.971189 14.750799 
L 140.150994 14.679004 
L 140.240859 14.607208 
L 140.268781 14.535413 
L 140.318687 14.463617 
L 140.470088 14.391822 
L 140.47162 14.320026 
L 140.512929 14.248231 
L 140.918842 14.176435 
L 140.98885 14.10464 
L 141.060691 14.032844 
L 141.101786 13.961048 
L 141.419972 13.889253 
L 141.524136 13.817457 
L 141.609884 13.745662 
L 141.888485 13.673866 
L 142.06092 13.602071 
L 142.384575 13.530275 
L 142.410748 13.45848 
L 142.461428 13.386684 
L 142.569856 13.314889 
L 143.128376 13.243093 
L 143.172863 13.171297 
L 143.430753 13.099502 
L 143.579434 13.027706 
L 143.793738 12.955911 
L 144.022059 12.884115 
L 144.106669 12.81232 
L 144.456512 12.740524 
L 144.628602 12.668729 
L 145.096667 12.596933 
L 145.159465 12.525138 
L 145.168139 12.453342 
L 145.968016 12.381547 
L 147.710506 12.309751 
L 148.701727 12.237955 
L 148.723012 12.16616 
L 148.794959 12.094364 
L 149.190962 12.022569 
L 150.510856 11.950773 
L 151.567442 11.878978 
L 151.771877 11.807182 
L 152.578192 11.735387 
L 155.769813 11.663591 
L 156.71607 11.591796 
L 158.604796 11.52 
L 155.335432 11.52 
L 155.335432 11.52 
L 152.208012 11.591796 
L 151.697796 11.663591 
L 149.590348 11.735387 
L 148.738736 11.807182 
L 147.031216 11.878978 
L 146.954274 11.950773 
L 146.839797 12.022569 
L 146.554241 12.094364 
L 145.770375 12.16616 
L 144.684752 12.237955 
L 143.529439 12.309751 
L 142.932854 12.381547 
L 141.324891 12.453342 
L 140.622903 12.525138 
L 140.319318 12.596933 
L 140.12746 12.668729 
L 140.012857 12.740524 
L 140.00536 12.81232 
L 139.926675 12.884115 
L 139.74751 12.955911 
L 139.612251 13.027706 
L 139.070623 13.099502 
L 138.717155 13.171297 
L 138.696257 13.243093 
L 138.672041 13.314889 
L 138.517123 13.386684 
L 138.307703 13.45848 
L 138.009273 13.530275 
L 137.669744 13.602071 
L 137.523442 13.673866 
L 137.484105 13.745662 
L 137.470654 13.817457 
L 137.445997 13.889253 
L 137.289485 13.961048 
L 137.057866 14.032844 
L 137.026566 14.10464 
L 136.859758 14.176435 
L 136.800224 14.248231 
L 136.761312 14.320026 
L 136.631803 14.391822 
L 136.463742 14.463617 
L 135.986407 14.535413 
L 135.983436 14.607208 
L 135.779857 14.679004 
L 135.535775 14.750799 
L 135.228429 14.822595 
L 135.102003 14.894391 
L 134.505686 14.966186 
L 134.284443 15.037982 
L 134.181618 15.109777 
L 134.180119 15.181573 
L 134.033335 15.253368 
L 133.905451 15.325164 
L 133.729836 15.396959 
L 133.602658 15.468755 
L 133.581186 15.54055 
L 133.557206 15.612346 
L 133.537315 15.684141 
L 133.496153 15.755937 
L 133.439254 15.827733 
L 133.434874 15.899528 
L 133.299917 15.971324 
L 133.218542 16.043119 
L 133.166876 16.114915 
L 132.961962 16.18671 
L 132.78666 16.258506 
L 132.153913 16.330301 
L 131.794182 16.402097 
L 131.73105 16.473892 
L 131.220712 16.545688 
L 131.084162 16.617484 
L 130.970894 16.689279 
L 130.85502 16.761075 
L 130.786214 16.83287 
L 130.717717 16.904666 
L 130.574673 16.976461 
L 130.518964 17.048257 
L 130.49799 17.120052 
L 130.43019 17.191848 
L 130.144383 17.263643 
L 130.142406 17.335439 
L 130.098575 17.407235 
L 130.061539 17.47903 
L 129.864638 17.550826 
L 129.811823 17.622621 
L 129.783318 17.694417 
L 129.764314 17.766212 
L 129.666706 17.838008 
L 129.609818 17.909803 
L 129.574529 17.981599 
L 129.544788 18.053394 
L 129.484152 18.12519 
L 129.362211 18.196985 
L 129.31232 18.268781 
L 129.296229 18.340577 
L 129.283033 18.412372 
L 129.251893 18.484168 
L 129.193785 18.555963 
L 129.18669 18.627759 
L 129.05101 18.699554 
L 128.836206 18.77135 
L 128.815854 18.843145 
L 128.801512 18.914941 
L 128.263594 18.986736 
L 128.239081 19.058532 
L 128.236946 19.130328 
L 128.012185 19.202123 
L 127.936836 19.273919 
L 127.839355 19.345714 
L 127.835754 19.41751 
L 127.601549 19.489305 
L 127.300396 19.561101 
L 127.299692 19.632896 
L 127.205619 19.704692 
L 127.120253 19.776487 
L 127.114823 19.848283 
L 127.09683 19.920079 
L 126.98552 19.991874 
L 126.902104 20.06367 
L 126.836997 20.135465 
L 126.82482 20.207261 
L 126.689583 20.279056 
L 126.614018 20.350852 
L 126.50805 20.422647 
L 126.497589 20.494443 
L 126.381624 20.566238 
L 126.247681 20.638034 
L 126.241849 20.709829 
L 126.094713 20.781625 
L 125.930992 20.853421 
L 125.843326 20.925216 
L 125.659424 20.997012 
L 125.573389 21.068807 
L 125.512023 21.140603 
L 125.473501 21.212398 
L 125.349707 21.284194 
L 125.226333 21.355989 
L 125.217201 21.427785 
L 125.213519 21.49958 
L 125.132101 21.571376 
L 125.02165 21.643172 
L 124.900606 21.714967 
L 124.864048 21.786763 
L 124.730698 21.858558 
L 124.622183 21.930354 
L 124.576859 22.002149 
L 124.544359 22.073945 
L 124.484725 22.14574 
L 124.464721 22.217536 
L 124.075976 22.289331 
L 123.986844 22.361127 
L 123.945069 22.432923 
L 123.909703 22.504718 
L 123.80536 22.576514 
L 123.778734 22.648309 
L 123.752649 22.720105 
L 123.537653 22.7919 
L 123.397371 22.863696 
L 123.363939 22.935491 
L 123.185661 23.007287 
L 123.151016 23.079082 
L 123.135887 23.150878 
L 123.042944 23.222673 
L 123.003696 23.294469 
L 122.968942 23.366265 
L 122.905363 23.43806 
L 122.812572 23.509856 
L 122.775714 23.581651 
L 122.58554 23.653447 
L 122.327774 23.725242 
L 122.260245 23.797038 
L 122.099442 23.868833 
L 121.874775 23.940629 
L 121.759443 24.012424 
L 121.705343 24.08422 
L 121.564459 24.156016 
L 121.495597 24.227811 
L 121.444278 24.299607 
L 121.376776 24.371402 
L 121.333381 24.443198 
L 121.289657 24.514993 
L 121.180826 24.586789 
L 121.162041 24.658584 
L 121.027598 24.73038 
L 121.00574 24.802175 
L 120.974129 24.873971 
L 120.919421 24.945767 
L 120.918631 25.017562 
L 120.878566 25.089358 
L 120.815109 25.161153 
L 120.814227 25.232949 
L 120.668693 25.304744 
L 120.589276 25.37654 
L 120.56048 25.448335 
L 120.493429 25.520131 
L 120.425121 25.591926 
L 120.291162 25.663722 
L 120.115544 25.735517 
L 120.069638 25.807313 
L 119.990688 25.879109 
L 119.837648 25.950904 
L 119.809988 26.0227 
L 119.751305 26.094495 
L 119.7504 26.166291 
L 119.667965 26.238086 
L 119.574019 26.309882 
L 119.545859 26.381677 
L 119.528507 26.453473 
L 119.436897 26.525268 
L 119.422447 26.597064 
L 119.301429 26.66886 
L 119.277137 26.740655 
L 119.237249 26.812451 
L 119.083947 26.884246 
L 119.035437 26.956042 
L 118.859953 27.027837 
L 118.851713 27.099633 
L 118.557106 27.171428 
L 118.406573 27.243224 
L 118.332028 27.315019 
L 118.327063 27.386815 
L 118.289035 27.458611 
L 118.270582 27.530406 
L 118.07714 27.602202 
L 118.024917 27.673997 
L 118.018168 27.745793 
L 117.997993 27.817588 
L 117.976671 27.889384 
L 117.924387 27.961179 
L 117.732193 28.032975 
L 117.644746 28.10477 
L 117.638383 28.176566 
L 117.588247 28.248361 
L 117.516038 28.320157 
L 117.497742 28.391953 
L 117.475484 28.463748 
L 117.38458 28.535544 
L 117.299556 28.607339 
L 117.250946 28.679135 
L 117.001499 28.75093 
L 116.943587 28.822726 
L 116.893639 28.894521 
L 116.825589 28.966317 
L 116.766378 29.038112 
L 116.736179 29.109908 
L 116.731488 29.181704 
L 116.632458 29.253499 
L 116.562616 29.325295 
L 116.523421 29.39709 
L 116.47302 29.468886 
L 116.461956 29.540681 
L 116.43937 29.612477 
L 116.315734 29.684272 
L 116.196566 29.756068 
L 116.171271 29.827863 
L 116.159745 29.899659 
L 116.080947 29.971455 
L 115.848817 30.04325 
L 115.84582 30.115046 
L 115.772646 30.186841 
L 115.601676 30.258637 
L 115.453202 30.330432 
L 115.45055 30.402228 
L 115.410334 30.474023 
L 115.380883 30.545819 
L 115.380231 30.617614 
L 115.373894 30.68941 
L 115.360815 30.761206 
L 115.354114 30.833001 
L 115.290445 30.904797 
L 115.012808 30.976592 
L 114.966068 31.048388 
L 114.955145 31.120183 
L 114.914448 31.191979 
L 114.839011 31.263774 
L 114.771161 31.33557 
L 114.695938 31.407365 
L 114.688292 31.479161 
L 114.670687 31.550956 
L 114.662616 31.622752 
L 114.647609 31.694548 
L 114.34546 31.766343 
L 114.284405 31.838139 
L 114.167308 31.909934 
L 114.12117 31.98173 
L 113.917965 32.053525 
L 113.912025 32.125321 
L 113.904542 32.197116 
L 113.817411 32.268912 
L 113.777575 32.340707 
L 113.770856 32.412503 
L 113.674312 32.484299 
L 113.500677 32.556094 
L 113.489182 32.62789 
L 113.385873 32.699685 
L 113.316614 32.771481 
L 113.258209 32.843276 
L 113.034286 32.915072 
L 112.998385 32.986867 
L 112.671572 33.058663 
L 112.644341 33.130458 
L 112.598745 33.202254 
L 112.569154 33.27405 
L 112.463581 33.345845 
L 112.458278 33.417641 
L 112.347776 33.489436 
L 112.335848 33.561232 
L 112.332276 33.633027 
L 112.255305 33.704823 
L 112.163429 33.776618 
L 112.143096 33.848414 
L 112.120897 33.920209 
L 112.090307 33.992005 
L 112.078153 34.0638 
L 112.05347 34.135596 
L 111.927232 34.207392 
L 111.770439 34.279187 
L 111.768652 34.350983 
L 111.750823 34.422778 
L 111.600417 34.494574 
L 111.585621 34.566369 
L 111.548596 34.638165 
L 111.389268 34.70996 
L 111.322628 34.781756 
L 111.239633 34.853551 
L 111.211592 34.925347 
L 111.082102 34.997143 
L 110.998496 35.068938 
L 110.934251 35.140734 
L 110.91751 35.212529 
L 110.881232 35.284325 
L 110.855377 35.35612 
L 110.560606 35.427916 
L 110.539945 35.499711 
L 110.509625 35.571507 
L 110.381221 35.643302 
L 110.368391 35.715098 
L 110.251008 35.786894 
L 110.081183 35.858689 
L 110.078859 35.930485 
L 110.017704 36.00228 
L 109.989513 36.074076 
L 109.876074 36.145871 
L 109.850898 36.217667 
L 109.837718 36.289462 
L 109.814097 36.361258 
L 109.788591 36.433053 
L 109.730416 36.504849 
L 109.728046 36.576644 
L 109.688647 36.64844 
L 109.487591 36.720236 
L 109.433877 36.792031 
L 109.389656 36.863827 
L 109.314865 36.935622 
L 109.31427 37.007418 
L 109.271506 37.079213 
L 109.123855 37.151009 
L 109.034777 37.222804 
L 109.014114 37.2946 
L 109.001219 37.366395 
L 108.919306 37.438191 
L 108.875884 37.509987 
L 108.870678 37.581782 
L 108.78129 37.653578 
L 108.74794 37.725373 
L 108.686558 37.797169 
L 108.587278 37.868964 
L 108.443435 37.94076 
L 108.436217 38.012555 
L 108.323493 38.084351 
L 108.1942 38.156146 
L 108.184376 38.227942 
L 108.14191 38.299738 
L 107.972627 38.371533 
L 107.919205 38.443329 
L 107.907158 38.515124 
L 107.897322 38.58692 
L 107.79793 38.658715 
L 107.615284 38.730511 
L 107.602702 38.802306 
L 107.565721 38.874102 
L 107.483524 38.945897 
L 107.46901 39.017693 
L 107.400679 39.089488 
L 107.396332 39.161284 
L 107.341837 39.23308 
L 107.337907 39.304875 
L 107.290816 39.376671 
L 107.139013 39.448466 
L 107.079674 39.520262 
L 107.061708 39.592057 
L 107.011369 39.663853 
L 106.963132 39.735648 
L 106.883444 39.807444 
L 106.881975 39.879239 
L 106.851698 39.951035 
L 106.814809 40.022831 
L 106.79107 40.094626 
L 106.742492 40.166422 
L 106.72873 40.238217 
L 106.706424 40.310013 
L 106.592962 40.381808 
L 106.574348 40.453604 
L 106.49536 40.525399 
L 106.473288 40.597195 
L 106.408647 40.66899 
L 106.287137 40.740786 
L 106.278652 40.812582 
L 105.886224 40.884377 
L 105.396256 40.956173 
L 105.381514 41.027968 
L 105.331268 41.099764 
L 105.144258 41.171559 
L 105.124039 41.243355 
L 105.123256 41.31515 
L 105.015851 41.386946 
L 104.780238 41.458741 
L 104.722545 41.530537 
L 104.69008 41.602332 
L 104.681425 41.674128 
L 104.570573 41.745924 
L 104.522479 41.817719 
L 104.521978 41.889515 
L 104.513142 41.96131 
L 104.399268 42.033106 
L 104.280427 42.104901 
L 104.126189 42.176697 
L 104.068343 42.248492 
L 103.997397 42.320288 
L 103.918394 42.392083 
L 103.859536 42.463879 
L 103.749449 42.535675 
L 103.715613 42.60747 
L 103.711305 42.679266 
L 103.575085 42.751061 
L 103.459094 42.822857 
L 103.380209 42.894652 
L 103.249022 42.966448 
L 102.927878 43.038243 
L 102.907595 43.110039 
L 102.894626 43.181834 
L 102.893346 43.25363 
L 102.868842 43.325426 
L 102.698422 43.397221 
L 102.612597 43.469017 
L 102.604451 43.540812 
L 102.536967 43.612608 
L 102.496675 43.684403 
L 102.446738 43.756199 
L 102.303714 43.827994 
L 102.19891 43.89979 
L 102.160459 43.971585 
L 102.149191 44.043381 
L 102.148984 44.115176 
L 102.147567 44.186972 
L 102.048948 44.258768 
L 102.022824 44.330563 
L 101.998259 44.402359 
L 101.861232 44.474154 
L 101.761035 44.54595 
L 101.748141 44.617745 
L 101.693907 44.689541 
L 101.67299 44.761336 
L 101.576451 44.833132 
L 101.505121 44.904927 
L 101.339478 44.976723 
L 101.231385 45.048519 
L 101.229236 45.120314 
L 101.183135 45.19211 
L 101.1688 45.263905 
L 100.972689 45.335701 
L 100.818106 45.407496 
L 100.717574 45.479292 
L 100.342651 45.551087 
L 100.30179 45.622883 
L 100.132218 45.694678 
L 100.123259 45.766474 
L 100.117243 45.83827 
L 100.079761 45.910065 
L 99.904001 45.981861 
L 99.869539 46.053656 
L 99.747783 46.125452 
L 99.704461 46.197247 
L 99.701809 46.269043 
L 99.691959 46.340838 
L 99.309523 46.412634 
L 99.288057 46.484429 
L 99.261154 46.556225 
L 99.251593 46.62802 
L 99.22684 46.699816 
L 99.220861 46.771612 
L 99.208355 46.843407 
L 99.20601 46.915203 
L 99.203616 46.986998 
L 99.118531 47.058794 
L 99.070227 47.130589 
L 99.019129 47.202385 
L 98.9821 47.27418 
L 98.949946 47.345976 
L 98.864812 47.417771 
L 98.667355 47.489567 
L 98.622365 47.561363 
L 98.618988 47.633158 
L 98.616527 47.704954 
L 98.603595 47.776749 
L 98.390708 47.848545 
L 98.295601 47.92034 
L 98.162139 47.992136 
L 97.755052 48.063931 
L 97.672841 48.135727 
L 97.640263 48.207522 
L 97.589472 48.279318 
L 97.435995 48.351114 
L 97.376986 48.422909 
L 97.133638 48.494705 
L 96.953495 48.5665 
L 96.936729 48.638296 
L 96.849733 48.710091 
L 96.780336 48.781887 
L 96.696465 48.853682 
L 96.462879 48.925478 
L 96.441693 48.997273 
L 96.306841 49.069069 
L 96.287828 49.140864 
L 96.275553 49.21266 
L 96.211095 49.284456 
L 96.189391 49.356251 
L 96.022039 49.428047 
L 95.868449 49.499842 
L 95.856019 49.571638 
L 95.847863 49.643433 
L 95.76908 49.715229 
L 95.725576 49.787024 
L 95.715105 49.85882 
L 95.708984 49.930615 
L 95.686414 50.002411 
L 95.51215 50.074207 
L 95.397188 50.146002 
L 95.395241 50.217798 
L 95.368858 50.289593 
L 95.33908 50.361389 
L 95.324699 50.433184 
L 95.312801 50.50498 
L 95.246587 50.576775 
L 95.224326 50.648571 
L 95.192821 50.720366 
L 95.144207 50.792162 
L 94.916491 50.863958 
L 94.825266 50.935753 
L 94.79714 51.007549 
L 94.59029 51.079344 
L 94.497922 51.15114 
L 94.4739 51.222935 
L 94.42454 51.294731 
L 94.383774 51.366526 
L 94.260817 51.438322 
L 93.966076 51.510117 
L 93.618737 51.581913 
L 93.459672 51.653708 
L 93.410292 51.725504 
L 93.270832 51.7973 
L 93.226194 51.869095 
L 93.219026 51.940891 
L 93.14359 52.012686 
L 93.136443 52.084482 
L 93.001976 52.156277 
L 92.980704 52.228073 
L 92.928291 52.299868 
L 92.905531 52.371664 
L 92.606346 52.443459 
L 92.231531 52.515255 
L 92.1208 52.587051 
L 92.039168 52.658846 
L 91.965279 52.730642 
L 91.953108 52.802437 
L 91.731778 52.874233 
L 91.67124 52.946028 
L 91.458078 53.017824 
L 91.297394 53.089619 
L 91.290363 53.161415 
L 91.224634 53.23321 
L 91.20177 53.305006 
L 91.084504 53.376802 
L 91.063521 53.448597 
L 91.011019 53.520393 
L 90.932364 53.592188 
L 90.79101 53.663984 
L 90.672898 53.735779 
L 90.465742 53.807575 
L 90.359859 53.87937 
L 90.19706 53.951166 
L 90.147633 54.022961 
L 89.808732 54.094757 
L 89.716375 54.166552 
L 89.686632 54.238348 
L 89.67685 54.310144 
L 89.326591 54.381939 
L 88.906007 54.453735 
L 88.883719 54.52553 
L 88.750821 54.597326 
L 88.731119 54.669121 
L 88.683889 54.740917 
L 88.555762 54.812712 
L 88.416012 54.884508 
L 88.349741 54.956303 
L 88.204931 55.028099 
L 88.194082 55.099895 
L 88.163087 55.17169 
L 88.112362 55.243486 
L 88.03982 55.315281 
L 88.022691 55.387077 
L 87.886301 55.458872 
L 87.839161 55.530668 
L 87.805594 55.602463 
L 87.686469 55.674259 
L 87.604226 55.746054 
L 87.441691 55.81785 
L 87.434863 55.889646 
L 87.384078 55.961441 
L 87.222721 56.033237 
L 87.208443 56.105032 
L 86.842634 56.176828 
L 86.76131 56.248623 
L 86.709523 56.320419 
L 86.580149 56.392214 
L 86.385183 56.46401 
L 86.144615 56.535805 
L 86.138922 56.607601 
L 86.066602 56.679396 
L 85.922362 56.751192 
L 85.876662 56.822988 
L 85.672879 56.894783 
L 85.633766 56.966579 
L 85.544913 57.038374 
L 85.470921 57.11017 
L 85.465731 57.181965 
L 85.128451 57.253761 
L 84.892745 57.325556 
L 84.828025 57.397352 
L 84.714615 57.469147 
L 84.403279 57.540943 
L 84.301815 57.612739 
L 84.179833 57.684534 
L 84.037219 57.75633 
L 84.027426 57.828125 
L 83.853892 57.899921 
L 83.66865 57.971716 
L 83.667969 58.043512 
L 83.412507 58.115307 
L 83.138296 58.187103 
L 83.10405 58.258898 
L 82.669587 58.330694 
L 82.66759 58.40249 
L 82.519586 58.474285 
L 82.443915 58.546081 
L 82.421254 58.617876 
L 82.267405 58.689672 
L 82.137904 58.761467 
L 81.803167 58.833263 
L 81.763368 58.905058 
L 81.756863 58.976854 
L 81.455478 59.048649 
L 81.295707 59.120445 
L 81.002541 59.19224 
L 80.896221 59.264036 
L 80.713521 59.335832 
L 80.659514 59.407627 
L 80.045855 59.479423 
L 79.905719 59.551218 
L 79.468044 59.623014 
L 79.32319 59.694809 
L 79.116587 59.766605 
L 79.10376 59.8384 
L 79.008507 59.910196 
L 78.936943 59.981991 
L 78.688714 60.053787 
L 78.658801 60.125583 
L 78.548614 60.197378 
L 78.498679 60.269174 
L 78.097252 60.340969 
L 77.802876 60.412765 
L 77.707138 60.48456 
L 77.59684 60.556356 
L 77.557963 60.628151 
L 77.290631 60.699947 
L 77.267296 60.771742 
L 77.097221 60.843538 
L 76.732108 60.915334 
L 76.178944 60.987129 
L 76.169129 61.058925 
L 75.118148 61.13072 
L 74.954135 61.202516 
L 74.883395 61.274311 
L 74.664783 61.346107 
L 74.630035 61.417902 
L 74.442108 61.489698 
L 74.370582 61.561493 
L 74.362122 61.633289 
L 74.236654 61.705084 
L 74.093858 61.77688 
L 73.971412 61.848676 
L 73.763899 61.920471 
L 73.66575 61.992267 
L 73.575312 62.064062 
L 72.515369 62.135858 
L 71.754388 62.207653 
L 71.596046 62.279449 
L 71.445161 62.351244 
L 71.114688 62.42304 
L 70.218842 62.494835 
L 70.200174 62.566631 
L 69.916592 62.638427 
L 69.906596 62.710222 
L 69.743953 62.782018 
L 69.614939 62.853813 
L 69.518869 62.925609 
L 69.463062 62.997404 
L 69.438876 63.0692 
L 69.300043 63.140995 
L 68.829533 63.212791 
L 68.6587 63.284586 
L 68.343533 63.356382 
L 68.247658 63.428178 
L 68.027455 63.499973 
L 67.811155 63.571769 
L 67.262431 63.643564 
L 67.240693 63.71536 
L 65.508657 63.787155 
L 65.378417 63.858951 
L 64.414943 63.930746 
L 63.806351 64.002542 
L 63.292346 64.074337 
L 63.185477 64.146133 
L 62.796723 64.217929 
L 61.731573 64.289724 
L 61.278159 64.36152 
L 61.150486 64.433315 
L 60.482321 64.505111 
L 59.587839 64.576906 
L 59.078874 64.648702 
L 58.116262 64.720497 
L 58.072675 64.792293 
L 56.406778 64.864088 
L 56.255651 64.935884 
L 55.181655 65.007679 
L 54.327604 65.079475 
L 53.890239 65.151271 
L 53.876379 65.223066 
L 52.848164 65.294862 
L 48.691336 65.366657 
L 48.115768 65.438453 
L 45.520815 65.510248 
L 41.231076 65.582044 
L 40.636369 65.653839 
L 38.313202 65.725635 
L 36.406291 65.79743 
L 35.130726 65.869226 
L 33.118945 65.941022 
L 32.959224 66.012817 
L 29.313807 66.084613 
L 21.75852 66.156408 
L -29828.835828 66.228204 
L -29828.835828 66.299999 
L -29828.835828 66.371795 
L -29828.835828 66.44359 
L -29828.835828 66.515386 
L -29828.835828 66.587181 
L -29828.835828 66.658977 
L -29828.835828 66.730773 
L -29828.835828 66.802568 
L -29828.835828 66.874364 
L -29828.835828 66.946159 
L -29828.835828 67.017955 
L -29828.835828 67.08975 
L -29828.835828 67.161546 
L -29828.835828 67.233341 
L -29828.835828 67.305137 
L -29828.835828 67.376932 
L -29828.835828 67.448728 
L -29828.835828 67.520523 
L -29828.835828 67.592319 
L -29828.835828 67.664115 
L -29828.835828 67.73591 
L -29828.835828 67.807706 
L -29828.835828 67.879501 
L -29828.835828 67.951297 
L -29828.835828 68.023092 
L -29828.835828 68.094888 
L -29828.835828 68.166683 
L -29828.835828 68.238479 
L -29828.835828 68.310274 
L -29828.835828 68.38207 
L -29828.835828 68.453866 
L -29828.835828 68.525661 
L -29828.835828 68.597457 
L -29828.835828 68.669252 
L -29828.835828 68.741048 
L -29828.835828 68.812843 
L -29828.835828 68.884639 
L -29828.835828 68.956434 
L -29828.835828 69.02823 
L -29828.835828 69.100025 
L -29828.835828 69.171821 
L -29828.835828 69.243617 
L -29828.835828 69.315412 
L -29828.835828 69.387208 
L -29828.835828 69.459003 
L -29828.835828 69.530799 
L -29828.835828 69.602594 
z
" clip-path="url(#p35ad94d99c)" style="fill: #808080; fill-opacity: 0.4"/>
   </g>
   <g id="matplotlib.axis_1">
    <g id="xtick_1">
     <g id="line2d_1">
      <defs>
       <path id="m6a41eaf7a0" d="M 0 0 
L 0 -5 
" style="stroke: #000000; stroke-width: 0.5"/>
      </defs>
      <g>
       <use xlink:href="#m6a41eaf7a0" x="35.32" y="69.67439" style="fill-opacity: 0; stroke: #000000; stroke-width: 0.5"/>
      </g>
     </g>
     <g id="text_1">
      <!-- $\mathdefault{10^{0}}$ -->
      <g transform="translate(29.04 79.92439)scale(0.08 -0.08)">
       <defs>
        <path id="ArialMT-31" d="M 2384 0 
L 1822 0 
L 1822 3584 
Q 1619 3391 1289 3197 
Q 959 3003 697 2906 
L 697 3450 
Q 1169 3672 1522 3987 
Q 1875 4303 2022 4600 
L 2384 4600 
L 2384 0 
z
" transform="scale(0.015625)"/>
        <path id="ArialMT-30" d="M 266 2259 
Q 266 3072 433 3567 
Q 600 4063 929 4331 
Q 1259 4600 1759 4600 
Q 2128 4600 2406 4451 
Q 2684 4303 2865 4023 
Q 3047 3744 3150 3342 
Q 3253 2941 3253 2259 
Q 3253 1453 3087 958 
Q 2922 463 2592 192 
Q 2263 -78 1759 -78 
Q 1097 -78 719 397 
Q 266 969 266 2259 
z
M 844 2259 
Q 844 1131 1108 757 
Q 1372 384 1759 384 
Q 2147 384 2411 759 
Q 2675 1134 2675 2259 
Q 2675 3391 2411 3762 
Q 2147 4134 1753 4134 
Q 1366 4134 1134 3806 
Q 844 3388 844 2259 
z
" transform="scale(0.015625)"/>
       </defs>
       <use xlink:href="#ArialMT-31" transform="translate(0 0.99375)"/>
       <use xlink:href="#ArialMT-30" transform="translate(55.615234 0.99375)"/>
       <use xlink:href="#ArialMT-30" transform="translate(112.972813 70.6875)scale(0.7)"/>
      </g>
     </g>
    </g>
    <g id="xtick_2">
     <g id="line2d_2">
      <g>
       <use xlink:href="#m6a41eaf7a0" x="65.184156" y="69.67439" style="fill-opacity: 0; stroke: #000000; stroke-width: 0.5"/>
      </g>
     </g>
     <g id="text_2">
      <!-- $\mathdefault{10^{1}}$ -->
      <g transform="translate(58.904156 79.92439)scale(0.08 -0.08)">
       <use xlink:href="#ArialMT-31" transform="translate(0 0.99375)"/>
       <use xlink:href="#ArialMT-30" transform="translate(55.615234 0.99375)"/>
       <use xlink:href="#ArialMT-31" transform="translate(112.972813 70.6875)scale(0.7)"/>
      </g>
     </g>
    </g>
    <g id="xtick_3">
     <g id="line2d_3">
      <g>
       <use xlink:href="#m6a41eaf7a0" x="95.048312" y="69.67439" style="fill-opacity: 0; stroke: #000000; stroke-width: 0.5"/>
      </g>
     </g>
     <g id="text_3">
      <!-- $\mathdefault{10^{2}}$ -->
      <g transform="translate(88.768312 79.92439)scale(0.08 -0.08)">
       <defs>
        <path id="ArialMT-32" d="M 3222 541 
L 3222 0 
L 194 0 
Q 188 203 259 391 
Q 375 700 629 1000 
Q 884 1300 1366 1694 
Q 2113 2306 2375 2664 
Q 2638 3022 2638 3341 
Q 2638 3675 2398 3904 
Q 2159 4134 1775 4134 
Q 1369 4134 1125 3890 
Q 881 3647 878 3216 
L 300 3275 
Q 359 3922 746 4261 
Q 1134 4600 1788 4600 
Q 2447 4600 2831 4234 
Q 3216 3869 3216 3328 
Q 3216 3053 3103 2787 
Q 2991 2522 2730 2228 
Q 2469 1934 1863 1422 
Q 1356 997 1212 845 
Q 1069 694 975 541 
L 3222 541 
z
" transform="scale(0.015625)"/>
       </defs>
       <use xlink:href="#ArialMT-31" transform="translate(0 0.99375)"/>
       <use xlink:href="#ArialMT-30" transform="translate(55.615234 0.99375)"/>
       <use xlink:href="#ArialMT-32" transform="translate(112.972813 70.6875)scale(0.7)"/>
      </g>
     </g>
    </g>
    <g id="xtick_4">
     <g id="line2d_4">
      <g>
       <use xlink:href="#m6a41eaf7a0" x="124.912467" y="69.67439" style="fill-opacity: 0; stroke: #000000; stroke-width: 0.5"/>
      </g>
     </g>
     <g id="text_4">
      <!-- $\mathdefault{10^{3}}$ -->
      <g transform="translate(118.632467 79.92439)scale(0.08 -0.08)">
       <defs>
        <path id="ArialMT-33" d="M 269 1209 
L 831 1284 
Q 928 806 1161 595 
Q 1394 384 1728 384 
Q 2125 384 2398 659 
Q 2672 934 2672 1341 
Q 2672 1728 2419 1979 
Q 2166 2231 1775 2231 
Q 1616 2231 1378 2169 
L 1441 2663 
Q 1497 2656 1531 2656 
Q 1891 2656 2178 2843 
Q 2466 3031 2466 3422 
Q 2466 3731 2256 3934 
Q 2047 4138 1716 4138 
Q 1388 4138 1169 3931 
Q 950 3725 888 3313 
L 325 3413 
Q 428 3978 793 4289 
Q 1159 4600 1703 4600 
Q 2078 4600 2393 4439 
Q 2709 4278 2876 4000 
Q 3044 3722 3044 3409 
Q 3044 3113 2884 2869 
Q 2725 2625 2413 2481 
Q 2819 2388 3044 2092 
Q 3269 1797 3269 1353 
Q 3269 753 2831 336 
Q 2394 -81 1725 -81 
Q 1122 -81 723 278 
Q 325 638 269 1209 
z
" transform="scale(0.015625)"/>
       </defs>
       <use xlink:href="#ArialMT-31" transform="translate(0 0.99375)"/>
       <use xlink:href="#ArialMT-30" transform="translate(55.615234 0.99375)"/>
       <use xlink:href="#ArialMT-33" transform="translate(112.972813 70.6875)scale(0.7)"/>
      </g>
     </g>
    </g>
    <g id="xtick_5">
     <g id="line2d_5">
      <g>
       <use xlink:href="#m6a41eaf7a0" x="154.776623" y="69.67439" style="fill-opacity: 0; stroke: #000000; stroke-width: 0.5"/>
      </g>
     </g>
     <g id="text_5">
      <!-- $\mathdefault{10^{4}}$ -->
      <g transform="translate(148.496623 79.84439)scale(0.08 -0.08)">
       <defs>
        <path id="ArialMT-34" d="M 2069 0 
L 2069 1097 
L 81 1097 
L 81 1613 
L 2172 4581 
L 2631 4581 
L 2631 1613 
L 3250 1613 
L 3250 1097 
L 2631 1097 
L 2631 0 
L 2069 0 
z
M 2069 1613 
L 2069 3678 
L 634 1613 
L 2069 1613 
z
" transform="scale(0.015625)"/>
       </defs>
       <use xlink:href="#ArialMT-31" transform="translate(0 0.201563)"/>
       <use xlink:href="#ArialMT-30" transform="translate(55.615234 0.201563)"/>
       <use xlink:href="#ArialMT-34" transform="translate(112.972813 69.895313)scale(0.7)"/>
      </g>
     </g>
    </g>
    <g id="text_6">
     <!-- $E_c$ (kJ) -->
     <g transform="translate(83.088312 89.35439)scale(0.08 -0.08)">
      <defs>
       <path id="DejaVuSans-Oblique-45" d="M 1081 4666 
L 4031 4666 
L 3928 4134 
L 1606 4134 
L 1338 2753 
L 3566 2753 
L 3463 2222 
L 1234 2222 
L 909 531 
L 3284 531 
L 3181 0 
L 172 0 
L 1081 4666 
z
" transform="scale(0.015625)"/>
       <path id="DejaVuSans-Oblique-63" d="M 3431 3366 
L 3316 2797 
Q 3109 2947 2876 3022 
Q 2644 3097 2394 3097 
Q 2119 3097 1870 3000 
Q 1622 2903 1453 2725 
Q 1184 2453 1037 2087 
Q 891 1722 891 1331 
Q 891 859 1127 628 
Q 1363 397 1844 397 
Q 2081 397 2348 469 
Q 2616 541 2906 684 
L 2797 116 
Q 2547 13 2283 -39 
Q 2019 -91 1741 -91 
Q 1044 -91 669 257 
Q 294 606 294 1253 
Q 294 1797 489 2255 
Q 684 2713 1069 3078 
Q 1331 3328 1684 3456 
Q 2038 3584 2456 3584 
Q 2700 3584 2940 3529 
Q 3181 3475 3431 3366 
z
" transform="scale(0.015625)"/>
       <path id="ArialMT-20" transform="scale(0.015625)"/>
       <path id="ArialMT-28" d="M 1497 -1347 
Q 1031 -759 709 28 
Q 388 816 388 1659 
Q 388 2403 628 3084 
Q 909 3875 1497 4659 
L 1900 4659 
Q 1522 4009 1400 3731 
Q 1209 3300 1100 2831 
Q 966 2247 966 1656 
Q 966 153 1900 -1347 
L 1497 -1347 
z
" transform="scale(0.015625)"/>
       <path id="ArialMT-6b" d="M 425 0 
L 425 4581 
L 988 4581 
L 988 1969 
L 2319 3319 
L 3047 3319 
L 1778 2088 
L 3175 0 
L 2481 0 
L 1384 1697 
L 988 1316 
L 988 0 
L 425 0 
z
" transform="scale(0.015625)"/>
       <path id="ArialMT-4a" d="M 184 1300 
L 731 1375 
Q 753 850 928 656 
Q 1103 463 1413 463 
Q 1641 463 1806 567 
Q 1972 672 2034 851 
Q 2097 1031 2097 1425 
L 2097 4581 
L 2703 4581 
L 2703 1459 
Q 2703 884 2564 568 
Q 2425 253 2123 87 
Q 1822 -78 1416 -78 
Q 813 -78 492 269 
Q 172 616 184 1300 
z
" transform="scale(0.015625)"/>
       <path id="ArialMT-29" d="M 791 -1347 
L 388 -1347 
Q 1322 153 1322 1656 
Q 1322 2244 1188 2822 
Q 1081 3291 891 3722 
Q 769 4003 388 4659 
L 791 4659 
Q 1378 3875 1659 3084 
Q 1900 2403 1900 1659 
Q 1900 816 1576 28 
Q 1253 -759 791 -1347 
z
" transform="scale(0.015625)"/>
      </defs>
      <use xlink:href="#DejaVuSans-Oblique-45" transform="translate(0 0.09375)"/>
      <use xlink:href="#DejaVuSans-Oblique-63" transform="translate(63.183594 -16.3125)scale(0.7)"/>
      <use xlink:href="#ArialMT-20" transform="translate(104.404297 0.09375)"/>
      <use xlink:href="#ArialMT-28" transform="translate(132.1875 0.09375)"/>
      <use xlink:href="#ArialMT-6b" transform="translate(165.488281 0.09375)"/>
      <use xlink:href="#ArialMT-4a" transform="translate(215.488281 0.09375)"/>
      <use xlink:href="#ArialMT-29" transform="translate(265.488281 0.09375)"/>
     </g>
    </g>
   </g>
   <g id="matplotlib.axis_2">
    <g id="ytick_1">
     <g id="line2d_6">
      <defs>
       <path id="m238b757c74" d="M 0 0 
L 5 0 
" style="stroke: #000000; stroke-width: 0.5"/>
      </defs>
      <g>
       <use xlink:href="#m238b757c74" x="35.32" y="69.67439" style="fill-opacity: 0; stroke: #000000; stroke-width: 0.5"/>
      </g>
     </g>
     <g id="text_7">
      <!-- 0.00 -->
      <g transform="translate(17.75125 72.537515)scale(0.08 -0.08)">
       <defs>
        <path id="ArialMT-2e" d="M 581 0 
L 581 641 
L 1222 641 
L 1222 0 
L 581 0 
z
" transform="scale(0.015625)"/>
       </defs>
       <use xlink:href="#ArialMT-30"/>
       <use xlink:href="#ArialMT-2e" x="55.615234"/>
       <use xlink:href="#ArialMT-30" x="83.398438"/>
       <use xlink:href="#ArialMT-30" x="139.013672"/>
      </g>
     </g>
    </g>
    <g id="ytick_2">
     <g id="line2d_7">
      <g>
       <use xlink:href="#m238b757c74" x="35.32" y="55.135792" style="fill-opacity: 0; stroke: #000000; stroke-width: 0.5"/>
      </g>
     </g>
     <g id="text_8">
      <!-- 0.25 -->
      <g transform="translate(17.75125 57.998917)scale(0.08 -0.08)">
       <defs>
        <path id="ArialMT-35" d="M 266 1200 
L 856 1250 
Q 922 819 1161 601 
Q 1400 384 1738 384 
Q 2144 384 2425 690 
Q 2706 997 2706 1503 
Q 2706 1984 2436 2262 
Q 2166 2541 1728 2541 
Q 1456 2541 1237 2417 
Q 1019 2294 894 2097 
L 366 2166 
L 809 4519 
L 3088 4519 
L 3088 3981 
L 1259 3981 
L 1013 2750 
Q 1425 3038 1878 3038 
Q 2478 3038 2890 2622 
Q 3303 2206 3303 1553 
Q 3303 931 2941 478 
Q 2500 -78 1738 -78 
Q 1113 -78 717 272 
Q 322 622 266 1200 
z
" transform="scale(0.015625)"/>
       </defs>
       <use xlink:href="#ArialMT-30"/>
       <use xlink:href="#ArialMT-2e" x="55.615234"/>
       <use xlink:href="#ArialMT-32" x="83.398438"/>
       <use xlink:href="#ArialMT-35" x="139.013672"/>
      </g>
     </g>
    </g>
    <g id="ytick_3">
     <g id="line2d_8">
      <g>
       <use xlink:href="#m238b757c74" x="35.32" y="40.597195" style="fill-opacity: 0; stroke: #000000; stroke-width: 0.5"/>
      </g>
     </g>
     <g id="text_9">
      <!-- 0.50 -->
      <g transform="translate(17.75125 43.46032)scale(0.08 -0.08)">
       <use xlink:href="#ArialMT-30"/>
       <use xlink:href="#ArialMT-2e" x="55.615234"/>
       <use xlink:href="#ArialMT-35" x="83.398438"/>
       <use xlink:href="#ArialMT-30" x="139.013672"/>
      </g>
     </g>
    </g>
    <g id="ytick_4">
     <g id="line2d_9">
      <g>
       <use xlink:href="#m238b757c74" x="35.32" y="26.058597" style="fill-opacity: 0; stroke: #000000; stroke-width: 0.5"/>
      </g>
     </g>
     <g id="text_10">
      <!-- 0.75 -->
      <g transform="translate(17.75125 28.921722)scale(0.08 -0.08)">
       <defs>
        <path id="ArialMT-37" d="M 303 3981 
L 303 4522 
L 3269 4522 
L 3269 4084 
Q 2831 3619 2401 2847 
Q 1972 2075 1738 1259 
Q 1569 684 1522 0 
L 944 0 
Q 953 541 1156 1306 
Q 1359 2072 1739 2783 
Q 2119 3494 2547 3981 
L 303 3981 
z
" transform="scale(0.015625)"/>
       </defs>
       <use xlink:href="#ArialMT-30"/>
       <use xlink:href="#ArialMT-2e" x="55.615234"/>
       <use xlink:href="#ArialMT-37" x="83.398438"/>
       <use xlink:href="#ArialMT-35" x="139.013672"/>
      </g>
     </g>
    </g>
    <g id="ytick_5">
     <g id="line2d_10">
      <g>
       <use xlink:href="#m238b757c74" x="35.32" y="11.52" style="fill-opacity: 0; stroke: #000000; stroke-width: 0.5"/>
      </g>
     </g>
     <g id="text_11">
      <!-- 1.00 -->
      <g transform="translate(17.75125 14.383125)scale(0.08 -0.08)">
       <use xlink:href="#ArialMT-31"/>
       <use xlink:href="#ArialMT-2e" x="55.615234"/>
       <use xlink:href="#ArialMT-30" x="83.398438"/>
       <use xlink:href="#ArialMT-30" x="139.013672"/>
      </g>
     </g>
    </g>
    <g id="text_12">
     <!-- CDF -->
     <g transform="translate(14.16125 48.81782)rotate(-90)scale(0.08 -0.08)">
      <defs>
       <path id="ArialMT-43" d="M 3763 1606 
L 4369 1453 
Q 4178 706 3683 314 
Q 3188 -78 2472 -78 
Q 1731 -78 1267 223 
Q 803 525 561 1097 
Q 319 1669 319 2325 
Q 319 3041 592 3573 
Q 866 4106 1370 4382 
Q 1875 4659 2481 4659 
Q 3169 4659 3637 4309 
Q 4106 3959 4291 3325 
L 3694 3184 
Q 3534 3684 3231 3912 
Q 2928 4141 2469 4141 
Q 1941 4141 1586 3887 
Q 1231 3634 1087 3207 
Q 944 2781 944 2328 
Q 944 1744 1114 1308 
Q 1284 872 1643 656 
Q 2003 441 2422 441 
Q 2931 441 3284 734 
Q 3638 1028 3763 1606 
z
" transform="scale(0.015625)"/>
       <path id="ArialMT-44" d="M 494 0 
L 494 4581 
L 2072 4581 
Q 2606 4581 2888 4516 
Q 3281 4425 3559 4188 
Q 3922 3881 4101 3404 
Q 4281 2928 4281 2316 
Q 4281 1794 4159 1391 
Q 4038 988 3847 723 
Q 3656 459 3429 307 
Q 3203 156 2883 78 
Q 2563 0 2147 0 
L 494 0 
z
M 1100 541 
L 2078 541 
Q 2531 541 2789 625 
Q 3047 709 3200 863 
Q 3416 1078 3536 1442 
Q 3656 1806 3656 2325 
Q 3656 3044 3420 3430 
Q 3184 3816 2847 3947 
Q 2603 4041 2063 4041 
L 1100 4041 
L 1100 541 
z
" transform="scale(0.015625)"/>
       <path id="ArialMT-46" d="M 525 0 
L 525 4581 
L 3616 4581 
L 3616 4041 
L 1131 4041 
L 1131 2622 
L 3281 2622 
L 3281 2081 
L 1131 2081 
L 1131 0 
L 525 0 
z
" transform="scale(0.015625)"/>
      </defs>
      <use xlink:href="#ArialMT-43"/>
      <use xlink:href="#ArialMT-44" x="72.216797"/>
      <use xlink:href="#ArialMT-46" x="144.433594"/>
     </g>
    </g>
   </g>
   <g id="line2d_11">
    <path d="M 15.26476 69.602594 
L 29.176613 69.387208 
L 35.259336 69.171821 
L 35.652925 69.100025 
L 65.987518 67.448728 
L 70.336962 66.946159 
L 71.196775 66.874364 
L 75.452126 66.730773 
L 75.503491 66.658977 
L 75.930722 66.515386 
L 76.075841 66.44359 
L 76.97535 66.299999 
L 77.315337 66.012817 
L 79.666183 65.438453 
L 79.708138 65.366657 
L 81.865503 64.720497 
L 83.953848 64.36152 
L 84.070453 64.074337 
L 84.405574 63.787155 
L 85.225126 63.643564 
L 85.3555 63.428178 
L 85.637539 63.284586 
L 86.256817 63.0692 
L 86.514217 62.782018 
L 87.463423 62.351244 
L 87.695155 62.135858 
L 87.811255 61.992267 
L 87.989683 61.848676 
L 88.615931 61.489698 
L 88.712611 61.274311 
L 89.050992 61.13072 
L 89.356078 60.915334 
L 89.444175 60.699947 
L 90.037282 60.412765 
L 90.541578 60.269174 
L 91.45667 59.694809 
L 91.537715 59.623014 
L 91.927927 59.479423 
L 92.136513 59.335832 
L 94.641612 57.253761 
L 94.801141 56.966579 
L 95.177143 56.751192 
L 95.284481 56.46401 
L 95.555441 56.320419 
L 95.890433 55.81785 
L 96.506999 55.458872 
L 96.826301 55.028099 
L 96.842965 54.956303 
L 97.247934 54.669121 
L 97.463021 54.52553 
L 97.736425 54.310144 
L 98.18531 53.735779 
L 98.554758 53.520393 
L 99.044321 53.017824 
L 99.607005 52.658846 
L 99.859411 52.515255 
L 100.016575 52.012686 
L 100.233429 51.7973 
L 100.330674 51.653708 
L 100.399564 51.510117 
L 100.677473 51.294731 
L 100.858943 51.079344 
L 101.461871 50.217798 
L 101.751623 50.002411 
L 101.850506 49.85882 
L 102.33298 49.428047 
L 102.459276 49.140864 
L 102.64821 48.853682 
L 103.082197 48.638296 
L 103.235037 48.351114 
L 103.331122 48.207522 
L 103.62975 47.92034 
L 104.00189 47.561363 
L 104.163377 47.417771 
L 104.438194 47.202385 
L 104.589266 46.915203 
L 104.876003 46.556225 
L 105.170259 46.340838 
L 105.256264 46.125452 
L 105.634192 45.910065 
L 105.749411 45.694678 
L 106.077208 45.407496 
L 106.100947 45.335701 
L 106.279849 45.19211 
L 106.582663 44.833132 
L 106.822957 44.617745 
L 106.938616 44.474154 
L 107.170518 44.258768 
L 107.375476 43.89979 
L 107.518619 43.540812 
L 107.751576 43.110039 
L 108.342131 42.463879 
L 108.446064 42.176697 
L 108.780811 41.674128 
L 108.90301 41.243355 
L 109.190752 40.812582 
L 109.495654 40.453604 
L 109.812893 40.166422 
L 109.939902 39.951035 
L 110.386263 39.376671 
L 110.435793 39.23308 
L 110.596653 39.089488 
L 110.699227 38.874102 
L 110.970234 38.371533 
L 111.312355 37.509987 
L 111.538586 37.366395 
L 111.571666 37.2946 
L 112.149422 36.935622 
L 112.163685 36.863827 
L 112.471487 36.64844 
L 112.620302 36.433053 
L 112.778494 36.217667 
L 113.129874 35.930485 
L 113.249056 35.715098 
L 113.652268 34.925347 
L 113.897324 34.781756 
L 113.98945 34.638165 
L 114.414159 34.279187 
L 114.697009 34.135596 
L 114.898058 33.848414 
L 115.034445 33.704823 
L 115.063075 33.561232 
L 115.343831 33.345845 
L 116.122954 32.412503 
L 116.278742 32.268912 
L 116.34843 32.053525 
L 116.474408 31.838139 
L 116.587915 31.622752 
L 116.855591 31.33557 
L 117.002091 31.120183 
L 117.17089 30.976592 
L 117.477017 30.474023 
L 117.633935 30.186841 
L 118.29674 29.181704 
L 118.651876 28.966317 
L 118.737699 28.535544 
L 119.033154 28.391953 
L 119.127843 28.176566 
L 119.136813 27.961179 
L 119.827953 27.673997 
L 119.998789 27.530406 
L 120.137584 27.243224 
L 120.382699 27.099633 
L 120.455929 26.884246 
L 121.7087 25.591926 
L 121.90574 25.37654 
L 122.168813 25.017562 
L 122.201156 24.873971 
L 123.084858 24.156016 
L 123.18062 23.940629 
L 123.411997 23.797038 
L 123.690526 23.366265 
L 124.571976 22.576514 
L 125.792394 21.786763 
L 125.953915 21.571376 
L 126.396556 21.284194 
L 127.155329 20.494443 
L 127.277909 20.135465 
L 128.217525 19.704692 
L 128.310539 19.561101 
L 128.671046 19.273919 
L 129.34711 18.986736 
L 129.362862 18.914941 
L 129.57751 18.699554 
L 130.093206 18.196985 
L 130.356944 18.053394 
L 130.622459 17.694417 
L 131.140892 17.335439 
L 131.584695 16.83287 
L 132.477995 16.545688 
L 132.56521 16.402097 
L 133.908101 15.827733 
L 135.095549 15.253368 
L 135.222986 15.109777 
L 137.322524 14.391822 
L 137.65823 14.248231 
L 137.934217 14.032844 
L 138.035245 13.961048 
L 138.435164 13.817457 
L 138.441186 13.745662 
L 139.111065 13.45848 
L 139.488806 13.314889 
L 139.497639 13.243093 
L 139.913887 13.027706 
L 139.92619 12.955911 
L 140.338541 12.81232 
L 142.065139 12.596933 
L 142.105592 12.525138 
L 143.097785 12.381547 
L 143.139678 12.309751 
L 146.653963 12.094364 
L 147.029678 12.022569 
L 155.1086 11.591796 
L 162.168367 11.52 
L 162.168367 11.52 
" clip-path="url(#p35ad94d99c)" style="fill: none; stroke: #000000; stroke-width: 1.2; stroke-linecap: square"/>
   </g>
   <g id="line2d_12">
    <path d="M 29.398255 69.602594 
L 41.898498 69.387208 
L 51.988123 68.741048 
L 57.058427 68.238479 
L 60.740948 68.094888 
L 60.843616 68.023092 
L 62.633089 67.879501 
L 62.924291 67.664115 
L 69.26574 67.305137 
L 72.192058 67.161546 
L 74.199747 66.802568 
L 74.226513 66.730773 
L 74.661247 66.587181 
L 78.437433 66.299999 
L 79.238367 66.012817 
L 79.71525 65.79743 
L 81.054963 65.582044 
L 81.378728 65.438453 
L 83.225646 65.223066 
L 83.825582 65.007679 
L 84.056177 64.792293 
L 84.491862 64.648702 
L 84.587479 64.505111 
L 85.430406 64.217929 
L 85.522698 64.146133 
L 87.568746 63.71536 
L 87.781385 63.571769 
L 88.341017 63.356382 
L 88.552253 63.212791 
L 89.412316 62.925609 
L 89.569572 62.782018 
L 89.976975 62.494835 
L 90.420598 62.207653 
L 90.43 62.135858 
L 90.777515 61.992267 
L 92.310575 60.412765 
L 92.33185 60.340969 
L 92.572712 60.197378 
L 92.573085 60.125583 
L 92.930629 59.910196 
L 93.016066 59.766605 
L 93.611208 59.551218 
L 93.782416 59.407627 
L 94.027213 59.048649 
L 94.058649 58.905058 
L 94.333876 58.617876 
L 94.424818 58.330694 
L 94.64721 58.187103 
L 94.649239 58.115307 
L 94.883733 57.971716 
L 94.975996 57.828125 
L 95.135808 57.540943 
L 95.162523 57.397352 
L 95.568497 57.181965 
L 96.458602 56.033237 
L 97.220273 55.602463 
L 97.774643 54.812712 
L 98.083475 54.381939 
L 98.269113 54.094757 
L 98.849763 53.807575 
L 98.921216 53.663984 
L 99.385974 53.305006 
L 99.418821 53.23321 
L 99.679418 53.089619 
L 100.123892 52.587051 
L 100.584578 52.443459 
L 100.634107 52.299868 
L 100.711315 52.084482 
L 100.756482 51.940891 
L 101.004895 51.725504 
L 101.150827 51.581913 
L 101.877533 51.294731 
L 101.977284 51.079344 
L 102.683197 50.146002 
L 103.371169 49.930615 
L 103.628792 49.499842 
L 103.796487 49.284456 
L 104.315604 49.140864 
L 104.588943 48.925478 
L 104.603465 48.853682 
L 104.954423 48.710091 
L 105.096989 48.422909 
L 105.401048 48.207522 
L 105.588716 47.776749 
L 105.994922 47.417771 
L 106.05528 47.130589 
L 106.90739 46.197247 
L 107.01199 46.053656 
L 107.399293 45.479292 
L 107.713642 45.19211 
L 108.723763 43.469017 
L 108.807988 43.325426 
L 108.973269 42.894652 
L 109.124441 42.60747 
L 109.498199 41.96131 
L 109.527319 41.889515 
L 109.917417 41.674128 
L 110.036778 41.243355 
L 110.292059 41.027968 
L 110.338043 40.812582 
L 110.521066 40.597195 
L 111.031461 39.735648 
L 111.165945 39.520262 
L 111.239449 39.376671 
L 111.400144 39.017693 
L 111.529428 38.802306 
L 111.70392 38.58692 
L 111.79846 38.299738 
L 112.13368 37.868964 
L 112.188193 37.581782 
L 112.427082 37.366395 
L 112.839686 36.720236 
L 113.008317 36.504849 
L 113.135596 36.145871 
L 113.18659 35.930485 
L 113.356145 35.786894 
L 113.555833 35.284325 
L 114.083159 34.853551 
L 114.686699 33.920209 
L 114.854167 33.704823 
L 114.989134 33.417641 
L 115.218415 33.058663 
L 115.265182 32.915072 
L 115.444075 32.62789 
L 115.585995 32.268912 
L 115.745642 32.053525 
L 115.996332 31.479161 
L 116.060594 31.33557 
L 116.309155 31.048388 
L 116.479604 30.617614 
L 116.815747 30.474023 
L 116.922049 30.186841 
L 117.131059 29.899659 
L 117.44013 29.540681 
L 117.658174 29.253499 
L 118.015889 28.822726 
L 118.154343 28.679135 
L 118.363003 28.176566 
L 119.383743 26.66886 
L 119.450938 26.525268 
L 119.660118 26.381677 
L 119.755977 26.094495 
L 119.884617 25.950904 
L 120.316743 25.591926 
L 120.512081 25.304744 
L 121.107259 24.586789 
L 121.451937 24.299607 
L 121.595605 24.08422 
L 121.931973 23.868833 
L 122.180168 23.509856 
L 122.803049 23.294469 
L 123.411429 22.576514 
L 123.434772 22.504718 
L 123.859167 22.361127 
L 124.982682 21.427785 
L 125.637677 20.709829 
L 126.004809 20.494443 
L 127.088905 18.986736 
L 127.21473 18.77135 
L 127.621726 18.412372 
L 128.053409 18.196985 
L 128.122578 17.981599 
L 128.703657 17.694417 
L 128.873202 17.550826 
L 129.074101 17.407235 
L 129.078524 17.335439 
L 129.333774 17.191848 
L 129.528426 16.976461 
L 129.9476 16.473892 
L 129.974073 16.402097 
L 130.386872 16.258506 
L 130.42744 16.043119 
L 130.862084 15.899528 
L 131.790723 15.325164 
L 131.841173 15.253368 
L 132.200413 15.037982 
L 132.288915 14.894391 
L 133.109964 14.463617 
L 133.215409 14.320026 
L 134.801321 14.10464 
L 135.546938 13.386684 
L 136.23758 13.171297 
L 138.521416 12.381547 
L 139.954941 12.16616 
L 140.033013 12.094364 
L 140.349283 12.022569 
L 141.803475 11.878978 
L 141.882968 11.807182 
L 142.139633 11.735387 
L 143.567027 11.591796 
L 146.617659 11.52 
L 146.617659 11.52 
" clip-path="url(#p35ad94d99c)" style="fill: none; stroke-dasharray: 5.12,1.28,0.8,1.28; stroke-dashoffset: 0; stroke: #3c5488; stroke-width: 0.8"/>
   </g>
   <g id="line2d_13">
    <path d="M -1 69.530861 
L 28.055481 69.459003 
L 45.894731 69.243617 
L 46.12946 69.171821 
L 55.461269 68.741048 
L 59.447519 68.525661 
L 62.163439 68.38207 
L 62.279244 68.238479 
L 64.385338 67.951297 
L 64.430431 67.879501 
L 66.372896 67.664115 
L 67.196922 67.520523 
L 70.406953 67.233341 
L 75.871923 66.730773 
L 75.943762 66.587181 
L 78.863483 66.084613 
L 78.881932 66.012817 
L 79.828075 65.869226 
L 79.935279 65.725635 
L 81.436968 65.510248 
L 81.668772 65.294862 
L 82.025864 65.079475 
L 83.245284 64.720497 
L 85.274869 63.643564 
L 85.308473 63.571769 
L 86.730863 62.853813 
L 87.148584 62.710222 
L 87.995757 62.42304 
L 88.463577 62.135858 
L 88.482719 62.064062 
L 89.282976 61.705084 
L 90.08794 61.561493 
L 90.477734 61.346107 
L 90.790127 61.058925 
L 91.501171 60.771742 
L 91.517881 60.699947 
L 92.020388 60.48456 
L 92.211354 60.269174 
L 92.777615 59.623014 
L 93.042489 59.264036 
L 93.972164 58.474285 
L 93.972842 58.40249 
L 94.492281 57.971716 
L 95.088495 57.397352 
L 95.564396 57.11017 
L 95.883472 56.679396 
L 95.93176 56.46401 
L 96.304773 56.248623 
L 96.63243 55.602463 
L 97.075399 55.387077 
L 97.083553 55.315281 
L 97.835814 54.884508 
L 97.865851 54.812712 
L 98.177474 54.597326 
L 98.305736 54.310144 
L 98.683926 54.094757 
L 98.793147 53.951166 
L 99.206016 53.735779 
L 99.287088 53.592188 
L 99.805574 53.305006 
L 100.579367 52.371664 
L 101.074289 52.228073 
L 101.160468 52.012686 
L 101.702729 51.15114 
L 101.966548 50.863958 
L 101.972641 50.792162 
L 102.152373 50.576775 
L 102.214875 50.361389 
L 102.448171 50.074207 
L 102.523688 49.930615 
L 102.902174 49.715229 
L 102.962668 49.571638 
L 103.748963 48.781887 
L 103.782237 48.710091 
L 104.215659 48.494705 
L 104.355046 48.207522 
L 104.606428 47.92034 
L 104.694411 47.776749 
L 104.917275 47.417771 
L 105.190592 47.130589 
L 105.451382 46.915203 
L 106.498998 45.335701 
L 106.614245 45.048519 
L 106.953025 44.689541 
L 107.182792 44.474154 
L 108.367683 42.966448 
L 108.386551 42.894652 
L 108.820621 42.751061 
L 108.878873 42.535675 
L 109.274888 42.033106 
L 109.296762 41.889515 
L 109.562101 41.745924 
L 109.576211 41.674128 
L 110.076594 41.31515 
L 110.100049 41.243355 
L 110.444011 41.099764 
L 111.010027 40.381808 
L 111.189869 39.951035 
L 111.356887 39.735648 
L 111.510026 39.23308 
L 112.166838 38.443329 
L 112.450879 38.299738 
L 112.57221 38.156146 
L 113.661627 36.361258 
L 113.706358 36.217667 
L 114.162831 36.00228 
L 114.207397 35.786894 
L 114.404386 35.571507 
L 114.40694 35.499711 
L 114.856463 35.140734 
L 114.944932 34.853551 
L 115.084476 34.638165 
L 115.393263 34.207392 
L 115.66014 33.920209 
L 115.713545 33.704823 
L 116.127536 33.345845 
L 116.671464 32.484299 
L 116.846595 32.340707 
L 116.850891 32.268912 
L 117.585533 31.838139 
L 118.883737 30.474023 
L 119.186543 30.186841 
L 119.29345 29.971455 
L 119.422942 29.827863 
L 119.535389 29.540681 
L 119.946018 29.253499 
L 120.175357 28.966317 
L 120.312911 28.679135 
L 120.894891 27.961179 
L 121.830996 26.812451 
L 122.150674 26.597064 
L 122.661305 26.094495 
L 123.356292 24.873971 
L 123.868984 24.586789 
L 124.256459 24.371402 
L 124.26819 24.299607 
L 124.533707 24.08422 
L 124.616874 23.940629 
L 125.21866 23.581651 
L 125.42079 23.222673 
L 125.829141 23.007287 
L 126.29551 22.504718 
L 126.854682 22.217536 
L 127.127149 22.002149 
L 127.165244 21.930354 
L 127.402467 21.786763 
L 127.519355 21.49958 
L 127.980772 21.212398 
L 128.272491 20.997012 
L 128.398924 20.781625 
L 128.831674 20.566238 
L 128.936408 20.279056 
L 128.969224 20.207261 
L 129.233085 20.06367 
L 129.342407 19.920079 
L 129.860458 19.632896 
L 129.972391 19.489305 
L 130.600271 19.202123 
L 130.869641 18.986736 
L 131.223021 18.627759 
L 131.37838 18.340577 
L 132.98837 16.83287 
L 133.898217 16.545688 
L 133.909718 16.473892 
L 135.262443 15.899528 
L 135.321946 15.684141 
L 135.41093 15.612346 
L 136.072636 15.468755 
L 136.167051 15.325164 
L 136.249369 15.253368 
L 136.939277 15.037982 
L 137.103351 14.894391 
L 138.044682 14.679004 
L 139.125827 13.817457 
L 140.057438 13.530275 
L 140.368804 13.314889 
L 140.382643 13.243093 
L 141.372231 13.027706 
L 141.834288 12.81232 
L 141.874116 12.740524 
L 142.528048 12.596933 
L 143.073952 12.453342 
L 147.327308 12.16616 
L 147.678165 12.022569 
L 150.916119 11.735387 
L 156.839945 11.52 
L 156.839945 11.52 
" clip-path="url(#p35ad94d99c)" style="fill: none; stroke-dasharray: 2.96,1.28; stroke-dashoffset: 0; stroke: #dc0000; stroke-width: 0.8"/>
   </g>
   <g id="patch_3">
    <path d="M 35.32 69.67439 
L 35.32 11.52 
" style="fill: none; stroke: #000000; stroke-width: 0.5; stroke-linejoin: miter; stroke-linecap: square"/>
   </g>
   <g id="patch_4">
    <path d="M 154.776623 69.67439 
L 154.776623 11.52 
" style="fill: none; stroke: #000000; stroke-width: 0.5; stroke-linejoin: miter; stroke-linecap: square"/>
   </g>
   <g id="patch_5">
    <path d="M 35.32 69.67439 
L 154.776623 69.67439 
" style="fill: none; stroke: #000000; stroke-width: 0.5; stroke-linejoin: miter; stroke-linecap: square"/>
   </g>
   <g id="patch_6">
    <path d="M 35.32 11.52 
L 154.776623 11.52 
" style="fill: none; stroke: #000000; stroke-width: 0.5; stroke-linejoin: miter; stroke-linecap: square"/>
   </g>
  </g>
 </g>
 <defs>
  <clipPath id="p35ad94d99c">
   <rect x="35.32" y="11.52" width="119.456623" height="58.15439"/>
  </clipPath>
 </defs>
</svg>
