<?xml version="1.0" encoding="utf-8" standalone="no"?>
<!DOCTYPE svg PUBLIC "-//W3C//DTD SVG 1.1//EN"
  "http://www.w3.org/Graphics/SVG/1.1/DTD/svg11.dtd">
<svg xmlns:xlink="http://www.w3.org/1999/xlink" width="170.07874pt" height="141.732283pt" viewBox="0 0 170.07874 141.732283" xmlns="http://www.w3.org/2000/svg" version="1.1">
 <metadata>
  <rdf:RDF xmlns:dc="http://purl.org/dc/elements/1.1/" xmlns:cc="http://creativecommons.org/ns#" xmlns:rdf="http://www.w3.org/1999/02/22-rdf-syntax-ns#">
   <cc:Work>
    <dc:type rdf:resource="http://purl.org/dc/dcmitype/StillImage"/>
    <dc:date>2025-01-06T17:26:18.931828</dc:date>
    <dc:format>image/svg+xml</dc:format>
    <dc:creator>
     <cc:Agent>
      <dc:title>Matplotlib v3.5.2, https://matplotlib.org/</dc:title>
     </cc:Agent>
    </dc:creator>
   </cc:Work>
  </rdf:RDF>
 </metadata>
 <defs>
  <style type="text/css">*{stroke-linejoin: round; stroke-linecap: butt}</style>
 </defs>
 <g id="figure_1">
  <g id="patch_1">
   <path d="M 0 141.732283 
L 170.07874 141.732283 
L 170.07874 0 
L 0 0 
z
" style="fill: #ffffff"/>
  </g>
  <g id="axes_1">
   <g id="patch_2">
    <path d="M 30.91 114.692283 
L 159.23374 114.692283 
L 159.23374 11.52 
L 30.91 11.52 
z
" style="fill: #ffffff"/>
   </g>
   <g id="PolyCollection_1">
    <defs>
     <path id="m8ba8484732" d="M 31.337746 -40.274203 
L 31.337746 -27.661268 
L 32.629625 -40.977701 
L 33.921503 -57.594622 
L 35.213382 -71.492034 
L 36.505261 -82.38714 
L 37.797139 -90.860654 
L 39.089018 -97.494255 
L 40.380897 -102.742835 
L 41.672776 -106.943012 
L 42.964654 -110.341345 
L 44.256533 -113.119233 
L 45.548412 -115.411442 
L 46.840291 -117.319246 
L 48.132169 -118.919651 
L 49.424048 -120.27188 
L 50.715927 -121.421977 
L 52.007805 -122.406102 
L 53.299684 -123.252923 
L 54.591563 -123.985368 
L 55.883442 -124.621924 
L 57.17532 -125.17761 
L 58.467199 -125.664714 
L 59.759078 -126.093359 
L 61.050957 -126.47193 
L 62.342835 -126.807416 
L 63.634714 -127.105675 
L 64.926593 -127.371638 
L 66.218472 -127.609478 
L 67.51035 -127.822743 
L 68.802229 -128.014461 
L 70.094108 -128.187227 
L 71.385986 -128.343272 
L 72.677865 -128.484524 
L 73.969744 -128.612652 
L 75.261623 -128.729108 
L 76.553501 -128.835155 
L 77.84538 -128.9319 
L 79.137259 -129.020313 
L 80.429138 -129.101245 
L 81.721016 -129.17545 
L 83.012895 -129.24359 
L 84.304774 -129.306253 
L 85.596652 -129.363963 
L 86.888531 -129.417182 
L 88.18041 -129.466326 
L 89.472289 -129.511764 
L 90.764167 -129.553826 
L 92.056046 -129.592811 
L 93.347925 -129.628984 
L 94.639804 -129.662585 
L 95.931682 -129.693831 
L 97.223561 -129.722916 
L 98.51544 -129.750018 
L 99.807319 -129.775296 
L 101.099197 -129.798896 
L 102.391076 -129.820948 
L 103.682955 -129.841572 
L 104.974833 -129.860879 
L 106.266712 -129.878966 
L 107.558591 -129.895925 
L 108.85047 -129.911839 
L 110.142348 -129.926784 
L 111.434227 -129.940828 
L 112.726106 -129.954037 
L 114.017985 -129.966469 
L 115.309863 -129.978177 
L 116.601742 -129.989211 
L 117.893621 -129.999617 
L 119.1855 -130.009437 
L 120.477378 -130.01871 
L 121.769257 -130.027471 
L 123.061136 -130.035754 
L 124.353014 -130.043589 
L 125.644893 -130.051005 
L 126.936772 -130.058028 
L 128.228651 -130.064683 
L 129.520529 -130.070992 
L 130.812408 -130.076976 
L 132.104287 -130.082655 
L 133.396166 -130.088048 
L 134.688044 -130.093171 
L 135.979923 -130.09804 
L 137.271802 -130.102669 
L 138.56368 -130.107073 
L 139.855559 -130.111265 
L 141.147438 -130.115256 
L 142.439317 -130.119058 
L 143.731195 -130.122681 
L 145.023074 -130.126135 
L 146.314953 -130.129429 
L 147.606832 -130.132573 
L 148.89871 -130.135573 
L 150.190589 -130.138438 
L 151.482468 -130.141175 
L 152.774347 -130.14379 
L 154.066225 -130.14629 
L 155.358104 -130.148681 
L 156.649983 -130.150968 
L 157.941861 -130.153157 
L 159.23374 -130.155252 
L 159.23374 -130.212255 
L 159.23374 -130.212255 
L 157.941861 -130.212253 
L 156.649983 -130.212252 
L 155.358104 -130.21225 
L 154.066225 -130.212248 
L 152.774347 -130.212246 
L 151.482468 -130.212243 
L 150.190589 -130.212241 
L 148.89871 -130.212238 
L 147.606832 -130.212235 
L 146.314953 -130.212232 
L 145.023074 -130.212229 
L 143.731195 -130.212226 
L 142.439317 -130.212222 
L 141.147438 -130.212218 
L 139.855559 -130.212213 
L 138.56368 -130.212209 
L 137.271802 -130.212204 
L 135.979923 -130.212198 
L 134.688044 -130.212192 
L 133.396166 -130.212186 
L 132.104287 -130.212179 
L 130.812408 -130.212172 
L 129.520529 -130.212164 
L 128.228651 -130.212155 
L 126.936772 -130.212146 
L 125.644893 -130.212136 
L 124.353014 -130.212125 
L 123.061136 -130.212113 
L 121.769257 -130.2121 
L 120.477378 -130.212086 
L 119.1855 -130.21207 
L 117.893621 -130.212053 
L 116.601742 -130.212035 
L 115.309863 -130.212015 
L 114.017985 -130.211993 
L 112.726106 -130.211968 
L 111.434227 -130.211942 
L 110.142348 -130.211913 
L 108.85047 -130.211881 
L 107.558591 -130.211845 
L 106.266712 -130.211807 
L 104.974833 -130.211764 
L 103.682955 -130.211716 
L 102.391076 -130.211664 
L 101.099197 -130.211605 
L 99.807319 -130.21154 
L 98.51544 -130.211468 
L 97.223561 -130.211388 
L 95.931682 -130.211299 
L 94.639804 -130.211199 
L 93.347925 -130.211087 
L 92.056046 -130.210961 
L 90.764167 -130.21082 
L 89.472289 -130.210661 
L 88.18041 -130.210481 
L 86.888531 -130.210278 
L 85.596652 -130.210048 
L 84.304774 -130.209786 
L 83.012895 -130.209488 
L 81.721016 -130.209148 
L 80.429138 -130.208758 
L 79.137259 -130.208311 
L 77.84538 -130.207796 
L 76.553501 -130.207202 
L 75.261623 -130.206513 
L 73.969744 -130.205713 
L 72.677865 -130.20478 
L 71.385986 -130.203687 
L 70.094108 -130.202403 
L 68.802229 -130.200888 
L 67.51035 -130.199093 
L 66.218472 -130.196956 
L 64.926593 -130.194399 
L 63.634714 -130.191324 
L 62.342835 -130.187606 
L 61.050957 -130.183084 
L 59.759078 -130.17755 
L 58.467199 -130.170729 
L 57.17532 -130.162262 
L 55.883442 -130.151668 
L 54.591563 -130.138298 
L 53.299684 -130.121266 
L 52.007805 -130.099346 
L 50.715927 -130.070816 
L 49.424048 -130.033216 
L 48.132169 -129.982974 
L 46.840291 -129.914788 
L 45.548412 -129.820618 
L 44.256533 -129.687941 
L 42.964654 -129.496677 
L 41.672776 -129.21349 
L 40.380897 -128.780762 
L 39.089018 -128.093952 
L 37.797139 -126.951885 
L 36.505261 -124.937867 
L 35.213382 -121.103551 
L 33.921503 -113.005984 
L 32.629625 -93.269297 
L 31.337746 -40.274203 
z
" style="stroke: #808080; stroke-opacity: 0.6"/>
    </defs>
    <g clip-path="url(#p105dc3b87b)">
     <use xlink:href="#m8ba8484732" x="0" y="141.732283" style="fill: #808080; fill-opacity: 0.6; stroke: #808080; stroke-opacity: 0.6"/>
    </g>
   </g>
   <g id="PolyCollection_2">
    <defs>
     <path id="md835c42d0a" d="M 31.337746 -27.043244 
L 31.337746 -27.040237 
L 32.629625 -27.117547 
L 33.921503 -27.511301 
L 35.213382 -28.315648 
L 36.505261 -29.501359 
L 37.797139 -31.001053 
L 39.089018 -32.743757 
L 40.380897 -34.666336 
L 41.672776 -36.716194 
L 42.964654 -38.850866 
L 44.256533 -41.036647 
L 45.548412 -43.247079 
L 46.840291 -45.46156 
L 48.132169 -47.664173 
L 49.424048 -49.842724 
L 50.715927 -51.987975 
L 52.007805 -54.093023 
L 53.299684 -56.152817 
L 54.591563 -58.163767 
L 55.883442 -60.123441 
L 57.17532 -62.030314 
L 58.467199 -63.883583 
L 59.759078 -65.683004 
L 61.050957 -67.428773 
L 62.342835 -69.121426 
L 63.634714 -70.761762 
L 64.926593 -72.350776 
L 66.218472 -73.889612 
L 67.51035 -75.37952 
L 68.802229 -76.821827 
L 70.094108 -78.217906 
L 71.385986 -79.569159 
L 72.677865 -80.877 
L 73.969744 -82.142842 
L 75.261623 -83.368085 
L 76.553501 -84.554112 
L 77.84538 -85.702278 
L 79.137259 -86.81391 
L 80.429138 -87.8903 
L 81.721016 -88.932705 
L 83.012895 -89.942344 
L 84.304774 -90.920398 
L 85.596652 -91.868009 
L 86.888531 -92.786277 
L 88.18041 -93.676267 
L 89.472289 -94.539003 
L 90.764167 -95.375472 
L 92.056046 -96.186623 
L 93.347925 -96.973371 
L 94.639804 -97.736593 
L 95.931682 -98.477133 
L 97.223561 -99.195803 
L 98.51544 -99.893382 
L 99.807319 -100.570619 
L 101.099197 -101.228233 
L 102.391076 -101.866914 
L 103.682955 -102.487325 
L 104.974833 -103.090103 
L 106.266712 -103.67586 
L 107.558591 -104.245183 
L 108.85047 -104.798636 
L 110.142348 -105.33676 
L 111.434227 -105.860077 
L 112.726106 -106.369087 
L 114.017985 -106.864269 
L 115.309863 -107.346085 
L 116.601742 -107.81498 
L 117.893621 -108.271379 
L 119.1855 -108.715693 
L 120.477378 -109.148316 
L 121.769257 -109.569627 
L 123.061136 -109.979992 
L 124.353014 -110.37976 
L 125.644893 -110.769269 
L 126.936772 -111.148845 
L 128.228651 -111.518801 
L 129.520529 -111.879437 
L 130.812408 -112.231044 
L 132.104287 -112.5739 
L 133.396166 -112.908276 
L 134.688044 -113.23443 
L 135.979923 -113.552613 
L 137.271802 -113.863065 
L 138.56368 -114.166019 
L 139.855559 -114.461698 
L 141.147438 -114.750318 
L 142.439317 -115.032089 
L 143.731195 -115.30721 
L 145.023074 -115.575877 
L 146.314953 -115.838276 
L 147.606832 -116.094589 
L 148.89871 -116.344989 
L 150.190589 -116.589646 
L 151.482468 -116.828723 
L 152.774347 -117.062376 
L 154.066225 -117.290759 
L 155.358104 -117.514017 
L 156.649983 -117.732294 
L 157.941861 -117.945727 
L 159.23374 -118.154448 
L 159.23374 -128.544102 
L 159.23374 -128.544102 
L 157.941861 -128.498166 
L 156.649983 -128.450667 
L 155.358104 -128.401538 
L 154.066225 -128.350714 
L 152.774347 -128.298123 
L 151.482468 -128.243692 
L 150.190589 -128.187343 
L 148.89871 -128.128993 
L 147.606832 -128.068559 
L 146.314953 -128.005948 
L 145.023074 -127.941068 
L 143.731195 -127.873818 
L 142.439317 -127.804094 
L 141.147438 -127.731785 
L 139.855559 -127.656776 
L 138.56368 -127.578944 
L 137.271802 -127.498162 
L 135.979923 -127.414293 
L 134.688044 -127.327195 
L 133.396166 -127.236716 
L 132.104287 -127.142698 
L 130.812408 -127.044973 
L 129.520529 -126.943364 
L 128.228651 -126.837682 
L 126.936772 -126.72773 
L 125.644893 -126.613298 
L 124.353014 -126.494164 
L 123.061136 -126.370093 
L 121.769257 -126.240837 
L 120.477378 -126.106131 
L 119.1855 -125.965695 
L 117.893621 -125.819234 
L 116.601742 -125.666431 
L 115.309863 -125.506952 
L 114.017985 -125.340441 
L 112.726106 -125.16652 
L 111.434227 -124.984786 
L 110.142348 -124.794811 
L 108.85047 -124.596137 
L 107.558591 -124.388279 
L 106.266712 -124.170717 
L 104.974833 -123.942897 
L 103.682955 -123.704226 
L 102.391076 -123.454072 
L 101.099197 -123.191758 
L 99.807319 -122.91656 
L 98.51544 -122.627701 
L 97.223561 -122.324351 
L 95.931682 -122.005618 
L 94.639804 -121.670542 
L 93.347925 -121.318097 
L 92.056046 -120.947176 
L 90.764167 -120.556588 
L 89.472289 -120.145052 
L 88.18041 -119.711187 
L 86.888531 -119.253504 
L 85.596652 -118.770392 
L 84.304774 -118.260115 
L 83.012895 -117.720793 
L 81.721016 -117.150391 
L 80.429138 -116.546705 
L 79.137259 -115.907347 
L 77.84538 -115.229721 
L 76.553501 -114.51101 
L 75.261623 -113.748153 
L 73.969744 -112.937815 
L 72.677865 -112.076368 
L 71.385986 -111.159856 
L 70.094108 -110.183964 
L 68.802229 -109.143982 
L 67.51035 -108.034768 
L 66.218472 -106.8507 
L 64.926593 -105.585633 
L 63.634714 -104.23285 
L 62.342835 -102.785004 
L 61.050957 -101.234064 
L 59.759078 -99.571258 
L 58.467199 -97.787013 
L 57.17532 -95.870905 
L 55.883442 -93.81161 
L 54.591563 -91.596878 
L 53.299684 -89.213532 
L 52.007805 -86.647514 
L 50.715927 -83.884005 
L 49.424048 -80.907658 
L 48.132169 -77.703016 
L 46.840291 -74.255201 
L 45.548412 -70.551034 
L 44.256533 -66.580824 
L 42.964654 -62.341192 
L 41.672776 -57.839529 
L 40.380897 -53.101011 
L 39.089018 -48.179673 
L 37.797139 -43.175764 
L 36.505261 -38.262476 
L 35.213382 -33.724549 
L 33.921503 -30.001789 
L 32.629625 -27.674327 
L 31.337746 -27.043244 
z
" style="stroke: #808080; stroke-opacity: 0.5"/>
    </defs>
    <g clip-path="url(#p105dc3b87b)">
     <use xlink:href="#md835c42d0a" x="0" y="141.732283" style="fill: #808080; fill-opacity: 0.5; stroke: #808080; stroke-opacity: 0.5"/>
    </g>
   </g>
   <g id="matplotlib.axis_1">
    <g id="xtick_1">
     <g id="line2d_1">
      <defs>
       <path id="mbf4be5b0e2" d="M 0 0 
L 0 -5 
" style="stroke: #000000; stroke-width: 0.5"/>
      </defs>
      <g>
       <use xlink:href="#mbf4be5b0e2" x="30.91" y="114.692283" style="fill-opacity: 0; stroke: #000000; stroke-width: 0.5"/>
      </g>
     </g>
     <g id="text_1">
      <!-- 0 -->
      <g transform="translate(28.685625 122.418533)scale(0.08 -0.08)">
       <defs>
        <path id="ArialMT-30" d="M 266 2259 
Q 266 3072 433 3567 
Q 600 4063 929 4331 
Q 1259 4600 1759 4600 
Q 2128 4600 2406 4451 
Q 2684 4303 2865 4023 
Q 3047 3744 3150 3342 
Q 3253 2941 3253 2259 
Q 3253 1453 3087 958 
Q 2922 463 2592 192 
Q 2263 -78 1759 -78 
Q 1097 -78 719 397 
Q 266 969 266 2259 
z
M 844 2259 
Q 844 1131 1108 757 
Q 1372 384 1759 384 
Q 2147 384 2411 759 
Q 2675 1134 2675 2259 
Q 2675 3391 2411 3762 
Q 2147 4134 1753 4134 
Q 1366 4134 1134 3806 
Q 844 3388 844 2259 
z
" transform="scale(0.015625)"/>
       </defs>
       <use xlink:href="#ArialMT-30"/>
      </g>
     </g>
    </g>
    <g id="xtick_2">
     <g id="line2d_2">
      <g>
       <use xlink:href="#mbf4be5b0e2" x="73.68458" y="114.692283" style="fill-opacity: 0; stroke: #000000; stroke-width: 0.5"/>
      </g>
     </g>
     <g id="text_2">
      <!-- 1 -->
      <g transform="translate(71.460205 122.418533)scale(0.08 -0.08)">
       <defs>
        <path id="ArialMT-31" d="M 2384 0 
L 1822 0 
L 1822 3584 
Q 1619 3391 1289 3197 
Q 959 3003 697 2906 
L 697 3450 
Q 1169 3672 1522 3987 
Q 1875 4303 2022 4600 
L 2384 4600 
L 2384 0 
z
" transform="scale(0.015625)"/>
       </defs>
       <use xlink:href="#ArialMT-31"/>
      </g>
     </g>
    </g>
    <g id="xtick_3">
     <g id="line2d_3">
      <g>
       <use xlink:href="#mbf4be5b0e2" x="116.45916" y="114.692283" style="fill-opacity: 0; stroke: #000000; stroke-width: 0.5"/>
      </g>
     </g>
     <g id="text_3">
      <!-- 2 -->
      <g transform="translate(114.234785 122.418533)scale(0.08 -0.08)">
       <defs>
        <path id="ArialMT-32" d="M 3222 541 
L 3222 0 
L 194 0 
Q 188 203 259 391 
Q 375 700 629 1000 
Q 884 1300 1366 1694 
Q 2113 2306 2375 2664 
Q 2638 3022 2638 3341 
Q 2638 3675 2398 3904 
Q 2159 4134 1775 4134 
Q 1369 4134 1125 3890 
Q 881 3647 878 3216 
L 300 3275 
Q 359 3922 746 4261 
Q 1134 4600 1788 4600 
Q 2447 4600 2831 4234 
Q 3216 3869 3216 3328 
Q 3216 3053 3103 2787 
Q 2991 2522 2730 2228 
Q 2469 1934 1863 1422 
Q 1356 997 1212 845 
Q 1069 694 975 541 
L 3222 541 
z
" transform="scale(0.015625)"/>
       </defs>
       <use xlink:href="#ArialMT-32"/>
      </g>
     </g>
    </g>
    <g id="xtick_4">
     <g id="line2d_4">
      <g>
       <use xlink:href="#mbf4be5b0e2" x="159.23374" y="114.692283" style="fill-opacity: 0; stroke: #000000; stroke-width: 0.5"/>
      </g>
     </g>
     <g id="text_4">
      <!-- 3 -->
      <g transform="translate(157.009365 122.418533)scale(0.08 -0.08)">
       <defs>
        <path id="ArialMT-33" d="M 269 1209 
L 831 1284 
Q 928 806 1161 595 
Q 1394 384 1728 384 
Q 2125 384 2398 659 
Q 2672 934 2672 1341 
Q 2672 1728 2419 1979 
Q 2166 2231 1775 2231 
Q 1616 2231 1378 2169 
L 1441 2663 
Q 1497 2656 1531 2656 
Q 1891 2656 2178 2843 
Q 2466 3031 2466 3422 
Q 2466 3731 2256 3934 
Q 2047 4138 1716 4138 
Q 1388 4138 1169 3931 
Q 950 3725 888 3313 
L 325 3413 
Q 428 3978 793 4289 
Q 1159 4600 1703 4600 
Q 2078 4600 2393 4439 
Q 2709 4278 2876 4000 
Q 3044 3722 3044 3409 
Q 3044 3113 2884 2869 
Q 2725 2625 2413 2481 
Q 2819 2388 3044 2092 
Q 3269 1797 3269 1353 
Q 3269 753 2831 336 
Q 2394 -81 1725 -81 
Q 1122 -81 723 278 
Q 325 638 269 1209 
z
" transform="scale(0.015625)"/>
       </defs>
       <use xlink:href="#ArialMT-33"/>
      </g>
     </g>
    </g>
    <g id="xtick_5">
     <g id="line2d_5">
      <defs>
       <path id="m6533c443d4" d="M 0 0 
L 0 -3 
" style="stroke: #000000; stroke-width: 0.5"/>
      </defs>
      <g>
       <use xlink:href="#m6533c443d4" x="39.464916" y="114.692283" style="fill-opacity: 0; stroke: #000000; stroke-width: 0.5"/>
      </g>
     </g>
    </g>
    <g id="xtick_6">
     <g id="line2d_6">
      <g>
       <use xlink:href="#m6533c443d4" x="48.019832" y="114.692283" style="fill-opacity: 0; stroke: #000000; stroke-width: 0.5"/>
      </g>
     </g>
    </g>
    <g id="xtick_7">
     <g id="line2d_7">
      <g>
       <use xlink:href="#m6533c443d4" x="56.574748" y="114.692283" style="fill-opacity: 0; stroke: #000000; stroke-width: 0.5"/>
      </g>
     </g>
    </g>
    <g id="xtick_8">
     <g id="line2d_8">
      <g>
       <use xlink:href="#m6533c443d4" x="65.129664" y="114.692283" style="fill-opacity: 0; stroke: #000000; stroke-width: 0.5"/>
      </g>
     </g>
    </g>
    <g id="xtick_9">
     <g id="line2d_9">
      <g>
       <use xlink:href="#m6533c443d4" x="82.239496" y="114.692283" style="fill-opacity: 0; stroke: #000000; stroke-width: 0.5"/>
      </g>
     </g>
    </g>
    <g id="xtick_10">
     <g id="line2d_10">
      <g>
       <use xlink:href="#m6533c443d4" x="90.794412" y="114.692283" style="fill-opacity: 0; stroke: #000000; stroke-width: 0.5"/>
      </g>
     </g>
    </g>
    <g id="xtick_11">
     <g id="line2d_11">
      <g>
       <use xlink:href="#m6533c443d4" x="99.349328" y="114.692283" style="fill-opacity: 0; stroke: #000000; stroke-width: 0.5"/>
      </g>
     </g>
    </g>
    <g id="xtick_12">
     <g id="line2d_12">
      <g>
       <use xlink:href="#m6533c443d4" x="107.904244" y="114.692283" style="fill-opacity: 0; stroke: #000000; stroke-width: 0.5"/>
      </g>
     </g>
    </g>
    <g id="xtick_13">
     <g id="line2d_13">
      <g>
       <use xlink:href="#m6533c443d4" x="125.014076" y="114.692283" style="fill-opacity: 0; stroke: #000000; stroke-width: 0.5"/>
      </g>
     </g>
    </g>
    <g id="xtick_14">
     <g id="line2d_14">
      <g>
       <use xlink:href="#m6533c443d4" x="133.568992" y="114.692283" style="fill-opacity: 0; stroke: #000000; stroke-width: 0.5"/>
      </g>
     </g>
    </g>
    <g id="xtick_15">
     <g id="line2d_15">
      <g>
       <use xlink:href="#m6533c443d4" x="142.123908" y="114.692283" style="fill-opacity: 0; stroke: #000000; stroke-width: 0.5"/>
      </g>
     </g>
    </g>
    <g id="xtick_16">
     <g id="line2d_16">
      <g>
       <use xlink:href="#m6533c443d4" x="150.678824" y="114.692283" style="fill-opacity: 0; stroke: #000000; stroke-width: 0.5"/>
      </g>
     </g>
    </g>
    <g id="text_5">
     <!-- PGA [g] -->
     <g transform="translate(81.286245 131.832283)scale(0.08 -0.08)">
      <defs>
       <path id="ArialMT-50" d="M 494 0 
L 494 4581 
L 2222 4581 
Q 2678 4581 2919 4538 
Q 3256 4481 3484 4323 
Q 3713 4166 3852 3881 
Q 3991 3597 3991 3256 
Q 3991 2672 3619 2267 
Q 3247 1863 2275 1863 
L 1100 1863 
L 1100 0 
L 494 0 
z
M 1100 2403 
L 2284 2403 
Q 2872 2403 3119 2622 
Q 3366 2841 3366 3238 
Q 3366 3525 3220 3729 
Q 3075 3934 2838 4000 
Q 2684 4041 2272 4041 
L 1100 4041 
L 1100 2403 
z
" transform="scale(0.015625)"/>
       <path id="ArialMT-47" d="M 2638 1797 
L 2638 2334 
L 4578 2338 
L 4578 638 
Q 4131 281 3656 101 
Q 3181 -78 2681 -78 
Q 2006 -78 1454 211 
Q 903 500 622 1047 
Q 341 1594 341 2269 
Q 341 2938 620 3517 
Q 900 4097 1425 4378 
Q 1950 4659 2634 4659 
Q 3131 4659 3532 4498 
Q 3934 4338 4162 4050 
Q 4391 3763 4509 3300 
L 3963 3150 
Q 3859 3500 3706 3700 
Q 3553 3900 3268 4020 
Q 2984 4141 2638 4141 
Q 2222 4141 1919 4014 
Q 1616 3888 1430 3681 
Q 1244 3475 1141 3228 
Q 966 2803 966 2306 
Q 966 1694 1177 1281 
Q 1388 869 1791 669 
Q 2194 469 2647 469 
Q 3041 469 3416 620 
Q 3791 772 3984 944 
L 3984 1797 
L 2638 1797 
z
" transform="scale(0.015625)"/>
       <path id="ArialMT-41" d="M -9 0 
L 1750 4581 
L 2403 4581 
L 4278 0 
L 3588 0 
L 3053 1388 
L 1138 1388 
L 634 0 
L -9 0 
z
M 1313 1881 
L 2866 1881 
L 2388 3150 
Q 2169 3728 2063 4100 
Q 1975 3659 1816 3225 
L 1313 1881 
z
" transform="scale(0.015625)"/>
       <path id="ArialMT-20" transform="scale(0.015625)"/>
       <path id="ArialMT-5b" d="M 434 -1272 
L 434 4581 
L 1675 4581 
L 1675 4116 
L 997 4116 
L 997 -806 
L 1675 -806 
L 1675 -1272 
L 434 -1272 
z
" transform="scale(0.015625)"/>
       <path id="ArialMT-67" d="M 319 -275 
L 866 -356 
Q 900 -609 1056 -725 
Q 1266 -881 1628 -881 
Q 2019 -881 2231 -725 
Q 2444 -569 2519 -288 
Q 2563 -116 2559 434 
Q 2191 0 1641 0 
Q 956 0 581 494 
Q 206 988 206 1678 
Q 206 2153 378 2554 
Q 550 2956 876 3175 
Q 1203 3394 1644 3394 
Q 2231 3394 2613 2919 
L 2613 3319 
L 3131 3319 
L 3131 450 
Q 3131 -325 2973 -648 
Q 2816 -972 2473 -1159 
Q 2131 -1347 1631 -1347 
Q 1038 -1347 672 -1080 
Q 306 -813 319 -275 
z
M 784 1719 
Q 784 1066 1043 766 
Q 1303 466 1694 466 
Q 2081 466 2343 764 
Q 2606 1063 2606 1700 
Q 2606 2309 2336 2618 
Q 2066 2928 1684 2928 
Q 1309 2928 1046 2623 
Q 784 2319 784 1719 
z
" transform="scale(0.015625)"/>
       <path id="ArialMT-5d" d="M 1363 -1272 
L 122 -1272 
L 122 -806 
L 800 -806 
L 800 4116 
L 122 4116 
L 122 4581 
L 1363 4581 
L 1363 -1272 
z
" transform="scale(0.015625)"/>
      </defs>
      <use xlink:href="#ArialMT-50"/>
      <use xlink:href="#ArialMT-47" x="66.699219"/>
      <use xlink:href="#ArialMT-41" x="144.482422"/>
      <use xlink:href="#ArialMT-20" x="205.681641"/>
      <use xlink:href="#ArialMT-5b" x="233.464844"/>
      <use xlink:href="#ArialMT-67" x="261.248047"/>
      <use xlink:href="#ArialMT-5d" x="316.863281"/>
     </g>
    </g>
   </g>
   <g id="matplotlib.axis_2">
    <g id="ytick_1">
     <g id="line2d_17">
      <defs>
       <path id="me2e3c8e504" d="M 0 0 
L 5 0 
" style="stroke: #000000; stroke-width: 0.5"/>
      </defs>
      <g>
       <use xlink:href="#me2e3c8e504" x="30.91" y="114.692283" style="fill-opacity: 0; stroke: #000000; stroke-width: 0.5"/>
      </g>
     </g>
     <g id="text_6">
      <!-- 0.0 -->
      <g transform="translate(17.79 117.555408)scale(0.08 -0.08)">
       <defs>
        <path id="ArialMT-2e" d="M 581 0 
L 581 641 
L 1222 641 
L 1222 0 
L 581 0 
z
" transform="scale(0.015625)"/>
       </defs>
       <use xlink:href="#ArialMT-30"/>
       <use xlink:href="#ArialMT-2e" x="55.615234"/>
       <use xlink:href="#ArialMT-30" x="83.398438"/>
      </g>
     </g>
    </g>
    <g id="ytick_2">
     <g id="line2d_18">
      <g>
       <use xlink:href="#me2e3c8e504" x="30.91" y="94.057827" style="fill-opacity: 0; stroke: #000000; stroke-width: 0.5"/>
      </g>
     </g>
     <g id="text_7">
      <!-- 0.2 -->
      <g transform="translate(17.79 96.920952)scale(0.08 -0.08)">
       <use xlink:href="#ArialMT-30"/>
       <use xlink:href="#ArialMT-2e" x="55.615234"/>
       <use xlink:href="#ArialMT-32" x="83.398438"/>
      </g>
     </g>
    </g>
    <g id="ytick_3">
     <g id="line2d_19">
      <g>
       <use xlink:href="#me2e3c8e504" x="30.91" y="73.42337" style="fill-opacity: 0; stroke: #000000; stroke-width: 0.5"/>
      </g>
     </g>
     <g id="text_8">
      <!-- 0.4 -->
      <g transform="translate(17.79 76.286495)scale(0.08 -0.08)">
       <defs>
        <path id="ArialMT-34" d="M 2069 0 
L 2069 1097 
L 81 1097 
L 81 1613 
L 2172 4581 
L 2631 4581 
L 2631 1613 
L 3250 1613 
L 3250 1097 
L 2631 1097 
L 2631 0 
L 2069 0 
z
M 2069 1613 
L 2069 3678 
L 634 1613 
L 2069 1613 
z
" transform="scale(0.015625)"/>
       </defs>
       <use xlink:href="#ArialMT-30"/>
       <use xlink:href="#ArialMT-2e" x="55.615234"/>
       <use xlink:href="#ArialMT-34" x="83.398438"/>
      </g>
     </g>
    </g>
    <g id="ytick_4">
     <g id="line2d_20">
      <g>
       <use xlink:href="#me2e3c8e504" x="30.91" y="52.788913" style="fill-opacity: 0; stroke: #000000; stroke-width: 0.5"/>
      </g>
     </g>
     <g id="text_9">
      <!-- 0.6 -->
      <g transform="translate(17.79 55.652038)scale(0.08 -0.08)">
       <defs>
        <path id="ArialMT-36" d="M 3184 3459 
L 2625 3416 
Q 2550 3747 2413 3897 
Q 2184 4138 1850 4138 
Q 1581 4138 1378 3988 
Q 1113 3794 959 3422 
Q 806 3050 800 2363 
Q 1003 2672 1297 2822 
Q 1591 2972 1913 2972 
Q 2475 2972 2870 2558 
Q 3266 2144 3266 1488 
Q 3266 1056 3080 686 
Q 2894 316 2569 119 
Q 2244 -78 1831 -78 
Q 1128 -78 684 439 
Q 241 956 241 2144 
Q 241 3472 731 4075 
Q 1159 4600 1884 4600 
Q 2425 4600 2770 4297 
Q 3116 3994 3184 3459 
z
M 888 1484 
Q 888 1194 1011 928 
Q 1134 663 1356 523 
Q 1578 384 1822 384 
Q 2178 384 2434 671 
Q 2691 959 2691 1453 
Q 2691 1928 2437 2201 
Q 2184 2475 1800 2475 
Q 1419 2475 1153 2201 
Q 888 1928 888 1484 
z
" transform="scale(0.015625)"/>
       </defs>
       <use xlink:href="#ArialMT-30"/>
       <use xlink:href="#ArialMT-2e" x="55.615234"/>
       <use xlink:href="#ArialMT-36" x="83.398438"/>
      </g>
     </g>
    </g>
    <g id="ytick_5">
     <g id="line2d_21">
      <g>
       <use xlink:href="#me2e3c8e504" x="30.91" y="32.154457" style="fill-opacity: 0; stroke: #000000; stroke-width: 0.5"/>
      </g>
     </g>
     <g id="text_10">
      <!-- 0.8 -->
      <g transform="translate(17.79 35.017582)scale(0.08 -0.08)">
       <defs>
        <path id="ArialMT-38" d="M 1131 2484 
Q 781 2613 612 2850 
Q 444 3088 444 3419 
Q 444 3919 803 4259 
Q 1163 4600 1759 4600 
Q 2359 4600 2725 4251 
Q 3091 3903 3091 3403 
Q 3091 3084 2923 2848 
Q 2756 2613 2416 2484 
Q 2838 2347 3058 2040 
Q 3278 1734 3278 1309 
Q 3278 722 2862 322 
Q 2447 -78 1769 -78 
Q 1091 -78 675 323 
Q 259 725 259 1325 
Q 259 1772 486 2073 
Q 713 2375 1131 2484 
z
M 1019 3438 
Q 1019 3113 1228 2906 
Q 1438 2700 1772 2700 
Q 2097 2700 2305 2904 
Q 2513 3109 2513 3406 
Q 2513 3716 2298 3927 
Q 2084 4138 1766 4138 
Q 1444 4138 1231 3931 
Q 1019 3725 1019 3438 
z
M 838 1322 
Q 838 1081 952 856 
Q 1066 631 1291 507 
Q 1516 384 1775 384 
Q 2178 384 2440 643 
Q 2703 903 2703 1303 
Q 2703 1709 2433 1975 
Q 2163 2241 1756 2241 
Q 1359 2241 1098 1978 
Q 838 1716 838 1322 
z
" transform="scale(0.015625)"/>
       </defs>
       <use xlink:href="#ArialMT-30"/>
       <use xlink:href="#ArialMT-2e" x="55.615234"/>
       <use xlink:href="#ArialMT-38" x="83.398438"/>
      </g>
     </g>
    </g>
    <g id="ytick_6">
     <g id="line2d_22">
      <g>
       <use xlink:href="#me2e3c8e504" x="30.91" y="11.52" style="fill-opacity: 0; stroke: #000000; stroke-width: 0.5"/>
      </g>
     </g>
     <g id="text_11">
      <!-- 1.0 -->
      <g transform="translate(17.79 14.383125)scale(0.08 -0.08)">
       <use xlink:href="#ArialMT-31"/>
       <use xlink:href="#ArialMT-2e" x="55.615234"/>
       <use xlink:href="#ArialMT-30" x="83.398438"/>
      </g>
     </g>
    </g>
    <g id="ytick_7">
     <g id="line2d_23">
      <defs>
       <path id="m53974e540c" d="M 0 0 
L 3 0 
" style="stroke: #000000; stroke-width: 0.5"/>
      </defs>
      <g>
       <use xlink:href="#m53974e540c" x="30.91" y="109.533669" style="fill-opacity: 0; stroke: #000000; stroke-width: 0.5"/>
      </g>
     </g>
    </g>
    <g id="ytick_8">
     <g id="line2d_24">
      <g>
       <use xlink:href="#m53974e540c" x="30.91" y="104.375055" style="fill-opacity: 0; stroke: #000000; stroke-width: 0.5"/>
      </g>
     </g>
    </g>
    <g id="ytick_9">
     <g id="line2d_25">
      <g>
       <use xlink:href="#m53974e540c" x="30.91" y="99.216441" style="fill-opacity: 0; stroke: #000000; stroke-width: 0.5"/>
      </g>
     </g>
    </g>
    <g id="ytick_10">
     <g id="line2d_26">
      <g>
       <use xlink:href="#m53974e540c" x="30.91" y="88.899213" style="fill-opacity: 0; stroke: #000000; stroke-width: 0.5"/>
      </g>
     </g>
    </g>
    <g id="ytick_11">
     <g id="line2d_27">
      <g>
       <use xlink:href="#m53974e540c" x="30.91" y="83.740598" style="fill-opacity: 0; stroke: #000000; stroke-width: 0.5"/>
      </g>
     </g>
    </g>
    <g id="ytick_12">
     <g id="line2d_28">
      <g>
       <use xlink:href="#m53974e540c" x="30.91" y="78.581984" style="fill-opacity: 0; stroke: #000000; stroke-width: 0.5"/>
      </g>
     </g>
    </g>
    <g id="ytick_13">
     <g id="line2d_29">
      <g>
       <use xlink:href="#m53974e540c" x="30.91" y="68.264756" style="fill-opacity: 0; stroke: #000000; stroke-width: 0.5"/>
      </g>
     </g>
    </g>
    <g id="ytick_14">
     <g id="line2d_30">
      <g>
       <use xlink:href="#m53974e540c" x="30.91" y="63.106142" style="fill-opacity: 0; stroke: #000000; stroke-width: 0.5"/>
      </g>
     </g>
    </g>
    <g id="ytick_15">
     <g id="line2d_31">
      <g>
       <use xlink:href="#m53974e540c" x="30.91" y="57.947528" style="fill-opacity: 0; stroke: #000000; stroke-width: 0.5"/>
      </g>
     </g>
    </g>
    <g id="ytick_16">
     <g id="line2d_32">
      <g>
       <use xlink:href="#m53974e540c" x="30.91" y="47.630299" style="fill-opacity: 0; stroke: #000000; stroke-width: 0.5"/>
      </g>
     </g>
    </g>
    <g id="ytick_17">
     <g id="line2d_33">
      <g>
       <use xlink:href="#m53974e540c" x="30.91" y="42.471685" style="fill-opacity: 0; stroke: #000000; stroke-width: 0.5"/>
      </g>
     </g>
    </g>
    <g id="ytick_18">
     <g id="line2d_34">
      <g>
       <use xlink:href="#m53974e540c" x="30.91" y="37.313071" style="fill-opacity: 0; stroke: #000000; stroke-width: 0.5"/>
      </g>
     </g>
    </g>
    <g id="ytick_19">
     <g id="line2d_35">
      <g>
       <use xlink:href="#m53974e540c" x="30.91" y="26.995843" style="fill-opacity: 0; stroke: #000000; stroke-width: 0.5"/>
      </g>
     </g>
    </g>
    <g id="ytick_20">
     <g id="line2d_36">
      <g>
       <use xlink:href="#m53974e540c" x="30.91" y="21.837228" style="fill-opacity: 0; stroke: #000000; stroke-width: 0.5"/>
      </g>
     </g>
    </g>
    <g id="ytick_21">
     <g id="line2d_37">
      <g>
       <use xlink:href="#m53974e540c" x="30.91" y="16.678614" style="fill-opacity: 0; stroke: #000000; stroke-width: 0.5"/>
      </g>
     </g>
    </g>
    <g id="text_12">
     <!-- P(D&gt;C|IM) -->
     <g transform="translate(14.10625 82.034267)rotate(-90)scale(0.08 -0.08)">
      <defs>
       <path id="ArialMT-28" d="M 1497 -1347 
Q 1031 -759 709 28 
Q 388 816 388 1659 
Q 388 2403 628 3084 
Q 909 3875 1497 4659 
L 1900 4659 
Q 1522 4009 1400 3731 
Q 1209 3300 1100 2831 
Q 966 2247 966 1656 
Q 966 153 1900 -1347 
L 1497 -1347 
z
" transform="scale(0.015625)"/>
       <path id="ArialMT-44" d="M 494 0 
L 494 4581 
L 2072 4581 
Q 2606 4581 2888 4516 
Q 3281 4425 3559 4188 
Q 3922 3881 4101 3404 
Q 4281 2928 4281 2316 
Q 4281 1794 4159 1391 
Q 4038 988 3847 723 
Q 3656 459 3429 307 
Q 3203 156 2883 78 
Q 2563 0 2147 0 
L 494 0 
z
M 1100 541 
L 2078 541 
Q 2531 541 2789 625 
Q 3047 709 3200 863 
Q 3416 1078 3536 1442 
Q 3656 1806 3656 2325 
Q 3656 3044 3420 3430 
Q 3184 3816 2847 3947 
Q 2603 4041 2063 4041 
L 1100 4041 
L 1100 541 
z
" transform="scale(0.015625)"/>
       <path id="ArialMT-3e" d="M 3384 2003 
L 350 706 
L 350 1266 
L 2753 2263 
L 350 3250 
L 350 3809 
L 3384 2528 
L 3384 2003 
z
" transform="scale(0.015625)"/>
       <path id="ArialMT-43" d="M 3763 1606 
L 4369 1453 
Q 4178 706 3683 314 
Q 3188 -78 2472 -78 
Q 1731 -78 1267 223 
Q 803 525 561 1097 
Q 319 1669 319 2325 
Q 319 3041 592 3573 
Q 866 4106 1370 4382 
Q 1875 4659 2481 4659 
Q 3169 4659 3637 4309 
Q 4106 3959 4291 3325 
L 3694 3184 
Q 3534 3684 3231 3912 
Q 2928 4141 2469 4141 
Q 1941 4141 1586 3887 
Q 1231 3634 1087 3207 
Q 944 2781 944 2328 
Q 944 1744 1114 1308 
Q 1284 872 1643 656 
Q 2003 441 2422 441 
Q 2931 441 3284 734 
Q 3638 1028 3763 1606 
z
" transform="scale(0.015625)"/>
       <path id="ArialMT-7c" d="M 588 -1347 
L 588 4659 
L 1078 4659 
L 1078 -1347 
L 588 -1347 
z
" transform="scale(0.015625)"/>
       <path id="ArialMT-49" d="M 597 0 
L 597 4581 
L 1203 4581 
L 1203 0 
L 597 0 
z
" transform="scale(0.015625)"/>
       <path id="ArialMT-4d" d="M 475 0 
L 475 4581 
L 1388 4581 
L 2472 1338 
Q 2622 884 2691 659 
Q 2769 909 2934 1394 
L 4031 4581 
L 4847 4581 
L 4847 0 
L 4263 0 
L 4263 3834 
L 2931 0 
L 2384 0 
L 1059 3900 
L 1059 0 
L 475 0 
z
" transform="scale(0.015625)"/>
       <path id="ArialMT-29" d="M 791 -1347 
L 388 -1347 
Q 1322 153 1322 1656 
Q 1322 2244 1188 2822 
Q 1081 3291 891 3722 
Q 769 4003 388 4659 
L 791 4659 
Q 1378 3875 1659 3084 
Q 1900 2403 1900 1659 
Q 1900 816 1576 28 
Q 1253 -759 791 -1347 
z
" transform="scale(0.015625)"/>
      </defs>
      <use xlink:href="#ArialMT-50"/>
      <use xlink:href="#ArialMT-28" x="66.699219"/>
      <use xlink:href="#ArialMT-44" x="100"/>
      <use xlink:href="#ArialMT-3e" x="172.216797"/>
      <use xlink:href="#ArialMT-43" x="230.615234"/>
      <use xlink:href="#ArialMT-7c" x="302.832031"/>
      <use xlink:href="#ArialMT-49" x="328.808594"/>
      <use xlink:href="#ArialMT-4d" x="356.591797"/>
      <use xlink:href="#ArialMT-29" x="439.892578"/>
     </g>
    </g>
   </g>
   <g id="line2d_38">
    <path d="M 31.337746 109.667648 
L 32.629625 75.404699 
L 33.921503 53.242549 
L 35.213382 40.18041 
L 36.505261 32.059189 
L 37.797139 26.740341 
L 39.089018 23.105198 
L 40.380897 20.533397 
L 41.672776 18.661489 
L 42.964654 17.266332 
L 44.256533 16.205417 
L 45.548412 15.38464 
L 46.840291 14.740067 
L 48.132169 14.227177 
L 49.424048 13.814291 
L 50.715927 13.478445 
L 52.007805 13.202704 
L 53.299684 12.974396 
L 54.591563 12.78391 
L 55.883442 12.623863 
L 57.17532 12.488527 
L 58.467199 12.373409 
L 59.759078 12.274952 
L 61.050957 12.190317 
L 62.342835 12.11722 
L 63.634714 12.053811 
L 64.926593 11.998578 
L 66.218472 11.950282 
L 67.51035 11.907899 
L 68.802229 11.870577 
L 70.094108 11.837606 
L 71.385986 11.80839 
L 72.677865 11.782427 
L 73.969744 11.759291 
L 75.261623 11.738621 
L 76.553501 11.720109 
L 77.84538 11.70349 
L 79.137259 11.688537 
L 80.429138 11.675055 
L 81.721016 11.662873 
L 83.012895 11.651845 
L 84.304774 11.641843 
L 85.596652 11.632754 
L 86.888531 11.624482 
L 88.18041 11.616939 
L 89.472289 11.610052 
L 90.764167 11.603753 
L 92.056046 11.597984 
L 93.347925 11.592692 
L 94.639804 11.587831 
L 95.931682 11.58336 
L 97.223561 11.579243 
L 98.51544 11.575447 
L 99.807319 11.571942 
L 101.099197 11.568703 
L 102.391076 11.565706 
L 103.682955 11.56293 
L 104.974833 11.560356 
L 106.266712 11.557966 
L 107.558591 11.555746 
L 108.85047 11.553681 
L 110.142348 11.551759 
L 111.434227 11.549968 
L 112.726106 11.548297 
L 114.017985 11.546738 
L 115.309863 11.545281 
L 116.601742 11.543919 
L 117.893621 11.542645 
L 119.1855 11.541452 
L 120.477378 11.540333 
L 121.769257 11.539285 
L 123.061136 11.5383 
L 124.353014 11.537376 
L 125.644893 11.536507 
L 126.936772 11.53569 
L 128.228651 11.534921 
L 129.520529 11.534197 
L 130.812408 11.533515 
L 132.104287 11.532872 
L 133.396166 11.532265 
L 134.688044 11.531692 
L 135.979923 11.531151 
L 137.271802 11.53064 
L 138.56368 11.530157 
L 139.855559 11.529699 
L 141.147438 11.529267 
L 142.439317 11.528857 
L 143.731195 11.528468 
L 145.023074 11.5281 
L 146.314953 11.527751 
L 147.606832 11.52742 
L 148.89871 11.527105 
L 150.190589 11.526807 
L 151.482468 11.526523 
L 152.774347 11.526253 
L 154.066225 11.525996 
L 155.358104 11.525752 
L 156.649983 11.52552 
L 157.941861 11.525299 
L 159.23374 11.525088 
" clip-path="url(#p105dc3b87b)" style="fill: none; stroke: #000000; stroke-linecap: square"/>
    <defs>
     <path id="m2cb072497d" d="M 0 1 
C 0.265203 1 0.51958 0.894634 0.707107 0.707107 
C 0.894634 0.51958 1 0.265203 1 0 
C 1 -0.265203 0.894634 -0.51958 0.707107 -0.707107 
C 0.51958 -0.894634 0.265203 -1 0 -1 
C -0.265203 -1 -0.51958 -0.894634 -0.707107 -0.707107 
C -0.894634 -0.51958 -1 -0.265203 -1 0 
C -1 0.265203 -0.894634 0.51958 -0.707107 0.707107 
C -0.51958 0.894634 -0.265203 1 0 1 
z
" style="stroke: #000000; stroke-width: 0.8"/>
    </defs>
    <g clip-path="url(#p105dc3b87b)">
     <use xlink:href="#m2cb072497d" x="31.337746" y="109.667648" style="fill-opacity: 0; stroke: #000000; stroke-width: 0.8"/>
     <use xlink:href="#m2cb072497d" x="44.256533" y="16.205417" style="fill-opacity: 0; stroke: #000000; stroke-width: 0.8"/>
     <use xlink:href="#m2cb072497d" x="57.17532" y="12.488527" style="fill-opacity: 0; stroke: #000000; stroke-width: 0.8"/>
     <use xlink:href="#m2cb072497d" x="70.094108" y="11.837606" style="fill-opacity: 0; stroke: #000000; stroke-width: 0.8"/>
     <use xlink:href="#m2cb072497d" x="83.012895" y="11.651845" style="fill-opacity: 0; stroke: #000000; stroke-width: 0.8"/>
     <use xlink:href="#m2cb072497d" x="95.931682" y="11.58336" style="fill-opacity: 0; stroke: #000000; stroke-width: 0.8"/>
     <use xlink:href="#m2cb072497d" x="108.85047" y="11.553681" style="fill-opacity: 0; stroke: #000000; stroke-width: 0.8"/>
     <use xlink:href="#m2cb072497d" x="121.769257" y="11.539285" style="fill-opacity: 0; stroke: #000000; stroke-width: 0.8"/>
     <use xlink:href="#m2cb072497d" x="134.688044" y="11.531692" style="fill-opacity: 0; stroke: #000000; stroke-width: 0.8"/>
     <use xlink:href="#m2cb072497d" x="147.606832" y="11.52742" style="fill-opacity: 0; stroke: #000000; stroke-width: 0.8"/>
    </g>
   </g>
   <g id="line2d_39">
    <path d="M 31.337746 112.343253 
L 32.629625 83.074613 
L 33.921503 59.175023 
L 35.213382 44.123264 
L 36.505261 34.56953 
L 37.797139 28.297537 
L 39.089018 24.038581 
L 40.380897 21.058978 
L 41.672776 18.920095 
L 42.964654 17.350306 
L 44.256533 16.175851 
L 45.548412 15.282305 
L 46.840291 14.592367 
L 48.132169 14.052618 
L 49.424048 13.625395 
L 50.715927 13.283663 
L 52.007805 13.007701 
L 53.299684 12.782918 
L 54.591563 12.598369 
L 55.883442 12.445752 
L 57.17532 12.318698 
L 58.467199 12.21227 
L 59.759078 12.122609 
L 61.050957 12.04667 
L 62.342835 11.982034 
L 63.634714 11.926762 
L 64.926593 11.879292 
L 66.218472 11.838355 
L 67.51035 11.802917 
L 68.802229 11.772126 
L 70.094108 11.745282 
L 71.385986 11.721802 
L 72.677865 11.701202 
L 73.969744 11.683075 
L 75.261623 11.667079 
L 76.553501 11.652928 
L 77.84538 11.640375 
L 79.137259 11.629215 
L 80.429138 11.619269 
L 81.721016 11.610385 
L 83.012895 11.602434 
L 84.304774 11.595303 
L 85.596652 11.588894 
L 86.888531 11.583125 
L 88.18041 11.577921 
L 89.472289 11.573219 
L 90.764167 11.568964 
L 92.056046 11.565107 
L 93.347925 11.561605 
L 94.639804 11.558421 
L 95.931682 11.555522 
L 97.223561 11.552878 
L 98.51544 11.550465 
L 99.807319 11.548258 
L 101.099197 11.546237 
L 102.391076 11.544385 
L 103.682955 11.542686 
L 104.974833 11.541125 
L 106.266712 11.539689 
L 107.558591 11.538366 
L 108.85047 11.537147 
L 110.142348 11.536023 
L 111.434227 11.534984 
L 112.726106 11.534024 
L 114.017985 11.533135 
L 115.309863 11.532312 
L 116.601742 11.531549 
L 117.893621 11.530841 
L 119.1855 11.530183 
L 120.477378 11.529572 
L 121.769257 11.529003 
L 123.061136 11.528474 
L 124.353014 11.52798 
L 125.644893 11.52752 
L 126.936772 11.527091 
L 128.228651 11.526691 
L 129.520529 11.526316 
L 130.812408 11.525966 
L 132.104287 11.525638 
L 133.396166 11.525332 
L 134.688044 11.525044 
L 135.979923 11.524775 
L 137.271802 11.524522 
L 138.56368 11.524285 
L 139.855559 11.524062 
L 141.147438 11.523853 
L 142.439317 11.523656 
L 143.731195 11.52347 
L 145.023074 11.523296 
L 146.314953 11.523132 
L 147.606832 11.522977 
L 148.89871 11.522831 
L 150.190589 11.522693 
L 151.482468 11.522563 
L 152.774347 11.522441 
L 154.066225 11.522325 
L 155.358104 11.522215 
L 156.649983 11.522112 
L 157.941861 11.522014 
L 159.23374 11.521921 
" clip-path="url(#p105dc3b87b)" style="fill: none; stroke-dasharray: 2.96,1.28; stroke-dashoffset: 0; stroke: #dc0000; stroke-width: 0.8"/>
    <defs>
     <path id="m4eb7083e48" d="M 0 1 
C 0.265203 1 0.51958 0.894634 0.707107 0.707107 
C 0.894634 0.51958 1 0.265203 1 0 
C 1 -0.265203 0.894634 -0.51958 0.707107 -0.707107 
C 0.51958 -0.894634 0.265203 -1 0 -1 
C -0.265203 -1 -0.51958 -0.894634 -0.707107 -0.707107 
C -0.894634 -0.51958 -1 -0.265203 -1 0 
C -1 0.265203 -0.894634 0.51958 -0.707107 0.707107 
C -0.51958 0.894634 -0.265203 1 0 1 
z
" style="stroke: #dc0000; stroke-width: 0.8"/>
    </defs>
    <g clip-path="url(#p105dc3b87b)">
     <use xlink:href="#m4eb7083e48" x="31.337746" y="112.343253" style="fill-opacity: 0; stroke: #dc0000; stroke-width: 0.8"/>
     <use xlink:href="#m4eb7083e48" x="44.256533" y="16.175851" style="fill-opacity: 0; stroke: #dc0000; stroke-width: 0.8"/>
     <use xlink:href="#m4eb7083e48" x="57.17532" y="12.318698" style="fill-opacity: 0; stroke: #dc0000; stroke-width: 0.8"/>
     <use xlink:href="#m4eb7083e48" x="70.094108" y="11.745282" style="fill-opacity: 0; stroke: #dc0000; stroke-width: 0.8"/>
     <use xlink:href="#m4eb7083e48" x="83.012895" y="11.602434" style="fill-opacity: 0; stroke: #dc0000; stroke-width: 0.8"/>
     <use xlink:href="#m4eb7083e48" x="95.931682" y="11.555522" style="fill-opacity: 0; stroke: #dc0000; stroke-width: 0.8"/>
     <use xlink:href="#m4eb7083e48" x="108.85047" y="11.537147" style="fill-opacity: 0; stroke: #dc0000; stroke-width: 0.8"/>
     <use xlink:href="#m4eb7083e48" x="121.769257" y="11.529003" style="fill-opacity: 0; stroke: #dc0000; stroke-width: 0.8"/>
     <use xlink:href="#m4eb7083e48" x="134.688044" y="11.525044" style="fill-opacity: 0; stroke: #dc0000; stroke-width: 0.8"/>
     <use xlink:href="#m4eb7083e48" x="147.606832" y="11.522977" style="fill-opacity: 0; stroke: #dc0000; stroke-width: 0.8"/>
    </g>
   </g>
   <g id="line2d_40">
    <path d="M 31.337746 114.624035 
L 32.629625 106.888183 
L 33.921503 90.36153 
L 35.213382 73.853689 
L 36.505261 60.189245 
L 37.797139 49.528981 
L 39.089018 41.36446 
L 40.380897 35.128672 
L 41.672776 30.347563 
L 42.964654 26.657054 
L 44.256533 23.785851 
L 45.548412 21.533668 
L 46.840291 19.752635 
L 48.132169 18.333089 
L 49.424048 17.193162 
L 50.715927 16.271269 
L 52.007805 15.520708 
L 53.299684 14.905783 
L 54.591563 14.398993 
L 55.883442 13.97899 
L 57.17532 13.629082 
L 58.467199 13.336126 
L 59.759078 13.089707 
L 61.050957 12.881516 
L 62.342835 12.704888 
L 63.634714 12.554445 
L 64.926593 12.425823 
L 66.218472 12.315467 
L 67.51035 12.220461 
L 68.802229 12.138406 
L 70.094108 12.067318 
L 71.385986 12.005551 
L 72.677865 11.951733 
L 73.969744 11.904714 
L 75.261623 11.86353 
L 76.553501 11.827369 
L 77.84538 11.795542 
L 79.137259 11.767467 
L 80.429138 11.742647 
L 81.721016 11.72066 
L 83.012895 11.701142 
L 84.304774 11.683782 
L 85.596652 11.668314 
L 86.888531 11.654506 
L 88.18041 11.642158 
L 89.472289 11.631097 
L 90.764167 11.621173 
L 92.056046 11.612256 
L 93.347925 11.60423 
L 94.639804 11.596996 
L 95.931682 11.590467 
L 97.223561 11.584566 
L 98.51544 11.579224 
L 99.807319 11.574384 
L 101.099197 11.569991 
L 102.391076 11.566001 
L 103.682955 11.562371 
L 104.974833 11.559065 
L 106.266712 11.556051 
L 107.558591 11.553301 
L 108.85047 11.550787 
L 110.142348 11.548489 
L 111.434227 11.546384 
L 112.726106 11.544455 
L 114.017985 11.542685 
L 115.309863 11.54106 
L 116.601742 11.539567 
L 117.893621 11.538193 
L 119.1855 11.536928 
L 120.477378 11.535763 
L 121.769257 11.534688 
L 123.061136 11.533695 
L 124.353014 11.532779 
L 125.644893 11.531931 
L 126.936772 11.531147 
L 128.228651 11.530421 
L 129.520529 11.529749 
L 130.812408 11.529125 
L 132.104287 11.528546 
L 133.396166 11.528009 
L 134.688044 11.527509 
L 135.979923 11.527045 
L 137.271802 11.526613 
L 138.56368 11.526211 
L 139.855559 11.525836 
L 141.147438 11.525487 
L 142.439317 11.525162 
L 143.731195 11.524858 
L 145.023074 11.524574 
L 146.314953 11.524309 
L 147.606832 11.524061 
L 148.89871 11.523829 
L 150.190589 11.523612 
L 151.482468 11.523409 
L 152.774347 11.523219 
L 154.066225 11.52304 
L 155.358104 11.522873 
L 156.649983 11.522716 
L 157.941861 11.522569 
L 159.23374 11.52243 
" clip-path="url(#p105dc3b87b)" style="fill: none; stroke-dasharray: 5.12,1.28,0.8,1.28; stroke-dashoffset: 0; stroke: #3c5488; stroke-width: 0.8"/>
    <defs>
     <path id="m303c54cb42" d="M 0 1 
C 0.265203 1 0.51958 0.894634 0.707107 0.707107 
C 0.894634 0.51958 1 0.265203 1 0 
C 1 -0.265203 0.894634 -0.51958 0.707107 -0.707107 
C 0.51958 -0.894634 0.265203 -1 0 -1 
C -0.265203 -1 -0.51958 -0.894634 -0.707107 -0.707107 
C -0.894634 -0.51958 -1 -0.265203 -1 0 
C -1 0.265203 -0.894634 0.51958 -0.707107 0.707107 
C -0.51958 0.894634 -0.265203 1 0 1 
z
" style="stroke: #3c5488; stroke-width: 0.8"/>
    </defs>
    <g clip-path="url(#p105dc3b87b)">
     <use xlink:href="#m303c54cb42" x="31.337746" y="114.624035" style="fill-opacity: 0; stroke: #3c5488; stroke-width: 0.8"/>
     <use xlink:href="#m303c54cb42" x="44.256533" y="23.785851" style="fill-opacity: 0; stroke: #3c5488; stroke-width: 0.8"/>
     <use xlink:href="#m303c54cb42" x="57.17532" y="13.629082" style="fill-opacity: 0; stroke: #3c5488; stroke-width: 0.8"/>
     <use xlink:href="#m303c54cb42" x="70.094108" y="12.067318" style="fill-opacity: 0; stroke: #3c5488; stroke-width: 0.8"/>
     <use xlink:href="#m303c54cb42" x="83.012895" y="11.701142" style="fill-opacity: 0; stroke: #3c5488; stroke-width: 0.8"/>
     <use xlink:href="#m303c54cb42" x="95.931682" y="11.590467" style="fill-opacity: 0; stroke: #3c5488; stroke-width: 0.8"/>
     <use xlink:href="#m303c54cb42" x="108.85047" y="11.550787" style="fill-opacity: 0; stroke: #3c5488; stroke-width: 0.8"/>
     <use xlink:href="#m303c54cb42" x="121.769257" y="11.534688" style="fill-opacity: 0; stroke: #3c5488; stroke-width: 0.8"/>
     <use xlink:href="#m303c54cb42" x="134.688044" y="11.527509" style="fill-opacity: 0; stroke: #3c5488; stroke-width: 0.8"/>
     <use xlink:href="#m303c54cb42" x="147.606832" y="11.524061" style="fill-opacity: 0; stroke: #3c5488; stroke-width: 0.8"/>
    </g>
   </g>
   <g id="line2d_41">
    <path d="M 31.337746 114.689269 
L 32.629625 114.294962 
L 33.921503 112.935796 
L 35.213382 110.75183 
L 36.505261 108.017949 
L 37.797139 104.956554 
L 39.089018 101.72503 
L 40.380897 98.430324 
L 41.672776 95.14375 
L 42.964654 91.912111 
L 44.256533 88.76544 
L 45.548412 85.722302 
L 46.840291 82.793408 
L 48.132169 79.984091 
L 49.424048 77.296015 
L 50.715927 74.728358 
L 52.007805 72.278635 
L 53.299684 69.943284 
L 54.591563 67.718066 
L 55.883442 65.598355 
L 57.17532 63.579337 
L 58.467199 61.656149 
L 59.759078 59.823976 
L 61.050957 58.078117 
L 62.342835 56.414026 
L 63.634714 54.827339 
L 64.926593 53.31389 
L 66.218472 51.869721 
L 67.51035 50.491078 
L 68.802229 49.174412 
L 70.094108 47.916376 
L 71.385986 46.713811 
L 72.677865 45.563745 
L 73.969744 44.46338 
L 75.261623 43.410085 
L 76.553501 42.401383 
L 77.84538 41.434949 
L 79.137259 40.508594 
L 80.429138 39.620261 
L 81.721016 38.768012 
L 83.012895 37.950029 
L 84.304774 37.164598 
L 85.596652 36.410104 
L 86.888531 35.685031 
L 88.18041 34.987945 
L 89.472289 34.317499 
L 90.764167 33.672421 
L 92.056046 33.05151 
L 93.347925 32.453636 
L 94.639804 31.877728 
L 95.931682 31.322778 
L 97.223561 30.787829 
L 98.51544 30.271981 
L 99.807319 29.774378 
L 101.099197 29.294213 
L 102.391076 28.830721 
L 103.682955 28.383176 
L 104.974833 27.950892 
L 106.266712 27.533217 
L 107.558591 27.129532 
L 108.85047 26.739251 
L 110.142348 26.361816 
L 111.434227 25.996699 
L 112.726106 25.643395 
L 114.017985 25.301427 
L 115.309863 24.970339 
L 116.601742 24.649699 
L 117.893621 24.339094 
L 119.1855 24.03813 
L 120.477378 23.746434 
L 121.769257 23.463649 
L 123.061136 23.189435 
L 124.353014 22.923467 
L 125.644893 22.665434 
L 126.936772 22.415043 
L 128.228651 22.172008 
L 129.520529 21.936062 
L 130.812408 21.706946 
L 132.104287 21.484412 
L 133.396166 21.268226 
L 134.688044 21.05816 
L 135.979923 20.854 
L 137.271802 20.655538 
L 138.56368 20.462575 
L 139.855559 20.274923 
L 141.147438 20.092398 
L 142.439317 19.914827 
L 143.731195 19.742041 
L 145.023074 19.573881 
L 146.314953 19.410192 
L 147.606832 19.250826 
L 148.89871 19.095642 
L 150.190589 18.944502 
L 151.482468 18.797276 
L 152.774347 18.653838 
L 154.066225 18.514066 
L 155.358104 18.377845 
L 156.649983 18.245061 
L 157.941861 18.115608 
L 159.23374 17.989382 
" clip-path="url(#p105dc3b87b)" style="fill: none; stroke: #000000; stroke-linecap: square"/>
    <defs>
     <path id="mf0ab68eab9" d="M -1 1 
L 1 -1 
M -1 -1 
L 1 1 
" style="stroke: #000000; stroke-width: 0.8"/>
    </defs>
    <g clip-path="url(#p105dc3b87b)">
     <use xlink:href="#mf0ab68eab9" x="31.337746" y="114.689269" style="fill-opacity: 0; stroke: #000000; stroke-width: 0.8"/>
     <use xlink:href="#mf0ab68eab9" x="44.256533" y="88.76544" style="fill-opacity: 0; stroke: #000000; stroke-width: 0.8"/>
     <use xlink:href="#mf0ab68eab9" x="57.17532" y="63.579337" style="fill-opacity: 0; stroke: #000000; stroke-width: 0.8"/>
     <use xlink:href="#mf0ab68eab9" x="70.094108" y="47.916376" style="fill-opacity: 0; stroke: #000000; stroke-width: 0.8"/>
     <use xlink:href="#mf0ab68eab9" x="83.012895" y="37.950029" style="fill-opacity: 0; stroke: #000000; stroke-width: 0.8"/>
     <use xlink:href="#mf0ab68eab9" x="95.931682" y="31.322778" style="fill-opacity: 0; stroke: #000000; stroke-width: 0.8"/>
     <use xlink:href="#mf0ab68eab9" x="108.85047" y="26.739251" style="fill-opacity: 0; stroke: #000000; stroke-width: 0.8"/>
     <use xlink:href="#mf0ab68eab9" x="121.769257" y="23.463649" style="fill-opacity: 0; stroke: #000000; stroke-width: 0.8"/>
     <use xlink:href="#mf0ab68eab9" x="134.688044" y="21.05816" style="fill-opacity: 0; stroke: #000000; stroke-width: 0.8"/>
     <use xlink:href="#mf0ab68eab9" x="147.606832" y="19.250826" style="fill-opacity: 0; stroke: #000000; stroke-width: 0.8"/>
    </g>
   </g>
   <g id="line2d_42">
    <path d="M 31.337746 114.6919 
L 32.629625 114.547011 
L 33.921503 113.812554 
L 35.213382 112.357955 
L 36.505261 110.289568 
L 37.797139 107.765414 
L 39.089018 104.930866 
L 40.380897 101.903281 
L 41.672776 98.772341 
L 42.964654 95.604602 
L 44.256533 92.448479 
L 45.548412 89.338551 
L 46.840291 86.298994 
L 48.132169 83.346228 
L 49.424048 80.490919 
L 50.715927 77.739476 
L 52.007805 75.095182 
L 53.299684 72.559036 
L 54.591563 70.130384 
L 55.883442 67.807391 
L 57.17532 65.587392 
L 58.467199 63.467164 
L 59.759078 61.443116 
L 61.050957 59.511442 
L 62.342835 57.668228 
L 63.634714 55.909535 
L 64.926593 54.231455 
L 66.218472 52.630154 
L 67.51035 51.101905 
L 68.802229 49.643105 
L 70.094108 48.250289 
L 71.385986 46.920137 
L 72.677865 45.649481 
L 73.969744 44.435301 
L 75.261623 43.274727 
L 76.553501 42.165034 
L 77.84538 41.103639 
L 79.137259 40.088097 
L 80.429138 39.11609 
L 81.721016 38.18543 
L 83.012895 37.294045 
L 84.304774 36.439977 
L 85.596652 35.621377 
L 86.888531 34.836496 
L 88.18041 34.083682 
L 89.472289 33.361375 
L 90.764167 32.668097 
L 92.056046 32.002455 
L 93.347925 31.363131 
L 94.639804 30.748876 
L 95.931682 30.158513 
L 97.223561 29.590925 
L 98.51544 29.045056 
L 99.807319 28.519907 
L 101.099197 28.014532 
L 102.391076 27.528034 
L 103.682955 27.059564 
L 104.974833 26.608316 
L 106.266712 26.173528 
L 107.558591 25.754474 
L 108.85047 25.350469 
L 110.142348 24.96086 
L 111.434227 24.585028 
L 112.726106 24.222384 
L 114.017985 23.87237 
L 115.309863 23.534455 
L 116.601742 23.208133 
L 117.893621 22.892925 
L 119.1855 22.588372 
L 120.477378 22.29404 
L 121.769257 22.009514 
L 123.061136 21.734401 
L 124.353014 21.468322 
L 125.644893 21.210921 
L 126.936772 20.961855 
L 128.228651 20.720799 
L 129.520529 20.48744 
L 130.812408 20.261483 
L 132.104287 20.042644 
L 133.396166 19.830651 
L 134.688044 19.625247 
L 135.979923 19.426184 
L 137.271802 19.233226 
L 138.56368 19.046147 
L 139.855559 18.86473 
L 141.147438 18.68877 
L 142.439317 18.518067 
L 143.731195 18.352432 
L 145.023074 18.191684 
L 146.314953 18.035649 
L 147.606832 17.88416 
L 148.89871 17.737058 
L 150.190589 17.594189 
L 151.482468 17.455407 
L 152.774347 17.32057 
L 154.066225 17.189544 
L 155.358104 17.062198 
L 156.649983 16.938409 
L 157.941861 16.818057 
L 159.23374 16.701026 
" clip-path="url(#p105dc3b87b)" style="fill: none; stroke-dasharray: 2.96,1.28; stroke-dashoffset: 0; stroke: #dc0000; stroke-width: 0.8"/>
    <defs>
     <path id="mfad66fb6c6" d="M -1 1 
L 1 -1 
M -1 -1 
L 1 1 
" style="stroke: #dc0000; stroke-width: 0.8"/>
    </defs>
    <g clip-path="url(#p105dc3b87b)">
     <use xlink:href="#mfad66fb6c6" x="31.337746" y="114.6919" style="fill-opacity: 0; stroke: #dc0000; stroke-width: 0.8"/>
     <use xlink:href="#mfad66fb6c6" x="44.256533" y="92.448479" style="fill-opacity: 0; stroke: #dc0000; stroke-width: 0.8"/>
     <use xlink:href="#mfad66fb6c6" x="57.17532" y="65.587392" style="fill-opacity: 0; stroke: #dc0000; stroke-width: 0.8"/>
     <use xlink:href="#mfad66fb6c6" x="70.094108" y="48.250289" style="fill-opacity: 0; stroke: #dc0000; stroke-width: 0.8"/>
     <use xlink:href="#mfad66fb6c6" x="83.012895" y="37.294045" style="fill-opacity: 0; stroke: #dc0000; stroke-width: 0.8"/>
     <use xlink:href="#mfad66fb6c6" x="95.931682" y="30.158513" style="fill-opacity: 0; stroke: #dc0000; stroke-width: 0.8"/>
     <use xlink:href="#mfad66fb6c6" x="108.85047" y="25.350469" style="fill-opacity: 0; stroke: #dc0000; stroke-width: 0.8"/>
     <use xlink:href="#mfad66fb6c6" x="121.769257" y="22.009514" style="fill-opacity: 0; stroke: #dc0000; stroke-width: 0.8"/>
     <use xlink:href="#mfad66fb6c6" x="134.688044" y="19.625247" style="fill-opacity: 0; stroke: #dc0000; stroke-width: 0.8"/>
     <use xlink:href="#mfad66fb6c6" x="147.606832" y="17.88416" style="fill-opacity: 0; stroke: #dc0000; stroke-width: 0.8"/>
    </g>
   </g>
   <g id="line2d_43">
    <path d="M 31.337746 114.692283 
L 32.629625 114.691849 
L 33.921503 114.682751 
L 35.213382 114.639362 
L 36.505261 114.527422 
L 37.797139 114.315981 
L 39.089018 113.982812 
L 40.380897 113.51516 
L 41.672776 112.908432 
L 42.964654 112.164316 
L 44.256533 111.288958 
L 45.548412 110.291442 
L 46.840291 109.182603 
L 48.132169 107.974153 
L 49.424048 106.678047 
L 50.715927 105.306053 
L 52.007805 103.869459 
L 53.299684 102.378897 
L 54.591563 100.844238 
L 55.883442 99.274545 
L 57.17532 97.678065 
L 58.467199 96.062243 
L 59.759078 94.433759 
L 61.050957 92.798567 
L 62.342835 91.161948 
L 63.634714 89.528562 
L 64.926593 87.902495 
L 66.218472 86.287316 
L 67.51035 84.686123 
L 68.802229 83.101587 
L 70.094108 81.535998 
L 71.385986 79.9913 
L 72.677865 78.469134 
L 73.969744 76.970864 
L 75.261623 75.497611 
L 76.553501 74.050279 
L 77.84538 72.629581 
L 79.137259 71.236061 
L 80.429138 69.87011 
L 81.721016 68.53199 
L 83.012895 67.221847 
L 84.304774 65.939725 
L 85.596652 64.685581 
L 86.888531 63.459293 
L 88.18041 62.260674 
L 89.472289 61.089479 
L 90.764167 59.945415 
L 92.056046 58.828145 
L 93.347925 57.737297 
L 94.639804 56.67247 
L 95.931682 55.633238 
L 97.223561 54.619155 
L 98.51544 53.629757 
L 99.807319 52.664568 
L 101.099197 51.723105 
L 102.391076 50.804874 
L 103.682955 49.90938 
L 104.974833 49.036122 
L 106.266712 48.1846 
L 107.558591 47.354318 
L 108.85047 46.544777 
L 110.142348 45.755485 
L 111.434227 44.985953 
L 112.726106 44.2357 
L 114.017985 43.504248 
L 115.309863 42.791129 
L 116.601742 42.095879 
L 117.893621 41.418045 
L 119.1855 40.757181 
L 120.477378 40.11285 
L 121.769257 39.484622 
L 123.061136 38.872078 
L 124.353014 38.274808 
L 125.644893 37.69241 
L 126.936772 37.124491 
L 128.228651 36.570669 
L 129.520529 36.03057 
L 130.812408 35.503828 
L 132.104287 34.990088 
L 133.396166 34.489002 
L 134.688044 34.000234 
L 135.979923 33.523453 
L 137.271802 33.058339 
L 138.56368 32.604579 
L 139.855559 32.16187 
L 141.147438 31.729916 
L 142.439317 31.308428 
L 143.731195 30.897127 
L 145.023074 30.495741 
L 146.314953 30.104004 
L 147.606832 29.721659 
L 148.89871 29.348455 
L 150.190589 28.984149 
L 151.482468 28.628504 
L 152.774347 28.28129 
L 154.066225 27.942283 
L 155.358104 27.611266 
L 156.649983 27.288028 
L 157.941861 26.972363 
L 159.23374 26.664071 
" clip-path="url(#p105dc3b87b)" style="fill: none; stroke-dasharray: 5.12,1.28,0.8,1.28; stroke-dashoffset: 0; stroke: #3c5488; stroke-width: 0.8"/>
    <defs>
     <path id="m72a081ffb9" d="M -1 1 
L 1 -1 
M -1 -1 
L 1 1 
" style="stroke: #3c5488; stroke-width: 0.8"/>
    </defs>
    <g clip-path="url(#p105dc3b87b)">
     <use xlink:href="#m72a081ffb9" x="31.337746" y="114.692283" style="fill-opacity: 0; stroke: #3c5488; stroke-width: 0.8"/>
     <use xlink:href="#m72a081ffb9" x="44.256533" y="111.288958" style="fill-opacity: 0; stroke: #3c5488; stroke-width: 0.8"/>
     <use xlink:href="#m72a081ffb9" x="57.17532" y="97.678065" style="fill-opacity: 0; stroke: #3c5488; stroke-width: 0.8"/>
     <use xlink:href="#m72a081ffb9" x="70.094108" y="81.535998" style="fill-opacity: 0; stroke: #3c5488; stroke-width: 0.8"/>
     <use xlink:href="#m72a081ffb9" x="83.012895" y="67.221847" style="fill-opacity: 0; stroke: #3c5488; stroke-width: 0.8"/>
     <use xlink:href="#m72a081ffb9" x="95.931682" y="55.633238" style="fill-opacity: 0; stroke: #3c5488; stroke-width: 0.8"/>
     <use xlink:href="#m72a081ffb9" x="108.85047" y="46.544777" style="fill-opacity: 0; stroke: #3c5488; stroke-width: 0.8"/>
     <use xlink:href="#m72a081ffb9" x="121.769257" y="39.484622" style="fill-opacity: 0; stroke: #3c5488; stroke-width: 0.8"/>
     <use xlink:href="#m72a081ffb9" x="134.688044" y="34.000234" style="fill-opacity: 0; stroke: #3c5488; stroke-width: 0.8"/>
     <use xlink:href="#m72a081ffb9" x="147.606832" y="29.721659" style="fill-opacity: 0; stroke: #3c5488; stroke-width: 0.8"/>
    </g>
   </g>
   <g id="patch_3">
    <path d="M 30.91 114.692283 
L 30.91 11.52 
" style="fill: none; stroke: #000000; stroke-width: 0.5; stroke-linejoin: miter; stroke-linecap: square"/>
   </g>
   <g id="patch_4">
    <path d="M 159.23374 114.692283 
L 159.23374 11.52 
" style="fill: none; stroke: #000000; stroke-width: 0.5; stroke-linejoin: miter; stroke-linecap: square"/>
   </g>
   <g id="patch_5">
    <path d="M 30.91 114.692283 
L 159.23374 114.692283 
" style="fill: none; stroke: #000000; stroke-width: 0.5; stroke-linejoin: miter; stroke-linecap: square"/>
   </g>
   <g id="patch_6">
    <path d="M 30.91 11.52 
L 159.23374 11.52 
" style="fill: none; stroke: #000000; stroke-width: 0.5; stroke-linejoin: miter; stroke-linecap: square"/>
   </g>
  </g>
 </g>
 <defs>
  <clipPath id="p105dc3b87b">
   <rect x="30.91" y="11.52" width="128.32374" height="103.172283"/>
  </clipPath>
 </defs>
</svg>
