<?xml version="1.0" encoding="utf-8" standalone="no"?>
<!DOCTYPE svg PUBLIC "-//W3C//DTD SVG 1.1//EN"
  "http://www.w3.org/Graphics/SVG/1.1/DTD/svg11.dtd">
<svg xmlns:xlink="http://www.w3.org/1999/xlink" width="170.07874pt" height="141.732283pt" viewBox="0 0 170.07874 141.732283" xmlns="http://www.w3.org/2000/svg" version="1.1">
 <metadata>
  <rdf:RDF xmlns:dc="http://purl.org/dc/elements/1.1/" xmlns:cc="http://creativecommons.org/ns#" xmlns:rdf="http://www.w3.org/1999/02/22-rdf-syntax-ns#">
   <cc:Work>
    <dc:type rdf:resource="http://purl.org/dc/dcmitype/StillImage"/>
    <dc:date>2025-01-06T17:26:19.121895</dc:date>
    <dc:format>image/svg+xml</dc:format>
    <dc:creator>
     <cc:Agent>
      <dc:title>Matplotlib v3.5.2, https://matplotlib.org/</dc:title>
     </cc:Agent>
    </dc:creator>
   </cc:Work>
  </rdf:RDF>
 </metadata>
 <defs>
  <style type="text/css">*{stroke-linejoin: round; stroke-linecap: butt}</style>
 </defs>
 <g id="figure_1">
  <g id="patch_1">
   <path d="M 0 141.732283 
L 170.07874 141.732283 
L 170.07874 0 
L 0 0 
z
" style="fill: #ffffff"/>
  </g>
  <g id="axes_1">
   <g id="patch_2">
    <path d="M 30.94375 114.692283 
L 159.23374 114.692283 
L 159.23374 11.52 
L 30.94375 11.52 
z
" style="fill: #ffffff"/>
   </g>
   <g id="PolyCollection_1">
    <defs>
     <path id="meac482d1f2" d="M 31.371383 -40.270959 
L 31.371383 -27.661031 
L 32.662922 -40.900154 
L 33.954461 -57.123321 
L 35.246 -70.216387 
L 36.537539 -79.925781 
L 37.829078 -86.8996 
L 39.120617 -91.790498 
L 40.412156 -95.116499 
L 41.703695 -97.266818 
L 42.995234 -98.53048 
L 44.286773 -99.122587 
L 45.578312 -99.204364 
L 46.869851 -98.897687 
L 48.16139 -98.295478 
L 49.452929 -97.469156 
L 50.744468 -96.474002 
L 52.036007 -95.353079 
L 53.327546 -94.140106 
L 54.619085 -92.861601 
L 55.910624 -91.538483 
L 57.202162 -90.187295 
L 58.493701 -88.821131 
L 59.78524 -87.450355 
L 61.076779 -86.083157 
L 62.368318 -84.72599 
L 63.659857 -83.383913 
L 64.951396 -82.060862 
L 66.242935 -80.759866 
L 67.534474 -79.483223 
L 68.826013 -78.232634 
L 70.117552 -77.009321 
L 71.409091 -75.814113 
L 72.70063 -74.647524 
L 73.992169 -73.50981 
L 75.283708 -72.401022 
L 76.575247 -71.321043 
L 77.866786 -70.269622 
L 79.158325 -69.246403 
L 80.449864 -68.250945 
L 81.741403 -67.282745 
L 83.032942 -66.341245 
L 84.324481 -65.425855 
L 85.61602 -64.535954 
L 86.907559 -63.670905 
L 88.199097 -62.830059 
L 89.490636 -62.01276 
L 90.782175 -61.218354 
L 92.073714 -60.446187 
L 93.365253 -59.695613 
L 94.656792 -58.965992 
L 95.948331 -58.256698 
L 97.23987 -57.567113 
L 98.531409 -56.896636 
L 99.822948 -56.244677 
L 101.114487 -55.610663 
L 102.406026 -54.994034 
L 103.697565 -54.394248 
L 104.989104 -53.810776 
L 106.280643 -53.243106 
L 107.572182 -52.690742 
L 108.863721 -52.153203 
L 110.15526 -51.630023 
L 111.446799 -51.120751 
L 112.738338 -50.624951 
L 114.029877 -50.1422 
L 115.321416 -49.672092 
L 116.612955 -49.214231 
L 117.904493 -48.768238 
L 119.196032 -48.333744 
L 120.487571 -47.910394 
L 121.77911 -47.497843 
L 123.070649 -47.095762 
L 124.362188 -46.703829 
L 125.653727 -46.321736 
L 126.945266 -45.949183 
L 128.236805 -45.585882 
L 129.528344 -45.231555 
L 130.819883 -44.885932 
L 132.111422 -44.548755 
L 133.402961 -44.219772 
L 134.6945 -43.89874 
L 135.986039 -43.585427 
L 137.277578 -43.279604 
L 138.569117 -42.981055 
L 139.860656 -42.689567 
L 141.152195 -42.404938 
L 142.443734 -42.126969 
L 143.735273 -41.855471 
L 145.026812 -41.590258 
L 146.318351 -41.331153 
L 147.60989 -41.077984 
L 148.901428 -40.830584 
L 150.192967 -40.588792 
L 151.484506 -40.352452 
L 152.776045 -40.121414 
L 154.067584 -39.895532 
L 155.359123 -39.674664 
L 156.650662 -39.458674 
L 157.942201 -39.24743 
L 159.23374 -39.040804 
L 159.23374 -28.708153 
L 159.23374 -28.708153 
L 157.942201 -28.754087 
L 156.650662 -28.801585 
L 155.359123 -28.850711 
L 154.067584 -28.901534 
L 152.776045 -28.954122 
L 151.484506 -29.008551 
L 150.192967 -29.064898 
L 148.901428 -29.123245 
L 147.60989 -29.183677 
L 146.318351 -29.246284 
L 145.026812 -29.311161 
L 143.735273 -29.378408 
L 142.443734 -29.448128 
L 141.152195 -29.520433 
L 139.860656 -29.595438 
L 138.569117 -29.673264 
L 137.277578 -29.754042 
L 135.986039 -29.837905 
L 134.6945 -29.924998 
L 133.402961 -30.01547 
L 132.111422 -30.109481 
L 130.819883 -30.207199 
L 129.528344 -30.3088 
L 128.236805 -30.414473 
L 126.945266 -30.524416 
L 125.653727 -30.638838 
L 124.362188 -30.757961 
L 123.070649 -30.88202 
L 121.77911 -31.011263 
L 120.487571 -31.145955 
L 119.196032 -31.286375 
L 117.904493 -31.43282 
L 116.612955 -31.585604 
L 115.321416 -31.745063 
L 114.029877 -31.911552 
L 112.738338 -32.085449 
L 111.446799 -32.267156 
L 110.15526 -32.457102 
L 108.863721 -32.655743 
L 107.572182 -32.863566 
L 106.280643 -33.081089 
L 104.989104 -33.308867 
L 103.697565 -33.54749 
L 102.406026 -33.797592 
L 101.114487 -34.059847 
L 99.822948 -34.334981 
L 98.531409 -34.623767 
L 97.23987 -34.927037 
L 95.948331 -35.245681 
L 94.656792 -35.580656 
L 93.365253 -35.93299 
L 92.073714 -36.303785 
L 90.782175 -36.694232 
L 89.490636 -37.105608 
L 88.199097 -37.539294 
L 86.907559 -37.996774 
L 85.61602 -38.479655 
L 84.324481 -38.989671 
L 83.032942 -39.528695 
L 81.741403 -40.098757 
L 80.449864 -40.702053 
L 79.158325 -41.340965 
L 77.866786 -42.018076 
L 76.575247 -42.736192 
L 75.283708 -43.498361 
L 73.992169 -44.307898 
L 72.70063 -45.168412 
L 71.409091 -46.083831 
L 70.117552 -47.05844 
L 68.826013 -48.096906 
L 67.534474 -49.204325 
L 66.242935 -50.386256 
L 64.951396 -51.648765 
L 63.659857 -52.998474 
L 62.368318 -54.442602 
L 61.076779 -55.98902 
L 59.78524 -57.646292 
L 58.493701 -59.423716 
L 57.202162 -61.331358 
L 55.910624 -63.380059 
L 54.619085 -65.58142 
L 53.327546 -67.947734 
L 52.036007 -70.491832 
L 50.744468 -73.226811 
L 49.452929 -76.165558 
L 48.16139 -79.319958 
L 46.869851 -82.699588 
L 45.578312 -86.309584 
L 44.286773 -90.147117 
L 42.995234 -94.195484 
L 41.703695 -98.413962 
L 40.412156 -102.71975 
L 39.120617 -106.954279 
L 37.829078 -110.816122 
L 36.537539 -113.715391 
L 35.246 -114.419002 
L 33.954461 -110.044195 
L 32.662922 -92.63497 
L 31.371383 -40.270959 
z
" style="stroke: #808080; stroke-opacity: 0.4"/>
    </defs>
    <g clip-path="url(#p37d0a93319)">
     <use xlink:href="#meac482d1f2" x="0" y="141.732283" style="fill: #808080; fill-opacity: 0.4; stroke: #808080; stroke-opacity: 0.4"/>
    </g>
   </g>
   <g id="PolyCollection_2">
    <defs>
     <path id="m957d1ae35b" d="M 31.371383 -27.043244 
L 31.371383 -27.040237 
L 32.662922 -27.117547 
L 33.954461 -27.511301 
L 35.246 -28.315648 
L 36.537539 -29.501359 
L 37.829078 -31.001053 
L 39.120617 -32.743757 
L 40.412156 -34.666336 
L 41.703695 -36.716194 
L 42.995234 -38.850866 
L 44.286773 -41.036647 
L 45.578312 -43.247079 
L 46.869851 -45.46156 
L 48.16139 -47.664173 
L 49.452929 -49.842724 
L 50.744468 -51.987975 
L 52.036007 -54.093023 
L 53.327546 -56.152817 
L 54.619085 -58.163767 
L 55.910624 -60.123441 
L 57.202162 -62.030314 
L 58.493701 -63.883583 
L 59.78524 -65.683004 
L 61.076779 -67.428773 
L 62.368318 -69.121426 
L 63.659857 -70.761762 
L 64.951396 -72.350776 
L 66.242935 -73.889612 
L 67.534474 -75.37952 
L 68.826013 -76.821827 
L 70.117552 -78.217906 
L 71.409091 -79.569159 
L 72.70063 -80.877 
L 73.992169 -82.142842 
L 75.283708 -83.368085 
L 76.575247 -84.554112 
L 77.866786 -85.702278 
L 79.158325 -86.81391 
L 80.449864 -87.8903 
L 81.741403 -88.932705 
L 83.032942 -89.942344 
L 84.324481 -90.920398 
L 85.61602 -91.868009 
L 86.907559 -92.786277 
L 88.199097 -93.676267 
L 89.490636 -94.539003 
L 90.782175 -95.375472 
L 92.073714 -96.186623 
L 93.365253 -96.973371 
L 94.656792 -97.736593 
L 95.948331 -98.477133 
L 97.23987 -99.195803 
L 98.531409 -99.893382 
L 99.822948 -100.570619 
L 101.114487 -101.228233 
L 102.406026 -101.866914 
L 103.697565 -102.487325 
L 104.989104 -103.090103 
L 106.280643 -103.67586 
L 107.572182 -104.245183 
L 108.863721 -104.798636 
L 110.15526 -105.33676 
L 111.446799 -105.860077 
L 112.738338 -106.369087 
L 114.029877 -106.864269 
L 115.321416 -107.346085 
L 116.612955 -107.81498 
L 117.904493 -108.271379 
L 119.196032 -108.715693 
L 120.487571 -109.148316 
L 121.77911 -109.569627 
L 123.070649 -109.979992 
L 124.362188 -110.37976 
L 125.653727 -110.769269 
L 126.945266 -111.148845 
L 128.236805 -111.518801 
L 129.528344 -111.879437 
L 130.819883 -112.231044 
L 132.111422 -112.5739 
L 133.402961 -112.908276 
L 134.6945 -113.23443 
L 135.986039 -113.552613 
L 137.277578 -113.863065 
L 138.569117 -114.166019 
L 139.860656 -114.461698 
L 141.152195 -114.750318 
L 142.443734 -115.032089 
L 143.735273 -115.30721 
L 145.026812 -115.575877 
L 146.318351 -115.838276 
L 147.60989 -116.094589 
L 148.901428 -116.344989 
L 150.192967 -116.589646 
L 151.484506 -116.828723 
L 152.776045 -117.062376 
L 154.067584 -117.290759 
L 155.359123 -117.514017 
L 156.650662 -117.732294 
L 157.942201 -117.945727 
L 159.23374 -118.154448 
L 159.23374 -128.544102 
L 159.23374 -128.544102 
L 157.942201 -128.498166 
L 156.650662 -128.450667 
L 155.359123 -128.401538 
L 154.067584 -128.350714 
L 152.776045 -128.298123 
L 151.484506 -128.243692 
L 150.192967 -128.187343 
L 148.901428 -128.128993 
L 147.60989 -128.068559 
L 146.318351 -128.005948 
L 145.026812 -127.941068 
L 143.735273 -127.873818 
L 142.443734 -127.804094 
L 141.152195 -127.731785 
L 139.860656 -127.656776 
L 138.569117 -127.578944 
L 137.277578 -127.498162 
L 135.986039 -127.414293 
L 134.6945 -127.327195 
L 133.402961 -127.236716 
L 132.111422 -127.142698 
L 130.819883 -127.044973 
L 129.528344 -126.943364 
L 128.236805 -126.837682 
L 126.945266 -126.72773 
L 125.653727 -126.613298 
L 124.362188 -126.494164 
L 123.070649 -126.370093 
L 121.77911 -126.240837 
L 120.487571 -126.106131 
L 119.196032 -125.965695 
L 117.904493 -125.819234 
L 116.612955 -125.666431 
L 115.321416 -125.506952 
L 114.029877 -125.340441 
L 112.738338 -125.16652 
L 111.446799 -124.984786 
L 110.15526 -124.794811 
L 108.863721 -124.596137 
L 107.572182 -124.388279 
L 106.280643 -124.170717 
L 104.989104 -123.942897 
L 103.697565 -123.704226 
L 102.406026 -123.454072 
L 101.114487 -123.191758 
L 99.822948 -122.91656 
L 98.531409 -122.627701 
L 97.23987 -122.324351 
L 95.948331 -122.005618 
L 94.656792 -121.670542 
L 93.365253 -121.318097 
L 92.073714 -120.947176 
L 90.782175 -120.556588 
L 89.490636 -120.145052 
L 88.199097 -119.711187 
L 86.907559 -119.253504 
L 85.61602 -118.770392 
L 84.324481 -118.260115 
L 83.032942 -117.720793 
L 81.741403 -117.150391 
L 80.449864 -116.546705 
L 79.158325 -115.907347 
L 77.866786 -115.229721 
L 76.575247 -114.51101 
L 75.283708 -113.748153 
L 73.992169 -112.937815 
L 72.70063 -112.076368 
L 71.409091 -111.159856 
L 70.117552 -110.183964 
L 68.826013 -109.143982 
L 67.534474 -108.034768 
L 66.242935 -106.8507 
L 64.951396 -105.585633 
L 63.659857 -104.23285 
L 62.368318 -102.785004 
L 61.076779 -101.234064 
L 59.78524 -99.571258 
L 58.493701 -97.787013 
L 57.202162 -95.870905 
L 55.910624 -93.81161 
L 54.619085 -91.596878 
L 53.327546 -89.213532 
L 52.036007 -86.647514 
L 50.744468 -83.884005 
L 49.452929 -80.907658 
L 48.16139 -77.703016 
L 46.869851 -74.255201 
L 45.578312 -70.551034 
L 44.286773 -66.580824 
L 42.995234 -62.341192 
L 41.703695 -57.839529 
L 40.412156 -53.101011 
L 39.120617 -48.179673 
L 37.829078 -43.175764 
L 36.537539 -38.262476 
L 35.246 -33.724549 
L 33.954461 -30.001789 
L 32.662922 -27.674327 
L 31.371383 -27.043244 
z
" style="stroke: #808080; stroke-opacity: 0.4"/>
    </defs>
    <g clip-path="url(#p37d0a93319)">
     <use xlink:href="#m957d1ae35b" x="0" y="141.732283" style="fill: #808080; fill-opacity: 0.4; stroke: #808080; stroke-opacity: 0.4"/>
    </g>
   </g>
   <g id="matplotlib.axis_1">
    <g id="xtick_1">
     <g id="line2d_1">
      <defs>
       <path id="m9cff4ed9e4" d="M 0 0 
L 0 -5 
" style="stroke: #000000; stroke-width: 0.5"/>
      </defs>
      <g>
       <use xlink:href="#m9cff4ed9e4" x="30.94375" y="114.692283" style="fill-opacity: 0; stroke: #000000; stroke-width: 0.5"/>
      </g>
     </g>
     <g id="text_1">
      <!-- 0 -->
      <g transform="translate(28.719375 122.418533)scale(0.08 -0.08)">
       <defs>
        <path id="ArialMT-30" d="M 266 2259 
Q 266 3072 433 3567 
Q 600 4063 929 4331 
Q 1259 4600 1759 4600 
Q 2128 4600 2406 4451 
Q 2684 4303 2865 4023 
Q 3047 3744 3150 3342 
Q 3253 2941 3253 2259 
Q 3253 1453 3087 958 
Q 2922 463 2592 192 
Q 2263 -78 1759 -78 
Q 1097 -78 719 397 
Q 266 969 266 2259 
z
M 844 2259 
Q 844 1131 1108 757 
Q 1372 384 1759 384 
Q 2147 384 2411 759 
Q 2675 1134 2675 2259 
Q 2675 3391 2411 3762 
Q 2147 4134 1753 4134 
Q 1366 4134 1134 3806 
Q 844 3388 844 2259 
z
" transform="scale(0.015625)"/>
       </defs>
       <use xlink:href="#ArialMT-30"/>
      </g>
     </g>
    </g>
    <g id="xtick_2">
     <g id="line2d_2">
      <g>
       <use xlink:href="#m9cff4ed9e4" x="73.70708" y="114.692283" style="fill-opacity: 0; stroke: #000000; stroke-width: 0.5"/>
      </g>
     </g>
     <g id="text_2">
      <!-- 1 -->
      <g transform="translate(71.482705 122.418533)scale(0.08 -0.08)">
       <defs>
        <path id="ArialMT-31" d="M 2384 0 
L 1822 0 
L 1822 3584 
Q 1619 3391 1289 3197 
Q 959 3003 697 2906 
L 697 3450 
Q 1169 3672 1522 3987 
Q 1875 4303 2022 4600 
L 2384 4600 
L 2384 0 
z
" transform="scale(0.015625)"/>
       </defs>
       <use xlink:href="#ArialMT-31"/>
      </g>
     </g>
    </g>
    <g id="xtick_3">
     <g id="line2d_3">
      <g>
       <use xlink:href="#m9cff4ed9e4" x="116.47041" y="114.692283" style="fill-opacity: 0; stroke: #000000; stroke-width: 0.5"/>
      </g>
     </g>
     <g id="text_3">
      <!-- 2 -->
      <g transform="translate(114.246035 122.418533)scale(0.08 -0.08)">
       <defs>
        <path id="ArialMT-32" d="M 3222 541 
L 3222 0 
L 194 0 
Q 188 203 259 391 
Q 375 700 629 1000 
Q 884 1300 1366 1694 
Q 2113 2306 2375 2664 
Q 2638 3022 2638 3341 
Q 2638 3675 2398 3904 
Q 2159 4134 1775 4134 
Q 1369 4134 1125 3890 
Q 881 3647 878 3216 
L 300 3275 
Q 359 3922 746 4261 
Q 1134 4600 1788 4600 
Q 2447 4600 2831 4234 
Q 3216 3869 3216 3328 
Q 3216 3053 3103 2787 
Q 2991 2522 2730 2228 
Q 2469 1934 1863 1422 
Q 1356 997 1212 845 
Q 1069 694 975 541 
L 3222 541 
z
" transform="scale(0.015625)"/>
       </defs>
       <use xlink:href="#ArialMT-32"/>
      </g>
     </g>
    </g>
    <g id="xtick_4">
     <g id="line2d_4">
      <g>
       <use xlink:href="#m9cff4ed9e4" x="159.23374" y="114.692283" style="fill-opacity: 0; stroke: #000000; stroke-width: 0.5"/>
      </g>
     </g>
     <g id="text_4">
      <!-- 3 -->
      <g transform="translate(157.009365 122.418533)scale(0.08 -0.08)">
       <defs>
        <path id="ArialMT-33" d="M 269 1209 
L 831 1284 
Q 928 806 1161 595 
Q 1394 384 1728 384 
Q 2125 384 2398 659 
Q 2672 934 2672 1341 
Q 2672 1728 2419 1979 
Q 2166 2231 1775 2231 
Q 1616 2231 1378 2169 
L 1441 2663 
Q 1497 2656 1531 2656 
Q 1891 2656 2178 2843 
Q 2466 3031 2466 3422 
Q 2466 3731 2256 3934 
Q 2047 4138 1716 4138 
Q 1388 4138 1169 3931 
Q 950 3725 888 3313 
L 325 3413 
Q 428 3978 793 4289 
Q 1159 4600 1703 4600 
Q 2078 4600 2393 4439 
Q 2709 4278 2876 4000 
Q 3044 3722 3044 3409 
Q 3044 3113 2884 2869 
Q 2725 2625 2413 2481 
Q 2819 2388 3044 2092 
Q 3269 1797 3269 1353 
Q 3269 753 2831 336 
Q 2394 -81 1725 -81 
Q 1122 -81 723 278 
Q 325 638 269 1209 
z
" transform="scale(0.015625)"/>
       </defs>
       <use xlink:href="#ArialMT-33"/>
      </g>
     </g>
    </g>
    <g id="xtick_5">
     <g id="line2d_5">
      <defs>
       <path id="m6d705cd6b8" d="M 0 0 
L 0 -3 
" style="stroke: #000000; stroke-width: 0.5"/>
      </defs>
      <g>
       <use xlink:href="#m6d705cd6b8" x="39.496416" y="114.692283" style="fill-opacity: 0; stroke: #000000; stroke-width: 0.5"/>
      </g>
     </g>
    </g>
    <g id="xtick_6">
     <g id="line2d_6">
      <g>
       <use xlink:href="#m6d705cd6b8" x="48.049082" y="114.692283" style="fill-opacity: 0; stroke: #000000; stroke-width: 0.5"/>
      </g>
     </g>
    </g>
    <g id="xtick_7">
     <g id="line2d_7">
      <g>
       <use xlink:href="#m6d705cd6b8" x="56.601748" y="114.692283" style="fill-opacity: 0; stroke: #000000; stroke-width: 0.5"/>
      </g>
     </g>
    </g>
    <g id="xtick_8">
     <g id="line2d_8">
      <g>
       <use xlink:href="#m6d705cd6b8" x="65.154414" y="114.692283" style="fill-opacity: 0; stroke: #000000; stroke-width: 0.5"/>
      </g>
     </g>
    </g>
    <g id="xtick_9">
     <g id="line2d_9">
      <g>
       <use xlink:href="#m6d705cd6b8" x="82.259746" y="114.692283" style="fill-opacity: 0; stroke: #000000; stroke-width: 0.5"/>
      </g>
     </g>
    </g>
    <g id="xtick_10">
     <g id="line2d_10">
      <g>
       <use xlink:href="#m6d705cd6b8" x="90.812412" y="114.692283" style="fill-opacity: 0; stroke: #000000; stroke-width: 0.5"/>
      </g>
     </g>
    </g>
    <g id="xtick_11">
     <g id="line2d_11">
      <g>
       <use xlink:href="#m6d705cd6b8" x="99.365078" y="114.692283" style="fill-opacity: 0; stroke: #000000; stroke-width: 0.5"/>
      </g>
     </g>
    </g>
    <g id="xtick_12">
     <g id="line2d_12">
      <g>
       <use xlink:href="#m6d705cd6b8" x="107.917744" y="114.692283" style="fill-opacity: 0; stroke: #000000; stroke-width: 0.5"/>
      </g>
     </g>
    </g>
    <g id="xtick_13">
     <g id="line2d_13">
      <g>
       <use xlink:href="#m6d705cd6b8" x="125.023076" y="114.692283" style="fill-opacity: 0; stroke: #000000; stroke-width: 0.5"/>
      </g>
     </g>
    </g>
    <g id="xtick_14">
     <g id="line2d_14">
      <g>
       <use xlink:href="#m6d705cd6b8" x="133.575742" y="114.692283" style="fill-opacity: 0; stroke: #000000; stroke-width: 0.5"/>
      </g>
     </g>
    </g>
    <g id="xtick_15">
     <g id="line2d_15">
      <g>
       <use xlink:href="#m6d705cd6b8" x="142.128408" y="114.692283" style="fill-opacity: 0; stroke: #000000; stroke-width: 0.5"/>
      </g>
     </g>
    </g>
    <g id="xtick_16">
     <g id="line2d_16">
      <g>
       <use xlink:href="#m6d705cd6b8" x="150.681074" y="114.692283" style="fill-opacity: 0; stroke: #000000; stroke-width: 0.5"/>
      </g>
     </g>
    </g>
    <g id="text_5">
     <!-- PGA(g) -->
     <g transform="translate(81.75312 131.832283)scale(0.08 -0.08)">
      <defs>
       <path id="ArialMT-50" d="M 494 0 
L 494 4581 
L 2222 4581 
Q 2678 4581 2919 4538 
Q 3256 4481 3484 4323 
Q 3713 4166 3852 3881 
Q 3991 3597 3991 3256 
Q 3991 2672 3619 2267 
Q 3247 1863 2275 1863 
L 1100 1863 
L 1100 0 
L 494 0 
z
M 1100 2403 
L 2284 2403 
Q 2872 2403 3119 2622 
Q 3366 2841 3366 3238 
Q 3366 3525 3220 3729 
Q 3075 3934 2838 4000 
Q 2684 4041 2272 4041 
L 1100 4041 
L 1100 2403 
z
" transform="scale(0.015625)"/>
       <path id="ArialMT-47" d="M 2638 1797 
L 2638 2334 
L 4578 2338 
L 4578 638 
Q 4131 281 3656 101 
Q 3181 -78 2681 -78 
Q 2006 -78 1454 211 
Q 903 500 622 1047 
Q 341 1594 341 2269 
Q 341 2938 620 3517 
Q 900 4097 1425 4378 
Q 1950 4659 2634 4659 
Q 3131 4659 3532 4498 
Q 3934 4338 4162 4050 
Q 4391 3763 4509 3300 
L 3963 3150 
Q 3859 3500 3706 3700 
Q 3553 3900 3268 4020 
Q 2984 4141 2638 4141 
Q 2222 4141 1919 4014 
Q 1616 3888 1430 3681 
Q 1244 3475 1141 3228 
Q 966 2803 966 2306 
Q 966 1694 1177 1281 
Q 1388 869 1791 669 
Q 2194 469 2647 469 
Q 3041 469 3416 620 
Q 3791 772 3984 944 
L 3984 1797 
L 2638 1797 
z
" transform="scale(0.015625)"/>
       <path id="ArialMT-41" d="M -9 0 
L 1750 4581 
L 2403 4581 
L 4278 0 
L 3588 0 
L 3053 1388 
L 1138 1388 
L 634 0 
L -9 0 
z
M 1313 1881 
L 2866 1881 
L 2388 3150 
Q 2169 3728 2063 4100 
Q 1975 3659 1816 3225 
L 1313 1881 
z
" transform="scale(0.015625)"/>
       <path id="ArialMT-28" d="M 1497 -1347 
Q 1031 -759 709 28 
Q 388 816 388 1659 
Q 388 2403 628 3084 
Q 909 3875 1497 4659 
L 1900 4659 
Q 1522 4009 1400 3731 
Q 1209 3300 1100 2831 
Q 966 2247 966 1656 
Q 966 153 1900 -1347 
L 1497 -1347 
z
" transform="scale(0.015625)"/>
       <path id="ArialMT-67" d="M 319 -275 
L 866 -356 
Q 900 -609 1056 -725 
Q 1266 -881 1628 -881 
Q 2019 -881 2231 -725 
Q 2444 -569 2519 -288 
Q 2563 -116 2559 434 
Q 2191 0 1641 0 
Q 956 0 581 494 
Q 206 988 206 1678 
Q 206 2153 378 2554 
Q 550 2956 876 3175 
Q 1203 3394 1644 3394 
Q 2231 3394 2613 2919 
L 2613 3319 
L 3131 3319 
L 3131 450 
Q 3131 -325 2973 -648 
Q 2816 -972 2473 -1159 
Q 2131 -1347 1631 -1347 
Q 1038 -1347 672 -1080 
Q 306 -813 319 -275 
z
M 784 1719 
Q 784 1066 1043 766 
Q 1303 466 1694 466 
Q 2081 466 2343 764 
Q 2606 1063 2606 1700 
Q 2606 2309 2336 2618 
Q 2066 2928 1684 2928 
Q 1309 2928 1046 2623 
Q 784 2319 784 1719 
z
" transform="scale(0.015625)"/>
       <path id="ArialMT-29" d="M 791 -1347 
L 388 -1347 
Q 1322 153 1322 1656 
Q 1322 2244 1188 2822 
Q 1081 3291 891 3722 
Q 769 4003 388 4659 
L 791 4659 
Q 1378 3875 1659 3084 
Q 1900 2403 1900 1659 
Q 1900 816 1576 28 
Q 1253 -759 791 -1347 
z
" transform="scale(0.015625)"/>
      </defs>
      <use xlink:href="#ArialMT-50"/>
      <use xlink:href="#ArialMT-47" x="66.699219"/>
      <use xlink:href="#ArialMT-41" x="144.482422"/>
      <use xlink:href="#ArialMT-28" x="211.181641"/>
      <use xlink:href="#ArialMT-67" x="244.482422"/>
      <use xlink:href="#ArialMT-29" x="300.097656"/>
     </g>
    </g>
   </g>
   <g id="matplotlib.axis_2">
    <g id="ytick_1">
     <g id="line2d_17">
      <defs>
       <path id="ma7a9a381dd" d="M 0 0 
L 5 0 
" style="stroke: #000000; stroke-width: 0.5"/>
      </defs>
      <g>
       <use xlink:href="#ma7a9a381dd" x="30.94375" y="114.692283" style="fill-opacity: 0; stroke: #000000; stroke-width: 0.5"/>
      </g>
     </g>
     <g id="text_6">
      <!-- 0.0 -->
      <g transform="translate(17.82375 117.555408)scale(0.08 -0.08)">
       <defs>
        <path id="ArialMT-2e" d="M 581 0 
L 581 641 
L 1222 641 
L 1222 0 
L 581 0 
z
" transform="scale(0.015625)"/>
       </defs>
       <use xlink:href="#ArialMT-30"/>
       <use xlink:href="#ArialMT-2e" x="55.615234"/>
       <use xlink:href="#ArialMT-30" x="83.398438"/>
      </g>
     </g>
    </g>
    <g id="ytick_2">
     <g id="line2d_18">
      <g>
       <use xlink:href="#ma7a9a381dd" x="30.94375" y="94.057827" style="fill-opacity: 0; stroke: #000000; stroke-width: 0.5"/>
      </g>
     </g>
     <g id="text_7">
      <!-- 0.2 -->
      <g transform="translate(17.82375 96.920952)scale(0.08 -0.08)">
       <use xlink:href="#ArialMT-30"/>
       <use xlink:href="#ArialMT-2e" x="55.615234"/>
       <use xlink:href="#ArialMT-32" x="83.398438"/>
      </g>
     </g>
    </g>
    <g id="ytick_3">
     <g id="line2d_19">
      <g>
       <use xlink:href="#ma7a9a381dd" x="30.94375" y="73.42337" style="fill-opacity: 0; stroke: #000000; stroke-width: 0.5"/>
      </g>
     </g>
     <g id="text_8">
      <!-- 0.4 -->
      <g transform="translate(17.82375 76.286495)scale(0.08 -0.08)">
       <defs>
        <path id="ArialMT-34" d="M 2069 0 
L 2069 1097 
L 81 1097 
L 81 1613 
L 2172 4581 
L 2631 4581 
L 2631 1613 
L 3250 1613 
L 3250 1097 
L 2631 1097 
L 2631 0 
L 2069 0 
z
M 2069 1613 
L 2069 3678 
L 634 1613 
L 2069 1613 
z
" transform="scale(0.015625)"/>
       </defs>
       <use xlink:href="#ArialMT-30"/>
       <use xlink:href="#ArialMT-2e" x="55.615234"/>
       <use xlink:href="#ArialMT-34" x="83.398438"/>
      </g>
     </g>
    </g>
    <g id="ytick_4">
     <g id="line2d_20">
      <g>
       <use xlink:href="#ma7a9a381dd" x="30.94375" y="52.788913" style="fill-opacity: 0; stroke: #000000; stroke-width: 0.5"/>
      </g>
     </g>
     <g id="text_9">
      <!-- 0.6 -->
      <g transform="translate(17.82375 55.652038)scale(0.08 -0.08)">
       <defs>
        <path id="ArialMT-36" d="M 3184 3459 
L 2625 3416 
Q 2550 3747 2413 3897 
Q 2184 4138 1850 4138 
Q 1581 4138 1378 3988 
Q 1113 3794 959 3422 
Q 806 3050 800 2363 
Q 1003 2672 1297 2822 
Q 1591 2972 1913 2972 
Q 2475 2972 2870 2558 
Q 3266 2144 3266 1488 
Q 3266 1056 3080 686 
Q 2894 316 2569 119 
Q 2244 -78 1831 -78 
Q 1128 -78 684 439 
Q 241 956 241 2144 
Q 241 3472 731 4075 
Q 1159 4600 1884 4600 
Q 2425 4600 2770 4297 
Q 3116 3994 3184 3459 
z
M 888 1484 
Q 888 1194 1011 928 
Q 1134 663 1356 523 
Q 1578 384 1822 384 
Q 2178 384 2434 671 
Q 2691 959 2691 1453 
Q 2691 1928 2437 2201 
Q 2184 2475 1800 2475 
Q 1419 2475 1153 2201 
Q 888 1928 888 1484 
z
" transform="scale(0.015625)"/>
       </defs>
       <use xlink:href="#ArialMT-30"/>
       <use xlink:href="#ArialMT-2e" x="55.615234"/>
       <use xlink:href="#ArialMT-36" x="83.398438"/>
      </g>
     </g>
    </g>
    <g id="ytick_5">
     <g id="line2d_21">
      <g>
       <use xlink:href="#ma7a9a381dd" x="30.94375" y="32.154457" style="fill-opacity: 0; stroke: #000000; stroke-width: 0.5"/>
      </g>
     </g>
     <g id="text_10">
      <!-- 0.8 -->
      <g transform="translate(17.82375 35.017582)scale(0.08 -0.08)">
       <defs>
        <path id="ArialMT-38" d="M 1131 2484 
Q 781 2613 612 2850 
Q 444 3088 444 3419 
Q 444 3919 803 4259 
Q 1163 4600 1759 4600 
Q 2359 4600 2725 4251 
Q 3091 3903 3091 3403 
Q 3091 3084 2923 2848 
Q 2756 2613 2416 2484 
Q 2838 2347 3058 2040 
Q 3278 1734 3278 1309 
Q 3278 722 2862 322 
Q 2447 -78 1769 -78 
Q 1091 -78 675 323 
Q 259 725 259 1325 
Q 259 1772 486 2073 
Q 713 2375 1131 2484 
z
M 1019 3438 
Q 1019 3113 1228 2906 
Q 1438 2700 1772 2700 
Q 2097 2700 2305 2904 
Q 2513 3109 2513 3406 
Q 2513 3716 2298 3927 
Q 2084 4138 1766 4138 
Q 1444 4138 1231 3931 
Q 1019 3725 1019 3438 
z
M 838 1322 
Q 838 1081 952 856 
Q 1066 631 1291 507 
Q 1516 384 1775 384 
Q 2178 384 2440 643 
Q 2703 903 2703 1303 
Q 2703 1709 2433 1975 
Q 2163 2241 1756 2241 
Q 1359 2241 1098 1978 
Q 838 1716 838 1322 
z
" transform="scale(0.015625)"/>
       </defs>
       <use xlink:href="#ArialMT-30"/>
       <use xlink:href="#ArialMT-2e" x="55.615234"/>
       <use xlink:href="#ArialMT-38" x="83.398438"/>
      </g>
     </g>
    </g>
    <g id="ytick_6">
     <g id="line2d_22">
      <g>
       <use xlink:href="#ma7a9a381dd" x="30.94375" y="11.52" style="fill-opacity: 0; stroke: #000000; stroke-width: 0.5"/>
      </g>
     </g>
     <g id="text_11">
      <!-- 1.0 -->
      <g transform="translate(17.82375 14.383125)scale(0.08 -0.08)">
       <use xlink:href="#ArialMT-31"/>
       <use xlink:href="#ArialMT-2e" x="55.615234"/>
       <use xlink:href="#ArialMT-30" x="83.398438"/>
      </g>
     </g>
    </g>
    <g id="ytick_7">
     <g id="line2d_23">
      <defs>
       <path id="me98787725f" d="M 0 0 
L 3 0 
" style="stroke: #000000; stroke-width: 0.5"/>
      </defs>
      <g>
       <use xlink:href="#me98787725f" x="30.94375" y="109.533669" style="fill-opacity: 0; stroke: #000000; stroke-width: 0.5"/>
      </g>
     </g>
    </g>
    <g id="ytick_8">
     <g id="line2d_24">
      <g>
       <use xlink:href="#me98787725f" x="30.94375" y="104.375055" style="fill-opacity: 0; stroke: #000000; stroke-width: 0.5"/>
      </g>
     </g>
    </g>
    <g id="ytick_9">
     <g id="line2d_25">
      <g>
       <use xlink:href="#me98787725f" x="30.94375" y="99.216441" style="fill-opacity: 0; stroke: #000000; stroke-width: 0.5"/>
      </g>
     </g>
    </g>
    <g id="ytick_10">
     <g id="line2d_26">
      <g>
       <use xlink:href="#me98787725f" x="30.94375" y="88.899213" style="fill-opacity: 0; stroke: #000000; stroke-width: 0.5"/>
      </g>
     </g>
    </g>
    <g id="ytick_11">
     <g id="line2d_27">
      <g>
       <use xlink:href="#me98787725f" x="30.94375" y="83.740598" style="fill-opacity: 0; stroke: #000000; stroke-width: 0.5"/>
      </g>
     </g>
    </g>
    <g id="ytick_12">
     <g id="line2d_28">
      <g>
       <use xlink:href="#me98787725f" x="30.94375" y="78.581984" style="fill-opacity: 0; stroke: #000000; stroke-width: 0.5"/>
      </g>
     </g>
    </g>
    <g id="ytick_13">
     <g id="line2d_29">
      <g>
       <use xlink:href="#me98787725f" x="30.94375" y="68.264756" style="fill-opacity: 0; stroke: #000000; stroke-width: 0.5"/>
      </g>
     </g>
    </g>
    <g id="ytick_14">
     <g id="line2d_30">
      <g>
       <use xlink:href="#me98787725f" x="30.94375" y="63.106142" style="fill-opacity: 0; stroke: #000000; stroke-width: 0.5"/>
      </g>
     </g>
    </g>
    <g id="ytick_15">
     <g id="line2d_31">
      <g>
       <use xlink:href="#me98787725f" x="30.94375" y="57.947528" style="fill-opacity: 0; stroke: #000000; stroke-width: 0.5"/>
      </g>
     </g>
    </g>
    <g id="ytick_16">
     <g id="line2d_32">
      <g>
       <use xlink:href="#me98787725f" x="30.94375" y="47.630299" style="fill-opacity: 0; stroke: #000000; stroke-width: 0.5"/>
      </g>
     </g>
    </g>
    <g id="ytick_17">
     <g id="line2d_33">
      <g>
       <use xlink:href="#me98787725f" x="30.94375" y="42.471685" style="fill-opacity: 0; stroke: #000000; stroke-width: 0.5"/>
      </g>
     </g>
    </g>
    <g id="ytick_18">
     <g id="line2d_34">
      <g>
       <use xlink:href="#me98787725f" x="30.94375" y="37.313071" style="fill-opacity: 0; stroke: #000000; stroke-width: 0.5"/>
      </g>
     </g>
    </g>
    <g id="ytick_19">
     <g id="line2d_35">
      <g>
       <use xlink:href="#me98787725f" x="30.94375" y="26.995843" style="fill-opacity: 0; stroke: #000000; stroke-width: 0.5"/>
      </g>
     </g>
    </g>
    <g id="ytick_20">
     <g id="line2d_36">
      <g>
       <use xlink:href="#me98787725f" x="30.94375" y="21.837228" style="fill-opacity: 0; stroke: #000000; stroke-width: 0.5"/>
      </g>
     </g>
    </g>
    <g id="ytick_21">
     <g id="line2d_37">
      <g>
       <use xlink:href="#me98787725f" x="30.94375" y="16.678614" style="fill-opacity: 0; stroke: #000000; stroke-width: 0.5"/>
      </g>
     </g>
    </g>
    <g id="text_12">
     <!-- Damage Probability -->
     <g transform="translate(14.14 98.010517)rotate(-90)scale(0.08 -0.08)">
      <defs>
       <path id="ArialMT-44" d="M 494 0 
L 494 4581 
L 2072 4581 
Q 2606 4581 2888 4516 
Q 3281 4425 3559 4188 
Q 3922 3881 4101 3404 
Q 4281 2928 4281 2316 
Q 4281 1794 4159 1391 
Q 4038 988 3847 723 
Q 3656 459 3429 307 
Q 3203 156 2883 78 
Q 2563 0 2147 0 
L 494 0 
z
M 1100 541 
L 2078 541 
Q 2531 541 2789 625 
Q 3047 709 3200 863 
Q 3416 1078 3536 1442 
Q 3656 1806 3656 2325 
Q 3656 3044 3420 3430 
Q 3184 3816 2847 3947 
Q 2603 4041 2063 4041 
L 1100 4041 
L 1100 541 
z
" transform="scale(0.015625)"/>
       <path id="ArialMT-61" d="M 2588 409 
Q 2275 144 1986 34 
Q 1697 -75 1366 -75 
Q 819 -75 525 192 
Q 231 459 231 875 
Q 231 1119 342 1320 
Q 453 1522 633 1644 
Q 813 1766 1038 1828 
Q 1203 1872 1538 1913 
Q 2219 1994 2541 2106 
Q 2544 2222 2544 2253 
Q 2544 2597 2384 2738 
Q 2169 2928 1744 2928 
Q 1347 2928 1158 2789 
Q 969 2650 878 2297 
L 328 2372 
Q 403 2725 575 2942 
Q 747 3159 1072 3276 
Q 1397 3394 1825 3394 
Q 2250 3394 2515 3294 
Q 2781 3194 2906 3042 
Q 3031 2891 3081 2659 
Q 3109 2516 3109 2141 
L 3109 1391 
Q 3109 606 3145 398 
Q 3181 191 3288 0 
L 2700 0 
Q 2613 175 2588 409 
z
M 2541 1666 
Q 2234 1541 1622 1453 
Q 1275 1403 1131 1340 
Q 988 1278 909 1158 
Q 831 1038 831 891 
Q 831 666 1001 516 
Q 1172 366 1500 366 
Q 1825 366 2078 508 
Q 2331 650 2450 897 
Q 2541 1088 2541 1459 
L 2541 1666 
z
" transform="scale(0.015625)"/>
       <path id="ArialMT-6d" d="M 422 0 
L 422 3319 
L 925 3319 
L 925 2853 
Q 1081 3097 1340 3245 
Q 1600 3394 1931 3394 
Q 2300 3394 2536 3241 
Q 2772 3088 2869 2813 
Q 3263 3394 3894 3394 
Q 4388 3394 4653 3120 
Q 4919 2847 4919 2278 
L 4919 0 
L 4359 0 
L 4359 2091 
Q 4359 2428 4304 2576 
Q 4250 2725 4106 2815 
Q 3963 2906 3769 2906 
Q 3419 2906 3187 2673 
Q 2956 2441 2956 1928 
L 2956 0 
L 2394 0 
L 2394 2156 
Q 2394 2531 2256 2718 
Q 2119 2906 1806 2906 
Q 1569 2906 1367 2781 
Q 1166 2656 1075 2415 
Q 984 2175 984 1722 
L 984 0 
L 422 0 
z
" transform="scale(0.015625)"/>
       <path id="ArialMT-65" d="M 2694 1069 
L 3275 997 
Q 3138 488 2766 206 
Q 2394 -75 1816 -75 
Q 1088 -75 661 373 
Q 234 822 234 1631 
Q 234 2469 665 2931 
Q 1097 3394 1784 3394 
Q 2450 3394 2872 2941 
Q 3294 2488 3294 1666 
Q 3294 1616 3291 1516 
L 816 1516 
Q 847 969 1125 678 
Q 1403 388 1819 388 
Q 2128 388 2347 550 
Q 2566 713 2694 1069 
z
M 847 1978 
L 2700 1978 
Q 2663 2397 2488 2606 
Q 2219 2931 1791 2931 
Q 1403 2931 1139 2672 
Q 875 2413 847 1978 
z
" transform="scale(0.015625)"/>
       <path id="ArialMT-20" transform="scale(0.015625)"/>
       <path id="ArialMT-72" d="M 416 0 
L 416 3319 
L 922 3319 
L 922 2816 
Q 1116 3169 1280 3281 
Q 1444 3394 1641 3394 
Q 1925 3394 2219 3213 
L 2025 2691 
Q 1819 2813 1613 2813 
Q 1428 2813 1281 2702 
Q 1134 2591 1072 2394 
Q 978 2094 978 1738 
L 978 0 
L 416 0 
z
" transform="scale(0.015625)"/>
       <path id="ArialMT-6f" d="M 213 1659 
Q 213 2581 725 3025 
Q 1153 3394 1769 3394 
Q 2453 3394 2887 2945 
Q 3322 2497 3322 1706 
Q 3322 1066 3130 698 
Q 2938 331 2570 128 
Q 2203 -75 1769 -75 
Q 1072 -75 642 372 
Q 213 819 213 1659 
z
M 791 1659 
Q 791 1022 1069 705 
Q 1347 388 1769 388 
Q 2188 388 2466 706 
Q 2744 1025 2744 1678 
Q 2744 2294 2464 2611 
Q 2184 2928 1769 2928 
Q 1347 2928 1069 2612 
Q 791 2297 791 1659 
z
" transform="scale(0.015625)"/>
       <path id="ArialMT-62" d="M 941 0 
L 419 0 
L 419 4581 
L 981 4581 
L 981 2947 
Q 1338 3394 1891 3394 
Q 2197 3394 2470 3270 
Q 2744 3147 2920 2923 
Q 3097 2700 3197 2384 
Q 3297 2069 3297 1709 
Q 3297 856 2875 390 
Q 2453 -75 1863 -75 
Q 1275 -75 941 416 
L 941 0 
z
M 934 1684 
Q 934 1088 1097 822 
Q 1363 388 1816 388 
Q 2184 388 2453 708 
Q 2722 1028 2722 1663 
Q 2722 2313 2464 2622 
Q 2206 2931 1841 2931 
Q 1472 2931 1203 2611 
Q 934 2291 934 1684 
z
" transform="scale(0.015625)"/>
       <path id="ArialMT-69" d="M 425 3934 
L 425 4581 
L 988 4581 
L 988 3934 
L 425 3934 
z
M 425 0 
L 425 3319 
L 988 3319 
L 988 0 
L 425 0 
z
" transform="scale(0.015625)"/>
       <path id="ArialMT-6c" d="M 409 0 
L 409 4581 
L 972 4581 
L 972 0 
L 409 0 
z
" transform="scale(0.015625)"/>
       <path id="ArialMT-74" d="M 1650 503 
L 1731 6 
Q 1494 -44 1306 -44 
Q 1000 -44 831 53 
Q 663 150 594 308 
Q 525 466 525 972 
L 525 2881 
L 113 2881 
L 113 3319 
L 525 3319 
L 525 4141 
L 1084 4478 
L 1084 3319 
L 1650 3319 
L 1650 2881 
L 1084 2881 
L 1084 941 
Q 1084 700 1114 631 
Q 1144 563 1211 522 
Q 1278 481 1403 481 
Q 1497 481 1650 503 
z
" transform="scale(0.015625)"/>
       <path id="ArialMT-79" d="M 397 -1278 
L 334 -750 
Q 519 -800 656 -800 
Q 844 -800 956 -737 
Q 1069 -675 1141 -563 
Q 1194 -478 1313 -144 
Q 1328 -97 1363 -6 
L 103 3319 
L 709 3319 
L 1400 1397 
Q 1534 1031 1641 628 
Q 1738 1016 1872 1384 
L 2581 3319 
L 3144 3319 
L 1881 -56 
Q 1678 -603 1566 -809 
Q 1416 -1088 1222 -1217 
Q 1028 -1347 759 -1347 
Q 597 -1347 397 -1278 
z
" transform="scale(0.015625)"/>
      </defs>
      <use xlink:href="#ArialMT-44"/>
      <use xlink:href="#ArialMT-61" x="72.216797"/>
      <use xlink:href="#ArialMT-6d" x="127.832031"/>
      <use xlink:href="#ArialMT-61" x="211.132812"/>
      <use xlink:href="#ArialMT-67" x="266.748047"/>
      <use xlink:href="#ArialMT-65" x="322.363281"/>
      <use xlink:href="#ArialMT-20" x="377.978516"/>
      <use xlink:href="#ArialMT-50" x="405.761719"/>
      <use xlink:href="#ArialMT-72" x="472.460938"/>
      <use xlink:href="#ArialMT-6f" x="505.761719"/>
      <use xlink:href="#ArialMT-62" x="561.376953"/>
      <use xlink:href="#ArialMT-61" x="616.992188"/>
      <use xlink:href="#ArialMT-62" x="672.607422"/>
      <use xlink:href="#ArialMT-69" x="728.222656"/>
      <use xlink:href="#ArialMT-6c" x="750.439453"/>
      <use xlink:href="#ArialMT-69" x="772.65625"/>
      <use xlink:href="#ArialMT-74" x="794.873047"/>
      <use xlink:href="#ArialMT-79" x="822.65625"/>
     </g>
    </g>
   </g>
   <g id="line2d_38">
    <path d="M 31.371383 109.670662 
L 32.662922 75.80202 
L 33.954461 54.999036 
L 35.246 44.120864 
L 36.537539 38.733523 
L 37.829078 36.476071 
L 39.120617 36.072451 
L 40.412156 36.795357 
L 41.703695 38.210022 
L 42.995234 40.046504 
L 44.286773 42.13226 
L 45.578312 44.354622 
L 46.869851 46.638943 
L 48.16139 48.935369 
L 49.452929 51.210559 
L 50.744468 53.44237 
L 52.036007 55.616352 
L 53.327546 57.723396 
L 54.619085 59.758127 
L 55.910624 61.717792 
L 57.202162 63.601474 
L 58.493701 65.409544 
L 59.78524 67.143259 
L 61.076779 68.804483 
L 62.368318 70.395477 
L 63.659857 71.918755 
L 64.951396 73.376971 
L 66.242935 74.772845 
L 67.534474 76.109104 
L 68.826013 77.388448 
L 70.117552 78.613513 
L 71.409091 79.786862 
L 72.70063 80.910965 
L 73.992169 81.988194 
L 75.283708 83.02082 
L 76.575247 84.011009 
L 77.866786 84.960824 
L 79.158325 85.872226 
L 80.449864 86.747078 
L 81.741403 87.587144 
L 83.032942 88.394099 
L 84.324481 89.169528 
L 85.61602 89.914933 
L 86.907559 90.631734 
L 88.199097 91.321278 
L 89.490636 91.984837 
L 90.782175 92.623616 
L 92.073714 93.238757 
L 93.365253 93.831339 
L 94.656792 94.402386 
L 95.948331 94.952866 
L 97.23987 95.483697 
L 98.531409 95.99575 
L 99.822948 96.489848 
L 101.114487 96.966774 
L 102.406026 97.427269 
L 103.697565 97.872037 
L 104.989104 98.301747 
L 106.280643 98.717033 
L 107.572182 99.118498 
L 108.863721 99.506714 
L 110.15526 99.882226 
L 111.446799 100.245552 
L 112.738338 100.597186 
L 114.029877 100.937594 
L 115.321416 101.267225 
L 116.612955 101.586504 
L 117.904493 101.895835 
L 119.196032 102.195605 
L 120.487571 102.486183 
L 121.77911 102.767919 
L 123.070649 103.041149 
L 124.362188 103.306193 
L 125.653727 103.563356 
L 126.945266 103.812931 
L 128.236805 104.055196 
L 129.528344 104.290418 
L 130.819883 104.518853 
L 132.111422 104.740743 
L 133.402961 104.956323 
L 134.6945 105.165815 
L 135.986039 105.369435 
L 137.277578 105.567386 
L 138.569117 105.759865 
L 139.860656 105.94706 
L 141.152195 106.129152 
L 142.443734 106.306313 
L 143.735273 106.47871 
L 145.026812 106.646502 
L 146.318351 106.809842 
L 147.60989 106.968877 
L 148.901428 107.123747 
L 150.192967 107.274588 
L 151.484506 107.42153 
L 152.776045 107.564699 
L 154.067584 107.704214 
L 155.359123 107.840191 
L 156.650662 107.972742 
L 157.942201 108.101974 
L 159.23374 108.22799 
" clip-path="url(#p37d0a93319)" style="fill: none; stroke: #000000; stroke-linecap: square"/>
    <defs>
     <path id="m12efd5fb1b" d="M 0 0.5 
C 0.132602 0.5 0.25979 0.447317 0.353553 0.353553 
C 0.447317 0.25979 0.5 0.132602 0.5 0 
C 0.5 -0.132602 0.447317 -0.25979 0.353553 -0.353553 
C 0.25979 -0.447317 0.132602 -0.5 0 -0.5 
C -0.132602 -0.5 -0.25979 -0.447317 -0.353553 -0.353553 
C -0.447317 -0.25979 -0.5 -0.132602 -0.5 0 
C -0.5 0.132602 -0.447317 0.25979 -0.353553 0.353553 
C -0.25979 0.447317 -0.132602 0.5 0 0.5 
z
" style="stroke: #000000; stroke-width: 0.8"/>
    </defs>
    <g clip-path="url(#p37d0a93319)">
     <use xlink:href="#m12efd5fb1b" x="31.371383" y="109.670662" style="fill-opacity: 0; stroke: #000000; stroke-width: 0.8"/>
     <use xlink:href="#m12efd5fb1b" x="44.286773" y="42.13226" style="fill-opacity: 0; stroke: #000000; stroke-width: 0.8"/>
     <use xlink:href="#m12efd5fb1b" x="57.202162" y="63.601474" style="fill-opacity: 0; stroke: #000000; stroke-width: 0.8"/>
     <use xlink:href="#m12efd5fb1b" x="70.117552" y="78.613513" style="fill-opacity: 0; stroke: #000000; stroke-width: 0.8"/>
     <use xlink:href="#m12efd5fb1b" x="83.032942" y="88.394099" style="fill-opacity: 0; stroke: #000000; stroke-width: 0.8"/>
     <use xlink:href="#m12efd5fb1b" x="95.948331" y="94.952866" style="fill-opacity: 0; stroke: #000000; stroke-width: 0.8"/>
     <use xlink:href="#m12efd5fb1b" x="108.863721" y="99.506714" style="fill-opacity: 0; stroke: #000000; stroke-width: 0.8"/>
     <use xlink:href="#m12efd5fb1b" x="121.77911" y="102.767919" style="fill-opacity: 0; stroke: #000000; stroke-width: 0.8"/>
     <use xlink:href="#m12efd5fb1b" x="134.6945" y="105.165815" style="fill-opacity: 0; stroke: #000000; stroke-width: 0.8"/>
     <use xlink:href="#m12efd5fb1b" x="147.60989" y="106.968877" style="fill-opacity: 0; stroke: #000000; stroke-width: 0.8"/>
    </g>
   </g>
   <g id="line2d_39">
    <path d="M 31.371383 114.624035 
L 32.662922 106.888618 
L 33.954461 90.371062 
L 35.246 73.90661 
L 36.537539 60.354106 
L 37.829078 49.905284 
L 39.120617 42.073931 
L 40.412156 36.305796 
L 41.703695 32.131415 
L 42.995234 29.185022 
L 44.286773 27.189177 
L 45.578312 25.93451 
L 46.869851 25.262315 
L 48.16139 25.051219 
L 49.452929 25.207398 
L 50.744468 25.6575 
L 52.036007 26.343533 
L 53.327546 27.21917 
L 54.619085 28.247039 
L 55.910624 29.396728 
L 57.202162 30.6433 
L 58.493701 31.966167 
L 59.78524 33.348231 
L 61.076779 34.775232 
L 62.368318 36.235223 
L 63.659857 37.718166 
L 64.951396 39.215612 
L 66.242935 40.720434 
L 67.534474 42.226621 
L 68.826013 43.729102 
L 70.117552 45.223604 
L 71.409091 46.706534 
L 72.70063 48.174882 
L 73.992169 49.626133 
L 75.283708 51.058203 
L 76.575247 52.469373 
L 77.866786 53.858244 
L 79.158325 55.22369 
L 80.449864 56.564821 
L 81.741403 57.880953 
L 83.032942 59.171578 
L 84.324481 60.436341 
L 85.61602 61.675017 
L 86.907559 62.887496 
L 88.199097 64.073767 
L 89.490636 65.233901 
L 90.782175 66.368042 
L 92.073714 67.476394 
L 93.365253 68.559216 
L 94.656792 69.616809 
L 95.948331 70.649512 
L 97.23987 71.657694 
L 98.531409 72.641751 
L 99.822948 73.602099 
L 101.114487 74.53917 
L 102.406026 75.45341 
L 103.697565 76.345275 
L 104.989104 77.215227 
L 106.280643 78.063734 
L 107.572182 78.891266 
L 108.863721 79.698294 
L 110.15526 80.485288 
L 111.446799 81.252714 
L 112.738338 82.001038 
L 114.029877 82.730721 
L 115.321416 83.442215 
L 116.612955 84.135971 
L 117.904493 84.812431 
L 119.196032 85.472031 
L 120.487571 86.115196 
L 121.77911 86.742349 
L 123.070649 87.3539 
L 124.362188 87.950254 
L 125.653727 88.531805 
L 126.945266 89.098939 
L 128.236805 89.652035 
L 129.528344 90.191462 
L 130.819883 90.717581 
L 132.111422 91.230742 
L 133.402961 91.73129 
L 134.6945 92.219559 
L 135.986039 92.695876 
L 137.277578 93.160558 
L 138.569117 93.613915 
L 139.860656 94.05625 
L 141.152195 94.487855 
L 142.443734 94.909017 
L 143.735273 95.320014 
L 145.026812 95.721116 
L 146.318351 96.112588 
L 147.60989 96.494685 
L 148.901428 96.867658 
L 150.192967 97.231747 
L 151.484506 97.587188 
L 152.776045 97.934212 
L 154.067584 98.273041 
L 155.359123 98.60389 
L 156.650662 98.926972 
L 157.942201 99.24249 
L 159.23374 99.550643 
" clip-path="url(#p37d0a93319)" style="fill: none; stroke-dasharray: 5.12,1.28,0.8,1.28; stroke-dashoffset: 0; stroke: #3c5488; stroke-width: 0.8"/>
    <defs>
     <path id="mde694b322d" d="M 0 0.5 
C 0.132602 0.5 0.25979 0.447317 0.353553 0.353553 
C 0.447317 0.25979 0.5 0.132602 0.5 0 
C 0.5 -0.132602 0.447317 -0.25979 0.353553 -0.353553 
C 0.25979 -0.447317 0.132602 -0.5 0 -0.5 
C -0.132602 -0.5 -0.25979 -0.447317 -0.353553 -0.353553 
C -0.447317 -0.25979 -0.5 -0.132602 -0.5 0 
C -0.5 0.132602 -0.447317 0.25979 -0.353553 0.353553 
C -0.25979 0.447317 -0.132602 0.5 0 0.5 
z
" style="stroke: #3c5488; stroke-width: 0.8"/>
    </defs>
    <g clip-path="url(#p37d0a93319)">
     <use xlink:href="#mde694b322d" x="31.371383" y="114.624035" style="fill-opacity: 0; stroke: #3c5488; stroke-width: 0.8"/>
     <use xlink:href="#mde694b322d" x="44.286773" y="27.189177" style="fill-opacity: 0; stroke: #3c5488; stroke-width: 0.8"/>
     <use xlink:href="#mde694b322d" x="57.202162" y="30.6433" style="fill-opacity: 0; stroke: #3c5488; stroke-width: 0.8"/>
     <use xlink:href="#mde694b322d" x="70.117552" y="45.223604" style="fill-opacity: 0; stroke: #3c5488; stroke-width: 0.8"/>
     <use xlink:href="#mde694b322d" x="83.032942" y="59.171578" style="fill-opacity: 0; stroke: #3c5488; stroke-width: 0.8"/>
     <use xlink:href="#mde694b322d" x="95.948331" y="70.649512" style="fill-opacity: 0; stroke: #3c5488; stroke-width: 0.8"/>
     <use xlink:href="#mde694b322d" x="108.863721" y="79.698294" style="fill-opacity: 0; stroke: #3c5488; stroke-width: 0.8"/>
     <use xlink:href="#mde694b322d" x="121.77911" y="86.742349" style="fill-opacity: 0; stroke: #3c5488; stroke-width: 0.8"/>
     <use xlink:href="#mde694b322d" x="134.6945" y="92.219559" style="fill-opacity: 0; stroke: #3c5488; stroke-width: 0.8"/>
     <use xlink:href="#mde694b322d" x="147.60989" y="96.494685" style="fill-opacity: 0; stroke: #3c5488; stroke-width: 0.8"/>
    </g>
   </g>
   <g id="line2d_40">
    <path d="M 31.371383 112.343637 
L 32.662922 83.219886 
L 33.954461 60.054752 
L 35.246 46.457592 
L 36.537539 38.972245 
L 37.829078 35.224407 
L 39.120617 33.799998 
L 40.412156 33.84798 
L 41.703695 34.840037 
L 42.995234 36.437988 
L 44.286773 38.419655 
L 45.578312 40.636038 
L 46.869851 42.985657 
L 48.16139 45.398674 
L 49.452929 47.82676 
L 50.744468 50.236471 
L 52.036007 52.604803 
L 53.327546 54.916165 
L 54.619085 57.160268 
L 55.910624 59.330645 
L 57.202162 61.423589 
L 58.493701 63.437389 
L 59.78524 65.371776 
L 61.076779 67.227512 
L 62.368318 69.006089 
L 63.659857 70.70951 
L 64.951396 72.340121 
L 66.242935 73.900485 
L 67.534474 75.393295 
L 68.826013 76.821304 
L 70.117552 78.187276 
L 71.409091 79.493948 
L 72.70063 80.744004 
L 73.992169 81.940057 
L 75.283708 83.084636 
L 76.575247 84.180177 
L 77.866786 85.22902 
L 79.158325 86.233402 
L 80.449864 87.195462 
L 81.741403 88.117239 
L 83.032942 89.000672 
L 84.324481 89.847609 
L 85.61602 90.659801 
L 86.907559 91.438912 
L 88.199097 92.186522 
L 89.490636 92.904128 
L 90.782175 93.593151 
L 92.073714 94.254935 
L 93.365253 94.890758 
L 94.656792 95.501829 
L 95.948331 96.089293 
L 97.23987 96.654237 
L 98.531409 97.197692 
L 99.822948 97.720634 
L 101.114487 98.223988 
L 102.406026 98.708635 
L 103.697565 99.175406 
L 104.989104 99.625092 
L 106.280643 100.058444 
L 107.572182 100.476175 
L 108.863721 100.878962 
L 110.15526 101.267446 
L 111.446799 101.64224 
L 112.738338 102.003923 
L 114.029877 102.353048 
L 115.321416 102.690141 
L 116.612955 103.015699 
L 117.904493 103.3302 
L 119.196032 103.634095 
L 120.487571 103.927815 
L 121.77911 104.211772 
L 123.070649 104.486356 
L 124.362188 104.751941 
L 125.653727 105.008883 
L 126.945266 105.257519 
L 128.236805 105.498175 
L 129.528344 105.731159 
L 130.819883 105.956766 
L 132.111422 106.175278 
L 133.402961 106.386964 
L 134.6945 106.59208 
L 135.986039 106.790874 
L 137.277578 106.983579 
L 138.569117 107.170421 
L 139.860656 107.351615 
L 141.152195 107.527366 
L 142.443734 107.697873 
L 143.735273 107.863322 
L 145.026812 108.023895 
L 146.318351 108.179766 
L 147.60989 108.3311 
L 148.901428 108.478057 
L 150.192967 108.620788 
L 151.484506 108.75944 
L 152.776045 108.894154 
L 154.067584 109.025065 
L 155.359123 109.1523 
L 156.650662 109.275986 
L 157.942201 109.396241 
L 159.23374 109.513179 
" clip-path="url(#p37d0a93319)" style="fill: none; stroke-dasharray: 2.96,1.28; stroke-dashoffset: 0; stroke: #dc0000; stroke-width: 0.8"/>
    <defs>
     <path id="m785d6d154e" d="M 0 0.5 
C 0.132602 0.5 0.25979 0.447317 0.353553 0.353553 
C 0.447317 0.25979 0.5 0.132602 0.5 0 
C 0.5 -0.132602 0.447317 -0.25979 0.353553 -0.353553 
C 0.25979 -0.447317 0.132602 -0.5 0 -0.5 
C -0.132602 -0.5 -0.25979 -0.447317 -0.353553 -0.353553 
C -0.447317 -0.25979 -0.5 -0.132602 -0.5 0 
C -0.5 0.132602 -0.447317 0.25979 -0.353553 0.353553 
C -0.25979 0.447317 -0.132602 0.5 0 0.5 
z
" style="stroke: #dc0000; stroke-width: 0.8"/>
    </defs>
    <g clip-path="url(#p37d0a93319)">
     <use xlink:href="#m785d6d154e" x="31.371383" y="112.343637" style="fill-opacity: 0; stroke: #dc0000; stroke-width: 0.8"/>
     <use xlink:href="#m785d6d154e" x="44.286773" y="38.419655" style="fill-opacity: 0; stroke: #dc0000; stroke-width: 0.8"/>
     <use xlink:href="#m785d6d154e" x="57.202162" y="61.423589" style="fill-opacity: 0; stroke: #dc0000; stroke-width: 0.8"/>
     <use xlink:href="#m785d6d154e" x="70.117552" y="78.187276" style="fill-opacity: 0; stroke: #dc0000; stroke-width: 0.8"/>
     <use xlink:href="#m785d6d154e" x="83.032942" y="89.000672" style="fill-opacity: 0; stroke: #dc0000; stroke-width: 0.8"/>
     <use xlink:href="#m785d6d154e" x="95.948331" y="96.089293" style="fill-opacity: 0; stroke: #dc0000; stroke-width: 0.8"/>
     <use xlink:href="#m785d6d154e" x="108.863721" y="100.878962" style="fill-opacity: 0; stroke: #dc0000; stroke-width: 0.8"/>
     <use xlink:href="#m785d6d154e" x="121.77911" y="104.211772" style="fill-opacity: 0; stroke: #dc0000; stroke-width: 0.8"/>
     <use xlink:href="#m785d6d154e" x="134.6945" y="106.59208" style="fill-opacity: 0; stroke: #dc0000; stroke-width: 0.8"/>
     <use xlink:href="#m785d6d154e" x="147.60989" y="108.3311" style="fill-opacity: 0; stroke: #dc0000; stroke-width: 0.8"/>
    </g>
   </g>
   <g id="line2d_41">
    <path d="M 31.371383 114.689269 
L 32.662922 114.294962 
L 33.954461 112.935796 
L 35.246 110.75183 
L 36.537539 108.017949 
L 37.829078 104.956554 
L 39.120617 101.72503 
L 40.412156 98.430324 
L 41.703695 95.14375 
L 42.995234 91.912111 
L 44.286773 88.76544 
L 45.578312 85.722302 
L 46.869851 82.793408 
L 48.16139 79.984091 
L 49.452929 77.296015 
L 50.744468 74.728358 
L 52.036007 72.278635 
L 53.327546 69.943284 
L 54.619085 67.718066 
L 55.910624 65.598355 
L 57.202162 63.579337 
L 58.493701 61.656149 
L 59.78524 59.823976 
L 61.076779 58.078117 
L 62.368318 56.414026 
L 63.659857 54.827339 
L 64.951396 53.31389 
L 66.242935 51.869721 
L 67.534474 50.491078 
L 68.826013 49.174412 
L 70.117552 47.916376 
L 71.409091 46.713811 
L 72.70063 45.563745 
L 73.992169 44.46338 
L 75.283708 43.410085 
L 76.575247 42.401383 
L 77.866786 41.434949 
L 79.158325 40.508594 
L 80.449864 39.620261 
L 81.741403 38.768012 
L 83.032942 37.950029 
L 84.324481 37.164598 
L 85.61602 36.410104 
L 86.907559 35.685031 
L 88.199097 34.987945 
L 89.490636 34.317499 
L 90.782175 33.672421 
L 92.073714 33.05151 
L 93.365253 32.453636 
L 94.656792 31.877728 
L 95.948331 31.322778 
L 97.23987 30.787829 
L 98.531409 30.271981 
L 99.822948 29.774378 
L 101.114487 29.294213 
L 102.406026 28.830721 
L 103.697565 28.383176 
L 104.989104 27.950892 
L 106.280643 27.533217 
L 107.572182 27.129532 
L 108.863721 26.739251 
L 110.15526 26.361816 
L 111.446799 25.996699 
L 112.738338 25.643395 
L 114.029877 25.301427 
L 115.321416 24.970339 
L 116.612955 24.649699 
L 117.904493 24.339094 
L 119.196032 24.03813 
L 120.487571 23.746434 
L 121.77911 23.463649 
L 123.070649 23.189435 
L 124.362188 22.923467 
L 125.653727 22.665434 
L 126.945266 22.415043 
L 128.236805 22.172008 
L 129.528344 21.936062 
L 130.819883 21.706946 
L 132.111422 21.484412 
L 133.402961 21.268226 
L 134.6945 21.05816 
L 135.986039 20.854 
L 137.277578 20.655538 
L 138.569117 20.462575 
L 139.860656 20.274923 
L 141.152195 20.092398 
L 142.443734 19.914827 
L 143.735273 19.742041 
L 145.026812 19.573881 
L 146.318351 19.410192 
L 147.60989 19.250826 
L 148.901428 19.095642 
L 150.192967 18.944502 
L 151.484506 18.797276 
L 152.776045 18.653838 
L 154.067584 18.514066 
L 155.359123 18.377845 
L 156.650662 18.245061 
L 157.942201 18.115608 
L 159.23374 17.989382 
" clip-path="url(#p37d0a93319)" style="fill: none; stroke: #000000; stroke-linecap: square"/>
    <defs>
     <path id="m90ec541f27" d="M -0.5 0.5 
L 0.5 -0.5 
M -0.5 -0.5 
L 0.5 0.5 
" style="stroke: #000000; stroke-width: 0.8"/>
    </defs>
    <g clip-path="url(#p37d0a93319)">
     <use xlink:href="#m90ec541f27" x="31.371383" y="114.689269" style="fill-opacity: 0; stroke: #000000; stroke-width: 0.8"/>
     <use xlink:href="#m90ec541f27" x="44.286773" y="88.76544" style="fill-opacity: 0; stroke: #000000; stroke-width: 0.8"/>
     <use xlink:href="#m90ec541f27" x="57.202162" y="63.579337" style="fill-opacity: 0; stroke: #000000; stroke-width: 0.8"/>
     <use xlink:href="#m90ec541f27" x="70.117552" y="47.916376" style="fill-opacity: 0; stroke: #000000; stroke-width: 0.8"/>
     <use xlink:href="#m90ec541f27" x="83.032942" y="37.950029" style="fill-opacity: 0; stroke: #000000; stroke-width: 0.8"/>
     <use xlink:href="#m90ec541f27" x="95.948331" y="31.322778" style="fill-opacity: 0; stroke: #000000; stroke-width: 0.8"/>
     <use xlink:href="#m90ec541f27" x="108.863721" y="26.739251" style="fill-opacity: 0; stroke: #000000; stroke-width: 0.8"/>
     <use xlink:href="#m90ec541f27" x="121.77911" y="23.463649" style="fill-opacity: 0; stroke: #000000; stroke-width: 0.8"/>
     <use xlink:href="#m90ec541f27" x="134.6945" y="21.05816" style="fill-opacity: 0; stroke: #000000; stroke-width: 0.8"/>
     <use xlink:href="#m90ec541f27" x="147.60989" y="19.250826" style="fill-opacity: 0; stroke: #000000; stroke-width: 0.8"/>
    </g>
   </g>
   <g id="line2d_42">
    <path d="M 31.371383 114.692283 
L 32.662922 114.691849 
L 33.954461 114.682751 
L 35.246 114.639362 
L 36.537539 114.527422 
L 37.829078 114.315981 
L 39.120617 113.982812 
L 40.412156 113.51516 
L 41.703695 112.908432 
L 42.995234 112.164316 
L 44.286773 111.288958 
L 45.578312 110.291442 
L 46.869851 109.182603 
L 48.16139 107.974153 
L 49.452929 106.678047 
L 50.744468 105.306053 
L 52.036007 103.869459 
L 53.327546 102.378897 
L 54.619085 100.844238 
L 55.910624 99.274545 
L 57.202162 97.678065 
L 58.493701 96.062243 
L 59.78524 94.433759 
L 61.076779 92.798567 
L 62.368318 91.161948 
L 63.659857 89.528562 
L 64.951396 87.902495 
L 66.242935 86.287316 
L 67.534474 84.686123 
L 68.826013 83.101587 
L 70.117552 81.535998 
L 71.409091 79.9913 
L 72.70063 78.469134 
L 73.992169 76.970864 
L 75.283708 75.497611 
L 76.575247 74.050279 
L 77.866786 72.629581 
L 79.158325 71.236061 
L 80.449864 69.87011 
L 81.741403 68.53199 
L 83.032942 67.221847 
L 84.324481 65.939725 
L 85.61602 64.685581 
L 86.907559 63.459293 
L 88.199097 62.260674 
L 89.490636 61.089479 
L 90.782175 59.945415 
L 92.073714 58.828145 
L 93.365253 57.737297 
L 94.656792 56.67247 
L 95.948331 55.633238 
L 97.23987 54.619155 
L 98.531409 53.629757 
L 99.822948 52.664568 
L 101.114487 51.723105 
L 102.406026 50.804874 
L 103.697565 49.90938 
L 104.989104 49.036122 
L 106.280643 48.1846 
L 107.572182 47.354318 
L 108.863721 46.544777 
L 110.15526 45.755485 
L 111.446799 44.985953 
L 112.738338 44.2357 
L 114.029877 43.504248 
L 115.321416 42.791129 
L 116.612955 42.095879 
L 117.904493 41.418045 
L 119.196032 40.757181 
L 120.487571 40.11285 
L 121.77911 39.484622 
L 123.070649 38.872078 
L 124.362188 38.274808 
L 125.653727 37.69241 
L 126.945266 37.124491 
L 128.236805 36.570669 
L 129.528344 36.03057 
L 130.819883 35.503828 
L 132.111422 34.990088 
L 133.402961 34.489002 
L 134.6945 34.000234 
L 135.986039 33.523453 
L 137.277578 33.058339 
L 138.569117 32.604579 
L 139.860656 32.16187 
L 141.152195 31.729916 
L 142.443734 31.308428 
L 143.735273 30.897127 
L 145.026812 30.495741 
L 146.318351 30.104004 
L 147.60989 29.721659 
L 148.901428 29.348455 
L 150.192967 28.984149 
L 151.484506 28.628504 
L 152.776045 28.28129 
L 154.067584 27.942283 
L 155.359123 27.611266 
L 156.650662 27.288028 
L 157.942201 26.972363 
L 159.23374 26.664071 
" clip-path="url(#p37d0a93319)" style="fill: none; stroke-dasharray: 5.12,1.28,0.8,1.28; stroke-dashoffset: 0; stroke: #3c5488; stroke-width: 0.8"/>
    <defs>
     <path id="mc562c0b9c5" d="M -0.5 0.5 
L 0.5 -0.5 
M -0.5 -0.5 
L 0.5 0.5 
" style="stroke: #3c5488; stroke-width: 0.8"/>
    </defs>
    <g clip-path="url(#p37d0a93319)">
     <use xlink:href="#mc562c0b9c5" x="31.371383" y="114.692283" style="fill-opacity: 0; stroke: #3c5488; stroke-width: 0.8"/>
     <use xlink:href="#mc562c0b9c5" x="44.286773" y="111.288958" style="fill-opacity: 0; stroke: #3c5488; stroke-width: 0.8"/>
     <use xlink:href="#mc562c0b9c5" x="57.202162" y="97.678065" style="fill-opacity: 0; stroke: #3c5488; stroke-width: 0.8"/>
     <use xlink:href="#mc562c0b9c5" x="70.117552" y="81.535998" style="fill-opacity: 0; stroke: #3c5488; stroke-width: 0.8"/>
     <use xlink:href="#mc562c0b9c5" x="83.032942" y="67.221847" style="fill-opacity: 0; stroke: #3c5488; stroke-width: 0.8"/>
     <use xlink:href="#mc562c0b9c5" x="95.948331" y="55.633238" style="fill-opacity: 0; stroke: #3c5488; stroke-width: 0.8"/>
     <use xlink:href="#mc562c0b9c5" x="108.863721" y="46.544777" style="fill-opacity: 0; stroke: #3c5488; stroke-width: 0.8"/>
     <use xlink:href="#mc562c0b9c5" x="121.77911" y="39.484622" style="fill-opacity: 0; stroke: #3c5488; stroke-width: 0.8"/>
     <use xlink:href="#mc562c0b9c5" x="134.6945" y="34.000234" style="fill-opacity: 0; stroke: #3c5488; stroke-width: 0.8"/>
     <use xlink:href="#mc562c0b9c5" x="147.60989" y="29.721659" style="fill-opacity: 0; stroke: #3c5488; stroke-width: 0.8"/>
    </g>
   </g>
   <g id="line2d_43">
    <path d="M 31.371383 114.6919 
L 32.662922 114.547011 
L 33.954461 113.812554 
L 35.246 112.357955 
L 36.537539 110.289568 
L 37.829078 107.765414 
L 39.120617 104.930866 
L 40.412156 101.903281 
L 41.703695 98.772341 
L 42.995234 95.604602 
L 44.286773 92.448479 
L 45.578312 89.338551 
L 46.869851 86.298994 
L 48.16139 83.346228 
L 49.452929 80.490919 
L 50.744468 77.739476 
L 52.036007 75.095182 
L 53.327546 72.559036 
L 54.619085 70.130384 
L 55.910624 67.807391 
L 57.202162 65.587392 
L 58.493701 63.467164 
L 59.78524 61.443116 
L 61.076779 59.511442 
L 62.368318 57.668228 
L 63.659857 55.909535 
L 64.951396 54.231455 
L 66.242935 52.630154 
L 67.534474 51.101905 
L 68.826013 49.643105 
L 70.117552 48.250289 
L 71.409091 46.920137 
L 72.70063 45.649481 
L 73.992169 44.435301 
L 75.283708 43.274727 
L 76.575247 42.165034 
L 77.866786 41.103639 
L 79.158325 40.088097 
L 80.449864 39.11609 
L 81.741403 38.18543 
L 83.032942 37.294045 
L 84.324481 36.439977 
L 85.61602 35.621377 
L 86.907559 34.836496 
L 88.199097 34.083682 
L 89.490636 33.361375 
L 90.782175 32.668097 
L 92.073714 32.002455 
L 93.365253 31.363131 
L 94.656792 30.748876 
L 95.948331 30.158513 
L 97.23987 29.590925 
L 98.531409 29.045056 
L 99.822948 28.519907 
L 101.114487 28.014532 
L 102.406026 27.528034 
L 103.697565 27.059564 
L 104.989104 26.608316 
L 106.280643 26.173528 
L 107.572182 25.754474 
L 108.863721 25.350469 
L 110.15526 24.96086 
L 111.446799 24.585028 
L 112.738338 24.222384 
L 114.029877 23.87237 
L 115.321416 23.534455 
L 116.612955 23.208133 
L 117.904493 22.892925 
L 119.196032 22.588372 
L 120.487571 22.29404 
L 121.77911 22.009514 
L 123.070649 21.734401 
L 124.362188 21.468322 
L 125.653727 21.210921 
L 126.945266 20.961855 
L 128.236805 20.720799 
L 129.528344 20.48744 
L 130.819883 20.261483 
L 132.111422 20.042644 
L 133.402961 19.830651 
L 134.6945 19.625247 
L 135.986039 19.426184 
L 137.277578 19.233226 
L 138.569117 19.046147 
L 139.860656 18.86473 
L 141.152195 18.68877 
L 142.443734 18.518067 
L 143.735273 18.352432 
L 145.026812 18.191684 
L 146.318351 18.035649 
L 147.60989 17.88416 
L 148.901428 17.737058 
L 150.192967 17.594189 
L 151.484506 17.455407 
L 152.776045 17.32057 
L 154.067584 17.189544 
L 155.359123 17.062198 
L 156.650662 16.938409 
L 157.942201 16.818057 
L 159.23374 16.701026 
" clip-path="url(#p37d0a93319)" style="fill: none; stroke-dasharray: 2.96,1.28; stroke-dashoffset: 0; stroke: #dc0000; stroke-width: 0.8"/>
    <g clip-path="url(#p37d0a93319)">
     <use xlink:href="#m785d6d154e" x="31.371383" y="114.6919" style="fill-opacity: 0; stroke: #dc0000; stroke-width: 0.8"/>
     <use xlink:href="#m785d6d154e" x="44.286773" y="92.448479" style="fill-opacity: 0; stroke: #dc0000; stroke-width: 0.8"/>
     <use xlink:href="#m785d6d154e" x="57.202162" y="65.587392" style="fill-opacity: 0; stroke: #dc0000; stroke-width: 0.8"/>
     <use xlink:href="#m785d6d154e" x="70.117552" y="48.250289" style="fill-opacity: 0; stroke: #dc0000; stroke-width: 0.8"/>
     <use xlink:href="#m785d6d154e" x="83.032942" y="37.294045" style="fill-opacity: 0; stroke: #dc0000; stroke-width: 0.8"/>
     <use xlink:href="#m785d6d154e" x="95.948331" y="30.158513" style="fill-opacity: 0; stroke: #dc0000; stroke-width: 0.8"/>
     <use xlink:href="#m785d6d154e" x="108.863721" y="25.350469" style="fill-opacity: 0; stroke: #dc0000; stroke-width: 0.8"/>
     <use xlink:href="#m785d6d154e" x="121.77911" y="22.009514" style="fill-opacity: 0; stroke: #dc0000; stroke-width: 0.8"/>
     <use xlink:href="#m785d6d154e" x="134.6945" y="19.625247" style="fill-opacity: 0; stroke: #dc0000; stroke-width: 0.8"/>
     <use xlink:href="#m785d6d154e" x="147.60989" y="17.88416" style="fill-opacity: 0; stroke: #dc0000; stroke-width: 0.8"/>
    </g>
   </g>
   <g id="patch_3">
    <path d="M 30.94375 114.692283 
L 30.94375 11.52 
" style="fill: none; stroke: #000000; stroke-width: 0.5; stroke-linejoin: miter; stroke-linecap: square"/>
   </g>
   <g id="patch_4">
    <path d="M 159.23374 114.692283 
L 159.23374 11.52 
" style="fill: none; stroke: #000000; stroke-width: 0.5; stroke-linejoin: miter; stroke-linecap: square"/>
   </g>
   <g id="patch_5">
    <path d="M 30.94375 114.692283 
L 159.23374 114.692283 
" style="fill: none; stroke: #000000; stroke-width: 0.5; stroke-linejoin: miter; stroke-linecap: square"/>
   </g>
   <g id="patch_6">
    <path d="M 30.94375 11.52 
L 159.23374 11.52 
" style="fill: none; stroke: #000000; stroke-width: 0.5; stroke-linejoin: miter; stroke-linecap: square"/>
   </g>
  </g>
 </g>
 <defs>
  <clipPath id="p37d0a93319">
   <rect x="30.94375" y="11.52" width="128.28999" height="103.172283"/>
  </clipPath>
 </defs>
</svg>
