<?xml version="1.0" encoding="utf-8" standalone="no"?>
<!DOCTYPE svg PUBLIC "-//W3C//DTD SVG 1.1//EN"
  "http://www.w3.org/Graphics/SVG/1.1/DTD/svg11.dtd">
<svg xmlns:xlink="http://www.w3.org/1999/xlink" width="170.07874pt" height="141.732283pt" viewBox="0 0 170.07874 141.732283" xmlns="http://www.w3.org/2000/svg" version="1.1">
 <metadata>
  <rdf:RDF xmlns:dc="http://purl.org/dc/elements/1.1/" xmlns:cc="http://creativecommons.org/ns#" xmlns:rdf="http://www.w3.org/1999/02/22-rdf-syntax-ns#">
   <cc:Work>
    <dc:type rdf:resource="http://purl.org/dc/dcmitype/StillImage"/>
    <dc:date>2025-01-06T17:26:18.581232</dc:date>
    <dc:format>image/svg+xml</dc:format>
    <dc:creator>
     <cc:Agent>
      <dc:title>Matplotlib v3.5.2, https://matplotlib.org/</dc:title>
     </cc:Agent>
    </dc:creator>
   </cc:Work>
  </rdf:RDF>
 </metadata>
 <defs>
  <style type="text/css">*{stroke-linejoin: round; stroke-linecap: butt}</style>
 </defs>
 <g id="figure_1">
  <g id="patch_1">
   <path d="M 0 141.732283 
L 170.07874 141.732283 
L 170.07874 0 
L 0 0 
z
" style="fill: #ffffff"/>
  </g>
  <g id="axes_1">
   <g id="patch_2">
    <path d="M 30.94375 114.692283 
L 159.23374 114.692283 
L 159.23374 11.52 
L 30.94375 11.52 
z
" style="fill: #ffffff"/>
   </g>
   <g id="PolyCollection_1">
    <defs>
     <path id="mf7a185ea77" d="M 31.371383 -27.154625 
L 31.371383 -27.044269 
L 32.662922 -27.949992 
L 33.954461 -31.211449 
L 35.246 -36.15548 
L 36.537539 -41.800883 
L 37.829078 -47.487249 
L 39.120617 -52.8439 
L 40.412156 -57.688522 
L 41.703695 -61.950517 
L 42.995234 -65.622403 
L 44.286773 -68.730597 
L 45.578312 -71.318245 
L 46.869851 -73.435299 
L 48.16139 -75.1329 
L 49.452929 -76.460318 
L 50.744468 -77.463404 
L 52.036007 -78.183909 
L 53.327546 -78.659326 
L 54.619085 -78.923006 
L 55.910624 -79.004414 
L 57.202162 -78.929471 
L 58.493701 -78.720899 
L 59.78524 -78.398571 
L 61.076779 -77.979837 
L 62.368318 -77.479823 
L 63.659857 -76.911707 
L 64.951396 -76.286954 
L 66.242935 -75.615536 
L 67.534474 -74.906119 
L 68.826013 -74.166227 
L 70.117552 -73.40239 
L 71.409091 -72.620266 
L 72.70063 -71.824757 
L 73.992169 -71.020101 
L 75.283708 -70.209957 
L 76.575247 -69.39748 
L 77.866786 -68.585383 
L 79.158325 -67.775992 
L 80.449864 -66.971298 
L 81.741403 -66.172994 
L 83.032942 -65.382519 
L 84.324481 -64.601084 
L 85.61602 -63.829703 
L 86.907559 -63.06922 
L 88.199097 -62.320327 
L 89.490636 -61.583585 
L 90.782175 -60.85944 
L 92.073714 -60.14824 
L 93.365253 -59.450243 
L 94.656792 -58.765633 
L 95.948331 -58.094529 
L 97.23987 -57.436992 
L 98.531409 -56.793032 
L 99.822948 -56.16262 
L 101.114487 -55.545687 
L 102.406026 -54.942135 
L 103.697565 -54.351838 
L 104.989104 -53.774647 
L 106.280643 -53.210395 
L 107.572182 -52.658897 
L 108.863721 -52.119957 
L 110.15526 -51.593367 
L 111.446799 -51.078909 
L 112.738338 -50.57636 
L 114.029877 -50.08549 
L 115.321416 -49.606067 
L 116.612955 -49.137855 
L 117.904493 -48.680617 
L 119.196032 -48.234115 
L 120.487571 -47.798111 
L 121.77911 -47.372368 
L 123.070649 -46.956652 
L 124.362188 -46.550728 
L 125.653727 -46.154366 
L 126.945266 -45.767339 
L 128.236805 -45.389422 
L 129.528344 -45.020392 
L 130.819883 -44.660034 
L 132.111422 -44.308132 
L 133.402961 -43.964478 
L 134.6945 -43.628865 
L 135.986039 -43.301092 
L 137.277578 -42.980961 
L 138.569117 -42.668281 
L 139.860656 -42.362862 
L 141.152195 -42.06452 
L 142.443734 -41.773075 
L 143.735273 -41.488351 
L 145.026812 -41.210178 
L 146.318351 -40.938386 
L 147.60989 -40.672815 
L 148.901428 -40.413303 
L 150.192967 -40.159698 
L 151.484506 -39.911847 
L 152.776045 -39.669603 
L 154.067584 -39.432824 
L 155.359123 -39.20137 
L 156.650662 -38.975106 
L 157.942201 -38.753898 
L 159.23374 -38.537618 
L 159.23374 -29.541863 
L 159.23374 -29.541863 
L 157.942201 -29.613983 
L 156.650662 -29.688611 
L 155.359123 -29.76585 
L 154.067584 -29.845808 
L 152.776045 -29.928597 
L 151.484506 -30.014337 
L 150.192967 -30.103151 
L 148.901428 -30.19517 
L 147.60989 -30.290529 
L 146.318351 -30.389372 
L 145.026812 -30.49185 
L 143.735273 -30.59812 
L 142.443734 -30.708348 
L 141.152195 -30.822709 
L 139.860656 -30.941384 
L 138.569117 -31.064567 
L 137.277578 -31.192459 
L 135.986039 -31.325274 
L 134.6945 -31.463236 
L 133.402961 -31.606579 
L 132.111422 -31.755553 
L 130.819883 -31.910417 
L 129.528344 -32.071449 
L 128.236805 -32.238937 
L 126.945266 -32.413187 
L 125.653727 -32.594523 
L 124.362188 -32.783284 
L 123.070649 -32.979829 
L 121.77911 -33.184538 
L 120.487571 -33.397811 
L 119.196032 -33.62007 
L 117.904493 -33.851763 
L 116.612955 -34.093362 
L 115.321416 -34.345366 
L 114.029877 -34.608303 
L 112.738338 -34.882733 
L 111.446799 -35.169246 
L 110.15526 -35.46847 
L 108.863721 -35.781067 
L 107.572182 -36.10774 
L 106.280643 -36.449233 
L 104.989104 -36.806335 
L 103.697565 -37.179883 
L 102.406026 -37.570764 
L 101.114487 -37.979917 
L 99.822948 -38.408341 
L 98.531409 -38.857094 
L 97.23987 -39.327299 
L 95.948331 -39.820147 
L 94.656792 -40.336903 
L 93.365253 -40.878907 
L 92.073714 -41.447583 
L 90.782175 -42.044439 
L 89.490636 -42.671076 
L 88.199097 -43.32919 
L 86.907559 -44.020578 
L 85.61602 -44.747142 
L 84.324481 -45.510893 
L 83.032942 -46.313959 
L 81.741403 -47.158582 
L 80.449864 -48.047126 
L 79.158325 -48.982075 
L 77.866786 -49.966035 
L 76.575247 -51.00173 
L 75.283708 -52.091998 
L 73.992169 -53.239777 
L 72.70063 -54.448098 
L 71.409091 -55.720054 
L 70.117552 -57.058778 
L 68.826013 -58.467395 
L 67.534474 -59.948967 
L 66.242935 -61.506416 
L 64.951396 -63.142423 
L 63.659857 -64.859289 
L 62.368318 -66.658762 
L 61.076779 -68.541797 
L 59.78524 -70.508251 
L 58.493701 -72.556473 
L 57.202162 -74.682776 
L 55.910624 -76.880729 
L 54.619085 -79.140231 
L 53.327546 -81.446283 
L 52.036007 -83.777359 
L 50.744468 -86.103238 
L 49.452929 -88.382107 
L 48.16139 -90.556694 
L 46.869851 -92.549074 
L 45.578312 -94.253717 
L 44.286773 -95.528219 
L 42.995234 -96.181066 
L 41.703695 -95.955913 
L 40.412156 -94.512498 
L 39.120617 -91.406704 
L 37.829078 -86.079441 
L 36.537539 -77.885137 
L 35.246 -66.253355 
L 33.954461 -51.264952 
L 32.662922 -35.434427 
L 31.371383 -27.154625 
z
" style="stroke: #808080; stroke-opacity: 0.4"/>
    </defs>
    <g clip-path="url(#p911c7b9e48)">
     <use xlink:href="#mf7a185ea77" x="0" y="141.732283" style="fill: #808080; fill-opacity: 0.4; stroke: #808080; stroke-opacity: 0.4"/>
    </g>
   </g>
   <g id="PolyCollection_2">
    <defs>
     <path id="m77b5079b2b" d="M 31.371383 -27.038303 
L 31.371383 -27.039946 
L 32.662922 -27.042231 
L 33.954461 -27.117594 
L 35.246 -27.364752 
L 36.537539 -27.824957 
L 37.829078 -28.493384 
L 39.120617 -29.342531 
L 40.412156 -30.337005 
L 41.703695 -31.441143 
L 42.995234 -32.62247 
L 44.286773 -33.852964 
L 45.578312 -35.109245 
L 46.869851 -36.372259 
L 48.16139 -37.626769 
L 49.452929 -38.860805 
L 50.744468 -40.06513 
L 52.036007 -41.232769 
L 53.327546 -42.358596 
L 54.619085 -43.438988 
L 55.910624 -44.471534 
L 57.202162 -45.454793 
L 58.493701 -46.388101 
L 59.78524 -47.271399 
L 61.076779 -48.105111 
L 62.368318 -48.890028 
L 63.659857 -49.627227 
L 64.951396 -50.317992 
L 66.242935 -50.963765 
L 67.534474 -51.566095 
L 68.826013 -52.126599 
L 70.117552 -52.646938 
L 71.409091 -53.128788 
L 72.70063 -53.573826 
L 73.992169 -53.983709 
L 75.283708 -54.360071 
L 76.575247 -54.704508 
L 77.866786 -55.018571 
L 79.158325 -55.303767 
L 80.449864 -55.561551 
L 81.741403 -55.793325 
L 83.032942 -56.000438 
L 84.324481 -56.184184 
L 85.61602 -56.345801 
L 86.907559 -56.486477 
L 88.199097 -56.607342 
L 89.490636 -56.709478 
L 90.782175 -56.793916 
L 92.073714 -56.861638 
L 93.365253 -56.913577 
L 94.656792 -56.950624 
L 95.948331 -56.973624 
L 97.23987 -56.983379 
L 98.531409 -56.980655 
L 99.822948 -56.966175 
L 101.114487 -56.940628 
L 102.406026 -56.904667 
L 103.697565 -56.858913 
L 104.989104 -56.803953 
L 106.280643 -56.740345 
L 107.572182 -56.668618 
L 108.863721 -56.589274 
L 110.15526 -56.502789 
L 111.446799 -56.409613 
L 112.738338 -56.310173 
L 114.029877 -56.204876 
L 115.321416 -56.094104 
L 116.612955 -55.978222 
L 117.904493 -55.857575 
L 119.196032 -55.732489 
L 120.487571 -55.603273 
L 121.77911 -55.470221 
L 123.070649 -55.333611 
L 124.362188 -55.193706 
L 125.653727 -55.050755 
L 126.945266 -54.904995 
L 128.236805 -54.756647 
L 129.528344 -54.605926 
L 130.819883 -54.45303 
L 132.111422 -54.29815 
L 133.402961 -54.141466 
L 134.6945 -53.983146 
L 135.986039 -53.823354 
L 137.277578 -53.66224 
L 138.569117 -53.499949 
L 139.860656 -53.336617 
L 141.152195 -53.172373 
L 142.443734 -53.00734 
L 143.735273 -52.841632 
L 145.026812 -52.675358 
L 146.318351 -52.508622 
L 147.60989 -52.341521 
L 148.901428 -52.174147 
L 150.192967 -52.006587 
L 151.484506 -51.838922 
L 152.776045 -51.67123 
L 154.067584 -51.503585 
L 155.359123 -51.336054 
L 156.650662 -51.168703 
L 157.942201 -51.001593 
L 159.23374 -50.834782 
L 159.23374 -47.520477 
L 159.23374 -47.520477 
L 157.942201 -47.752217 
L 156.650662 -47.987065 
L 155.359123 -48.225052 
L 154.067584 -48.46621 
L 152.776045 -48.710569 
L 151.484506 -48.95816 
L 150.192967 -49.20901 
L 148.901428 -49.463145 
L 147.60989 -49.720591 
L 146.318351 -49.981371 
L 145.026812 -50.245505 
L 143.735273 -50.513013 
L 142.443734 -50.783911 
L 141.152195 -51.058213 
L 139.860656 -51.335928 
L 138.569117 -51.617065 
L 137.277578 -51.901625 
L 135.986039 -52.18961 
L 134.6945 -52.481012 
L 133.402961 -52.775823 
L 132.111422 -53.074027 
L 130.819883 -53.375602 
L 129.528344 -53.68052 
L 128.236805 -53.988746 
L 126.945266 -54.300237 
L 125.653727 -54.614943 
L 124.362188 -54.932802 
L 123.070649 -55.253744 
L 121.77911 -55.577688 
L 120.487571 -55.90454 
L 119.196032 -56.234193 
L 117.904493 -56.566527 
L 116.612955 -56.901404 
L 115.321416 -57.238672 
L 114.029877 -57.578158 
L 112.738338 -57.91967 
L 111.446799 -58.262995 
L 110.15526 -58.607895 
L 108.863721 -58.954104 
L 107.572182 -59.301331 
L 106.280643 -59.649253 
L 104.989104 -59.99751 
L 103.697565 -60.345711 
L 102.406026 -60.693419 
L 101.114487 -61.040156 
L 99.822948 -61.385396 
L 98.531409 -61.728562 
L 97.23987 -62.069016 
L 95.948331 -62.406061 
L 94.656792 -62.738932 
L 93.365253 -63.066789 
L 92.073714 -63.388711 
L 90.782175 -63.703688 
L 89.490636 -64.010614 
L 88.199097 -64.308279 
L 86.907559 -64.595354 
L 85.61602 -64.870386 
L 84.324481 -65.131785 
L 83.032942 -65.377808 
L 81.741403 -65.606549 
L 80.449864 -65.815922 
L 79.158325 -66.003645 
L 77.866786 -66.16722 
L 76.575247 -66.303917 
L 75.283708 -66.410751 
L 73.992169 -66.484459 
L 72.70063 -66.521475 
L 71.409091 -66.517908 
L 70.117552 -66.469511 
L 68.826013 -66.371654 
L 67.534474 -66.219294 
L 66.242935 -66.006948 
L 64.951396 -65.728662 
L 63.659857 -65.377986 
L 62.368318 -64.947949 
L 61.076779 -64.431049 
L 59.78524 -63.819239 
L 58.493701 -63.103944 
L 57.202162 -62.276091 
L 55.910624 -61.326173 
L 54.619085 -60.244365 
L 53.327546 -59.0207 
L 52.036007 -57.645339 
L 50.744468 -56.108973 
L 49.452929 -54.403402 
L 48.16139 -52.522371 
L 46.869851 -50.46274 
L 45.578312 -48.226149 
L 44.286773 -45.821325 
L 42.995234 -43.267261 
L 41.703695 -40.597543 
L 40.412156 -37.866053 
L 39.120617 -35.1541 
L 37.829078 -32.57833 
L 36.537539 -30.296597 
L 35.246 -28.503155 
L 33.954461 -27.389229 
L 32.662922 -27.012443 
L 31.371383 -27.038303 
z
" style="stroke: #808080; stroke-opacity: 0.4"/>
    </defs>
    <g clip-path="url(#p911c7b9e48)">
     <use xlink:href="#m77b5079b2b" x="0" y="141.732283" style="fill: #808080; fill-opacity: 0.4; stroke: #808080; stroke-opacity: 0.4"/>
    </g>
   </g>
   <g id="PolyCollection_3">
    <defs>
     <path id="m57c86308ec" d="M 31.371383 -27.041751 
L 31.371383 -27.040071 
L 32.662922 -27.061458 
L 33.954461 -27.171152 
L 35.246 -27.399105 
L 36.537539 -27.740576 
L 37.829078 -28.178194 
L 39.120617 -28.691983 
L 40.412156 -29.263198 
L 41.703695 -29.875573 
L 42.995234 -30.515526 
L 44.286773 -31.171958 
L 45.578312 -31.835925 
L 46.869851 -32.500298 
L 48.16139 -33.15945 
L 49.452929 -33.808979 
L 50.744468 -34.445487 
L 52.036007 -35.066385 
L 53.327546 -35.669742 
L 54.619085 -36.254157 
L 55.910624 -36.818659 
L 57.202162 -37.362618 
L 58.493701 -37.885684 
L 59.78524 -38.387724 
L 61.076779 -38.868783 
L 62.368318 -39.329047 
L 63.659857 -39.768806 
L 64.951396 -40.18844 
L 66.242935 -40.588392 
L 67.534474 -40.969151 
L 68.826013 -41.331246 
L 70.117552 -41.675228 
L 71.409091 -42.001664 
L 72.70063 -42.311131 
L 73.992169 -42.604209 
L 75.283708 -42.881474 
L 76.575247 -43.143501 
L 77.866786 -43.390855 
L 79.158325 -43.62409 
L 80.449864 -43.84375 
L 81.741403 -44.050364 
L 83.032942 -44.244448 
L 84.324481 -44.426501 
L 85.61602 -44.597009 
L 86.907559 -44.756442 
L 88.199097 -44.905252 
L 89.490636 -45.043878 
L 90.782175 -45.172742 
L 92.073714 -45.292251 
L 93.365253 -45.402796 
L 94.656792 -45.504755 
L 95.948331 -45.598489 
L 97.23987 -45.684347 
L 98.531409 -45.762663 
L 99.822948 -45.83376 
L 101.114487 -45.897946 
L 102.406026 -45.955516 
L 103.697565 -46.006756 
L 104.989104 -46.051937 
L 106.280643 -46.091323 
L 107.572182 -46.125163 
L 108.863721 -46.153699 
L 110.15526 -46.177161 
L 111.446799 -46.195772 
L 112.738338 -46.209742 
L 114.029877 -46.219277 
L 115.321416 -46.224571 
L 116.612955 -46.225812 
L 117.904493 -46.223178 
L 119.196032 -46.216843 
L 120.487571 -46.206971 
L 121.77911 -46.193721 
L 123.070649 -46.177244 
L 124.362188 -46.157687 
L 125.653727 -46.135188 
L 126.945266 -46.109882 
L 128.236805 -46.081897 
L 129.528344 -46.051357 
L 130.819883 -46.018378 
L 132.111422 -45.983076 
L 133.402961 -45.945559 
L 134.6945 -45.90593 
L 135.986039 -45.86429 
L 137.277578 -45.820736 
L 138.569117 -45.775359 
L 139.860656 -45.728247 
L 141.152195 -45.679487 
L 142.443734 -45.629158 
L 143.735273 -45.577339 
L 145.026812 -45.524105 
L 146.318351 -45.469529 
L 147.60989 -45.413679 
L 148.901428 -45.356621 
L 150.192967 -45.29842 
L 151.484506 -45.239136 
L 152.776045 -45.178828 
L 154.067584 -45.117553 
L 155.359123 -45.055364 
L 156.650662 -44.992313 
L 157.942201 -44.92845 
L 159.23374 -44.863824 
L 159.23374 -45.84291 
L 159.23374 -45.84291 
L 157.942201 -45.957322 
L 156.650662 -46.072062 
L 155.359123 -46.187106 
L 154.067584 -46.302426 
L 152.776045 -46.41799 
L 151.484506 -46.533769 
L 150.192967 -46.649727 
L 148.901428 -46.76583 
L 147.60989 -46.88204 
L 146.318351 -46.998317 
L 145.026812 -47.114617 
L 143.735273 -47.230895 
L 142.443734 -47.347103 
L 141.152195 -47.463191 
L 139.860656 -47.579104 
L 138.569117 -47.694784 
L 137.277578 -47.810171 
L 135.986039 -47.925201 
L 134.6945 -48.039805 
L 133.402961 -48.15391 
L 132.111422 -48.267441 
L 130.819883 -48.380315 
L 129.528344 -48.492446 
L 128.236805 -48.603744 
L 126.945266 -48.714112 
L 125.653727 -48.823447 
L 124.362188 -48.931641 
L 123.070649 -49.038579 
L 121.77911 -49.144138 
L 120.487571 -49.248191 
L 119.196032 -49.3506 
L 117.904493 -49.45122 
L 116.612955 -49.549898 
L 115.321416 -49.646471 
L 114.029877 -49.740766 
L 112.738338 -49.8326 
L 111.446799 -49.921779 
L 110.15526 -50.008097 
L 108.863721 -50.091336 
L 107.572182 -50.171265 
L 106.280643 -50.247636 
L 104.989104 -50.32019 
L 103.697565 -50.388649 
L 102.406026 -50.452718 
L 101.114487 -50.512087 
L 99.822948 -50.566421 
L 98.531409 -50.61537 
L 97.23987 -50.658558 
L 95.948331 -50.695586 
L 94.656792 -50.72603 
L 93.365253 -50.749441 
L 92.073714 -50.765337 
L 90.782175 -50.77321 
L 89.490636 -50.772515 
L 88.199097 -50.762674 
L 86.907559 -50.743071 
L 85.61602 -50.713049 
L 84.324481 -50.67191 
L 83.032942 -50.618908 
L 81.741403 -50.553249 
L 80.449864 -50.474086 
L 79.158325 -50.380515 
L 77.866786 -50.271573 
L 76.575247 -50.146234 
L 75.283708 -50.003403 
L 73.992169 -49.84191 
L 72.70063 -49.660512 
L 71.409091 -49.457881 
L 70.117552 -49.232602 
L 68.826013 -48.983169 
L 67.534474 -48.707981 
L 66.242935 -48.405333 
L 64.951396 -48.073417 
L 63.659857 -47.710317 
L 62.368318 -47.314006 
L 61.076779 -46.882347 
L 59.78524 -46.413094 
L 58.493701 -45.903901 
L 57.202162 -45.352329 
L 55.910624 -44.755864 
L 54.619085 -44.111949 
L 53.327546 -43.41802 
L 52.036007 -42.671564 
L 50.744468 -41.870209 
L 49.452929 -41.01184 
L 48.16139 -40.09477 
L 46.869851 -39.117982 
L 45.578312 -38.08147 
L 44.286773 -36.986721 
L 42.995234 -35.837414 
L 41.703695 -34.640407 
L 40.412156 -33.407186 
L 39.120617 -32.155945 
L 37.829078 -30.91463 
L 36.537539 -29.725266 
L 35.246 -28.649803 
L 33.954461 -27.776261 
L 32.662922 -27.216338 
L 31.371383 -27.041751 
z
" style="stroke: #808080; stroke-opacity: 0.4"/>
    </defs>
    <g clip-path="url(#p911c7b9e48)">
     <use xlink:href="#m57c86308ec" x="0" y="141.732283" style="fill: #808080; fill-opacity: 0.4; stroke: #808080; stroke-opacity: 0.4"/>
    </g>
   </g>
   <g id="PolyCollection_4">
    <defs>
     <path id="m8e0344812f" d="M 31.371383 -27.040232 
L 31.371383 -27.040012 
L 32.662922 -27.046317 
L 33.954461 -27.089603 
L 35.246 -27.20046 
L 36.537539 -27.395386 
L 37.829078 -27.680225 
L 39.120617 -28.054386 
L 40.412156 -28.513677 
L 41.703695 -29.052051 
L 42.995234 -29.662643 
L 44.286773 -30.33838 
L 45.578312 -31.07233 
L 46.869851 -31.857895 
L 48.16139 -32.688913 
L 49.452929 -33.559693 
L 50.744468 -34.465029 
L 52.036007 -35.400179 
L 53.327546 -36.360848 
L 54.619085 -37.343154 
L 55.910624 -38.343595 
L 57.202162 -39.359021 
L 58.493701 -40.386599 
L 59.78524 -41.423786 
L 61.076779 -42.4683 
L 62.368318 -43.518096 
L 63.659857 -44.57134 
L 64.951396 -45.626393 
L 66.242935 -46.681789 
L 67.534474 -47.736216 
L 68.826013 -48.788506 
L 70.117552 -49.837615 
L 71.409091 -50.882616 
L 72.70063 -51.922683 
L 73.992169 -52.957085 
L 75.283708 -53.985173 
L 76.575247 -55.006374 
L 77.866786 -56.020185 
L 79.158325 -57.026164 
L 80.449864 -58.023923 
L 81.741403 -59.013127 
L 83.032942 -59.993484 
L 84.324481 -60.964744 
L 85.61602 -61.926696 
L 86.907559 -62.87916 
L 88.199097 -63.821988 
L 89.490636 -64.755057 
L 90.782175 -65.678271 
L 92.073714 -66.591556 
L 93.365253 -67.494858 
L 94.656792 -68.38814 
L 95.948331 -69.271382 
L 97.23987 -70.144581 
L 98.531409 -71.007743 
L 99.822948 -71.86089 
L 101.114487 -72.704052 
L 102.406026 -73.53727 
L 103.697565 -74.360593 
L 104.989104 -75.174078 
L 106.280643 -75.977788 
L 107.572182 -76.771794 
L 108.863721 -77.556171 
L 110.15526 -78.330998 
L 111.446799 -79.09636 
L 112.738338 -79.852345 
L 114.029877 -80.599043 
L 115.321416 -81.336549 
L 116.612955 -82.064959 
L 117.904493 -82.784371 
L 119.196032 -83.494886 
L 120.487571 -84.196604 
L 121.77911 -84.889628 
L 123.070649 -85.574061 
L 124.362188 -86.250009 
L 125.653727 -86.917574 
L 126.945266 -87.576862 
L 128.236805 -88.227979 
L 129.528344 -88.871028 
L 130.819883 -89.506115 
L 132.111422 -90.133344 
L 133.402961 -90.75282 
L 134.6945 -91.364645 
L 135.986039 -91.968923 
L 137.277578 -92.565757 
L 138.569117 -93.155247 
L 139.860656 -93.737495 
L 141.152195 -94.312601 
L 142.443734 -94.880664 
L 143.735273 -95.441781 
L 145.026812 -95.99605 
L 146.318351 -96.543567 
L 147.60989 -97.084427 
L 148.901428 -97.618724 
L 150.192967 -98.146551 
L 151.484506 -98.668 
L 152.776045 -99.18316 
L 154.067584 -99.692122 
L 155.359123 -100.194974 
L 156.650662 -100.691803 
L 157.942201 -101.182695 
L 159.23374 -101.667735 
L 159.23374 -114.193086 
L 159.23374 -114.193086 
L 157.942201 -113.773584 
L 156.650662 -113.348073 
L 155.359123 -112.916438 
L 154.067584 -112.478565 
L 152.776045 -112.034334 
L 151.484506 -111.583624 
L 150.192967 -111.126313 
L 148.901428 -110.662273 
L 147.60989 -110.191374 
L 146.318351 -109.713484 
L 145.026812 -109.228468 
L 143.735273 -108.736185 
L 142.443734 -108.236495 
L 141.152195 -107.729252 
L 139.860656 -107.214308 
L 138.569117 -106.691509 
L 137.277578 -106.160701 
L 135.986039 -105.621724 
L 134.6945 -105.074415 
L 133.402961 -104.518607 
L 132.111422 -103.95413 
L 130.819883 -103.380809 
L 129.528344 -102.798465 
L 128.236805 -102.206916 
L 126.945266 -101.605975 
L 125.653727 -100.995451 
L 124.362188 -100.375148 
L 123.070649 -99.744866 
L 121.77911 -99.104402 
L 120.487571 -98.453546 
L 119.196032 -97.792085 
L 117.904493 -97.119801 
L 116.612955 -96.436472 
L 115.321416 -95.741869 
L 114.029877 -95.035761 
L 112.738338 -94.317912 
L 111.446799 -93.588079 
L 110.15526 -92.846016 
L 108.863721 -92.091472 
L 107.572182 -91.324192 
L 106.280643 -90.543915 
L 104.989104 -89.750378 
L 103.697565 -88.943311 
L 102.406026 -88.122441 
L 101.114487 -87.287492 
L 99.822948 -86.438183 
L 98.531409 -85.574231 
L 97.23987 -84.695349 
L 95.948331 -83.801249 
L 94.656792 -82.891639 
L 93.365253 -81.966229 
L 92.073714 -81.024725 
L 90.782175 -80.066835 
L 89.490636 -79.092271 
L 88.199097 -78.100742 
L 86.907559 -77.091967 
L 85.61602 -76.065666 
L 84.324481 -75.02157 
L 83.032942 -73.959416 
L 81.741403 -72.878956 
L 80.449864 -71.779956 
L 79.158325 -70.662199 
L 77.866786 -69.525491 
L 76.575247 -68.369663 
L 75.283708 -67.19458 
L 73.992169 -66.000139 
L 72.70063 -64.786287 
L 71.409091 -63.553016 
L 70.117552 -62.300384 
L 68.826013 -61.028515 
L 67.534474 -59.73762 
L 66.242935 -58.428006 
L 64.951396 -57.100091 
L 63.659857 -55.75443 
L 62.368318 -54.391731 
L 61.076779 -53.012884 
L 59.78524 -51.618994 
L 58.493701 -50.211413 
L 57.202162 -48.791788 
L 55.910624 -47.36211 
L 54.619085 -45.924776 
L 53.327546 -44.482659 
L 52.036007 -43.039199 
L 50.744468 -41.598499 
L 49.452929 -40.165456 
L 48.16139 -38.745904 
L 46.869851 -37.346789 
L 45.578312 -35.976379 
L 44.286773 -34.644512 
L 42.995234 -33.362878 
L 41.703695 -32.145343 
L 40.412156 -31.008281 
L 39.120617 -29.970876 
L 37.829078 -29.055254 
L 36.537539 -28.286144 
L 35.246 -27.689308 
L 33.954461 -27.286887 
L 32.662922 -27.084756 
L 31.371383 -27.040232 
z
" style="stroke: #808080; stroke-opacity: 0.4"/>
    </defs>
    <g clip-path="url(#p911c7b9e48)">
     <use xlink:href="#m8e0344812f" x="0" y="141.732283" style="fill: #808080; fill-opacity: 0.4; stroke: #808080; stroke-opacity: 0.4"/>
    </g>
   </g>
   <g id="matplotlib.axis_1">
    <g id="xtick_1">
     <g id="line2d_1">
      <defs>
       <path id="m5c807af6ca" d="M 0 0 
L 0 -5 
" style="stroke: #000000; stroke-width: 0.5"/>
      </defs>
      <g>
       <use xlink:href="#m5c807af6ca" x="30.94375" y="114.692283" style="fill-opacity: 0; stroke: #000000; stroke-width: 0.5"/>
      </g>
     </g>
     <g id="text_1">
      <!-- 0 -->
      <g transform="translate(28.719375 122.418533)scale(0.08 -0.08)">
       <defs>
        <path id="ArialMT-30" d="M 266 2259 
Q 266 3072 433 3567 
Q 600 4063 929 4331 
Q 1259 4600 1759 4600 
Q 2128 4600 2406 4451 
Q 2684 4303 2865 4023 
Q 3047 3744 3150 3342 
Q 3253 2941 3253 2259 
Q 3253 1453 3087 958 
Q 2922 463 2592 192 
Q 2263 -78 1759 -78 
Q 1097 -78 719 397 
Q 266 969 266 2259 
z
M 844 2259 
Q 844 1131 1108 757 
Q 1372 384 1759 384 
Q 2147 384 2411 759 
Q 2675 1134 2675 2259 
Q 2675 3391 2411 3762 
Q 2147 4134 1753 4134 
Q 1366 4134 1134 3806 
Q 844 3388 844 2259 
z
" transform="scale(0.015625)"/>
       </defs>
       <use xlink:href="#ArialMT-30"/>
      </g>
     </g>
    </g>
    <g id="xtick_2">
     <g id="line2d_2">
      <g>
       <use xlink:href="#m5c807af6ca" x="73.70708" y="114.692283" style="fill-opacity: 0; stroke: #000000; stroke-width: 0.5"/>
      </g>
     </g>
     <g id="text_2">
      <!-- 1 -->
      <g transform="translate(71.482705 122.418533)scale(0.08 -0.08)">
       <defs>
        <path id="ArialMT-31" d="M 2384 0 
L 1822 0 
L 1822 3584 
Q 1619 3391 1289 3197 
Q 959 3003 697 2906 
L 697 3450 
Q 1169 3672 1522 3987 
Q 1875 4303 2022 4600 
L 2384 4600 
L 2384 0 
z
" transform="scale(0.015625)"/>
       </defs>
       <use xlink:href="#ArialMT-31"/>
      </g>
     </g>
    </g>
    <g id="xtick_3">
     <g id="line2d_3">
      <g>
       <use xlink:href="#m5c807af6ca" x="116.47041" y="114.692283" style="fill-opacity: 0; stroke: #000000; stroke-width: 0.5"/>
      </g>
     </g>
     <g id="text_3">
      <!-- 2 -->
      <g transform="translate(114.246035 122.418533)scale(0.08 -0.08)">
       <defs>
        <path id="ArialMT-32" d="M 3222 541 
L 3222 0 
L 194 0 
Q 188 203 259 391 
Q 375 700 629 1000 
Q 884 1300 1366 1694 
Q 2113 2306 2375 2664 
Q 2638 3022 2638 3341 
Q 2638 3675 2398 3904 
Q 2159 4134 1775 4134 
Q 1369 4134 1125 3890 
Q 881 3647 878 3216 
L 300 3275 
Q 359 3922 746 4261 
Q 1134 4600 1788 4600 
Q 2447 4600 2831 4234 
Q 3216 3869 3216 3328 
Q 3216 3053 3103 2787 
Q 2991 2522 2730 2228 
Q 2469 1934 1863 1422 
Q 1356 997 1212 845 
Q 1069 694 975 541 
L 3222 541 
z
" transform="scale(0.015625)"/>
       </defs>
       <use xlink:href="#ArialMT-32"/>
      </g>
     </g>
    </g>
    <g id="xtick_4">
     <g id="line2d_4">
      <g>
       <use xlink:href="#m5c807af6ca" x="159.23374" y="114.692283" style="fill-opacity: 0; stroke: #000000; stroke-width: 0.5"/>
      </g>
     </g>
     <g id="text_4">
      <!-- 3 -->
      <g transform="translate(157.009365 122.418533)scale(0.08 -0.08)">
       <defs>
        <path id="ArialMT-33" d="M 269 1209 
L 831 1284 
Q 928 806 1161 595 
Q 1394 384 1728 384 
Q 2125 384 2398 659 
Q 2672 934 2672 1341 
Q 2672 1728 2419 1979 
Q 2166 2231 1775 2231 
Q 1616 2231 1378 2169 
L 1441 2663 
Q 1497 2656 1531 2656 
Q 1891 2656 2178 2843 
Q 2466 3031 2466 3422 
Q 2466 3731 2256 3934 
Q 2047 4138 1716 4138 
Q 1388 4138 1169 3931 
Q 950 3725 888 3313 
L 325 3413 
Q 428 3978 793 4289 
Q 1159 4600 1703 4600 
Q 2078 4600 2393 4439 
Q 2709 4278 2876 4000 
Q 3044 3722 3044 3409 
Q 3044 3113 2884 2869 
Q 2725 2625 2413 2481 
Q 2819 2388 3044 2092 
Q 3269 1797 3269 1353 
Q 3269 753 2831 336 
Q 2394 -81 1725 -81 
Q 1122 -81 723 278 
Q 325 638 269 1209 
z
" transform="scale(0.015625)"/>
       </defs>
       <use xlink:href="#ArialMT-33"/>
      </g>
     </g>
    </g>
    <g id="xtick_5">
     <g id="line2d_5">
      <defs>
       <path id="m66604e6a6e" d="M 0 0 
L 0 -3 
" style="stroke: #000000; stroke-width: 0.5"/>
      </defs>
      <g>
       <use xlink:href="#m66604e6a6e" x="39.496416" y="114.692283" style="fill-opacity: 0; stroke: #000000; stroke-width: 0.5"/>
      </g>
     </g>
    </g>
    <g id="xtick_6">
     <g id="line2d_6">
      <g>
       <use xlink:href="#m66604e6a6e" x="48.049082" y="114.692283" style="fill-opacity: 0; stroke: #000000; stroke-width: 0.5"/>
      </g>
     </g>
    </g>
    <g id="xtick_7">
     <g id="line2d_7">
      <g>
       <use xlink:href="#m66604e6a6e" x="56.601748" y="114.692283" style="fill-opacity: 0; stroke: #000000; stroke-width: 0.5"/>
      </g>
     </g>
    </g>
    <g id="xtick_8">
     <g id="line2d_8">
      <g>
       <use xlink:href="#m66604e6a6e" x="65.154414" y="114.692283" style="fill-opacity: 0; stroke: #000000; stroke-width: 0.5"/>
      </g>
     </g>
    </g>
    <g id="xtick_9">
     <g id="line2d_9">
      <g>
       <use xlink:href="#m66604e6a6e" x="82.259746" y="114.692283" style="fill-opacity: 0; stroke: #000000; stroke-width: 0.5"/>
      </g>
     </g>
    </g>
    <g id="xtick_10">
     <g id="line2d_10">
      <g>
       <use xlink:href="#m66604e6a6e" x="90.812412" y="114.692283" style="fill-opacity: 0; stroke: #000000; stroke-width: 0.5"/>
      </g>
     </g>
    </g>
    <g id="xtick_11">
     <g id="line2d_11">
      <g>
       <use xlink:href="#m66604e6a6e" x="99.365078" y="114.692283" style="fill-opacity: 0; stroke: #000000; stroke-width: 0.5"/>
      </g>
     </g>
    </g>
    <g id="xtick_12">
     <g id="line2d_12">
      <g>
       <use xlink:href="#m66604e6a6e" x="107.917744" y="114.692283" style="fill-opacity: 0; stroke: #000000; stroke-width: 0.5"/>
      </g>
     </g>
    </g>
    <g id="xtick_13">
     <g id="line2d_13">
      <g>
       <use xlink:href="#m66604e6a6e" x="125.023076" y="114.692283" style="fill-opacity: 0; stroke: #000000; stroke-width: 0.5"/>
      </g>
     </g>
    </g>
    <g id="xtick_14">
     <g id="line2d_14">
      <g>
       <use xlink:href="#m66604e6a6e" x="133.575742" y="114.692283" style="fill-opacity: 0; stroke: #000000; stroke-width: 0.5"/>
      </g>
     </g>
    </g>
    <g id="xtick_15">
     <g id="line2d_15">
      <g>
       <use xlink:href="#m66604e6a6e" x="142.128408" y="114.692283" style="fill-opacity: 0; stroke: #000000; stroke-width: 0.5"/>
      </g>
     </g>
    </g>
    <g id="xtick_16">
     <g id="line2d_16">
      <g>
       <use xlink:href="#m66604e6a6e" x="150.681074" y="114.692283" style="fill-opacity: 0; stroke: #000000; stroke-width: 0.5"/>
      </g>
     </g>
    </g>
    <g id="text_5">
     <!-- PGA(g) -->
     <g transform="translate(81.75312 131.832283)scale(0.08 -0.08)">
      <defs>
       <path id="ArialMT-50" d="M 494 0 
L 494 4581 
L 2222 4581 
Q 2678 4581 2919 4538 
Q 3256 4481 3484 4323 
Q 3713 4166 3852 3881 
Q 3991 3597 3991 3256 
Q 3991 2672 3619 2267 
Q 3247 1863 2275 1863 
L 1100 1863 
L 1100 0 
L 494 0 
z
M 1100 2403 
L 2284 2403 
Q 2872 2403 3119 2622 
Q 3366 2841 3366 3238 
Q 3366 3525 3220 3729 
Q 3075 3934 2838 4000 
Q 2684 4041 2272 4041 
L 1100 4041 
L 1100 2403 
z
" transform="scale(0.015625)"/>
       <path id="ArialMT-47" d="M 2638 1797 
L 2638 2334 
L 4578 2338 
L 4578 638 
Q 4131 281 3656 101 
Q 3181 -78 2681 -78 
Q 2006 -78 1454 211 
Q 903 500 622 1047 
Q 341 1594 341 2269 
Q 341 2938 620 3517 
Q 900 4097 1425 4378 
Q 1950 4659 2634 4659 
Q 3131 4659 3532 4498 
Q 3934 4338 4162 4050 
Q 4391 3763 4509 3300 
L 3963 3150 
Q 3859 3500 3706 3700 
Q 3553 3900 3268 4020 
Q 2984 4141 2638 4141 
Q 2222 4141 1919 4014 
Q 1616 3888 1430 3681 
Q 1244 3475 1141 3228 
Q 966 2803 966 2306 
Q 966 1694 1177 1281 
Q 1388 869 1791 669 
Q 2194 469 2647 469 
Q 3041 469 3416 620 
Q 3791 772 3984 944 
L 3984 1797 
L 2638 1797 
z
" transform="scale(0.015625)"/>
       <path id="ArialMT-41" d="M -9 0 
L 1750 4581 
L 2403 4581 
L 4278 0 
L 3588 0 
L 3053 1388 
L 1138 1388 
L 634 0 
L -9 0 
z
M 1313 1881 
L 2866 1881 
L 2388 3150 
Q 2169 3728 2063 4100 
Q 1975 3659 1816 3225 
L 1313 1881 
z
" transform="scale(0.015625)"/>
       <path id="ArialMT-28" d="M 1497 -1347 
Q 1031 -759 709 28 
Q 388 816 388 1659 
Q 388 2403 628 3084 
Q 909 3875 1497 4659 
L 1900 4659 
Q 1522 4009 1400 3731 
Q 1209 3300 1100 2831 
Q 966 2247 966 1656 
Q 966 153 1900 -1347 
L 1497 -1347 
z
" transform="scale(0.015625)"/>
       <path id="ArialMT-67" d="M 319 -275 
L 866 -356 
Q 900 -609 1056 -725 
Q 1266 -881 1628 -881 
Q 2019 -881 2231 -725 
Q 2444 -569 2519 -288 
Q 2563 -116 2559 434 
Q 2191 0 1641 0 
Q 956 0 581 494 
Q 206 988 206 1678 
Q 206 2153 378 2554 
Q 550 2956 876 3175 
Q 1203 3394 1644 3394 
Q 2231 3394 2613 2919 
L 2613 3319 
L 3131 3319 
L 3131 450 
Q 3131 -325 2973 -648 
Q 2816 -972 2473 -1159 
Q 2131 -1347 1631 -1347 
Q 1038 -1347 672 -1080 
Q 306 -813 319 -275 
z
M 784 1719 
Q 784 1066 1043 766 
Q 1303 466 1694 466 
Q 2081 466 2343 764 
Q 2606 1063 2606 1700 
Q 2606 2309 2336 2618 
Q 2066 2928 1684 2928 
Q 1309 2928 1046 2623 
Q 784 2319 784 1719 
z
" transform="scale(0.015625)"/>
       <path id="ArialMT-29" d="M 791 -1347 
L 388 -1347 
Q 1322 153 1322 1656 
Q 1322 2244 1188 2822 
Q 1081 3291 891 3722 
Q 769 4003 388 4659 
L 791 4659 
Q 1378 3875 1659 3084 
Q 1900 2403 1900 1659 
Q 1900 816 1576 28 
Q 1253 -759 791 -1347 
z
" transform="scale(0.015625)"/>
      </defs>
      <use xlink:href="#ArialMT-50"/>
      <use xlink:href="#ArialMT-47" x="66.699219"/>
      <use xlink:href="#ArialMT-41" x="144.482422"/>
      <use xlink:href="#ArialMT-28" x="211.181641"/>
      <use xlink:href="#ArialMT-67" x="244.482422"/>
      <use xlink:href="#ArialMT-29" x="300.097656"/>
     </g>
    </g>
   </g>
   <g id="matplotlib.axis_2">
    <g id="ytick_1">
     <g id="line2d_17">
      <defs>
       <path id="m05fb196e38" d="M 0 0 
L 5 0 
" style="stroke: #000000; stroke-width: 0.5"/>
      </defs>
      <g>
       <use xlink:href="#m05fb196e38" x="30.94375" y="114.692283" style="fill-opacity: 0; stroke: #000000; stroke-width: 0.5"/>
      </g>
     </g>
     <g id="text_6">
      <!-- 0.0 -->
      <g transform="translate(17.82375 117.555408)scale(0.08 -0.08)">
       <defs>
        <path id="ArialMT-2e" d="M 581 0 
L 581 641 
L 1222 641 
L 1222 0 
L 581 0 
z
" transform="scale(0.015625)"/>
       </defs>
       <use xlink:href="#ArialMT-30"/>
       <use xlink:href="#ArialMT-2e" x="55.615234"/>
       <use xlink:href="#ArialMT-30" x="83.398438"/>
      </g>
     </g>
    </g>
    <g id="ytick_2">
     <g id="line2d_18">
      <g>
       <use xlink:href="#m05fb196e38" x="30.94375" y="88.899213" style="fill-opacity: 0; stroke: #000000; stroke-width: 0.5"/>
      </g>
     </g>
     <g id="text_7">
      <!-- 0.2 -->
      <g transform="translate(17.82375 91.762338)scale(0.08 -0.08)">
       <use xlink:href="#ArialMT-30"/>
       <use xlink:href="#ArialMT-2e" x="55.615234"/>
       <use xlink:href="#ArialMT-32" x="83.398438"/>
      </g>
     </g>
    </g>
    <g id="ytick_3">
     <g id="line2d_19">
      <g>
       <use xlink:href="#m05fb196e38" x="30.94375" y="63.106142" style="fill-opacity: 0; stroke: #000000; stroke-width: 0.5"/>
      </g>
     </g>
     <g id="text_8">
      <!-- 0.4 -->
      <g transform="translate(17.82375 65.969267)scale(0.08 -0.08)">
       <defs>
        <path id="ArialMT-34" d="M 2069 0 
L 2069 1097 
L 81 1097 
L 81 1613 
L 2172 4581 
L 2631 4581 
L 2631 1613 
L 3250 1613 
L 3250 1097 
L 2631 1097 
L 2631 0 
L 2069 0 
z
M 2069 1613 
L 2069 3678 
L 634 1613 
L 2069 1613 
z
" transform="scale(0.015625)"/>
       </defs>
       <use xlink:href="#ArialMT-30"/>
       <use xlink:href="#ArialMT-2e" x="55.615234"/>
       <use xlink:href="#ArialMT-34" x="83.398438"/>
      </g>
     </g>
    </g>
    <g id="ytick_4">
     <g id="line2d_20">
      <g>
       <use xlink:href="#m05fb196e38" x="30.94375" y="37.313071" style="fill-opacity: 0; stroke: #000000; stroke-width: 0.5"/>
      </g>
     </g>
     <g id="text_9">
      <!-- 0.6 -->
      <g transform="translate(17.82375 40.176196)scale(0.08 -0.08)">
       <defs>
        <path id="ArialMT-36" d="M 3184 3459 
L 2625 3416 
Q 2550 3747 2413 3897 
Q 2184 4138 1850 4138 
Q 1581 4138 1378 3988 
Q 1113 3794 959 3422 
Q 806 3050 800 2363 
Q 1003 2672 1297 2822 
Q 1591 2972 1913 2972 
Q 2475 2972 2870 2558 
Q 3266 2144 3266 1488 
Q 3266 1056 3080 686 
Q 2894 316 2569 119 
Q 2244 -78 1831 -78 
Q 1128 -78 684 439 
Q 241 956 241 2144 
Q 241 3472 731 4075 
Q 1159 4600 1884 4600 
Q 2425 4600 2770 4297 
Q 3116 3994 3184 3459 
z
M 888 1484 
Q 888 1194 1011 928 
Q 1134 663 1356 523 
Q 1578 384 1822 384 
Q 2178 384 2434 671 
Q 2691 959 2691 1453 
Q 2691 1928 2437 2201 
Q 2184 2475 1800 2475 
Q 1419 2475 1153 2201 
Q 888 1928 888 1484 
z
" transform="scale(0.015625)"/>
       </defs>
       <use xlink:href="#ArialMT-30"/>
       <use xlink:href="#ArialMT-2e" x="55.615234"/>
       <use xlink:href="#ArialMT-36" x="83.398438"/>
      </g>
     </g>
    </g>
    <g id="ytick_5">
     <g id="line2d_21">
      <g>
       <use xlink:href="#m05fb196e38" x="30.94375" y="11.52" style="fill-opacity: 0; stroke: #000000; stroke-width: 0.5"/>
      </g>
     </g>
     <g id="text_10">
      <!-- 0.8 -->
      <g transform="translate(17.82375 14.383125)scale(0.08 -0.08)">
       <defs>
        <path id="ArialMT-38" d="M 1131 2484 
Q 781 2613 612 2850 
Q 444 3088 444 3419 
Q 444 3919 803 4259 
Q 1163 4600 1759 4600 
Q 2359 4600 2725 4251 
Q 3091 3903 3091 3403 
Q 3091 3084 2923 2848 
Q 2756 2613 2416 2484 
Q 2838 2347 3058 2040 
Q 3278 1734 3278 1309 
Q 3278 722 2862 322 
Q 2447 -78 1769 -78 
Q 1091 -78 675 323 
Q 259 725 259 1325 
Q 259 1772 486 2073 
Q 713 2375 1131 2484 
z
M 1019 3438 
Q 1019 3113 1228 2906 
Q 1438 2700 1772 2700 
Q 2097 2700 2305 2904 
Q 2513 3109 2513 3406 
Q 2513 3716 2298 3927 
Q 2084 4138 1766 4138 
Q 1444 4138 1231 3931 
Q 1019 3725 1019 3438 
z
M 838 1322 
Q 838 1081 952 856 
Q 1066 631 1291 507 
Q 1516 384 1775 384 
Q 2178 384 2440 643 
Q 2703 903 2703 1303 
Q 2703 1709 2433 1975 
Q 2163 2241 1756 2241 
Q 1359 2241 1098 1978 
Q 838 1716 838 1322 
z
" transform="scale(0.015625)"/>
       </defs>
       <use xlink:href="#ArialMT-30"/>
       <use xlink:href="#ArialMT-2e" x="55.615234"/>
       <use xlink:href="#ArialMT-38" x="83.398438"/>
      </g>
     </g>
    </g>
    <g id="ytick_6">
     <g id="line2d_22">
      <defs>
       <path id="m2ba1482f47" d="M 0 0 
L 3 0 
" style="stroke: #000000; stroke-width: 0.5"/>
      </defs>
      <g>
       <use xlink:href="#m2ba1482f47" x="30.94375" y="108.244016" style="fill-opacity: 0; stroke: #000000; stroke-width: 0.5"/>
      </g>
     </g>
    </g>
    <g id="ytick_7">
     <g id="line2d_23">
      <g>
       <use xlink:href="#m2ba1482f47" x="30.94375" y="101.795748" style="fill-opacity: 0; stroke: #000000; stroke-width: 0.5"/>
      </g>
     </g>
    </g>
    <g id="ytick_8">
     <g id="line2d_24">
      <g>
       <use xlink:href="#m2ba1482f47" x="30.94375" y="95.34748" style="fill-opacity: 0; stroke: #000000; stroke-width: 0.5"/>
      </g>
     </g>
    </g>
    <g id="ytick_9">
     <g id="line2d_25">
      <g>
       <use xlink:href="#m2ba1482f47" x="30.94375" y="82.450945" style="fill-opacity: 0; stroke: #000000; stroke-width: 0.5"/>
      </g>
     </g>
    </g>
    <g id="ytick_10">
     <g id="line2d_26">
      <g>
       <use xlink:href="#m2ba1482f47" x="30.94375" y="76.002677" style="fill-opacity: 0; stroke: #000000; stroke-width: 0.5"/>
      </g>
     </g>
    </g>
    <g id="ytick_11">
     <g id="line2d_27">
      <g>
       <use xlink:href="#m2ba1482f47" x="30.94375" y="69.554409" style="fill-opacity: 0; stroke: #000000; stroke-width: 0.5"/>
      </g>
     </g>
    </g>
    <g id="ytick_12">
     <g id="line2d_28">
      <g>
       <use xlink:href="#m2ba1482f47" x="30.94375" y="56.657874" style="fill-opacity: 0; stroke: #000000; stroke-width: 0.5"/>
      </g>
     </g>
    </g>
    <g id="ytick_13">
     <g id="line2d_29">
      <g>
       <use xlink:href="#m2ba1482f47" x="30.94375" y="50.209606" style="fill-opacity: 0; stroke: #000000; stroke-width: 0.5"/>
      </g>
     </g>
    </g>
    <g id="ytick_14">
     <g id="line2d_30">
      <g>
       <use xlink:href="#m2ba1482f47" x="30.94375" y="43.761339" style="fill-opacity: 0; stroke: #000000; stroke-width: 0.5"/>
      </g>
     </g>
    </g>
    <g id="ytick_15">
     <g id="line2d_31">
      <g>
       <use xlink:href="#m2ba1482f47" x="30.94375" y="30.864803" style="fill-opacity: 0; stroke: #000000; stroke-width: 0.5"/>
      </g>
     </g>
    </g>
    <g id="ytick_16">
     <g id="line2d_32">
      <g>
       <use xlink:href="#m2ba1482f47" x="30.94375" y="24.416535" style="fill-opacity: 0; stroke: #000000; stroke-width: 0.5"/>
      </g>
     </g>
    </g>
    <g id="ytick_17">
     <g id="line2d_33">
      <g>
       <use xlink:href="#m2ba1482f47" x="30.94375" y="17.968268" style="fill-opacity: 0; stroke: #000000; stroke-width: 0.5"/>
      </g>
     </g>
    </g>
    <g id="text_11">
     <!-- Damage Probability -->
     <g transform="translate(14.14 98.010517)rotate(-90)scale(0.08 -0.08)">
      <defs>
       <path id="ArialMT-44" d="M 494 0 
L 494 4581 
L 2072 4581 
Q 2606 4581 2888 4516 
Q 3281 4425 3559 4188 
Q 3922 3881 4101 3404 
Q 4281 2928 4281 2316 
Q 4281 1794 4159 1391 
Q 4038 988 3847 723 
Q 3656 459 3429 307 
Q 3203 156 2883 78 
Q 2563 0 2147 0 
L 494 0 
z
M 1100 541 
L 2078 541 
Q 2531 541 2789 625 
Q 3047 709 3200 863 
Q 3416 1078 3536 1442 
Q 3656 1806 3656 2325 
Q 3656 3044 3420 3430 
Q 3184 3816 2847 3947 
Q 2603 4041 2063 4041 
L 1100 4041 
L 1100 541 
z
" transform="scale(0.015625)"/>
       <path id="ArialMT-61" d="M 2588 409 
Q 2275 144 1986 34 
Q 1697 -75 1366 -75 
Q 819 -75 525 192 
Q 231 459 231 875 
Q 231 1119 342 1320 
Q 453 1522 633 1644 
Q 813 1766 1038 1828 
Q 1203 1872 1538 1913 
Q 2219 1994 2541 2106 
Q 2544 2222 2544 2253 
Q 2544 2597 2384 2738 
Q 2169 2928 1744 2928 
Q 1347 2928 1158 2789 
Q 969 2650 878 2297 
L 328 2372 
Q 403 2725 575 2942 
Q 747 3159 1072 3276 
Q 1397 3394 1825 3394 
Q 2250 3394 2515 3294 
Q 2781 3194 2906 3042 
Q 3031 2891 3081 2659 
Q 3109 2516 3109 2141 
L 3109 1391 
Q 3109 606 3145 398 
Q 3181 191 3288 0 
L 2700 0 
Q 2613 175 2588 409 
z
M 2541 1666 
Q 2234 1541 1622 1453 
Q 1275 1403 1131 1340 
Q 988 1278 909 1158 
Q 831 1038 831 891 
Q 831 666 1001 516 
Q 1172 366 1500 366 
Q 1825 366 2078 508 
Q 2331 650 2450 897 
Q 2541 1088 2541 1459 
L 2541 1666 
z
" transform="scale(0.015625)"/>
       <path id="ArialMT-6d" d="M 422 0 
L 422 3319 
L 925 3319 
L 925 2853 
Q 1081 3097 1340 3245 
Q 1600 3394 1931 3394 
Q 2300 3394 2536 3241 
Q 2772 3088 2869 2813 
Q 3263 3394 3894 3394 
Q 4388 3394 4653 3120 
Q 4919 2847 4919 2278 
L 4919 0 
L 4359 0 
L 4359 2091 
Q 4359 2428 4304 2576 
Q 4250 2725 4106 2815 
Q 3963 2906 3769 2906 
Q 3419 2906 3187 2673 
Q 2956 2441 2956 1928 
L 2956 0 
L 2394 0 
L 2394 2156 
Q 2394 2531 2256 2718 
Q 2119 2906 1806 2906 
Q 1569 2906 1367 2781 
Q 1166 2656 1075 2415 
Q 984 2175 984 1722 
L 984 0 
L 422 0 
z
" transform="scale(0.015625)"/>
       <path id="ArialMT-65" d="M 2694 1069 
L 3275 997 
Q 3138 488 2766 206 
Q 2394 -75 1816 -75 
Q 1088 -75 661 373 
Q 234 822 234 1631 
Q 234 2469 665 2931 
Q 1097 3394 1784 3394 
Q 2450 3394 2872 2941 
Q 3294 2488 3294 1666 
Q 3294 1616 3291 1516 
L 816 1516 
Q 847 969 1125 678 
Q 1403 388 1819 388 
Q 2128 388 2347 550 
Q 2566 713 2694 1069 
z
M 847 1978 
L 2700 1978 
Q 2663 2397 2488 2606 
Q 2219 2931 1791 2931 
Q 1403 2931 1139 2672 
Q 875 2413 847 1978 
z
" transform="scale(0.015625)"/>
       <path id="ArialMT-20" transform="scale(0.015625)"/>
       <path id="ArialMT-72" d="M 416 0 
L 416 3319 
L 922 3319 
L 922 2816 
Q 1116 3169 1280 3281 
Q 1444 3394 1641 3394 
Q 1925 3394 2219 3213 
L 2025 2691 
Q 1819 2813 1613 2813 
Q 1428 2813 1281 2702 
Q 1134 2591 1072 2394 
Q 978 2094 978 1738 
L 978 0 
L 416 0 
z
" transform="scale(0.015625)"/>
       <path id="ArialMT-6f" d="M 213 1659 
Q 213 2581 725 3025 
Q 1153 3394 1769 3394 
Q 2453 3394 2887 2945 
Q 3322 2497 3322 1706 
Q 3322 1066 3130 698 
Q 2938 331 2570 128 
Q 2203 -75 1769 -75 
Q 1072 -75 642 372 
Q 213 819 213 1659 
z
M 791 1659 
Q 791 1022 1069 705 
Q 1347 388 1769 388 
Q 2188 388 2466 706 
Q 2744 1025 2744 1678 
Q 2744 2294 2464 2611 
Q 2184 2928 1769 2928 
Q 1347 2928 1069 2612 
Q 791 2297 791 1659 
z
" transform="scale(0.015625)"/>
       <path id="ArialMT-62" d="M 941 0 
L 419 0 
L 419 4581 
L 981 4581 
L 981 2947 
Q 1338 3394 1891 3394 
Q 2197 3394 2470 3270 
Q 2744 3147 2920 2923 
Q 3097 2700 3197 2384 
Q 3297 2069 3297 1709 
Q 3297 856 2875 390 
Q 2453 -75 1863 -75 
Q 1275 -75 941 416 
L 941 0 
z
M 934 1684 
Q 934 1088 1097 822 
Q 1363 388 1816 388 
Q 2184 388 2453 708 
Q 2722 1028 2722 1663 
Q 2722 2313 2464 2622 
Q 2206 2931 1841 2931 
Q 1472 2931 1203 2611 
Q 934 2291 934 1684 
z
" transform="scale(0.015625)"/>
       <path id="ArialMT-69" d="M 425 3934 
L 425 4581 
L 988 4581 
L 988 3934 
L 425 3934 
z
M 425 0 
L 425 3319 
L 988 3319 
L 988 0 
L 425 0 
z
" transform="scale(0.015625)"/>
       <path id="ArialMT-6c" d="M 409 0 
L 409 4581 
L 972 4581 
L 972 0 
L 409 0 
z
" transform="scale(0.015625)"/>
       <path id="ArialMT-74" d="M 1650 503 
L 1731 6 
Q 1494 -44 1306 -44 
Q 1000 -44 831 53 
Q 663 150 594 308 
Q 525 466 525 972 
L 525 2881 
L 113 2881 
L 113 3319 
L 525 3319 
L 525 4141 
L 1084 4478 
L 1084 3319 
L 1650 3319 
L 1650 2881 
L 1084 2881 
L 1084 941 
Q 1084 700 1114 631 
Q 1144 563 1211 522 
Q 1278 481 1403 481 
Q 1497 481 1650 503 
z
" transform="scale(0.015625)"/>
       <path id="ArialMT-79" d="M 397 -1278 
L 334 -750 
Q 519 -800 656 -800 
Q 844 -800 956 -737 
Q 1069 -675 1141 -563 
Q 1194 -478 1313 -144 
Q 1328 -97 1363 -6 
L 103 3319 
L 709 3319 
L 1400 1397 
Q 1534 1031 1641 628 
Q 1738 1016 1872 1384 
L 2581 3319 
L 3144 3319 
L 1881 -56 
Q 1678 -603 1566 -809 
Q 1416 -1088 1222 -1217 
Q 1028 -1347 759 -1347 
Q 597 -1347 397 -1278 
z
" transform="scale(0.015625)"/>
      </defs>
      <use xlink:href="#ArialMT-44"/>
      <use xlink:href="#ArialMT-61" x="72.216797"/>
      <use xlink:href="#ArialMT-6d" x="127.832031"/>
      <use xlink:href="#ArialMT-61" x="211.132812"/>
      <use xlink:href="#ArialMT-67" x="266.748047"/>
      <use xlink:href="#ArialMT-65" x="322.363281"/>
      <use xlink:href="#ArialMT-20" x="377.978516"/>
      <use xlink:href="#ArialMT-50" x="405.761719"/>
      <use xlink:href="#ArialMT-72" x="472.460938"/>
      <use xlink:href="#ArialMT-6f" x="505.761719"/>
      <use xlink:href="#ArialMT-62" x="561.376953"/>
      <use xlink:href="#ArialMT-61" x="616.992188"/>
      <use xlink:href="#ArialMT-62" x="672.607422"/>
      <use xlink:href="#ArialMT-69" x="728.222656"/>
      <use xlink:href="#ArialMT-6c" x="750.439453"/>
      <use xlink:href="#ArialMT-69" x="772.65625"/>
      <use xlink:href="#ArialMT-74" x="794.873047"/>
      <use xlink:href="#ArialMT-79" x="822.65625"/>
     </g>
    </g>
   </g>
   <g id="line2d_34">
    <path d="M 31.371383 114.649827 
L 32.662922 111.262139 
L 33.954461 103.480322 
L 35.246 94.624786 
L 36.537539 86.411194 
L 37.829078 79.428939 
L 39.120617 73.773984 
L 40.412156 69.349188 
L 41.703695 65.994439 
L 42.995234 63.541194 
L 44.286773 61.833926 
L 45.578312 60.73711 
L 46.869851 60.136011 
L 48.16139 59.935013 
L 49.452929 60.055119 
L 50.744468 60.431388 
L 52.036007 61.010581 
L 53.327546 61.749109 
L 54.619085 62.611321 
L 55.910624 63.568069 
L 57.202162 64.595533 
L 58.493701 65.674262 
L 59.78524 66.788384 
L 61.076779 67.924972 
L 62.368318 69.073511 
L 63.659857 70.22548 
L 64.951396 71.373995 
L 66.242935 72.513524 
L 67.534474 73.639652 
L 68.826013 74.748884 
L 70.117552 75.838489 
L 71.409091 76.906365 
L 72.70063 77.950929 
L 73.992169 78.971027 
L 75.283708 79.96586 
L 76.575247 80.93492 
L 77.866786 81.877937 
L 79.158325 82.794837 
L 80.449864 83.685706 
L 81.741403 84.550758 
L 83.032942 85.390311 
L 84.324481 86.204767 
L 85.61602 86.994593 
L 86.907559 87.760304 
L 88.199097 88.502455 
L 89.490636 89.22163 
L 90.782175 89.918432 
L 92.073714 90.593476 
L 93.365253 91.247383 
L 94.656792 91.880779 
L 95.948331 92.494284 
L 97.23987 93.088516 
L 98.531409 93.664085 
L 99.822948 94.221589 
L 101.114487 94.761618 
L 102.406026 95.284746 
L 103.697565 95.791534 
L 104.989104 96.282532 
L 106.280643 96.758269 
L 107.572182 97.219265 
L 108.863721 97.66602 
L 110.15526 98.099021 
L 111.446799 98.518738 
L 112.738338 98.925627 
L 114.029877 99.320129 
L 115.321416 99.702667 
L 116.612955 100.073653 
L 117.904493 100.433484 
L 119.196032 100.782542 
L 120.487571 101.121196 
L 121.77911 101.449802 
L 123.070649 101.768701 
L 124.362188 102.078226 
L 125.653727 102.378694 
L 126.945266 102.670412 
L 128.236805 102.953676 
L 129.528344 103.22877 
L 130.819883 103.495969 
L 132.111422 103.755537 
L 133.402961 104.007728 
L 134.6945 104.252787 
L 135.986039 104.490951 
L 137.277578 104.722446 
L 138.569117 104.947492 
L 139.860656 105.1663 
L 141.152195 105.379073 
L 142.443734 105.586007 
L 143.735273 105.787291 
L 145.026812 105.983105 
L 146.318351 106.173626 
L 147.60989 106.359023 
L 148.901428 106.539458 
L 150.192967 106.715087 
L 151.484506 106.886063 
L 152.776045 107.052531 
L 154.067584 107.214632 
L 155.359123 107.372501 
L 156.650662 107.52627 
L 157.942201 107.676064 
L 159.23374 107.822004 
" clip-path="url(#p911c7b9e48)" style="fill: none; stroke: #000000; stroke-linecap: square"/>
    <defs>
     <path id="mf73a117f1d" d="M 0 0.5 
C 0.132602 0.5 0.25979 0.447317 0.353553 0.353553 
C 0.447317 0.25979 0.5 0.132602 0.5 0 
C 0.5 -0.132602 0.447317 -0.25979 0.353553 -0.353553 
C 0.25979 -0.447317 0.132602 -0.5 0 -0.5 
C -0.132602 -0.5 -0.25979 -0.447317 -0.353553 -0.353553 
C -0.447317 -0.25979 -0.5 -0.132602 -0.5 0 
C -0.5 0.132602 -0.447317 0.25979 -0.353553 0.353553 
C -0.25979 0.447317 -0.132602 0.5 0 0.5 
z
" style="stroke: #000000; stroke-width: 0.8"/>
    </defs>
    <g clip-path="url(#p911c7b9e48)">
     <use xlink:href="#mf73a117f1d" x="31.371383" y="114.649827" style="fill-opacity: 0; stroke: #000000; stroke-width: 0.8"/>
     <use xlink:href="#mf73a117f1d" x="44.286773" y="61.833926" style="fill-opacity: 0; stroke: #000000; stroke-width: 0.8"/>
     <use xlink:href="#mf73a117f1d" x="57.202162" y="64.595533" style="fill-opacity: 0; stroke: #000000; stroke-width: 0.8"/>
     <use xlink:href="#mf73a117f1d" x="70.117552" y="75.838489" style="fill-opacity: 0; stroke: #000000; stroke-width: 0.8"/>
     <use xlink:href="#mf73a117f1d" x="83.032942" y="85.390311" style="fill-opacity: 0; stroke: #000000; stroke-width: 0.8"/>
     <use xlink:href="#mf73a117f1d" x="95.948331" y="92.494284" style="fill-opacity: 0; stroke: #000000; stroke-width: 0.8"/>
     <use xlink:href="#mf73a117f1d" x="108.863721" y="97.66602" style="fill-opacity: 0; stroke: #000000; stroke-width: 0.8"/>
     <use xlink:href="#mf73a117f1d" x="121.77911" y="101.449802" style="fill-opacity: 0; stroke: #000000; stroke-width: 0.8"/>
     <use xlink:href="#mf73a117f1d" x="134.6945" y="104.252787" style="fill-opacity: 0; stroke: #000000; stroke-width: 0.8"/>
     <use xlink:href="#mf73a117f1d" x="147.60989" y="106.359023" style="fill-opacity: 0; stroke: #000000; stroke-width: 0.8"/>
    </g>
   </g>
   <g id="line2d_35">
    <path d="M 31.371383 114.692279 
L 32.662922 114.660008 
L 33.954461 114.254925 
L 35.246 112.973814 
L 36.537539 110.617339 
L 37.829078 107.279586 
L 39.120617 103.194412 
L 40.412156 98.626277 
L 41.703695 93.816019 
L 42.995234 88.96072 
L 44.286773 84.210821 
L 45.578312 79.674745 
L 46.869851 75.426017 
L 48.16139 71.510556 
L 49.452929 67.953177 
L 50.744468 64.763007 
L 52.036007 61.937823 
L 53.327546 59.467429 
L 54.619085 57.336246 
L 55.910624 55.525263 
L 57.202162 54.01348 
L 58.493701 52.778974 
L 59.78524 51.799657 
L 61.076779 51.053819 
L 62.368318 50.520487 
L 63.659857 50.179672 
L 64.951396 50.012518 
L 66.242935 50.001372 
L 67.534474 50.129823 
L 68.826013 50.382689 
L 70.117552 50.745987 
L 71.409091 51.206889 
L 72.70063 51.753661 
L 73.992169 52.375599 
L 75.283708 53.062965 
L 76.575247 53.806915 
L 77.866786 54.599436 
L 79.158325 55.433282 
L 80.449864 56.301908 
L 81.741403 57.199416 
L 83.032942 58.120497 
L 84.324481 59.060384 
L 85.61602 60.0148 
L 86.907559 60.979915 
L 88.199097 61.95231 
L 89.490636 62.928932 
L 90.782175 63.907067 
L 92.073714 64.884304 
L 93.365253 65.858508 
L 94.656792 66.827793 
L 95.948331 67.790503 
L 97.23987 68.745181 
L 98.531409 69.690557 
L 99.822948 70.625529 
L 101.114487 71.549141 
L 102.406026 72.460578 
L 103.697565 73.359141 
L 104.989104 74.244245 
L 106.280643 75.115401 
L 107.572182 75.972209 
L 108.863721 76.814349 
L 110.15526 77.641572 
L 111.446799 78.453691 
L 112.738338 79.250577 
L 114.029877 80.032152 
L 115.321416 80.798382 
L 116.612955 81.549272 
L 117.904493 82.284866 
L 119.196032 83.005235 
L 120.487571 83.71048 
L 121.77911 84.400726 
L 123.070649 85.076118 
L 124.362188 85.73682 
L 125.653727 86.383014 
L 126.945266 87.014891 
L 128.236805 87.632658 
L 129.528344 88.236529 
L 130.819883 88.826729 
L 132.111422 89.403486 
L 133.402961 89.967038 
L 134.6945 90.517623 
L 135.986039 91.055485 
L 137.277578 91.580869 
L 138.569117 92.094021 
L 139.860656 92.59519 
L 141.152195 93.084622 
L 142.443734 93.562564 
L 143.735273 94.029262 
L 145.026812 94.48496 
L 146.318351 94.9299 
L 147.60989 95.364322 
L 148.901428 95.788463 
L 150.192967 96.202557 
L 151.484506 96.606835 
L 152.776045 97.001525 
L 154.067584 97.386851 
L 155.359123 97.763034 
L 156.650662 98.13029 
L 157.942201 98.488832 
L 159.23374 98.838869 
" clip-path="url(#p911c7b9e48)" style="fill: none; stroke-dasharray: 5.12,1.28,0.8,1.28; stroke-dashoffset: 0; stroke: #3c5488; stroke-width: 0.8"/>
    <defs>
     <path id="mbb251af7e6" d="M 0 0.5 
C 0.132602 0.5 0.25979 0.447317 0.353553 0.353553 
C 0.447317 0.25979 0.5 0.132602 0.5 0 
C 0.5 -0.132602 0.447317 -0.25979 0.353553 -0.353553 
C 0.25979 -0.447317 0.132602 -0.5 0 -0.5 
C -0.132602 -0.5 -0.25979 -0.447317 -0.353553 -0.353553 
C -0.447317 -0.25979 -0.5 -0.132602 -0.5 0 
C -0.5 0.132602 -0.447317 0.25979 -0.353553 0.353553 
C -0.25979 0.447317 -0.132602 0.5 0 0.5 
z
" style="stroke: #3c5488; stroke-width: 0.8"/>
    </defs>
    <g clip-path="url(#p911c7b9e48)">
     <use xlink:href="#mbb251af7e6" x="31.371383" y="114.692279" style="fill-opacity: 0; stroke: #3c5488; stroke-width: 0.8"/>
     <use xlink:href="#mbb251af7e6" x="44.286773" y="84.210821" style="fill-opacity: 0; stroke: #3c5488; stroke-width: 0.8"/>
     <use xlink:href="#mbb251af7e6" x="57.202162" y="54.01348" style="fill-opacity: 0; stroke: #3c5488; stroke-width: 0.8"/>
     <use xlink:href="#mbb251af7e6" x="70.117552" y="50.745987" style="fill-opacity: 0; stroke: #3c5488; stroke-width: 0.8"/>
     <use xlink:href="#mbb251af7e6" x="83.032942" y="58.120497" style="fill-opacity: 0; stroke: #3c5488; stroke-width: 0.8"/>
     <use xlink:href="#mbb251af7e6" x="95.948331" y="67.790503" style="fill-opacity: 0; stroke: #3c5488; stroke-width: 0.8"/>
     <use xlink:href="#mbb251af7e6" x="108.863721" y="76.814349" style="fill-opacity: 0; stroke: #3c5488; stroke-width: 0.8"/>
     <use xlink:href="#mbb251af7e6" x="121.77911" y="84.400726" style="fill-opacity: 0; stroke: #3c5488; stroke-width: 0.8"/>
     <use xlink:href="#mbb251af7e6" x="134.6945" y="90.517623" style="fill-opacity: 0; stroke: #3c5488; stroke-width: 0.8"/>
     <use xlink:href="#mbb251af7e6" x="147.60989" y="95.364322" style="fill-opacity: 0; stroke: #3c5488; stroke-width: 0.8"/>
    </g>
   </g>
   <g id="line2d_36">
    <path d="M 31.371383 114.677615 
L 32.662922 112.342625 
L 33.954461 105.438371 
L 35.246 96.502112 
L 36.537539 87.553861 
L 37.829078 79.53915 
L 39.120617 72.786526 
L 40.412156 67.326619 
L 41.703695 63.060217 
L 42.995234 59.840945 
L 44.286773 57.514331 
L 45.578312 55.935185 
L 46.869851 54.974331 
L 48.16139 54.520215 
L 49.452929 54.478175 
L 50.744468 54.768744 
L 52.036007 55.325662 
L 53.327546 56.093934 
L 54.619085 57.028056 
L 55.910624 58.090461 
L 57.202162 59.250197 
L 58.493701 60.481802 
L 59.78524 61.764373 
L 61.076779 63.080784 
L 62.368318 64.417041 
L 63.659857 65.761745 
L 64.951396 67.105646 
L 66.242935 68.441281 
L 67.534474 69.762666 
L 68.826013 71.065042 
L 70.117552 72.344669 
L 71.409091 73.598651 
L 72.70063 74.824788 
L 73.992169 76.021461 
L 75.283708 77.187525 
L 76.575247 78.322232 
L 77.866786 79.425155 
L 79.158325 80.496134 
L 80.449864 81.535224 
L 81.741403 82.542656 
L 83.032942 83.518803 
L 84.324481 84.464151 
L 85.61602 85.379274 
L 86.907559 86.264815 
L 88.199097 87.121472 
L 89.490636 87.949978 
L 90.782175 88.751097 
L 92.073714 89.525607 
L 93.365253 90.274299 
L 94.656792 90.997965 
L 95.948331 91.697397 
L 97.23987 92.373379 
L 98.531409 93.026685 
L 99.822948 93.658077 
L 101.114487 94.268304 
L 102.406026 94.858094 
L 103.697565 95.428161 
L 104.989104 95.979199 
L 106.280643 96.511881 
L 107.572182 97.026861 
L 108.863721 97.524773 
L 110.15526 98.00623 
L 111.446799 98.471826 
L 112.738338 98.922133 
L 114.029877 99.357706 
L 115.321416 99.779076 
L 116.612955 100.186759 
L 117.904493 100.581251 
L 119.196032 100.96303 
L 120.487571 101.332554 
L 121.77911 101.690268 
L 123.070649 102.036597 
L 124.362188 102.371952 
L 125.653727 102.696726 
L 126.945266 103.011299 
L 128.236805 103.316037 
L 129.528344 103.611289 
L 130.819883 103.897394 
L 132.111422 104.174675 
L 133.402961 104.443444 
L 134.6945 104.704002 
L 135.986039 104.956637 
L 137.277578 105.201625 
L 138.569117 105.439234 
L 139.860656 105.66972 
L 141.152195 105.893329 
L 142.443734 106.110298 
L 143.735273 106.320855 
L 145.026812 106.52522 
L 146.318351 106.723603 
L 147.60989 106.916207 
L 148.901428 107.103227 
L 150.192967 107.284851 
L 151.484506 107.461261 
L 152.776045 107.632629 
L 154.067584 107.799123 
L 155.359123 107.960904 
L 156.650662 108.118127 
L 157.942201 108.270943 
L 159.23374 108.419494 
" clip-path="url(#p911c7b9e48)" style="fill: none; stroke-dasharray: 2.96,1.28; stroke-dashoffset: 0; stroke: #dc0000; stroke-width: 0.8"/>
    <defs>
     <path id="me282522e88" d="M 0 0.5 
C 0.132602 0.5 0.25979 0.447317 0.353553 0.353553 
C 0.447317 0.25979 0.5 0.132602 0.5 0 
C 0.5 -0.132602 0.447317 -0.25979 0.353553 -0.353553 
C 0.25979 -0.447317 0.132602 -0.5 0 -0.5 
C -0.132602 -0.5 -0.25979 -0.447317 -0.353553 -0.353553 
C -0.447317 -0.25979 -0.5 -0.132602 -0.5 0 
C -0.5 0.132602 -0.447317 0.25979 -0.353553 0.353553 
C -0.25979 0.447317 -0.132602 0.5 0 0.5 
z
" style="stroke: #dc0000; stroke-width: 0.8"/>
    </defs>
    <g clip-path="url(#p911c7b9e48)">
     <use xlink:href="#me282522e88" x="31.371383" y="114.677615" style="fill-opacity: 0; stroke: #dc0000; stroke-width: 0.8"/>
     <use xlink:href="#me282522e88" x="44.286773" y="57.514331" style="fill-opacity: 0; stroke: #dc0000; stroke-width: 0.8"/>
     <use xlink:href="#me282522e88" x="57.202162" y="59.250197" style="fill-opacity: 0; stroke: #dc0000; stroke-width: 0.8"/>
     <use xlink:href="#me282522e88" x="70.117552" y="72.344669" style="fill-opacity: 0; stroke: #dc0000; stroke-width: 0.8"/>
     <use xlink:href="#me282522e88" x="83.032942" y="83.518803" style="fill-opacity: 0; stroke: #dc0000; stroke-width: 0.8"/>
     <use xlink:href="#me282522e88" x="95.948331" y="91.697397" style="fill-opacity: 0; stroke: #dc0000; stroke-width: 0.8"/>
     <use xlink:href="#me282522e88" x="108.863721" y="97.524773" style="fill-opacity: 0; stroke: #dc0000; stroke-width: 0.8"/>
     <use xlink:href="#me282522e88" x="121.77911" y="101.690268" style="fill-opacity: 0; stroke: #dc0000; stroke-width: 0.8"/>
     <use xlink:href="#me282522e88" x="134.6945" y="104.704002" style="fill-opacity: 0; stroke: #dc0000; stroke-width: 0.8"/>
     <use xlink:href="#me282522e88" x="147.60989" y="106.916207" style="fill-opacity: 0; stroke: #dc0000; stroke-width: 0.8"/>
    </g>
   </g>
   <g id="line2d_37">
    <path d="M 31.371383 114.692746 
L 32.662922 114.660317 
L 33.954461 114.334084 
L 35.246 113.572144 
L 36.537539 112.418473 
L 37.829078 110.973793 
L 39.120617 109.338744 
L 40.412156 107.596939 
L 41.703695 105.812675 
L 42.995234 104.033285 
L 44.286773 102.292484 
L 45.578312 100.613514 
L 46.869851 99.011737 
L 48.16139 97.496678 
L 49.452929 96.073583 
L 50.744468 94.744596 
L 52.036007 93.50964 
L 53.327546 92.367072 
L 54.619085 91.314173 
L 55.910624 90.347504 
L 57.202162 89.463177 
L 58.493701 88.657047 
L 59.78524 87.924855 
L 61.076779 87.262328 
L 62.368318 86.665258 
L 63.659857 86.129546 
L 64.951396 85.65124 
L 66.242935 85.226559 
L 67.534474 84.851901 
L 68.826013 84.523853 
L 70.117552 84.239191 
L 71.409091 83.99488 
L 72.70063 83.788066 
L 73.992169 83.616075 
L 75.283708 83.476399 
L 76.575247 83.366696 
L 77.866786 83.284773 
L 79.158325 83.228585 
L 80.449864 83.196224 
L 81.741403 83.185908 
L 83.032942 83.195977 
L 84.324481 83.224884 
L 85.61602 83.271187 
L 86.907559 83.333542 
L 88.199097 83.410697 
L 89.490636 83.501488 
L 90.782175 83.604828 
L 92.073714 83.719706 
L 93.365253 83.84518 
L 94.656792 83.980374 
L 95.948331 84.124471 
L 97.23987 84.276709 
L 98.531409 84.436382 
L 99.822948 84.602828 
L 101.114487 84.775434 
L 102.406026 84.953627 
L 103.697565 85.136875 
L 104.989104 85.324682 
L 106.280643 85.516584 
L 107.572182 85.712153 
L 108.863721 85.910987 
L 110.15526 86.112713 
L 111.446799 86.316984 
L 112.738338 86.523478 
L 114.029877 86.731892 
L 115.321416 86.941948 
L 116.612955 87.153385 
L 117.904493 87.365961 
L 119.196032 87.57945 
L 120.487571 87.793644 
L 121.77911 88.008348 
L 123.070649 88.223381 
L 124.362188 88.438576 
L 125.653727 88.653776 
L 126.945266 88.868839 
L 128.236805 89.083629 
L 129.528344 89.298023 
L 130.819883 89.511907 
L 132.111422 89.725174 
L 133.402961 89.937726 
L 134.6945 90.149473 
L 135.986039 90.360331 
L 137.277578 90.570224 
L 138.569117 90.77908 
L 139.860656 90.986835 
L 141.152195 91.193429 
L 142.443734 91.398808 
L 143.735273 91.602921 
L 145.026812 91.805724 
L 146.318351 92.007176 
L 147.60989 92.207238 
L 148.901428 92.405878 
L 150.192967 92.603064 
L 151.484506 92.798769 
L 152.776045 92.99297 
L 154.067584 93.185644 
L 155.359123 93.376773 
L 156.650662 93.56634 
L 157.942201 93.75433 
L 159.23374 93.940732 
" clip-path="url(#p911c7b9e48)" style="fill: none; stroke: #000000; stroke-linecap: square"/>
    <defs>
     <path id="m7e3bc3b468" d="M -0.5 0.5 
L 0.5 -0.5 
M -0.5 -0.5 
L 0.5 0.5 
" style="stroke: #000000; stroke-width: 0.8"/>
    </defs>
    <g clip-path="url(#p911c7b9e48)">
     <use xlink:href="#m7e3bc3b468" x="31.371383" y="114.692746" style="fill-opacity: 0; stroke: #000000; stroke-width: 0.8"/>
     <use xlink:href="#m7e3bc3b468" x="44.286773" y="102.292484" style="fill-opacity: 0; stroke: #000000; stroke-width: 0.8"/>
     <use xlink:href="#m7e3bc3b468" x="57.202162" y="89.463177" style="fill-opacity: 0; stroke: #000000; stroke-width: 0.8"/>
     <use xlink:href="#m7e3bc3b468" x="70.117552" y="84.239191" style="fill-opacity: 0; stroke: #000000; stroke-width: 0.8"/>
     <use xlink:href="#m7e3bc3b468" x="83.032942" y="83.195977" style="fill-opacity: 0; stroke: #000000; stroke-width: 0.8"/>
     <use xlink:href="#m7e3bc3b468" x="95.948331" y="84.124471" style="fill-opacity: 0; stroke: #000000; stroke-width: 0.8"/>
     <use xlink:href="#m7e3bc3b468" x="108.863721" y="85.910987" style="fill-opacity: 0; stroke: #000000; stroke-width: 0.8"/>
     <use xlink:href="#m7e3bc3b468" x="121.77911" y="88.008348" style="fill-opacity: 0; stroke: #000000; stroke-width: 0.8"/>
     <use xlink:href="#m7e3bc3b468" x="134.6945" y="90.149473" style="fill-opacity: 0; stroke: #000000; stroke-width: 0.8"/>
     <use xlink:href="#m7e3bc3b468" x="147.60989" y="92.207238" style="fill-opacity: 0; stroke: #000000; stroke-width: 0.8"/>
    </g>
   </g>
   <g id="line2d_38">
    <path d="M 31.371383 114.692284 
L 32.662922 114.692773 
L 33.954461 114.697379 
L 35.246 114.706373 
L 36.537539 114.708484 
L 37.829078 114.684057 
L 39.120617 114.61147 
L 40.412156 114.471731 
L 41.703695 114.250674 
L 42.995234 113.939482 
L 44.286773 113.534281 
L 45.578312 113.035326 
L 46.869851 112.446085 
L 48.16139 111.772365 
L 49.452929 111.02156 
L 50.744468 110.20203 
L 52.036007 109.322617 
L 53.327546 108.392279 
L 54.619085 107.419811 
L 55.910624 106.413662 
L 57.202162 105.3818 
L 58.493701 104.331636 
L 59.78524 103.269976 
L 61.076779 102.203007 
L 62.368318 101.1363 
L 63.659857 100.074828 
L 64.951396 99.02299 
L 66.242935 97.984645 
L 67.534474 96.963151 
L 68.826013 95.961398 
L 70.117552 94.981852 
L 71.409091 94.026587 
L 72.70063 93.097326 
L 73.992169 92.195473 
L 75.283708 91.322146 
L 76.575247 90.478208 
L 77.866786 89.664293 
L 79.158325 88.880836 
L 80.449864 88.12809 
L 81.741403 87.406155 
L 83.032942 86.714993 
L 84.324481 86.054445 
L 85.61602 85.424251 
L 86.907559 84.82406 
L 88.199097 84.253447 
L 89.490636 83.71192 
L 90.782175 83.198934 
L 92.073714 82.713901 
L 93.365253 82.256192 
L 94.656792 81.825151 
L 95.948331 81.4201 
L 97.23987 81.040341 
L 98.531409 80.685164 
L 99.822948 80.353852 
L 101.114487 80.045683 
L 102.406026 79.759934 
L 103.697565 79.495884 
L 104.989104 79.252818 
L 106.280643 79.030024 
L 107.572182 78.826803 
L 108.863721 78.642464 
L 110.15526 78.476325 
L 111.446799 78.327721 
L 112.738338 78.195998 
L 114.029877 78.080517 
L 115.321416 77.980652 
L 116.612955 77.895794 
L 117.904493 77.82535 
L 119.196032 77.768741 
L 120.487571 77.725405 
L 121.77911 77.694796 
L 123.070649 77.676384 
L 124.362188 77.669655 
L 125.653727 77.67411 
L 126.945266 77.689266 
L 128.236805 77.714657 
L 129.528344 77.74983 
L 130.819883 77.794348 
L 132.111422 77.847788 
L 133.402961 77.909743 
L 134.6945 77.979819 
L 135.986039 78.057635 
L 137.277578 78.142824 
L 138.569117 78.235033 
L 139.860656 78.333921 
L 141.152195 78.439158 
L 142.443734 78.550429 
L 143.735273 78.667428 
L 145.026812 78.789862 
L 146.318351 78.917448 
L 147.60989 79.049913 
L 148.901428 79.186997 
L 150.192967 79.328448 
L 151.484506 79.474023 
L 152.776045 79.62349 
L 154.067584 79.776625 
L 155.359123 79.933214 
L 156.650662 80.093049 
L 157.942201 80.255933 
L 159.23374 80.421675 
" clip-path="url(#p911c7b9e48)" style="fill: none; stroke-dasharray: 5.12,1.28,0.8,1.28; stroke-dashoffset: 0; stroke: #3c5488; stroke-width: 0.8"/>
    <defs>
     <path id="m21bd48e12d" d="M -0.5 0.5 
L 0.5 -0.5 
M -0.5 -0.5 
L 0.5 0.5 
" style="stroke: #3c5488; stroke-width: 0.8"/>
    </defs>
    <g clip-path="url(#p911c7b9e48)">
     <use xlink:href="#m21bd48e12d" x="31.371383" y="114.692284" style="fill-opacity: 0; stroke: #3c5488; stroke-width: 0.8"/>
     <use xlink:href="#m21bd48e12d" x="44.286773" y="113.534281" style="fill-opacity: 0; stroke: #3c5488; stroke-width: 0.8"/>
     <use xlink:href="#m21bd48e12d" x="57.202162" y="105.3818" style="fill-opacity: 0; stroke: #3c5488; stroke-width: 0.8"/>
     <use xlink:href="#m21bd48e12d" x="70.117552" y="94.981852" style="fill-opacity: 0; stroke: #3c5488; stroke-width: 0.8"/>
     <use xlink:href="#m21bd48e12d" x="83.032942" y="86.714993" style="fill-opacity: 0; stroke: #3c5488; stroke-width: 0.8"/>
     <use xlink:href="#m21bd48e12d" x="95.948331" y="81.4201" style="fill-opacity: 0; stroke: #3c5488; stroke-width: 0.8"/>
     <use xlink:href="#m21bd48e12d" x="108.863721" y="78.642464" style="fill-opacity: 0; stroke: #3c5488; stroke-width: 0.8"/>
     <use xlink:href="#m21bd48e12d" x="121.77911" y="77.694796" style="fill-opacity: 0; stroke: #3c5488; stroke-width: 0.8"/>
     <use xlink:href="#m21bd48e12d" x="134.6945" y="77.979819" style="fill-opacity: 0; stroke: #3c5488; stroke-width: 0.8"/>
     <use xlink:href="#m21bd48e12d" x="147.60989" y="79.049913" style="fill-opacity: 0; stroke: #3c5488; stroke-width: 0.8"/>
    </g>
   </g>
   <g id="line2d_39">
    <path d="M 31.371383 114.692499 
L 32.662922 114.698502 
L 33.954461 114.578787 
L 35.246 114.150969 
L 36.537539 113.360742 
L 37.829078 112.240757 
L 39.120617 110.857786 
L 40.412156 109.284375 
L 41.703695 107.586617 
L 42.995234 105.82001 
L 44.286773 104.029011 
L 45.578312 102.248075 
L 46.869851 100.503176 
L 48.16139 98.813352 
L 49.452929 97.192097 
L 50.744468 95.648544 
L 52.036007 94.188434 
L 53.327546 92.814901 
L 54.619085 91.529093 
L 55.910624 90.33067 
L 57.202162 89.218186 
L 58.493701 88.189394 
L 59.78524 87.24148 
L 61.076779 86.371249 
L 62.368318 85.575257 
L 63.659857 84.849929 
L 64.951396 84.191632 
L 66.242935 83.596741 
L 67.534474 83.061684 
L 68.826013 82.582973 
L 70.117552 82.157233 
L 71.409091 81.781213 
L 72.70063 81.451798 
L 73.992169 81.166018 
L 75.283708 80.921046 
L 76.575247 80.714201 
L 77.866786 80.542947 
L 79.158325 80.404888 
L 80.449864 80.297764 
L 81.741403 80.219447 
L 83.032942 80.167933 
L 84.324481 80.141342 
L 85.61602 80.137906 
L 86.907559 80.155967 
L 88.199097 80.193967 
L 89.490636 80.250451 
L 90.782175 80.32405 
L 92.073714 80.413485 
L 93.365253 80.517558 
L 94.656792 80.635146 
L 95.948331 80.765199 
L 97.23987 80.906736 
L 98.531409 81.058836 
L 99.822948 81.22064 
L 101.114487 81.391344 
L 102.406026 81.570197 
L 103.697565 81.756494 
L 104.989104 81.94958 
L 106.280643 82.14884 
L 107.572182 82.3537 
L 108.863721 82.563624 
L 110.15526 82.77811 
L 111.446799 82.996692 
L 112.738338 83.21893 
L 114.029877 83.444418 
L 115.321416 83.672774 
L 116.612955 83.903643 
L 117.904493 84.136691 
L 119.196032 84.371611 
L 120.487571 84.608112 
L 121.77911 84.845926 
L 123.070649 85.084801 
L 124.362188 85.324503 
L 125.653727 85.564815 
L 126.945266 85.805534 
L 128.236805 86.046471 
L 129.528344 86.28745 
L 130.819883 86.528308 
L 132.111422 86.768893 
L 133.402961 87.009066 
L 134.6945 87.248695 
L 135.986039 87.487659 
L 137.277578 87.725847 
L 138.569117 87.963154 
L 139.860656 88.199486 
L 141.152195 88.434752 
L 142.443734 88.668873 
L 143.735273 88.901773 
L 145.026812 89.133382 
L 146.318351 89.363639 
L 147.60989 89.592484 
L 148.901428 89.819865 
L 150.192967 90.045734 
L 151.484506 90.270046 
L 152.776045 90.492763 
L 154.067584 90.713848 
L 155.359123 90.933269 
L 156.650662 91.150996 
L 157.942201 91.367006 
L 159.23374 91.581273 
" clip-path="url(#p911c7b9e48)" style="fill: none; stroke-dasharray: 2.96,1.28; stroke-dashoffset: 0; stroke: #dc0000; stroke-width: 0.8"/>
    <g clip-path="url(#p911c7b9e48)">
     <use xlink:href="#me282522e88" x="31.371383" y="114.692499" style="fill-opacity: 0; stroke: #dc0000; stroke-width: 0.8"/>
     <use xlink:href="#me282522e88" x="44.286773" y="104.029011" style="fill-opacity: 0; stroke: #dc0000; stroke-width: 0.8"/>
     <use xlink:href="#me282522e88" x="57.202162" y="89.218186" style="fill-opacity: 0; stroke: #dc0000; stroke-width: 0.8"/>
     <use xlink:href="#me282522e88" x="70.117552" y="82.157233" style="fill-opacity: 0; stroke: #dc0000; stroke-width: 0.8"/>
     <use xlink:href="#me282522e88" x="83.032942" y="80.167933" style="fill-opacity: 0; stroke: #dc0000; stroke-width: 0.8"/>
     <use xlink:href="#me282522e88" x="95.948331" y="80.765199" style="fill-opacity: 0; stroke: #dc0000; stroke-width: 0.8"/>
     <use xlink:href="#me282522e88" x="108.863721" y="82.563624" style="fill-opacity: 0; stroke: #dc0000; stroke-width: 0.8"/>
     <use xlink:href="#me282522e88" x="121.77911" y="84.845926" style="fill-opacity: 0; stroke: #dc0000; stroke-width: 0.8"/>
     <use xlink:href="#me282522e88" x="134.6945" y="87.248695" style="fill-opacity: 0; stroke: #dc0000; stroke-width: 0.8"/>
     <use xlink:href="#me282522e88" x="147.60989" y="89.592484" style="fill-opacity: 0; stroke: #dc0000; stroke-width: 0.8"/>
    </g>
   </g>
   <g id="line2d_40">
    <path d="M 31.371383 114.691563 
L 32.662922 114.599474 
L 33.954461 114.268741 
L 35.246 113.715183 
L 36.537539 112.999354 
L 37.829078 112.177304 
L 39.120617 111.292601 
L 40.412156 110.377295 
L 41.703695 109.454403 
L 42.995234 108.540193 
L 44.286773 107.645987 
L 45.578312 106.779499 
L 46.869851 105.945816 
L 48.16139 105.148116 
L 49.452929 104.388189 
L 50.744468 103.666814 
L 52.036007 102.984049 
L 53.327546 102.339429 
L 54.619085 101.732123 
L 55.910624 101.161049 
L 57.202162 100.624955 
L 58.493701 100.122484 
L 59.78524 99.652219 
L 61.076779 99.212718 
L 62.368318 98.802541 
L 63.659857 98.420263 
L 64.951396 98.064493 
L 66.242935 97.733881 
L 67.534474 97.427122 
L 68.826013 97.142962 
L 70.117552 96.8802 
L 71.409091 96.63769 
L 72.70063 96.414338 
L 73.992169 96.209105 
L 75.283708 96.021004 
L 76.575247 95.849096 
L 77.866786 95.692494 
L 79.158325 95.550356 
L 80.449864 95.421886 
L 81.741403 95.306328 
L 83.032942 95.202971 
L 84.324481 95.111139 
L 85.61602 95.030195 
L 86.907559 94.959536 
L 88.199097 94.898592 
L 89.490636 94.846823 
L 90.782175 94.803721 
L 92.073714 94.768803 
L 93.365253 94.741614 
L 94.656792 94.721723 
L 95.948331 94.708722 
L 97.23987 94.702228 
L 98.531409 94.701874 
L 99.822948 94.707316 
L 101.114487 94.718227 
L 102.406026 94.734299 
L 103.697565 94.755239 
L 104.989104 94.780771 
L 106.280643 94.810631 
L 107.572182 94.844571 
L 108.863721 94.882357 
L 110.15526 94.923765 
L 111.446799 94.968585 
L 112.738338 95.016615 
L 114.029877 95.067665 
L 115.321416 95.121557 
L 116.612955 95.178119 
L 117.904493 95.237189 
L 119.196032 95.298613 
L 120.487571 95.362247 
L 121.77911 95.427951 
L 123.070649 95.495595 
L 124.362188 95.565054 
L 125.653727 95.63621 
L 126.945266 95.70895 
L 128.236805 95.783168 
L 129.528344 95.858763 
L 130.819883 95.935639 
L 132.111422 96.013705 
L 133.402961 96.092873 
L 134.6945 96.173062 
L 135.986039 96.254193 
L 137.277578 96.336192 
L 138.569117 96.418989 
L 139.860656 96.502517 
L 141.152195 96.586711 
L 142.443734 96.671511 
L 143.735273 96.756861 
L 145.026812 96.842705 
L 146.318351 96.928991 
L 147.60989 97.01567 
L 148.901428 97.102696 
L 150.192967 97.190023 
L 151.484506 97.27761 
L 152.776045 97.365416 
L 154.067584 97.453404 
L 155.359123 97.541537 
L 156.650662 97.629781 
L 157.942201 97.718104 
L 159.23374 97.806473 
" clip-path="url(#p911c7b9e48)" style="fill: none; stroke: #000000; stroke-linecap: square"/>
    <defs>
     <path id="mc2da282ff4" d="M 0 -0.5 
L -0.5 0.5 
L 0.5 0.5 
z
" style="stroke: #000000; stroke-width: 0.8; stroke-linejoin: miter"/>
    </defs>
    <g clip-path="url(#p911c7b9e48)">
     <use xlink:href="#mc2da282ff4" x="31.371383" y="114.691563" style="fill-opacity: 0; stroke: #000000; stroke-width: 0.8; stroke-linejoin: miter"/>
     <use xlink:href="#mc2da282ff4" x="44.286773" y="107.645987" style="fill-opacity: 0; stroke: #000000; stroke-width: 0.8; stroke-linejoin: miter"/>
     <use xlink:href="#mc2da282ff4" x="57.202162" y="100.624955" style="fill-opacity: 0; stroke: #000000; stroke-width: 0.8; stroke-linejoin: miter"/>
     <use xlink:href="#mc2da282ff4" x="70.117552" y="96.8802" style="fill-opacity: 0; stroke: #000000; stroke-width: 0.8; stroke-linejoin: miter"/>
     <use xlink:href="#mc2da282ff4" x="83.032942" y="95.202971" style="fill-opacity: 0; stroke: #000000; stroke-width: 0.8; stroke-linejoin: miter"/>
     <use xlink:href="#mc2da282ff4" x="95.948331" y="94.708722" style="fill-opacity: 0; stroke: #000000; stroke-width: 0.8; stroke-linejoin: miter"/>
     <use xlink:href="#mc2da282ff4" x="108.863721" y="94.882357" style="fill-opacity: 0; stroke: #000000; stroke-width: 0.8; stroke-linejoin: miter"/>
     <use xlink:href="#mc2da282ff4" x="121.77911" y="95.427951" style="fill-opacity: 0; stroke: #000000; stroke-width: 0.8; stroke-linejoin: miter"/>
     <use xlink:href="#mc2da282ff4" x="134.6945" y="96.173062" style="fill-opacity: 0; stroke: #000000; stroke-width: 0.8; stroke-linejoin: miter"/>
     <use xlink:href="#mc2da282ff4" x="147.60989" y="97.01567" style="fill-opacity: 0; stroke: #000000; stroke-width: 0.8; stroke-linejoin: miter"/>
    </g>
   </g>
   <g id="line2d_41">
    <path d="M 31.371383 114.692283 
L 32.662922 114.691774 
L 33.954461 114.685255 
L 35.246 114.661424 
L 36.537539 114.609025 
L 37.829078 114.519854 
L 39.120617 114.389145 
L 40.412156 114.215024 
L 41.703695 113.997773 
L 42.995234 113.739169 
L 44.286773 113.441961 
L 45.578312 113.109474 
L 46.869851 112.745327 
L 48.16139 112.353234 
L 49.452929 111.936867 
L 50.744468 111.499771 
L 52.036007 111.045301 
L 53.327546 110.576593 
L 54.619085 110.096549 
L 55.910624 109.607828 
L 57.202162 109.112852 
L 58.493701 108.613815 
L 59.78524 108.11269 
L 61.076779 107.611246 
L 62.368318 107.111061 
L 63.659857 106.613534 
L 64.951396 106.119905 
L 66.242935 105.631262 
L 67.534474 105.148557 
L 68.826013 104.67262 
L 70.117552 104.204169 
L 71.409091 103.743818 
L 72.70063 103.292092 
L 73.992169 102.849432 
L 75.283708 102.416205 
L 76.575247 101.992713 
L 77.866786 101.579195 
L 79.158325 101.175838 
L 80.449864 100.782783 
L 81.741403 100.400126 
L 83.032942 100.027925 
L 84.324481 99.666206 
L 85.61602 99.314964 
L 86.907559 98.974168 
L 88.199097 98.643764 
L 89.490636 98.323675 
L 90.782175 98.013811 
L 92.073714 97.714062 
L 93.365253 97.424306 
L 94.656792 97.144411 
L 95.948331 96.874232 
L 97.23987 96.613618 
L 98.531409 96.362409 
L 99.822948 96.12044 
L 101.114487 95.887542 
L 102.406026 95.66354 
L 103.697565 95.448258 
L 104.989104 95.241517 
L 106.280643 95.043136 
L 107.572182 94.852934 
L 108.863721 94.670728 
L 110.15526 94.496338 
L 111.446799 94.329582 
L 112.738338 94.17028 
L 114.029877 94.018252 
L 115.321416 93.873322 
L 116.612955 93.735313 
L 117.904493 93.604052 
L 119.196032 93.479368 
L 120.487571 93.361091 
L 121.77911 93.249054 
L 123.070649 93.143095 
L 124.362188 93.043052 
L 125.653727 92.948767 
L 126.945266 92.860083 
L 128.236805 92.77685 
L 129.528344 92.698916 
L 130.819883 92.626136 
L 132.111422 92.558366 
L 133.402961 92.495465 
L 134.6945 92.437297 
L 135.986039 92.383726 
L 137.277578 92.334621 
L 138.569117 92.289854 
L 139.860656 92.249299 
L 141.152195 92.212833 
L 142.443734 92.180337 
L 143.735273 92.151695 
L 145.026812 92.126791 
L 146.318351 92.105515 
L 147.60989 92.087758 
L 148.901428 92.073414 
L 150.192967 92.062381 
L 151.484506 92.054557 
L 152.776045 92.049845 
L 154.067584 92.048148 
L 155.359123 92.049375 
L 156.650662 92.053434 
L 157.942201 92.060237 
L 159.23374 92.069698 
" clip-path="url(#p911c7b9e48)" style="fill: none; stroke-dasharray: 5.12,1.28,0.8,1.28; stroke-dashoffset: 0; stroke: #3c5488; stroke-width: 0.8"/>
    <defs>
     <path id="m1c1928d110" d="M 0 -0.5 
L -0.5 0.5 
L 0.5 0.5 
z
" style="stroke: #3c5488; stroke-width: 0.8; stroke-linejoin: miter"/>
    </defs>
    <g clip-path="url(#p911c7b9e48)">
     <use xlink:href="#m1c1928d110" x="31.371383" y="114.692283" style="fill-opacity: 0; stroke: #3c5488; stroke-width: 0.8; stroke-linejoin: miter"/>
     <use xlink:href="#m1c1928d110" x="44.286773" y="113.441961" style="fill-opacity: 0; stroke: #3c5488; stroke-width: 0.8; stroke-linejoin: miter"/>
     <use xlink:href="#m1c1928d110" x="57.202162" y="109.112852" style="fill-opacity: 0; stroke: #3c5488; stroke-width: 0.8; stroke-linejoin: miter"/>
     <use xlink:href="#m1c1928d110" x="70.117552" y="104.204169" style="fill-opacity: 0; stroke: #3c5488; stroke-width: 0.8; stroke-linejoin: miter"/>
     <use xlink:href="#m1c1928d110" x="83.032942" y="100.027925" style="fill-opacity: 0; stroke: #3c5488; stroke-width: 0.8; stroke-linejoin: miter"/>
     <use xlink:href="#m1c1928d110" x="95.948331" y="96.874232" style="fill-opacity: 0; stroke: #3c5488; stroke-width: 0.8; stroke-linejoin: miter"/>
     <use xlink:href="#m1c1928d110" x="108.863721" y="94.670728" style="fill-opacity: 0; stroke: #3c5488; stroke-width: 0.8; stroke-linejoin: miter"/>
     <use xlink:href="#m1c1928d110" x="121.77911" y="93.249054" style="fill-opacity: 0; stroke: #3c5488; stroke-width: 0.8; stroke-linejoin: miter"/>
     <use xlink:href="#m1c1928d110" x="134.6945" y="92.437297" style="fill-opacity: 0; stroke: #3c5488; stroke-width: 0.8; stroke-linejoin: miter"/>
     <use xlink:href="#m1c1928d110" x="147.60989" y="92.087758" style="fill-opacity: 0; stroke: #3c5488; stroke-width: 0.8; stroke-linejoin: miter"/>
    </g>
   </g>
   <g id="line2d_42">
    <path d="M 31.371383 114.692048 
L 32.662922 114.642774 
L 33.954461 114.426457 
L 35.246 114.019244 
L 36.537539 113.450113 
L 37.829078 112.758408 
L 39.120617 111.980439 
L 40.412156 111.146227 
L 41.703695 110.279476 
L 42.995234 109.398457 
L 44.286773 108.51704 
L 45.578312 107.645609 
L 46.869851 106.791835 
L 48.16139 105.961285 
L 49.452929 105.157897 
L 50.744468 104.384356 
L 52.036007 103.642386 
L 53.327546 102.932967 
L 54.619085 102.256517 
L 55.910624 101.613023 
L 57.202162 101.002147 
L 58.493701 100.423313 
L 59.78524 99.875763 
L 61.076779 99.358615 
L 62.368318 98.870896 
L 63.659857 98.411576 
L 64.951396 97.979592 
L 66.242935 97.573864 
L 67.534474 97.193309 
L 68.826013 96.836855 
L 70.117552 96.503447 
L 71.409091 96.192051 
L 72.70063 95.901664 
L 73.992169 95.631312 
L 75.283708 95.380054 
L 76.575247 95.146983 
L 77.866786 94.931228 
L 79.158325 94.731952 
L 80.449864 94.548355 
L 81.741403 94.379669 
L 83.032942 94.225161 
L 84.324481 94.084131 
L 85.61602 93.955912 
L 86.907559 93.839866 
L 88.199097 93.735385 
L 89.490636 93.641891 
L 90.782175 93.558832 
L 92.073714 93.485684 
L 93.365253 93.421947 
L 94.656792 93.367145 
L 95.948331 93.320826 
L 97.23987 93.282558 
L 98.531409 93.251932 
L 99.822948 93.228559 
L 101.114487 93.212065 
L 102.406026 93.2021 
L 103.697565 93.198326 
L 104.989104 93.200424 
L 106.280643 93.20809 
L 107.572182 93.221034 
L 108.863721 93.238981 
L 110.15526 93.261668 
L 111.446799 93.288846 
L 112.738338 93.320277 
L 114.029877 93.355736 
L 115.321416 93.395006 
L 116.612955 93.437883 
L 117.904493 93.484171 
L 119.196032 93.533685 
L 120.487571 93.586247 
L 121.77911 93.641688 
L 123.070649 93.699849 
L 124.362188 93.760575 
L 125.653727 93.823721 
L 126.945266 93.889148 
L 128.236805 93.956724 
L 129.528344 94.026322 
L 130.819883 94.097821 
L 132.111422 94.171108 
L 133.402961 94.246072 
L 134.6945 94.32261 
L 135.986039 94.400623 
L 137.277578 94.480015 
L 138.569117 94.560696 
L 139.860656 94.642581 
L 141.152195 94.725586 
L 142.443734 94.809634 
L 143.735273 94.894651 
L 145.026812 94.980564 
L 146.318351 95.067307 
L 147.60989 95.154814 
L 148.901428 95.243023 
L 150.192967 95.331877 
L 151.484506 95.421318 
L 152.776045 95.511293 
L 154.067584 95.601751 
L 155.359123 95.692644 
L 156.650662 95.783925 
L 157.942201 95.87555 
L 159.23374 95.967477 
" clip-path="url(#p911c7b9e48)" style="fill: none; stroke-dasharray: 2.96,1.28; stroke-dashoffset: 0; stroke: #dc0000; stroke-width: 0.8"/>
    <g clip-path="url(#p911c7b9e48)">
     <use xlink:href="#me282522e88" x="31.371383" y="114.692048" style="fill-opacity: 0; stroke: #dc0000; stroke-width: 0.8"/>
     <use xlink:href="#me282522e88" x="44.286773" y="108.51704" style="fill-opacity: 0; stroke: #dc0000; stroke-width: 0.8"/>
     <use xlink:href="#me282522e88" x="57.202162" y="101.002147" style="fill-opacity: 0; stroke: #dc0000; stroke-width: 0.8"/>
     <use xlink:href="#me282522e88" x="70.117552" y="96.503447" style="fill-opacity: 0; stroke: #dc0000; stroke-width: 0.8"/>
     <use xlink:href="#me282522e88" x="83.032942" y="94.225161" style="fill-opacity: 0; stroke: #dc0000; stroke-width: 0.8"/>
     <use xlink:href="#me282522e88" x="95.948331" y="93.320826" style="fill-opacity: 0; stroke: #dc0000; stroke-width: 0.8"/>
     <use xlink:href="#me282522e88" x="108.863721" y="93.238981" style="fill-opacity: 0; stroke: #dc0000; stroke-width: 0.8"/>
     <use xlink:href="#me282522e88" x="121.77911" y="93.641688" style="fill-opacity: 0; stroke: #dc0000; stroke-width: 0.8"/>
     <use xlink:href="#me282522e88" x="134.6945" y="94.32261" style="fill-opacity: 0; stroke: #dc0000; stroke-width: 0.8"/>
     <use xlink:href="#me282522e88" x="147.60989" y="95.154814" style="fill-opacity: 0; stroke: #dc0000; stroke-width: 0.8"/>
    </g>
   </g>
   <g id="line2d_43">
    <path d="M 31.371383 114.69215 
L 32.662922 114.661619 
L 33.954461 114.512142 
L 35.246 114.20044 
L 36.537539 113.7233 
L 37.829078 113.093753 
L 39.120617 112.330175 
L 40.412156 111.451685 
L 41.703695 110.476265 
L 42.995234 109.42009 
L 44.286773 108.29738 
L 45.578312 107.120477 
L 46.869851 105.900027 
L 48.16139 104.64517 
L 49.452929 103.36374 
L 50.744468 102.06244 
L 52.036007 100.747001 
L 53.327546 99.422323 
L 54.619085 98.092591 
L 55.910624 96.761376 
L 57.202162 95.431724 
L 58.493701 94.10623 
L 59.78524 92.787101 
L 61.076779 91.476207 
L 62.368318 90.175134 
L 63.659857 88.885215 
L 64.951396 87.60757 
L 66.242935 86.343132 
L 67.534474 85.092675 
L 68.826013 83.85683 
L 70.117552 82.636109 
L 71.409091 81.43092 
L 72.70063 80.241577 
L 73.992169 79.068317 
L 75.283708 77.911308 
L 76.575247 76.770659 
L 77.866786 75.646425 
L 79.158325 74.53862 
L 80.449864 73.447216 
L 81.741403 72.372154 
L 83.032942 71.313346 
L 84.324481 70.270678 
L 85.61602 69.244017 
L 86.907559 68.23321 
L 88.199097 67.23809 
L 89.490636 66.258477 
L 90.782175 65.29418 
L 92.073714 64.344999 
L 93.365253 63.410728 
L 94.656792 62.491153 
L 95.948331 61.586057 
L 97.23987 60.69522 
L 98.531409 59.818418 
L 99.822948 58.955426 
L 101.114487 58.106018 
L 102.406026 57.269969 
L 103.697565 56.447052 
L 104.989104 55.637042 
L 106.280643 54.839715 
L 107.572182 54.05485 
L 108.863721 53.282226 
L 110.15526 52.521624 
L 111.446799 51.772829 
L 112.738338 51.035627 
L 114.029877 50.309809 
L 115.321416 49.595167 
L 116.612955 48.891496 
L 117.904493 48.198595 
L 119.196032 47.516266 
L 120.487571 46.844313 
L 121.77911 46.182546 
L 123.070649 45.530776 
L 124.362188 44.888817 
L 125.653727 44.256489 
L 126.945266 43.633613 
L 128.236805 43.020014 
L 129.528344 42.415521 
L 130.819883 41.819965 
L 132.111422 41.233181 
L 133.402961 40.655007 
L 134.6945 40.085285 
L 135.986039 39.523859 
L 137.277578 38.970577 
L 138.569117 38.425289 
L 139.860656 37.88785 
L 141.152195 37.358116 
L 142.443734 36.835946 
L 143.735273 36.321204 
L 145.026812 35.813755 
L 146.318351 35.313466 
L 147.60989 34.820209 
L 148.901428 34.333858 
L 150.192967 33.854287 
L 151.484506 33.381377 
L 152.776045 32.915009 
L 154.067584 32.455066 
L 155.359123 32.001434 
L 156.650662 31.554002 
L 157.942201 31.112661 
L 159.23374 30.677303 
" clip-path="url(#p911c7b9e48)" style="fill: none; stroke: #000000; stroke-linecap: square"/>
    <defs>
     <path id="mab4492ca5b" d="M -0.5 0.5 
L 0.5 0.5 
L 0.5 -0.5 
L -0.5 -0.5 
z
" style="stroke: #000000; stroke-width: 0.8; stroke-linejoin: miter"/>
    </defs>
    <g clip-path="url(#p911c7b9e48)">
     <use xlink:href="#mab4492ca5b" x="31.371383" y="114.69215" style="fill-opacity: 0; stroke: #000000; stroke-width: 0.8; stroke-linejoin: miter"/>
     <use xlink:href="#mab4492ca5b" x="44.286773" y="108.29738" style="fill-opacity: 0; stroke: #000000; stroke-width: 0.8; stroke-linejoin: miter"/>
     <use xlink:href="#mab4492ca5b" x="57.202162" y="95.431724" style="fill-opacity: 0; stroke: #000000; stroke-width: 0.8; stroke-linejoin: miter"/>
     <use xlink:href="#mab4492ca5b" x="70.117552" y="82.636109" style="fill-opacity: 0; stroke: #000000; stroke-width: 0.8; stroke-linejoin: miter"/>
     <use xlink:href="#mab4492ca5b" x="83.032942" y="71.313346" style="fill-opacity: 0; stroke: #000000; stroke-width: 0.8; stroke-linejoin: miter"/>
     <use xlink:href="#mab4492ca5b" x="95.948331" y="61.586057" style="fill-opacity: 0; stroke: #000000; stroke-width: 0.8; stroke-linejoin: miter"/>
     <use xlink:href="#mab4492ca5b" x="108.863721" y="53.282226" style="fill-opacity: 0; stroke: #000000; stroke-width: 0.8; stroke-linejoin: miter"/>
     <use xlink:href="#mab4492ca5b" x="121.77911" y="46.182546" style="fill-opacity: 0; stroke: #000000; stroke-width: 0.8; stroke-linejoin: miter"/>
     <use xlink:href="#mab4492ca5b" x="134.6945" y="40.085285" style="fill-opacity: 0; stroke: #000000; stroke-width: 0.8; stroke-linejoin: miter"/>
     <use xlink:href="#mab4492ca5b" x="147.60989" y="34.820209" style="fill-opacity: 0; stroke: #000000; stroke-width: 0.8; stroke-linejoin: miter"/>
    </g>
   </g>
   <g id="line2d_44">
    <path d="M 31.371383 114.692283 
L 32.662922 114.692217 
L 33.954461 114.691043 
L 35.246 114.685655 
L 36.537539 114.671553 
L 37.829078 114.643916 
L 39.120617 114.598272 
L 40.412156 114.530814 
L 41.703695 114.438499 
L 42.995234 114.319031 
L 44.286773 114.170795 
L 45.578312 113.992765 
L 46.869851 113.784415 
L 48.16139 113.545632 
L 49.452929 113.276636 
L 50.744468 112.977918 
L 52.036007 112.650177 
L 53.327546 112.294275 
L 54.619085 111.911196 
L 55.910624 111.502014 
L 57.202162 111.067861 
L 58.493701 110.609912 
L 59.78524 110.129359 
L 61.076779 109.627405 
L 62.368318 109.105245 
L 63.659857 108.564059 
L 64.951396 108.005007 
L 66.242935 107.429222 
L 67.534474 106.837804 
L 68.826013 106.231822 
L 70.117552 105.612303 
L 71.409091 104.980242 
L 72.70063 104.336592 
L 73.992169 103.682265 
L 75.283708 103.018139 
L 76.575247 102.345048 
L 77.866786 101.663791 
L 79.158325 100.975129 
L 80.449864 100.279785 
L 81.741403 99.578449 
L 83.032942 98.871775 
L 84.324481 98.160385 
L 85.61602 97.444867 
L 86.907559 96.72578 
L 88.199097 96.003654 
L 89.490636 95.278988 
L 90.782175 94.552258 
L 92.073714 93.82391 
L 93.365253 93.094368 
L 94.656792 92.364031 
L 95.948331 91.633276 
L 97.23987 90.902459 
L 98.531409 90.171914 
L 99.822948 89.441957 
L 101.114487 88.712885 
L 102.406026 87.984978 
L 103.697565 87.258497 
L 104.989104 86.53369 
L 106.280643 85.810789 
L 107.572182 85.090009 
L 108.863721 84.371555 
L 110.15526 83.655617 
L 111.446799 82.942374 
L 112.738338 82.231992 
L 114.029877 81.524627 
L 115.321416 80.820423 
L 116.612955 80.119516 
L 117.904493 79.42203 
L 119.196032 78.728084 
L 120.487571 78.037785 
L 121.77911 77.351233 
L 123.070649 76.66852 
L 124.362188 75.989732 
L 125.653727 75.314948 
L 126.945266 74.644238 
L 128.236805 73.97767 
L 129.528344 73.315303 
L 130.819883 72.657191 
L 132.111422 72.003384 
L 133.402961 71.353927 
L 134.6945 70.708858 
L 135.986039 70.068214 
L 137.277578 69.432025 
L 138.569117 68.800318 
L 139.860656 68.173118 
L 141.152195 67.550443 
L 142.443734 66.932312 
L 143.735273 66.318736 
L 145.026812 65.709727 
L 146.318351 65.105293 
L 147.60989 64.505438 
L 148.901428 63.910165 
L 150.192967 63.319474 
L 151.484506 62.733364 
L 152.776045 62.15183 
L 154.067584 61.574867 
L 155.359123 61.002466 
L 156.650662 60.434618 
L 157.942201 59.871312 
L 159.23374 59.312534 
" clip-path="url(#p911c7b9e48)" style="fill: none; stroke-dasharray: 5.12,1.28,0.8,1.28; stroke-dashoffset: 0; stroke: #3c5488; stroke-width: 0.8"/>
    <defs>
     <path id="m169dc9d2b4" d="M -0.5 0.5 
L 0.5 0.5 
L 0.5 -0.5 
L -0.5 -0.5 
z
" style="stroke: #3c5488; stroke-width: 0.8; stroke-linejoin: miter"/>
    </defs>
    <g clip-path="url(#p911c7b9e48)">
     <use xlink:href="#m169dc9d2b4" x="31.371383" y="114.692283" style="fill-opacity: 0; stroke: #3c5488; stroke-width: 0.8; stroke-linejoin: miter"/>
     <use xlink:href="#m169dc9d2b4" x="44.286773" y="114.170795" style="fill-opacity: 0; stroke: #3c5488; stroke-width: 0.8; stroke-linejoin: miter"/>
     <use xlink:href="#m169dc9d2b4" x="57.202162" y="111.067861" style="fill-opacity: 0; stroke: #3c5488; stroke-width: 0.8; stroke-linejoin: miter"/>
     <use xlink:href="#m169dc9d2b4" x="70.117552" y="105.612303" style="fill-opacity: 0; stroke: #3c5488; stroke-width: 0.8; stroke-linejoin: miter"/>
     <use xlink:href="#m169dc9d2b4" x="83.032942" y="98.871775" style="fill-opacity: 0; stroke: #3c5488; stroke-width: 0.8; stroke-linejoin: miter"/>
     <use xlink:href="#m169dc9d2b4" x="95.948331" y="91.633276" style="fill-opacity: 0; stroke: #3c5488; stroke-width: 0.8; stroke-linejoin: miter"/>
     <use xlink:href="#m169dc9d2b4" x="108.863721" y="84.371555" style="fill-opacity: 0; stroke: #3c5488; stroke-width: 0.8; stroke-linejoin: miter"/>
     <use xlink:href="#m169dc9d2b4" x="121.77911" y="77.351233" style="fill-opacity: 0; stroke: #3c5488; stroke-width: 0.8; stroke-linejoin: miter"/>
     <use xlink:href="#m169dc9d2b4" x="134.6945" y="70.708858" style="fill-opacity: 0; stroke: #3c5488; stroke-width: 0.8; stroke-linejoin: miter"/>
     <use xlink:href="#m169dc9d2b4" x="147.60989" y="64.505438" style="fill-opacity: 0; stroke: #3c5488; stroke-width: 0.8; stroke-linejoin: miter"/>
    </g>
   </g>
   <g id="line2d_45">
    <path d="M 31.371383 114.692251 
L 32.662922 114.67949 
L 33.954461 114.602474 
L 35.246 114.420618 
L 36.537539 114.118336 
L 37.829078 113.694894 
L 39.120617 113.157019 
L 40.412156 112.514779 
L 41.703695 111.779395 
L 42.995234 110.962104 
L 44.286773 110.073589 
L 45.578312 109.123719 
L 46.869851 108.121454 
L 48.16139 107.074843 
L 49.452929 105.991063 
L 50.744468 104.876487 
L 52.036007 103.736752 
L 53.327546 102.576838 
L 54.619085 101.401131 
L 55.910624 100.213496 
L 57.202162 99.017331 
L 58.493701 97.81562 
L 59.78524 96.610985 
L 61.076779 95.405725 
L 62.368318 94.201854 
L 63.659857 93.001133 
L 64.951396 91.805103 
L 66.242935 90.615105 
L 67.534474 89.432308 
L 68.826013 88.257725 
L 70.117552 87.092234 
L 71.409091 85.936588 
L 72.70063 84.791438 
L 73.992169 83.657334 
L 75.283708 82.534745 
L 76.575247 81.424064 
L 77.866786 80.325616 
L 79.158325 79.239668 
L 80.449864 78.166434 
L 81.741403 77.106082 
L 83.032942 76.058737 
L 84.324481 75.024489 
L 85.61602 74.003394 
L 86.907559 72.995479 
L 88.199097 72.000748 
L 89.490636 71.019178 
L 90.782175 70.05073 
L 92.073714 69.095347 
L 93.365253 68.152953 
L 94.656792 67.223463 
L 95.948331 66.306778 
L 97.23987 65.402788 
L 98.531409 64.511375 
L 99.822948 63.632413 
L 101.114487 62.76577 
L 102.406026 61.911308 
L 103.697565 61.068884 
L 104.989104 60.23835 
L 106.280643 59.419556 
L 107.572182 58.612349 
L 108.863721 57.816575 
L 110.15526 57.032077 
L 111.446799 56.258696 
L 112.738338 55.496275 
L 114.029877 54.744654 
L 115.321416 54.003674 
L 116.612955 53.273177 
L 117.904493 52.553005 
L 119.196032 51.842999 
L 120.487571 51.143004 
L 121.77911 50.452863 
L 123.070649 49.772423 
L 124.362188 49.10153 
L 125.653727 48.440034 
L 126.945266 47.787783 
L 128.236805 47.14463 
L 129.528344 46.510429 
L 130.819883 45.885034 
L 132.111422 45.268304 
L 133.402961 44.660097 
L 134.6945 44.060274 
L 135.986039 43.4687 
L 137.277578 42.885238 
L 138.569117 42.309755 
L 139.860656 41.742123 
L 141.152195 41.18221 
L 142.443734 40.629892 
L 143.735273 40.085042 
L 145.026812 39.547539 
L 146.318351 39.017262 
L 147.60989 38.494093 
L 148.901428 37.977914 
L 150.192967 37.468611 
L 151.484506 36.966073 
L 152.776045 36.470187 
L 154.067584 35.980846 
L 155.359123 35.497942 
L 156.650662 35.021371 
L 157.942201 34.55103 
L 159.23374 34.086817 
" clip-path="url(#p911c7b9e48)" style="fill: none; stroke-dasharray: 2.96,1.28; stroke-dashoffset: 0; stroke: #dc0000; stroke-width: 0.8"/>
    <g clip-path="url(#p911c7b9e48)">
     <use xlink:href="#me282522e88" x="31.371383" y="114.692251" style="fill-opacity: 0; stroke: #dc0000; stroke-width: 0.8"/>
     <use xlink:href="#me282522e88" x="44.286773" y="110.073589" style="fill-opacity: 0; stroke: #dc0000; stroke-width: 0.8"/>
     <use xlink:href="#me282522e88" x="57.202162" y="99.017331" style="fill-opacity: 0; stroke: #dc0000; stroke-width: 0.8"/>
     <use xlink:href="#me282522e88" x="70.117552" y="87.092234" style="fill-opacity: 0; stroke: #dc0000; stroke-width: 0.8"/>
     <use xlink:href="#me282522e88" x="83.032942" y="76.058737" style="fill-opacity: 0; stroke: #dc0000; stroke-width: 0.8"/>
     <use xlink:href="#me282522e88" x="95.948331" y="66.306778" style="fill-opacity: 0; stroke: #dc0000; stroke-width: 0.8"/>
     <use xlink:href="#me282522e88" x="108.863721" y="57.816575" style="fill-opacity: 0; stroke: #dc0000; stroke-width: 0.8"/>
     <use xlink:href="#me282522e88" x="121.77911" y="50.452863" style="fill-opacity: 0; stroke: #dc0000; stroke-width: 0.8"/>
     <use xlink:href="#me282522e88" x="134.6945" y="44.060274" style="fill-opacity: 0; stroke: #dc0000; stroke-width: 0.8"/>
     <use xlink:href="#me282522e88" x="147.60989" y="38.494093" style="fill-opacity: 0; stroke: #dc0000; stroke-width: 0.8"/>
    </g>
   </g>
   <g id="patch_3">
    <path d="M 30.94375 114.692283 
L 30.94375 11.52 
" style="fill: none; stroke: #000000; stroke-width: 0.5; stroke-linejoin: miter; stroke-linecap: square"/>
   </g>
   <g id="patch_4">
    <path d="M 159.23374 114.692283 
L 159.23374 11.52 
" style="fill: none; stroke: #000000; stroke-width: 0.5; stroke-linejoin: miter; stroke-linecap: square"/>
   </g>
   <g id="patch_5">
    <path d="M 30.94375 114.692283 
L 159.23374 114.692283 
" style="fill: none; stroke: #000000; stroke-width: 0.5; stroke-linejoin: miter; stroke-linecap: square"/>
   </g>
   <g id="patch_6">
    <path d="M 30.94375 11.52 
L 159.23374 11.52 
" style="fill: none; stroke: #000000; stroke-width: 0.5; stroke-linejoin: miter; stroke-linecap: square"/>
   </g>
  </g>
 </g>
 <defs>
  <clipPath id="p911c7b9e48">
   <rect x="30.94375" y="11.52" width="128.28999" height="103.172283"/>
  </clipPath>
 </defs>
</svg>
