<?xml version="1.0" encoding="utf-8" standalone="no"?>
<!DOCTYPE svg PUBLIC "-//W3C//DTD SVG 1.1//EN"
  "http://www.w3.org/Graphics/SVG/1.1/DTD/svg11.dtd">
<svg xmlns:xlink="http://www.w3.org/1999/xlink" width="170.07874pt" height="141.732283pt" viewBox="0 0 170.07874 141.732283" xmlns="http://www.w3.org/2000/svg" version="1.1">
 <metadata>
  <rdf:RDF xmlns:dc="http://purl.org/dc/elements/1.1/" xmlns:cc="http://creativecommons.org/ns#" xmlns:rdf="http://www.w3.org/1999/02/22-rdf-syntax-ns#">
   <cc:Work>
    <dc:type rdf:resource="http://purl.org/dc/dcmitype/StillImage"/>
    <dc:date>2025-01-06T17:26:18.378152</dc:date>
    <dc:format>image/svg+xml</dc:format>
    <dc:creator>
     <cc:Agent>
      <dc:title>Matplotlib v3.5.2, https://matplotlib.org/</dc:title>
     </cc:Agent>
    </dc:creator>
   </cc:Work>
  </rdf:RDF>
 </metadata>
 <defs>
  <style type="text/css">*{stroke-linejoin: round; stroke-linecap: butt}</style>
 </defs>
 <g id="figure_1">
  <g id="patch_1">
   <path d="M 0 141.732283 
L 170.07874 141.732283 
L 170.07874 0 
L 0 0 
z
" style="fill: #ffffff"/>
  </g>
  <g id="axes_1">
   <g id="patch_2">
    <path d="M 30.91 114.692283 
L 159.23374 114.692283 
L 159.23374 11.52 
L 30.91 11.52 
z
" style="fill: #ffffff"/>
   </g>
   <g id="PolyCollection_1">
    <defs>
     <path id="m560a2c101a" d="M 31.337746 -27.131929 
L 31.337746 -27.043439 
L 32.629625 -27.791998 
L 33.921503 -30.583838 
L 35.213382 -35.007838 
L 36.505261 -40.321442 
L 37.797139 -45.983242 
L 39.089018 -51.65824 
L 40.380897 -57.153921 
L 41.672776 -62.367428 
L 42.964654 -67.250434 
L 44.256533 -71.78712 
L 45.548412 -75.980596 
L 46.840291 -79.844601 
L 48.132169 -83.398425 
L 49.424048 -86.663836 
L 50.715927 -89.663239 
L 52.007805 -92.418593 
L 53.299684 -94.950809 
L 54.591563 -97.279443 
L 55.883442 -99.422561 
L 57.17532 -101.396723 
L 58.467199 -103.217026 
L 59.759078 -104.897184 
L 61.050957 -106.449625 
L 62.342835 -107.885595 
L 63.634714 -109.215264 
L 64.926593 -110.447824 
L 66.218472 -111.591585 
L 67.51035 -112.654065 
L 68.802229 -113.642063 
L 70.094108 -114.561737 
L 71.385986 -115.418668 
L 72.677865 -116.217918 
L 73.969744 -116.964083 
L 75.261623 -117.66134 
L 76.553501 -118.313491 
L 77.84538 -118.923995 
L 79.137259 -119.496011 
L 80.429138 -120.032418 
L 81.721016 -120.535848 
L 83.012895 -121.008711 
L 84.304774 -121.45321 
L 85.596652 -121.871368 
L 86.888531 -122.265039 
L 88.18041 -122.635927 
L 89.472289 -122.985599 
L 90.764167 -123.315496 
L 92.056046 -123.626948 
L 93.347925 -123.92118 
L 94.639804 -124.199322 
L 95.931682 -124.462419 
L 97.223561 -124.711439 
L 98.51544 -124.947275 
L 99.807319 -125.170756 
L 101.099197 -125.38265 
L 102.391076 -125.583671 
L 103.682955 -125.77448 
L 104.974833 -125.955692 
L 106.266712 -126.127881 
L 107.558591 -126.291578 
L 108.85047 -126.447281 
L 110.142348 -126.595452 
L 111.434227 -126.736522 
L 112.726106 -126.870896 
L 114.017985 -126.998949 
L 115.309863 -127.121033 
L 116.601742 -127.237479 
L 117.893621 -127.348593 
L 119.1855 -127.454666 
L 120.477378 -127.555967 
L 121.769257 -127.652751 
L 123.061136 -127.745255 
L 124.353014 -127.833704 
L 125.644893 -127.918307 
L 126.936772 -127.999263 
L 128.228651 -128.076756 
L 129.520529 -128.150962 
L 130.812408 -128.222046 
L 132.104287 -128.290162 
L 133.396166 -128.355457 
L 134.688044 -128.418069 
L 135.979923 -128.478127 
L 137.271802 -128.535755 
L 138.56368 -128.591069 
L 139.855559 -128.644178 
L 141.147438 -128.695185 
L 142.439317 -128.744189 
L 143.731195 -128.791282 
L 145.023074 -128.836553 
L 146.314953 -128.880084 
L 147.606832 -128.921954 
L 148.89871 -128.962237 
L 150.190589 -129.001005 
L 151.482468 -129.038324 
L 152.774347 -129.074258 
L 154.066225 -129.108867 
L 155.358104 -129.14221 
L 156.649983 -129.17434 
L 157.941861 -129.205309 
L 159.23374 -129.235167 
L 159.23374 -130.190669 
L 159.23374 -130.190669 
L 157.941861 -130.189685 
L 156.649983 -130.188649 
L 155.358104 -130.187557 
L 154.066225 -130.186406 
L 152.774347 -130.185192 
L 151.482468 -130.183912 
L 150.190589 -130.182561 
L 148.89871 -130.181134 
L 147.606832 -130.179627 
L 146.314953 -130.178035 
L 145.023074 -130.176352 
L 143.731195 -130.174571 
L 142.439317 -130.172687 
L 141.147438 -130.170692 
L 139.855559 -130.168579 
L 138.56368 -130.16634 
L 137.271802 -130.163966 
L 135.979923 -130.161447 
L 134.688044 -130.158774 
L 133.396166 -130.155936 
L 132.104287 -130.15292 
L 130.812408 -130.149714 
L 129.520529 -130.146304 
L 128.228651 -130.142675 
L 126.936772 -130.13881 
L 125.644893 -130.134691 
L 124.353014 -130.1303 
L 123.061136 -130.125615 
L 121.769257 -130.120613 
L 120.477378 -130.11527 
L 119.1855 -130.109559 
L 117.893621 -130.103449 
L 116.601742 -130.096908 
L 115.309863 -130.089902 
L 114.017985 -130.08239 
L 112.726106 -130.074332 
L 111.434227 -130.065679 
L 110.142348 -130.056382 
L 108.85047 -130.046384 
L 107.558591 -130.035622 
L 106.266712 -130.02403 
L 104.974833 -130.011531 
L 103.682955 -129.998043 
L 102.391076 -129.983473 
L 101.099197 -129.967721 
L 99.807319 -129.950674 
L 98.51544 -129.932205 
L 97.223561 -129.912177 
L 95.931682 -129.890434 
L 94.639804 -129.866804 
L 93.347925 -129.841092 
L 92.056046 -129.813084 
L 90.764167 -129.782538 
L 89.472289 -129.749181 
L 88.18041 -129.712708 
L 86.888531 -129.672776 
L 85.596652 -129.628995 
L 84.304774 -129.580927 
L 83.012895 -129.528073 
L 81.721016 -129.469869 
L 80.429138 -129.405671 
L 79.137259 -129.334746 
L 77.84538 -129.256255 
L 76.553501 -129.169236 
L 75.261623 -129.072585 
L 73.969744 -128.965029 
L 72.677865 -128.845097 
L 71.385986 -128.711087 
L 70.094108 -128.561019 
L 68.802229 -128.392586 
L 67.51035 -128.203089 
L 66.218472 -127.989362 
L 64.926593 -127.747674 
L 63.634714 -127.473618 
L 62.342835 -127.161959 
L 61.050957 -126.806462 
L 59.759078 -126.399662 
L 58.467199 -125.932585 
L 57.17532 -125.394386 
L 55.883442 -124.771901 
L 54.591563 -124.049057 
L 53.299684 -123.20613 
L 52.007805 -122.218769 
L 50.715927 -121.056735 
L 49.424048 -119.682245 
L 48.132169 -118.047791 
L 46.840291 -116.093267 
L 45.548412 -113.742172 
L 44.256533 -110.896621 
L 42.964654 -107.430895 
L 41.672776 -103.183366 
L 40.380897 -97.947214 
L 39.089018 -91.4621 
L 37.797139 -83.414123 
L 36.505261 -73.466516 
L 35.213382 -61.388497 
L 33.921503 -47.485862 
L 32.629625 -33.910372 
L 31.337746 -27.131929 
z
" style="stroke: #808080; stroke-opacity: 0.6"/>
    </defs>
    <g clip-path="url(#pae7f0a3a8a)">
     <use xlink:href="#m560a2c101a" x="0" y="141.732283" style="fill: #808080; fill-opacity: 0.6; stroke: #808080; stroke-opacity: 0.6"/>
    </g>
   </g>
   <g id="PolyCollection_2">
    <defs>
     <path id="mc30d6e5215" d="M 31.337746 -27.040228 
L 31.337746 -27.040023 
L 32.629625 -27.064005 
L 33.921503 -27.246679 
L 35.213382 -27.715454 
L 36.505261 -28.512735 
L 37.797139 -29.625443 
L 39.089018 -31.01512 
L 40.380897 -32.635104 
L 41.672776 -34.439014 
L 42.964654 -36.384512 
L 44.256533 -38.434642 
L 45.548412 -40.558 
L 46.840291 -42.728361 
L 48.132169 -44.924105 
L 49.424048 -47.127582 
L 50.715927 -49.324516 
L 52.007805 -51.503466 
L 53.299684 -53.655348 
L 54.591563 -55.773039 
L 55.883442 -57.85103 
L 57.17532 -59.885146 
L 58.467199 -61.872307 
L 59.759078 -63.810327 
L 61.050957 -65.697756 
L 62.342835 -67.533737 
L 63.634714 -69.317898 
L 64.926593 -71.050261 
L 66.218472 -72.731157 
L 67.51035 -74.36117 
L 68.802229 -75.941081 
L 70.094108 -77.471825 
L 71.385986 -78.954455 
L 72.677865 -80.390112 
L 73.969744 -81.780002 
L 75.261623 -83.125375 
L 76.553501 -84.427506 
L 77.84538 -85.687689 
L 79.137259 -86.907217 
L 80.429138 -88.087379 
L 81.721016 -89.229453 
L 83.012895 -90.334696 
L 84.304774 -91.404344 
L 85.596652 -92.439606 
L 86.888531 -93.441663 
L 88.18041 -94.411666 
L 89.472289 -95.350731 
L 90.764167 -96.259944 
L 92.056046 -97.140356 
L 93.347925 -97.992985 
L 94.639804 -98.818815 
L 95.931682 -99.618796 
L 97.223561 -100.393846 
L 98.51544 -101.144849 
L 99.807319 -101.87266 
L 101.099197 -102.578101 
L 102.391076 -103.261963 
L 103.682955 -103.925009 
L 104.974833 -104.567975 
L 106.266712 -105.191565 
L 107.558591 -105.79646 
L 108.85047 -106.383315 
L 110.142348 -106.952758 
L 111.434227 -107.505395 
L 112.726106 -108.041808 
L 114.017985 -108.562557 
L 115.309863 -109.06818 
L 116.601742 -109.559194 
L 117.893621 -110.0361 
L 119.1855 -110.499374 
L 120.477378 -110.949478 
L 121.769257 -111.386856 
L 123.061136 -111.811934 
L 124.353014 -112.225122 
L 125.644893 -112.626814 
L 126.936772 -113.017391 
L 128.228651 -113.397219 
L 129.520529 -113.766648 
L 130.812408 -114.126019 
L 132.104287 -114.475657 
L 133.396166 -114.815875 
L 134.688044 -115.146977 
L 135.979923 -115.469254 
L 137.271802 -115.782986 
L 138.56368 -116.088444 
L 139.855559 -116.385888 
L 141.147438 -116.675569 
L 142.439317 -116.957729 
L 143.731195 -117.232601 
L 145.023074 -117.500411 
L 146.314953 -117.761375 
L 147.606832 -118.015702 
L 148.89871 -118.263594 
L 150.190589 -118.505246 
L 151.482468 -118.740846 
L 152.774347 -118.970575 
L 154.066225 -119.194608 
L 155.358104 -119.413113 
L 156.649983 -119.626255 
L 157.941861 -119.834191 
L 159.23374 -120.037072 
L 159.23374 -128.189178 
L 159.23374 -128.189178 
L 157.941861 -128.130498 
L 156.649983 -128.06976 
L 155.358104 -128.006877 
L 154.066225 -127.94176 
L 152.774347 -127.874314 
L 151.482468 -127.804442 
L 150.190589 -127.73204 
L 148.89871 -127.656999 
L 147.606832 -127.579204 
L 146.314953 -127.498537 
L 145.023074 -127.414871 
L 143.731195 -127.328075 
L 142.439317 -127.238008 
L 141.147438 -127.144525 
L 139.855559 -127.047472 
L 138.56368 -126.946686 
L 137.271802 -126.841998 
L 135.979923 -126.733228 
L 134.688044 -126.620186 
L 133.396166 -126.502673 
L 132.104287 -126.380478 
L 130.812408 -126.25338 
L 129.520529 -126.121145 
L 128.228651 -125.983525 
L 126.936772 -125.84026 
L 125.644893 -125.691073 
L 124.353014 -125.535673 
L 123.061136 -125.373751 
L 121.769257 -125.204983 
L 120.477378 -125.029022 
L 119.1855 -124.845502 
L 117.893621 -124.654038 
L 116.601742 -124.454219 
L 115.309863 -124.245609 
L 114.017985 -124.027748 
L 112.726106 -123.800146 
L 111.434227 -123.562282 
L 110.142348 -123.313606 
L 108.85047 -123.05353 
L 107.558591 -122.78143 
L 106.266712 -122.496643 
L 104.974833 -122.198462 
L 103.682955 -121.886136 
L 102.391076 -121.558862 
L 101.099197 -121.215787 
L 99.807319 -120.856001 
L 98.51544 -120.47853 
L 97.223561 -120.082338 
L 95.931682 -119.666316 
L 94.639804 -119.229281 
L 93.347925 -118.769967 
L 92.056046 -118.287018 
L 90.764167 -117.778986 
L 89.472289 -117.24432 
L 88.18041 -116.681356 
L 86.888531 -116.088313 
L 85.596652 -115.463282 
L 84.304774 -114.804212 
L 83.012895 -114.108906 
L 81.721016 -113.375003 
L 80.429138 -112.599971 
L 79.137259 -111.781086 
L 77.84538 -110.915427 
L 76.553501 -109.999852 
L 75.261623 -109.030987 
L 73.969744 -108.005207 
L 72.677865 -106.918619 
L 71.385986 -105.767044 
L 70.094108 -104.545997 
L 68.802229 -103.250671 
L 67.51035 -101.875916 
L 66.218472 -100.416229 
L 64.926593 -98.865736 
L 63.634714 -97.218186 
L 62.342835 -95.466949 
L 61.050957 -93.605024 
L 59.759078 -91.625061 
L 58.467199 -89.519406 
L 57.17532 -87.280165 
L 55.883442 -84.899318 
L 54.591563 -82.368872 
L 53.299684 -79.681103 
L 52.007805 -76.828881 
L 50.715927 -73.806144 
L 49.424048 -70.608559 
L 48.132169 -67.234436 
L 46.840291 -63.686009 
L 45.548412 -59.971199 
L 44.256533 -56.106046 
L 42.964654 -52.118042 
L 41.672776 -48.050635 
L 40.380897 -43.969216 
L 39.089018 -39.968737 
L 37.797139 -36.182571 
L 36.505261 -32.790406 
L 35.213382 -30.017813 
L 33.921503 -28.105901 
L 32.629625 -27.19483 
L 31.337746 -27.040228 
z
" style="stroke: #808080; stroke-opacity: 0.5"/>
    </defs>
    <g clip-path="url(#pae7f0a3a8a)">
     <use xlink:href="#mc30d6e5215" x="0" y="141.732283" style="fill: #808080; fill-opacity: 0.5; stroke: #808080; stroke-opacity: 0.5"/>
    </g>
   </g>
   <g id="PolyCollection_3">
    <defs>
     <path id="m8efb112db4" d="M 31.337746 -27.041586 
L 31.337746 -27.040067 
L 32.629625 -27.06222 
L 33.921503 -27.184604 
L 35.213382 -27.455652 
L 36.505261 -27.884769 
L 37.797139 -28.462735 
L 39.089018 -29.173095 
L 40.380897 -29.9975 
L 41.672776 -30.918099 
L 42.964654 -31.918536 
L 44.256533 -32.98427 
L 45.548412 -34.102603 
L 46.840291 -35.262555 
L 48.132169 -36.45469 
L 49.424048 -37.670938 
L 50.715927 -38.904412 
L 52.007805 -40.149251 
L 53.299684 -41.400472 
L 54.591563 -42.653848 
L 55.883442 -43.905803 
L 57.17532 -45.153311 
L 58.467199 -46.393826 
L 59.759078 -47.625208 
L 61.050957 -48.845667 
L 62.342835 -50.053714 
L 63.634714 -51.248117 
L 64.926593 -52.427867 
L 66.218472 -53.592144 
L 67.51035 -54.740294 
L 68.802229 -55.871802 
L 70.094108 -56.986275 
L 71.385986 -58.083424 
L 72.677865 -59.163052 
L 73.969744 -60.225035 
L 75.261623 -61.269318 
L 76.553501 -62.2959 
L 77.84538 -63.304832 
L 79.137259 -64.296203 
L 80.429138 -65.270139 
L 81.721016 -66.226793 
L 83.012895 -67.166345 
L 84.304774 -68.088996 
L 85.596652 -68.994965 
L 86.888531 -69.884482 
L 88.18041 -70.757792 
L 89.472289 -71.615148 
L 90.764167 -72.456811 
L 92.056046 -73.283046 
L 93.347925 -74.094123 
L 94.639804 -74.890316 
L 95.931682 -75.671897 
L 97.223561 -76.439142 
L 98.51544 -77.192325 
L 99.807319 -77.93172 
L 101.099197 -78.657598 
L 102.391076 -79.370229 
L 103.682955 -80.069879 
L 104.974833 -80.756812 
L 106.266712 -81.431289 
L 107.558591 -82.093566 
L 108.85047 -82.743896 
L 110.142348 -83.382527 
L 111.434227 -84.009705 
L 112.726106 -84.62567 
L 114.017985 -85.230656 
L 115.309863 -85.824896 
L 116.601742 -86.408617 
L 117.893621 -86.98204 
L 119.1855 -87.545383 
L 120.477378 -88.09886 
L 121.769257 -88.642679 
L 123.061136 -89.177045 
L 124.353014 -89.702157 
L 125.644893 -90.21821 
L 126.936772 -90.725396 
L 128.228651 -91.223901 
L 129.520529 -91.713908 
L 130.812408 -92.195595 
L 132.104287 -92.669136 
L 133.396166 -93.134703 
L 134.688044 -93.59246 
L 135.979923 -94.042571 
L 137.271802 -94.485194 
L 138.56368 -94.920485 
L 139.855559 -95.348594 
L 141.147438 -95.76967 
L 142.439317 -96.183857 
L 143.731195 -96.591296 
L 145.023074 -96.992124 
L 146.314953 -97.386477 
L 147.606832 -97.774485 
L 148.89871 -98.156277 
L 150.190589 -98.531977 
L 151.482468 -98.901709 
L 152.774347 -99.265591 
L 154.066225 -99.62374 
L 155.358104 -99.97627 
L 156.649983 -100.323293 
L 157.941861 -100.664916 
L 159.23374 -101.001247 
L 159.23374 -111.804796 
L 159.23374 -111.804796 
L 157.941861 -111.560725 
L 156.649983 -111.312108 
L 155.358104 -111.058836 
L 154.066225 -110.800792 
L 152.774347 -110.537859 
L 151.482468 -110.269914 
L 150.190589 -109.996832 
L 148.89871 -109.718483 
L 147.606832 -109.434731 
L 146.314953 -109.145441 
L 145.023074 -108.850467 
L 143.731195 -108.549664 
L 142.439317 -108.242879 
L 141.147438 -107.929955 
L 139.855559 -107.610729 
L 138.56368 -107.285035 
L 137.271802 -106.952698 
L 135.979923 -106.61354 
L 134.688044 -106.267376 
L 133.396166 -105.914014 
L 132.104287 -105.553257 
L 130.812408 -105.184899 
L 129.520529 -104.808729 
L 128.228651 -104.424529 
L 126.936772 -104.03207 
L 125.644893 -103.631118 
L 124.353014 -103.221431 
L 123.061136 -102.802756 
L 121.769257 -102.374832 
L 120.477378 -101.93739 
L 119.1855 -101.490148 
L 117.893621 -101.032817 
L 116.601742 -100.565096 
L 115.309863 -100.086672 
L 114.017985 -99.597222 
L 112.726106 -99.096409 
L 111.434227 -98.583886 
L 110.142348 -98.05929 
L 108.85047 -97.522247 
L 107.558591 -96.972365 
L 106.266712 -96.409241 
L 104.974833 -95.832454 
L 103.682955 -95.241567 
L 102.391076 -94.636127 
L 101.099197 -94.015663 
L 99.807319 -93.379683 
L 98.51544 -92.727681 
L 97.223561 -92.059125 
L 95.931682 -91.373467 
L 94.639804 -90.670136 
L 93.347925 -89.948535 
L 92.056046 -89.20805 
L 90.764167 -88.448036 
L 89.472289 -87.667828 
L 88.18041 -86.866733 
L 86.888531 -86.04403 
L 85.596652 -85.198973 
L 84.304774 -84.330784 
L 83.012895 -83.43866 
L 81.721016 -82.521764 
L 80.429138 -81.579233 
L 79.137259 -80.610171 
L 77.84538 -79.613651 
L 76.553501 -78.588718 
L 75.261623 -77.534386 
L 73.969744 -76.44964 
L 72.677865 -75.333439 
L 71.385986 -74.184717 
L 70.094108 -73.002388 
L 68.802229 -71.785348 
L 67.51035 -70.532481 
L 66.218472 -69.242671 
L 64.926593 -67.914807 
L 63.634714 -66.547798 
L 62.342835 -65.140589 
L 61.050957 -63.692185 
L 59.759078 -62.20167 
L 58.467199 -60.668251 
L 57.17532 -59.091293 
L 55.883442 -57.470379 
L 54.591563 -55.80538 
L 53.299684 -54.096543 
L 52.007805 -52.34461 
L 50.715927 -50.550966 
L 49.424048 -48.717837 
L 48.132169 -46.848539 
L 46.840291 -44.947817 
L 45.548412 -43.022279 
L 44.256533 -41.080987 
L 42.964654 -39.136234 
L 41.672776 -37.204601 
L 40.380897 -35.308373 
L 39.089018 -33.477457 
L 37.797139 -31.751907 
L 36.505261 -30.185128 
L 35.213382 -28.847289 
L 33.921503 -27.826518 
L 32.629625 -27.216875 
L 31.337746 -27.041586 
z
" style="stroke: #808080; stroke-opacity: 0.4"/>
    </defs>
    <g clip-path="url(#pae7f0a3a8a)">
     <use xlink:href="#m8efb112db4" x="0" y="141.732283" style="fill: #808080; fill-opacity: 0.4; stroke: #808080; stroke-opacity: 0.4"/>
    </g>
   </g>
   <g id="PolyCollection_4">
    <defs>
     <path id="m1129ffd782" d="M 31.337746 -27.040186 
L 31.337746 -27.040009 
L 32.629625 -27.045053 
L 33.921503 -27.079682 
L 35.213382 -27.168368 
L 36.505261 -27.324308 
L 37.797139 -27.55218 
L 39.089018 -27.851509 
L 40.380897 -28.218941 
L 41.672776 -28.649641 
L 42.964654 -29.138114 
L 44.256533 -29.678704 
L 45.548412 -30.265864 
L 46.840291 -30.894316 
L 48.132169 -31.55913 
L 49.424048 -32.255755 
L 50.715927 -32.980023 
L 52.007805 -33.728143 
L 53.299684 -34.496679 
L 54.591563 -35.282523 
L 55.883442 -36.082876 
L 57.17532 -36.895217 
L 58.467199 -37.717279 
L 59.759078 -38.547029 
L 61.050957 -39.38264 
L 62.342835 -40.222477 
L 63.634714 -41.065072 
L 64.926593 -41.909115 
L 66.218472 -42.753431 
L 67.51035 -43.596973 
L 68.802229 -44.438805 
L 70.094108 -45.278092 
L 71.385986 -46.114093 
L 72.677865 -46.946147 
L 73.969744 -47.773668 
L 75.261623 -48.596138 
L 76.553501 -49.413099 
L 77.84538 -50.224148 
L 79.137259 -51.028931 
L 80.429138 -51.827138 
L 81.721016 -52.618501 
L 83.012895 -53.402787 
L 84.304774 -54.179796 
L 85.596652 -54.949357 
L 86.888531 -55.711328 
L 88.18041 -56.46559 
L 89.472289 -57.212046 
L 90.764167 -57.950617 
L 92.056046 -58.681245 
L 93.347925 -59.403886 
L 94.639804 -60.118512 
L 95.931682 -60.825106 
L 97.223561 -61.523665 
L 98.51544 -62.214195 
L 99.807319 -62.896712 
L 101.099197 -63.571242 
L 102.391076 -64.237816 
L 103.682955 -64.896474 
L 104.974833 -65.547262 
L 106.266712 -66.190231 
L 107.558591 -66.825435 
L 108.85047 -67.452937 
L 110.142348 -68.072798 
L 111.434227 -68.685088 
L 112.726106 -69.289876 
L 114.017985 -69.887234 
L 115.309863 -70.477239 
L 116.601742 -71.059967 
L 117.893621 -71.635497 
L 119.1855 -72.203909 
L 120.477378 -72.765283 
L 121.769257 -73.319702 
L 123.061136 -73.867249 
L 124.353014 -74.408007 
L 125.644893 -74.942059 
L 126.936772 -75.46949 
L 128.228651 -75.990383 
L 129.520529 -76.504822 
L 130.812408 -77.012892 
L 132.104287 -77.514675 
L 133.396166 -78.010256 
L 134.688044 -78.499716 
L 135.979923 -78.983139 
L 137.271802 -79.460606 
L 138.56368 -79.932198 
L 139.855559 -80.397996 
L 141.147438 -80.858081 
L 142.439317 -81.312531 
L 143.731195 -81.761425 
L 145.023074 -82.20484 
L 146.314953 -82.642854 
L 147.606832 -83.075542 
L 148.89871 -83.502979 
L 150.190589 -83.925241 
L 151.482468 -84.3424 
L 152.774347 -84.754528 
L 154.066225 -85.161698 
L 155.358104 -85.563979 
L 156.649983 -85.961442 
L 157.941861 -86.354156 
L 159.23374 -86.742188 
L 159.23374 -96.762468 
L 159.23374 -96.762468 
L 157.941861 -96.426867 
L 156.649983 -96.086458 
L 155.358104 -95.741151 
L 154.066225 -95.390852 
L 152.774347 -95.035467 
L 151.482468 -94.6749 
L 150.190589 -94.30905 
L 148.89871 -93.937818 
L 147.606832 -93.561099 
L 146.314953 -93.178787 
L 145.023074 -92.790774 
L 143.731195 -92.396948 
L 142.439317 -91.997196 
L 141.147438 -91.591402 
L 139.855559 -91.179446 
L 138.56368 -90.761207 
L 137.271802 -90.336561 
L 135.979923 -89.905379 
L 134.688044 -89.467532 
L 133.396166 -89.022886 
L 132.104287 -88.571304 
L 130.812408 -88.112647 
L 129.520529 -87.646772 
L 128.228651 -87.173533 
L 126.936772 -86.69278 
L 125.644893 -86.204361 
L 124.353014 -85.708118 
L 123.061136 -85.203893 
L 121.769257 -84.691521 
L 120.477378 -84.170837 
L 119.1855 -83.641668 
L 117.893621 -83.103841 
L 116.601742 -82.557177 
L 115.309863 -82.001495 
L 114.017985 -81.436609 
L 112.726106 -80.862329 
L 111.434227 -80.278463 
L 110.142348 -79.684812 
L 108.85047 -79.081178 
L 107.558591 -78.467353 
L 106.266712 -77.843132 
L 104.974833 -77.208302 
L 103.682955 -76.562649 
L 102.391076 -75.905953 
L 101.099197 -75.237993 
L 99.807319 -74.558546 
L 98.51544 -73.867385 
L 97.223561 -73.164279 
L 95.931682 -72.448999 
L 94.639804 -71.721311 
L 93.347925 -70.980983 
L 92.056046 -70.22778 
L 90.764167 -69.461468 
L 89.472289 -68.681816 
L 88.18041 -67.888594 
L 86.888531 -67.081574 
L 85.596652 -66.260533 
L 84.304774 -65.425256 
L 83.012895 -64.575533 
L 81.721016 -63.711165 
L 80.429138 -62.831965 
L 79.137259 -61.937759 
L 77.84538 -61.028393 
L 76.553501 -60.103731 
L 75.261623 -59.163664 
L 73.969744 -58.208112 
L 72.677865 -57.237029 
L 71.385986 -56.250413 
L 70.094108 -55.248307 
L 68.802229 -54.230812 
L 67.51035 -53.198096 
L 66.218472 -52.150404 
L 64.926593 -51.088073 
L 63.634714 -50.011544 
L 62.342835 -48.921385 
L 61.050957 -47.818307 
L 59.759078 -46.703195 
L 58.467199 -45.57713 
L 57.17532 -44.44143 
L 55.883442 -43.297688 
L 54.591563 -42.147821 
L 53.299684 -40.994127 
L 52.007805 -39.839359 
L 50.715927 -38.686799 
L 49.424048 -37.540365 
L 48.132169 -36.404723 
L 46.840291 -35.285431 
L 45.548412 -34.189103 
L 44.256533 -33.12361 
L 42.964654 -32.098303 
L 41.672776 -31.124275 
L 40.380897 -30.214625 
L 39.089018 -29.3847 
L 37.797139 -28.652203 
L 36.505261 -28.036915 
L 35.213382 -27.559447 
L 33.921503 -27.237509 
L 32.629625 -27.075805 
L 31.337746 -27.040186 
z
" style="stroke: #808080; stroke-opacity: 0.3"/>
    </defs>
    <g clip-path="url(#pae7f0a3a8a)">
     <use xlink:href="#m1129ffd782" x="0" y="141.732283" style="fill: #808080; fill-opacity: 0.3; stroke: #808080; stroke-opacity: 0.3"/>
    </g>
   </g>
   <g id="matplotlib.axis_1">
    <g id="xtick_1">
     <g id="line2d_1">
      <defs>
       <path id="mf629bd41ec" d="M 0 0 
L 0 -5 
" style="stroke: #000000; stroke-width: 0.5"/>
      </defs>
      <g>
       <use xlink:href="#mf629bd41ec" x="30.91" y="114.692283" style="fill-opacity: 0; stroke: #000000; stroke-width: 0.5"/>
      </g>
     </g>
     <g id="text_1">
      <!-- 0 -->
      <g transform="translate(28.685625 122.418533)scale(0.08 -0.08)">
       <defs>
        <path id="ArialMT-30" d="M 266 2259 
Q 266 3072 433 3567 
Q 600 4063 929 4331 
Q 1259 4600 1759 4600 
Q 2128 4600 2406 4451 
Q 2684 4303 2865 4023 
Q 3047 3744 3150 3342 
Q 3253 2941 3253 2259 
Q 3253 1453 3087 958 
Q 2922 463 2592 192 
Q 2263 -78 1759 -78 
Q 1097 -78 719 397 
Q 266 969 266 2259 
z
M 844 2259 
Q 844 1131 1108 757 
Q 1372 384 1759 384 
Q 2147 384 2411 759 
Q 2675 1134 2675 2259 
Q 2675 3391 2411 3762 
Q 2147 4134 1753 4134 
Q 1366 4134 1134 3806 
Q 844 3388 844 2259 
z
" transform="scale(0.015625)"/>
       </defs>
       <use xlink:href="#ArialMT-30"/>
      </g>
     </g>
    </g>
    <g id="xtick_2">
     <g id="line2d_2">
      <g>
       <use xlink:href="#mf629bd41ec" x="73.68458" y="114.692283" style="fill-opacity: 0; stroke: #000000; stroke-width: 0.5"/>
      </g>
     </g>
     <g id="text_2">
      <!-- 1 -->
      <g transform="translate(71.460205 122.418533)scale(0.08 -0.08)">
       <defs>
        <path id="ArialMT-31" d="M 2384 0 
L 1822 0 
L 1822 3584 
Q 1619 3391 1289 3197 
Q 959 3003 697 2906 
L 697 3450 
Q 1169 3672 1522 3987 
Q 1875 4303 2022 4600 
L 2384 4600 
L 2384 0 
z
" transform="scale(0.015625)"/>
       </defs>
       <use xlink:href="#ArialMT-31"/>
      </g>
     </g>
    </g>
    <g id="xtick_3">
     <g id="line2d_3">
      <g>
       <use xlink:href="#mf629bd41ec" x="116.45916" y="114.692283" style="fill-opacity: 0; stroke: #000000; stroke-width: 0.5"/>
      </g>
     </g>
     <g id="text_3">
      <!-- 2 -->
      <g transform="translate(114.234785 122.418533)scale(0.08 -0.08)">
       <defs>
        <path id="ArialMT-32" d="M 3222 541 
L 3222 0 
L 194 0 
Q 188 203 259 391 
Q 375 700 629 1000 
Q 884 1300 1366 1694 
Q 2113 2306 2375 2664 
Q 2638 3022 2638 3341 
Q 2638 3675 2398 3904 
Q 2159 4134 1775 4134 
Q 1369 4134 1125 3890 
Q 881 3647 878 3216 
L 300 3275 
Q 359 3922 746 4261 
Q 1134 4600 1788 4600 
Q 2447 4600 2831 4234 
Q 3216 3869 3216 3328 
Q 3216 3053 3103 2787 
Q 2991 2522 2730 2228 
Q 2469 1934 1863 1422 
Q 1356 997 1212 845 
Q 1069 694 975 541 
L 3222 541 
z
" transform="scale(0.015625)"/>
       </defs>
       <use xlink:href="#ArialMT-32"/>
      </g>
     </g>
    </g>
    <g id="xtick_4">
     <g id="line2d_4">
      <g>
       <use xlink:href="#mf629bd41ec" x="159.23374" y="114.692283" style="fill-opacity: 0; stroke: #000000; stroke-width: 0.5"/>
      </g>
     </g>
     <g id="text_4">
      <!-- 3 -->
      <g transform="translate(157.009365 122.418533)scale(0.08 -0.08)">
       <defs>
        <path id="ArialMT-33" d="M 269 1209 
L 831 1284 
Q 928 806 1161 595 
Q 1394 384 1728 384 
Q 2125 384 2398 659 
Q 2672 934 2672 1341 
Q 2672 1728 2419 1979 
Q 2166 2231 1775 2231 
Q 1616 2231 1378 2169 
L 1441 2663 
Q 1497 2656 1531 2656 
Q 1891 2656 2178 2843 
Q 2466 3031 2466 3422 
Q 2466 3731 2256 3934 
Q 2047 4138 1716 4138 
Q 1388 4138 1169 3931 
Q 950 3725 888 3313 
L 325 3413 
Q 428 3978 793 4289 
Q 1159 4600 1703 4600 
Q 2078 4600 2393 4439 
Q 2709 4278 2876 4000 
Q 3044 3722 3044 3409 
Q 3044 3113 2884 2869 
Q 2725 2625 2413 2481 
Q 2819 2388 3044 2092 
Q 3269 1797 3269 1353 
Q 3269 753 2831 336 
Q 2394 -81 1725 -81 
Q 1122 -81 723 278 
Q 325 638 269 1209 
z
" transform="scale(0.015625)"/>
       </defs>
       <use xlink:href="#ArialMT-33"/>
      </g>
     </g>
    </g>
    <g id="xtick_5">
     <g id="line2d_5">
      <defs>
       <path id="m35cb0ba3b7" d="M 0 0 
L 0 -3 
" style="stroke: #000000; stroke-width: 0.5"/>
      </defs>
      <g>
       <use xlink:href="#m35cb0ba3b7" x="39.464916" y="114.692283" style="fill-opacity: 0; stroke: #000000; stroke-width: 0.5"/>
      </g>
     </g>
    </g>
    <g id="xtick_6">
     <g id="line2d_6">
      <g>
       <use xlink:href="#m35cb0ba3b7" x="48.019832" y="114.692283" style="fill-opacity: 0; stroke: #000000; stroke-width: 0.5"/>
      </g>
     </g>
    </g>
    <g id="xtick_7">
     <g id="line2d_7">
      <g>
       <use xlink:href="#m35cb0ba3b7" x="56.574748" y="114.692283" style="fill-opacity: 0; stroke: #000000; stroke-width: 0.5"/>
      </g>
     </g>
    </g>
    <g id="xtick_8">
     <g id="line2d_8">
      <g>
       <use xlink:href="#m35cb0ba3b7" x="65.129664" y="114.692283" style="fill-opacity: 0; stroke: #000000; stroke-width: 0.5"/>
      </g>
     </g>
    </g>
    <g id="xtick_9">
     <g id="line2d_9">
      <g>
       <use xlink:href="#m35cb0ba3b7" x="82.239496" y="114.692283" style="fill-opacity: 0; stroke: #000000; stroke-width: 0.5"/>
      </g>
     </g>
    </g>
    <g id="xtick_10">
     <g id="line2d_10">
      <g>
       <use xlink:href="#m35cb0ba3b7" x="90.794412" y="114.692283" style="fill-opacity: 0; stroke: #000000; stroke-width: 0.5"/>
      </g>
     </g>
    </g>
    <g id="xtick_11">
     <g id="line2d_11">
      <g>
       <use xlink:href="#m35cb0ba3b7" x="99.349328" y="114.692283" style="fill-opacity: 0; stroke: #000000; stroke-width: 0.5"/>
      </g>
     </g>
    </g>
    <g id="xtick_12">
     <g id="line2d_12">
      <g>
       <use xlink:href="#m35cb0ba3b7" x="107.904244" y="114.692283" style="fill-opacity: 0; stroke: #000000; stroke-width: 0.5"/>
      </g>
     </g>
    </g>
    <g id="xtick_13">
     <g id="line2d_13">
      <g>
       <use xlink:href="#m35cb0ba3b7" x="125.014076" y="114.692283" style="fill-opacity: 0; stroke: #000000; stroke-width: 0.5"/>
      </g>
     </g>
    </g>
    <g id="xtick_14">
     <g id="line2d_14">
      <g>
       <use xlink:href="#m35cb0ba3b7" x="133.568992" y="114.692283" style="fill-opacity: 0; stroke: #000000; stroke-width: 0.5"/>
      </g>
     </g>
    </g>
    <g id="xtick_15">
     <g id="line2d_15">
      <g>
       <use xlink:href="#m35cb0ba3b7" x="142.123908" y="114.692283" style="fill-opacity: 0; stroke: #000000; stroke-width: 0.5"/>
      </g>
     </g>
    </g>
    <g id="xtick_16">
     <g id="line2d_16">
      <g>
       <use xlink:href="#m35cb0ba3b7" x="150.678824" y="114.692283" style="fill-opacity: 0; stroke: #000000; stroke-width: 0.5"/>
      </g>
     </g>
    </g>
    <g id="text_5">
     <!-- PGA [g] -->
     <g transform="translate(81.286245 131.832283)scale(0.08 -0.08)">
      <defs>
       <path id="ArialMT-50" d="M 494 0 
L 494 4581 
L 2222 4581 
Q 2678 4581 2919 4538 
Q 3256 4481 3484 4323 
Q 3713 4166 3852 3881 
Q 3991 3597 3991 3256 
Q 3991 2672 3619 2267 
Q 3247 1863 2275 1863 
L 1100 1863 
L 1100 0 
L 494 0 
z
M 1100 2403 
L 2284 2403 
Q 2872 2403 3119 2622 
Q 3366 2841 3366 3238 
Q 3366 3525 3220 3729 
Q 3075 3934 2838 4000 
Q 2684 4041 2272 4041 
L 1100 4041 
L 1100 2403 
z
" transform="scale(0.015625)"/>
       <path id="ArialMT-47" d="M 2638 1797 
L 2638 2334 
L 4578 2338 
L 4578 638 
Q 4131 281 3656 101 
Q 3181 -78 2681 -78 
Q 2006 -78 1454 211 
Q 903 500 622 1047 
Q 341 1594 341 2269 
Q 341 2938 620 3517 
Q 900 4097 1425 4378 
Q 1950 4659 2634 4659 
Q 3131 4659 3532 4498 
Q 3934 4338 4162 4050 
Q 4391 3763 4509 3300 
L 3963 3150 
Q 3859 3500 3706 3700 
Q 3553 3900 3268 4020 
Q 2984 4141 2638 4141 
Q 2222 4141 1919 4014 
Q 1616 3888 1430 3681 
Q 1244 3475 1141 3228 
Q 966 2803 966 2306 
Q 966 1694 1177 1281 
Q 1388 869 1791 669 
Q 2194 469 2647 469 
Q 3041 469 3416 620 
Q 3791 772 3984 944 
L 3984 1797 
L 2638 1797 
z
" transform="scale(0.015625)"/>
       <path id="ArialMT-41" d="M -9 0 
L 1750 4581 
L 2403 4581 
L 4278 0 
L 3588 0 
L 3053 1388 
L 1138 1388 
L 634 0 
L -9 0 
z
M 1313 1881 
L 2866 1881 
L 2388 3150 
Q 2169 3728 2063 4100 
Q 1975 3659 1816 3225 
L 1313 1881 
z
" transform="scale(0.015625)"/>
       <path id="ArialMT-20" transform="scale(0.015625)"/>
       <path id="ArialMT-5b" d="M 434 -1272 
L 434 4581 
L 1675 4581 
L 1675 4116 
L 997 4116 
L 997 -806 
L 1675 -806 
L 1675 -1272 
L 434 -1272 
z
" transform="scale(0.015625)"/>
       <path id="ArialMT-67" d="M 319 -275 
L 866 -356 
Q 900 -609 1056 -725 
Q 1266 -881 1628 -881 
Q 2019 -881 2231 -725 
Q 2444 -569 2519 -288 
Q 2563 -116 2559 434 
Q 2191 0 1641 0 
Q 956 0 581 494 
Q 206 988 206 1678 
Q 206 2153 378 2554 
Q 550 2956 876 3175 
Q 1203 3394 1644 3394 
Q 2231 3394 2613 2919 
L 2613 3319 
L 3131 3319 
L 3131 450 
Q 3131 -325 2973 -648 
Q 2816 -972 2473 -1159 
Q 2131 -1347 1631 -1347 
Q 1038 -1347 672 -1080 
Q 306 -813 319 -275 
z
M 784 1719 
Q 784 1066 1043 766 
Q 1303 466 1694 466 
Q 2081 466 2343 764 
Q 2606 1063 2606 1700 
Q 2606 2309 2336 2618 
Q 2066 2928 1684 2928 
Q 1309 2928 1046 2623 
Q 784 2319 784 1719 
z
" transform="scale(0.015625)"/>
       <path id="ArialMT-5d" d="M 1363 -1272 
L 122 -1272 
L 122 -806 
L 800 -806 
L 800 4116 
L 122 4116 
L 122 4581 
L 1363 4581 
L 1363 -1272 
z
" transform="scale(0.015625)"/>
      </defs>
      <use xlink:href="#ArialMT-50"/>
      <use xlink:href="#ArialMT-47" x="66.699219"/>
      <use xlink:href="#ArialMT-41" x="144.482422"/>
      <use xlink:href="#ArialMT-20" x="205.681641"/>
      <use xlink:href="#ArialMT-5b" x="233.464844"/>
      <use xlink:href="#ArialMT-67" x="261.248047"/>
      <use xlink:href="#ArialMT-5d" x="316.863281"/>
     </g>
    </g>
   </g>
   <g id="matplotlib.axis_2">
    <g id="ytick_1">
     <g id="line2d_17">
      <defs>
       <path id="m880241df11" d="M 0 0 
L 5 0 
" style="stroke: #000000; stroke-width: 0.5"/>
      </defs>
      <g>
       <use xlink:href="#m880241df11" x="30.91" y="114.692283" style="fill-opacity: 0; stroke: #000000; stroke-width: 0.5"/>
      </g>
     </g>
     <g id="text_6">
      <!-- 0.0 -->
      <g transform="translate(17.79 117.555408)scale(0.08 -0.08)">
       <defs>
        <path id="ArialMT-2e" d="M 581 0 
L 581 641 
L 1222 641 
L 1222 0 
L 581 0 
z
" transform="scale(0.015625)"/>
       </defs>
       <use xlink:href="#ArialMT-30"/>
       <use xlink:href="#ArialMT-2e" x="55.615234"/>
       <use xlink:href="#ArialMT-30" x="83.398438"/>
      </g>
     </g>
    </g>
    <g id="ytick_2">
     <g id="line2d_18">
      <g>
       <use xlink:href="#m880241df11" x="30.91" y="94.057827" style="fill-opacity: 0; stroke: #000000; stroke-width: 0.5"/>
      </g>
     </g>
     <g id="text_7">
      <!-- 0.2 -->
      <g transform="translate(17.79 96.920952)scale(0.08 -0.08)">
       <use xlink:href="#ArialMT-30"/>
       <use xlink:href="#ArialMT-2e" x="55.615234"/>
       <use xlink:href="#ArialMT-32" x="83.398438"/>
      </g>
     </g>
    </g>
    <g id="ytick_3">
     <g id="line2d_19">
      <g>
       <use xlink:href="#m880241df11" x="30.91" y="73.42337" style="fill-opacity: 0; stroke: #000000; stroke-width: 0.5"/>
      </g>
     </g>
     <g id="text_8">
      <!-- 0.4 -->
      <g transform="translate(17.79 76.286495)scale(0.08 -0.08)">
       <defs>
        <path id="ArialMT-34" d="M 2069 0 
L 2069 1097 
L 81 1097 
L 81 1613 
L 2172 4581 
L 2631 4581 
L 2631 1613 
L 3250 1613 
L 3250 1097 
L 2631 1097 
L 2631 0 
L 2069 0 
z
M 2069 1613 
L 2069 3678 
L 634 1613 
L 2069 1613 
z
" transform="scale(0.015625)"/>
       </defs>
       <use xlink:href="#ArialMT-30"/>
       <use xlink:href="#ArialMT-2e" x="55.615234"/>
       <use xlink:href="#ArialMT-34" x="83.398438"/>
      </g>
     </g>
    </g>
    <g id="ytick_4">
     <g id="line2d_20">
      <g>
       <use xlink:href="#m880241df11" x="30.91" y="52.788913" style="fill-opacity: 0; stroke: #000000; stroke-width: 0.5"/>
      </g>
     </g>
     <g id="text_9">
      <!-- 0.6 -->
      <g transform="translate(17.79 55.652038)scale(0.08 -0.08)">
       <defs>
        <path id="ArialMT-36" d="M 3184 3459 
L 2625 3416 
Q 2550 3747 2413 3897 
Q 2184 4138 1850 4138 
Q 1581 4138 1378 3988 
Q 1113 3794 959 3422 
Q 806 3050 800 2363 
Q 1003 2672 1297 2822 
Q 1591 2972 1913 2972 
Q 2475 2972 2870 2558 
Q 3266 2144 3266 1488 
Q 3266 1056 3080 686 
Q 2894 316 2569 119 
Q 2244 -78 1831 -78 
Q 1128 -78 684 439 
Q 241 956 241 2144 
Q 241 3472 731 4075 
Q 1159 4600 1884 4600 
Q 2425 4600 2770 4297 
Q 3116 3994 3184 3459 
z
M 888 1484 
Q 888 1194 1011 928 
Q 1134 663 1356 523 
Q 1578 384 1822 384 
Q 2178 384 2434 671 
Q 2691 959 2691 1453 
Q 2691 1928 2437 2201 
Q 2184 2475 1800 2475 
Q 1419 2475 1153 2201 
Q 888 1928 888 1484 
z
" transform="scale(0.015625)"/>
       </defs>
       <use xlink:href="#ArialMT-30"/>
       <use xlink:href="#ArialMT-2e" x="55.615234"/>
       <use xlink:href="#ArialMT-36" x="83.398438"/>
      </g>
     </g>
    </g>
    <g id="ytick_5">
     <g id="line2d_21">
      <g>
       <use xlink:href="#m880241df11" x="30.91" y="32.154457" style="fill-opacity: 0; stroke: #000000; stroke-width: 0.5"/>
      </g>
     </g>
     <g id="text_10">
      <!-- 0.8 -->
      <g transform="translate(17.79 35.017582)scale(0.08 -0.08)">
       <defs>
        <path id="ArialMT-38" d="M 1131 2484 
Q 781 2613 612 2850 
Q 444 3088 444 3419 
Q 444 3919 803 4259 
Q 1163 4600 1759 4600 
Q 2359 4600 2725 4251 
Q 3091 3903 3091 3403 
Q 3091 3084 2923 2848 
Q 2756 2613 2416 2484 
Q 2838 2347 3058 2040 
Q 3278 1734 3278 1309 
Q 3278 722 2862 322 
Q 2447 -78 1769 -78 
Q 1091 -78 675 323 
Q 259 725 259 1325 
Q 259 1772 486 2073 
Q 713 2375 1131 2484 
z
M 1019 3438 
Q 1019 3113 1228 2906 
Q 1438 2700 1772 2700 
Q 2097 2700 2305 2904 
Q 2513 3109 2513 3406 
Q 2513 3716 2298 3927 
Q 2084 4138 1766 4138 
Q 1444 4138 1231 3931 
Q 1019 3725 1019 3438 
z
M 838 1322 
Q 838 1081 952 856 
Q 1066 631 1291 507 
Q 1516 384 1775 384 
Q 2178 384 2440 643 
Q 2703 903 2703 1303 
Q 2703 1709 2433 1975 
Q 2163 2241 1756 2241 
Q 1359 2241 1098 1978 
Q 838 1716 838 1322 
z
" transform="scale(0.015625)"/>
       </defs>
       <use xlink:href="#ArialMT-30"/>
       <use xlink:href="#ArialMT-2e" x="55.615234"/>
       <use xlink:href="#ArialMT-38" x="83.398438"/>
      </g>
     </g>
    </g>
    <g id="ytick_6">
     <g id="line2d_22">
      <g>
       <use xlink:href="#m880241df11" x="30.91" y="11.52" style="fill-opacity: 0; stroke: #000000; stroke-width: 0.5"/>
      </g>
     </g>
     <g id="text_11">
      <!-- 1.0 -->
      <g transform="translate(17.79 14.383125)scale(0.08 -0.08)">
       <use xlink:href="#ArialMT-31"/>
       <use xlink:href="#ArialMT-2e" x="55.615234"/>
       <use xlink:href="#ArialMT-30" x="83.398438"/>
      </g>
     </g>
    </g>
    <g id="ytick_7">
     <g id="line2d_23">
      <defs>
       <path id="me640fe2d21" d="M 0 0 
L 3 0 
" style="stroke: #000000; stroke-width: 0.5"/>
      </defs>
      <g>
       <use xlink:href="#me640fe2d21" x="30.91" y="109.533669" style="fill-opacity: 0; stroke: #000000; stroke-width: 0.5"/>
      </g>
     </g>
    </g>
    <g id="ytick_8">
     <g id="line2d_24">
      <g>
       <use xlink:href="#me640fe2d21" x="30.91" y="104.375055" style="fill-opacity: 0; stroke: #000000; stroke-width: 0.5"/>
      </g>
     </g>
    </g>
    <g id="ytick_9">
     <g id="line2d_25">
      <g>
       <use xlink:href="#me640fe2d21" x="30.91" y="99.216441" style="fill-opacity: 0; stroke: #000000; stroke-width: 0.5"/>
      </g>
     </g>
    </g>
    <g id="ytick_10">
     <g id="line2d_26">
      <g>
       <use xlink:href="#me640fe2d21" x="30.91" y="88.899213" style="fill-opacity: 0; stroke: #000000; stroke-width: 0.5"/>
      </g>
     </g>
    </g>
    <g id="ytick_11">
     <g id="line2d_27">
      <g>
       <use xlink:href="#me640fe2d21" x="30.91" y="83.740598" style="fill-opacity: 0; stroke: #000000; stroke-width: 0.5"/>
      </g>
     </g>
    </g>
    <g id="ytick_12">
     <g id="line2d_28">
      <g>
       <use xlink:href="#me640fe2d21" x="30.91" y="78.581984" style="fill-opacity: 0; stroke: #000000; stroke-width: 0.5"/>
      </g>
     </g>
    </g>
    <g id="ytick_13">
     <g id="line2d_29">
      <g>
       <use xlink:href="#me640fe2d21" x="30.91" y="68.264756" style="fill-opacity: 0; stroke: #000000; stroke-width: 0.5"/>
      </g>
     </g>
    </g>
    <g id="ytick_14">
     <g id="line2d_30">
      <g>
       <use xlink:href="#me640fe2d21" x="30.91" y="63.106142" style="fill-opacity: 0; stroke: #000000; stroke-width: 0.5"/>
      </g>
     </g>
    </g>
    <g id="ytick_15">
     <g id="line2d_31">
      <g>
       <use xlink:href="#me640fe2d21" x="30.91" y="57.947528" style="fill-opacity: 0; stroke: #000000; stroke-width: 0.5"/>
      </g>
     </g>
    </g>
    <g id="ytick_16">
     <g id="line2d_32">
      <g>
       <use xlink:href="#me640fe2d21" x="30.91" y="47.630299" style="fill-opacity: 0; stroke: #000000; stroke-width: 0.5"/>
      </g>
     </g>
    </g>
    <g id="ytick_17">
     <g id="line2d_33">
      <g>
       <use xlink:href="#me640fe2d21" x="30.91" y="42.471685" style="fill-opacity: 0; stroke: #000000; stroke-width: 0.5"/>
      </g>
     </g>
    </g>
    <g id="ytick_18">
     <g id="line2d_34">
      <g>
       <use xlink:href="#me640fe2d21" x="30.91" y="37.313071" style="fill-opacity: 0; stroke: #000000; stroke-width: 0.5"/>
      </g>
     </g>
    </g>
    <g id="ytick_19">
     <g id="line2d_35">
      <g>
       <use xlink:href="#me640fe2d21" x="30.91" y="26.995843" style="fill-opacity: 0; stroke: #000000; stroke-width: 0.5"/>
      </g>
     </g>
    </g>
    <g id="ytick_20">
     <g id="line2d_36">
      <g>
       <use xlink:href="#me640fe2d21" x="30.91" y="21.837228" style="fill-opacity: 0; stroke: #000000; stroke-width: 0.5"/>
      </g>
     </g>
    </g>
    <g id="ytick_21">
     <g id="line2d_37">
      <g>
       <use xlink:href="#me640fe2d21" x="30.91" y="16.678614" style="fill-opacity: 0; stroke: #000000; stroke-width: 0.5"/>
      </g>
     </g>
    </g>
    <g id="text_12">
     <!-- P(D&gt;C|IM) -->
     <g transform="translate(14.10625 82.034267)rotate(-90)scale(0.08 -0.08)">
      <defs>
       <path id="ArialMT-28" d="M 1497 -1347 
Q 1031 -759 709 28 
Q 388 816 388 1659 
Q 388 2403 628 3084 
Q 909 3875 1497 4659 
L 1900 4659 
Q 1522 4009 1400 3731 
Q 1209 3300 1100 2831 
Q 966 2247 966 1656 
Q 966 153 1900 -1347 
L 1497 -1347 
z
" transform="scale(0.015625)"/>
       <path id="ArialMT-44" d="M 494 0 
L 494 4581 
L 2072 4581 
Q 2606 4581 2888 4516 
Q 3281 4425 3559 4188 
Q 3922 3881 4101 3404 
Q 4281 2928 4281 2316 
Q 4281 1794 4159 1391 
Q 4038 988 3847 723 
Q 3656 459 3429 307 
Q 3203 156 2883 78 
Q 2563 0 2147 0 
L 494 0 
z
M 1100 541 
L 2078 541 
Q 2531 541 2789 625 
Q 3047 709 3200 863 
Q 3416 1078 3536 1442 
Q 3656 1806 3656 2325 
Q 3656 3044 3420 3430 
Q 3184 3816 2847 3947 
Q 2603 4041 2063 4041 
L 1100 4041 
L 1100 541 
z
" transform="scale(0.015625)"/>
       <path id="ArialMT-3e" d="M 3384 2003 
L 350 706 
L 350 1266 
L 2753 2263 
L 350 3250 
L 350 3809 
L 3384 2528 
L 3384 2003 
z
" transform="scale(0.015625)"/>
       <path id="ArialMT-43" d="M 3763 1606 
L 4369 1453 
Q 4178 706 3683 314 
Q 3188 -78 2472 -78 
Q 1731 -78 1267 223 
Q 803 525 561 1097 
Q 319 1669 319 2325 
Q 319 3041 592 3573 
Q 866 4106 1370 4382 
Q 1875 4659 2481 4659 
Q 3169 4659 3637 4309 
Q 4106 3959 4291 3325 
L 3694 3184 
Q 3534 3684 3231 3912 
Q 2928 4141 2469 4141 
Q 1941 4141 1586 3887 
Q 1231 3634 1087 3207 
Q 944 2781 944 2328 
Q 944 1744 1114 1308 
Q 1284 872 1643 656 
Q 2003 441 2422 441 
Q 2931 441 3284 734 
Q 3638 1028 3763 1606 
z
" transform="scale(0.015625)"/>
       <path id="ArialMT-7c" d="M 588 -1347 
L 588 4659 
L 1078 4659 
L 1078 -1347 
L 588 -1347 
z
" transform="scale(0.015625)"/>
       <path id="ArialMT-49" d="M 597 0 
L 597 4581 
L 1203 4581 
L 1203 0 
L 597 0 
z
" transform="scale(0.015625)"/>
       <path id="ArialMT-4d" d="M 475 0 
L 475 4581 
L 1388 4581 
L 2472 1338 
Q 2622 884 2691 659 
Q 2769 909 2934 1394 
L 4031 4581 
L 4847 4581 
L 4847 0 
L 4263 0 
L 4263 3834 
L 2931 0 
L 2384 0 
L 1059 3900 
L 1059 0 
L 475 0 
z
" transform="scale(0.015625)"/>
       <path id="ArialMT-29" d="M 791 -1347 
L 388 -1347 
Q 1322 153 1322 1656 
Q 1322 2244 1188 2822 
Q 1081 3291 891 3722 
Q 769 4003 388 4659 
L 791 4659 
Q 1378 3875 1659 3084 
Q 1900 2403 1900 1659 
Q 1900 816 1576 28 
Q 1253 -759 791 -1347 
z
" transform="scale(0.015625)"/>
      </defs>
      <use xlink:href="#ArialMT-50"/>
      <use xlink:href="#ArialMT-28" x="66.699219"/>
      <use xlink:href="#ArialMT-44" x="100"/>
      <use xlink:href="#ArialMT-3e" x="172.216797"/>
      <use xlink:href="#ArialMT-43" x="230.615234"/>
      <use xlink:href="#ArialMT-7c" x="302.832031"/>
      <use xlink:href="#ArialMT-49" x="328.808594"/>
      <use xlink:href="#ArialMT-4d" x="356.591797"/>
      <use xlink:href="#ArialMT-29" x="439.892578"/>
     </g>
    </g>
   </g>
   <g id="line2d_38">
    <path d="M 31.337746 114.658006 
L 32.629625 111.823815 
L 33.921503 104.953207 
L 35.213382 96.56702 
L 36.505261 88.118833 
L 37.797139 80.216007 
L 39.089018 73.065379 
L 40.380897 66.697063 
L 41.672776 61.067203 
L 42.964654 56.104787 
L 44.256533 51.732798 
L 45.548412 47.877456 
L 46.840291 44.47185 
L 48.132169 41.456958 
L 49.424048 38.781481 
L 50.715927 36.401167 
L 52.007805 34.277993 
L 53.299684 32.379323 
L 54.591563 30.677143 
L 55.883442 29.147375 
L 57.17532 27.769288 
L 58.467199 26.524995 
L 59.759078 25.399023 
L 61.050957 24.377957 
L 62.342835 23.450131 
L 63.634714 22.605379 
L 64.926593 21.834815 
L 66.218472 21.130654 
L 67.51035 20.486056 
L 68.802229 19.894999 
L 70.094108 19.352168 
L 71.385986 18.85286 
L 72.677865 18.392905 
L 73.969744 17.968596 
L 75.261623 17.576634 
L 76.553501 17.214073 
L 77.84538 16.878279 
L 79.137259 16.566895 
L 80.429138 16.277801 
L 81.721016 16.009095 
L 83.012895 15.759061 
L 84.304774 15.526152 
L 85.596652 15.30897 
L 86.888531 15.10625 
L 88.18041 14.916844 
L 89.472289 14.739711 
L 90.764167 14.573905 
L 92.056046 14.418563 
L 93.347925 14.2729 
L 94.639804 14.136199 
L 95.931682 14.007804 
L 97.223561 13.887115 
L 98.51544 13.773583 
L 99.807319 13.666704 
L 101.099197 13.566014 
L 102.391076 13.471089 
L 103.682955 13.381537 
L 104.974833 13.296997 
L 106.266712 13.217136 
L 107.558591 13.141648 
L 108.85047 13.070248 
L 110.142348 13.002675 
L 111.434227 12.938685 
L 112.726106 12.878054 
L 114.017985 12.820573 
L 115.309863 12.766048 
L 116.601742 12.714299 
L 117.893621 12.66516 
L 119.1855 12.618474 
L 120.477378 12.574097 
L 121.769257 12.531894 
L 123.061136 12.491739 
L 124.353014 12.453515 
L 125.644893 12.417112 
L 126.936772 12.382428 
L 128.228651 12.349367 
L 129.520529 12.317839 
L 130.812408 12.287761 
L 132.104287 12.259053 
L 133.396166 12.231643 
L 134.688044 12.205462 
L 135.979923 12.180443 
L 137.271802 12.156527 
L 138.56368 12.133657 
L 139.855559 12.111778 
L 141.147438 12.090839 
L 142.439317 12.070794 
L 143.731195 12.051598 
L 145.023074 12.033208 
L 146.314953 12.015584 
L 147.606832 11.998689 
L 148.89871 11.982487 
L 150.190589 11.966946 
L 151.482468 11.952032 
L 152.774347 11.937718 
L 154.066225 11.923973 
L 155.358104 11.910773 
L 156.649983 11.89809 
L 157.941861 11.885903 
L 159.23374 11.874187 
" clip-path="url(#pae7f0a3a8a)" style="fill: none; stroke: #000000; stroke-linecap: square"/>
    <defs>
     <path id="mbe738fee59" d="M 0 1 
C 0.265203 1 0.51958 0.894634 0.707107 0.707107 
C 0.894634 0.51958 1 0.265203 1 0 
C 1 -0.265203 0.894634 -0.51958 0.707107 -0.707107 
C 0.51958 -0.894634 0.265203 -1 0 -1 
C -0.265203 -1 -0.51958 -0.894634 -0.707107 -0.707107 
C -0.894634 -0.51958 -1 -0.265203 -1 0 
C -1 0.265203 -0.894634 0.51958 -0.707107 0.707107 
C -0.51958 0.894634 -0.265203 1 0 1 
z
" style="stroke: #000000; stroke-width: 0.8"/>
    </defs>
    <g clip-path="url(#pae7f0a3a8a)">
     <use xlink:href="#mbe738fee59" x="31.337746" y="114.658006" style="fill-opacity: 0; stroke: #000000; stroke-width: 0.8"/>
     <use xlink:href="#mbe738fee59" x="44.256533" y="51.732798" style="fill-opacity: 0; stroke: #000000; stroke-width: 0.8"/>
     <use xlink:href="#mbe738fee59" x="57.17532" y="27.769288" style="fill-opacity: 0; stroke: #000000; stroke-width: 0.8"/>
     <use xlink:href="#mbe738fee59" x="70.094108" y="19.352168" style="fill-opacity: 0; stroke: #000000; stroke-width: 0.8"/>
     <use xlink:href="#mbe738fee59" x="83.012895" y="15.759061" style="fill-opacity: 0; stroke: #000000; stroke-width: 0.8"/>
     <use xlink:href="#mbe738fee59" x="95.931682" y="14.007804" style="fill-opacity: 0; stroke: #000000; stroke-width: 0.8"/>
     <use xlink:href="#mbe738fee59" x="108.85047" y="13.070248" style="fill-opacity: 0; stroke: #000000; stroke-width: 0.8"/>
     <use xlink:href="#mbe738fee59" x="121.769257" y="12.531894" style="fill-opacity: 0; stroke: #000000; stroke-width: 0.8"/>
     <use xlink:href="#mbe738fee59" x="134.688044" y="12.205462" style="fill-opacity: 0; stroke: #000000; stroke-width: 0.8"/>
     <use xlink:href="#mbe738fee59" x="147.606832" y="11.998689" style="fill-opacity: 0; stroke: #000000; stroke-width: 0.8"/>
    </g>
   </g>
   <g id="line2d_39">
    <path d="M 31.337746 114.680507 
L 32.629625 112.767689 
L 33.921503 106.913848 
L 35.213382 98.951332 
L 36.505261 90.463418 
L 37.797139 82.263543 
L 39.089018 74.702392 
L 40.380897 67.894576 
L 41.672776 61.84154 
L 42.964654 56.494189 
L 44.256533 51.784153 
L 45.548412 47.639047 
L 46.840291 43.989613 
L 48.132169 40.772732 
L 49.424048 37.932362 
L 50.715927 35.419481 
L 52.007805 33.191563 
L 53.299684 31.211888 
L 54.591563 29.448814 
L 55.883442 27.875097 
L 57.17532 26.467265 
L 58.467199 25.205079 
L 59.759078 24.071058 
L 61.050957 23.050075 
L 62.342835 22.129015 
L 63.634714 21.296483 
L 64.926593 20.542555 
L 66.218472 19.858569 
L 67.51035 19.23695 
L 68.802229 18.671053 
L 70.094108 18.155043 
L 71.385986 17.68378 
L 72.677865 17.252728 
L 73.969744 16.857877 
L 75.261623 16.495672 
L 76.553501 16.16296 
L 77.84538 15.856933 
L 79.137259 15.57509 
L 80.429138 15.315198 
L 81.721016 15.075259 
L 83.012895 14.853484 
L 84.304774 14.648268 
L 85.596652 14.458165 
L 86.888531 14.281878 
L 88.18041 14.118234 
L 89.472289 13.966175 
L 90.764167 13.824744 
L 92.056046 13.693075 
L 93.347925 13.570382 
L 94.639804 13.455952 
L 95.931682 13.349136 
L 97.223561 13.249344 
L 98.51544 13.156039 
L 99.807319 13.068728 
L 101.099197 12.986963 
L 102.391076 12.910336 
L 103.682955 12.838469 
L 104.974833 12.771019 
L 106.266712 12.70767 
L 107.558591 12.648132 
L 108.85047 12.592138 
L 110.142348 12.539445 
L 111.434227 12.489824 
L 112.726106 12.443069 
L 114.017985 12.398987 
L 115.309863 12.357401 
L 116.601742 12.318146 
L 117.893621 12.281071 
L 119.1855 12.246036 
L 120.477378 12.21291 
L 121.769257 12.181573 
L 123.061136 12.151913 
L 124.353014 12.123825 
L 125.644893 12.097214 
L 126.936772 12.071988 
L 128.228651 12.048065 
L 129.520529 12.025367 
L 130.812408 12.003822 
L 132.104287 11.98336 
L 133.396166 11.96392 
L 134.688044 11.945442 
L 135.979923 11.927871 
L 137.271802 11.911156 
L 138.56368 11.895249 
L 139.855559 11.880103 
L 141.147438 11.865678 
L 142.439317 11.851934 
L 143.731195 11.838833 
L 145.023074 11.826341 
L 146.314953 11.814425 
L 147.606832 11.803054 
L 148.89871 11.7922 
L 150.190589 11.781835 
L 151.482468 11.771934 
L 152.774347 11.762474 
L 154.066225 11.753431 
L 155.358104 11.744784 
L 156.649983 11.736513 
L 157.941861 11.728599 
L 159.23374 11.721026 
" clip-path="url(#pae7f0a3a8a)" style="fill: none; stroke-dasharray: 2.96,1.28; stroke-dashoffset: 0; stroke: #dc0000; stroke-width: 0.8"/>
    <defs>
     <path id="ma5ab4ef1fb" d="M 0 1 
C 0.265203 1 0.51958 0.894634 0.707107 0.707107 
C 0.894634 0.51958 1 0.265203 1 0 
C 1 -0.265203 0.894634 -0.51958 0.707107 -0.707107 
C 0.51958 -0.894634 0.265203 -1 0 -1 
C -0.265203 -1 -0.51958 -0.894634 -0.707107 -0.707107 
C -0.894634 -0.51958 -1 -0.265203 -1 0 
C -1 0.265203 -0.894634 0.51958 -0.707107 0.707107 
C -0.51958 0.894634 -0.265203 1 0 1 
z
" style="stroke: #dc0000; stroke-width: 0.8"/>
    </defs>
    <g clip-path="url(#pae7f0a3a8a)">
     <use xlink:href="#ma5ab4ef1fb" x="31.337746" y="114.680507" style="fill-opacity: 0; stroke: #dc0000; stroke-width: 0.8"/>
     <use xlink:href="#ma5ab4ef1fb" x="44.256533" y="51.784153" style="fill-opacity: 0; stroke: #dc0000; stroke-width: 0.8"/>
     <use xlink:href="#ma5ab4ef1fb" x="57.17532" y="26.467265" style="fill-opacity: 0; stroke: #dc0000; stroke-width: 0.8"/>
     <use xlink:href="#ma5ab4ef1fb" x="70.094108" y="18.155043" style="fill-opacity: 0; stroke: #dc0000; stroke-width: 0.8"/>
     <use xlink:href="#ma5ab4ef1fb" x="83.012895" y="14.853484" style="fill-opacity: 0; stroke: #dc0000; stroke-width: 0.8"/>
     <use xlink:href="#ma5ab4ef1fb" x="95.931682" y="13.349136" style="fill-opacity: 0; stroke: #dc0000; stroke-width: 0.8"/>
     <use xlink:href="#ma5ab4ef1fb" x="108.85047" y="12.592138" style="fill-opacity: 0; stroke: #dc0000; stroke-width: 0.8"/>
     <use xlink:href="#ma5ab4ef1fb" x="121.769257" y="12.181573" style="fill-opacity: 0; stroke: #dc0000; stroke-width: 0.8"/>
     <use xlink:href="#ma5ab4ef1fb" x="134.688044" y="11.945442" style="fill-opacity: 0; stroke: #dc0000; stroke-width: 0.8"/>
     <use xlink:href="#ma5ab4ef1fb" x="147.606832" y="11.803054" style="fill-opacity: 0; stroke: #dc0000; stroke-width: 0.8"/>
    </g>
   </g>
   <g id="line2d_40">
    <path d="M 31.337746 114.69228 
L 32.629625 114.666394 
L 33.921503 114.339858 
L 35.213382 113.298789 
L 36.505261 111.362098 
L 37.797139 108.578907 
L 39.089018 105.111615 
L 40.380897 101.152052 
L 41.672776 96.879348 
L 42.964654 92.443698 
L 44.256533 87.963263 
L 45.548412 83.526825 
L 46.840291 79.198452 
L 48.132169 75.022406 
L 49.424048 71.027569 
L 50.715927 67.231157 
L 52.007805 63.641711 
L 53.299684 60.261437 
L 54.591563 57.088018 
L 55.883442 54.115989 
L 57.17532 51.337771 
L 58.467199 48.744445 
L 59.759078 46.326322 
L 61.050957 44.073358 
L 62.342835 41.97545 
L 63.634714 40.022651 
L 64.926593 38.205312 
L 66.218472 36.514177 
L 67.51035 34.940445 
L 68.802229 33.475799 
L 70.094108 32.112425 
L 71.385986 30.843005 
L 72.677865 29.660713 
L 73.969744 28.559192 
L 75.261623 27.53254 
L 76.553501 26.575283 
L 77.84538 25.682349 
L 79.137259 24.849044 
L 80.429138 24.07103 
L 81.721016 23.344293 
L 83.012895 22.665129 
L 84.304774 22.030113 
L 85.596652 21.436082 
L 86.888531 20.880116 
L 88.18041 20.359515 
L 89.472289 19.871789 
L 90.764167 19.414632 
L 92.056046 18.985917 
L 93.347925 18.583675 
L 94.639804 18.206086 
L 95.931682 17.851465 
L 97.223561 17.518255 
L 98.51544 17.205011 
L 99.807319 16.910398 
L 101.099197 16.633177 
L 102.391076 16.3722 
L 103.682955 16.126401 
L 104.974833 15.894792 
L 106.266712 15.676456 
L 107.558591 15.47054 
L 108.85047 15.276253 
L 110.142348 15.092859 
L 111.434227 14.919671 
L 112.726106 14.756054 
L 114.017985 14.601414 
L 115.309863 14.455199 
L 116.601742 14.316892 
L 117.893621 14.186015 
L 119.1855 14.062118 
L 120.477378 13.944785 
L 121.769257 13.833623 
L 123.061136 13.72827 
L 124.353014 13.628384 
L 125.644893 13.533647 
L 126.936772 13.44376 
L 128.228651 13.358444 
L 129.520529 13.277439 
L 130.812408 13.200499 
L 132.104287 13.127396 
L 133.396166 13.057915 
L 134.688044 12.991854 
L 135.979923 12.929024 
L 137.271802 12.869247 
L 138.56368 12.812358 
L 139.855559 12.758198 
L 141.147438 12.706622 
L 142.439317 12.65749 
L 143.731195 12.610673 
L 145.023074 12.566049 
L 146.314953 12.523501 
L 147.606832 12.482921 
L 148.89871 12.444208 
L 150.190589 12.407264 
L 151.482468 12.372 
L 152.774347 12.338328 
L 154.066225 12.30617 
L 155.358104 12.275447 
L 156.649983 12.246089 
L 157.941861 12.218027 
L 159.23374 12.191197 
" clip-path="url(#pae7f0a3a8a)" style="fill: none; stroke-dasharray: 5.12,1.28,0.8,1.28; stroke-dashoffset: 0; stroke: #3c5488; stroke-width: 0.8"/>
    <defs>
     <path id="mcb576d115b" d="M 0 1 
C 0.265203 1 0.51958 0.894634 0.707107 0.707107 
C 0.894634 0.51958 1 0.265203 1 0 
C 1 -0.265203 0.894634 -0.51958 0.707107 -0.707107 
C 0.51958 -0.894634 0.265203 -1 0 -1 
C -0.265203 -1 -0.51958 -0.894634 -0.707107 -0.707107 
C -0.894634 -0.51958 -1 -0.265203 -1 0 
C -1 0.265203 -0.894634 0.51958 -0.707107 0.707107 
C -0.51958 0.894634 -0.265203 1 0 1 
z
" style="stroke: #3c5488; stroke-width: 0.8"/>
    </defs>
    <g clip-path="url(#pae7f0a3a8a)">
     <use xlink:href="#mcb576d115b" x="31.337746" y="114.69228" style="fill-opacity: 0; stroke: #3c5488; stroke-width: 0.8"/>
     <use xlink:href="#mcb576d115b" x="44.256533" y="87.963263" style="fill-opacity: 0; stroke: #3c5488; stroke-width: 0.8"/>
     <use xlink:href="#mcb576d115b" x="57.17532" y="51.337771" style="fill-opacity: 0; stroke: #3c5488; stroke-width: 0.8"/>
     <use xlink:href="#mcb576d115b" x="70.094108" y="32.112425" style="fill-opacity: 0; stroke: #3c5488; stroke-width: 0.8"/>
     <use xlink:href="#mcb576d115b" x="83.012895" y="22.665129" style="fill-opacity: 0; stroke: #3c5488; stroke-width: 0.8"/>
     <use xlink:href="#mcb576d115b" x="95.931682" y="17.851465" style="fill-opacity: 0; stroke: #3c5488; stroke-width: 0.8"/>
     <use xlink:href="#mcb576d115b" x="108.85047" y="15.276253" style="fill-opacity: 0; stroke: #3c5488; stroke-width: 0.8"/>
     <use xlink:href="#mcb576d115b" x="121.769257" y="13.833623" style="fill-opacity: 0; stroke: #3c5488; stroke-width: 0.8"/>
     <use xlink:href="#mcb576d115b" x="134.688044" y="12.991854" style="fill-opacity: 0; stroke: #3c5488; stroke-width: 0.8"/>
     <use xlink:href="#mcb576d115b" x="147.606832" y="12.482921" style="fill-opacity: 0; stroke: #3c5488; stroke-width: 0.8"/>
    </g>
   </g>
   <g id="line2d_41">
    <path d="M 31.337746 114.691971 
L 32.629625 114.567931 
L 33.921503 113.922776 
L 35.213382 112.621018 
L 36.505261 110.743704 
L 37.797139 108.426683 
L 39.089018 105.800019 
L 40.380897 102.971539 
L 41.672776 100.025478 
L 42.964654 97.025658 
L 44.256533 94.019484 
L 45.548412 91.041595 
L 46.840291 88.116867 
L 48.132169 85.262775 
L 49.424048 82.491213 
L 50.715927 79.809883 
L 52.007805 77.223355 
L 53.299684 74.733862 
L 54.591563 72.341912 
L 55.883442 70.046746 
L 57.17532 67.846688 
L 58.467199 65.739412 
L 59.759078 63.722142 
L 61.050957 61.791806 
L 62.342835 59.945149 
L 63.634714 58.178822 
L 64.926593 56.489446 
L 66.218472 54.873661 
L 67.51035 53.328161 
L 68.802229 51.849718 
L 70.094108 50.435203 
L 71.385986 49.081594 
L 72.677865 47.785988 
L 73.969744 46.545601 
L 75.261623 45.357772 
L 76.553501 44.219964 
L 77.84538 43.129757 
L 79.137259 42.084852 
L 80.429138 41.083063 
L 81.721016 40.122315 
L 83.012895 39.200638 
L 84.304774 38.316165 
L 85.596652 37.467123 
L 86.888531 36.651834 
L 88.18041 35.868707 
L 89.472289 35.116234 
L 90.764167 34.392986 
L 92.056046 33.697609 
L 93.347925 33.028821 
L 94.639804 32.385403 
L 95.931682 31.766204 
L 97.223561 31.170129 
L 98.51544 30.596142 
L 99.807319 30.043259 
L 101.099197 29.510547 
L 102.391076 28.99712 
L 103.682955 28.502136 
L 104.974833 28.024798 
L 106.266712 27.564347 
L 107.558591 27.120063 
L 108.85047 26.691259 
L 110.142348 26.277285 
L 111.434227 25.877521 
L 112.726106 25.491379 
L 114.017985 25.118297 
L 115.309863 24.757741 
L 116.601742 24.409203 
L 117.893621 24.072199 
L 119.1855 23.746267 
L 120.477378 23.430967 
L 121.769257 23.125879 
L 123.061136 22.830605 
L 124.353014 22.544761 
L 125.644893 22.267983 
L 126.936772 21.999925 
L 128.228651 21.740253 
L 129.520529 21.488649 
L 130.812408 21.244812 
L 132.104287 21.008451 
L 133.396166 20.779288 
L 134.688044 20.557059 
L 135.979923 20.341509 
L 137.271802 20.132397 
L 138.56368 19.92949 
L 139.855559 19.732564 
L 141.147438 19.541407 
L 142.439317 19.355815 
L 143.731195 19.175592 
L 145.023074 19.00055 
L 146.314953 18.830509 
L 147.606832 18.665297 
L 148.89871 18.504748 
L 150.190589 18.348702 
L 151.482468 18.197009 
L 152.774347 18.049519 
L 154.066225 17.906094 
L 155.358104 17.766598 
L 156.649983 17.630901 
L 157.941861 17.498879 
L 159.23374 17.37041 
" clip-path="url(#pae7f0a3a8a)" style="fill: none; stroke: #000000; stroke-linecap: square"/>
    <defs>
     <path id="maa61bc90a2" d="M -1 1 
L 1 -1 
M -1 -1 
L 1 1 
" style="stroke: #000000; stroke-width: 0.8"/>
    </defs>
    <g clip-path="url(#pae7f0a3a8a)">
     <use xlink:href="#maa61bc90a2" x="31.337746" y="114.691971" style="fill-opacity: 0; stroke: #000000; stroke-width: 0.8"/>
     <use xlink:href="#maa61bc90a2" x="44.256533" y="94.019484" style="fill-opacity: 0; stroke: #000000; stroke-width: 0.8"/>
     <use xlink:href="#maa61bc90a2" x="57.17532" y="67.846688" style="fill-opacity: 0; stroke: #000000; stroke-width: 0.8"/>
     <use xlink:href="#maa61bc90a2" x="70.094108" y="50.435203" style="fill-opacity: 0; stroke: #000000; stroke-width: 0.8"/>
     <use xlink:href="#maa61bc90a2" x="83.012895" y="39.200638" style="fill-opacity: 0; stroke: #000000; stroke-width: 0.8"/>
     <use xlink:href="#maa61bc90a2" x="95.931682" y="31.766204" style="fill-opacity: 0; stroke: #000000; stroke-width: 0.8"/>
     <use xlink:href="#maa61bc90a2" x="108.85047" y="26.691259" style="fill-opacity: 0; stroke: #000000; stroke-width: 0.8"/>
     <use xlink:href="#maa61bc90a2" x="121.769257" y="23.125879" style="fill-opacity: 0; stroke: #000000; stroke-width: 0.8"/>
     <use xlink:href="#maa61bc90a2" x="134.688044" y="20.557059" style="fill-opacity: 0; stroke: #000000; stroke-width: 0.8"/>
     <use xlink:href="#maa61bc90a2" x="147.606832" y="18.665297" style="fill-opacity: 0; stroke: #000000; stroke-width: 0.8"/>
    </g>
   </g>
   <g id="line2d_42">
    <path d="M 31.337746 114.692242 
L 32.629625 114.647416 
L 33.921503 114.316978 
L 35.213382 113.503468 
L 36.505261 112.174155 
L 37.797139 110.38605 
L 39.089018 108.226998 
L 40.380897 105.787108 
L 41.672776 103.147193 
L 42.964654 100.37526 
L 44.256533 97.526515 
L 45.548412 94.644725 
L 46.840291 91.763976 
L 48.132169 88.910387 
L 49.424048 86.103648 
L 50.715927 83.358313 
L 52.007805 80.684861 
L 53.299684 78.090567 
L 54.591563 75.580196 
L 55.883442 73.156554 
L 57.17532 70.820934 
L 58.467199 68.573464 
L 59.759078 66.413386 
L 61.050957 64.339274 
L 62.342835 62.349209 
L 63.634714 60.440914 
L 64.926593 58.611865 
L 66.218472 56.859371 
L 67.51035 55.180644 
L 68.802229 53.572846 
L 70.094108 52.033134 
L 71.385986 50.558685 
L 72.677865 49.146724 
L 73.969744 47.794534 
L 75.261623 46.499479 
L 76.553501 45.259001 
L 77.84538 44.070636 
L 79.137259 42.93201 
L 80.429138 41.840846 
L 81.721016 40.794961 
L 83.012895 39.792269 
L 84.304774 38.830774 
L 85.596652 37.908573 
L 86.888531 37.023852 
L 88.18041 36.174883 
L 89.472289 35.360019 
L 90.764167 34.577693 
L 92.056046 33.826416 
L 93.347925 33.104769 
L 94.639804 32.411406 
L 95.931682 31.745045 
L 97.223561 31.104468 
L 98.51544 30.488518 
L 99.807319 29.896093 
L 101.099197 29.326147 
L 102.391076 28.777687 
L 103.682955 28.249766 
L 104.974833 27.741486 
L 106.266712 27.251992 
L 107.558591 26.78047 
L 108.85047 26.326147 
L 110.142348 25.888287 
L 111.434227 25.46619 
L 112.726106 25.059189 
L 114.017985 24.666649 
L 115.309863 24.287967 
L 116.601742 23.922565 
L 117.893621 23.569897 
L 119.1855 23.229439 
L 120.477378 22.900694 
L 121.769257 22.583185 
L 123.061136 22.276462 
L 124.353014 21.98009 
L 125.644893 21.693659 
L 126.936772 21.416775 
L 128.228651 21.149063 
L 129.520529 20.890163 
L 130.812408 20.639734 
L 132.104287 20.397447 
L 133.396166 20.162991 
L 134.688044 19.936067 
L 135.979923 19.716389 
L 137.271802 19.503683 
L 138.56368 19.297688 
L 139.855559 19.098154 
L 141.147438 18.904842 
L 142.439317 18.717522 
L 143.731195 18.535976 
L 145.023074 18.359992 
L 146.314953 18.189369 
L 147.606832 18.023915 
L 148.89871 17.863445 
L 150.190589 17.707781 
L 151.482468 17.556753 
L 152.774347 17.410198 
L 154.066225 17.267959 
L 155.358104 17.129887 
L 156.649983 16.995838 
L 157.941861 16.865672 
L 159.23374 16.739257 
" clip-path="url(#pae7f0a3a8a)" style="fill: none; stroke-dasharray: 2.96,1.28; stroke-dashoffset: 0; stroke: #dc0000; stroke-width: 0.8"/>
    <defs>
     <path id="m5211a9d110" d="M -1 1 
L 1 -1 
M -1 -1 
L 1 1 
" style="stroke: #dc0000; stroke-width: 0.8"/>
    </defs>
    <g clip-path="url(#pae7f0a3a8a)">
     <use xlink:href="#m5211a9d110" x="31.337746" y="114.692242" style="fill-opacity: 0; stroke: #dc0000; stroke-width: 0.8"/>
     <use xlink:href="#m5211a9d110" x="44.256533" y="97.526515" style="fill-opacity: 0; stroke: #dc0000; stroke-width: 0.8"/>
     <use xlink:href="#m5211a9d110" x="57.17532" y="70.820934" style="fill-opacity: 0; stroke: #dc0000; stroke-width: 0.8"/>
     <use xlink:href="#m5211a9d110" x="70.094108" y="52.033134" style="fill-opacity: 0; stroke: #dc0000; stroke-width: 0.8"/>
     <use xlink:href="#m5211a9d110" x="83.012895" y="39.792269" style="fill-opacity: 0; stroke: #dc0000; stroke-width: 0.8"/>
     <use xlink:href="#m5211a9d110" x="95.931682" y="31.745045" style="fill-opacity: 0; stroke: #dc0000; stroke-width: 0.8"/>
     <use xlink:href="#m5211a9d110" x="108.85047" y="26.326147" style="fill-opacity: 0; stroke: #dc0000; stroke-width: 0.8"/>
     <use xlink:href="#m5211a9d110" x="121.769257" y="22.583185" style="fill-opacity: 0; stroke: #dc0000; stroke-width: 0.8"/>
     <use xlink:href="#m5211a9d110" x="134.688044" y="19.936067" style="fill-opacity: 0; stroke: #dc0000; stroke-width: 0.8"/>
     <use xlink:href="#m5211a9d110" x="147.606832" y="18.023915" style="fill-opacity: 0; stroke: #dc0000; stroke-width: 0.8"/>
    </g>
   </g>
   <g id="line2d_43">
    <path d="M 31.337746 114.692283 
L 32.629625 114.692214 
L 33.921503 114.689745 
L 35.213382 114.673565 
L 36.505261 114.622054 
L 37.797139 114.509065 
L 39.089018 114.309912 
L 40.380897 114.004858 
L 41.672776 113.58036 
L 42.964654 113.028949 
L 44.256533 112.348433 
L 45.548412 111.540855 
L 46.840291 110.611465 
L 48.132169 109.567788 
L 49.424048 108.418854 
L 50.715927 107.174578 
L 52.007805 105.845279 
L 53.299684 104.44132 
L 54.591563 102.972848 
L 55.883442 101.449606 
L 57.17532 99.880814 
L 58.467199 98.275093 
L 59.759078 96.640423 
L 61.050957 94.98413 
L 62.342835 93.312888 
L 63.634714 91.63274 
L 64.926593 89.949125 
L 66.218472 88.266906 
L 67.51035 86.590413 
L 68.802229 84.923475 
L 70.094108 83.269462 
L 71.385986 81.631321 
L 72.677865 80.011611 
L 73.969744 78.412539 
L 75.261623 76.835995 
L 76.553501 75.283578 
L 77.84538 73.756626 
L 79.137259 72.256245 
L 80.429138 70.78333 
L 81.721016 69.338588 
L 83.012895 67.922558 
L 84.304774 66.535632 
L 85.596652 65.178069 
L 86.888531 63.85001 
L 88.18041 62.551494 
L 89.472289 61.28247 
L 90.764167 60.042805 
L 92.056046 58.832301 
L 93.347925 57.650696 
L 94.639804 56.497678 
L 95.931682 55.37289 
L 97.223561 54.275937 
L 98.51544 53.206392 
L 99.807319 52.163802 
L 101.099197 51.147691 
L 102.391076 50.157564 
L 103.682955 49.192915 
L 104.974833 48.253223 
L 106.266712 47.337962 
L 107.558591 46.4466 
L 108.85047 45.578601 
L 110.142348 44.733428 
L 111.434227 43.910546 
L 112.726106 43.10942 
L 114.017985 42.32952 
L 115.309863 41.57032 
L 116.601742 40.831301 
L 117.893621 40.111949 
L 119.1855 39.411757 
L 120.477378 38.730227 
L 121.769257 38.06687 
L 123.061136 37.421203 
L 124.353014 36.792755 
L 125.644893 36.181063 
L 126.936772 35.585674 
L 128.228651 35.006145 
L 129.520529 34.442042 
L 130.812408 33.892943 
L 132.104287 33.358434 
L 133.396166 32.838111 
L 134.688044 32.331582 
L 135.979923 31.838463 
L 137.271802 31.358379 
L 138.56368 30.890967 
L 139.855559 30.435873 
L 141.147438 29.992751 
L 142.439317 29.561266 
L 143.731195 29.14109 
L 145.023074 28.731907 
L 146.314953 28.333407 
L 147.606832 27.94529 
L 148.89871 27.567264 
L 150.190589 27.199045 
L 151.482468 26.840358 
L 152.774347 26.490935 
L 154.066225 26.150515 
L 155.358104 25.818847 
L 156.649983 25.495684 
L 157.941861 25.180789 
L 159.23374 24.873929 
" clip-path="url(#pae7f0a3a8a)" style="fill: none; stroke-dasharray: 5.12,1.28,0.8,1.28; stroke-dashoffset: 0; stroke: #3c5488; stroke-width: 0.8"/>
    <defs>
     <path id="m0f872055ca" d="M -1 1 
L 1 -1 
M -1 -1 
L 1 1 
" style="stroke: #3c5488; stroke-width: 0.8"/>
    </defs>
    <g clip-path="url(#pae7f0a3a8a)">
     <use xlink:href="#m0f872055ca" x="31.337746" y="114.692283" style="fill-opacity: 0; stroke: #3c5488; stroke-width: 0.8"/>
     <use xlink:href="#m0f872055ca" x="44.256533" y="112.348433" style="fill-opacity: 0; stroke: #3c5488; stroke-width: 0.8"/>
     <use xlink:href="#m0f872055ca" x="57.17532" y="99.880814" style="fill-opacity: 0; stroke: #3c5488; stroke-width: 0.8"/>
     <use xlink:href="#m0f872055ca" x="70.094108" y="83.269462" style="fill-opacity: 0; stroke: #3c5488; stroke-width: 0.8"/>
     <use xlink:href="#m0f872055ca" x="83.012895" y="67.922558" style="fill-opacity: 0; stroke: #3c5488; stroke-width: 0.8"/>
     <use xlink:href="#m0f872055ca" x="95.931682" y="55.37289" style="fill-opacity: 0; stroke: #3c5488; stroke-width: 0.8"/>
     <use xlink:href="#m0f872055ca" x="108.85047" y="45.578601" style="fill-opacity: 0; stroke: #3c5488; stroke-width: 0.8"/>
     <use xlink:href="#m0f872055ca" x="121.769257" y="38.06687" style="fill-opacity: 0; stroke: #3c5488; stroke-width: 0.8"/>
     <use xlink:href="#m0f872055ca" x="134.688044" y="32.331582" style="fill-opacity: 0; stroke: #3c5488; stroke-width: 0.8"/>
     <use xlink:href="#m0f872055ca" x="147.606832" y="27.94529" style="fill-opacity: 0; stroke: #3c5488; stroke-width: 0.8"/>
    </g>
   </g>
   <g id="line2d_44">
    <path d="M 31.337746 114.6916 
L 32.629625 114.593504 
L 33.921503 114.209336 
L 35.213382 113.517129 
L 36.505261 112.562753 
L 37.797139 111.401475 
L 39.089018 110.082851 
L 40.380897 108.647814 
L 41.672776 107.129165 
L 42.964654 105.552857 
L 44.256533 103.939323 
L 45.548412 102.304611 
L 46.840291 100.661304 
L 48.132169 99.019259 
L 49.424048 97.386173 
L 50.715927 95.768033 
L 52.007805 94.16947 
L 53.299684 92.594032 
L 54.591563 91.044401 
L 55.883442 89.52257 
L 57.17532 88.029973 
L 58.467199 86.567601 
L 59.759078 85.136085 
L 61.050957 83.73577 
L 62.342835 82.366769 
L 63.634714 81.029012 
L 64.926593 79.72228 
L 66.218472 78.446241 
L 67.51035 77.200467 
L 68.802229 75.984463 
L 70.094108 74.797677 
L 71.385986 73.639517 
L 72.677865 72.509362 
L 73.969744 71.406568 
L 75.261623 70.33048 
L 76.553501 69.280434 
L 77.84538 68.255765 
L 79.137259 67.255811 
L 80.429138 66.279911 
L 81.721016 65.327416 
L 83.012895 64.397683 
L 84.304774 63.490084 
L 85.596652 62.604 
L 86.888531 61.738827 
L 88.18041 60.893976 
L 89.472289 60.06887 
L 90.764167 59.262951 
L 92.056046 58.475672 
L 93.347925 57.706503 
L 94.639804 56.95493 
L 95.931682 56.220454 
L 97.223561 55.502588 
L 98.51544 54.800863 
L 99.807319 54.114823 
L 101.099197 53.444026 
L 102.391076 52.788044 
L 103.682955 52.146463 
L 104.974833 51.51888 
L 106.266712 50.904907 
L 107.558591 50.304167 
L 108.85047 49.716296 
L 110.142348 49.140941 
L 111.434227 48.577761 
L 112.726106 48.026423 
L 114.017985 47.48661 
L 115.309863 46.958009 
L 116.601742 46.440322 
L 117.893621 45.933257 
L 119.1855 45.436533 
L 120.477378 44.949878 
L 121.769257 44.473028 
L 123.061136 44.005727 
L 124.353014 43.547727 
L 125.644893 43.098789 
L 126.936772 42.658681 
L 128.228651 42.227176 
L 129.520529 41.804057 
L 130.812408 41.389113 
L 132.104287 40.982138 
L 133.396166 40.582934 
L 134.688044 40.191307 
L 135.979923 39.807071 
L 137.271802 39.430045 
L 138.56368 39.060053 
L 139.855559 38.696923 
L 141.147438 38.340491 
L 142.439317 37.990596 
L 143.731195 37.647082 
L 145.023074 37.309798 
L 146.314953 36.978596 
L 147.606832 36.653333 
L 148.89871 36.333873 
L 150.190589 36.020078 
L 151.482468 35.71182 
L 152.774347 35.40897 
L 154.066225 35.111406 
L 155.358104 34.819007 
L 156.649983 34.531656 
L 157.941861 34.249241 
L 159.23374 33.971651 
" clip-path="url(#pae7f0a3a8a)" style="fill: none; stroke: #000000; stroke-linecap: square"/>
    <defs>
     <path id="me8c439e57b" d="M 0 -1 
L -1 1 
L 1 1 
z
" style="stroke: #000000; stroke-width: 0.8; stroke-linejoin: miter"/>
    </defs>
    <g clip-path="url(#pae7f0a3a8a)">
     <use xlink:href="#me8c439e57b" x="31.337746" y="114.6916" style="fill-opacity: 0; stroke: #000000; stroke-width: 0.8; stroke-linejoin: miter"/>
     <use xlink:href="#me8c439e57b" x="44.256533" y="103.939323" style="fill-opacity: 0; stroke: #000000; stroke-width: 0.8; stroke-linejoin: miter"/>
     <use xlink:href="#me8c439e57b" x="57.17532" y="88.029973" style="fill-opacity: 0; stroke: #000000; stroke-width: 0.8; stroke-linejoin: miter"/>
     <use xlink:href="#me8c439e57b" x="70.094108" y="74.797677" style="fill-opacity: 0; stroke: #000000; stroke-width: 0.8; stroke-linejoin: miter"/>
     <use xlink:href="#me8c439e57b" x="83.012895" y="64.397683" style="fill-opacity: 0; stroke: #000000; stroke-width: 0.8; stroke-linejoin: miter"/>
     <use xlink:href="#me8c439e57b" x="95.931682" y="56.220454" style="fill-opacity: 0; stroke: #000000; stroke-width: 0.8; stroke-linejoin: miter"/>
     <use xlink:href="#me8c439e57b" x="108.85047" y="49.716296" style="fill-opacity: 0; stroke: #000000; stroke-width: 0.8; stroke-linejoin: miter"/>
     <use xlink:href="#me8c439e57b" x="121.769257" y="44.473028" style="fill-opacity: 0; stroke: #000000; stroke-width: 0.8; stroke-linejoin: miter"/>
     <use xlink:href="#me8c439e57b" x="134.688044" y="40.191307" style="fill-opacity: 0; stroke: #000000; stroke-width: 0.8; stroke-linejoin: miter"/>
     <use xlink:href="#me8c439e57b" x="147.606832" y="36.653333" style="fill-opacity: 0; stroke: #000000; stroke-width: 0.8; stroke-linejoin: miter"/>
    </g>
   </g>
   <g id="line2d_45">
    <path d="M 31.337746 114.692069 
L 32.629625 114.642441 
L 33.921503 114.407775 
L 35.213382 113.93652 
L 36.505261 113.239388 
L 37.797139 112.347271 
L 39.089018 111.294596 
L 40.380897 110.113435 
L 41.672776 108.831726 
L 42.964654 107.473079 
L 44.256533 106.057133 
L 45.548412 104.600092 
L 46.840291 103.115261 
L 48.132169 101.613532 
L 49.424048 100.103798 
L 50.715927 98.593305 
L 52.007805 97.08794 
L 53.299684 95.592474 
L 54.591563 94.110748 
L 55.883442 92.645845 
L 57.17532 91.200212 
L 58.467199 89.775776 
L 59.759078 88.374029 
L 61.050957 86.996102 
L 62.342835 85.64283 
L 63.634714 84.314798 
L 64.926593 83.012386 
L 66.218472 81.735805 
L 67.51035 80.485124 
L 68.802229 79.260294 
L 70.094108 78.061174 
L 71.385986 76.887542 
L 72.677865 75.739112 
L 73.969744 74.615547 
L 75.261623 73.516469 
L 76.553501 72.441467 
L 77.84538 71.390105 
L 79.137259 70.361926 
L 80.429138 69.356461 
L 81.721016 68.373231 
L 83.012895 67.411749 
L 84.304774 66.471526 
L 85.596652 65.552075 
L 86.888531 64.652906 
L 88.18041 63.773536 
L 89.472289 62.913485 
L 90.764167 62.07228 
L 92.056046 61.249454 
L 93.347925 60.44455 
L 94.639804 59.657116 
L 95.931682 58.886713 
L 97.223561 58.132906 
L 98.51544 57.395276 
L 99.807319 56.673407 
L 101.099197 55.966899 
L 102.391076 55.275356 
L 103.682955 54.598398 
L 104.974833 53.935649 
L 106.266712 53.286747 
L 107.558591 52.651337 
L 108.85047 52.029075 
L 110.142348 51.419626 
L 111.434227 50.822664 
L 112.726106 50.237872 
L 114.017985 49.664942 
L 115.309863 49.103574 
L 116.601742 48.553478 
L 117.893621 48.014371 
L 119.1855 47.485977 
L 120.477378 46.968031 
L 121.769257 46.460271 
L 123.061136 45.962448 
L 124.353014 45.474314 
L 125.644893 44.995634 
L 126.936772 44.526175 
L 128.228651 44.065713 
L 129.520529 43.61403 
L 130.812408 43.170914 
L 132.104287 42.736159 
L 133.396166 42.309565 
L 134.688044 41.890938 
L 135.979923 41.480088 
L 137.271802 41.076832 
L 138.56368 40.680991 
L 139.855559 40.292392 
L 141.147438 39.910867 
L 142.439317 39.536251 
L 143.731195 39.168384 
L 145.023074 38.807113 
L 146.314953 38.452285 
L 147.606832 38.103755 
L 148.89871 37.76138 
L 150.190589 37.42502 
L 151.482468 37.094542 
L 152.774347 36.769814 
L 154.066225 36.450708 
L 155.358104 36.137099 
L 156.649983 35.828867 
L 157.941861 35.525894 
L 159.23374 35.228065 
" clip-path="url(#pae7f0a3a8a)" style="fill: none; stroke-dasharray: 2.96,1.28; stroke-dashoffset: 0; stroke: #dc0000; stroke-width: 0.8"/>
    <defs>
     <path id="m8a5417c6e0" d="M 0 -1 
L -1 1 
L 1 1 
z
" style="stroke: #dc0000; stroke-width: 0.8; stroke-linejoin: miter"/>
    </defs>
    <g clip-path="url(#pae7f0a3a8a)">
     <use xlink:href="#m8a5417c6e0" x="31.337746" y="114.692069" style="fill-opacity: 0; stroke: #dc0000; stroke-width: 0.8; stroke-linejoin: miter"/>
     <use xlink:href="#m8a5417c6e0" x="44.256533" y="106.057133" style="fill-opacity: 0; stroke: #dc0000; stroke-width: 0.8; stroke-linejoin: miter"/>
     <use xlink:href="#m8a5417c6e0" x="57.17532" y="91.200212" style="fill-opacity: 0; stroke: #dc0000; stroke-width: 0.8; stroke-linejoin: miter"/>
     <use xlink:href="#m8a5417c6e0" x="70.094108" y="78.061174" style="fill-opacity: 0; stroke: #dc0000; stroke-width: 0.8; stroke-linejoin: miter"/>
     <use xlink:href="#m8a5417c6e0" x="83.012895" y="67.411749" style="fill-opacity: 0; stroke: #dc0000; stroke-width: 0.8; stroke-linejoin: miter"/>
     <use xlink:href="#m8a5417c6e0" x="95.931682" y="58.886713" style="fill-opacity: 0; stroke: #dc0000; stroke-width: 0.8; stroke-linejoin: miter"/>
     <use xlink:href="#m8a5417c6e0" x="108.85047" y="52.029075" style="fill-opacity: 0; stroke: #dc0000; stroke-width: 0.8; stroke-linejoin: miter"/>
     <use xlink:href="#m8a5417c6e0" x="121.769257" y="46.460271" style="fill-opacity: 0; stroke: #dc0000; stroke-width: 0.8; stroke-linejoin: miter"/>
     <use xlink:href="#m8a5417c6e0" x="134.688044" y="41.890938" style="fill-opacity: 0; stroke: #dc0000; stroke-width: 0.8; stroke-linejoin: miter"/>
     <use xlink:href="#m8a5417c6e0" x="147.606832" y="38.103755" style="fill-opacity: 0; stroke: #dc0000; stroke-width: 0.8; stroke-linejoin: miter"/>
    </g>
   </g>
   <g id="line2d_46">
    <path d="M 31.337746 114.692283 
L 32.629625 114.691823 
L 33.921503 114.685668 
L 35.213382 114.662293 
L 36.505261 114.609093 
L 37.797139 114.515646 
L 39.089018 114.374563 
L 40.380897 114.1813 
L 41.672776 113.933647 
L 42.964654 113.63119 
L 44.256533 113.274835 
L 45.548412 112.866422 
L 46.840291 112.408424 
L 48.132169 111.903722 
L 49.424048 111.355433 
L 50.715927 110.766781 
L 52.007805 110.141012 
L 53.299684 109.481324 
L 54.591563 108.790826 
L 55.883442 108.072503 
L 57.17532 107.329201 
L 58.467199 106.563611 
L 59.759078 105.77827 
L 61.050957 104.975551 
L 62.342835 104.157674 
L 63.634714 103.326704 
L 64.926593 102.484559 
L 66.218472 101.633017 
L 67.51035 100.773719 
L 68.802229 99.908183 
L 70.094108 99.037808 
L 71.385986 98.163878 
L 72.677865 97.287576 
L 73.969744 96.409988 
L 75.261623 95.532105 
L 76.553501 94.654838 
L 77.84538 93.779018 
L 79.137259 92.905404 
L 80.429138 92.034685 
L 81.721016 91.16749 
L 83.012895 90.304391 
L 84.304774 89.445903 
L 85.596652 88.592495 
L 86.888531 87.744589 
L 88.18041 86.902564 
L 89.472289 86.066761 
L 90.764167 85.237485 
L 92.056046 84.415007 
L 93.347925 83.599569 
L 94.639804 82.791383 
L 95.931682 81.990636 
L 97.223561 81.197491 
L 98.51544 80.412088 
L 99.807319 79.634548 
L 101.099197 78.864971 
L 102.391076 78.103444 
L 103.682955 77.350034 
L 104.974833 76.604796 
L 106.266712 75.867769 
L 107.558591 75.138984 
L 108.85047 74.418457 
L 110.142348 73.706195 
L 111.434227 73.002195 
L 112.726106 72.306448 
L 114.017985 71.618933 
L 115.309863 70.939626 
L 116.601742 70.268493 
L 117.893621 69.605496 
L 119.1855 68.950591 
L 120.477378 68.30373 
L 121.769257 67.66486 
L 123.061136 67.033922 
L 124.353014 66.410858 
L 125.644893 65.795602 
L 126.936772 65.188087 
L 128.228651 64.588246 
L 129.520529 63.996005 
L 130.812408 63.411292 
L 132.104287 62.83403 
L 133.396166 62.264143 
L 134.688044 61.701554 
L 135.979923 61.146181 
L 137.271802 60.597946 
L 138.56368 60.056767 
L 139.855559 59.522563 
L 141.147438 58.995251 
L 142.439317 58.474749 
L 143.731195 57.960974 
L 145.023074 57.453844 
L 146.314953 56.953276 
L 147.606832 56.459186 
L 148.89871 55.971493 
L 150.190589 55.490114 
L 151.482468 55.014967 
L 152.774347 54.54597 
L 154.066225 54.083042 
L 155.358104 53.626103 
L 156.649983 53.175071 
L 157.941861 52.729869 
L 159.23374 52.290416 
" clip-path="url(#pae7f0a3a8a)" style="fill: none; stroke-dasharray: 5.12,1.28,0.8,1.28; stroke-dashoffset: 0; stroke: #3c5488; stroke-width: 0.8"/>
    <defs>
     <path id="me4d5f1c1d7" d="M 0 -1 
L -1 1 
L 1 1 
z
" style="stroke: #3c5488; stroke-width: 0.8; stroke-linejoin: miter"/>
    </defs>
    <g clip-path="url(#pae7f0a3a8a)">
     <use xlink:href="#me4d5f1c1d7" x="31.337746" y="114.692283" style="fill-opacity: 0; stroke: #3c5488; stroke-width: 0.8; stroke-linejoin: miter"/>
     <use xlink:href="#me4d5f1c1d7" x="44.256533" y="113.274835" style="fill-opacity: 0; stroke: #3c5488; stroke-width: 0.8; stroke-linejoin: miter"/>
     <use xlink:href="#me4d5f1c1d7" x="57.17532" y="107.329201" style="fill-opacity: 0; stroke: #3c5488; stroke-width: 0.8; stroke-linejoin: miter"/>
     <use xlink:href="#me4d5f1c1d7" x="70.094108" y="99.037808" style="fill-opacity: 0; stroke: #3c5488; stroke-width: 0.8; stroke-linejoin: miter"/>
     <use xlink:href="#me4d5f1c1d7" x="83.012895" y="90.304391" style="fill-opacity: 0; stroke: #3c5488; stroke-width: 0.8; stroke-linejoin: miter"/>
     <use xlink:href="#me4d5f1c1d7" x="95.931682" y="81.990636" style="fill-opacity: 0; stroke: #3c5488; stroke-width: 0.8; stroke-linejoin: miter"/>
     <use xlink:href="#me4d5f1c1d7" x="108.85047" y="74.418457" style="fill-opacity: 0; stroke: #3c5488; stroke-width: 0.8; stroke-linejoin: miter"/>
     <use xlink:href="#me4d5f1c1d7" x="121.769257" y="67.66486" style="fill-opacity: 0; stroke: #3c5488; stroke-width: 0.8; stroke-linejoin: miter"/>
     <use xlink:href="#me4d5f1c1d7" x="134.688044" y="61.701554" style="fill-opacity: 0; stroke: #3c5488; stroke-width: 0.8; stroke-linejoin: miter"/>
     <use xlink:href="#me4d5f1c1d7" x="147.606832" y="56.459186" style="fill-opacity: 0; stroke: #3c5488; stroke-width: 0.8; stroke-linejoin: miter"/>
    </g>
   </g>
   <g id="line2d_47">
    <path d="M 31.337746 114.692177 
L 32.629625 114.667752 
L 33.921503 114.54817 
L 35.213382 114.298809 
L 36.505261 113.917097 
L 37.797139 113.413459 
L 39.089018 112.802597 
L 40.380897 112.099804 
L 41.672776 111.319469 
L 42.964654 110.474529 
L 44.256533 109.57636 
L 45.548412 108.634838 
L 46.840291 107.658478 
L 48.132169 106.654593 
L 49.424048 105.629449 
L 50.715927 104.588408 
L 52.007805 103.536058 
L 53.299684 102.476315 
L 54.591563 101.412529 
L 55.883442 100.347557 
L 57.17532 99.283836 
L 58.467199 98.223441 
L 59.759078 97.168137 
L 61.050957 96.119423 
L 62.342835 95.078564 
L 63.634714 94.046628 
L 64.926593 93.024512 
L 66.218472 92.012962 
L 67.51035 91.012596 
L 68.802229 90.02392 
L 70.094108 89.047344 
L 71.385986 88.083193 
L 72.677865 87.131718 
L 73.969744 86.19311 
L 75.261623 85.267503 
L 76.553501 84.354984 
L 77.84538 83.455597 
L 79.137259 82.569352 
L 80.429138 81.696229 
L 81.721016 80.83618 
L 83.012895 79.989133 
L 84.304774 79.154999 
L 85.596652 78.33367 
L 86.888531 77.525025 
L 88.18041 76.728929 
L 89.472289 75.945238 
L 90.764167 75.173801 
L 92.056046 74.414456 
L 93.347925 73.667039 
L 94.639804 72.931379 
L 95.931682 72.207303 
L 97.223561 71.494633 
L 98.51544 70.793191 
L 99.807319 70.102798 
L 101.099197 69.423271 
L 102.391076 68.754432 
L 103.682955 68.096098 
L 104.974833 67.44809 
L 106.266712 66.810229 
L 107.558591 66.182337 
L 108.85047 65.564237 
L 110.142348 64.955756 
L 111.434227 64.35672 
L 112.726106 63.766959 
L 114.017985 63.186304 
L 115.309863 62.61459 
L 116.601742 62.051654 
L 117.893621 61.497333 
L 119.1855 60.951469 
L 120.477378 60.413907 
L 121.769257 59.884493 
L 123.061136 59.363077 
L 124.353014 58.849511 
L 125.644893 58.343648 
L 126.936772 57.845347 
L 128.228651 57.354468 
L 129.520529 56.870874 
L 130.812408 56.394429 
L 132.104287 55.925001 
L 133.396166 55.462462 
L 134.688044 55.006685 
L 135.979923 54.557544 
L 137.271802 54.114918 
L 138.56368 53.678688 
L 139.855559 53.248737 
L 141.147438 52.824949 
L 142.439317 52.407214 
L 143.731195 51.99542 
L 145.023074 51.589461 
L 146.314953 51.18923 
L 147.606832 50.794624 
L 148.89871 50.405543 
L 150.190589 50.021887 
L 151.482468 49.643559 
L 152.774347 49.270464 
L 154.066225 48.902509 
L 155.358104 48.539604 
L 156.649983 48.181658 
L 157.941861 47.828585 
L 159.23374 47.480299 
" clip-path="url(#pae7f0a3a8a)" style="fill: none; stroke: #000000; stroke-linecap: square"/>
    <defs>
     <path id="mab1d94f620" d="M -1 1 
L 1 1 
L 1 -1 
L -1 -1 
z
" style="stroke: #000000; stroke-width: 0.8; stroke-linejoin: miter"/>
    </defs>
    <g clip-path="url(#pae7f0a3a8a)">
     <use xlink:href="#mab1d94f620" x="31.337746" y="114.692177" style="fill-opacity: 0; stroke: #000000; stroke-width: 0.8; stroke-linejoin: miter"/>
     <use xlink:href="#mab1d94f620" x="44.256533" y="109.57636" style="fill-opacity: 0; stroke: #000000; stroke-width: 0.8; stroke-linejoin: miter"/>
     <use xlink:href="#mab1d94f620" x="57.17532" y="99.283836" style="fill-opacity: 0; stroke: #000000; stroke-width: 0.8; stroke-linejoin: miter"/>
     <use xlink:href="#mab1d94f620" x="70.094108" y="89.047344" style="fill-opacity: 0; stroke: #000000; stroke-width: 0.8; stroke-linejoin: miter"/>
     <use xlink:href="#mab1d94f620" x="83.012895" y="79.989133" style="fill-opacity: 0; stroke: #000000; stroke-width: 0.8; stroke-linejoin: miter"/>
     <use xlink:href="#mab1d94f620" x="95.931682" y="72.207303" style="fill-opacity: 0; stroke: #000000; stroke-width: 0.8; stroke-linejoin: miter"/>
     <use xlink:href="#mab1d94f620" x="108.85047" y="65.564237" style="fill-opacity: 0; stroke: #000000; stroke-width: 0.8; stroke-linejoin: miter"/>
     <use xlink:href="#mab1d94f620" x="121.769257" y="59.884493" style="fill-opacity: 0; stroke: #000000; stroke-width: 0.8; stroke-linejoin: miter"/>
     <use xlink:href="#mab1d94f620" x="134.688044" y="55.006685" style="fill-opacity: 0; stroke: #000000; stroke-width: 0.8; stroke-linejoin: miter"/>
     <use xlink:href="#mab1d94f620" x="147.606832" y="50.794624" style="fill-opacity: 0; stroke: #000000; stroke-width: 0.8; stroke-linejoin: miter"/>
    </g>
   </g>
   <g id="line2d_48">
    <path d="M 31.337746 114.692257 
L 32.629625 114.682049 
L 33.921503 114.620436 
L 35.213382 114.474951 
L 36.505261 114.233125 
L 37.797139 113.894372 
L 39.089018 113.464072 
L 40.380897 112.95028 
L 41.672776 112.361973 
L 42.964654 111.70814 
L 44.256533 110.997328 
L 45.548412 110.237432 
L 46.840291 109.43562 
L 48.132169 108.598331 
L 49.424048 107.731307 
L 50.715927 106.839646 
L 52.007805 105.927858 
L 53.299684 104.999927 
L 54.591563 104.059362 
L 55.883442 103.109254 
L 57.17532 102.152321 
L 58.467199 101.190953 
L 59.759078 100.227245 
L 61.050957 99.263037 
L 62.342835 98.29994 
L 63.634714 97.339363 
L 64.926593 96.382539 
L 66.218472 95.430541 
L 67.51035 94.484303 
L 68.802229 93.544637 
L 70.094108 92.612244 
L 71.385986 91.687727 
L 72.677865 90.771607 
L 73.969744 89.864324 
L 75.261623 88.966253 
L 76.553501 88.077708 
L 77.84538 87.198949 
L 79.137259 86.330191 
L 80.429138 85.471604 
L 81.721016 84.623322 
L 83.012895 83.785447 
L 84.304774 82.958048 
L 85.596652 82.141172 
L 86.888531 81.33484 
L 88.18041 80.539055 
L 89.472289 79.753799 
L 90.764167 78.979041 
L 92.056046 78.214734 
L 93.347925 77.460819 
L 94.639804 76.717227 
L 95.931682 75.983879 
L 97.223561 75.260687 
L 98.51544 74.547556 
L 99.807319 73.844387 
L 101.099197 73.151073 
L 102.391076 72.467503 
L 103.682955 71.793564 
L 104.974833 71.129136 
L 106.266712 70.474101 
L 107.558591 69.828336 
L 108.85047 69.191717 
L 110.142348 68.564118 
L 111.434227 67.945414 
L 112.726106 67.335476 
L 114.017985 66.73418 
L 115.309863 66.141396 
L 116.601742 65.556999 
L 117.893621 64.980861 
L 119.1855 64.412856 
L 120.477378 63.85286 
L 121.769257 63.300747 
L 123.061136 62.756395 
L 124.353014 62.219681 
L 125.644893 61.690484 
L 126.936772 61.168683 
L 128.228651 60.654161 
L 129.520529 60.1468 
L 130.812408 59.646484 
L 132.104287 59.1531 
L 133.396166 58.666534 
L 134.688044 58.186676 
L 135.979923 57.713416 
L 137.271802 57.246647 
L 138.56368 56.786261 
L 139.855559 56.332155 
L 141.147438 55.884225 
L 142.439317 55.44237 
L 143.731195 55.00649 
L 145.023074 54.576488 
L 146.314953 54.152266 
L 147.606832 53.733731 
L 148.89871 53.320788 
L 150.190589 52.913346 
L 151.482468 52.511315 
L 152.774347 52.114606 
L 154.066225 51.723133 
L 155.358104 51.33681 
L 156.649983 50.955554 
L 157.941861 50.579281 
L 159.23374 50.20791 
" clip-path="url(#pae7f0a3a8a)" style="fill: none; stroke-dasharray: 2.96,1.28; stroke-dashoffset: 0; stroke: #dc0000; stroke-width: 0.8"/>
    <defs>
     <path id="me18f0b8b2f" d="M -1 1 
L 1 1 
L 1 -1 
L -1 -1 
z
" style="stroke: #dc0000; stroke-width: 0.8; stroke-linejoin: miter"/>
    </defs>
    <g clip-path="url(#pae7f0a3a8a)">
     <use xlink:href="#me18f0b8b2f" x="31.337746" y="114.692257" style="fill-opacity: 0; stroke: #dc0000; stroke-width: 0.8; stroke-linejoin: miter"/>
     <use xlink:href="#me18f0b8b2f" x="44.256533" y="110.997328" style="fill-opacity: 0; stroke: #dc0000; stroke-width: 0.8; stroke-linejoin: miter"/>
     <use xlink:href="#me18f0b8b2f" x="57.17532" y="102.152321" style="fill-opacity: 0; stroke: #dc0000; stroke-width: 0.8; stroke-linejoin: miter"/>
     <use xlink:href="#me18f0b8b2f" x="70.094108" y="92.612244" style="fill-opacity: 0; stroke: #dc0000; stroke-width: 0.8; stroke-linejoin: miter"/>
     <use xlink:href="#me18f0b8b2f" x="83.012895" y="83.785447" style="fill-opacity: 0; stroke: #dc0000; stroke-width: 0.8; stroke-linejoin: miter"/>
     <use xlink:href="#me18f0b8b2f" x="95.931682" y="75.983879" style="fill-opacity: 0; stroke: #dc0000; stroke-width: 0.8; stroke-linejoin: miter"/>
     <use xlink:href="#me18f0b8b2f" x="108.85047" y="69.191717" style="fill-opacity: 0; stroke: #dc0000; stroke-width: 0.8; stroke-linejoin: miter"/>
     <use xlink:href="#me18f0b8b2f" x="121.769257" y="63.300747" style="fill-opacity: 0; stroke: #dc0000; stroke-width: 0.8; stroke-linejoin: miter"/>
     <use xlink:href="#me18f0b8b2f" x="134.688044" y="58.186676" style="fill-opacity: 0; stroke: #dc0000; stroke-width: 0.8; stroke-linejoin: miter"/>
     <use xlink:href="#me18f0b8b2f" x="147.606832" y="53.733731" style="fill-opacity: 0; stroke: #dc0000; stroke-width: 0.8; stroke-linejoin: miter"/>
    </g>
   </g>
   <g id="line2d_49">
    <path d="M 31.337746 114.692283 
L 32.629625 114.69223 
L 33.921503 114.691291 
L 35.213382 114.686981 
L 36.505261 114.675699 
L 37.797139 114.65359 
L 39.089018 114.617074 
L 40.380897 114.563108 
L 41.672776 114.489256 
L 42.964654 114.393682 
L 44.256533 114.275093 
L 45.548412 114.132669 
L 46.840291 113.965989 
L 48.132169 113.774962 
L 49.424048 113.559766 
L 50.715927 113.320791 
L 52.007805 113.058598 
L 53.299684 112.773877 
L 54.591563 112.467414 
L 55.883442 112.140068 
L 57.17532 111.792746 
L 58.467199 111.426386 
L 59.759078 111.041944 
L 61.050957 110.640381 
L 62.342835 110.222652 
L 63.634714 109.789704 
L 64.926593 109.342462 
L 66.218472 108.881834 
L 67.51035 108.4087 
L 68.802229 107.923914 
L 70.094108 107.428299 
L 71.385986 106.922651 
L 72.677865 106.40773 
L 73.969744 105.884269 
L 75.261623 105.352968 
L 76.553501 104.814495 
L 77.84538 104.269489 
L 79.137259 103.71856 
L 80.429138 103.162285 
L 81.721016 102.601216 
L 83.012895 102.035877 
L 84.304774 101.466765 
L 85.596652 100.89435 
L 86.888531 100.319081 
L 88.18041 99.74138 
L 89.472289 99.161647 
L 90.764167 98.580263 
L 92.056046 97.997585 
L 93.347925 97.413951 
L 94.639804 96.829681 
L 95.931682 96.245078 
L 97.223561 95.660424 
L 98.51544 95.075988 
L 99.807319 94.492022 
L 101.099197 93.908765 
L 102.391076 93.326439 
L 103.682955 92.745255 
L 104.974833 92.165409 
L 106.266712 91.587088 
L 107.558591 91.010464 
L 108.85047 90.435701 
L 110.142348 89.862951 
L 111.434227 89.292356 
L 112.726106 88.72405 
L 114.017985 88.158158 
L 115.309863 87.594795 
L 116.601742 87.034069 
L 117.893621 86.476081 
L 119.1855 85.920924 
L 120.477378 85.368685 
L 121.769257 84.819443 
L 123.061136 84.273273 
L 124.353014 83.730242 
L 125.644893 83.190415 
L 126.936772 82.653847 
L 128.228651 82.120593 
L 129.520529 81.590699 
L 130.812408 81.06421 
L 132.104287 80.541164 
L 133.396166 80.021598 
L 134.688044 79.505543 
L 135.979923 78.993028 
L 137.271802 78.484076 
L 138.56368 77.978711 
L 139.855559 77.476951 
L 141.147438 76.978811 
L 142.439317 76.484306 
L 143.731195 75.993445 
L 145.023074 75.506238 
L 146.314953 75.022691 
L 147.606832 74.542807 
L 148.89871 74.066588 
L 150.190589 73.594036 
L 151.482468 73.125148 
L 152.774347 72.659921 
L 154.066225 72.19835 
L 155.358104 71.740429 
L 156.649983 71.286151 
L 157.941861 70.835506 
L 159.23374 70.388484 
" clip-path="url(#pae7f0a3a8a)" style="fill: none; stroke-dasharray: 5.12,1.28,0.8,1.28; stroke-dashoffset: 0; stroke: #3c5488; stroke-width: 0.8"/>
    <defs>
     <path id="me64c4f604d" d="M -1 1 
L 1 1 
L 1 -1 
L -1 -1 
z
" style="stroke: #3c5488; stroke-width: 0.8; stroke-linejoin: miter"/>
    </defs>
    <g clip-path="url(#pae7f0a3a8a)">
     <use xlink:href="#me64c4f604d" x="31.337746" y="114.692283" style="fill-opacity: 0; stroke: #3c5488; stroke-width: 0.8; stroke-linejoin: miter"/>
     <use xlink:href="#me64c4f604d" x="44.256533" y="114.275093" style="fill-opacity: 0; stroke: #3c5488; stroke-width: 0.8; stroke-linejoin: miter"/>
     <use xlink:href="#me64c4f604d" x="57.17532" y="111.792746" style="fill-opacity: 0; stroke: #3c5488; stroke-width: 0.8; stroke-linejoin: miter"/>
     <use xlink:href="#me64c4f604d" x="70.094108" y="107.428299" style="fill-opacity: 0; stroke: #3c5488; stroke-width: 0.8; stroke-linejoin: miter"/>
     <use xlink:href="#me64c4f604d" x="83.012895" y="102.035877" style="fill-opacity: 0; stroke: #3c5488; stroke-width: 0.8; stroke-linejoin: miter"/>
     <use xlink:href="#me64c4f604d" x="95.931682" y="96.245078" style="fill-opacity: 0; stroke: #3c5488; stroke-width: 0.8; stroke-linejoin: miter"/>
     <use xlink:href="#me64c4f604d" x="108.85047" y="90.435701" style="fill-opacity: 0; stroke: #3c5488; stroke-width: 0.8; stroke-linejoin: miter"/>
     <use xlink:href="#me64c4f604d" x="121.769257" y="84.819443" style="fill-opacity: 0; stroke: #3c5488; stroke-width: 0.8; stroke-linejoin: miter"/>
     <use xlink:href="#me64c4f604d" x="134.688044" y="79.505543" style="fill-opacity: 0; stroke: #3c5488; stroke-width: 0.8; stroke-linejoin: miter"/>
     <use xlink:href="#me64c4f604d" x="147.606832" y="74.542807" style="fill-opacity: 0; stroke: #3c5488; stroke-width: 0.8; stroke-linejoin: miter"/>
    </g>
   </g>
   <g id="patch_3">
    <path d="M 30.91 114.692283 
L 30.91 11.52 
" style="fill: none; stroke: #000000; stroke-width: 0.5; stroke-linejoin: miter; stroke-linecap: square"/>
   </g>
   <g id="patch_4">
    <path d="M 159.23374 114.692283 
L 159.23374 11.52 
" style="fill: none; stroke: #000000; stroke-width: 0.5; stroke-linejoin: miter; stroke-linecap: square"/>
   </g>
   <g id="patch_5">
    <path d="M 30.91 114.692283 
L 159.23374 114.692283 
" style="fill: none; stroke: #000000; stroke-width: 0.5; stroke-linejoin: miter; stroke-linecap: square"/>
   </g>
   <g id="patch_6">
    <path d="M 30.91 11.52 
L 159.23374 11.52 
" style="fill: none; stroke: #000000; stroke-width: 0.5; stroke-linejoin: miter; stroke-linecap: square"/>
   </g>
  </g>
 </g>
 <defs>
  <clipPath id="pae7f0a3a8a">
   <rect x="30.91" y="11.52" width="128.32374" height="103.172283"/>
  </clipPath>
 </defs>
</svg>
