<?xml version="1.0" encoding="utf-8" standalone="no"?>
<!DOCTYPE svg PUBLIC "-//W3C//DTD SVG 1.1//EN"
  "http://www.w3.org/Graphics/SVG/1.1/DTD/svg11.dtd">
<svg xmlns:xlink="http://www.w3.org/1999/xlink" width="170.07874pt" height="141.732283pt" viewBox="0 0 170.07874 141.732283" xmlns="http://www.w3.org/2000/svg" version="1.1">
 <metadata>
  <rdf:RDF xmlns:dc="http://purl.org/dc/elements/1.1/" xmlns:cc="http://creativecommons.org/ns#" xmlns:rdf="http://www.w3.org/1999/02/22-rdf-syntax-ns#">
   <cc:Work>
    <dc:type rdf:resource="http://purl.org/dc/dcmitype/StillImage"/>
    <dc:date>2025-01-06T17:26:19.552442</dc:date>
    <dc:format>image/svg+xml</dc:format>
    <dc:creator>
     <cc:Agent>
      <dc:title>Matplotlib v3.5.2, https://matplotlib.org/</dc:title>
     </cc:Agent>
    </dc:creator>
   </cc:Work>
  </rdf:RDF>
 </metadata>
 <defs>
  <style type="text/css">*{stroke-linejoin: round; stroke-linecap: butt}</style>
 </defs>
 <g id="figure_1">
  <g id="patch_1">
   <path d="M 0 141.732283 
L 170.07874 141.732283 
L 170.07874 0 
L 0 0 
z
" style="fill: #ffffff"/>
  </g>
  <g id="axes_1">
   <g id="patch_2">
    <path d="M 30.91 114.692283 
L 159.23374 114.692283 
L 159.23374 11.52 
L 30.91 11.52 
z
" style="fill: #ffffff"/>
   </g>
   <g id="PolyCollection_1">
    <defs>
     <path id="m6ba48dcc89" d="M 31.337746 -27.295224 
L 31.337746 -27.057786 
L 32.629625 -29.450302 
L 33.921503 -36.199285 
L 35.213382 -44.943272 
L 36.505261 -53.968379 
L 37.797139 -62.484275 
L 39.089018 -70.194481 
L 40.380897 -77.034411 
L 41.672776 -83.041296 
L 42.964654 -88.292218 
L 44.256533 -92.875184 
L 45.548412 -96.87611 
L 46.840291 -100.373448 
L 48.132169 -103.436474 
L 49.424048 -106.125272 
L 50.715927 -108.491445 
L 52.007805 -110.579088 
L 53.299684 -112.425801 
L 54.591563 -114.063628 
L 55.883442 -115.519904 
L 57.17532 -116.817978 
L 58.467199 -117.977832 
L 59.759078 -119.01661 
L 61.050957 -119.949052 
L 62.342835 -120.787866 
L 63.634714 -121.544037 
L 64.926593 -122.227084 
L 66.218472 -122.845277 
L 67.51035 -123.405821 
L 68.802229 -123.915006 
L 70.094108 -124.37834 
L 71.385986 -124.800655 
L 72.677865 -125.186201 
L 73.969744 -125.538726 
L 75.261623 -125.861538 
L 76.553501 -126.157568 
L 77.84538 -126.429416 
L 79.137259 -126.679392 
L 80.429138 -126.909554 
L 81.721016 -127.121739 
L 83.012895 -127.317589 
L 84.304774 -127.498572 
L 85.596652 -127.666008 
L 86.888531 -127.821081 
L 88.18041 -127.964857 
L 89.472289 -128.098298 
L 90.764167 -128.222269 
L 92.056046 -128.337557 
L 93.347925 -128.444869 
L 94.639804 -128.54485 
L 95.931682 -128.638084 
L 97.223561 -128.725101 
L 98.51544 -128.806385 
L 99.807319 -128.882375 
L 101.099197 -128.953473 
L 102.391076 -129.020046 
L 103.682955 -129.08243 
L 104.974833 -129.14093 
L 106.266712 -129.195829 
L 107.558591 -129.247383 
L 108.85047 -129.295831 
L 110.142348 -129.341389 
L 111.434227 -129.384259 
L 112.726106 -129.424623 
L 114.017985 -129.462654 
L 115.309863 -129.498506 
L 116.601742 -129.532325 
L 117.893621 -129.564245 
L 119.1855 -129.59439 
L 120.477378 -129.622874 
L 121.769257 -129.649803 
L 123.061136 -129.675276 
L 124.353014 -129.699384 
L 125.644893 -129.722212 
L 126.936772 -129.743838 
L 128.228651 -129.764337 
L 129.520529 -129.783775 
L 130.812408 -129.802216 
L 132.104287 -129.819721 
L 133.396166 -129.836343 
L 134.688044 -129.852134 
L 135.979923 -129.867143 
L 137.271802 -129.881414 
L 138.56368 -129.894989 
L 139.855559 -129.907907 
L 141.147438 -129.920206 
L 142.439317 -129.931918 
L 143.731195 -129.943078 
L 145.023074 -129.953714 
L 146.314953 -129.963856 
L 147.606832 -129.973529 
L 148.89871 -129.982759 
L 150.190589 -129.99157 
L 151.482468 -129.999982 
L 152.774347 -130.008018 
L 154.066225 -130.015696 
L 155.358104 -130.023035 
L 156.649983 -130.030051 
L 157.941861 -130.036763 
L 159.23374 -130.043184 
L 159.23374 -130.207876 
L 159.23374 -130.207876 
L 157.941861 -130.207651 
L 156.649983 -130.207414 
L 155.358104 -130.207162 
L 154.066225 -130.206896 
L 152.774347 -130.206613 
L 151.482468 -130.206313 
L 150.190589 -130.205995 
L 148.89871 -130.205657 
L 147.606832 -130.205297 
L 146.314953 -130.204916 
L 145.023074 -130.20451 
L 143.731195 -130.204078 
L 142.439317 -130.203618 
L 141.147438 -130.203129 
L 139.855559 -130.202607 
L 138.56368 -130.20205 
L 137.271802 -130.201456 
L 135.979923 -130.200823 
L 134.688044 -130.200146 
L 133.396166 -130.199422 
L 132.104287 -130.198648 
L 130.812408 -130.19782 
L 129.520529 -130.196933 
L 128.228651 -130.195983 
L 126.936772 -130.194964 
L 125.644893 -130.193871 
L 124.353014 -130.192697 
L 123.061136 -130.191436 
L 121.769257 -130.190079 
L 120.477378 -130.18862 
L 119.1855 -130.187048 
L 117.893621 -130.185353 
L 116.601742 -130.183526 
L 115.309863 -130.181553 
L 114.017985 -130.179421 
L 112.726106 -130.177116 
L 111.434227 -130.17462 
L 110.142348 -130.171917 
L 108.85047 -130.168985 
L 107.558591 -130.165803 
L 106.266712 -130.162346 
L 104.974833 -130.158586 
L 103.682955 -130.154492 
L 102.391076 -130.15003 
L 101.099197 -130.145161 
L 99.807319 -130.139843 
L 98.51544 -130.134027 
L 97.223561 -130.127658 
L 95.931682 -130.120676 
L 94.639804 -130.113011 
L 93.347925 -130.104586 
L 92.056046 -130.095313 
L 90.764167 -130.085092 
L 89.472289 -130.073809 
L 88.18041 -130.061335 
L 86.888531 -130.047524 
L 85.596652 -130.032207 
L 84.304774 -130.015192 
L 83.012895 -129.996256 
L 81.721016 -129.975146 
L 80.429138 -129.951568 
L 79.137259 -129.925182 
L 77.84538 -129.895593 
L 76.553501 -129.862342 
L 75.261623 -129.824894 
L 73.969744 -129.782623 
L 72.677865 -129.734792 
L 71.385986 -129.680535 
L 70.094108 -129.618825 
L 68.802229 -129.548447 
L 67.51035 -129.46795 
L 66.218472 -129.3756 
L 64.926593 -129.269313 
L 63.634714 -129.146572 
L 62.342835 -129.004328 
L 61.050957 -128.838859 
L 59.759078 -128.64561 
L 58.467199 -128.418961 
L 57.17532 -128.151947 
L 55.883442 -127.835876 
L 54.591563 -127.459827 
L 53.299684 -127.009976 
L 52.007805 -126.468697 
L 50.715927 -125.81332 
L 49.424048 -125.014436 
L 48.132169 -124.033532 
L 46.840291 -122.819669 
L 45.548412 -121.304761 
L 44.256533 -119.396793 
L 42.964654 -116.970013 
L 41.672776 -113.850663 
L 40.380897 -109.796329 
L 39.089018 -104.466781 
L 37.797139 -97.385952 
L 36.505261 -87.905108 
L 35.213382 -75.22265 
L 33.921503 -58.707984 
L 32.629625 -39.595257 
L 31.337746 -27.295224 
z
" style="stroke: #808080; stroke-opacity: 0.6"/>
    </defs>
    <g clip-path="url(#p4cc2a40779)">
     <use xlink:href="#m6ba48dcc89" x="0" y="141.732283" style="fill: #808080; fill-opacity: 0.6; stroke: #808080; stroke-opacity: 0.6"/>
    </g>
   </g>
   <g id="PolyCollection_2">
    <defs>
     <path id="m127b7e7311" d="M 31.337746 -27.042921 
L 31.337746 -27.040352 
L 32.629625 -27.227158 
L 33.921503 -28.242387 
L 35.213382 -30.281608 
L 36.505261 -33.163089 
L 37.797139 -36.629549 
L 39.089018 -40.453914 
L 40.380897 -44.461225 
L 41.672776 -48.524682 
L 42.964654 -52.555788 
L 44.256533 -56.494747 
L 45.548412 -60.302651 
L 46.840291 -63.955556 
L 48.132169 -67.44011 
L 49.424048 -70.750376 
L 50.715927 -73.88555 
L 52.007805 -76.848316 
L 53.299684 -79.643672 
L 54.591563 -82.278094 
L 55.883442 -84.758937 
L 57.17532 -87.094015 
L 58.467199 -89.291307 
L 59.759078 -91.358753 
L 61.050957 -93.304111 
L 62.342835 -95.134875 
L 63.634714 -96.858207 
L 64.926593 -98.480913 
L 66.218472 -100.009422 
L 67.51035 -101.449787 
L 68.802229 -102.807687 
L 70.094108 -104.088436 
L 71.385986 -105.297004 
L 72.677865 -106.438026 
L 73.969744 -107.515827 
L 75.261623 -108.534434 
L 76.553501 -109.4976 
L 77.84538 -110.408817 
L 79.137259 -111.271338 
L 80.429138 -112.088191 
L 81.721016 -112.862194 
L 83.012895 -113.595973 
L 84.304774 -114.291972 
L 85.596652 -114.952471 
L 86.888531 -115.579592 
L 88.18041 -116.175316 
L 89.472289 -116.74149 
L 90.764167 -117.279838 
L 92.056046 -117.791969 
L 93.347925 -118.279387 
L 94.639804 -118.743496 
L 95.931682 -119.185611 
L 97.223561 -119.606961 
L 98.51544 -120.008697 
L 99.807319 -120.391896 
L 101.099197 -120.757567 
L 102.391076 -121.106658 
L 103.682955 -121.440056 
L 104.974833 -121.758594 
L 106.266712 -122.063055 
L 107.558591 -122.354173 
L 108.85047 -122.63264 
L 110.142348 -122.899104 
L 111.434227 -123.154178 
L 112.726106 -123.398436 
L 114.017985 -123.632421 
L 115.309863 -123.856642 
L 116.601742 -124.071581 
L 117.893621 -124.277693 
L 119.1855 -124.475405 
L 120.477378 -124.665121 
L 121.769257 -124.847224 
L 123.061136 -125.022075 
L 124.353014 -125.190014 
L 125.644893 -125.351364 
L 126.936772 -125.506431 
L 128.228651 -125.655503 
L 129.520529 -125.798853 
L 130.812408 -125.936742 
L 132.104287 -126.069413 
L 133.396166 -126.197102 
L 134.688044 -126.320027 
L 135.979923 -126.438399 
L 137.271802 -126.552417 
L 138.56368 -126.662269 
L 139.855559 -126.768136 
L 141.147438 -126.870186 
L 142.439317 -126.968584 
L 143.731195 -127.063482 
L 145.023074 -127.155027 
L 146.314953 -127.243359 
L 147.606832 -127.328611 
L 148.89871 -127.410909 
L 150.190589 -127.490373 
L 151.482468 -127.567119 
L 152.774347 -127.641257 
L 154.066225 -127.712889 
L 155.358104 -127.782117 
L 156.649983 -127.849034 
L 157.941861 -127.913732 
L 159.23374 -127.976297 
L 159.23374 -129.867868 
L 159.23374 -129.867868 
L 157.941861 -129.855241 
L 156.649983 -129.842064 
L 155.358104 -129.82831 
L 154.066225 -129.813948 
L 152.774347 -129.798948 
L 151.482468 -129.783275 
L 150.190589 -129.766896 
L 148.89871 -129.749773 
L 147.606832 -129.731865 
L 146.314953 -129.713132 
L 145.023074 -129.693528 
L 143.731195 -129.673007 
L 142.439317 -129.651518 
L 141.147438 -129.629007 
L 139.855559 -129.605418 
L 138.56368 -129.58069 
L 137.271802 -129.554758 
L 135.979923 -129.527554 
L 134.688044 -129.499005 
L 133.396166 -129.469032 
L 132.104287 -129.437553 
L 130.812408 -129.404478 
L 129.520529 -129.369711 
L 128.228651 -129.333153 
L 126.936772 -129.294693 
L 125.644893 -129.254216 
L 124.353014 -129.211596 
L 123.061136 -129.166701 
L 121.769257 -129.119388 
L 120.477378 -129.069502 
L 119.1855 -129.01688 
L 117.893621 -128.961343 
L 116.601742 -128.902702 
L 115.309863 -128.840752 
L 114.017985 -128.775272 
L 112.726106 -128.706024 
L 111.434227 -128.632753 
L 110.142348 -128.555182 
L 108.85047 -128.473013 
L 107.558591 -128.385922 
L 106.266712 -128.293562 
L 104.974833 -128.195554 
L 103.682955 -128.091489 
L 102.391076 -127.980923 
L 101.099197 -127.863375 
L 99.807319 -127.738322 
L 98.51544 -127.605193 
L 97.223561 -127.463371 
L 95.931682 -127.312179 
L 94.639804 -127.150884 
L 93.347925 -126.97868 
L 92.056046 -126.79469 
L 90.764167 -126.597954 
L 89.472289 -126.38742 
L 88.18041 -126.161934 
L 86.888531 -125.920231 
L 85.596652 -125.660918 
L 84.304774 -125.382466 
L 83.012895 -125.083186 
L 81.721016 -124.76122 
L 80.429138 -124.414511 
L 79.137259 -124.040788 
L 77.84538 -123.637534 
L 76.553501 -123.201958 
L 75.261623 -122.730961 
L 73.969744 -122.221097 
L 72.677865 -121.668529 
L 71.385986 -121.068978 
L 70.094108 -120.417663 
L 68.802229 -119.709241 
L 67.51035 -118.937725 
L 66.218472 -118.096401 
L 64.926593 -117.177728 
L 63.634714 -116.173226 
L 62.342835 -115.073346 
L 61.050957 -113.867324 
L 59.759078 -112.543016 
L 58.467199 -111.08671 
L 57.17532 -109.482919 
L 55.883442 -107.714149 
L 54.591563 -105.760657 
L 53.299684 -103.600193 
L 52.007805 -101.207749 
L 50.715927 -98.555345 
L 49.424048 -95.611892 
L 48.132169 -92.343224 
L 46.840291 -88.712428 
L 45.548412 -84.680723 
L 44.256533 -80.209263 
L 42.964654 -75.262556 
L 41.672776 -69.814606 
L 40.380897 -63.859718 
L 39.089018 -57.431184 
L 37.797139 -50.633165 
L 36.505261 -43.693785 
L 35.213382 -37.048077 
L 33.921503 -31.441818 
L 32.629625 -27.926807 
L 31.337746 -27.042921 
z
" style="stroke: #808080; stroke-opacity: 0.5"/>
    </defs>
    <g clip-path="url(#p4cc2a40779)">
     <use xlink:href="#m127b7e7311" x="0" y="141.732283" style="fill: #808080; fill-opacity: 0.5; stroke: #808080; stroke-opacity: 0.5"/>
    </g>
   </g>
   <g id="PolyCollection_3">
    <defs>
     <path id="m5abc4e05dd" d="M 31.337746 -27.045288 
L 31.337746 -27.040435 
L 32.629625 -27.158896 
L 33.921503 -27.714815 
L 35.213382 -28.790851 
L 36.505261 -30.317281 
L 37.797139 -32.191618 
L 39.089018 -34.318035 
L 40.380897 -36.617145 
L 41.672776 -39.026304 
L 42.964654 -41.49724 
L 44.256533 -43.993268 
L 45.548412 -46.486801 
L 46.840291 -48.957294 
L 48.132169 -51.389633 
L 49.424048 -53.772873 
L 50.715927 -56.09927 
L 52.007805 -58.363533 
L 53.299684 -60.562252 
L 54.591563 -62.693454 
L 55.883442 -64.75626 
L 57.17532 -66.750625 
L 58.467199 -68.677127 
L 59.759078 -70.536812 
L 61.050957 -72.331071 
L 62.342835 -74.061539 
L 63.634714 -75.730025 
L 64.926593 -77.33845 
L 66.218472 -78.888806 
L 67.51035 -80.383115 
L 68.802229 -81.82341 
L 70.094108 -83.211706 
L 71.385986 -84.549993 
L 72.677865 -85.840218 
L 73.969744 -87.084278 
L 75.261623 -88.284016 
L 76.553501 -89.441217 
L 77.84538 -90.557602 
L 79.137259 -91.63483 
L 80.429138 -92.674496 
L 81.721016 -93.678132 
L 83.012895 -94.647208 
L 84.304774 -95.58313 
L 85.596652 -96.487249 
L 86.888531 -97.360853 
L 88.18041 -98.205177 
L 89.472289 -99.021401 
L 90.764167 -99.810653 
L 92.056046 -100.57401 
L 93.347925 -101.312502 
L 94.639804 -102.027112 
L 95.931682 -102.718781 
L 97.223561 -103.388407 
L 98.51544 -104.036847 
L 99.807319 -104.66492 
L 101.099197 -105.273411 
L 102.391076 -105.863066 
L 103.682955 -106.434603 
L 104.974833 -106.988704 
L 106.266712 -107.526023 
L 107.558591 -108.047185 
L 108.85047 -108.552789 
L 110.142348 -109.043407 
L 111.434227 -109.519586 
L 112.726106 -109.981849 
L 114.017985 -110.430699 
L 115.309863 -110.866616 
L 116.601742 -111.29006 
L 117.893621 -111.701472 
L 119.1855 -112.101273 
L 120.477378 -112.489869 
L 121.769257 -112.867648 
L 123.061136 -113.234981 
L 124.353014 -113.592227 
L 125.644893 -113.939727 
L 126.936772 -114.27781 
L 128.228651 -114.606792 
L 129.520529 -114.926976 
L 130.812408 -115.238652 
L 132.104287 -115.5421 
L 133.396166 -115.837589 
L 134.688044 -116.125377 
L 135.979923 -116.405713 
L 137.271802 -116.678834 
L 138.56368 -116.944971 
L 139.855559 -117.204344 
L 141.147438 -117.457165 
L 142.439317 -117.70364 
L 143.731195 -117.943966 
L 145.023074 -118.178331 
L 146.314953 -118.40692 
L 147.606832 -118.629907 
L 148.89871 -118.847462 
L 150.190589 -119.05975 
L 151.482468 -119.266926 
L 152.774347 -119.469144 
L 154.066225 -119.666551 
L 155.358104 -119.859286 
L 156.649983 -120.047488 
L 157.941861 -120.231287 
L 159.23374 -120.410811 
L 159.23374 -125.010784 
L 159.23374 -125.010784 
L 157.941861 -124.904946 
L 156.649983 -124.796294 
L 155.358104 -124.684735 
L 154.066225 -124.57017 
L 152.774347 -124.452499 
L 151.482468 -124.331614 
L 150.190589 -124.207406 
L 148.89871 -124.07976 
L 147.606832 -123.948557 
L 146.314953 -123.81367 
L 145.023074 -123.674971 
L 143.731195 -123.532324 
L 142.439317 -123.385586 
L 141.147438 -123.234611 
L 139.855559 -123.079243 
L 138.56368 -122.919322 
L 137.271802 -122.754679 
L 135.979923 -122.585139 
L 134.688044 -122.410517 
L 133.396166 -122.230621 
L 132.104287 -122.045249 
L 130.812408 -121.85419 
L 129.520529 -121.657225 
L 128.228651 -121.454122 
L 126.936772 -121.244638 
L 125.644893 -121.02852 
L 124.353014 -120.805501 
L 123.061136 -120.575303 
L 121.769257 -120.337632 
L 120.477378 -120.092179 
L 119.1855 -119.838623 
L 117.893621 -119.576622 
L 116.601742 -119.30582 
L 115.309863 -119.02584 
L 114.017985 -118.736288 
L 112.726106 -118.436746 
L 111.434227 -118.126777 
L 110.142348 -117.805917 
L 108.85047 -117.473679 
L 107.558591 -117.12955 
L 106.266712 -116.772986 
L 104.974833 -116.403414 
L 103.682955 -116.020229 
L 102.391076 -115.622791 
L 101.099197 -115.210422 
L 99.807319 -114.782406 
L 98.51544 -114.337984 
L 97.223561 -113.876352 
L 95.931682 -113.396659 
L 94.639804 -112.897999 
L 93.347925 -112.379414 
L 92.056046 -111.839885 
L 90.764167 -111.278328 
L 89.472289 -110.693593 
L 88.18041 -110.084454 
L 86.888531 -109.449607 
L 85.596652 -108.787663 
L 84.304774 -108.09714 
L 83.012895 -107.376461 
L 81.721016 -106.623938 
L 80.429138 -105.837771 
L 79.137259 -105.016038 
L 77.84538 -104.156681 
L 76.553501 -103.257501 
L 75.261623 -102.316143 
L 73.969744 -101.330087 
L 72.677865 -100.296632 
L 71.385986 -99.212884 
L 70.094108 -98.075742 
L 68.802229 -96.881881 
L 67.51035 -95.627736 
L 66.218472 -94.309487 
L 64.926593 -92.923038 
L 63.634714 -91.464007 
L 62.342835 -89.927702 
L 61.050957 -88.309115 
L 59.759078 -86.602905 
L 58.467199 -84.803395 
L 57.17532 -82.904573 
L 55.883442 -80.900109 
L 54.591563 -78.783385 
L 53.299684 -76.547552 
L 52.007805 -74.185631 
L 50.715927 -71.690664 
L 49.424048 -69.055947 
L 48.132169 -66.275385 
L 46.840291 -63.344023 
L 45.548412 -60.258836 
L 44.256533 -57.019915 
L 42.964654 -53.632237 
L 41.672776 -50.108353 
L 40.380897 -46.47247 
L 39.089018 -42.76673 
L 37.797139 -39.060916 
L 36.505261 -35.467421 
L 35.213382 -32.16364 
L 33.921503 -29.421095 
L 32.629625 -27.617164 
L 31.337746 -27.045288 
z
" style="stroke: #808080; stroke-opacity: 0.4"/>
    </defs>
    <g clip-path="url(#p4cc2a40779)">
     <use xlink:href="#m5abc4e05dd" x="0" y="141.732283" style="fill: #808080; fill-opacity: 0.4; stroke: #808080; stroke-opacity: 0.4"/>
    </g>
   </g>
   <g id="PolyCollection_4">
    <defs>
     <path id="m18a62f7783" d="M 31.337746 -27.040887 
L 31.337746 -27.040085 
L 32.629625 -27.076654 
L 33.921503 -27.288373 
L 35.213382 -27.75991 
L 36.505261 -28.499936 
L 37.797139 -29.482704 
L 39.089018 -30.671175 
L 40.380897 -32.027267 
L 41.672776 -33.515966 
L 42.964654 -35.106691 
L 44.256533 -36.773446 
L 45.548412 -38.494477 
L 46.840291 -40.251765 
L 48.132169 -42.030487 
L 49.424048 -43.818514 
L 50.715927 -45.605974 
L 52.007805 -47.384871 
L 53.299684 -49.148764 
L 54.591563 -50.892505 
L 55.883442 -52.612011 
L 57.17532 -54.304084 
L 58.467199 -55.966256 
L 59.759078 -57.596664 
L 61.050957 -59.193941 
L 62.342835 -60.757135 
L 63.634714 -62.285632 
L 64.926593 -63.779096 
L 66.218472 -65.237424 
L 67.51035 -66.660697 
L 68.802229 -68.04915 
L 70.094108 -69.403142 
L 71.385986 -70.72313 
L 72.677865 -72.009651 
L 73.969744 -73.263306 
L 75.261623 -74.48474 
L 76.553501 -75.674639 
L 77.84538 -76.833711 
L 79.137259 -77.962685 
L 80.429138 -79.062299 
L 81.721016 -80.1333 
L 83.012895 -81.176433 
L 84.304774 -82.192441 
L 85.596652 -83.182062 
L 86.888531 -84.146023 
L 88.18041 -85.085042 
L 89.472289 -85.999825 
L 90.764167 -86.891063 
L 92.056046 -87.759433 
L 93.347925 -88.605596 
L 94.639804 -89.430199 
L 95.931682 -90.233869 
L 97.223561 -91.01722 
L 98.51544 -91.780848 
L 99.807319 -92.52533 
L 101.099197 -93.25123 
L 102.391076 -93.959093 
L 103.682955 -94.64945 
L 104.974833 -95.322813 
L 106.266712 -95.979681 
L 107.558591 -96.620536 
L 108.85047 -97.245846 
L 110.142348 -97.856063 
L 111.434227 -98.451625 
L 112.726106 -99.032958 
L 114.017985 -99.600472 
L 115.309863 -100.154566 
L 116.601742 -100.695624 
L 117.893621 -101.224018 
L 119.1855 -101.740111 
L 120.477378 -102.24425 
L 121.769257 -102.736774 
L 123.061136 -103.21801 
L 124.353014 -103.688274 
L 125.644893 -104.147872 
L 126.936772 -104.597102 
L 128.228651 -105.036249 
L 129.520529 -105.465593 
L 130.812408 -105.885401 
L 132.104287 -106.295935 
L 133.396166 -106.697446 
L 134.688044 -107.090179 
L 135.979923 -107.474369 
L 137.271802 -107.850247 
L 138.56368 -108.218034 
L 139.855559 -108.577944 
L 141.147438 -108.930187 
L 142.439317 -109.274963 
L 143.731195 -109.612468 
L 145.023074 -109.942892 
L 146.314953 -110.266418 
L 147.606832 -110.583224 
L 148.89871 -110.893484 
L 150.190589 -111.197363 
L 151.482468 -111.495026 
L 152.774347 -111.786628 
L 154.066225 -112.072323 
L 155.358104 -112.352259 
L 156.649983 -112.626579 
L 157.941861 -112.895423 
L 159.23374 -113.158927 
L 159.23374 -118.873007 
L 159.23374 -118.873007 
L 157.941861 -118.68182 
L 156.649983 -118.48635 
L 155.358104 -118.286473 
L 154.066225 -118.082064 
L 152.774347 -117.872992 
L 151.482468 -117.659122 
L 150.190589 -117.440315 
L 148.89871 -117.216425 
L 147.606832 -116.987303 
L 146.314953 -116.752794 
L 145.023074 -116.512735 
L 143.731195 -116.26696 
L 142.439317 -116.015297 
L 141.147438 -115.757564 
L 139.855559 -115.493577 
L 138.56368 -115.223142 
L 137.271802 -114.946059 
L 135.979923 -114.662119 
L 134.688044 -114.371106 
L 133.396166 -114.072796 
L 132.104287 -113.766955 
L 130.812408 -113.453342 
L 129.520529 -113.131705 
L 128.228651 -112.801782 
L 126.936772 -112.463301 
L 125.644893 -112.115978 
L 124.353014 -111.75952 
L 123.061136 -111.393619 
L 121.769257 -111.017958 
L 120.477378 -110.632203 
L 119.1855 -110.236009 
L 117.893621 -109.829016 
L 116.601742 -109.410848 
L 115.309863 -108.981113 
L 114.017985 -108.539404 
L 112.726106 -108.085296 
L 111.434227 -107.618344 
L 110.142348 -107.138085 
L 108.85047 -106.644037 
L 107.558591 -106.135694 
L 106.266712 -105.61253 
L 104.974833 -105.073995 
L 103.682955 -104.519514 
L 102.391076 -103.948486 
L 101.099197 -103.360284 
L 99.807319 -102.754252 
L 98.51544 -102.129703 
L 97.223561 -101.485921 
L 95.931682 -100.822155 
L 94.639804 -100.137619 
L 93.347925 -99.431493 
L 92.056046 -98.702917 
L 90.764167 -97.950993 
L 89.472289 -97.174778 
L 88.18041 -96.373289 
L 86.888531 -95.545495 
L 85.596652 -94.690318 
L 84.304774 -93.80663 
L 83.012895 -92.893252 
L 81.721016 -91.948952 
L 80.429138 -90.972439 
L 79.137259 -89.96237 
L 77.84538 -88.917339 
L 76.553501 -87.835882 
L 75.261623 -86.716474 
L 73.969744 -85.557529 
L 72.677865 -84.3574 
L 71.385986 -83.114379 
L 70.094108 -81.826704 
L 68.802229 -80.492556 
L 67.51035 -79.110071 
L 66.218472 -77.677346 
L 64.926593 -76.192448 
L 63.634714 -74.653431 
L 62.342835 -73.05836 
L 61.050957 -71.405331 
L 59.759078 -69.692513 
L 58.467199 -67.918188 
L 57.17532 -66.080817 
L 55.883442 -64.179112 
L 54.591563 -62.212143 
L 53.299684 -60.179462 
L 52.007805 -58.081283 
L 50.715927 -55.918696 
L 49.424048 -53.693963 
L 48.132169 -51.410903 
L 46.840291 -49.075391 
L 45.548412 -46.696027 
L 44.256533 -44.285023 
L 42.964654 -41.859379 
L 41.672776 -39.442449 
L 40.380897 -37.066014 
L 39.089018 -34.772989 
L 37.797139 -32.620792 
L 36.505261 -30.685132 
L 35.213382 -29.062777 
L 33.921503 -27.867999 
L 32.629625 -27.203625 
L 31.337746 -27.040887 
z
" style="stroke: #808080; stroke-opacity: 0.3"/>
    </defs>
    <g clip-path="url(#p4cc2a40779)">
     <use xlink:href="#m18a62f7783" x="0" y="141.732283" style="fill: #808080; fill-opacity: 0.3; stroke: #808080; stroke-opacity: 0.3"/>
    </g>
   </g>
   <g id="matplotlib.axis_1">
    <g id="xtick_1">
     <g id="line2d_1">
      <defs>
       <path id="m6072fc1d1d" d="M 0 0 
L 0 -5 
" style="stroke: #000000; stroke-width: 0.5"/>
      </defs>
      <g>
       <use xlink:href="#m6072fc1d1d" x="30.91" y="114.692283" style="fill-opacity: 0; stroke: #000000; stroke-width: 0.5"/>
      </g>
     </g>
     <g id="text_1">
      <!-- 0 -->
      <g transform="translate(28.685625 122.418533)scale(0.08 -0.08)">
       <defs>
        <path id="ArialMT-30" d="M 266 2259 
Q 266 3072 433 3567 
Q 600 4063 929 4331 
Q 1259 4600 1759 4600 
Q 2128 4600 2406 4451 
Q 2684 4303 2865 4023 
Q 3047 3744 3150 3342 
Q 3253 2941 3253 2259 
Q 3253 1453 3087 958 
Q 2922 463 2592 192 
Q 2263 -78 1759 -78 
Q 1097 -78 719 397 
Q 266 969 266 2259 
z
M 844 2259 
Q 844 1131 1108 757 
Q 1372 384 1759 384 
Q 2147 384 2411 759 
Q 2675 1134 2675 2259 
Q 2675 3391 2411 3762 
Q 2147 4134 1753 4134 
Q 1366 4134 1134 3806 
Q 844 3388 844 2259 
z
" transform="scale(0.015625)"/>
       </defs>
       <use xlink:href="#ArialMT-30"/>
      </g>
     </g>
    </g>
    <g id="xtick_2">
     <g id="line2d_2">
      <g>
       <use xlink:href="#m6072fc1d1d" x="73.68458" y="114.692283" style="fill-opacity: 0; stroke: #000000; stroke-width: 0.5"/>
      </g>
     </g>
     <g id="text_2">
      <!-- 1 -->
      <g transform="translate(71.460205 122.418533)scale(0.08 -0.08)">
       <defs>
        <path id="ArialMT-31" d="M 2384 0 
L 1822 0 
L 1822 3584 
Q 1619 3391 1289 3197 
Q 959 3003 697 2906 
L 697 3450 
Q 1169 3672 1522 3987 
Q 1875 4303 2022 4600 
L 2384 4600 
L 2384 0 
z
" transform="scale(0.015625)"/>
       </defs>
       <use xlink:href="#ArialMT-31"/>
      </g>
     </g>
    </g>
    <g id="xtick_3">
     <g id="line2d_3">
      <g>
       <use xlink:href="#m6072fc1d1d" x="116.45916" y="114.692283" style="fill-opacity: 0; stroke: #000000; stroke-width: 0.5"/>
      </g>
     </g>
     <g id="text_3">
      <!-- 2 -->
      <g transform="translate(114.234785 122.418533)scale(0.08 -0.08)">
       <defs>
        <path id="ArialMT-32" d="M 3222 541 
L 3222 0 
L 194 0 
Q 188 203 259 391 
Q 375 700 629 1000 
Q 884 1300 1366 1694 
Q 2113 2306 2375 2664 
Q 2638 3022 2638 3341 
Q 2638 3675 2398 3904 
Q 2159 4134 1775 4134 
Q 1369 4134 1125 3890 
Q 881 3647 878 3216 
L 300 3275 
Q 359 3922 746 4261 
Q 1134 4600 1788 4600 
Q 2447 4600 2831 4234 
Q 3216 3869 3216 3328 
Q 3216 3053 3103 2787 
Q 2991 2522 2730 2228 
Q 2469 1934 1863 1422 
Q 1356 997 1212 845 
Q 1069 694 975 541 
L 3222 541 
z
" transform="scale(0.015625)"/>
       </defs>
       <use xlink:href="#ArialMT-32"/>
      </g>
     </g>
    </g>
    <g id="xtick_4">
     <g id="line2d_4">
      <g>
       <use xlink:href="#m6072fc1d1d" x="159.23374" y="114.692283" style="fill-opacity: 0; stroke: #000000; stroke-width: 0.5"/>
      </g>
     </g>
     <g id="text_4">
      <!-- 3 -->
      <g transform="translate(157.009365 122.418533)scale(0.08 -0.08)">
       <defs>
        <path id="ArialMT-33" d="M 269 1209 
L 831 1284 
Q 928 806 1161 595 
Q 1394 384 1728 384 
Q 2125 384 2398 659 
Q 2672 934 2672 1341 
Q 2672 1728 2419 1979 
Q 2166 2231 1775 2231 
Q 1616 2231 1378 2169 
L 1441 2663 
Q 1497 2656 1531 2656 
Q 1891 2656 2178 2843 
Q 2466 3031 2466 3422 
Q 2466 3731 2256 3934 
Q 2047 4138 1716 4138 
Q 1388 4138 1169 3931 
Q 950 3725 888 3313 
L 325 3413 
Q 428 3978 793 4289 
Q 1159 4600 1703 4600 
Q 2078 4600 2393 4439 
Q 2709 4278 2876 4000 
Q 3044 3722 3044 3409 
Q 3044 3113 2884 2869 
Q 2725 2625 2413 2481 
Q 2819 2388 3044 2092 
Q 3269 1797 3269 1353 
Q 3269 753 2831 336 
Q 2394 -81 1725 -81 
Q 1122 -81 723 278 
Q 325 638 269 1209 
z
" transform="scale(0.015625)"/>
       </defs>
       <use xlink:href="#ArialMT-33"/>
      </g>
     </g>
    </g>
    <g id="xtick_5">
     <g id="line2d_5">
      <defs>
       <path id="m22ebee7c0d" d="M 0 0 
L 0 -3 
" style="stroke: #000000; stroke-width: 0.5"/>
      </defs>
      <g>
       <use xlink:href="#m22ebee7c0d" x="39.464916" y="114.692283" style="fill-opacity: 0; stroke: #000000; stroke-width: 0.5"/>
      </g>
     </g>
    </g>
    <g id="xtick_6">
     <g id="line2d_6">
      <g>
       <use xlink:href="#m22ebee7c0d" x="48.019832" y="114.692283" style="fill-opacity: 0; stroke: #000000; stroke-width: 0.5"/>
      </g>
     </g>
    </g>
    <g id="xtick_7">
     <g id="line2d_7">
      <g>
       <use xlink:href="#m22ebee7c0d" x="56.574748" y="114.692283" style="fill-opacity: 0; stroke: #000000; stroke-width: 0.5"/>
      </g>
     </g>
    </g>
    <g id="xtick_8">
     <g id="line2d_8">
      <g>
       <use xlink:href="#m22ebee7c0d" x="65.129664" y="114.692283" style="fill-opacity: 0; stroke: #000000; stroke-width: 0.5"/>
      </g>
     </g>
    </g>
    <g id="xtick_9">
     <g id="line2d_9">
      <g>
       <use xlink:href="#m22ebee7c0d" x="82.239496" y="114.692283" style="fill-opacity: 0; stroke: #000000; stroke-width: 0.5"/>
      </g>
     </g>
    </g>
    <g id="xtick_10">
     <g id="line2d_10">
      <g>
       <use xlink:href="#m22ebee7c0d" x="90.794412" y="114.692283" style="fill-opacity: 0; stroke: #000000; stroke-width: 0.5"/>
      </g>
     </g>
    </g>
    <g id="xtick_11">
     <g id="line2d_11">
      <g>
       <use xlink:href="#m22ebee7c0d" x="99.349328" y="114.692283" style="fill-opacity: 0; stroke: #000000; stroke-width: 0.5"/>
      </g>
     </g>
    </g>
    <g id="xtick_12">
     <g id="line2d_12">
      <g>
       <use xlink:href="#m22ebee7c0d" x="107.904244" y="114.692283" style="fill-opacity: 0; stroke: #000000; stroke-width: 0.5"/>
      </g>
     </g>
    </g>
    <g id="xtick_13">
     <g id="line2d_13">
      <g>
       <use xlink:href="#m22ebee7c0d" x="125.014076" y="114.692283" style="fill-opacity: 0; stroke: #000000; stroke-width: 0.5"/>
      </g>
     </g>
    </g>
    <g id="xtick_14">
     <g id="line2d_14">
      <g>
       <use xlink:href="#m22ebee7c0d" x="133.568992" y="114.692283" style="fill-opacity: 0; stroke: #000000; stroke-width: 0.5"/>
      </g>
     </g>
    </g>
    <g id="xtick_15">
     <g id="line2d_15">
      <g>
       <use xlink:href="#m22ebee7c0d" x="142.123908" y="114.692283" style="fill-opacity: 0; stroke: #000000; stroke-width: 0.5"/>
      </g>
     </g>
    </g>
    <g id="xtick_16">
     <g id="line2d_16">
      <g>
       <use xlink:href="#m22ebee7c0d" x="150.678824" y="114.692283" style="fill-opacity: 0; stroke: #000000; stroke-width: 0.5"/>
      </g>
     </g>
    </g>
    <g id="text_5">
     <!-- PGA [g] -->
     <g transform="translate(81.286245 131.832283)scale(0.08 -0.08)">
      <defs>
       <path id="ArialMT-50" d="M 494 0 
L 494 4581 
L 2222 4581 
Q 2678 4581 2919 4538 
Q 3256 4481 3484 4323 
Q 3713 4166 3852 3881 
Q 3991 3597 3991 3256 
Q 3991 2672 3619 2267 
Q 3247 1863 2275 1863 
L 1100 1863 
L 1100 0 
L 494 0 
z
M 1100 2403 
L 2284 2403 
Q 2872 2403 3119 2622 
Q 3366 2841 3366 3238 
Q 3366 3525 3220 3729 
Q 3075 3934 2838 4000 
Q 2684 4041 2272 4041 
L 1100 4041 
L 1100 2403 
z
" transform="scale(0.015625)"/>
       <path id="ArialMT-47" d="M 2638 1797 
L 2638 2334 
L 4578 2338 
L 4578 638 
Q 4131 281 3656 101 
Q 3181 -78 2681 -78 
Q 2006 -78 1454 211 
Q 903 500 622 1047 
Q 341 1594 341 2269 
Q 341 2938 620 3517 
Q 900 4097 1425 4378 
Q 1950 4659 2634 4659 
Q 3131 4659 3532 4498 
Q 3934 4338 4162 4050 
Q 4391 3763 4509 3300 
L 3963 3150 
Q 3859 3500 3706 3700 
Q 3553 3900 3268 4020 
Q 2984 4141 2638 4141 
Q 2222 4141 1919 4014 
Q 1616 3888 1430 3681 
Q 1244 3475 1141 3228 
Q 966 2803 966 2306 
Q 966 1694 1177 1281 
Q 1388 869 1791 669 
Q 2194 469 2647 469 
Q 3041 469 3416 620 
Q 3791 772 3984 944 
L 3984 1797 
L 2638 1797 
z
" transform="scale(0.015625)"/>
       <path id="ArialMT-41" d="M -9 0 
L 1750 4581 
L 2403 4581 
L 4278 0 
L 3588 0 
L 3053 1388 
L 1138 1388 
L 634 0 
L -9 0 
z
M 1313 1881 
L 2866 1881 
L 2388 3150 
Q 2169 3728 2063 4100 
Q 1975 3659 1816 3225 
L 1313 1881 
z
" transform="scale(0.015625)"/>
       <path id="ArialMT-20" transform="scale(0.015625)"/>
       <path id="ArialMT-5b" d="M 434 -1272 
L 434 4581 
L 1675 4581 
L 1675 4116 
L 997 4116 
L 997 -806 
L 1675 -806 
L 1675 -1272 
L 434 -1272 
z
" transform="scale(0.015625)"/>
       <path id="ArialMT-67" d="M 319 -275 
L 866 -356 
Q 900 -609 1056 -725 
Q 1266 -881 1628 -881 
Q 2019 -881 2231 -725 
Q 2444 -569 2519 -288 
Q 2563 -116 2559 434 
Q 2191 0 1641 0 
Q 956 0 581 494 
Q 206 988 206 1678 
Q 206 2153 378 2554 
Q 550 2956 876 3175 
Q 1203 3394 1644 3394 
Q 2231 3394 2613 2919 
L 2613 3319 
L 3131 3319 
L 3131 450 
Q 3131 -325 2973 -648 
Q 2816 -972 2473 -1159 
Q 2131 -1347 1631 -1347 
Q 1038 -1347 672 -1080 
Q 306 -813 319 -275 
z
M 784 1719 
Q 784 1066 1043 766 
Q 1303 466 1694 466 
Q 2081 466 2343 764 
Q 2606 1063 2606 1700 
Q 2606 2309 2336 2618 
Q 2066 2928 1684 2928 
Q 1309 2928 1046 2623 
Q 784 2319 784 1719 
z
" transform="scale(0.015625)"/>
       <path id="ArialMT-5d" d="M 1363 -1272 
L 122 -1272 
L 122 -806 
L 800 -806 
L 800 4116 
L 122 4116 
L 122 4581 
L 1363 4581 
L 1363 -1272 
z
" transform="scale(0.015625)"/>
      </defs>
      <use xlink:href="#ArialMT-50"/>
      <use xlink:href="#ArialMT-47" x="66.699219"/>
      <use xlink:href="#ArialMT-41" x="144.482422"/>
      <use xlink:href="#ArialMT-20" x="205.681641"/>
      <use xlink:href="#ArialMT-5b" x="233.464844"/>
      <use xlink:href="#ArialMT-67" x="261.248047"/>
      <use xlink:href="#ArialMT-5d" x="316.863281"/>
     </g>
    </g>
   </g>
   <g id="matplotlib.axis_2">
    <g id="ytick_1">
     <g id="line2d_17">
      <defs>
       <path id="m4bc599d939" d="M 0 0 
L 5 0 
" style="stroke: #000000; stroke-width: 0.5"/>
      </defs>
      <g>
       <use xlink:href="#m4bc599d939" x="30.91" y="114.692283" style="fill-opacity: 0; stroke: #000000; stroke-width: 0.5"/>
      </g>
     </g>
     <g id="text_6">
      <!-- 0.0 -->
      <g transform="translate(17.79 117.555408)scale(0.08 -0.08)">
       <defs>
        <path id="ArialMT-2e" d="M 581 0 
L 581 641 
L 1222 641 
L 1222 0 
L 581 0 
z
" transform="scale(0.015625)"/>
       </defs>
       <use xlink:href="#ArialMT-30"/>
       <use xlink:href="#ArialMT-2e" x="55.615234"/>
       <use xlink:href="#ArialMT-30" x="83.398438"/>
      </g>
     </g>
    </g>
    <g id="ytick_2">
     <g id="line2d_18">
      <g>
       <use xlink:href="#m4bc599d939" x="30.91" y="94.057827" style="fill-opacity: 0; stroke: #000000; stroke-width: 0.5"/>
      </g>
     </g>
     <g id="text_7">
      <!-- 0.2 -->
      <g transform="translate(17.79 96.920952)scale(0.08 -0.08)">
       <use xlink:href="#ArialMT-30"/>
       <use xlink:href="#ArialMT-2e" x="55.615234"/>
       <use xlink:href="#ArialMT-32" x="83.398438"/>
      </g>
     </g>
    </g>
    <g id="ytick_3">
     <g id="line2d_19">
      <g>
       <use xlink:href="#m4bc599d939" x="30.91" y="73.42337" style="fill-opacity: 0; stroke: #000000; stroke-width: 0.5"/>
      </g>
     </g>
     <g id="text_8">
      <!-- 0.4 -->
      <g transform="translate(17.79 76.286495)scale(0.08 -0.08)">
       <defs>
        <path id="ArialMT-34" d="M 2069 0 
L 2069 1097 
L 81 1097 
L 81 1613 
L 2172 4581 
L 2631 4581 
L 2631 1613 
L 3250 1613 
L 3250 1097 
L 2631 1097 
L 2631 0 
L 2069 0 
z
M 2069 1613 
L 2069 3678 
L 634 1613 
L 2069 1613 
z
" transform="scale(0.015625)"/>
       </defs>
       <use xlink:href="#ArialMT-30"/>
       <use xlink:href="#ArialMT-2e" x="55.615234"/>
       <use xlink:href="#ArialMT-34" x="83.398438"/>
      </g>
     </g>
    </g>
    <g id="ytick_4">
     <g id="line2d_20">
      <g>
       <use xlink:href="#m4bc599d939" x="30.91" y="52.788913" style="fill-opacity: 0; stroke: #000000; stroke-width: 0.5"/>
      </g>
     </g>
     <g id="text_9">
      <!-- 0.6 -->
      <g transform="translate(17.79 55.652038)scale(0.08 -0.08)">
       <defs>
        <path id="ArialMT-36" d="M 3184 3459 
L 2625 3416 
Q 2550 3747 2413 3897 
Q 2184 4138 1850 4138 
Q 1581 4138 1378 3988 
Q 1113 3794 959 3422 
Q 806 3050 800 2363 
Q 1003 2672 1297 2822 
Q 1591 2972 1913 2972 
Q 2475 2972 2870 2558 
Q 3266 2144 3266 1488 
Q 3266 1056 3080 686 
Q 2894 316 2569 119 
Q 2244 -78 1831 -78 
Q 1128 -78 684 439 
Q 241 956 241 2144 
Q 241 3472 731 4075 
Q 1159 4600 1884 4600 
Q 2425 4600 2770 4297 
Q 3116 3994 3184 3459 
z
M 888 1484 
Q 888 1194 1011 928 
Q 1134 663 1356 523 
Q 1578 384 1822 384 
Q 2178 384 2434 671 
Q 2691 959 2691 1453 
Q 2691 1928 2437 2201 
Q 2184 2475 1800 2475 
Q 1419 2475 1153 2201 
Q 888 1928 888 1484 
z
" transform="scale(0.015625)"/>
       </defs>
       <use xlink:href="#ArialMT-30"/>
       <use xlink:href="#ArialMT-2e" x="55.615234"/>
       <use xlink:href="#ArialMT-36" x="83.398438"/>
      </g>
     </g>
    </g>
    <g id="ytick_5">
     <g id="line2d_21">
      <g>
       <use xlink:href="#m4bc599d939" x="30.91" y="32.154457" style="fill-opacity: 0; stroke: #000000; stroke-width: 0.5"/>
      </g>
     </g>
     <g id="text_10">
      <!-- 0.8 -->
      <g transform="translate(17.79 35.017582)scale(0.08 -0.08)">
       <defs>
        <path id="ArialMT-38" d="M 1131 2484 
Q 781 2613 612 2850 
Q 444 3088 444 3419 
Q 444 3919 803 4259 
Q 1163 4600 1759 4600 
Q 2359 4600 2725 4251 
Q 3091 3903 3091 3403 
Q 3091 3084 2923 2848 
Q 2756 2613 2416 2484 
Q 2838 2347 3058 2040 
Q 3278 1734 3278 1309 
Q 3278 722 2862 322 
Q 2447 -78 1769 -78 
Q 1091 -78 675 323 
Q 259 725 259 1325 
Q 259 1772 486 2073 
Q 713 2375 1131 2484 
z
M 1019 3438 
Q 1019 3113 1228 2906 
Q 1438 2700 1772 2700 
Q 2097 2700 2305 2904 
Q 2513 3109 2513 3406 
Q 2513 3716 2298 3927 
Q 2084 4138 1766 4138 
Q 1444 4138 1231 3931 
Q 1019 3725 1019 3438 
z
M 838 1322 
Q 838 1081 952 856 
Q 1066 631 1291 507 
Q 1516 384 1775 384 
Q 2178 384 2440 643 
Q 2703 903 2703 1303 
Q 2703 1709 2433 1975 
Q 2163 2241 1756 2241 
Q 1359 2241 1098 1978 
Q 838 1716 838 1322 
z
" transform="scale(0.015625)"/>
       </defs>
       <use xlink:href="#ArialMT-30"/>
       <use xlink:href="#ArialMT-2e" x="55.615234"/>
       <use xlink:href="#ArialMT-38" x="83.398438"/>
      </g>
     </g>
    </g>
    <g id="ytick_6">
     <g id="line2d_22">
      <g>
       <use xlink:href="#m4bc599d939" x="30.91" y="11.52" style="fill-opacity: 0; stroke: #000000; stroke-width: 0.5"/>
      </g>
     </g>
     <g id="text_11">
      <!-- 1.0 -->
      <g transform="translate(17.79 14.383125)scale(0.08 -0.08)">
       <use xlink:href="#ArialMT-31"/>
       <use xlink:href="#ArialMT-2e" x="55.615234"/>
       <use xlink:href="#ArialMT-30" x="83.398438"/>
      </g>
     </g>
    </g>
    <g id="ytick_7">
     <g id="line2d_23">
      <defs>
       <path id="mfb3db7a5d9" d="M 0 0 
L 3 0 
" style="stroke: #000000; stroke-width: 0.5"/>
      </defs>
      <g>
       <use xlink:href="#mfb3db7a5d9" x="30.91" y="109.533669" style="fill-opacity: 0; stroke: #000000; stroke-width: 0.5"/>
      </g>
     </g>
    </g>
    <g id="ytick_8">
     <g id="line2d_24">
      <g>
       <use xlink:href="#mfb3db7a5d9" x="30.91" y="104.375055" style="fill-opacity: 0; stroke: #000000; stroke-width: 0.5"/>
      </g>
     </g>
    </g>
    <g id="ytick_9">
     <g id="line2d_25">
      <g>
       <use xlink:href="#mfb3db7a5d9" x="30.91" y="99.216441" style="fill-opacity: 0; stroke: #000000; stroke-width: 0.5"/>
      </g>
     </g>
    </g>
    <g id="ytick_10">
     <g id="line2d_26">
      <g>
       <use xlink:href="#mfb3db7a5d9" x="30.91" y="88.899213" style="fill-opacity: 0; stroke: #000000; stroke-width: 0.5"/>
      </g>
     </g>
    </g>
    <g id="ytick_11">
     <g id="line2d_27">
      <g>
       <use xlink:href="#mfb3db7a5d9" x="30.91" y="83.740598" style="fill-opacity: 0; stroke: #000000; stroke-width: 0.5"/>
      </g>
     </g>
    </g>
    <g id="ytick_12">
     <g id="line2d_28">
      <g>
       <use xlink:href="#mfb3db7a5d9" x="30.91" y="78.581984" style="fill-opacity: 0; stroke: #000000; stroke-width: 0.5"/>
      </g>
     </g>
    </g>
    <g id="ytick_13">
     <g id="line2d_29">
      <g>
       <use xlink:href="#mfb3db7a5d9" x="30.91" y="68.264756" style="fill-opacity: 0; stroke: #000000; stroke-width: 0.5"/>
      </g>
     </g>
    </g>
    <g id="ytick_14">
     <g id="line2d_30">
      <g>
       <use xlink:href="#mfb3db7a5d9" x="30.91" y="63.106142" style="fill-opacity: 0; stroke: #000000; stroke-width: 0.5"/>
      </g>
     </g>
    </g>
    <g id="ytick_15">
     <g id="line2d_31">
      <g>
       <use xlink:href="#mfb3db7a5d9" x="30.91" y="57.947528" style="fill-opacity: 0; stroke: #000000; stroke-width: 0.5"/>
      </g>
     </g>
    </g>
    <g id="ytick_16">
     <g id="line2d_32">
      <g>
       <use xlink:href="#mfb3db7a5d9" x="30.91" y="47.630299" style="fill-opacity: 0; stroke: #000000; stroke-width: 0.5"/>
      </g>
     </g>
    </g>
    <g id="ytick_17">
     <g id="line2d_33">
      <g>
       <use xlink:href="#mfb3db7a5d9" x="30.91" y="42.471685" style="fill-opacity: 0; stroke: #000000; stroke-width: 0.5"/>
      </g>
     </g>
    </g>
    <g id="ytick_18">
     <g id="line2d_34">
      <g>
       <use xlink:href="#mfb3db7a5d9" x="30.91" y="37.313071" style="fill-opacity: 0; stroke: #000000; stroke-width: 0.5"/>
      </g>
     </g>
    </g>
    <g id="ytick_19">
     <g id="line2d_35">
      <g>
       <use xlink:href="#mfb3db7a5d9" x="30.91" y="26.995843" style="fill-opacity: 0; stroke: #000000; stroke-width: 0.5"/>
      </g>
     </g>
    </g>
    <g id="ytick_20">
     <g id="line2d_36">
      <g>
       <use xlink:href="#mfb3db7a5d9" x="30.91" y="21.837228" style="fill-opacity: 0; stroke: #000000; stroke-width: 0.5"/>
      </g>
     </g>
    </g>
    <g id="ytick_21">
     <g id="line2d_37">
      <g>
       <use xlink:href="#mfb3db7a5d9" x="30.91" y="16.678614" style="fill-opacity: 0; stroke: #000000; stroke-width: 0.5"/>
      </g>
     </g>
    </g>
    <g id="text_12">
     <!-- P(D&gt;C|IM) -->
     <g transform="translate(14.10625 82.034267)rotate(-90)scale(0.08 -0.08)">
      <defs>
       <path id="ArialMT-28" d="M 1497 -1347 
Q 1031 -759 709 28 
Q 388 816 388 1659 
Q 388 2403 628 3084 
Q 909 3875 1497 4659 
L 1900 4659 
Q 1522 4009 1400 3731 
Q 1209 3300 1100 2831 
Q 966 2247 966 1656 
Q 966 153 1900 -1347 
L 1497 -1347 
z
" transform="scale(0.015625)"/>
       <path id="ArialMT-44" d="M 494 0 
L 494 4581 
L 2072 4581 
Q 2606 4581 2888 4516 
Q 3281 4425 3559 4188 
Q 3922 3881 4101 3404 
Q 4281 2928 4281 2316 
Q 4281 1794 4159 1391 
Q 4038 988 3847 723 
Q 3656 459 3429 307 
Q 3203 156 2883 78 
Q 2563 0 2147 0 
L 494 0 
z
M 1100 541 
L 2078 541 
Q 2531 541 2789 625 
Q 3047 709 3200 863 
Q 3416 1078 3536 1442 
Q 3656 1806 3656 2325 
Q 3656 3044 3420 3430 
Q 3184 3816 2847 3947 
Q 2603 4041 2063 4041 
L 1100 4041 
L 1100 541 
z
" transform="scale(0.015625)"/>
       <path id="ArialMT-3e" d="M 3384 2003 
L 350 706 
L 350 1266 
L 2753 2263 
L 350 3250 
L 350 3809 
L 3384 2528 
L 3384 2003 
z
" transform="scale(0.015625)"/>
       <path id="ArialMT-43" d="M 3763 1606 
L 4369 1453 
Q 4178 706 3683 314 
Q 3188 -78 2472 -78 
Q 1731 -78 1267 223 
Q 803 525 561 1097 
Q 319 1669 319 2325 
Q 319 3041 592 3573 
Q 866 4106 1370 4382 
Q 1875 4659 2481 4659 
Q 3169 4659 3637 4309 
Q 4106 3959 4291 3325 
L 3694 3184 
Q 3534 3684 3231 3912 
Q 2928 4141 2469 4141 
Q 1941 4141 1586 3887 
Q 1231 3634 1087 3207 
Q 944 2781 944 2328 
Q 944 1744 1114 1308 
Q 1284 872 1643 656 
Q 2003 441 2422 441 
Q 2931 441 3284 734 
Q 3638 1028 3763 1606 
z
" transform="scale(0.015625)"/>
       <path id="ArialMT-7c" d="M 588 -1347 
L 588 4659 
L 1078 4659 
L 1078 -1347 
L 588 -1347 
z
" transform="scale(0.015625)"/>
       <path id="ArialMT-49" d="M 597 0 
L 597 4581 
L 1203 4581 
L 1203 0 
L 597 0 
z
" transform="scale(0.015625)"/>
       <path id="ArialMT-4d" d="M 475 0 
L 475 4581 
L 1388 4581 
L 2472 1338 
Q 2622 884 2691 659 
Q 2769 909 2934 1394 
L 4031 4581 
L 4847 4581 
L 4847 0 
L 4263 0 
L 4263 3834 
L 2931 0 
L 2384 0 
L 1059 3900 
L 1059 0 
L 475 0 
z
" transform="scale(0.015625)"/>
       <path id="ArialMT-29" d="M 791 -1347 
L 388 -1347 
Q 1322 153 1322 1656 
Q 1322 2244 1188 2822 
Q 1081 3291 891 3722 
Q 769 4003 388 4659 
L 791 4659 
Q 1378 3875 1659 3084 
Q 1900 2403 1900 1659 
Q 1900 816 1576 28 
Q 1253 -759 791 -1347 
z
" transform="scale(0.015625)"/>
      </defs>
      <use xlink:href="#ArialMT-50"/>
      <use xlink:href="#ArialMT-28" x="66.699219"/>
      <use xlink:href="#ArialMT-44" x="100"/>
      <use xlink:href="#ArialMT-3e" x="172.216797"/>
      <use xlink:href="#ArialMT-43" x="230.615234"/>
      <use xlink:href="#ArialMT-7c" x="302.832031"/>
      <use xlink:href="#ArialMT-49" x="328.808594"/>
      <use xlink:href="#ArialMT-4d" x="356.591797"/>
      <use xlink:href="#ArialMT-29" x="439.892578"/>
     </g>
    </g>
   </g>
   <g id="line2d_38">
    <path d="M 31.337746 114.57326 
L 32.629625 108.326248 
L 33.921503 96.614996 
L 35.213382 84.551573 
L 36.505261 73.800517 
L 37.797139 64.662815 
L 39.089018 57.021719 
L 40.380897 50.657954 
L 41.672776 45.351245 
L 42.964654 40.909644 
L 44.256533 37.174366 
L 45.548412 34.016795 
L 46.840291 31.333539 
L 48.132169 29.041585 
L 49.424048 27.074139 
L 50.715927 25.377246 
L 52.007805 23.907118 
L 53.299684 22.628032 
L 54.591563 21.510689 
L 55.883442 20.530935 
L 57.17532 19.668749 
L 58.467199 18.907454 
L 59.759078 18.233095 
L 61.050957 17.633932 
L 62.342835 17.100054 
L 63.634714 16.623052 
L 64.926593 16.195764 
L 66.218472 15.812067 
L 67.51035 15.466708 
L 68.802229 15.155163 
L 70.094108 14.873523 
L 71.385986 14.618399 
L 72.677865 14.386846 
L 73.969744 14.176294 
L 75.261623 13.984498 
L 76.553501 13.809489 
L 77.84538 13.649535 
L 79.137259 13.50311 
L 80.429138 13.368867 
L 81.721016 13.245613 
L 83.012895 13.132289 
L 84.304774 13.027955 
L 85.596652 12.931771 
L 86.888531 12.84299 
L 88.18041 12.760942 
L 89.472289 12.685027 
L 90.764167 12.614706 
L 92.056046 12.549496 
L 93.347925 12.488961 
L 94.639804 12.432708 
L 95.931682 12.380381 
L 97.223561 12.33166 
L 98.51544 12.286252 
L 99.807319 12.243895 
L 101.099197 12.204347 
L 102.391076 12.167392 
L 103.682955 12.132829 
L 104.974833 12.100478 
L 106.266712 12.070173 
L 107.558591 12.041762 
L 108.85047 12.015108 
L 110.142348 11.990083 
L 111.434227 11.966571 
L 112.726106 11.944465 
L 114.017985 11.923667 
L 115.309863 11.904087 
L 116.601742 11.885641 
L 117.893621 11.868252 
L 119.1855 11.851851 
L 120.477378 11.836371 
L 121.769257 11.821752 
L 123.061136 11.807939 
L 124.353014 11.794879 
L 125.644893 11.782525 
L 126.936772 11.770832 
L 128.228651 11.759759 
L 129.520529 11.749268 
L 130.812408 11.739323 
L 132.104287 11.729892 
L 133.396166 11.720942 
L 134.688044 11.712447 
L 135.979923 11.704378 
L 137.271802 11.696711 
L 138.56368 11.689423 
L 139.855559 11.682491 
L 141.147438 11.675896 
L 142.439317 11.669619 
L 143.731195 11.663642 
L 145.023074 11.657948 
L 146.314953 11.652522 
L 147.606832 11.647348 
L 148.89871 11.642414 
L 150.190589 11.637707 
L 151.482468 11.633213 
L 152.774347 11.628923 
L 154.066225 11.624826 
L 155.358104 11.620911 
L 156.649983 11.617169 
L 157.941861 11.613591 
L 159.23374 11.610169 
" clip-path="url(#p4cc2a40779)" style="fill: none; stroke: #000000; stroke-linecap: square"/>
    <defs>
     <path id="m5a45981a82" d="M 0 1 
C 0.265203 1 0.51958 0.894634 0.707107 0.707107 
C 0.894634 0.51958 1 0.265203 1 0 
C 1 -0.265203 0.894634 -0.51958 0.707107 -0.707107 
C 0.51958 -0.894634 0.265203 -1 0 -1 
C -0.265203 -1 -0.51958 -0.894634 -0.707107 -0.707107 
C -0.894634 -0.51958 -1 -0.265203 -1 0 
C -1 0.265203 -0.894634 0.51958 -0.707107 0.707107 
C -0.51958 0.894634 -0.265203 1 0 1 
z
" style="stroke: #000000; stroke-width: 0.8"/>
    </defs>
    <g clip-path="url(#p4cc2a40779)">
     <use xlink:href="#m5a45981a82" x="31.337746" y="114.57326" style="fill-opacity: 0; stroke: #000000; stroke-width: 0.8"/>
     <use xlink:href="#m5a45981a82" x="44.256533" y="37.174366" style="fill-opacity: 0; stroke: #000000; stroke-width: 0.8"/>
     <use xlink:href="#m5a45981a82" x="57.17532" y="19.668749" style="fill-opacity: 0; stroke: #000000; stroke-width: 0.8"/>
     <use xlink:href="#m5a45981a82" x="70.094108" y="14.873523" style="fill-opacity: 0; stroke: #000000; stroke-width: 0.8"/>
     <use xlink:href="#m5a45981a82" x="83.012895" y="13.132289" style="fill-opacity: 0; stroke: #000000; stroke-width: 0.8"/>
     <use xlink:href="#m5a45981a82" x="95.931682" y="12.380381" style="fill-opacity: 0; stroke: #000000; stroke-width: 0.8"/>
     <use xlink:href="#m5a45981a82" x="108.85047" y="12.015108" style="fill-opacity: 0; stroke: #000000; stroke-width: 0.8"/>
     <use xlink:href="#m5a45981a82" x="121.769257" y="11.821752" style="fill-opacity: 0; stroke: #000000; stroke-width: 0.8"/>
     <use xlink:href="#m5a45981a82" x="134.688044" y="11.712447" style="fill-opacity: 0; stroke: #000000; stroke-width: 0.8"/>
     <use xlink:href="#m5a45981a82" x="147.606832" y="11.647348" style="fill-opacity: 0; stroke: #000000; stroke-width: 0.8"/>
    </g>
   </g>
   <g id="line2d_39">
    <path d="M 31.337746 114.641164 
L 32.629625 109.675384 
L 33.921503 98.322215 
L 35.213382 85.723845 
L 36.505261 74.168427 
L 37.797139 64.258585 
L 39.089018 55.980635 
L 40.380897 49.132273 
L 41.672776 43.478163 
L 42.964654 38.802274 
L 44.256533 34.921785 
L 45.548412 31.687201 
L 46.840291 28.978081 
L 48.132169 26.697936 
L 49.424048 24.769514 
L 50.715927 23.130847 
L 52.007805 21.732058 
L 53.299684 20.532827 
L 54.591563 19.500411 
L 55.883442 18.608091 
L 57.17532 17.833958 
L 58.467199 17.15996 
L 59.759078 16.571153 
L 61.050957 16.05511 
L 62.342835 15.601451 
L 63.634714 15.201472 
L 64.926593 14.847838 
L 66.218472 14.534352 
L 67.51035 14.255751 
L 68.802229 14.007556 
L 70.094108 13.785937 
L 71.385986 13.587611 
L 72.677865 13.409753 
L 73.969744 13.249928 
L 75.261623 13.106027 
L 76.553501 12.976221 
L 77.84538 12.85892 
L 79.137259 12.752735 
L 80.429138 12.656452 
L 81.721016 12.569009 
L 83.012895 12.48947 
L 84.304774 12.417014 
L 85.596652 12.350915 
L 86.888531 12.290531 
L 88.18041 12.235294 
L 89.472289 12.1847 
L 90.764167 12.138299 
L 92.056046 12.095693 
L 93.347925 12.056525 
L 94.639804 12.020476 
L 95.931682 11.987262 
L 97.223561 11.956625 
L 98.51544 11.928338 
L 99.807319 11.902192 
L 101.099197 11.878002 
L 102.391076 11.855601 
L 103.682955 11.834836 
L 104.974833 11.81557 
L 106.266712 11.79768 
L 107.558591 11.781054 
L 108.85047 11.765587 
L 110.142348 11.751189 
L 111.434227 11.737775 
L 112.726106 11.725267 
L 114.017985 11.713596 
L 115.309863 11.702697 
L 116.601742 11.692513 
L 117.893621 11.682989 
L 119.1855 11.674076 
L 120.477378 11.66573 
L 121.769257 11.65791 
L 123.061136 11.650577 
L 124.353014 11.643697 
L 125.644893 11.637239 
L 126.936772 11.631172 
L 128.228651 11.625469 
L 129.520529 11.620106 
L 130.812408 11.615059 
L 132.104287 11.610307 
L 133.396166 11.605831 
L 134.688044 11.601612 
L 135.979923 11.597633 
L 137.271802 11.59388 
L 138.56368 11.590336 
L 139.855559 11.586989 
L 141.147438 11.583827 
L 142.439317 11.580837 
L 143.731195 11.57801 
L 145.023074 11.575334 
L 146.314953 11.572802 
L 147.606832 11.570403 
L 148.89871 11.568131 
L 150.190589 11.565977 
L 151.482468 11.563934 
L 152.774347 11.561996 
L 154.066225 11.560157 
L 155.358104 11.558411 
L 156.649983 11.556753 
L 157.941861 11.555177 
L 159.23374 11.553679 
" clip-path="url(#p4cc2a40779)" style="fill: none; stroke-dasharray: 2.96,1.28; stroke-dashoffset: 0; stroke: #dc0000; stroke-width: 0.8"/>
    <defs>
     <path id="m2a33462c4b" d="M 0 1 
C 0.265203 1 0.51958 0.894634 0.707107 0.707107 
C 0.894634 0.51958 1 0.265203 1 0 
C 1 -0.265203 0.894634 -0.51958 0.707107 -0.707107 
C 0.51958 -0.894634 0.265203 -1 0 -1 
C -0.265203 -1 -0.51958 -0.894634 -0.707107 -0.707107 
C -0.894634 -0.51958 -1 -0.265203 -1 0 
C -1 0.265203 -0.894634 0.51958 -0.707107 0.707107 
C -0.51958 0.894634 -0.265203 1 0 1 
z
" style="stroke: #dc0000; stroke-width: 0.8"/>
    </defs>
    <g clip-path="url(#p4cc2a40779)">
     <use xlink:href="#m2a33462c4b" x="31.337746" y="114.641164" style="fill-opacity: 0; stroke: #dc0000; stroke-width: 0.8"/>
     <use xlink:href="#m2a33462c4b" x="44.256533" y="34.921785" style="fill-opacity: 0; stroke: #dc0000; stroke-width: 0.8"/>
     <use xlink:href="#m2a33462c4b" x="57.17532" y="17.833958" style="fill-opacity: 0; stroke: #dc0000; stroke-width: 0.8"/>
     <use xlink:href="#m2a33462c4b" x="70.094108" y="13.785937" style="fill-opacity: 0; stroke: #dc0000; stroke-width: 0.8"/>
     <use xlink:href="#m2a33462c4b" x="83.012895" y="12.48947" style="fill-opacity: 0; stroke: #dc0000; stroke-width: 0.8"/>
     <use xlink:href="#m2a33462c4b" x="95.931682" y="11.987262" style="fill-opacity: 0; stroke: #dc0000; stroke-width: 0.8"/>
     <use xlink:href="#m2a33462c4b" x="108.85047" y="11.765587" style="fill-opacity: 0; stroke: #dc0000; stroke-width: 0.8"/>
     <use xlink:href="#m2a33462c4b" x="121.769257" y="11.65791" style="fill-opacity: 0; stroke: #dc0000; stroke-width: 0.8"/>
     <use xlink:href="#m2a33462c4b" x="134.688044" y="11.601612" style="fill-opacity: 0; stroke: #dc0000; stroke-width: 0.8"/>
     <use xlink:href="#m2a33462c4b" x="147.606832" y="11.570403" style="fill-opacity: 0; stroke: #dc0000; stroke-width: 0.8"/>
    </g>
   </g>
   <g id="line2d_40">
    <path d="M 31.337746 114.692178 
L 32.629625 114.390819 
L 33.921503 112.075288 
L 35.213382 106.996372 
L 36.505261 99.925265 
L 37.797139 91.890208 
L 39.089018 83.673194 
L 40.380897 75.760231 
L 41.672776 68.412427 
L 42.964654 61.743885 
L 44.256533 55.780257 
L 45.548412 50.497615 
L 46.840291 45.846719 
L 48.132169 41.767559 
L 49.424048 38.197727 
L 50.715927 35.076996 
L 52.007805 32.349631 
L 53.299684 29.965345 
L 54.591563 27.879503 
L 55.883442 26.052911 
L 57.17532 24.451393 
L 58.467199 23.045286 
L 59.759078 21.808922 
L 61.050957 20.720125 
L 62.342835 19.759754 
L 63.634714 18.91129 
L 64.926593 18.160473 
L 66.218472 17.494984 
L 67.51035 16.904172 
L 68.802229 16.378819 
L 70.094108 15.910936 
L 71.385986 15.493589 
L 72.677865 15.120752 
L 73.969744 14.787179 
L 75.261623 14.4883 
L 76.553501 14.220121 
L 77.84538 13.979152 
L 79.137259 13.762337 
L 80.429138 13.566992 
L 81.721016 13.390762 
L 83.012895 13.231574 
L 84.304774 13.0876 
L 85.596652 12.957228 
L 86.888531 12.839034 
L 88.18041 12.731755 
L 89.472289 12.634273 
L 90.764167 12.545597 
L 92.056046 12.464843 
L 93.347925 12.391226 
L 94.639804 12.324048 
L 95.931682 12.262682 
L 97.223561 12.206572 
L 98.51544 12.155217 
L 99.807319 12.108171 
L 101.099197 12.065033 
L 102.391076 12.025443 
L 103.682955 11.989078 
L 104.974833 11.955645 
L 106.266712 11.924883 
L 107.558591 11.896555 
L 108.85047 11.870448 
L 110.142348 11.846369 
L 111.434227 11.824142 
L 112.726106 11.803611 
L 114.017985 11.784632 
L 115.309863 11.767075 
L 116.601742 11.750821 
L 117.893621 11.735764 
L 119.1855 11.721806 
L 120.477378 11.708858 
L 121.769257 11.696839 
L 123.061136 11.685676 
L 124.353014 11.675301 
L 125.644893 11.665652 
L 126.936772 11.656673 
L 128.228651 11.648313 
L 129.520529 11.640524 
L 130.812408 11.633263 
L 132.104287 11.626491 
L 133.396166 11.620171 
L 134.688044 11.61427 
L 135.979923 11.608757 
L 137.271802 11.603604 
L 138.56368 11.598785 
L 139.855559 11.594276 
L 141.147438 11.590055 
L 142.439317 11.586101 
L 143.731195 11.582397 
L 145.023074 11.578924 
L 146.314953 11.575666 
L 147.606832 11.572609 
L 148.89871 11.56974 
L 150.190589 11.567044 
L 151.482468 11.564512 
L 152.774347 11.562131 
L 154.066225 11.559893 
L 155.358104 11.557787 
L 156.649983 11.555804 
L 157.941861 11.553938 
L 159.23374 11.552179 
" clip-path="url(#p4cc2a40779)" style="fill: none; stroke-dasharray: 5.12,1.28,0.8,1.28; stroke-dashoffset: 0; stroke: #3c5488; stroke-width: 0.8"/>
    <defs>
     <path id="med19633b07" d="M 0 1 
C 0.265203 1 0.51958 0.894634 0.707107 0.707107 
C 0.894634 0.51958 1 0.265203 1 0 
C 1 -0.265203 0.894634 -0.51958 0.707107 -0.707107 
C 0.51958 -0.894634 0.265203 -1 0 -1 
C -0.265203 -1 -0.51958 -0.894634 -0.707107 -0.707107 
C -0.894634 -0.51958 -1 -0.265203 -1 0 
C -1 0.265203 -0.894634 0.51958 -0.707107 0.707107 
C -0.51958 0.894634 -0.265203 1 0 1 
z
" style="stroke: #3c5488; stroke-width: 0.8"/>
    </defs>
    <g clip-path="url(#p4cc2a40779)">
     <use xlink:href="#med19633b07" x="31.337746" y="114.692178" style="fill-opacity: 0; stroke: #3c5488; stroke-width: 0.8"/>
     <use xlink:href="#med19633b07" x="44.256533" y="55.780257" style="fill-opacity: 0; stroke: #3c5488; stroke-width: 0.8"/>
     <use xlink:href="#med19633b07" x="57.17532" y="24.451393" style="fill-opacity: 0; stroke: #3c5488; stroke-width: 0.8"/>
     <use xlink:href="#med19633b07" x="70.094108" y="15.910936" style="fill-opacity: 0; stroke: #3c5488; stroke-width: 0.8"/>
     <use xlink:href="#med19633b07" x="83.012895" y="13.231574" style="fill-opacity: 0; stroke: #3c5488; stroke-width: 0.8"/>
     <use xlink:href="#med19633b07" x="95.931682" y="12.262682" style="fill-opacity: 0; stroke: #3c5488; stroke-width: 0.8"/>
     <use xlink:href="#med19633b07" x="108.85047" y="11.870448" style="fill-opacity: 0; stroke: #3c5488; stroke-width: 0.8"/>
     <use xlink:href="#med19633b07" x="121.769257" y="11.696839" style="fill-opacity: 0; stroke: #3c5488; stroke-width: 0.8"/>
     <use xlink:href="#med19633b07" x="134.688044" y="11.61427" style="fill-opacity: 0; stroke: #3c5488; stroke-width: 0.8"/>
     <use xlink:href="#med19633b07" x="147.606832" y="11.572609" style="fill-opacity: 0; stroke: #3c5488; stroke-width: 0.8"/>
    </g>
   </g>
   <g id="line2d_41">
    <path d="M 31.337746 114.689268 
L 32.629625 114.073161 
L 33.921503 111.764675 
L 35.213382 108.044791 
L 36.505261 103.493013 
L 37.797139 98.554285 
L 39.089018 93.518488 
L 40.380897 88.562673 
L 41.672776 83.789669 
L 42.964654 79.255113 
L 44.256533 74.985098 
L 45.548412 70.987475 
L 46.840291 67.259027 
L 48.132169 63.790041 
L 49.424048 60.567206 
L 50.715927 57.575449 
L 52.007805 54.799085 
L 53.299684 52.222534 
L 54.591563 49.830742 
L 55.883442 47.609428 
L 57.17532 45.545205 
L 58.467199 43.625631 
L 59.759078 41.839204 
L 61.050957 40.175342 
L 62.342835 38.624329 
L 63.634714 37.177263 
L 64.926593 35.825999 
L 66.218472 34.56309 
L 67.51035 33.381725 
L 68.802229 32.275681 
L 70.094108 31.239265 
L 71.385986 30.267272 
L 72.677865 29.354936 
L 73.969744 28.497895 
L 75.261623 27.692149 
L 76.553501 26.934033 
L 77.84538 26.220179 
L 79.137259 25.547496 
L 80.429138 24.913142 
L 81.721016 24.314501 
L 83.012895 23.749164 
L 84.304774 23.21491 
L 85.596652 22.70969 
L 86.888531 22.231612 
L 88.18041 21.778927 
L 89.472289 21.350017 
L 90.764167 20.943385 
L 92.056046 20.557643 
L 93.347925 20.191502 
L 94.639804 19.843769 
L 95.931682 19.513333 
L 97.223561 19.199163 
L 98.51544 18.900298 
L 99.807319 18.615844 
L 101.099197 18.344969 
L 102.391076 18.086894 
L 103.682955 17.840896 
L 104.974833 17.606296 
L 106.266712 17.382463 
L 107.558591 17.168804 
L 108.85047 16.964766 
L 110.142348 16.769829 
L 111.434227 16.583508 
L 112.726106 16.405347 
L 114.017985 16.234918 
L 115.309863 16.07182 
L 116.601742 15.915676 
L 117.893621 15.766131 
L 119.1855 15.622851 
L 120.477378 15.485524 
L 121.769257 15.353853 
L 123.061136 15.22756 
L 124.353014 15.106383 
L 125.644893 14.990074 
L 126.936772 14.8784 
L 128.228651 14.77114 
L 129.520529 14.668087 
L 130.812408 14.569043 
L 132.104287 14.473822 
L 133.396166 14.382248 
L 134.688044 14.294156 
L 135.979923 14.209386 
L 137.271802 14.12779 
L 138.56368 14.049227 
L 139.855559 13.973561 
L 141.147438 13.900666 
L 142.439317 13.830421 
L 143.731195 13.762711 
L 145.023074 13.697427 
L 146.314953 13.634466 
L 147.606832 13.57373 
L 148.89871 13.515125 
L 150.190589 13.458563 
L 151.482468 13.403958 
L 152.774347 13.35123 
L 154.066225 13.300303 
L 155.358104 13.251103 
L 156.649983 13.203561 
L 157.941861 13.15761 
L 159.23374 13.113188 
" clip-path="url(#p4cc2a40779)" style="fill: none; stroke: #000000; stroke-linecap: square"/>
    <defs>
     <path id="mfb4fb720eb" d="M -1 1 
L 1 -1 
M -1 -1 
L 1 1 
" style="stroke: #000000; stroke-width: 0.8"/>
    </defs>
    <g clip-path="url(#p4cc2a40779)">
     <use xlink:href="#mfb4fb720eb" x="31.337746" y="114.689268" style="fill-opacity: 0; stroke: #000000; stroke-width: 0.8"/>
     <use xlink:href="#mfb4fb720eb" x="44.256533" y="74.985098" style="fill-opacity: 0; stroke: #000000; stroke-width: 0.8"/>
     <use xlink:href="#mfb4fb720eb" x="57.17532" y="45.545205" style="fill-opacity: 0; stroke: #000000; stroke-width: 0.8"/>
     <use xlink:href="#mfb4fb720eb" x="70.094108" y="31.239265" style="fill-opacity: 0; stroke: #000000; stroke-width: 0.8"/>
     <use xlink:href="#mfb4fb720eb" x="83.012895" y="23.749164" style="fill-opacity: 0; stroke: #000000; stroke-width: 0.8"/>
     <use xlink:href="#mfb4fb720eb" x="95.931682" y="19.513333" style="fill-opacity: 0; stroke: #000000; stroke-width: 0.8"/>
     <use xlink:href="#mfb4fb720eb" x="108.85047" y="16.964766" style="fill-opacity: 0; stroke: #000000; stroke-width: 0.8"/>
     <use xlink:href="#mfb4fb720eb" x="121.769257" y="15.353853" style="fill-opacity: 0; stroke: #000000; stroke-width: 0.8"/>
     <use xlink:href="#mfb4fb720eb" x="134.688044" y="14.294156" style="fill-opacity: 0; stroke: #000000; stroke-width: 0.8"/>
     <use xlink:href="#mfb4fb720eb" x="147.606832" y="13.57373" style="fill-opacity: 0; stroke: #000000; stroke-width: 0.8"/>
    </g>
   </g>
   <g id="line2d_42">
    <path d="M 31.337746 114.691586 
L 32.629625 114.352086 
L 33.921503 112.651339 
L 35.213382 109.469556 
L 36.505261 105.232228 
L 37.797139 100.385676 
L 39.089018 95.269226 
L 40.380897 90.114015 
L 41.672776 85.068125 
L 42.964654 80.221294 
L 44.256533 75.623878 
L 45.548412 71.30026 
L 46.840291 67.25802 
L 48.132169 63.494115 
L 49.424048 59.999002 
L 50.715927 56.759379 
L 52.007805 53.75998 
L 53.299684 50.984752 
L 54.591563 48.417608 
L 55.883442 46.042897 
L 57.17532 43.845681 
L 58.467199 41.811896 
L 59.759078 39.92842 
L 61.050957 38.183089 
L 62.342835 36.564687 
L 63.634714 35.0629 
L 64.926593 33.668271 
L 66.218472 32.372144 
L 67.51035 31.166601 
L 68.802229 30.044408 
L 70.094108 28.998956 
L 71.385986 28.024208 
L 72.677865 27.114651 
L 73.969744 26.265246 
L 75.261623 25.471388 
L 76.553501 24.728864 
L 77.84538 24.03382 
L 79.137259 23.382725 
L 80.429138 22.772347 
L 81.721016 22.19972 
L 83.012895 21.662122 
L 84.304774 21.157054 
L 85.596652 20.682219 
L 86.888531 20.235505 
L 88.18041 19.814967 
L 89.472289 19.418812 
L 90.764167 19.045389 
L 92.056046 18.693172 
L 93.347925 18.360756 
L 94.639804 18.046837 
L 95.931682 17.750212 
L 97.223561 17.469768 
L 98.51544 17.204472 
L 99.807319 16.953367 
L 101.099197 16.715566 
L 102.391076 16.490244 
L 103.682955 16.276636 
L 104.974833 16.07403 
L 106.266712 15.881763 
L 107.558591 15.699218 
L 108.85047 15.525821 
L 110.142348 15.361035 
L 111.434227 15.204362 
L 112.726106 15.055334 
L 114.017985 14.913515 
L 115.309863 14.778499 
L 116.601742 14.649904 
L 117.893621 14.527372 
L 119.1855 14.410572 
L 120.477378 14.299189 
L 121.769257 14.19293 
L 123.061136 14.09152 
L 124.353014 13.994701 
L 125.644893 13.90223 
L 126.936772 13.81388 
L 128.228651 13.729436 
L 129.520529 13.648697 
L 130.812408 13.571474 
L 132.104287 13.497587 
L 133.396166 13.42687 
L 134.688044 13.359163 
L 135.979923 13.294318 
L 137.271802 13.232193 
L 138.56368 13.172655 
L 139.855559 13.115579 
L 141.147438 13.060847 
L 142.439317 13.008347 
L 143.731195 12.957972 
L 145.023074 12.909622 
L 146.314953 12.863203 
L 147.606832 12.818625 
L 148.89871 12.775803 
L 150.190589 12.734657 
L 151.482468 12.695111 
L 152.774347 12.657091 
L 154.066225 12.62053 
L 155.358104 12.585363 
L 156.649983 12.551528 
L 157.941861 12.518966 
L 159.23374 12.487622 
" clip-path="url(#p4cc2a40779)" style="fill: none; stroke-dasharray: 2.96,1.28; stroke-dashoffset: 0; stroke: #dc0000; stroke-width: 0.8"/>
    <defs>
     <path id="m98a6e3ddac" d="M -1 1 
L 1 -1 
M -1 -1 
L 1 1 
" style="stroke: #dc0000; stroke-width: 0.8"/>
    </defs>
    <g clip-path="url(#p4cc2a40779)">
     <use xlink:href="#m98a6e3ddac" x="31.337746" y="114.691586" style="fill-opacity: 0; stroke: #dc0000; stroke-width: 0.8"/>
     <use xlink:href="#m98a6e3ddac" x="44.256533" y="75.623878" style="fill-opacity: 0; stroke: #dc0000; stroke-width: 0.8"/>
     <use xlink:href="#m98a6e3ddac" x="57.17532" y="43.845681" style="fill-opacity: 0; stroke: #dc0000; stroke-width: 0.8"/>
     <use xlink:href="#m98a6e3ddac" x="70.094108" y="28.998956" style="fill-opacity: 0; stroke: #dc0000; stroke-width: 0.8"/>
     <use xlink:href="#m98a6e3ddac" x="83.012895" y="21.662122" style="fill-opacity: 0; stroke: #dc0000; stroke-width: 0.8"/>
     <use xlink:href="#m98a6e3ddac" x="95.931682" y="17.750212" style="fill-opacity: 0; stroke: #dc0000; stroke-width: 0.8"/>
     <use xlink:href="#m98a6e3ddac" x="108.85047" y="15.525821" style="fill-opacity: 0; stroke: #dc0000; stroke-width: 0.8"/>
     <use xlink:href="#m98a6e3ddac" x="121.769257" y="14.19293" style="fill-opacity: 0; stroke: #dc0000; stroke-width: 0.8"/>
     <use xlink:href="#m98a6e3ddac" x="134.688044" y="13.359163" style="fill-opacity: 0; stroke: #dc0000; stroke-width: 0.8"/>
     <use xlink:href="#m98a6e3ddac" x="147.606832" y="12.818625" style="fill-opacity: 0; stroke: #dc0000; stroke-width: 0.8"/>
    </g>
   </g>
   <g id="line2d_43">
    <path d="M 31.337746 114.692283 
L 32.629625 114.686737 
L 33.921503 114.581975 
L 35.213382 114.150729 
L 36.505261 113.19416 
L 37.797139 111.628972 
L 39.089018 109.472005 
L 40.380897 106.799561 
L 41.672776 103.713594 
L 42.964654 100.320178 
L 44.256533 96.717801 
L 45.548412 92.992074 
L 46.840291 89.214193 
L 48.132169 85.441403 
L 49.424048 81.718409 
L 50.715927 78.079141 
L 52.007805 74.548533 
L 53.299684 71.144175 
L 54.591563 67.87776 
L 55.883442 64.756318 
L 57.17532 61.78324 
L 58.467199 58.959116 
L 59.759078 56.282421 
L 61.050957 53.750056 
L 62.342835 51.357786 
L 63.634714 49.100579 
L 64.926593 46.972878 
L 66.218472 44.968809 
L 67.51035 43.082339 
L 68.802229 41.307403 
L 70.094108 39.637991 
L 71.385986 38.06822 
L 72.677865 36.592381 
L 73.969744 35.204974 
L 75.261623 33.900729 
L 76.553501 32.674621 
L 77.84538 31.521876 
L 79.137259 30.437973 
L 80.429138 29.418642 
L 81.721016 28.459856 
L 83.012895 27.557827 
L 84.304774 26.708996 
L 85.596652 25.910022 
L 86.888531 25.157773 
L 88.18041 24.449314 
L 89.472289 23.7819 
L 90.764167 23.152958 
L 92.056046 22.560085 
L 93.347925 22.001032 
L 94.639804 21.473698 
L 95.931682 20.976116 
L 97.223561 20.506453 
L 98.51544 20.062989 
L 99.807319 19.644123 
L 101.099197 19.248354 
L 102.391076 18.87428 
L 103.682955 18.520592 
L 104.974833 18.186063 
L 106.266712 17.869548 
L 107.558591 17.569975 
L 108.85047 17.286341 
L 110.142348 17.017706 
L 111.434227 16.763193 
L 112.726106 16.521979 
L 114.017985 16.293292 
L 115.309863 16.07641 
L 116.601742 15.870658 
L 117.893621 15.6754 
L 119.1855 15.490042 
L 120.477378 15.314026 
L 121.769257 15.146828 
L 123.061136 14.987957 
L 124.353014 14.836951 
L 125.644893 14.693376 
L 126.936772 14.556826 
L 128.228651 14.426918 
L 129.520529 14.303291 
L 130.812408 14.185608 
L 132.104287 14.07355 
L 133.396166 13.966817 
L 134.688044 13.865127 
L 135.979923 13.768215 
L 137.271802 13.67583 
L 138.56368 13.587736 
L 139.855559 13.503712 
L 141.147438 13.423547 
L 142.439317 13.347043 
L 143.731195 13.274015 
L 145.023074 13.204285 
L 146.314953 13.137689 
L 147.606832 13.074068 
L 148.89871 13.013275 
L 150.190589 12.955168 
L 151.482468 12.899617 
L 152.774347 12.846494 
L 154.066225 12.795683 
L 155.358104 12.74707 
L 156.649983 12.700549 
L 157.941861 12.656021 
L 159.23374 12.613389 
" clip-path="url(#p4cc2a40779)" style="fill: none; stroke-dasharray: 5.12,1.28,0.8,1.28; stroke-dashoffset: 0; stroke: #3c5488; stroke-width: 0.8"/>
    <defs>
     <path id="mebc5a24c0f" d="M -1 1 
L 1 -1 
M -1 -1 
L 1 1 
" style="stroke: #3c5488; stroke-width: 0.8"/>
    </defs>
    <g clip-path="url(#p4cc2a40779)">
     <use xlink:href="#mebc5a24c0f" x="31.337746" y="114.692283" style="fill-opacity: 0; stroke: #3c5488; stroke-width: 0.8"/>
     <use xlink:href="#mebc5a24c0f" x="44.256533" y="96.717801" style="fill-opacity: 0; stroke: #3c5488; stroke-width: 0.8"/>
     <use xlink:href="#mebc5a24c0f" x="57.17532" y="61.78324" style="fill-opacity: 0; stroke: #3c5488; stroke-width: 0.8"/>
     <use xlink:href="#mebc5a24c0f" x="70.094108" y="39.637991" style="fill-opacity: 0; stroke: #3c5488; stroke-width: 0.8"/>
     <use xlink:href="#mebc5a24c0f" x="83.012895" y="27.557827" style="fill-opacity: 0; stroke: #3c5488; stroke-width: 0.8"/>
     <use xlink:href="#mebc5a24c0f" x="95.931682" y="20.976116" style="fill-opacity: 0; stroke: #3c5488; stroke-width: 0.8"/>
     <use xlink:href="#mebc5a24c0f" x="108.85047" y="17.286341" style="fill-opacity: 0; stroke: #3c5488; stroke-width: 0.8"/>
     <use xlink:href="#mebc5a24c0f" x="121.769257" y="15.146828" style="fill-opacity: 0; stroke: #3c5488; stroke-width: 0.8"/>
     <use xlink:href="#mebc5a24c0f" x="134.688044" y="13.865127" style="fill-opacity: 0; stroke: #3c5488; stroke-width: 0.8"/>
     <use xlink:href="#mebc5a24c0f" x="147.606832" y="13.074068" style="fill-opacity: 0; stroke: #3c5488; stroke-width: 0.8"/>
    </g>
   </g>
   <g id="line2d_44">
    <path d="M 31.337746 114.6891 
L 32.629625 114.323862 
L 33.921503 113.105459 
L 35.213382 111.165 
L 36.505261 108.73723 
L 37.797139 106.010852 
L 39.089018 103.120256 
L 40.380897 100.157897 
L 41.672776 97.186492 
L 42.964654 94.248133 
L 44.256533 91.370651 
L 45.548412 88.572001 
L 46.840291 85.86327 
L 48.132169 83.250761 
L 49.424048 80.737438 
L 50.715927 78.32395 
L 52.007805 76.009345 
L 53.299684 73.791583 
L 54.591563 71.667902 
L 55.883442 69.635078 
L 57.17532 67.68961 
L 58.467199 65.82786 
L 59.759078 64.046142 
L 61.050957 62.340794 
L 62.342835 60.70822 
L 63.634714 59.144927 
L 64.926593 57.647542 
L 66.218472 56.21283 
L 67.51035 54.837693 
L 68.802229 53.519182 
L 70.094108 52.254489 
L 71.385986 51.040952 
L 72.677865 49.876045 
L 73.969744 48.757378 
L 75.261623 47.682687 
L 76.553501 46.649835 
L 77.84538 45.656796 
L 79.137259 44.701662 
L 80.429138 43.782623 
L 81.721016 42.897975 
L 83.012895 42.046101 
L 84.304774 41.225478 
L 85.596652 40.434663 
L 86.888531 39.672293 
L 88.18041 38.937076 
L 89.472289 38.227793 
L 90.764167 37.543288 
L 92.056046 36.882466 
L 93.347925 36.244292 
L 94.639804 35.627782 
L 95.931682 35.032005 
L 97.223561 34.456078 
L 98.51544 33.899163 
L 99.807319 33.360465 
L 101.099197 32.839229 
L 102.391076 32.334736 
L 103.682955 31.846304 
L 104.974833 31.373286 
L 106.266712 30.915065 
L 107.558591 30.471052 
L 108.85047 30.04069 
L 110.142348 29.623447 
L 111.434227 29.218815 
L 112.726106 28.826311 
L 114.017985 28.445474 
L 115.309863 28.075864 
L 116.601742 27.717063 
L 117.893621 27.368669 
L 119.1855 27.030299 
L 120.477378 26.701589 
L 121.769257 26.38219 
L 123.061136 26.071766 
L 124.353014 25.77 
L 125.644893 25.476584 
L 126.936772 25.191227 
L 128.228651 24.913649 
L 129.520529 24.643581 
L 130.812408 24.380766 
L 132.104287 24.124959 
L 133.396166 23.875922 
L 134.688044 23.633429 
L 135.979923 23.397263 
L 137.271802 23.167216 
L 138.56368 22.943087 
L 139.855559 22.724684 
L 141.147438 22.511822 
L 142.439317 22.304324 
L 143.731195 22.10202 
L 145.023074 21.904744 
L 146.314953 21.712341 
L 147.606832 21.524657 
L 148.89871 21.341548 
L 150.190589 21.162872 
L 151.482468 20.988494 
L 152.774347 20.818285 
L 154.066225 20.652118 
L 155.358104 20.489873 
L 156.649983 20.331433 
L 157.941861 20.176686 
L 159.23374 20.025524 
" clip-path="url(#p4cc2a40779)" style="fill: none; stroke: #000000; stroke-linecap: square"/>
    <defs>
     <path id="m1cd84bcd6e" d="M 0 -1 
L -1 1 
L 1 1 
z
" style="stroke: #000000; stroke-width: 0.8; stroke-linejoin: miter"/>
    </defs>
    <g clip-path="url(#p4cc2a40779)">
     <use xlink:href="#m1cd84bcd6e" x="31.337746" y="114.6891" style="fill-opacity: 0; stroke: #000000; stroke-width: 0.8; stroke-linejoin: miter"/>
     <use xlink:href="#m1cd84bcd6e" x="44.256533" y="91.370651" style="fill-opacity: 0; stroke: #000000; stroke-width: 0.8; stroke-linejoin: miter"/>
     <use xlink:href="#m1cd84bcd6e" x="57.17532" y="67.68961" style="fill-opacity: 0; stroke: #000000; stroke-width: 0.8; stroke-linejoin: miter"/>
     <use xlink:href="#m1cd84bcd6e" x="70.094108" y="52.254489" style="fill-opacity: 0; stroke: #000000; stroke-width: 0.8; stroke-linejoin: miter"/>
     <use xlink:href="#m1cd84bcd6e" x="83.012895" y="42.046101" style="fill-opacity: 0; stroke: #000000; stroke-width: 0.8; stroke-linejoin: miter"/>
     <use xlink:href="#m1cd84bcd6e" x="95.931682" y="35.032005" style="fill-opacity: 0; stroke: #000000; stroke-width: 0.8; stroke-linejoin: miter"/>
     <use xlink:href="#m1cd84bcd6e" x="108.85047" y="30.04069" style="fill-opacity: 0; stroke: #000000; stroke-width: 0.8; stroke-linejoin: miter"/>
     <use xlink:href="#m1cd84bcd6e" x="121.769257" y="26.38219" style="fill-opacity: 0; stroke: #000000; stroke-width: 0.8; stroke-linejoin: miter"/>
     <use xlink:href="#m1cd84bcd6e" x="134.688044" y="23.633429" style="fill-opacity: 0; stroke: #000000; stroke-width: 0.8; stroke-linejoin: miter"/>
     <use xlink:href="#m1cd84bcd6e" x="147.606832" y="21.524657" style="fill-opacity: 0; stroke: #000000; stroke-width: 0.8; stroke-linejoin: miter"/>
    </g>
   </g>
   <g id="line2d_45">
    <path d="M 31.337746 114.691169 
L 32.629625 114.467223 
L 33.921503 113.550383 
L 35.213382 111.92437 
L 36.505261 109.754856 
L 37.797139 107.212225 
L 39.089018 104.433658 
L 40.380897 101.521719 
L 41.672776 98.550753 
L 42.964654 95.573734 
L 44.256533 92.62788 
L 45.548412 89.738916 
L 46.840291 86.924212 
L 48.132169 84.195078 
L 49.424048 81.558424 
L 50.715927 79.017979 
L 52.007805 76.575178 
L 53.299684 74.229809 
L 54.591563 71.980496 
L 55.883442 69.825049 
L 57.17532 67.760725 
L 58.467199 65.784424 
L 59.759078 63.892824 
L 61.050957 62.082492 
L 62.342835 60.349959 
L 63.634714 58.691773 
L 64.926593 57.104541 
L 66.218472 55.584959 
L 67.51035 54.129824 
L 68.802229 52.736056 
L 70.094108 51.400698 
L 71.385986 50.120922 
L 72.677865 48.894031 
L 73.969744 47.717457 
L 75.261623 46.588759 
L 76.553501 45.505618 
L 77.84538 44.465835 
L 79.137259 43.467326 
L 80.429138 42.508115 
L 81.721016 41.586331 
L 83.012895 40.700202 
L 84.304774 39.848051 
L 85.596652 39.028288 
L 86.888531 38.23941 
L 88.18041 37.479994 
L 89.472289 36.748689 
L 90.764167 36.04422 
L 92.056046 35.365376 
L 93.347925 34.71101 
L 94.639804 34.080036 
L 95.931682 33.471423 
L 97.223561 32.884194 
L 98.51544 32.317421 
L 99.807319 31.770224 
L 101.099197 31.241769 
L 102.391076 30.731262 
L 103.682955 30.237948 
L 104.974833 29.761113 
L 106.266712 29.300075 
L 107.558591 28.854187 
L 108.85047 28.422831 
L 110.142348 28.005423 
L 111.434227 27.601404 
L 112.726106 27.210241 
L 114.017985 26.831429 
L 115.309863 26.464485 
L 116.601742 26.108948 
L 117.893621 25.764379 
L 119.1855 25.430359 
L 120.477378 25.106488 
L 121.769257 24.792385 
L 123.061136 24.487685 
L 124.353014 24.192039 
L 125.644893 23.905114 
L 126.936772 23.626592 
L 128.228651 23.356169 
L 129.520529 23.093552 
L 130.812408 22.838464 
L 132.104287 22.590637 
L 133.396166 22.349815 
L 134.688044 22.115755 
L 135.979923 21.88822 
L 137.271802 21.666986 
L 138.56368 21.451837 
L 139.855559 21.242567 
L 141.147438 21.038977 
L 142.439317 20.840877 
L 143.731195 20.648083 
L 145.023074 20.460421 
L 146.314953 20.277721 
L 147.606832 20.099822 
L 148.89871 19.926568 
L 150.190589 19.757809 
L 151.482468 19.593401 
L 152.774347 19.433206 
L 154.066225 19.277091 
L 155.358104 19.124928 
L 156.649983 18.976593 
L 157.941861 18.831968 
L 159.23374 18.690938 
" clip-path="url(#p4cc2a40779)" style="fill: none; stroke-dasharray: 2.96,1.28; stroke-dashoffset: 0; stroke: #dc0000; stroke-width: 0.8"/>
    <defs>
     <path id="me61190398a" d="M 0 -1 
L -1 1 
L 1 1 
z
" style="stroke: #dc0000; stroke-width: 0.8; stroke-linejoin: miter"/>
    </defs>
    <g clip-path="url(#p4cc2a40779)">
     <use xlink:href="#me61190398a" x="31.337746" y="114.691169" style="fill-opacity: 0; stroke: #dc0000; stroke-width: 0.8; stroke-linejoin: miter"/>
     <use xlink:href="#me61190398a" x="44.256533" y="92.62788" style="fill-opacity: 0; stroke: #dc0000; stroke-width: 0.8; stroke-linejoin: miter"/>
     <use xlink:href="#me61190398a" x="57.17532" y="67.760725" style="fill-opacity: 0; stroke: #dc0000; stroke-width: 0.8; stroke-linejoin: miter"/>
     <use xlink:href="#me61190398a" x="70.094108" y="51.400698" style="fill-opacity: 0; stroke: #dc0000; stroke-width: 0.8; stroke-linejoin: miter"/>
     <use xlink:href="#me61190398a" x="83.012895" y="40.700202" style="fill-opacity: 0; stroke: #dc0000; stroke-width: 0.8; stroke-linejoin: miter"/>
     <use xlink:href="#me61190398a" x="95.931682" y="33.471423" style="fill-opacity: 0; stroke: #dc0000; stroke-width: 0.8; stroke-linejoin: miter"/>
     <use xlink:href="#me61190398a" x="108.85047" y="28.422831" style="fill-opacity: 0; stroke: #dc0000; stroke-width: 0.8; stroke-linejoin: miter"/>
     <use xlink:href="#me61190398a" x="121.769257" y="24.792385" style="fill-opacity: 0; stroke: #dc0000; stroke-width: 0.8; stroke-linejoin: miter"/>
     <use xlink:href="#me61190398a" x="134.688044" y="22.115755" style="fill-opacity: 0; stroke: #dc0000; stroke-width: 0.8; stroke-linejoin: miter"/>
     <use xlink:href="#me61190398a" x="147.606832" y="20.099822" style="fill-opacity: 0; stroke: #dc0000; stroke-width: 0.8; stroke-linejoin: miter"/>
    </g>
   </g>
   <g id="line2d_46">
    <path d="M 31.337746 114.692281 
L 32.629625 114.685123 
L 33.921503 114.603503 
L 35.213382 114.338985 
L 36.505261 113.817292 
L 37.797139 113.010776 
L 39.089018 111.925033 
L 40.380897 110.584648 
L 41.672776 109.02311 
L 42.964654 107.276599 
L 44.256533 105.38046 
L 45.548412 103.36737 
L 46.840291 101.266533 
L 48.132169 99.103454 
L 49.424048 96.900041 
L 50.715927 94.674871 
L 52.007805 92.443527 
L 53.299684 90.218952 
L 54.591563 88.01179 
L 55.883442 85.830714 
L 57.17532 83.682701 
L 58.467199 81.573296 
L 59.759078 79.506827 
L 61.050957 77.486599 
L 62.342835 75.515056 
L 63.634714 73.593926 
L 64.926593 71.724336 
L 66.218472 69.906916 
L 67.51035 68.141889 
L 68.802229 66.429136 
L 70.094108 64.768266 
L 71.385986 63.158664 
L 72.677865 61.599537 
L 73.969744 60.089948 
L 75.261623 58.628851 
L 76.553501 57.215114 
L 77.84538 55.847545 
L 79.137259 54.524905 
L 80.429138 53.245927 
L 81.721016 52.009326 
L 83.012895 50.813815 
L 84.304774 49.658105 
L 85.596652 48.540919 
L 86.888531 47.460996 
L 88.18041 46.417093 
L 89.472289 45.407993 
L 90.764167 44.432503 
L 92.056046 43.489461 
L 93.347925 42.577734 
L 94.639804 41.69622 
L 95.931682 40.843852 
L 97.223561 40.019593 
L 98.51544 39.222439 
L 99.807319 38.45142 
L 101.099197 37.705598 
L 102.391076 36.984067 
L 103.682955 36.285953 
L 104.974833 35.610412 
L 106.266712 34.956632 
L 107.558591 34.32383 
L 108.85047 33.71125 
L 110.142348 33.118167 
L 111.434227 32.54388 
L 112.726106 31.987717 
L 114.017985 31.44903 
L 115.309863 30.927195 
L 116.601742 30.421613 
L 117.893621 29.931707 
L 119.1855 29.456923 
L 120.477378 28.996726 
L 121.769257 28.550605 
L 123.061136 28.118065 
L 124.353014 27.698632 
L 125.644893 27.291849 
L 126.936772 26.897278 
L 128.228651 26.514497 
L 129.520529 26.1431 
L 130.812408 25.782695 
L 132.104287 25.432908 
L 133.396166 25.093377 
L 134.688044 24.763754 
L 135.979923 24.443705 
L 137.271802 24.132908 
L 138.56368 23.831052 
L 139.855559 23.537841 
L 141.147438 23.252986 
L 142.439317 22.976211 
L 143.731195 22.707251 
L 145.023074 22.445848 
L 146.314953 22.191757 
L 147.606832 21.94474 
L 148.89871 21.704567 
L 150.190589 21.471019 
L 151.482468 21.243882 
L 152.774347 21.022952 
L 154.066225 20.808031 
L 155.358104 20.598929 
L 156.649983 20.395462 
L 157.941861 20.197455 
L 159.23374 20.004735 
" clip-path="url(#p4cc2a40779)" style="fill: none; stroke-dasharray: 5.12,1.28,0.8,1.28; stroke-dashoffset: 0; stroke: #3c5488; stroke-width: 0.8"/>
    <defs>
     <path id="m26618ec915" d="M 0 -1 
L -1 1 
L 1 1 
z
" style="stroke: #3c5488; stroke-width: 0.8; stroke-linejoin: miter"/>
    </defs>
    <g clip-path="url(#p4cc2a40779)">
     <use xlink:href="#m26618ec915" x="31.337746" y="114.692281" style="fill-opacity: 0; stroke: #3c5488; stroke-width: 0.8; stroke-linejoin: miter"/>
     <use xlink:href="#m26618ec915" x="44.256533" y="105.38046" style="fill-opacity: 0; stroke: #3c5488; stroke-width: 0.8; stroke-linejoin: miter"/>
     <use xlink:href="#m26618ec915" x="57.17532" y="83.682701" style="fill-opacity: 0; stroke: #3c5488; stroke-width: 0.8; stroke-linejoin: miter"/>
     <use xlink:href="#m26618ec915" x="70.094108" y="64.768266" style="fill-opacity: 0; stroke: #3c5488; stroke-width: 0.8; stroke-linejoin: miter"/>
     <use xlink:href="#m26618ec915" x="83.012895" y="50.813815" style="fill-opacity: 0; stroke: #3c5488; stroke-width: 0.8; stroke-linejoin: miter"/>
     <use xlink:href="#m26618ec915" x="95.931682" y="40.843852" style="fill-opacity: 0; stroke: #3c5488; stroke-width: 0.8; stroke-linejoin: miter"/>
     <use xlink:href="#m26618ec915" x="108.85047" y="33.71125" style="fill-opacity: 0; stroke: #3c5488; stroke-width: 0.8; stroke-linejoin: miter"/>
     <use xlink:href="#m26618ec915" x="121.769257" y="28.550605" style="fill-opacity: 0; stroke: #3c5488; stroke-width: 0.8; stroke-linejoin: miter"/>
     <use xlink:href="#m26618ec915" x="134.688044" y="24.763754" style="fill-opacity: 0; stroke: #3c5488; stroke-width: 0.8; stroke-linejoin: miter"/>
     <use xlink:href="#m26618ec915" x="147.606832" y="21.94474" style="fill-opacity: 0; stroke: #3c5488; stroke-width: 0.8; stroke-linejoin: miter"/>
    </g>
   </g>
   <g id="line2d_47">
    <path d="M 31.337746 114.691607 
L 32.629625 114.57116 
L 33.921503 114.073475 
L 35.213382 113.162368 
L 36.505261 111.903355 
L 37.797139 110.376618 
L 39.089018 108.653528 
L 40.380897 106.792185 
L 41.672776 104.838284 
L 42.964654 102.827212 
L 44.256533 100.786161 
L 45.548412 98.735918 
L 46.840291 96.692296 
L 48.132169 94.667258 
L 49.424048 92.669775 
L 50.715927 90.706501 
L 52.007805 88.782283 
L 53.299684 86.900563 
L 54.591563 85.063683 
L 55.883442 83.273132 
L 57.17532 81.52973 
L 58.467199 79.833781 
L 59.759078 78.185183 
L 61.050957 76.583528 
L 62.342835 75.028167 
L 63.634714 73.518275 
L 64.926593 72.052892 
L 66.218472 70.630962 
L 67.51035 69.251362 
L 68.802229 67.912924 
L 70.094108 66.614453 
L 71.385986 65.354742 
L 72.677865 64.132586 
L 73.969744 62.946785 
L 75.261623 61.796157 
L 76.553501 60.67954 
L 77.84538 59.595797 
L 79.137259 58.543817 
L 80.429138 57.52252 
L 81.721016 56.530858 
L 83.012895 55.567814 
L 84.304774 54.632405 
L 85.596652 53.723678 
L 86.888531 52.840716 
L 88.18041 51.982632 
L 89.472289 51.148571 
L 90.764167 50.33771 
L 92.056046 49.549256 
L 93.347925 48.782446 
L 94.639804 48.036544 
L 95.931682 47.310843 
L 97.223561 46.604662 
L 98.51544 45.917348 
L 99.807319 45.248271 
L 101.099197 44.596825 
L 102.391076 43.962427 
L 103.682955 43.344519 
L 104.974833 42.74256 
L 106.266712 42.156034 
L 107.558591 41.584441 
L 108.85047 41.027301 
L 110.142348 40.484154 
L 111.434227 39.954555 
L 112.726106 39.438078 
L 114.017985 38.93431 
L 115.309863 38.442855 
L 116.601742 37.963333 
L 117.893621 37.495376 
L 119.1855 37.03863 
L 120.477378 36.592755 
L 121.769257 36.157422 
L 123.061136 35.732315 
L 124.353014 35.317128 
L 125.644893 34.911569 
L 126.936772 34.515352 
L 128.228651 34.128205 
L 129.520529 33.749864 
L 130.812408 33.380073 
L 132.104287 33.018589 
L 133.396166 32.665172 
L 134.688044 32.319595 
L 135.979923 31.981636 
L 137.271802 31.651081 
L 138.56368 31.327725 
L 139.855559 31.011368 
L 141.147438 30.701818 
L 142.439317 30.398887 
L 143.731195 30.102397 
L 145.023074 29.812173 
L 146.314953 29.528046 
L 147.606832 29.249854 
L 148.89871 28.97744 
L 150.190589 28.71065 
L 151.482468 28.449337 
L 152.774347 28.193359 
L 154.066225 27.942576 
L 155.358104 27.696855 
L 156.649983 27.456066 
L 157.941861 27.220084 
L 159.23374 26.988786 
" clip-path="url(#p4cc2a40779)" style="fill: none; stroke: #000000; stroke-linecap: square"/>
    <defs>
     <path id="m2486349e35" d="M -1 1 
L 1 1 
L 1 -1 
L -1 -1 
z
" style="stroke: #000000; stroke-width: 0.8; stroke-linejoin: miter"/>
    </defs>
    <g clip-path="url(#p4cc2a40779)">
     <use xlink:href="#m2486349e35" x="31.337746" y="114.691607" style="fill-opacity: 0; stroke: #000000; stroke-width: 0.8; stroke-linejoin: miter"/>
     <use xlink:href="#m2486349e35" x="44.256533" y="100.786161" style="fill-opacity: 0; stroke: #000000; stroke-width: 0.8; stroke-linejoin: miter"/>
     <use xlink:href="#m2486349e35" x="57.17532" y="81.52973" style="fill-opacity: 0; stroke: #000000; stroke-width: 0.8; stroke-linejoin: miter"/>
     <use xlink:href="#m2486349e35" x="70.094108" y="66.614453" style="fill-opacity: 0; stroke: #000000; stroke-width: 0.8; stroke-linejoin: miter"/>
     <use xlink:href="#m2486349e35" x="83.012895" y="55.567814" style="fill-opacity: 0; stroke: #000000; stroke-width: 0.8; stroke-linejoin: miter"/>
     <use xlink:href="#m2486349e35" x="95.931682" y="47.310843" style="fill-opacity: 0; stroke: #000000; stroke-width: 0.8; stroke-linejoin: miter"/>
     <use xlink:href="#m2486349e35" x="108.85047" y="41.027301" style="fill-opacity: 0; stroke: #000000; stroke-width: 0.8; stroke-linejoin: miter"/>
     <use xlink:href="#m2486349e35" x="121.769257" y="36.157422" style="fill-opacity: 0; stroke: #000000; stroke-width: 0.8; stroke-linejoin: miter"/>
     <use xlink:href="#m2486349e35" x="134.688044" y="32.319595" style="fill-opacity: 0; stroke: #000000; stroke-width: 0.8; stroke-linejoin: miter"/>
     <use xlink:href="#m2486349e35" x="147.606832" y="29.249854" style="fill-opacity: 0; stroke: #000000; stroke-width: 0.8; stroke-linejoin: miter"/>
    </g>
   </g>
   <g id="line2d_48">
    <path d="M 31.337746 114.692088 
L 32.629625 114.627534 
L 33.921503 114.293239 
L 35.213382 113.600307 
L 36.505261 112.566248 
L 37.797139 111.244577 
L 39.089018 109.694572 
L 40.380897 107.970522 
L 41.672776 106.118679 
L 42.964654 104.177123 
L 44.256533 102.176636 
L 45.548412 100.141827 
L 46.840291 98.092216 
L 48.132169 96.043184 
L 49.424048 94.006778 
L 50.715927 91.992353 
L 52.007805 90.007112 
L 53.299684 88.056523 
L 54.591563 86.144669 
L 55.883442 84.274518 
L 57.17532 82.448146 
L 58.467199 80.666916 
L 59.759078 78.931622 
L 61.050957 77.242599 
L 62.342835 75.599825 
L 63.634714 74.002991 
L 64.926593 72.451565 
L 66.218472 70.94484 
L 67.51035 69.481976 
L 68.802229 68.062033 
L 70.094108 66.683996 
L 71.385986 65.346799 
L 72.677865 64.049341 
L 73.969744 62.790499 
L 75.261623 61.569144 
L 76.553501 60.384145 
L 77.84538 59.234378 
L 79.137259 58.118733 
L 80.429138 57.036119 
L 81.721016 55.985464 
L 83.012895 54.965721 
L 84.304774 53.975869 
L 85.596652 53.014915 
L 86.888531 52.081893 
L 88.18041 51.175868 
L 89.472289 50.295931 
L 90.764167 49.441204 
L 92.056046 48.61084 
L 93.347925 47.804017 
L 94.639804 47.019944 
L 95.931682 46.257856 
L 97.223561 45.517016 
L 98.51544 44.796713 
L 99.807319 44.096263 
L 101.099197 43.415004 
L 102.391076 42.752301 
L 103.682955 42.10754 
L 104.974833 41.480131 
L 106.266712 40.869506 
L 107.558591 40.275118 
L 108.85047 39.696438 
L 110.142348 39.132958 
L 111.434227 38.584191 
L 112.726106 38.049663 
L 114.017985 37.528923 
L 115.309863 37.021532 
L 116.601742 36.52707 
L 117.893621 36.045131 
L 119.1855 35.575323 
L 120.477378 35.117271 
L 121.769257 34.670612 
L 123.061136 34.234994 
L 124.353014 33.810082 
L 125.644893 33.39555 
L 126.936772 32.991084 
L 128.228651 32.596382 
L 129.520529 32.211152 
L 130.812408 31.835113 
L 132.104287 31.467993 
L 133.396166 31.109529 
L 134.688044 30.759469 
L 135.979923 30.417569 
L 137.271802 30.083593 
L 138.56368 29.757313 
L 139.855559 29.43851 
L 141.147438 29.126969 
L 142.439317 28.822488 
L 143.731195 28.524866 
L 145.023074 28.233912 
L 146.314953 27.94944 
L 147.606832 27.671273 
L 148.89871 27.399235 
L 150.190589 27.13316 
L 151.482468 26.872885 
L 152.774347 26.618253 
L 154.066225 26.369113 
L 155.358104 26.125317 
L 156.649983 25.886723 
L 157.941861 25.653194 
L 159.23374 25.424595 
" clip-path="url(#p4cc2a40779)" style="fill: none; stroke-dasharray: 2.96,1.28; stroke-dashoffset: 0; stroke: #dc0000; stroke-width: 0.8"/>
    <defs>
     <path id="md0efb1a728" d="M -1 1 
L 1 1 
L 1 -1 
L -1 -1 
z
" style="stroke: #dc0000; stroke-width: 0.8; stroke-linejoin: miter"/>
    </defs>
    <g clip-path="url(#p4cc2a40779)">
     <use xlink:href="#md0efb1a728" x="31.337746" y="114.692088" style="fill-opacity: 0; stroke: #dc0000; stroke-width: 0.8; stroke-linejoin: miter"/>
     <use xlink:href="#md0efb1a728" x="44.256533" y="102.176636" style="fill-opacity: 0; stroke: #dc0000; stroke-width: 0.8; stroke-linejoin: miter"/>
     <use xlink:href="#md0efb1a728" x="57.17532" y="82.448146" style="fill-opacity: 0; stroke: #dc0000; stroke-width: 0.8; stroke-linejoin: miter"/>
     <use xlink:href="#md0efb1a728" x="70.094108" y="66.683996" style="fill-opacity: 0; stroke: #dc0000; stroke-width: 0.8; stroke-linejoin: miter"/>
     <use xlink:href="#md0efb1a728" x="83.012895" y="54.965721" style="fill-opacity: 0; stroke: #dc0000; stroke-width: 0.8; stroke-linejoin: miter"/>
     <use xlink:href="#md0efb1a728" x="95.931682" y="46.257856" style="fill-opacity: 0; stroke: #dc0000; stroke-width: 0.8; stroke-linejoin: miter"/>
     <use xlink:href="#md0efb1a728" x="108.85047" y="39.696438" style="fill-opacity: 0; stroke: #dc0000; stroke-width: 0.8; stroke-linejoin: miter"/>
     <use xlink:href="#md0efb1a728" x="121.769257" y="34.670612" style="fill-opacity: 0; stroke: #dc0000; stroke-width: 0.8; stroke-linejoin: miter"/>
     <use xlink:href="#md0efb1a728" x="134.688044" y="30.759469" style="fill-opacity: 0; stroke: #dc0000; stroke-width: 0.8; stroke-linejoin: miter"/>
     <use xlink:href="#md0efb1a728" x="147.606832" y="27.671273" style="fill-opacity: 0; stroke: #dc0000; stroke-width: 0.8; stroke-linejoin: miter"/>
    </g>
   </g>
   <g id="line2d_49">
    <path d="M 31.337746 114.692283 
L 32.629625 114.690909 
L 33.921503 114.670413 
L 35.213382 114.590494 
L 36.505261 114.40984 
L 37.797139 114.099078 
L 39.089018 113.642502 
L 40.380897 113.035611 
L 41.672776 112.281893 
L 42.964654 111.390029 
L 44.256533 110.371758 
L 45.548412 109.240362 
L 46.840291 108.009625 
L 48.132169 106.693162 
L 49.424048 105.303992 
L 50.715927 103.854292 
L 52.007805 102.355268 
L 53.299684 100.81711 
L 54.591563 99.248995 
L 55.883442 97.659123 
L 57.17532 96.054773 
L 58.467199 94.442372 
L 59.759078 92.827559 
L 61.050957 91.215262 
L 62.342835 89.609765 
L 63.634714 88.01477 
L 64.926593 86.433463 
L 66.218472 84.868565 
L 67.51035 83.322388 
L 68.802229 81.796876 
L 70.094108 80.293652 
L 71.385986 78.814053 
L 72.677865 77.359166 
L 73.969744 75.929853 
L 75.261623 74.526785 
L 76.553501 73.150463 
L 77.84538 71.801235 
L 79.137259 70.479325 
L 80.429138 69.184838 
L 81.721016 67.917785 
L 83.012895 66.67809 
L 84.304774 65.465604 
L 85.596652 64.280116 
L 86.888531 63.12136 
L 88.18041 61.989024 
L 89.472289 60.88276 
L 90.764167 59.802184 
L 92.056046 58.746889 
L 93.347925 57.716443 
L 94.639804 56.710399 
L 95.931682 55.728295 
L 97.223561 54.769658 
L 98.51544 53.834008 
L 99.807319 52.92086 
L 101.099197 52.029727 
L 102.391076 51.160119 
L 103.682955 50.311549 
L 104.974833 49.48353 
L 106.266712 48.67558 
L 107.558591 47.88722 
L 108.85047 47.117979 
L 110.142348 46.367389 
L 111.434227 45.634991 
L 112.726106 44.920331 
L 114.017985 44.222966 
L 115.309863 43.542459 
L 116.601742 42.878382 
L 117.893621 42.230314 
L 119.1855 41.597845 
L 120.477378 40.980574 
L 121.769257 40.378107 
L 123.061136 39.79006 
L 124.353014 39.216059 
L 125.644893 38.655738 
L 126.936772 38.108739 
L 128.228651 37.574715 
L 129.520529 37.053326 
L 130.812408 36.544241 
L 132.104287 36.047139 
L 133.396166 35.561705 
L 134.688044 35.087634 
L 135.979923 34.624628 
L 137.271802 34.172398 
L 138.56368 33.730662 
L 139.855559 33.299146 
L 141.147438 32.877583 
L 142.439317 32.465713 
L 143.731195 32.063285 
L 145.023074 31.670053 
L 146.314953 31.285777 
L 147.606832 30.910227 
L 148.89871 30.543177 
L 150.190589 30.184406 
L 151.482468 29.833702 
L 152.774347 29.490858 
L 154.066225 29.155671 
L 155.358104 28.827947 
L 156.649983 28.507493 
L 157.941861 28.194126 
L 159.23374 27.887665 
" clip-path="url(#p4cc2a40779)" style="fill: none; stroke-dasharray: 5.12,1.28,0.8,1.28; stroke-dashoffset: 0; stroke: #3c5488; stroke-width: 0.8"/>
    <defs>
     <path id="m64429c1215" d="M -1 1 
L 1 1 
L 1 -1 
L -1 -1 
z
" style="stroke: #3c5488; stroke-width: 0.8; stroke-linejoin: miter"/>
    </defs>
    <g clip-path="url(#p4cc2a40779)">
     <use xlink:href="#m64429c1215" x="31.337746" y="114.692283" style="fill-opacity: 0; stroke: #3c5488; stroke-width: 0.8; stroke-linejoin: miter"/>
     <use xlink:href="#m64429c1215" x="44.256533" y="110.371758" style="fill-opacity: 0; stroke: #3c5488; stroke-width: 0.8; stroke-linejoin: miter"/>
     <use xlink:href="#m64429c1215" x="57.17532" y="96.054773" style="fill-opacity: 0; stroke: #3c5488; stroke-width: 0.8; stroke-linejoin: miter"/>
     <use xlink:href="#m64429c1215" x="70.094108" y="80.293652" style="fill-opacity: 0; stroke: #3c5488; stroke-width: 0.8; stroke-linejoin: miter"/>
     <use xlink:href="#m64429c1215" x="83.012895" y="66.67809" style="fill-opacity: 0; stroke: #3c5488; stroke-width: 0.8; stroke-linejoin: miter"/>
     <use xlink:href="#m64429c1215" x="95.931682" y="55.728295" style="fill-opacity: 0; stroke: #3c5488; stroke-width: 0.8; stroke-linejoin: miter"/>
     <use xlink:href="#m64429c1215" x="108.85047" y="47.117979" style="fill-opacity: 0; stroke: #3c5488; stroke-width: 0.8; stroke-linejoin: miter"/>
     <use xlink:href="#m64429c1215" x="121.769257" y="40.378107" style="fill-opacity: 0; stroke: #3c5488; stroke-width: 0.8; stroke-linejoin: miter"/>
     <use xlink:href="#m64429c1215" x="134.688044" y="35.087634" style="fill-opacity: 0; stroke: #3c5488; stroke-width: 0.8; stroke-linejoin: miter"/>
     <use xlink:href="#m64429c1215" x="147.606832" y="30.910227" style="fill-opacity: 0; stroke: #3c5488; stroke-width: 0.8; stroke-linejoin: miter"/>
    </g>
   </g>
   <g id="patch_3">
    <path d="M 30.91 114.692283 
L 30.91 11.52 
" style="fill: none; stroke: #000000; stroke-width: 0.5; stroke-linejoin: miter; stroke-linecap: square"/>
   </g>
   <g id="patch_4">
    <path d="M 159.23374 114.692283 
L 159.23374 11.52 
" style="fill: none; stroke: #000000; stroke-width: 0.5; stroke-linejoin: miter; stroke-linecap: square"/>
   </g>
   <g id="patch_5">
    <path d="M 30.91 114.692283 
L 159.23374 114.692283 
" style="fill: none; stroke: #000000; stroke-width: 0.5; stroke-linejoin: miter; stroke-linecap: square"/>
   </g>
   <g id="patch_6">
    <path d="M 30.91 11.52 
L 159.23374 11.52 
" style="fill: none; stroke: #000000; stroke-width: 0.5; stroke-linejoin: miter; stroke-linecap: square"/>
   </g>
  </g>
 </g>
 <defs>
  <clipPath id="p4cc2a40779">
   <rect x="30.91" y="11.52" width="128.32374" height="103.172283"/>
  </clipPath>
 </defs>
</svg>
